M48
; DRILL file {KiCad (5.99.0-6545-gfc5120553)} date Sunday, October 25, 2020 at 04:43:39 PM
; FORMAT={-:-/ absolute / inch / decimal}
; #@! TF.CreationDate,2020-10-25T16:43:39-04:00
; #@! TF.GenerationSoftware,Kicad,Pcbnew,(5.99.0-6545-gfc5120553)
; #@! TF.FileFunction,NonPlated,1,2,NPTH
FMAT,2
INCH
T1C0.0669
T2C0.1201
T3C0.1575
%
G90
G05
T1
X4.95Y-4.1
X5.35Y-4.1
X6.45Y-4.1
X6.85Y-4.1
X4.95Y-3.35
X5.35Y-3.35
X4.2Y-2.6
X4.6Y-2.6
X5.7Y-4.85
X6.1Y-4.85
X6.45Y-3.35
X6.85Y-3.35
X4.2Y-3.35
X4.6Y-3.35
X6.45Y-4.85
X6.85Y-4.85
X5.7Y-3.35
X6.1Y-3.35
X4.575Y-4.85
X4.975Y-4.85
X5.7Y-4.1
X6.1Y-4.1
X5.7Y-2.6
X6.1Y-2.6
X4.95Y-2.6
X5.35Y-2.6
X4.2Y-4.1
X4.6Y-4.1
T2
X4.3065Y-4.5744
X5.2435Y-4.5744
T3
X5.15Y-3.35
X4.4Y-2.6
X5.9Y-4.85
X6.65Y-3.35
X4.4Y-3.35
X6.65Y-4.85
X5.9Y-3.35
X4.3065Y-5.1744
X4.775Y-4.85
X5.2435Y-5.1744
X5.9Y-4.1
X5.9Y-2.6
X5.15Y-2.6
X4.4Y-4.1
X5.15Y-4.1
X6.65Y-4.1
T0
M30
