G04 #@! TF.GenerationSoftware,KiCad,Pcbnew,(5.99.0-6545-gfc5120553)*
G04 #@! TF.CreationDate,2020-10-25T16:43:41-04:00*
G04 #@! TF.ProjectId,imperializer,696d7065-7269-4616-9c69-7a65722e6b69,1.22*
G04 #@! TF.SameCoordinates,Original*
G04 #@! TF.FileFunction,Paste,Bot*
G04 #@! TF.FilePolarity,Positive*
%FSLAX46Y46*%
G04 Gerber Fmt 4.6, Leading zero omitted, Abs format (unit mm)*
G04 Created by KiCad (PCBNEW (5.99.0-6545-gfc5120553)) date 2020-10-25 16:43:41*
%MOMM*%
%LPD*%
G01*
G04 APERTURE LIST*
G04 Aperture macros list*
%AMRoundRect*
0 Rectangle with rounded corners*
0 $1 Rounding radius*
0 $2 $3 $4 $5 $6 $7 $8 $9 X,Y pos of 4 corners*
0 Add a 4 corners polygon primitive as box body*
4,1,4,$2,$3,$4,$5,$6,$7,$8,$9,$2,$3,0*
0 Add four circle primitives for the rounded corners*
1,1,$1+$1,$2,$3,0*
1,1,$1+$1,$4,$5,0*
1,1,$1+$1,$6,$7,0*
1,1,$1+$1,$8,$9,0*
0 Add four rect primitives between the rounded corners*
20,1,$1+$1,$2,$3,$4,$5,0*
20,1,$1+$1,$4,$5,$6,$7,0*
20,1,$1+$1,$6,$7,$8,$9,0*
20,1,$1+$1,$8,$9,$2,$3,0*%
G04 Aperture macros list end*
%ADD10RoundRect,0.250000X0.262500X0.450000X-0.262500X0.450000X-0.262500X-0.450000X0.262500X-0.450000X0*%
%ADD11RoundRect,0.150000X0.512500X0.150000X-0.512500X0.150000X-0.512500X-0.150000X0.512500X-0.150000X0*%
%ADD12RoundRect,0.218750X0.218750X0.381250X-0.218750X0.381250X-0.218750X-0.381250X0.218750X-0.381250X0*%
%ADD13RoundRect,0.243750X-0.456250X0.243750X-0.456250X-0.243750X0.456250X-0.243750X0.456250X0.243750X0*%
%ADD14R,0.410000X1.600000*%
%ADD15RoundRect,0.243750X-0.243750X-0.456250X0.243750X-0.456250X0.243750X0.456250X-0.243750X0.456250X0*%
%ADD16RoundRect,0.243750X0.456250X-0.243750X0.456250X0.243750X-0.456250X0.243750X-0.456250X-0.243750X0*%
%ADD17RoundRect,0.243750X0.243750X0.456250X-0.243750X0.456250X-0.243750X-0.456250X0.243750X-0.456250X0*%
%ADD18R,0.800000X0.900000*%
%ADD19R,0.900000X0.800000*%
%ADD20R,1.600000X0.550000*%
%ADD21R,0.550000X1.600000*%
G04 APERTURE END LIST*
D10*
X90575000Y-59800000D03*
X92400000Y-59800000D03*
X96887500Y-65000000D03*
X98712500Y-65000000D03*
D11*
X96462500Y-121050000D03*
X96462500Y-122950000D03*
X98737500Y-122950000D03*
X98737500Y-122000000D03*
X98737500Y-121050000D03*
D12*
X96537500Y-117600000D03*
X98662500Y-117600000D03*
D13*
X138684000Y-53418500D03*
X138684000Y-55293500D03*
X136652000Y-49530000D03*
X136652000Y-51405000D03*
X136652000Y-53418500D03*
X136652000Y-55293500D03*
D14*
X127317500Y-31635700D03*
X127952500Y-31635700D03*
X128587500Y-31635700D03*
X129222500Y-31635700D03*
X129857500Y-31635700D03*
X130492500Y-31635700D03*
X131127500Y-31635700D03*
X131762500Y-31635700D03*
X132397500Y-31635700D03*
X133032500Y-31635700D03*
X133667500Y-31635700D03*
X134302500Y-31635700D03*
X134302500Y-36944300D03*
X133667500Y-36944300D03*
X133032500Y-36944300D03*
X132397500Y-36944300D03*
X131762500Y-36944300D03*
X131127500Y-36944300D03*
X130492500Y-36944300D03*
X129857500Y-36944300D03*
X129222500Y-36944300D03*
X128587500Y-36944300D03*
X127952500Y-36944300D03*
X127317500Y-36944300D03*
D13*
X136652000Y-36733000D03*
X136652000Y-38608000D03*
X137414000Y-40284400D03*
X137414000Y-42159400D03*
D14*
X127317500Y-44335700D03*
X127952500Y-44335700D03*
X128587500Y-44335700D03*
X129222500Y-44335700D03*
X129857500Y-44335700D03*
X130492500Y-44335700D03*
X131127500Y-44335700D03*
X131762500Y-44335700D03*
X132397500Y-44335700D03*
X133032500Y-44335700D03*
X133667500Y-44335700D03*
X134302500Y-44335700D03*
X134302500Y-49644300D03*
X133667500Y-49644300D03*
X133032500Y-49644300D03*
X132397500Y-49644300D03*
X131762500Y-49644300D03*
X131127500Y-49644300D03*
X130492500Y-49644300D03*
X129857500Y-49644300D03*
X129222500Y-49644300D03*
X128587500Y-49644300D03*
X127952500Y-49644300D03*
X127317500Y-49644300D03*
D13*
X139547600Y-40284400D03*
X139547600Y-42159400D03*
D15*
X101503000Y-82550000D03*
X103378000Y-82550000D03*
D13*
X99926750Y-110112500D03*
X99926750Y-111987500D03*
D16*
X89408000Y-75105500D03*
X89408000Y-73230500D03*
D17*
X99921300Y-101879400D03*
X98046300Y-101879400D03*
X99921300Y-98094800D03*
X98046300Y-98094800D03*
D18*
X92710000Y-104978200D03*
X90810000Y-104978200D03*
X91760000Y-102978200D03*
D16*
X95608750Y-111987500D03*
X95608750Y-110112500D03*
D17*
X94915506Y-54860415D03*
X93040506Y-54860415D03*
D16*
X97536000Y-85011500D03*
X97536000Y-83136500D03*
D13*
X94488000Y-83136500D03*
X94488000Y-85011500D03*
D19*
X92798750Y-110100000D03*
X92798750Y-112000000D03*
X90798750Y-111050000D03*
D18*
X98033800Y-104333800D03*
X99933800Y-104333800D03*
X98983800Y-106333800D03*
D13*
X109474000Y-72595500D03*
X109474000Y-74470500D03*
D16*
X102743000Y-64516000D03*
X102743000Y-62641000D03*
D17*
X98727500Y-61468000D03*
X96852500Y-61468000D03*
X97028000Y-58801000D03*
X95153000Y-58801000D03*
X101013500Y-86995000D03*
X99138500Y-86995000D03*
D16*
X104140000Y-70279500D03*
X104140000Y-68404500D03*
D20*
X92350000Y-77943225D03*
X92350000Y-77143225D03*
X92350000Y-76343225D03*
X92350000Y-75543225D03*
X92350000Y-74743225D03*
X92350000Y-73943225D03*
X92350000Y-73143225D03*
X92350000Y-72343225D03*
D21*
X93800000Y-70893225D03*
X94600000Y-70893225D03*
X95400000Y-70893225D03*
X96200000Y-70893225D03*
X97000000Y-70893225D03*
X97800000Y-70893225D03*
X98600000Y-70893225D03*
X99400000Y-70893225D03*
D20*
X100850000Y-72343225D03*
X100850000Y-73143225D03*
X100850000Y-73943225D03*
X100850000Y-74743225D03*
X100850000Y-75543225D03*
X100850000Y-76343225D03*
X100850000Y-77143225D03*
X100850000Y-77943225D03*
D21*
X99400000Y-79393225D03*
X98600000Y-79393225D03*
X97800000Y-79393225D03*
X97000000Y-79393225D03*
X96200000Y-79393225D03*
X95400000Y-79393225D03*
X94600000Y-79393225D03*
X93800000Y-79393225D03*
M02*
