M48
; DRILL file {KiCad (5.1.6-0-10_14)} date Tuesday, September 15, 2020 at 11:41:30 AM
; FORMAT={-:-/ absolute / inch / decimal}
; #@! TF.CreationDate,2020-09-15T11:41:30-04:00
; #@! TF.GenerationSoftware,Kicad,Pcbnew,(5.1.6-0-10_14)
; #@! TF.FileFunction,Plated,1,2,PTH
FMAT,2
INCH
T1C0.0157
T2C0.0236
T3C0.0394
T4C0.0402
T5C0.0591
T6C0.1673
%
G90
G05
T1
X3.51Y-3.06
X3.5327Y-2.615
X3.535Y-2.545
X3.5621Y-3.4529
X3.58Y-2.64
X3.625Y-2.675
X3.66Y-3.25
X3.71Y-3.07
X3.71Y-3.2
X3.7163Y-4.6326
X3.75Y-2.73
X3.77Y-2.97
X3.78Y-2.66
X3.78Y-3.305
X3.83Y-2.99
X3.86Y-2.19
X3.86Y-3.0763
X3.88Y-2.88
X3.9Y-3.94
X3.9Y-4.25
X3.935Y-1.8325
X3.9394Y-4.8206
X3.945Y-2.545
X3.945Y-2.8
X4.018Y-1.888
X4.02Y-1.31
X4.02Y-2.8634
X4.0223Y-2.41
X4.036Y-3.907
X4.045Y-3.485
X4.05Y-2.37
X4.05Y-2.9
X4.05Y-2.94
X4.0754Y-3.0533
X4.1Y-1.35
X4.12Y-1.03
X4.128Y-1.796
X4.15Y-1.26
X4.16Y-2.268
X4.17Y-3.19
X4.208Y-1.9423
X4.215Y-2.93
X4.235Y-2.68
X4.25Y-2.252
X4.31Y-1.39
X4.31Y-1.9423
X4.41Y-1.4077
X4.41Y-2.228
X4.51Y-1.3223
X4.522Y-1.824
X4.612Y-2.49
X4.6264Y-4.42
X4.6685Y-2.8877
X4.71Y-1.33
X4.71Y-1.852
X4.91Y-1.94
X4.926Y-1.8737
X4.95Y-1.656
X4.98Y-1.24
X4.988Y-1.874
X4.998Y-2.894
X5.006Y-1.58
X5.01Y-1.68
X5.084Y-1.666
X5.1348Y-1.8898
X5.136Y-2.176
X5.1375Y-1.6405
X5.147Y-1.5078
X5.16Y-1.33
X5.1675Y-1.565
X5.19Y-1.1
X5.1907Y-1.8725
X5.192Y-2.134
X5.194Y-2.046
X5.2Y-1.654
X5.262Y-2.022
X5.27Y-2.81
X5.28Y-1.5683
X5.2954Y-1.6846
X5.3178Y-1.7462
X5.374Y-2.382
X5.38Y-1.2
X5.43Y-1.11
X5.49Y-1.28
X5.49Y-1.53
X5.5Y-1.42
X5.506Y-4.0
X5.5073Y-1.1427
X5.56Y-1.32
X5.59Y-1.784
X5.684Y-2.264
X5.69Y-1.8043
X5.744Y-1.716
X5.744Y-2.114
X5.748Y-3.044
X5.752Y-2.298
X5.784Y-4.418
X5.788Y-1.8957
X5.79Y-1.38
X5.836Y-1.706
X5.836Y-1.964
X5.986Y-2.232
X6.0Y-1.37
X6.08Y-1.42
X6.082Y-1.834
X6.175Y-1.425
X6.19Y-2.49
X6.22Y-2.98
X6.242Y-2.892
X6.28Y-2.94
X6.296Y-3.978
X6.43Y-3.31
X6.51Y-1.85
X6.52Y-2.6
X6.52Y-2.97
X6.56Y-2.79
X6.56Y-3.35
X6.59Y-4.47
X6.6Y-3.29
X6.66Y-3.71
X6.71Y-1.78
X6.76Y-3.1
X6.211Y-1.2919
X6.211Y-1.345
X6.2445Y-1.2919
X6.2445Y-1.345
X6.2779Y-1.2919
X6.2779Y-1.345
X6.3114Y-1.2919
X6.3114Y-1.345
X6.3449Y-1.2919
X6.3449Y-1.345
X6.3783Y-1.2919
X6.3783Y-1.345
X6.4118Y-1.2919
X6.4118Y-1.345
X6.4453Y-1.2919
X6.4453Y-1.345
T3
X6.6Y-2.225
X6.6Y-2.325
X6.6Y-2.425
X5.59Y-1.645
X5.59Y-2.045
X5.69Y-1.645
X5.69Y-2.045
X5.79Y-1.645
X5.79Y-2.045
X5.89Y-1.645
X5.89Y-2.045
X5.99Y-2.045
X6.09Y-1.645
X6.09Y-2.045
X6.19Y-2.045
X6.29Y-1.645
X6.29Y-2.045
X4.01Y-1.645
X4.01Y-2.045
X4.11Y-1.645
X4.11Y-2.045
X4.21Y-1.645
X4.21Y-2.045
X4.31Y-1.645
X4.31Y-2.045
X4.41Y-2.045
X4.51Y-1.645
X4.51Y-2.045
X4.61Y-2.045
X4.71Y-1.645
X4.71Y-2.045
X5.59Y-1.13
X5.59Y-1.53
X5.69Y-1.13
X5.69Y-1.53
X5.79Y-1.13
X5.79Y-1.53
X5.89Y-1.13
X5.89Y-1.53
X5.99Y-1.53
X6.09Y-1.13
X6.09Y-1.53
X6.19Y-1.53
X6.29Y-1.13
X6.29Y-1.53
X4.01Y-1.13
X4.01Y-1.53
X4.11Y-1.13
X4.11Y-1.53
X4.21Y-1.13
X4.21Y-1.53
X4.31Y-1.13
X4.31Y-1.53
X4.41Y-1.53
X4.51Y-1.13
X4.51Y-1.53
X4.61Y-1.53
X4.71Y-1.13
X4.71Y-1.53
T4
X6.525Y-3.45
X6.525Y-5.2098
X3.8Y-3.4502
X3.8Y-5.21
T5
X4.25Y-3.25
X4.5Y-3.15
X5.75Y-3.25
X6.0Y-3.15
X5.75Y-2.5
X6.0Y-2.4
X5.0Y-2.5
X5.25Y-2.4
X4.625Y-4.75
X4.875Y-4.65
X5.75Y-4.75
X6.0Y-4.65
X4.25Y-4.0
X4.5Y-3.9
X5.75Y-4.0
X6.0Y-3.9
X5.0Y-4.0
X5.25Y-3.9
X4.25Y-2.5
X4.5Y-2.4
X5.0Y-3.25
X5.25Y-3.15
T6
X6.675Y-5.05
X3.625Y-5.05
X3.625Y-1.15
X6.675Y-1.15
T2
G00X6.1579Y-1.1576
M15
G01X6.1579Y-1.1891
M16
G05
G00X6.1579Y-1.2769
M15
G01X6.1579Y-1.3359
M16
G05
G00X6.4984Y-1.1576
M15
G01X6.4984Y-1.1891
M16
G05
G00X6.4984Y-1.2769
M15
G01X6.4984Y-1.3359
M16
G05
T0
M30
