M48
; DRILL file {KiCad (5.99.0-6545-gfc5120553)} date Sunday, October 25, 2020 at 04:43:39 PM
; FORMAT={-:-/ absolute / inch / decimal}
; #@! TF.CreationDate,2020-10-25T16:43:39-04:00
; #@! TF.GenerationSoftware,Kicad,Pcbnew,(5.99.0-6545-gfc5120553)
; #@! TF.FileFunction,Plated,1,2,PTH
FMAT,2
INCH
T1C0.0157
T2C0.0394
T3C0.0402
T4C0.0591
%
G90
G05
T1
X3.51Y-3.06
X3.5327Y-2.615
X3.535Y-2.5512
X3.5433Y-3.4882
X3.5669Y-2.3937
X3.5669Y-4.252
X3.6063Y-2.1575
X3.6299Y-2.6929
X3.6338Y-3.3647
X3.6457Y-3.126
X3.6892Y-2.5349
X3.7008Y-3.0551
X3.71Y-3.2
X3.748Y-2.2165
X3.748Y-2.3858
X3.7559Y-2.9134
X3.7638Y-2.9764
X3.7717Y-3.3071
X3.7992Y-2.1457
X3.811Y-2.6535
X3.8661Y-2.937
X3.8862Y-2.7304
X3.8895Y-2.6144
X3.8976Y-2.874
X3.9Y-3.94
X3.9213Y-2.252
X3.934Y-2.7231
X3.935Y-1.8325
X3.946Y-2.8198
X3.95Y-2.545
X4.018Y-1.888
X4.02Y-1.31
X4.0223Y-2.41
X4.0345Y-2.8649
X4.036Y-3.907
X4.045Y-3.485
X4.063Y-2.2913
X4.063Y-2.9291
X4.0709Y-2.874
X4.0754Y-3.0533
X4.1Y-1.35
X4.12Y-1.03
X4.128Y-1.796
X4.15Y-1.26
X4.1654Y-2.3858
X4.17Y-3.19
X4.208Y-1.9423
X4.215Y-2.93
X4.235Y-2.68
X4.25Y-2.252
X4.31Y-1.39
X4.31Y-1.9423
X4.3937Y-2.2538
X4.41Y-1.4077
X4.51Y-1.3223
X4.522Y-1.824
X4.612Y-2.49
X4.6264Y-4.42
X4.6685Y-2.8877
X4.71Y-1.33
X4.71Y-1.852
X4.91Y-1.94
X4.926Y-1.8737
X4.95Y-1.656
X4.98Y-1.24
X4.988Y-1.874
X4.998Y-2.894
X5.006Y-1.58
X5.01Y-1.68
X5.084Y-1.666
X5.1348Y-1.8898
X5.136Y-2.176
X5.1375Y-1.6405
X5.147Y-1.5078
X5.16Y-1.33
X5.1675Y-1.565
X5.19Y-1.1
X5.1907Y-1.8725
X5.192Y-2.134
X5.194Y-2.046
X5.2Y-1.654
X5.262Y-2.022
X5.27Y-2.81
X5.28Y-1.5683
X5.2954Y-1.6846
X5.3178Y-1.7462
X5.374Y-2.382
X5.38Y-1.2
X5.43Y-1.11
X5.49Y-1.28
X5.49Y-1.53
X5.5Y-1.42
X5.506Y-4.0
X5.5073Y-1.1427
X5.56Y-1.32
X5.59Y-1.784
X5.69Y-1.8043
X5.6929Y-2.2992
X5.744Y-1.716
X5.744Y-2.114
X5.748Y-3.044
X5.7559Y-2.3386
X5.784Y-4.418
X5.788Y-1.8957
X5.79Y-1.38
X5.836Y-1.706
X5.836Y-1.964
X5.9921Y-2.2677
X6.0Y-1.37
X6.08Y-1.42
X6.082Y-1.834
X6.164Y-3.9
X6.175Y-1.425
X6.19Y-2.49
X6.242Y-2.892
X6.2677Y-4.0079
X6.4752Y-1.8578
X6.4803Y-2.3307
X6.5039Y-2.2126
X6.5276Y-2.4567
X6.5906Y-2.5906
X6.5984Y-2.4882
X6.9055Y-2.9764
X6.9134Y-3.4724
X6.9685Y-1.3543
T2
X4.01Y-1.13
X4.01Y-1.53
X4.11Y-1.13
X4.11Y-1.53
X4.21Y-1.13
X4.21Y-1.53
X4.31Y-1.13
X4.31Y-1.53
X4.41Y-1.53
X4.51Y-1.13
X4.51Y-1.53
X4.61Y-1.53
X4.71Y-1.13
X4.71Y-1.53
X5.59Y-1.13
X5.59Y-1.53
X5.69Y-1.13
X5.69Y-1.53
X5.79Y-1.13
X5.79Y-1.53
X5.89Y-1.13
X5.89Y-1.53
X5.99Y-1.53
X6.09Y-1.13
X6.09Y-1.53
X6.19Y-1.53
X6.29Y-1.13
X6.29Y-1.53
X4.01Y-1.645
X4.01Y-2.045
X4.11Y-1.645
X4.11Y-2.045
X4.21Y-1.645
X4.21Y-2.045
X4.31Y-1.645
X4.31Y-2.045
X4.41Y-2.045
X4.51Y-1.645
X4.51Y-2.045
X4.61Y-2.045
X4.71Y-1.645
X4.71Y-2.045
X5.59Y-1.645
X5.59Y-2.045
X5.69Y-1.645
X5.69Y-2.045
X5.79Y-1.645
X5.79Y-2.045
X5.89Y-1.645
X5.89Y-2.045
X5.99Y-2.045
X6.09Y-1.645
X6.09Y-2.045
X6.19Y-2.045
X6.29Y-1.645
X6.29Y-2.045
X6.6894Y-2.5
X6.6894Y-2.6
X6.6894Y-2.7
T3
X3.7365Y-3.4442
X3.7365Y-5.2041
T4
X5.0Y-4.0
X5.25Y-3.9
X6.5Y-4.0
X6.75Y-3.9
X5.0Y-3.25
X5.25Y-3.15
X4.25Y-2.5
X4.5Y-2.4
X5.75Y-4.75
X6.0Y-4.65
X6.5Y-3.25
X6.75Y-3.15
X4.25Y-3.25
X4.5Y-3.15
X6.5Y-4.75
X6.75Y-4.65
X5.75Y-3.25
X6.0Y-3.15
X4.625Y-4.75
X4.875Y-4.65
X5.75Y-4.0
X6.0Y-3.9
X5.75Y-2.5
X6.0Y-2.4
X5.0Y-2.5
X5.25Y-2.4
X4.25Y-4.0
X4.5Y-3.9
T0
M30
