G04 #@! TF.GenerationSoftware,KiCad,Pcbnew,(5.1.6-0-10_14)*
G04 #@! TF.CreationDate,2020-09-15T11:41:32-04:00*
G04 #@! TF.ProjectId,imperializer,696d7065-7269-4616-9c69-7a65722e6b69,1.2*
G04 #@! TF.SameCoordinates,Original*
G04 #@! TF.FileFunction,Soldermask,Bot*
G04 #@! TF.FilePolarity,Negative*
%FSLAX46Y46*%
G04 Gerber Fmt 4.6, Leading zero omitted, Abs format (unit mm)*
G04 Created by KiCad (PCBNEW (5.1.6-0-10_14)) date 2020-09-15 11:41:32*
%MOMM*%
%LPD*%
G01*
G04 APERTURE LIST*
%ADD10C,0.100000*%
G04 APERTURE END LIST*
D10*
G36*
X133543881Y-129255023D02*
G01*
X133827652Y-129311468D01*
X134228608Y-129477550D01*
X134589458Y-129718662D01*
X134896338Y-130025542D01*
X135137450Y-130386392D01*
X135303532Y-130787348D01*
X135303532Y-130787350D01*
X135371849Y-131130800D01*
X135388200Y-131213005D01*
X135388200Y-131646995D01*
X135303532Y-132072652D01*
X135137450Y-132473608D01*
X134896338Y-132834458D01*
X134589458Y-133141338D01*
X134228608Y-133382450D01*
X133827652Y-133548532D01*
X133543881Y-133604977D01*
X133401996Y-133633200D01*
X132968004Y-133633200D01*
X132826119Y-133604977D01*
X132542348Y-133548532D01*
X132141392Y-133382450D01*
X131780542Y-133141338D01*
X131473662Y-132834458D01*
X131232550Y-132473608D01*
X131066468Y-132072652D01*
X130981800Y-131646995D01*
X130981800Y-131213005D01*
X130998152Y-131130800D01*
X131066468Y-130787350D01*
X131066468Y-130787348D01*
X131232550Y-130386392D01*
X131473662Y-130025542D01*
X131780542Y-129718662D01*
X132141392Y-129477550D01*
X132542348Y-129311468D01*
X132826119Y-129255023D01*
X132968004Y-129226800D01*
X133401996Y-129226800D01*
X133543881Y-129255023D01*
G37*
G36*
X109743881Y-129255023D02*
G01*
X110027652Y-129311468D01*
X110428608Y-129477550D01*
X110789458Y-129718662D01*
X111096338Y-130025542D01*
X111337450Y-130386392D01*
X111503532Y-130787348D01*
X111503532Y-130787350D01*
X111571849Y-131130800D01*
X111588200Y-131213005D01*
X111588200Y-131646995D01*
X111503532Y-132072652D01*
X111337450Y-132473608D01*
X111096338Y-132834458D01*
X110789458Y-133141338D01*
X110428608Y-133382450D01*
X110027652Y-133548532D01*
X109743881Y-133604977D01*
X109601996Y-133633200D01*
X109168004Y-133633200D01*
X109026119Y-133604977D01*
X108742348Y-133548532D01*
X108341392Y-133382450D01*
X107980542Y-133141338D01*
X107673662Y-132834458D01*
X107432550Y-132473608D01*
X107266468Y-132072652D01*
X107181800Y-131646995D01*
X107181800Y-131213005D01*
X107198152Y-131130800D01*
X107266468Y-130787350D01*
X107266468Y-130787348D01*
X107432550Y-130386392D01*
X107673662Y-130025542D01*
X107980542Y-129718662D01*
X108341392Y-129477550D01*
X108742348Y-129311468D01*
X109026119Y-129255023D01*
X109168004Y-129226800D01*
X109601996Y-129226800D01*
X109743881Y-129255023D01*
G37*
G36*
X97723200Y-133537200D02*
G01*
X95316800Y-133537200D01*
X95316800Y-131130800D01*
X97723200Y-131130800D01*
X97723200Y-133537200D01*
G37*
G36*
X166085961Y-131173038D02*
G01*
X166085964Y-131173039D01*
X166085963Y-131173039D01*
X166304928Y-131263737D01*
X166304929Y-131263738D01*
X166501995Y-131395413D01*
X166669587Y-131563005D01*
X166725707Y-131646995D01*
X166801263Y-131760072D01*
X166871415Y-131929433D01*
X166891962Y-131979039D01*
X166938200Y-132211495D01*
X166938200Y-132448505D01*
X166891962Y-132680961D01*
X166891961Y-132680963D01*
X166801263Y-132899928D01*
X166801262Y-132899929D01*
X166669587Y-133096995D01*
X166501995Y-133264587D01*
X166370618Y-133352370D01*
X166304928Y-133396263D01*
X166135567Y-133466415D01*
X166085961Y-133486962D01*
X165853505Y-133533200D01*
X165616495Y-133533200D01*
X165384039Y-133486962D01*
X165334433Y-133466415D01*
X165165072Y-133396263D01*
X165099382Y-133352370D01*
X164968005Y-133264587D01*
X164800413Y-133096995D01*
X164668738Y-132899929D01*
X164668737Y-132899928D01*
X164578039Y-132680963D01*
X164578038Y-132680961D01*
X164531800Y-132448505D01*
X164531800Y-132211495D01*
X164578038Y-131979039D01*
X164598585Y-131929433D01*
X164668737Y-131760072D01*
X164744293Y-131646995D01*
X164800413Y-131563005D01*
X164968005Y-131395413D01*
X165165071Y-131263738D01*
X165165072Y-131263737D01*
X165384037Y-131173039D01*
X165384036Y-131173039D01*
X165384039Y-131173038D01*
X165616495Y-131126800D01*
X165853505Y-131126800D01*
X166085961Y-131173038D01*
G37*
G36*
X170169914Y-125128349D02*
G01*
X170479341Y-125189897D01*
X171062286Y-125431361D01*
X171586921Y-125781911D01*
X172033089Y-126228079D01*
X172383639Y-126752714D01*
X172625103Y-127335659D01*
X172748200Y-127954514D01*
X172748200Y-128585486D01*
X172625103Y-129204341D01*
X172383639Y-129787286D01*
X172033089Y-130311921D01*
X171586921Y-130758089D01*
X171062286Y-131108639D01*
X170479341Y-131350103D01*
X170169914Y-131411651D01*
X169860488Y-131473200D01*
X169229512Y-131473200D01*
X168920086Y-131411651D01*
X168610659Y-131350103D01*
X168027714Y-131108639D01*
X167503079Y-130758089D01*
X167056911Y-130311921D01*
X166706361Y-129787286D01*
X166464897Y-129204341D01*
X166341800Y-128585486D01*
X166341800Y-127954514D01*
X166464897Y-127335659D01*
X166706361Y-126752714D01*
X167056911Y-126228079D01*
X167503079Y-125781911D01*
X168027714Y-125431361D01*
X168610659Y-125189897D01*
X168920086Y-125128349D01*
X169229512Y-125066800D01*
X169860488Y-125066800D01*
X170169914Y-125128349D01*
G37*
G36*
X92699914Y-125128349D02*
G01*
X93009341Y-125189897D01*
X93592286Y-125431361D01*
X94116921Y-125781911D01*
X94563089Y-126228079D01*
X94913639Y-126752714D01*
X95155103Y-127335659D01*
X95278200Y-127954514D01*
X95278200Y-128585486D01*
X95155103Y-129204341D01*
X94913639Y-129787286D01*
X94563089Y-130311921D01*
X94116921Y-130758089D01*
X93592286Y-131108639D01*
X93009341Y-131350103D01*
X92699914Y-131411651D01*
X92390488Y-131473200D01*
X91759512Y-131473200D01*
X91450086Y-131411651D01*
X91140659Y-131350103D01*
X90557714Y-131108639D01*
X90033079Y-130758089D01*
X89586911Y-130311921D01*
X89236361Y-129787286D01*
X88994897Y-129204341D01*
X88871800Y-128585486D01*
X88871800Y-127954514D01*
X88994897Y-127335659D01*
X89236361Y-126752714D01*
X89586911Y-126228079D01*
X90033079Y-125781911D01*
X90557714Y-125431361D01*
X91140659Y-125189897D01*
X91450086Y-125128349D01*
X91759512Y-125066800D01*
X92390488Y-125066800D01*
X92699914Y-125128349D01*
G37*
G36*
X107854021Y-125474943D02*
G01*
X107909183Y-125491675D01*
X107960018Y-125518847D01*
X108004581Y-125555419D01*
X108041153Y-125599982D01*
X108068325Y-125650817D01*
X108085057Y-125705979D01*
X108091200Y-125768344D01*
X108091200Y-126550656D01*
X108085057Y-126613021D01*
X108068325Y-126668183D01*
X108041153Y-126719018D01*
X108004581Y-126763581D01*
X107960018Y-126800153D01*
X107909183Y-126827325D01*
X107854021Y-126844057D01*
X107791656Y-126850200D01*
X106584344Y-126850200D01*
X106521979Y-126844057D01*
X106466817Y-126827325D01*
X106415982Y-126800153D01*
X106371419Y-126763581D01*
X106334847Y-126719018D01*
X106307675Y-126668183D01*
X106290943Y-126613021D01*
X106284800Y-126550656D01*
X106284800Y-125768344D01*
X106290943Y-125705979D01*
X106307675Y-125650817D01*
X106334847Y-125599982D01*
X106371419Y-125555419D01*
X106415982Y-125518847D01*
X106466817Y-125491675D01*
X106521979Y-125474943D01*
X106584344Y-125468800D01*
X107791656Y-125468800D01*
X107854021Y-125474943D01*
G37*
G36*
X103536021Y-125474943D02*
G01*
X103591183Y-125491675D01*
X103642018Y-125518847D01*
X103686581Y-125555419D01*
X103723153Y-125599982D01*
X103750325Y-125650817D01*
X103767057Y-125705979D01*
X103773200Y-125768344D01*
X103773200Y-126550656D01*
X103767057Y-126613021D01*
X103750325Y-126668183D01*
X103723153Y-126719018D01*
X103686581Y-126763581D01*
X103642018Y-126800153D01*
X103591183Y-126827325D01*
X103536021Y-126844057D01*
X103473656Y-126850200D01*
X102266344Y-126850200D01*
X102203979Y-126844057D01*
X102148817Y-126827325D01*
X102097982Y-126800153D01*
X102053419Y-126763581D01*
X102016847Y-126719018D01*
X101989675Y-126668183D01*
X101972943Y-126613021D01*
X101966800Y-126550656D01*
X101966800Y-125768344D01*
X101972943Y-125705979D01*
X101989675Y-125650817D01*
X102016847Y-125599982D01*
X102053419Y-125555419D01*
X102097982Y-125518847D01*
X102148817Y-125491675D01*
X102203979Y-125474943D01*
X102266344Y-125468800D01*
X103473656Y-125468800D01*
X103536021Y-125474943D01*
G37*
G36*
X100713200Y-126775200D02*
G01*
X99406800Y-126775200D01*
X99406800Y-125568800D01*
X100713200Y-125568800D01*
X100713200Y-126775200D01*
G37*
G36*
X98713200Y-125825200D02*
G01*
X97406800Y-125825200D01*
X97406800Y-124618800D01*
X98713200Y-124618800D01*
X98713200Y-125825200D01*
G37*
G36*
X150218881Y-121015023D02*
G01*
X150502652Y-121071468D01*
X150903608Y-121237550D01*
X151264458Y-121478662D01*
X151571338Y-121785542D01*
X151812450Y-122146392D01*
X151978532Y-122547348D01*
X152063200Y-122973005D01*
X152063200Y-123406995D01*
X151978532Y-123832652D01*
X151812450Y-124233608D01*
X151571338Y-124594458D01*
X151264458Y-124901338D01*
X150903608Y-125142450D01*
X150502652Y-125308532D01*
X150218881Y-125364977D01*
X150076996Y-125393200D01*
X149643004Y-125393200D01*
X149501119Y-125364977D01*
X149217348Y-125308532D01*
X148816392Y-125142450D01*
X148455542Y-124901338D01*
X148148662Y-124594458D01*
X147907550Y-124233608D01*
X147741468Y-123832652D01*
X147656800Y-123406995D01*
X147656800Y-122973005D01*
X147741468Y-122547348D01*
X147907550Y-122146392D01*
X148148662Y-121785542D01*
X148455542Y-121478662D01*
X148816392Y-121237550D01*
X149217348Y-121071468D01*
X149501119Y-121015023D01*
X149643004Y-120986800D01*
X150076996Y-120986800D01*
X150218881Y-121015023D01*
G37*
G36*
X121643881Y-121015023D02*
G01*
X121927652Y-121071468D01*
X122328608Y-121237550D01*
X122689458Y-121478662D01*
X122996338Y-121785542D01*
X123237450Y-122146392D01*
X123403532Y-122547348D01*
X123488200Y-122973005D01*
X123488200Y-123406995D01*
X123403532Y-123832652D01*
X123237450Y-124233608D01*
X122996338Y-124594458D01*
X122689458Y-124901338D01*
X122328608Y-125142450D01*
X121927652Y-125308532D01*
X121643881Y-125364977D01*
X121501996Y-125393200D01*
X121068004Y-125393200D01*
X120926119Y-125364977D01*
X120642348Y-125308532D01*
X120241392Y-125142450D01*
X119880542Y-124901338D01*
X119573662Y-124594458D01*
X119332550Y-124233608D01*
X119166468Y-123832652D01*
X119081800Y-123406995D01*
X119081800Y-122973005D01*
X119166468Y-122547348D01*
X119332550Y-122146392D01*
X119573662Y-121785542D01*
X119880542Y-121478662D01*
X120241392Y-121237550D01*
X120642348Y-121071468D01*
X120926119Y-121015023D01*
X121068004Y-120986800D01*
X121501996Y-120986800D01*
X121643881Y-121015023D01*
G37*
G36*
X107854021Y-123599943D02*
G01*
X107909183Y-123616675D01*
X107960018Y-123643847D01*
X108004581Y-123680419D01*
X108041153Y-123724982D01*
X108068325Y-123775817D01*
X108085057Y-123830979D01*
X108091200Y-123893344D01*
X108091200Y-124675656D01*
X108085057Y-124738021D01*
X108068325Y-124793183D01*
X108041153Y-124844018D01*
X108004581Y-124888581D01*
X107960018Y-124925153D01*
X107909183Y-124952325D01*
X107854021Y-124969057D01*
X107791656Y-124975200D01*
X106584344Y-124975200D01*
X106521979Y-124969057D01*
X106466817Y-124952325D01*
X106415982Y-124925153D01*
X106371419Y-124888581D01*
X106334847Y-124844018D01*
X106307675Y-124793183D01*
X106290943Y-124738021D01*
X106284800Y-124675656D01*
X106284800Y-123893344D01*
X106290943Y-123830979D01*
X106307675Y-123775817D01*
X106334847Y-123724982D01*
X106371419Y-123680419D01*
X106415982Y-123643847D01*
X106466817Y-123616675D01*
X106521979Y-123599943D01*
X106584344Y-123593800D01*
X107791656Y-123593800D01*
X107854021Y-123599943D01*
G37*
G36*
X103536021Y-123599943D02*
G01*
X103591183Y-123616675D01*
X103642018Y-123643847D01*
X103686581Y-123680419D01*
X103723153Y-123724982D01*
X103750325Y-123775817D01*
X103767057Y-123830979D01*
X103773200Y-123893344D01*
X103773200Y-124675656D01*
X103767057Y-124738021D01*
X103750325Y-124793183D01*
X103723153Y-124844018D01*
X103686581Y-124888581D01*
X103642018Y-124925153D01*
X103591183Y-124952325D01*
X103536021Y-124969057D01*
X103473656Y-124975200D01*
X102266344Y-124975200D01*
X102203979Y-124969057D01*
X102148817Y-124952325D01*
X102097982Y-124925153D01*
X102053419Y-124888581D01*
X102016847Y-124844018D01*
X101989675Y-124793183D01*
X101972943Y-124738021D01*
X101966800Y-124675656D01*
X101966800Y-123893344D01*
X101972943Y-123830979D01*
X101989675Y-123775817D01*
X102016847Y-123724982D01*
X102053419Y-123680419D01*
X102097982Y-123643847D01*
X102148817Y-123616675D01*
X102203979Y-123599943D01*
X102266344Y-123593800D01*
X103473656Y-123593800D01*
X103536021Y-123599943D01*
G37*
G36*
X100713200Y-124875200D02*
G01*
X99406800Y-124875200D01*
X99406800Y-123668800D01*
X100713200Y-123668800D01*
X100713200Y-124875200D01*
G37*
G36*
X155091953Y-122146392D02*
G01*
X155247210Y-122177274D01*
X155438879Y-122256666D01*
X155611376Y-122371925D01*
X155758075Y-122518624D01*
X155873334Y-122691121D01*
X155952726Y-122882790D01*
X155993200Y-123086270D01*
X155993200Y-123293730D01*
X155952726Y-123497210D01*
X155873334Y-123688879D01*
X155758075Y-123861376D01*
X155611376Y-124008075D01*
X155438879Y-124123334D01*
X155247210Y-124202726D01*
X155094600Y-124233082D01*
X155043731Y-124243200D01*
X154836269Y-124243200D01*
X154785400Y-124233082D01*
X154632790Y-124202726D01*
X154441121Y-124123334D01*
X154268624Y-124008075D01*
X154121925Y-123861376D01*
X154006666Y-123688879D01*
X153927274Y-123497210D01*
X153886800Y-123293730D01*
X153886800Y-123086270D01*
X153927274Y-122882790D01*
X154006666Y-122691121D01*
X154121925Y-122518624D01*
X154268624Y-122371925D01*
X154441121Y-122256666D01*
X154632790Y-122177274D01*
X154788047Y-122146392D01*
X154836269Y-122136800D01*
X155043731Y-122136800D01*
X155091953Y-122146392D01*
G37*
G36*
X144931953Y-122146392D02*
G01*
X145087210Y-122177274D01*
X145278879Y-122256666D01*
X145451376Y-122371925D01*
X145598075Y-122518624D01*
X145713334Y-122691121D01*
X145792726Y-122882790D01*
X145833200Y-123086270D01*
X145833200Y-123293730D01*
X145792726Y-123497210D01*
X145713334Y-123688879D01*
X145598075Y-123861376D01*
X145451376Y-124008075D01*
X145278879Y-124123334D01*
X145087210Y-124202726D01*
X144934600Y-124233082D01*
X144883731Y-124243200D01*
X144676269Y-124243200D01*
X144625400Y-124233082D01*
X144472790Y-124202726D01*
X144281121Y-124123334D01*
X144108624Y-124008075D01*
X143961925Y-123861376D01*
X143846666Y-123688879D01*
X143767274Y-123497210D01*
X143726800Y-123293730D01*
X143726800Y-123086270D01*
X143767274Y-122882790D01*
X143846666Y-122691121D01*
X143961925Y-122518624D01*
X144108624Y-122371925D01*
X144281121Y-122256666D01*
X144472790Y-122177274D01*
X144628047Y-122146392D01*
X144676269Y-122136800D01*
X144883731Y-122136800D01*
X144931953Y-122146392D01*
G37*
G36*
X116356953Y-122146392D02*
G01*
X116512210Y-122177274D01*
X116703879Y-122256666D01*
X116876376Y-122371925D01*
X117023075Y-122518624D01*
X117138334Y-122691121D01*
X117217726Y-122882790D01*
X117258200Y-123086270D01*
X117258200Y-123293730D01*
X117217726Y-123497210D01*
X117138334Y-123688879D01*
X117023075Y-123861376D01*
X116876376Y-124008075D01*
X116703879Y-124123334D01*
X116512210Y-124202726D01*
X116359600Y-124233082D01*
X116308731Y-124243200D01*
X116101269Y-124243200D01*
X116050400Y-124233082D01*
X115897790Y-124202726D01*
X115706121Y-124123334D01*
X115533624Y-124008075D01*
X115386925Y-123861376D01*
X115271666Y-123688879D01*
X115192274Y-123497210D01*
X115151800Y-123293730D01*
X115151800Y-123086270D01*
X115192274Y-122882790D01*
X115271666Y-122691121D01*
X115386925Y-122518624D01*
X115533624Y-122371925D01*
X115706121Y-122256666D01*
X115897790Y-122177274D01*
X116053047Y-122146392D01*
X116101269Y-122136800D01*
X116308731Y-122136800D01*
X116356953Y-122146392D01*
G37*
G36*
X126516953Y-122146392D02*
G01*
X126672210Y-122177274D01*
X126863879Y-122256666D01*
X127036376Y-122371925D01*
X127183075Y-122518624D01*
X127298334Y-122691121D01*
X127377726Y-122882790D01*
X127418200Y-123086270D01*
X127418200Y-123293730D01*
X127377726Y-123497210D01*
X127298334Y-123688879D01*
X127183075Y-123861376D01*
X127036376Y-124008075D01*
X126863879Y-124123334D01*
X126672210Y-124202726D01*
X126519600Y-124233082D01*
X126468731Y-124243200D01*
X126261269Y-124243200D01*
X126210400Y-124233082D01*
X126057790Y-124202726D01*
X125866121Y-124123334D01*
X125693624Y-124008075D01*
X125546925Y-123861376D01*
X125431666Y-123688879D01*
X125352274Y-123497210D01*
X125311800Y-123293730D01*
X125311800Y-123086270D01*
X125352274Y-122882790D01*
X125431666Y-122691121D01*
X125546925Y-122518624D01*
X125693624Y-122371925D01*
X125866121Y-122256666D01*
X126057790Y-122177274D01*
X126213047Y-122146392D01*
X126261269Y-122136800D01*
X126468731Y-122136800D01*
X126516953Y-122146392D01*
G37*
G36*
X93379200Y-122049200D02*
G01*
X92172800Y-122049200D01*
X92172800Y-120742800D01*
X93379200Y-120742800D01*
X93379200Y-122049200D01*
G37*
G36*
X95279200Y-122049200D02*
G01*
X94072800Y-122049200D01*
X94072800Y-120742800D01*
X95279200Y-120742800D01*
X95279200Y-122049200D01*
G37*
G36*
X117855130Y-119396881D02*
G01*
X117855133Y-119396882D01*
X117855132Y-119396882D01*
X118092296Y-119495118D01*
X118092297Y-119495119D01*
X118305742Y-119637738D01*
X118487262Y-119819258D01*
X118601435Y-119990131D01*
X118629882Y-120032704D01*
X118705864Y-120216141D01*
X118728119Y-120269870D01*
X118778200Y-120521646D01*
X118778200Y-120778354D01*
X118728119Y-121030130D01*
X118728118Y-121030132D01*
X118629882Y-121267296D01*
X118629881Y-121267297D01*
X118487262Y-121480742D01*
X118305742Y-121662262D01*
X118134869Y-121776435D01*
X118092296Y-121804882D01*
X117908859Y-121880864D01*
X117855130Y-121903119D01*
X117603354Y-121953200D01*
X117346646Y-121953200D01*
X117094870Y-121903119D01*
X117041141Y-121880864D01*
X116857704Y-121804882D01*
X116815131Y-121776435D01*
X116644258Y-121662262D01*
X116462738Y-121480742D01*
X116320119Y-121267297D01*
X116320118Y-121267296D01*
X116221882Y-121030132D01*
X116221881Y-121030130D01*
X116171800Y-120778354D01*
X116171800Y-120521646D01*
X116221881Y-120269870D01*
X116244136Y-120216141D01*
X116320118Y-120032704D01*
X116348565Y-119990131D01*
X116462738Y-119819258D01*
X116644258Y-119637738D01*
X116857703Y-119495119D01*
X116857704Y-119495118D01*
X117094868Y-119396882D01*
X117094867Y-119396882D01*
X117094870Y-119396881D01*
X117346646Y-119346800D01*
X117603354Y-119346800D01*
X117855130Y-119396881D01*
G37*
G36*
X146430130Y-119396881D02*
G01*
X146430133Y-119396882D01*
X146430132Y-119396882D01*
X146667296Y-119495118D01*
X146667297Y-119495119D01*
X146880742Y-119637738D01*
X147062262Y-119819258D01*
X147176435Y-119990131D01*
X147204882Y-120032704D01*
X147280864Y-120216141D01*
X147303119Y-120269870D01*
X147353200Y-120521646D01*
X147353200Y-120778354D01*
X147303119Y-121030130D01*
X147303118Y-121030132D01*
X147204882Y-121267296D01*
X147204881Y-121267297D01*
X147062262Y-121480742D01*
X146880742Y-121662262D01*
X146709869Y-121776435D01*
X146667296Y-121804882D01*
X146483859Y-121880864D01*
X146430130Y-121903119D01*
X146178354Y-121953200D01*
X145921646Y-121953200D01*
X145669870Y-121903119D01*
X145616141Y-121880864D01*
X145432704Y-121804882D01*
X145390131Y-121776435D01*
X145219258Y-121662262D01*
X145037738Y-121480742D01*
X144895119Y-121267297D01*
X144895118Y-121267296D01*
X144796882Y-121030132D01*
X144796881Y-121030130D01*
X144746800Y-120778354D01*
X144746800Y-120521646D01*
X144796881Y-120269870D01*
X144819136Y-120216141D01*
X144895118Y-120032704D01*
X144923565Y-119990131D01*
X145037738Y-119819258D01*
X145219258Y-119637738D01*
X145432703Y-119495119D01*
X145432704Y-119495118D01*
X145669868Y-119396882D01*
X145669867Y-119396882D01*
X145669870Y-119396881D01*
X145921646Y-119346800D01*
X146178354Y-119346800D01*
X146430130Y-119396881D01*
G37*
G36*
X101103200Y-120096200D02*
G01*
X99476800Y-120096200D01*
X99476800Y-117139800D01*
X101103200Y-117139800D01*
X101103200Y-120096200D01*
G37*
G36*
X103723200Y-120096200D02*
G01*
X102096800Y-120096200D01*
X102096800Y-117139800D01*
X103723200Y-117139800D01*
X103723200Y-120096200D01*
G37*
G36*
X94329200Y-120049200D02*
G01*
X93122800Y-120049200D01*
X93122800Y-118742800D01*
X94329200Y-118742800D01*
X94329200Y-120049200D01*
G37*
G36*
X152780130Y-116856881D02*
G01*
X152780133Y-116856882D01*
X152780132Y-116856882D01*
X153017296Y-116955118D01*
X153017297Y-116955119D01*
X153230742Y-117097738D01*
X153412262Y-117279258D01*
X153526435Y-117450131D01*
X153554882Y-117492704D01*
X153571317Y-117532382D01*
X153653119Y-117729870D01*
X153703200Y-117981646D01*
X153703200Y-118238354D01*
X153653119Y-118490130D01*
X153653118Y-118490132D01*
X153554882Y-118727296D01*
X153554881Y-118727297D01*
X153412262Y-118940742D01*
X153230742Y-119122262D01*
X153059869Y-119236435D01*
X153017296Y-119264882D01*
X152833859Y-119340864D01*
X152780130Y-119363119D01*
X152528354Y-119413200D01*
X152271646Y-119413200D01*
X152019870Y-119363119D01*
X151966141Y-119340864D01*
X151782704Y-119264882D01*
X151740131Y-119236435D01*
X151569258Y-119122262D01*
X151387738Y-118940742D01*
X151245119Y-118727297D01*
X151245118Y-118727296D01*
X151146882Y-118490132D01*
X151146881Y-118490130D01*
X151096800Y-118238354D01*
X151096800Y-117981646D01*
X151146881Y-117729870D01*
X151228683Y-117532382D01*
X151245118Y-117492704D01*
X151273565Y-117450131D01*
X151387738Y-117279258D01*
X151569258Y-117097738D01*
X151782703Y-116955119D01*
X151782704Y-116955118D01*
X152019868Y-116856882D01*
X152019867Y-116856882D01*
X152019870Y-116856881D01*
X152271646Y-116806800D01*
X152528354Y-116806800D01*
X152780130Y-116856881D01*
G37*
G36*
X124205130Y-116856881D02*
G01*
X124205133Y-116856882D01*
X124205132Y-116856882D01*
X124442296Y-116955118D01*
X124442297Y-116955119D01*
X124655742Y-117097738D01*
X124837262Y-117279258D01*
X124951435Y-117450131D01*
X124979882Y-117492704D01*
X124996317Y-117532382D01*
X125078119Y-117729870D01*
X125128200Y-117981646D01*
X125128200Y-118238354D01*
X125078119Y-118490130D01*
X125078118Y-118490132D01*
X124979882Y-118727296D01*
X124979881Y-118727297D01*
X124837262Y-118940742D01*
X124655742Y-119122262D01*
X124484869Y-119236435D01*
X124442296Y-119264882D01*
X124258859Y-119340864D01*
X124205130Y-119363119D01*
X123953354Y-119413200D01*
X123696646Y-119413200D01*
X123444870Y-119363119D01*
X123391141Y-119340864D01*
X123207704Y-119264882D01*
X123165131Y-119236435D01*
X122994258Y-119122262D01*
X122812738Y-118940742D01*
X122670119Y-118727297D01*
X122670118Y-118727296D01*
X122571882Y-118490132D01*
X122571881Y-118490130D01*
X122521800Y-118238354D01*
X122521800Y-117981646D01*
X122571881Y-117729870D01*
X122653683Y-117532382D01*
X122670118Y-117492704D01*
X122698565Y-117450131D01*
X122812738Y-117279258D01*
X122994258Y-117097738D01*
X123207703Y-116955119D01*
X123207704Y-116955118D01*
X123444868Y-116856882D01*
X123444867Y-116856882D01*
X123444870Y-116856881D01*
X123696646Y-116806800D01*
X123953354Y-116806800D01*
X124205130Y-116856881D01*
G37*
G36*
X133438684Y-114478404D02*
G01*
X133689100Y-114528214D01*
X134003611Y-114658489D01*
X134286663Y-114847618D01*
X134527382Y-115088337D01*
X134716511Y-115371389D01*
X134846786Y-115685900D01*
X134913200Y-116019788D01*
X134913200Y-116360212D01*
X134846786Y-116694100D01*
X134716511Y-117008611D01*
X134527382Y-117291663D01*
X134286663Y-117532382D01*
X134003611Y-117721511D01*
X133689100Y-117851786D01*
X133438684Y-117901597D01*
X133355213Y-117918200D01*
X133014787Y-117918200D01*
X132931316Y-117901597D01*
X132680900Y-117851786D01*
X132366389Y-117721511D01*
X132083337Y-117532382D01*
X131842618Y-117291663D01*
X131653489Y-117008611D01*
X131523214Y-116694100D01*
X131456800Y-116360212D01*
X131456800Y-116019788D01*
X131523214Y-115685900D01*
X131653489Y-115371389D01*
X131842618Y-115088337D01*
X132083337Y-114847618D01*
X132366389Y-114658489D01*
X132680900Y-114528214D01*
X132931316Y-114478404D01*
X133014787Y-114461800D01*
X133355213Y-114461800D01*
X133438684Y-114478404D01*
G37*
G36*
X109638684Y-114478404D02*
G01*
X109889100Y-114528214D01*
X110203611Y-114658489D01*
X110486663Y-114847618D01*
X110727382Y-115088337D01*
X110916511Y-115371389D01*
X111046786Y-115685900D01*
X111113200Y-116019788D01*
X111113200Y-116360212D01*
X111046786Y-116694100D01*
X110916511Y-117008611D01*
X110727382Y-117291663D01*
X110486663Y-117532382D01*
X110203611Y-117721511D01*
X109889100Y-117851786D01*
X109638684Y-117901597D01*
X109555213Y-117918200D01*
X109214787Y-117918200D01*
X109131316Y-117901597D01*
X108880900Y-117851786D01*
X108566389Y-117721511D01*
X108283337Y-117532382D01*
X108042618Y-117291663D01*
X107853489Y-117008611D01*
X107723214Y-116694100D01*
X107656800Y-116360212D01*
X107656800Y-116019788D01*
X107723214Y-115685900D01*
X107853489Y-115371389D01*
X108042618Y-115088337D01*
X108283337Y-114847618D01*
X108566389Y-114658489D01*
X108880900Y-114528214D01*
X109131316Y-114478404D01*
X109214787Y-114461800D01*
X109555213Y-114461800D01*
X109638684Y-114478404D01*
G37*
G36*
X99587000Y-106987000D02*
G01*
X98380600Y-106987000D01*
X98380600Y-105680600D01*
X99587000Y-105680600D01*
X99587000Y-106987000D01*
G37*
G36*
X131168881Y-101965023D02*
G01*
X131452652Y-102021468D01*
X131853608Y-102187550D01*
X132214458Y-102428662D01*
X132521338Y-102735542D01*
X132762450Y-103096392D01*
X132928532Y-103497348D01*
X133013200Y-103923005D01*
X133013200Y-104356995D01*
X132928532Y-104782652D01*
X132762450Y-105183608D01*
X132521338Y-105544458D01*
X132214458Y-105851338D01*
X131853608Y-106092450D01*
X131452652Y-106258532D01*
X131168881Y-106314977D01*
X131026996Y-106343200D01*
X130593004Y-106343200D01*
X130451119Y-106314977D01*
X130167348Y-106258532D01*
X129766392Y-106092450D01*
X129405542Y-105851338D01*
X129098662Y-105544458D01*
X128857550Y-105183608D01*
X128691468Y-104782652D01*
X128606800Y-104356995D01*
X128606800Y-103923005D01*
X128691468Y-103497348D01*
X128857550Y-103096392D01*
X129098662Y-102735542D01*
X129405542Y-102428662D01*
X129766392Y-102187550D01*
X130167348Y-102021468D01*
X130451119Y-101965023D01*
X130593004Y-101936800D01*
X131026996Y-101936800D01*
X131168881Y-101965023D01*
G37*
G36*
X112118881Y-101965023D02*
G01*
X112402652Y-102021468D01*
X112803608Y-102187550D01*
X113164458Y-102428662D01*
X113471338Y-102735542D01*
X113712450Y-103096392D01*
X113878532Y-103497348D01*
X113963200Y-103923005D01*
X113963200Y-104356995D01*
X113878532Y-104782652D01*
X113712450Y-105183608D01*
X113471338Y-105544458D01*
X113164458Y-105851338D01*
X112803608Y-106092450D01*
X112402652Y-106258532D01*
X112118881Y-106314977D01*
X111976996Y-106343200D01*
X111543004Y-106343200D01*
X111401119Y-106314977D01*
X111117348Y-106258532D01*
X110716392Y-106092450D01*
X110355542Y-105851338D01*
X110048662Y-105544458D01*
X109807550Y-105183608D01*
X109641468Y-104782652D01*
X109556800Y-104356995D01*
X109556800Y-103923005D01*
X109641468Y-103497348D01*
X109807550Y-103096392D01*
X110048662Y-102735542D01*
X110355542Y-102428662D01*
X110716392Y-102187550D01*
X111117348Y-102021468D01*
X111401119Y-101965023D01*
X111543004Y-101936800D01*
X111976996Y-101936800D01*
X112118881Y-101965023D01*
G37*
G36*
X150218881Y-101965023D02*
G01*
X150502652Y-102021468D01*
X150903608Y-102187550D01*
X151264458Y-102428662D01*
X151571338Y-102735542D01*
X151812450Y-103096392D01*
X151978532Y-103497348D01*
X152063200Y-103923005D01*
X152063200Y-104356995D01*
X151978532Y-104782652D01*
X151812450Y-105183608D01*
X151571338Y-105544458D01*
X151264458Y-105851338D01*
X150903608Y-106092450D01*
X150502652Y-106258532D01*
X150218881Y-106314977D01*
X150076996Y-106343200D01*
X149643004Y-106343200D01*
X149501119Y-106314977D01*
X149217348Y-106258532D01*
X148816392Y-106092450D01*
X148455542Y-105851338D01*
X148148662Y-105544458D01*
X147907550Y-105183608D01*
X147741468Y-104782652D01*
X147656800Y-104356995D01*
X147656800Y-103923005D01*
X147741468Y-103497348D01*
X147907550Y-103096392D01*
X148148662Y-102735542D01*
X148455542Y-102428662D01*
X148816392Y-102187550D01*
X149217348Y-102021468D01*
X149501119Y-101965023D01*
X149643004Y-101936800D01*
X150076996Y-101936800D01*
X150218881Y-101965023D01*
G37*
G36*
X91413200Y-105631400D02*
G01*
X90206800Y-105631400D01*
X90206800Y-104325000D01*
X91413200Y-104325000D01*
X91413200Y-105631400D01*
G37*
G36*
X93313200Y-105631400D02*
G01*
X92106800Y-105631400D01*
X92106800Y-104325000D01*
X93313200Y-104325000D01*
X93313200Y-105631400D01*
G37*
G36*
X155091953Y-103096392D02*
G01*
X155247210Y-103127274D01*
X155438879Y-103206666D01*
X155611376Y-103321925D01*
X155758075Y-103468624D01*
X155873334Y-103641121D01*
X155952726Y-103832790D01*
X155993200Y-104036270D01*
X155993200Y-104243730D01*
X155952726Y-104447210D01*
X155873334Y-104638879D01*
X155758075Y-104811376D01*
X155611376Y-104958075D01*
X155438879Y-105073334D01*
X155247210Y-105152726D01*
X155094600Y-105183082D01*
X155043731Y-105193200D01*
X154836269Y-105193200D01*
X154785400Y-105183081D01*
X154632790Y-105152726D01*
X154441121Y-105073334D01*
X154268624Y-104958075D01*
X154121925Y-104811376D01*
X154006666Y-104638879D01*
X153927274Y-104447210D01*
X153886800Y-104243730D01*
X153886800Y-104036270D01*
X153927274Y-103832790D01*
X154006666Y-103641121D01*
X154121925Y-103468624D01*
X154268624Y-103321925D01*
X154441121Y-103206666D01*
X154632790Y-103127274D01*
X154788047Y-103096392D01*
X154836269Y-103086800D01*
X155043731Y-103086800D01*
X155091953Y-103096392D01*
G37*
G36*
X144931953Y-103096392D02*
G01*
X145087210Y-103127274D01*
X145278879Y-103206666D01*
X145451376Y-103321925D01*
X145598075Y-103468624D01*
X145713334Y-103641121D01*
X145792726Y-103832790D01*
X145833200Y-104036270D01*
X145833200Y-104243730D01*
X145792726Y-104447210D01*
X145713334Y-104638879D01*
X145598075Y-104811376D01*
X145451376Y-104958075D01*
X145278879Y-105073334D01*
X145087210Y-105152726D01*
X144934600Y-105183082D01*
X144883731Y-105193200D01*
X144676269Y-105193200D01*
X144625400Y-105183081D01*
X144472790Y-105152726D01*
X144281121Y-105073334D01*
X144108624Y-104958075D01*
X143961925Y-104811376D01*
X143846666Y-104638879D01*
X143767274Y-104447210D01*
X143726800Y-104243730D01*
X143726800Y-104036270D01*
X143767274Y-103832790D01*
X143846666Y-103641121D01*
X143961925Y-103468624D01*
X144108624Y-103321925D01*
X144281121Y-103206666D01*
X144472790Y-103127274D01*
X144628047Y-103096392D01*
X144676269Y-103086800D01*
X144883731Y-103086800D01*
X144931953Y-103096392D01*
G37*
G36*
X136041953Y-103096392D02*
G01*
X136197210Y-103127274D01*
X136388879Y-103206666D01*
X136561376Y-103321925D01*
X136708075Y-103468624D01*
X136823334Y-103641121D01*
X136902726Y-103832790D01*
X136943200Y-104036270D01*
X136943200Y-104243730D01*
X136902726Y-104447210D01*
X136823334Y-104638879D01*
X136708075Y-104811376D01*
X136561376Y-104958075D01*
X136388879Y-105073334D01*
X136197210Y-105152726D01*
X136044600Y-105183082D01*
X135993731Y-105193200D01*
X135786269Y-105193200D01*
X135735400Y-105183081D01*
X135582790Y-105152726D01*
X135391121Y-105073334D01*
X135218624Y-104958075D01*
X135071925Y-104811376D01*
X134956666Y-104638879D01*
X134877274Y-104447210D01*
X134836800Y-104243730D01*
X134836800Y-104036270D01*
X134877274Y-103832790D01*
X134956666Y-103641121D01*
X135071925Y-103468624D01*
X135218624Y-103321925D01*
X135391121Y-103206666D01*
X135582790Y-103127274D01*
X135738047Y-103096392D01*
X135786269Y-103086800D01*
X135993731Y-103086800D01*
X136041953Y-103096392D01*
G37*
G36*
X125881953Y-103096392D02*
G01*
X126037210Y-103127274D01*
X126228879Y-103206666D01*
X126401376Y-103321925D01*
X126548075Y-103468624D01*
X126663334Y-103641121D01*
X126742726Y-103832790D01*
X126783200Y-104036270D01*
X126783200Y-104243730D01*
X126742726Y-104447210D01*
X126663334Y-104638879D01*
X126548075Y-104811376D01*
X126401376Y-104958075D01*
X126228879Y-105073334D01*
X126037210Y-105152726D01*
X125884600Y-105183082D01*
X125833731Y-105193200D01*
X125626269Y-105193200D01*
X125575400Y-105183081D01*
X125422790Y-105152726D01*
X125231121Y-105073334D01*
X125058624Y-104958075D01*
X124911925Y-104811376D01*
X124796666Y-104638879D01*
X124717274Y-104447210D01*
X124676800Y-104243730D01*
X124676800Y-104036270D01*
X124717274Y-103832790D01*
X124796666Y-103641121D01*
X124911925Y-103468624D01*
X125058624Y-103321925D01*
X125231121Y-103206666D01*
X125422790Y-103127274D01*
X125578047Y-103096392D01*
X125626269Y-103086800D01*
X125833731Y-103086800D01*
X125881953Y-103096392D01*
G37*
G36*
X106831953Y-103096392D02*
G01*
X106987210Y-103127274D01*
X107178879Y-103206666D01*
X107351376Y-103321925D01*
X107498075Y-103468624D01*
X107613334Y-103641121D01*
X107692726Y-103832790D01*
X107733200Y-104036270D01*
X107733200Y-104243730D01*
X107692726Y-104447210D01*
X107613334Y-104638879D01*
X107498075Y-104811376D01*
X107351376Y-104958075D01*
X107178879Y-105073334D01*
X106987210Y-105152726D01*
X106834600Y-105183082D01*
X106783731Y-105193200D01*
X106576269Y-105193200D01*
X106525400Y-105183081D01*
X106372790Y-105152726D01*
X106181121Y-105073334D01*
X106008624Y-104958075D01*
X105861925Y-104811376D01*
X105746666Y-104638879D01*
X105667274Y-104447210D01*
X105626800Y-104243730D01*
X105626800Y-104036270D01*
X105667274Y-103832790D01*
X105746666Y-103641121D01*
X105861925Y-103468624D01*
X106008624Y-103321925D01*
X106181121Y-103206666D01*
X106372790Y-103127274D01*
X106528047Y-103096392D01*
X106576269Y-103086800D01*
X106783731Y-103086800D01*
X106831953Y-103096392D01*
G37*
G36*
X116991953Y-103096392D02*
G01*
X117147210Y-103127274D01*
X117338879Y-103206666D01*
X117511376Y-103321925D01*
X117658075Y-103468624D01*
X117773334Y-103641121D01*
X117852726Y-103832790D01*
X117893200Y-104036270D01*
X117893200Y-104243730D01*
X117852726Y-104447210D01*
X117773334Y-104638879D01*
X117658075Y-104811376D01*
X117511376Y-104958075D01*
X117338879Y-105073334D01*
X117147210Y-105152726D01*
X116994600Y-105183082D01*
X116943731Y-105193200D01*
X116736269Y-105193200D01*
X116685400Y-105183081D01*
X116532790Y-105152726D01*
X116341121Y-105073334D01*
X116168624Y-104958075D01*
X116021925Y-104811376D01*
X115906666Y-104638879D01*
X115827274Y-104447210D01*
X115786800Y-104243730D01*
X115786800Y-104036270D01*
X115827274Y-103832790D01*
X115906666Y-103641121D01*
X116021925Y-103468624D01*
X116168624Y-103321925D01*
X116341121Y-103206666D01*
X116532790Y-103127274D01*
X116688047Y-103096392D01*
X116736269Y-103086800D01*
X116943731Y-103086800D01*
X116991953Y-103096392D01*
G37*
G36*
X100537000Y-104987000D02*
G01*
X99330600Y-104987000D01*
X99330600Y-103680600D01*
X100537000Y-103680600D01*
X100537000Y-104987000D01*
G37*
G36*
X98637000Y-104987000D02*
G01*
X97430600Y-104987000D01*
X97430600Y-103680600D01*
X98637000Y-103680600D01*
X98637000Y-104987000D01*
G37*
G36*
X92363200Y-103631400D02*
G01*
X91156800Y-103631400D01*
X91156800Y-102325000D01*
X92363200Y-102325000D01*
X92363200Y-103631400D01*
G37*
G36*
X108330130Y-100346881D02*
G01*
X108330133Y-100346882D01*
X108330132Y-100346882D01*
X108567296Y-100445118D01*
X108567297Y-100445119D01*
X108780742Y-100587738D01*
X108962262Y-100769258D01*
X109076435Y-100940131D01*
X109104882Y-100982704D01*
X109144086Y-101077351D01*
X109203119Y-101219870D01*
X109253200Y-101471646D01*
X109253200Y-101728354D01*
X109203119Y-101980130D01*
X109203118Y-101980132D01*
X109104882Y-102217296D01*
X109104881Y-102217297D01*
X108962262Y-102430742D01*
X108780742Y-102612262D01*
X108655447Y-102695981D01*
X108567296Y-102754882D01*
X108500378Y-102782600D01*
X108330130Y-102853119D01*
X108078354Y-102903200D01*
X107821646Y-102903200D01*
X107569870Y-102853119D01*
X107399622Y-102782600D01*
X107332704Y-102754882D01*
X107244553Y-102695981D01*
X107119258Y-102612262D01*
X106937738Y-102430742D01*
X106795119Y-102217297D01*
X106795118Y-102217296D01*
X106696882Y-101980132D01*
X106696881Y-101980130D01*
X106646800Y-101728354D01*
X106646800Y-101471646D01*
X106696881Y-101219870D01*
X106755914Y-101077351D01*
X106795118Y-100982704D01*
X106823565Y-100940131D01*
X106937738Y-100769258D01*
X107119258Y-100587738D01*
X107332703Y-100445119D01*
X107332704Y-100445118D01*
X107569868Y-100346882D01*
X107569867Y-100346882D01*
X107569870Y-100346881D01*
X107821646Y-100296800D01*
X108078354Y-100296800D01*
X108330130Y-100346881D01*
G37*
G36*
X146430130Y-100346881D02*
G01*
X146430133Y-100346882D01*
X146430132Y-100346882D01*
X146667296Y-100445118D01*
X146667297Y-100445119D01*
X146880742Y-100587738D01*
X147062262Y-100769258D01*
X147176435Y-100940131D01*
X147204882Y-100982704D01*
X147244086Y-101077351D01*
X147303119Y-101219870D01*
X147353200Y-101471646D01*
X147353200Y-101728354D01*
X147303119Y-101980130D01*
X147303118Y-101980132D01*
X147204882Y-102217296D01*
X147204881Y-102217297D01*
X147062262Y-102430742D01*
X146880742Y-102612262D01*
X146755447Y-102695981D01*
X146667296Y-102754882D01*
X146600378Y-102782600D01*
X146430130Y-102853119D01*
X146178354Y-102903200D01*
X145921646Y-102903200D01*
X145669870Y-102853119D01*
X145499622Y-102782600D01*
X145432704Y-102754882D01*
X145344553Y-102695981D01*
X145219258Y-102612262D01*
X145037738Y-102430742D01*
X144895119Y-102217297D01*
X144895118Y-102217296D01*
X144796882Y-101980132D01*
X144796881Y-101980130D01*
X144746800Y-101728354D01*
X144746800Y-101471646D01*
X144796881Y-101219870D01*
X144855914Y-101077351D01*
X144895118Y-100982704D01*
X144923565Y-100940131D01*
X145037738Y-100769258D01*
X145219258Y-100587738D01*
X145432703Y-100445119D01*
X145432704Y-100445118D01*
X145669868Y-100346882D01*
X145669867Y-100346882D01*
X145669870Y-100346881D01*
X145921646Y-100296800D01*
X146178354Y-100296800D01*
X146430130Y-100346881D01*
G37*
G36*
X127380130Y-100346881D02*
G01*
X127380133Y-100346882D01*
X127380132Y-100346882D01*
X127617296Y-100445118D01*
X127617297Y-100445119D01*
X127830742Y-100587738D01*
X128012262Y-100769258D01*
X128126435Y-100940131D01*
X128154882Y-100982704D01*
X128194086Y-101077351D01*
X128253119Y-101219870D01*
X128303200Y-101471646D01*
X128303200Y-101728354D01*
X128253119Y-101980130D01*
X128253118Y-101980132D01*
X128154882Y-102217296D01*
X128154881Y-102217297D01*
X128012262Y-102430742D01*
X127830742Y-102612262D01*
X127705447Y-102695981D01*
X127617296Y-102754882D01*
X127550378Y-102782600D01*
X127380130Y-102853119D01*
X127128354Y-102903200D01*
X126871646Y-102903200D01*
X126619870Y-102853119D01*
X126449622Y-102782600D01*
X126382704Y-102754882D01*
X126294553Y-102695981D01*
X126169258Y-102612262D01*
X125987738Y-102430742D01*
X125845119Y-102217297D01*
X125845118Y-102217296D01*
X125746882Y-101980132D01*
X125746881Y-101980130D01*
X125696800Y-101728354D01*
X125696800Y-101471646D01*
X125746881Y-101219870D01*
X125805914Y-101077351D01*
X125845118Y-100982704D01*
X125873565Y-100940131D01*
X125987738Y-100769258D01*
X126169258Y-100587738D01*
X126382703Y-100445119D01*
X126382704Y-100445118D01*
X126619868Y-100346882D01*
X126619867Y-100346882D01*
X126619870Y-100346881D01*
X126871646Y-100296800D01*
X127128354Y-100296800D01*
X127380130Y-100346881D01*
G37*
G36*
X98499821Y-100982343D02*
G01*
X98554983Y-100999075D01*
X98605818Y-101026247D01*
X98650381Y-101062819D01*
X98686953Y-101107382D01*
X98714125Y-101158217D01*
X98730857Y-101213379D01*
X98737000Y-101275744D01*
X98737000Y-102483056D01*
X98730857Y-102545421D01*
X98714125Y-102600583D01*
X98686953Y-102651418D01*
X98650381Y-102695981D01*
X98605818Y-102732553D01*
X98554983Y-102759725D01*
X98499821Y-102776457D01*
X98437456Y-102782600D01*
X97655144Y-102782600D01*
X97592779Y-102776457D01*
X97537617Y-102759725D01*
X97486782Y-102732553D01*
X97442219Y-102695981D01*
X97405647Y-102651418D01*
X97378475Y-102600583D01*
X97361743Y-102545421D01*
X97355600Y-102483056D01*
X97355600Y-101275744D01*
X97361743Y-101213379D01*
X97378475Y-101158217D01*
X97405647Y-101107382D01*
X97442219Y-101062819D01*
X97486782Y-101026247D01*
X97537617Y-100999075D01*
X97592779Y-100982343D01*
X97655144Y-100976200D01*
X98437456Y-100976200D01*
X98499821Y-100982343D01*
G37*
G36*
X100374821Y-100982343D02*
G01*
X100429983Y-100999075D01*
X100480818Y-101026247D01*
X100525381Y-101062819D01*
X100561953Y-101107382D01*
X100589125Y-101158217D01*
X100605857Y-101213379D01*
X100612000Y-101275744D01*
X100612000Y-102483056D01*
X100605857Y-102545421D01*
X100589125Y-102600583D01*
X100561953Y-102651418D01*
X100525381Y-102695981D01*
X100480818Y-102732553D01*
X100429983Y-102759725D01*
X100374821Y-102776457D01*
X100312456Y-102782600D01*
X99530144Y-102782600D01*
X99467779Y-102776457D01*
X99412617Y-102759725D01*
X99361782Y-102732553D01*
X99317219Y-102695981D01*
X99280647Y-102651418D01*
X99253475Y-102600583D01*
X99236743Y-102545421D01*
X99230600Y-102483056D01*
X99230600Y-101275744D01*
X99236743Y-101213379D01*
X99253475Y-101158217D01*
X99280647Y-101107382D01*
X99317219Y-101062819D01*
X99361782Y-101026247D01*
X99412617Y-100999075D01*
X99467779Y-100982343D01*
X99530144Y-100976200D01*
X100312456Y-100976200D01*
X100374821Y-100982343D01*
G37*
G36*
X114680130Y-97806881D02*
G01*
X114680133Y-97806882D01*
X114680132Y-97806882D01*
X114917296Y-97905118D01*
X114917297Y-97905119D01*
X115130742Y-98047738D01*
X115312262Y-98229258D01*
X115426435Y-98400131D01*
X115454882Y-98442704D01*
X115530864Y-98626141D01*
X115553119Y-98679870D01*
X115603200Y-98931646D01*
X115603200Y-99188354D01*
X115553119Y-99440130D01*
X115553118Y-99440132D01*
X115454882Y-99677296D01*
X115454881Y-99677297D01*
X115312262Y-99890742D01*
X115130742Y-100072262D01*
X114959869Y-100186435D01*
X114917296Y-100214882D01*
X114733859Y-100290864D01*
X114680130Y-100313119D01*
X114428354Y-100363200D01*
X114171646Y-100363200D01*
X113919870Y-100313119D01*
X113866141Y-100290864D01*
X113682704Y-100214882D01*
X113640131Y-100186435D01*
X113469258Y-100072262D01*
X113287738Y-99890742D01*
X113145119Y-99677297D01*
X113145118Y-99677296D01*
X113046882Y-99440132D01*
X113046881Y-99440130D01*
X112996800Y-99188354D01*
X112996800Y-98931646D01*
X113046881Y-98679870D01*
X113069136Y-98626141D01*
X113145118Y-98442704D01*
X113173565Y-98400131D01*
X113287738Y-98229258D01*
X113469258Y-98047738D01*
X113682703Y-97905119D01*
X113682704Y-97905118D01*
X113919868Y-97806882D01*
X113919867Y-97806882D01*
X113919870Y-97806881D01*
X114171646Y-97756800D01*
X114428354Y-97756800D01*
X114680130Y-97806881D01*
G37*
G36*
X133730130Y-97806881D02*
G01*
X133730133Y-97806882D01*
X133730132Y-97806882D01*
X133967296Y-97905118D01*
X133967297Y-97905119D01*
X134180742Y-98047738D01*
X134362262Y-98229258D01*
X134476435Y-98400131D01*
X134504882Y-98442704D01*
X134580864Y-98626141D01*
X134603119Y-98679870D01*
X134653200Y-98931646D01*
X134653200Y-99188354D01*
X134603119Y-99440130D01*
X134603118Y-99440132D01*
X134504882Y-99677296D01*
X134504881Y-99677297D01*
X134362262Y-99890742D01*
X134180742Y-100072262D01*
X134009869Y-100186435D01*
X133967296Y-100214882D01*
X133783859Y-100290864D01*
X133730130Y-100313119D01*
X133478354Y-100363200D01*
X133221646Y-100363200D01*
X132969870Y-100313119D01*
X132916141Y-100290864D01*
X132732704Y-100214882D01*
X132690131Y-100186435D01*
X132519258Y-100072262D01*
X132337738Y-99890742D01*
X132195119Y-99677297D01*
X132195118Y-99677296D01*
X132096882Y-99440132D01*
X132096881Y-99440130D01*
X132046800Y-99188354D01*
X132046800Y-98931646D01*
X132096881Y-98679870D01*
X132119136Y-98626141D01*
X132195118Y-98442704D01*
X132223565Y-98400131D01*
X132337738Y-98229258D01*
X132519258Y-98047738D01*
X132732703Y-97905119D01*
X132732704Y-97905118D01*
X132969868Y-97806882D01*
X132969867Y-97806882D01*
X132969870Y-97806881D01*
X133221646Y-97756800D01*
X133478354Y-97756800D01*
X133730130Y-97806881D01*
G37*
G36*
X152780130Y-97806881D02*
G01*
X152780133Y-97806882D01*
X152780132Y-97806882D01*
X153017296Y-97905118D01*
X153017297Y-97905119D01*
X153230742Y-98047738D01*
X153412262Y-98229258D01*
X153526435Y-98400131D01*
X153554882Y-98442704D01*
X153630864Y-98626141D01*
X153653119Y-98679870D01*
X153703200Y-98931646D01*
X153703200Y-99188354D01*
X153653119Y-99440130D01*
X153653118Y-99440132D01*
X153554882Y-99677296D01*
X153554881Y-99677297D01*
X153412262Y-99890742D01*
X153230742Y-100072262D01*
X153059869Y-100186435D01*
X153017296Y-100214882D01*
X152833859Y-100290864D01*
X152780130Y-100313119D01*
X152528354Y-100363200D01*
X152271646Y-100363200D01*
X152019870Y-100313119D01*
X151966141Y-100290864D01*
X151782704Y-100214882D01*
X151740131Y-100186435D01*
X151569258Y-100072262D01*
X151387738Y-99890742D01*
X151245119Y-99677297D01*
X151245118Y-99677296D01*
X151146882Y-99440132D01*
X151146881Y-99440130D01*
X151096800Y-99188354D01*
X151096800Y-98931646D01*
X151146881Y-98679870D01*
X151169136Y-98626141D01*
X151245118Y-98442704D01*
X151273565Y-98400131D01*
X151387738Y-98229258D01*
X151569258Y-98047738D01*
X151782703Y-97905119D01*
X151782704Y-97905118D01*
X152019868Y-97806882D01*
X152019867Y-97806882D01*
X152019870Y-97806881D01*
X152271646Y-97756800D01*
X152528354Y-97756800D01*
X152780130Y-97806881D01*
G37*
G36*
X100374821Y-97197743D02*
G01*
X100429983Y-97214475D01*
X100480818Y-97241647D01*
X100525381Y-97278219D01*
X100561953Y-97322782D01*
X100589125Y-97373617D01*
X100605857Y-97428779D01*
X100612000Y-97491144D01*
X100612000Y-98698456D01*
X100605857Y-98760821D01*
X100589125Y-98815983D01*
X100561953Y-98866818D01*
X100525381Y-98911381D01*
X100480818Y-98947953D01*
X100429983Y-98975125D01*
X100374821Y-98991857D01*
X100312456Y-98998000D01*
X99530144Y-98998000D01*
X99467779Y-98991857D01*
X99412617Y-98975125D01*
X99361782Y-98947953D01*
X99317219Y-98911381D01*
X99280647Y-98866818D01*
X99253475Y-98815983D01*
X99236743Y-98760821D01*
X99230600Y-98698456D01*
X99230600Y-97491144D01*
X99236743Y-97428779D01*
X99253475Y-97373617D01*
X99280647Y-97322782D01*
X99317219Y-97278219D01*
X99361782Y-97241647D01*
X99412617Y-97214475D01*
X99467779Y-97197743D01*
X99530144Y-97191600D01*
X100312456Y-97191600D01*
X100374821Y-97197743D01*
G37*
G36*
X98499821Y-97197743D02*
G01*
X98554983Y-97214475D01*
X98605818Y-97241647D01*
X98650381Y-97278219D01*
X98686953Y-97322782D01*
X98714125Y-97373617D01*
X98730857Y-97428779D01*
X98737000Y-97491144D01*
X98737000Y-98698456D01*
X98730857Y-98760821D01*
X98714125Y-98815983D01*
X98686953Y-98866818D01*
X98650381Y-98911381D01*
X98605818Y-98947953D01*
X98554983Y-98975125D01*
X98499821Y-98991857D01*
X98437456Y-98998000D01*
X97655144Y-98998000D01*
X97592779Y-98991857D01*
X97537617Y-98975125D01*
X97486782Y-98947953D01*
X97442219Y-98911381D01*
X97405647Y-98866818D01*
X97378475Y-98815983D01*
X97361743Y-98760821D01*
X97355600Y-98698456D01*
X97355600Y-97491144D01*
X97361743Y-97428779D01*
X97378475Y-97373617D01*
X97405647Y-97322782D01*
X97442219Y-97278219D01*
X97486782Y-97241647D01*
X97537617Y-97214475D01*
X97592779Y-97197743D01*
X97655144Y-97191600D01*
X98437456Y-97191600D01*
X98499821Y-97197743D01*
G37*
G36*
X91699621Y-93748043D02*
G01*
X91754783Y-93764775D01*
X91805618Y-93791947D01*
X91850181Y-93828519D01*
X91886753Y-93873082D01*
X91913925Y-93923917D01*
X91930657Y-93979079D01*
X91936800Y-94041444D01*
X91936800Y-94823756D01*
X91930657Y-94886121D01*
X91913925Y-94941283D01*
X91886753Y-94992118D01*
X91850181Y-95036681D01*
X91805618Y-95073253D01*
X91754783Y-95100425D01*
X91699621Y-95117157D01*
X91637256Y-95123300D01*
X90429944Y-95123300D01*
X90367579Y-95117157D01*
X90312417Y-95100425D01*
X90261582Y-95073253D01*
X90217019Y-95036681D01*
X90180447Y-94992118D01*
X90153275Y-94941283D01*
X90136543Y-94886121D01*
X90130400Y-94823756D01*
X90130400Y-94041444D01*
X90136543Y-93979079D01*
X90153275Y-93923917D01*
X90180447Y-93873082D01*
X90217019Y-93828519D01*
X90261582Y-93791947D01*
X90312417Y-93764775D01*
X90367579Y-93748043D01*
X90429944Y-93741900D01*
X91637256Y-93741900D01*
X91699621Y-93748043D01*
G37*
G36*
X91699621Y-91873043D02*
G01*
X91754783Y-91889775D01*
X91805618Y-91916947D01*
X91850181Y-91953519D01*
X91886753Y-91998082D01*
X91913925Y-92048917D01*
X91930657Y-92104079D01*
X91936800Y-92166444D01*
X91936800Y-92948756D01*
X91930657Y-93011121D01*
X91913925Y-93066283D01*
X91886753Y-93117118D01*
X91850181Y-93161681D01*
X91805618Y-93198253D01*
X91754783Y-93225425D01*
X91699621Y-93242157D01*
X91637256Y-93248300D01*
X90429944Y-93248300D01*
X90367579Y-93242157D01*
X90312417Y-93225425D01*
X90261582Y-93198253D01*
X90217019Y-93161681D01*
X90180447Y-93117118D01*
X90153275Y-93066283D01*
X90136543Y-93011121D01*
X90130400Y-92948756D01*
X90130400Y-92166444D01*
X90136543Y-92104079D01*
X90153275Y-92048917D01*
X90180447Y-91998082D01*
X90217019Y-91953519D01*
X90261582Y-91916947D01*
X90312417Y-91889775D01*
X90367579Y-91873043D01*
X90429944Y-91866900D01*
X91637256Y-91866900D01*
X91699621Y-91873043D01*
G37*
G36*
X92486800Y-91059400D02*
G01*
X89580400Y-91059400D01*
X89580400Y-88753000D01*
X92486800Y-88753000D01*
X92486800Y-91059400D01*
G37*
G36*
X96870961Y-86477038D02*
G01*
X96870964Y-86477039D01*
X96870963Y-86477039D01*
X97089928Y-86567737D01*
X97089929Y-86567738D01*
X97286995Y-86699413D01*
X97454587Y-86867005D01*
X97542370Y-86998382D01*
X97586263Y-87064072D01*
X97646100Y-87208532D01*
X97676962Y-87283039D01*
X97723200Y-87515495D01*
X97723200Y-87752505D01*
X97676962Y-87984961D01*
X97676961Y-87984963D01*
X97586263Y-88203928D01*
X97586262Y-88203929D01*
X97454587Y-88400995D01*
X97286995Y-88568587D01*
X97155618Y-88656370D01*
X97089928Y-88700263D01*
X96962609Y-88753000D01*
X96870961Y-88790962D01*
X96638505Y-88837200D01*
X96401495Y-88837200D01*
X96169039Y-88790962D01*
X96077391Y-88753000D01*
X95950072Y-88700263D01*
X95884382Y-88656370D01*
X95753005Y-88568587D01*
X95585413Y-88400995D01*
X95453738Y-88203929D01*
X95453737Y-88203928D01*
X95363039Y-87984963D01*
X95363038Y-87984961D01*
X95316800Y-87752505D01*
X95316800Y-87515495D01*
X95363038Y-87283039D01*
X95393900Y-87208532D01*
X95453737Y-87064072D01*
X95497630Y-86998382D01*
X95585413Y-86867005D01*
X95753005Y-86699413D01*
X95950071Y-86567738D01*
X95950072Y-86567737D01*
X96169037Y-86477039D01*
X96169036Y-86477039D01*
X96169039Y-86477038D01*
X96401495Y-86430800D01*
X96638505Y-86430800D01*
X96870961Y-86477038D01*
G37*
G36*
X166938200Y-88833200D02*
G01*
X164531800Y-88833200D01*
X164531800Y-86426800D01*
X166938200Y-86426800D01*
X166938200Y-88833200D01*
G37*
G36*
X101467021Y-86097943D02*
G01*
X101522183Y-86114675D01*
X101573018Y-86141847D01*
X101617581Y-86178419D01*
X101654153Y-86222982D01*
X101681325Y-86273817D01*
X101698057Y-86328979D01*
X101704200Y-86391344D01*
X101704200Y-87598656D01*
X101698057Y-87661021D01*
X101681325Y-87716183D01*
X101654153Y-87767018D01*
X101617581Y-87811581D01*
X101573018Y-87848153D01*
X101522183Y-87875325D01*
X101467021Y-87892057D01*
X101404656Y-87898200D01*
X100622344Y-87898200D01*
X100559979Y-87892057D01*
X100504817Y-87875325D01*
X100453982Y-87848153D01*
X100409419Y-87811581D01*
X100372847Y-87767018D01*
X100345675Y-87716183D01*
X100328943Y-87661021D01*
X100322800Y-87598656D01*
X100322800Y-86391344D01*
X100328943Y-86328979D01*
X100345675Y-86273817D01*
X100372847Y-86222982D01*
X100409419Y-86178419D01*
X100453982Y-86141847D01*
X100504817Y-86114675D01*
X100559979Y-86097943D01*
X100622344Y-86091800D01*
X101404656Y-86091800D01*
X101467021Y-86097943D01*
G37*
G36*
X99592021Y-86097943D02*
G01*
X99647183Y-86114675D01*
X99698018Y-86141847D01*
X99742581Y-86178419D01*
X99779153Y-86222982D01*
X99806325Y-86273817D01*
X99823057Y-86328979D01*
X99829200Y-86391344D01*
X99829200Y-87598656D01*
X99823057Y-87661021D01*
X99806325Y-87716183D01*
X99779153Y-87767018D01*
X99742581Y-87811581D01*
X99698018Y-87848153D01*
X99647183Y-87875325D01*
X99592021Y-87892057D01*
X99529656Y-87898200D01*
X98747344Y-87898200D01*
X98684979Y-87892057D01*
X98629817Y-87875325D01*
X98578982Y-87848153D01*
X98534419Y-87811581D01*
X98497847Y-87767018D01*
X98470675Y-87716183D01*
X98453943Y-87661021D01*
X98447800Y-87598656D01*
X98447800Y-86391344D01*
X98453943Y-86328979D01*
X98470675Y-86273817D01*
X98497847Y-86222982D01*
X98534419Y-86178419D01*
X98578982Y-86141847D01*
X98629817Y-86114675D01*
X98684979Y-86097943D01*
X98747344Y-86091800D01*
X99529656Y-86091800D01*
X99592021Y-86097943D01*
G37*
G36*
X150218881Y-82915023D02*
G01*
X150502652Y-82971468D01*
X150903608Y-83137550D01*
X151264458Y-83378662D01*
X151571338Y-83685542D01*
X151812450Y-84046392D01*
X151978532Y-84447348D01*
X152063200Y-84873005D01*
X152063200Y-85306995D01*
X151978532Y-85732652D01*
X151812450Y-86133608D01*
X151571338Y-86494458D01*
X151264458Y-86801338D01*
X150903608Y-87042450D01*
X150502652Y-87208532D01*
X150218881Y-87264977D01*
X150076996Y-87293200D01*
X149643004Y-87293200D01*
X149501119Y-87264977D01*
X149217348Y-87208532D01*
X148816392Y-87042450D01*
X148455542Y-86801338D01*
X148148662Y-86494458D01*
X147907550Y-86133608D01*
X147741468Y-85732652D01*
X147656800Y-85306995D01*
X147656800Y-84873005D01*
X147741468Y-84447348D01*
X147907550Y-84046392D01*
X148148662Y-83685542D01*
X148455542Y-83378662D01*
X148816392Y-83137550D01*
X149217348Y-82971468D01*
X149501119Y-82915023D01*
X149643004Y-82886800D01*
X150076996Y-82886800D01*
X150218881Y-82915023D01*
G37*
G36*
X131168881Y-82915023D02*
G01*
X131452652Y-82971468D01*
X131853608Y-83137550D01*
X132214458Y-83378662D01*
X132521338Y-83685542D01*
X132762450Y-84046392D01*
X132928532Y-84447348D01*
X133013200Y-84873005D01*
X133013200Y-85306995D01*
X132928532Y-85732652D01*
X132762450Y-86133608D01*
X132521338Y-86494458D01*
X132214458Y-86801338D01*
X131853608Y-87042450D01*
X131452652Y-87208532D01*
X131168881Y-87264977D01*
X131026996Y-87293200D01*
X130593004Y-87293200D01*
X130451119Y-87264977D01*
X130167348Y-87208532D01*
X129766392Y-87042450D01*
X129405542Y-86801338D01*
X129098662Y-86494458D01*
X128857550Y-86133608D01*
X128691468Y-85732652D01*
X128606800Y-85306995D01*
X128606800Y-84873005D01*
X128691468Y-84447348D01*
X128857550Y-84046392D01*
X129098662Y-83685542D01*
X129405542Y-83378662D01*
X129766392Y-83137550D01*
X130167348Y-82971468D01*
X130451119Y-82915023D01*
X130593004Y-82886800D01*
X131026996Y-82886800D01*
X131168881Y-82915023D01*
G37*
G36*
X112118881Y-82915023D02*
G01*
X112402652Y-82971468D01*
X112803608Y-83137550D01*
X113164458Y-83378662D01*
X113471338Y-83685542D01*
X113712450Y-84046392D01*
X113878532Y-84447348D01*
X113963200Y-84873005D01*
X113963200Y-85306995D01*
X113878532Y-85732652D01*
X113712450Y-86133608D01*
X113471338Y-86494458D01*
X113164458Y-86801338D01*
X112803608Y-87042450D01*
X112402652Y-87208532D01*
X112118881Y-87264977D01*
X111976996Y-87293200D01*
X111543004Y-87293200D01*
X111401119Y-87264977D01*
X111117348Y-87208532D01*
X110716392Y-87042450D01*
X110355542Y-86801338D01*
X110048662Y-86494458D01*
X109807550Y-86133608D01*
X109641468Y-85732652D01*
X109556800Y-85306995D01*
X109556800Y-84873005D01*
X109641468Y-84447348D01*
X109807550Y-84046392D01*
X110048662Y-83685542D01*
X110355542Y-83378662D01*
X110716392Y-83137550D01*
X111117348Y-82971468D01*
X111401119Y-82915023D01*
X111543004Y-82886800D01*
X111976996Y-82886800D01*
X112118881Y-82915023D01*
G37*
G36*
X92486800Y-86659400D02*
G01*
X89580400Y-86659400D01*
X89580400Y-84353000D01*
X92486800Y-84353000D01*
X92486800Y-86659400D01*
G37*
G36*
X155091953Y-84046392D02*
G01*
X155247210Y-84077274D01*
X155438879Y-84156666D01*
X155611376Y-84271925D01*
X155758075Y-84418624D01*
X155873334Y-84591121D01*
X155952726Y-84782790D01*
X155993200Y-84986270D01*
X155993200Y-85193730D01*
X155952726Y-85397210D01*
X155873334Y-85588879D01*
X155758075Y-85761376D01*
X155611376Y-85908075D01*
X155438879Y-86023334D01*
X155247210Y-86102726D01*
X155094600Y-86133081D01*
X155043731Y-86143200D01*
X154836269Y-86143200D01*
X154785400Y-86133081D01*
X154632790Y-86102726D01*
X154441121Y-86023334D01*
X154268624Y-85908075D01*
X154121925Y-85761376D01*
X154006666Y-85588879D01*
X153927274Y-85397210D01*
X153886800Y-85193730D01*
X153886800Y-84986270D01*
X153927274Y-84782790D01*
X154006666Y-84591121D01*
X154121925Y-84418624D01*
X154268624Y-84271925D01*
X154441121Y-84156666D01*
X154632790Y-84077274D01*
X154788047Y-84046392D01*
X154836269Y-84036800D01*
X155043731Y-84036800D01*
X155091953Y-84046392D01*
G37*
G36*
X116991953Y-84046392D02*
G01*
X117147210Y-84077274D01*
X117338879Y-84156666D01*
X117511376Y-84271925D01*
X117658075Y-84418624D01*
X117773334Y-84591121D01*
X117852726Y-84782790D01*
X117893200Y-84986270D01*
X117893200Y-85193730D01*
X117852726Y-85397210D01*
X117773334Y-85588879D01*
X117658075Y-85761376D01*
X117511376Y-85908075D01*
X117338879Y-86023334D01*
X117147210Y-86102726D01*
X116994600Y-86133081D01*
X116943731Y-86143200D01*
X116736269Y-86143200D01*
X116685400Y-86133081D01*
X116532790Y-86102726D01*
X116341121Y-86023334D01*
X116168624Y-85908075D01*
X116021925Y-85761376D01*
X115906666Y-85588879D01*
X115827274Y-85397210D01*
X115786800Y-85193730D01*
X115786800Y-84986270D01*
X115827274Y-84782790D01*
X115906666Y-84591121D01*
X116021925Y-84418624D01*
X116168624Y-84271925D01*
X116341121Y-84156666D01*
X116532790Y-84077274D01*
X116688047Y-84046392D01*
X116736269Y-84036800D01*
X116943731Y-84036800D01*
X116991953Y-84046392D01*
G37*
G36*
X144931953Y-84046392D02*
G01*
X145087210Y-84077274D01*
X145278879Y-84156666D01*
X145451376Y-84271925D01*
X145598075Y-84418624D01*
X145713334Y-84591121D01*
X145792726Y-84782790D01*
X145833200Y-84986270D01*
X145833200Y-85193730D01*
X145792726Y-85397210D01*
X145713334Y-85588879D01*
X145598075Y-85761376D01*
X145451376Y-85908075D01*
X145278879Y-86023334D01*
X145087210Y-86102726D01*
X144934600Y-86133081D01*
X144883731Y-86143200D01*
X144676269Y-86143200D01*
X144625400Y-86133081D01*
X144472790Y-86102726D01*
X144281121Y-86023334D01*
X144108624Y-85908075D01*
X143961925Y-85761376D01*
X143846666Y-85588879D01*
X143767274Y-85397210D01*
X143726800Y-85193730D01*
X143726800Y-84986270D01*
X143767274Y-84782790D01*
X143846666Y-84591121D01*
X143961925Y-84418624D01*
X144108624Y-84271925D01*
X144281121Y-84156666D01*
X144472790Y-84077274D01*
X144628047Y-84046392D01*
X144676269Y-84036800D01*
X144883731Y-84036800D01*
X144931953Y-84046392D01*
G37*
G36*
X106831953Y-84046392D02*
G01*
X106987210Y-84077274D01*
X107178879Y-84156666D01*
X107351376Y-84271925D01*
X107498075Y-84418624D01*
X107613334Y-84591121D01*
X107692726Y-84782790D01*
X107733200Y-84986270D01*
X107733200Y-85193730D01*
X107692726Y-85397210D01*
X107613334Y-85588879D01*
X107498075Y-85761376D01*
X107351376Y-85908075D01*
X107178879Y-86023334D01*
X106987210Y-86102726D01*
X106834600Y-86133081D01*
X106783731Y-86143200D01*
X106576269Y-86143200D01*
X106525400Y-86133081D01*
X106372790Y-86102726D01*
X106181121Y-86023334D01*
X106008624Y-85908075D01*
X105861925Y-85761376D01*
X105746666Y-85588879D01*
X105667274Y-85397210D01*
X105626800Y-85193730D01*
X105626800Y-84986270D01*
X105667274Y-84782790D01*
X105746666Y-84591121D01*
X105861925Y-84418624D01*
X106008624Y-84271925D01*
X106181121Y-84156666D01*
X106372790Y-84077274D01*
X106528047Y-84046392D01*
X106576269Y-84036800D01*
X106783731Y-84036800D01*
X106831953Y-84046392D01*
G37*
G36*
X125881953Y-84046392D02*
G01*
X126037210Y-84077274D01*
X126228879Y-84156666D01*
X126401376Y-84271925D01*
X126548075Y-84418624D01*
X126663334Y-84591121D01*
X126742726Y-84782790D01*
X126783200Y-84986270D01*
X126783200Y-85193730D01*
X126742726Y-85397210D01*
X126663334Y-85588879D01*
X126548075Y-85761376D01*
X126401376Y-85908075D01*
X126228879Y-86023334D01*
X126037210Y-86102726D01*
X125884600Y-86133081D01*
X125833731Y-86143200D01*
X125626269Y-86143200D01*
X125575400Y-86133081D01*
X125422790Y-86102726D01*
X125231121Y-86023334D01*
X125058624Y-85908075D01*
X124911925Y-85761376D01*
X124796666Y-85588879D01*
X124717274Y-85397210D01*
X124676800Y-85193730D01*
X124676800Y-84986270D01*
X124717274Y-84782790D01*
X124796666Y-84591121D01*
X124911925Y-84418624D01*
X125058624Y-84271925D01*
X125231121Y-84156666D01*
X125422790Y-84077274D01*
X125578047Y-84046392D01*
X125626269Y-84036800D01*
X125833731Y-84036800D01*
X125881953Y-84046392D01*
G37*
G36*
X136041953Y-84046392D02*
G01*
X136197210Y-84077274D01*
X136388879Y-84156666D01*
X136561376Y-84271925D01*
X136708075Y-84418624D01*
X136823334Y-84591121D01*
X136902726Y-84782790D01*
X136943200Y-84986270D01*
X136943200Y-85193730D01*
X136902726Y-85397210D01*
X136823334Y-85588879D01*
X136708075Y-85761376D01*
X136561376Y-85908075D01*
X136388879Y-86023334D01*
X136197210Y-86102726D01*
X136044600Y-86133081D01*
X135993731Y-86143200D01*
X135786269Y-86143200D01*
X135735400Y-86133081D01*
X135582790Y-86102726D01*
X135391121Y-86023334D01*
X135218624Y-85908075D01*
X135071925Y-85761376D01*
X134956666Y-85588879D01*
X134877274Y-85397210D01*
X134836800Y-85193730D01*
X134836800Y-84986270D01*
X134877274Y-84782790D01*
X134956666Y-84591121D01*
X135071925Y-84418624D01*
X135218624Y-84271925D01*
X135391121Y-84156666D01*
X135582790Y-84077274D01*
X135738047Y-84046392D01*
X135786269Y-84036800D01*
X135993731Y-84036800D01*
X136041953Y-84046392D01*
G37*
G36*
X98202021Y-84326943D02*
G01*
X98257183Y-84343675D01*
X98308018Y-84370847D01*
X98352581Y-84407419D01*
X98389153Y-84451982D01*
X98416325Y-84502817D01*
X98433057Y-84557979D01*
X98439200Y-84620344D01*
X98439200Y-85402656D01*
X98433057Y-85465021D01*
X98416325Y-85520183D01*
X98389153Y-85571018D01*
X98352581Y-85615581D01*
X98308018Y-85652153D01*
X98257183Y-85679325D01*
X98202021Y-85696057D01*
X98139656Y-85702200D01*
X96932344Y-85702200D01*
X96869979Y-85696057D01*
X96814817Y-85679325D01*
X96763982Y-85652153D01*
X96719419Y-85615581D01*
X96682847Y-85571018D01*
X96655675Y-85520183D01*
X96638943Y-85465021D01*
X96632800Y-85402656D01*
X96632800Y-84620344D01*
X96638943Y-84557979D01*
X96655675Y-84502817D01*
X96682847Y-84451982D01*
X96719419Y-84407419D01*
X96763982Y-84370847D01*
X96814817Y-84343675D01*
X96869979Y-84326943D01*
X96932344Y-84320800D01*
X98139656Y-84320800D01*
X98202021Y-84326943D01*
G37*
G36*
X95154021Y-84326943D02*
G01*
X95209183Y-84343675D01*
X95260018Y-84370847D01*
X95304581Y-84407419D01*
X95341153Y-84451982D01*
X95368325Y-84502817D01*
X95385057Y-84557979D01*
X95391200Y-84620344D01*
X95391200Y-85402656D01*
X95385057Y-85465021D01*
X95368325Y-85520183D01*
X95341153Y-85571018D01*
X95304581Y-85615581D01*
X95260018Y-85652153D01*
X95209183Y-85679325D01*
X95154021Y-85696057D01*
X95091656Y-85702200D01*
X93884344Y-85702200D01*
X93821979Y-85696057D01*
X93766817Y-85679325D01*
X93715982Y-85652153D01*
X93671419Y-85615581D01*
X93634847Y-85571018D01*
X93607675Y-85520183D01*
X93590943Y-85465021D01*
X93584800Y-85402656D01*
X93584800Y-84620344D01*
X93590943Y-84557979D01*
X93607675Y-84502817D01*
X93634847Y-84451982D01*
X93671419Y-84407419D01*
X93715982Y-84370847D01*
X93766817Y-84343675D01*
X93821979Y-84326943D01*
X93884344Y-84320800D01*
X95091656Y-84320800D01*
X95154021Y-84326943D01*
G37*
G36*
X108330130Y-81296881D02*
G01*
X108330133Y-81296882D01*
X108330132Y-81296882D01*
X108567296Y-81395118D01*
X108567297Y-81395119D01*
X108780742Y-81537738D01*
X108962262Y-81719258D01*
X109056296Y-81859990D01*
X109104882Y-81932704D01*
X109129505Y-81992150D01*
X109203119Y-82169870D01*
X109253200Y-82421646D01*
X109253200Y-82678354D01*
X109203119Y-82930130D01*
X109203118Y-82930132D01*
X109104882Y-83167296D01*
X109076435Y-83209869D01*
X108962262Y-83380742D01*
X108780742Y-83562262D01*
X108619201Y-83670200D01*
X108567296Y-83704882D01*
X108412505Y-83768998D01*
X108330130Y-83803119D01*
X108078354Y-83853200D01*
X107821646Y-83853200D01*
X107569870Y-83803119D01*
X107487495Y-83768998D01*
X107332704Y-83704882D01*
X107280799Y-83670200D01*
X107119258Y-83562262D01*
X106937738Y-83380742D01*
X106823565Y-83209869D01*
X106795118Y-83167296D01*
X106696882Y-82930132D01*
X106696881Y-82930130D01*
X106646800Y-82678354D01*
X106646800Y-82421646D01*
X106696881Y-82169870D01*
X106770495Y-81992150D01*
X106795118Y-81932704D01*
X106843704Y-81859990D01*
X106937738Y-81719258D01*
X107119258Y-81537738D01*
X107332703Y-81395119D01*
X107332704Y-81395118D01*
X107569868Y-81296882D01*
X107569867Y-81296882D01*
X107569870Y-81296881D01*
X107821646Y-81246800D01*
X108078354Y-81246800D01*
X108330130Y-81296881D01*
G37*
G36*
X127380130Y-81296881D02*
G01*
X127380133Y-81296882D01*
X127380132Y-81296882D01*
X127617296Y-81395118D01*
X127617297Y-81395119D01*
X127830742Y-81537738D01*
X128012262Y-81719258D01*
X128106296Y-81859990D01*
X128154882Y-81932704D01*
X128179505Y-81992150D01*
X128253119Y-82169870D01*
X128303200Y-82421646D01*
X128303200Y-82678354D01*
X128253119Y-82930130D01*
X128253118Y-82930132D01*
X128154882Y-83167296D01*
X128126435Y-83209869D01*
X128012262Y-83380742D01*
X127830742Y-83562262D01*
X127669201Y-83670200D01*
X127617296Y-83704882D01*
X127462505Y-83768998D01*
X127380130Y-83803119D01*
X127128354Y-83853200D01*
X126871646Y-83853200D01*
X126619870Y-83803119D01*
X126537495Y-83768998D01*
X126382704Y-83704882D01*
X126330799Y-83670200D01*
X126169258Y-83562262D01*
X125987738Y-83380742D01*
X125873565Y-83209869D01*
X125845118Y-83167296D01*
X125746882Y-82930132D01*
X125746881Y-82930130D01*
X125696800Y-82678354D01*
X125696800Y-82421646D01*
X125746881Y-82169870D01*
X125820495Y-81992150D01*
X125845118Y-81932704D01*
X125893704Y-81859990D01*
X125987738Y-81719258D01*
X126169258Y-81537738D01*
X126382703Y-81395119D01*
X126382704Y-81395118D01*
X126619868Y-81296882D01*
X126619867Y-81296882D01*
X126619870Y-81296881D01*
X126871646Y-81246800D01*
X127128354Y-81246800D01*
X127380130Y-81296881D01*
G37*
G36*
X146430130Y-81296881D02*
G01*
X146430133Y-81296882D01*
X146430132Y-81296882D01*
X146667296Y-81395118D01*
X146667297Y-81395119D01*
X146880742Y-81537738D01*
X147062262Y-81719258D01*
X147156296Y-81859990D01*
X147204882Y-81932704D01*
X147229505Y-81992150D01*
X147303119Y-82169870D01*
X147353200Y-82421646D01*
X147353200Y-82678354D01*
X147303119Y-82930130D01*
X147303118Y-82930132D01*
X147204882Y-83167296D01*
X147176435Y-83209869D01*
X147062262Y-83380742D01*
X146880742Y-83562262D01*
X146719201Y-83670200D01*
X146667296Y-83704882D01*
X146512505Y-83768998D01*
X146430130Y-83803119D01*
X146178354Y-83853200D01*
X145921646Y-83853200D01*
X145669870Y-83803119D01*
X145587495Y-83768998D01*
X145432704Y-83704882D01*
X145380799Y-83670200D01*
X145219258Y-83562262D01*
X145037738Y-83380742D01*
X144923565Y-83209869D01*
X144895118Y-83167296D01*
X144796882Y-82930132D01*
X144796881Y-82930130D01*
X144746800Y-82678354D01*
X144746800Y-82421646D01*
X144796881Y-82169870D01*
X144870495Y-81992150D01*
X144895118Y-81932704D01*
X144943704Y-81859990D01*
X145037738Y-81719258D01*
X145219258Y-81537738D01*
X145432703Y-81395119D01*
X145432704Y-81395118D01*
X145669868Y-81296882D01*
X145669867Y-81296882D01*
X145669870Y-81296881D01*
X145921646Y-81246800D01*
X146178354Y-81246800D01*
X146430130Y-81296881D01*
G37*
G36*
X95154021Y-82451943D02*
G01*
X95209183Y-82468675D01*
X95260018Y-82495847D01*
X95304581Y-82532419D01*
X95341153Y-82576982D01*
X95368325Y-82627817D01*
X95385057Y-82682979D01*
X95391200Y-82745344D01*
X95391200Y-83527656D01*
X95385057Y-83590021D01*
X95368325Y-83645183D01*
X95341153Y-83696018D01*
X95304581Y-83740581D01*
X95260018Y-83777153D01*
X95209183Y-83804325D01*
X95154021Y-83821057D01*
X95091656Y-83827200D01*
X93884344Y-83827200D01*
X93821979Y-83821057D01*
X93766817Y-83804325D01*
X93715982Y-83777153D01*
X93671419Y-83740581D01*
X93634847Y-83696018D01*
X93607675Y-83645183D01*
X93590943Y-83590021D01*
X93584800Y-83527656D01*
X93584800Y-82745344D01*
X93590943Y-82682979D01*
X93607675Y-82627817D01*
X93634847Y-82576982D01*
X93671419Y-82532419D01*
X93715982Y-82495847D01*
X93766817Y-82468675D01*
X93821979Y-82451943D01*
X93884344Y-82445800D01*
X95091656Y-82445800D01*
X95154021Y-82451943D01*
G37*
G36*
X98202021Y-82451943D02*
G01*
X98257183Y-82468675D01*
X98308018Y-82495847D01*
X98352581Y-82532419D01*
X98389153Y-82576982D01*
X98416325Y-82627817D01*
X98433057Y-82682979D01*
X98439200Y-82745344D01*
X98439200Y-83527656D01*
X98433057Y-83590021D01*
X98416325Y-83645183D01*
X98389153Y-83696018D01*
X98352581Y-83740581D01*
X98308018Y-83777153D01*
X98257183Y-83804325D01*
X98202021Y-83821057D01*
X98139656Y-83827200D01*
X96932344Y-83827200D01*
X96869979Y-83821057D01*
X96814817Y-83804325D01*
X96763982Y-83777153D01*
X96719419Y-83740581D01*
X96682847Y-83696018D01*
X96655675Y-83645183D01*
X96638943Y-83590021D01*
X96632800Y-83527656D01*
X96632800Y-82745344D01*
X96638943Y-82682979D01*
X96655675Y-82627817D01*
X96682847Y-82576982D01*
X96719419Y-82532419D01*
X96763982Y-82495847D01*
X96814817Y-82468675D01*
X96869979Y-82451943D01*
X96932344Y-82445800D01*
X98139656Y-82445800D01*
X98202021Y-82451943D01*
G37*
G36*
X158654021Y-82294943D02*
G01*
X158709183Y-82311675D01*
X158760018Y-82338847D01*
X158804581Y-82375419D01*
X158841153Y-82419982D01*
X158868325Y-82470817D01*
X158885057Y-82525979D01*
X158891200Y-82588344D01*
X158891200Y-83370656D01*
X158885057Y-83433021D01*
X158868325Y-83488183D01*
X158841153Y-83539018D01*
X158804581Y-83583581D01*
X158760018Y-83620153D01*
X158709183Y-83647325D01*
X158654021Y-83664057D01*
X158591656Y-83670200D01*
X157384344Y-83670200D01*
X157321979Y-83664057D01*
X157266817Y-83647325D01*
X157215982Y-83620153D01*
X157171419Y-83583581D01*
X157134847Y-83539018D01*
X157107675Y-83488183D01*
X157090943Y-83433021D01*
X157084800Y-83370656D01*
X157084800Y-82588344D01*
X157090943Y-82525979D01*
X157107675Y-82470817D01*
X157134847Y-82419982D01*
X157171419Y-82375419D01*
X157215982Y-82338847D01*
X157266817Y-82311675D01*
X157321979Y-82294943D01*
X157384344Y-82288800D01*
X158591656Y-82288800D01*
X158654021Y-82294943D01*
G37*
G36*
X161448021Y-82216443D02*
G01*
X161503183Y-82233175D01*
X161554018Y-82260347D01*
X161598581Y-82296919D01*
X161635153Y-82341482D01*
X161662325Y-82392317D01*
X161679057Y-82447479D01*
X161685200Y-82509844D01*
X161685200Y-83292156D01*
X161679057Y-83354521D01*
X161662325Y-83409683D01*
X161635153Y-83460518D01*
X161598581Y-83505081D01*
X161554018Y-83541653D01*
X161503183Y-83568825D01*
X161448021Y-83585557D01*
X161385656Y-83591700D01*
X160178344Y-83591700D01*
X160115979Y-83585557D01*
X160060817Y-83568825D01*
X160009982Y-83541653D01*
X159965419Y-83505081D01*
X159928847Y-83460518D01*
X159901675Y-83409683D01*
X159884943Y-83354521D01*
X159878800Y-83292156D01*
X159878800Y-82509844D01*
X159884943Y-82447479D01*
X159901675Y-82392317D01*
X159928847Y-82341482D01*
X159965419Y-82296919D01*
X160009982Y-82260347D01*
X160060817Y-82233175D01*
X160115979Y-82216443D01*
X160178344Y-82210300D01*
X161385656Y-82210300D01*
X161448021Y-82216443D01*
G37*
G36*
X101956521Y-81652943D02*
G01*
X102011683Y-81669675D01*
X102062518Y-81696847D01*
X102107081Y-81733419D01*
X102143653Y-81777982D01*
X102170825Y-81828817D01*
X102187557Y-81883979D01*
X102193700Y-81946344D01*
X102193700Y-83153656D01*
X102187557Y-83216021D01*
X102170825Y-83271183D01*
X102143653Y-83322018D01*
X102107081Y-83366581D01*
X102062518Y-83403153D01*
X102011683Y-83430325D01*
X101956521Y-83447057D01*
X101894156Y-83453200D01*
X101111844Y-83453200D01*
X101049479Y-83447057D01*
X100994317Y-83430325D01*
X100943482Y-83403153D01*
X100898919Y-83366581D01*
X100862347Y-83322018D01*
X100835175Y-83271183D01*
X100818443Y-83216021D01*
X100812300Y-83153656D01*
X100812300Y-81946344D01*
X100818443Y-81883979D01*
X100835175Y-81828817D01*
X100862347Y-81777982D01*
X100898919Y-81733419D01*
X100943482Y-81696847D01*
X100994317Y-81669675D01*
X101049479Y-81652943D01*
X101111844Y-81646800D01*
X101894156Y-81646800D01*
X101956521Y-81652943D01*
G37*
G36*
X103831521Y-81652943D02*
G01*
X103886683Y-81669675D01*
X103937518Y-81696847D01*
X103982081Y-81733419D01*
X104018653Y-81777982D01*
X104045825Y-81828817D01*
X104062557Y-81883979D01*
X104068700Y-81946344D01*
X104068700Y-83153656D01*
X104062557Y-83216021D01*
X104045825Y-83271183D01*
X104018653Y-83322018D01*
X103982081Y-83366581D01*
X103937518Y-83403153D01*
X103886683Y-83430325D01*
X103831521Y-83447057D01*
X103769156Y-83453200D01*
X102986844Y-83453200D01*
X102924479Y-83447057D01*
X102869317Y-83430325D01*
X102818482Y-83403153D01*
X102773919Y-83366581D01*
X102737347Y-83322018D01*
X102710175Y-83271183D01*
X102693443Y-83216021D01*
X102687300Y-83153656D01*
X102687300Y-81946344D01*
X102693443Y-81883979D01*
X102710175Y-81828817D01*
X102737347Y-81777982D01*
X102773919Y-81733419D01*
X102818482Y-81696847D01*
X102869317Y-81669675D01*
X102924479Y-81652943D01*
X102986844Y-81646800D01*
X103769156Y-81646800D01*
X103831521Y-81652943D01*
G37*
G36*
X92244521Y-80890943D02*
G01*
X92299683Y-80907675D01*
X92350518Y-80934847D01*
X92395081Y-80971419D01*
X92431653Y-81015982D01*
X92458825Y-81066817D01*
X92475557Y-81121979D01*
X92481700Y-81184344D01*
X92481700Y-82391656D01*
X92475557Y-82454021D01*
X92458825Y-82509183D01*
X92431653Y-82560018D01*
X92395081Y-82604581D01*
X92350518Y-82641153D01*
X92299683Y-82668325D01*
X92244521Y-82685057D01*
X92182156Y-82691200D01*
X91399844Y-82691200D01*
X91337479Y-82685057D01*
X91282317Y-82668325D01*
X91231482Y-82641153D01*
X91186919Y-82604581D01*
X91150347Y-82560018D01*
X91123175Y-82509183D01*
X91106443Y-82454021D01*
X91100300Y-82391656D01*
X91100300Y-81184344D01*
X91106443Y-81121979D01*
X91123175Y-81066817D01*
X91150347Y-81015982D01*
X91186919Y-80971419D01*
X91231482Y-80934847D01*
X91282317Y-80907675D01*
X91337479Y-80890943D01*
X91399844Y-80884800D01*
X92182156Y-80884800D01*
X92244521Y-80890943D01*
G37*
G36*
X90369521Y-80890943D02*
G01*
X90424683Y-80907675D01*
X90475518Y-80934847D01*
X90520081Y-80971419D01*
X90556653Y-81015982D01*
X90583825Y-81066817D01*
X90600557Y-81121979D01*
X90606700Y-81184344D01*
X90606700Y-82391656D01*
X90600557Y-82454021D01*
X90583825Y-82509183D01*
X90556653Y-82560018D01*
X90520081Y-82604581D01*
X90475518Y-82641153D01*
X90424683Y-82668325D01*
X90369521Y-82685057D01*
X90307156Y-82691200D01*
X89524844Y-82691200D01*
X89462479Y-82685057D01*
X89407317Y-82668325D01*
X89356482Y-82641153D01*
X89311919Y-82604581D01*
X89275347Y-82560018D01*
X89248175Y-82509183D01*
X89231443Y-82454021D01*
X89225300Y-82391656D01*
X89225300Y-81184344D01*
X89231443Y-81121979D01*
X89248175Y-81066817D01*
X89275347Y-81015982D01*
X89311919Y-80971419D01*
X89356482Y-80934847D01*
X89407317Y-80907675D01*
X89462479Y-80890943D01*
X89524844Y-80884800D01*
X90307156Y-80884800D01*
X90369521Y-80890943D01*
G37*
G36*
X158654021Y-80419943D02*
G01*
X158709183Y-80436675D01*
X158760018Y-80463847D01*
X158804581Y-80500419D01*
X158841153Y-80544982D01*
X158868325Y-80595817D01*
X158885057Y-80650979D01*
X158891200Y-80713344D01*
X158891200Y-81495656D01*
X158885057Y-81558021D01*
X158868325Y-81613183D01*
X158841153Y-81664018D01*
X158804581Y-81708581D01*
X158760018Y-81745153D01*
X158709183Y-81772325D01*
X158654021Y-81789057D01*
X158591656Y-81795200D01*
X157384344Y-81795200D01*
X157321979Y-81789057D01*
X157266817Y-81772325D01*
X157215982Y-81745153D01*
X157171419Y-81708581D01*
X157134847Y-81664018D01*
X157107675Y-81613183D01*
X157090943Y-81558021D01*
X157084800Y-81495656D01*
X157084800Y-80713344D01*
X157090943Y-80650979D01*
X157107675Y-80595817D01*
X157134847Y-80544982D01*
X157171419Y-80500419D01*
X157215982Y-80463847D01*
X157266817Y-80436675D01*
X157321979Y-80419943D01*
X157384344Y-80413800D01*
X158591656Y-80413800D01*
X158654021Y-80419943D01*
G37*
G36*
X161448021Y-80341443D02*
G01*
X161503183Y-80358175D01*
X161554018Y-80385347D01*
X161598581Y-80421919D01*
X161635153Y-80466482D01*
X161662325Y-80517317D01*
X161679057Y-80572479D01*
X161685200Y-80634844D01*
X161685200Y-81417156D01*
X161679057Y-81479521D01*
X161662325Y-81534683D01*
X161635153Y-81585518D01*
X161598581Y-81630081D01*
X161554018Y-81666653D01*
X161503183Y-81693825D01*
X161448021Y-81710557D01*
X161385656Y-81716700D01*
X160178344Y-81716700D01*
X160115979Y-81710557D01*
X160060817Y-81693825D01*
X160009982Y-81666653D01*
X159965419Y-81630081D01*
X159928847Y-81585518D01*
X159901675Y-81534683D01*
X159884943Y-81479521D01*
X159878800Y-81417156D01*
X159878800Y-80634844D01*
X159884943Y-80572479D01*
X159901675Y-80517317D01*
X159928847Y-80466482D01*
X159965419Y-80421919D01*
X160009982Y-80385347D01*
X160060817Y-80358175D01*
X160115979Y-80341443D01*
X160178344Y-80335300D01*
X161385656Y-80335300D01*
X161448021Y-80341443D01*
G37*
G36*
X133730130Y-78756881D02*
G01*
X133730133Y-78756882D01*
X133730132Y-78756882D01*
X133967296Y-78855118D01*
X133967297Y-78855119D01*
X134180742Y-78997738D01*
X134362262Y-79179258D01*
X134476435Y-79350131D01*
X134504882Y-79392704D01*
X134580864Y-79576141D01*
X134603119Y-79629870D01*
X134653200Y-79881646D01*
X134653200Y-80138354D01*
X134603119Y-80390130D01*
X134583932Y-80436451D01*
X134504882Y-80627296D01*
X134489057Y-80650979D01*
X134362262Y-80840742D01*
X134180742Y-81022262D01*
X134009869Y-81136435D01*
X133967296Y-81164882D01*
X133809724Y-81230150D01*
X133730130Y-81263119D01*
X133478354Y-81313200D01*
X133221646Y-81313200D01*
X132969870Y-81263119D01*
X132890276Y-81230150D01*
X132732704Y-81164882D01*
X132690131Y-81136435D01*
X132519258Y-81022262D01*
X132337738Y-80840742D01*
X132210943Y-80650979D01*
X132195118Y-80627296D01*
X132116068Y-80436451D01*
X132096881Y-80390130D01*
X132046800Y-80138354D01*
X132046800Y-79881646D01*
X132096881Y-79629870D01*
X132119136Y-79576141D01*
X132195118Y-79392704D01*
X132223565Y-79350131D01*
X132337738Y-79179258D01*
X132519258Y-78997738D01*
X132732703Y-78855119D01*
X132732704Y-78855118D01*
X132969868Y-78756882D01*
X132969867Y-78756882D01*
X132969870Y-78756881D01*
X133221646Y-78706800D01*
X133478354Y-78706800D01*
X133730130Y-78756881D01*
G37*
G36*
X114680130Y-78756881D02*
G01*
X114680133Y-78756882D01*
X114680132Y-78756882D01*
X114917296Y-78855118D01*
X114917297Y-78855119D01*
X115130742Y-78997738D01*
X115312262Y-79179258D01*
X115426435Y-79350131D01*
X115454882Y-79392704D01*
X115530864Y-79576141D01*
X115553119Y-79629870D01*
X115603200Y-79881646D01*
X115603200Y-80138354D01*
X115553119Y-80390130D01*
X115533932Y-80436451D01*
X115454882Y-80627296D01*
X115439057Y-80650979D01*
X115312262Y-80840742D01*
X115130742Y-81022262D01*
X114959869Y-81136435D01*
X114917296Y-81164882D01*
X114759724Y-81230150D01*
X114680130Y-81263119D01*
X114428354Y-81313200D01*
X114171646Y-81313200D01*
X113919870Y-81263119D01*
X113840276Y-81230150D01*
X113682704Y-81164882D01*
X113640131Y-81136435D01*
X113469258Y-81022262D01*
X113287738Y-80840742D01*
X113160943Y-80650979D01*
X113145118Y-80627296D01*
X113066068Y-80436451D01*
X113046881Y-80390130D01*
X112996800Y-80138354D01*
X112996800Y-79881646D01*
X113046881Y-79629870D01*
X113069136Y-79576141D01*
X113145118Y-79392704D01*
X113173565Y-79350131D01*
X113287738Y-79179258D01*
X113469258Y-78997738D01*
X113682703Y-78855119D01*
X113682704Y-78855118D01*
X113919868Y-78756882D01*
X113919867Y-78756882D01*
X113919870Y-78756881D01*
X114171646Y-78706800D01*
X114428354Y-78706800D01*
X114680130Y-78756881D01*
G37*
G36*
X152780130Y-78756881D02*
G01*
X152780133Y-78756882D01*
X152780132Y-78756882D01*
X153017296Y-78855118D01*
X153017297Y-78855119D01*
X153230742Y-78997738D01*
X153412262Y-79179258D01*
X153526435Y-79350131D01*
X153554882Y-79392704D01*
X153630864Y-79576141D01*
X153653119Y-79629870D01*
X153703200Y-79881646D01*
X153703200Y-80138354D01*
X153653119Y-80390130D01*
X153633932Y-80436451D01*
X153554882Y-80627296D01*
X153539057Y-80650979D01*
X153412262Y-80840742D01*
X153230742Y-81022262D01*
X153059869Y-81136435D01*
X153017296Y-81164882D01*
X152859724Y-81230150D01*
X152780130Y-81263119D01*
X152528354Y-81313200D01*
X152271646Y-81313200D01*
X152019870Y-81263119D01*
X151940276Y-81230150D01*
X151782704Y-81164882D01*
X151740131Y-81136435D01*
X151569258Y-81022262D01*
X151387738Y-80840742D01*
X151260943Y-80650979D01*
X151245118Y-80627296D01*
X151166068Y-80436451D01*
X151146881Y-80390130D01*
X151096800Y-80138354D01*
X151096800Y-79881646D01*
X151146881Y-79629870D01*
X151169136Y-79576141D01*
X151245118Y-79392704D01*
X151273565Y-79350131D01*
X151387738Y-79179258D01*
X151569258Y-78997738D01*
X151782703Y-78855119D01*
X151782704Y-78855118D01*
X152019868Y-78756882D01*
X152019867Y-78756882D01*
X152019870Y-78756881D01*
X152271646Y-78706800D01*
X152528354Y-78706800D01*
X152780130Y-78756881D01*
G37*
G36*
X99090200Y-80387200D02*
G01*
X92933800Y-80387200D01*
X92933800Y-78680800D01*
X99090200Y-78680800D01*
X99090200Y-80387200D01*
G37*
G36*
X101215200Y-78262200D02*
G01*
X99508800Y-78262200D01*
X99508800Y-72105800D01*
X101215200Y-72105800D01*
X101215200Y-78262200D01*
G37*
G36*
X92515200Y-78262200D02*
G01*
X90808800Y-78262200D01*
X90808800Y-72105800D01*
X92515200Y-72105800D01*
X92515200Y-78262200D01*
G37*
G36*
X172289200Y-76405200D02*
G01*
X170482800Y-76405200D01*
X170482800Y-74398800D01*
X172289200Y-74398800D01*
X172289200Y-76405200D01*
G37*
G36*
X164289200Y-76405200D02*
G01*
X162482800Y-76405200D01*
X162482800Y-74398800D01*
X164289200Y-74398800D01*
X164289200Y-76405200D01*
G37*
G36*
X90074021Y-74420943D02*
G01*
X90129183Y-74437675D01*
X90180018Y-74464847D01*
X90224581Y-74501419D01*
X90261153Y-74545982D01*
X90288325Y-74596817D01*
X90305057Y-74651979D01*
X90311200Y-74714344D01*
X90311200Y-75496656D01*
X90305057Y-75559021D01*
X90288325Y-75614183D01*
X90261153Y-75665018D01*
X90224581Y-75709581D01*
X90180018Y-75746153D01*
X90129183Y-75773325D01*
X90074021Y-75790057D01*
X90011656Y-75796200D01*
X88804344Y-75796200D01*
X88741979Y-75790057D01*
X88686817Y-75773325D01*
X88635982Y-75746153D01*
X88591419Y-75709581D01*
X88554847Y-75665018D01*
X88527675Y-75614183D01*
X88510943Y-75559021D01*
X88504800Y-75496656D01*
X88504800Y-74714344D01*
X88510943Y-74651979D01*
X88527675Y-74596817D01*
X88554847Y-74545982D01*
X88591419Y-74501419D01*
X88635982Y-74464847D01*
X88686817Y-74437675D01*
X88741979Y-74420943D01*
X88804344Y-74414800D01*
X90011656Y-74414800D01*
X90074021Y-74420943D01*
G37*
G36*
X110140021Y-73785943D02*
G01*
X110195183Y-73802675D01*
X110246018Y-73829847D01*
X110290581Y-73866419D01*
X110327153Y-73910982D01*
X110354325Y-73961817D01*
X110371057Y-74016979D01*
X110377200Y-74079344D01*
X110377200Y-74861656D01*
X110371057Y-74924021D01*
X110354325Y-74979183D01*
X110327153Y-75030018D01*
X110290581Y-75074581D01*
X110246018Y-75111153D01*
X110195183Y-75138325D01*
X110140021Y-75155057D01*
X110077656Y-75161200D01*
X108870344Y-75161200D01*
X108807979Y-75155057D01*
X108752817Y-75138325D01*
X108701982Y-75111153D01*
X108657419Y-75074581D01*
X108620847Y-75030018D01*
X108593675Y-74979183D01*
X108576943Y-74924021D01*
X108570800Y-74861656D01*
X108570800Y-74079344D01*
X108576943Y-74016979D01*
X108593675Y-73961817D01*
X108620847Y-73910982D01*
X108657419Y-73866419D01*
X108701982Y-73829847D01*
X108752817Y-73802675D01*
X108807979Y-73785943D01*
X108870344Y-73779800D01*
X110077656Y-73779800D01*
X110140021Y-73785943D01*
G37*
G36*
X90074021Y-72545943D02*
G01*
X90129183Y-72562675D01*
X90180018Y-72589847D01*
X90224581Y-72626419D01*
X90261153Y-72670982D01*
X90288325Y-72721817D01*
X90305057Y-72776979D01*
X90311200Y-72839344D01*
X90311200Y-73621656D01*
X90305057Y-73684021D01*
X90288325Y-73739183D01*
X90261153Y-73790018D01*
X90224581Y-73834581D01*
X90180018Y-73871153D01*
X90129183Y-73898325D01*
X90074021Y-73915057D01*
X90011656Y-73921200D01*
X88804344Y-73921200D01*
X88741979Y-73915057D01*
X88686817Y-73898325D01*
X88635982Y-73871153D01*
X88591419Y-73834581D01*
X88554847Y-73790018D01*
X88527675Y-73739183D01*
X88510943Y-73684021D01*
X88504800Y-73621656D01*
X88504800Y-72839344D01*
X88510943Y-72776979D01*
X88527675Y-72721817D01*
X88554847Y-72670982D01*
X88591419Y-72626419D01*
X88635982Y-72589847D01*
X88686817Y-72562675D01*
X88741979Y-72545943D01*
X88804344Y-72539800D01*
X90011656Y-72539800D01*
X90074021Y-72545943D01*
G37*
G36*
X110140021Y-71910943D02*
G01*
X110195183Y-71927675D01*
X110246018Y-71954847D01*
X110290581Y-71991419D01*
X110327153Y-72035982D01*
X110354325Y-72086817D01*
X110371057Y-72141979D01*
X110377200Y-72204344D01*
X110377200Y-72986656D01*
X110371057Y-73049021D01*
X110354325Y-73104183D01*
X110327153Y-73155018D01*
X110290581Y-73199581D01*
X110246018Y-73236153D01*
X110195183Y-73263325D01*
X110140021Y-73280057D01*
X110077656Y-73286200D01*
X108870344Y-73286200D01*
X108807979Y-73280057D01*
X108752817Y-73263325D01*
X108701982Y-73236153D01*
X108657419Y-73199581D01*
X108620847Y-73155018D01*
X108593675Y-73104183D01*
X108576943Y-73049021D01*
X108570800Y-72986656D01*
X108570800Y-72204344D01*
X108576943Y-72141979D01*
X108593675Y-72086817D01*
X108620847Y-72035982D01*
X108657419Y-71991419D01*
X108701982Y-71954847D01*
X108752817Y-71927675D01*
X108807979Y-71910943D01*
X108870344Y-71904800D01*
X110077656Y-71904800D01*
X110140021Y-71910943D01*
G37*
G36*
X172289200Y-71905200D02*
G01*
X170482800Y-71905200D01*
X170482800Y-69898800D01*
X172289200Y-69898800D01*
X172289200Y-71905200D01*
G37*
G36*
X164289200Y-71905200D02*
G01*
X162482800Y-71905200D01*
X162482800Y-69898800D01*
X164289200Y-69898800D01*
X164289200Y-71905200D01*
G37*
G36*
X99090200Y-71687200D02*
G01*
X92933800Y-71687200D01*
X92933800Y-69980800D01*
X99090200Y-69980800D01*
X99090200Y-71687200D01*
G37*
G36*
X104806021Y-69594943D02*
G01*
X104861183Y-69611675D01*
X104912018Y-69638847D01*
X104956581Y-69675419D01*
X104993153Y-69719982D01*
X105020325Y-69770817D01*
X105037057Y-69825979D01*
X105043200Y-69888344D01*
X105043200Y-70670656D01*
X105037057Y-70733021D01*
X105020325Y-70788183D01*
X104993153Y-70839018D01*
X104956581Y-70883581D01*
X104912018Y-70920153D01*
X104861183Y-70947325D01*
X104806021Y-70964057D01*
X104743656Y-70970200D01*
X103536344Y-70970200D01*
X103473979Y-70964057D01*
X103418817Y-70947325D01*
X103367982Y-70920153D01*
X103323419Y-70883581D01*
X103286847Y-70839018D01*
X103259675Y-70788183D01*
X103242943Y-70733021D01*
X103236800Y-70670656D01*
X103236800Y-69888344D01*
X103242943Y-69825979D01*
X103259675Y-69770817D01*
X103286847Y-69719982D01*
X103323419Y-69675419D01*
X103367982Y-69638847D01*
X103418817Y-69611675D01*
X103473979Y-69594943D01*
X103536344Y-69588800D01*
X104743656Y-69588800D01*
X104806021Y-69594943D01*
G37*
G36*
X104806021Y-67719943D02*
G01*
X104861183Y-67736675D01*
X104912018Y-67763847D01*
X104956581Y-67800419D01*
X104993153Y-67844982D01*
X105020325Y-67895817D01*
X105037057Y-67950979D01*
X105043200Y-68013344D01*
X105043200Y-68795656D01*
X105037057Y-68858021D01*
X105020325Y-68913183D01*
X104993153Y-68964018D01*
X104956581Y-69008581D01*
X104912018Y-69045153D01*
X104861183Y-69072325D01*
X104806021Y-69089057D01*
X104743656Y-69095200D01*
X103536344Y-69095200D01*
X103473979Y-69089057D01*
X103418817Y-69072325D01*
X103367982Y-69045153D01*
X103323419Y-69008581D01*
X103286847Y-68964018D01*
X103259675Y-68913183D01*
X103242943Y-68858021D01*
X103236800Y-68795656D01*
X103236800Y-68013344D01*
X103242943Y-67950979D01*
X103259675Y-67895817D01*
X103286847Y-67844982D01*
X103323419Y-67800419D01*
X103367982Y-67763847D01*
X103418817Y-67736675D01*
X103473979Y-67719943D01*
X103536344Y-67713800D01*
X104743656Y-67713800D01*
X104806021Y-67719943D01*
G37*
G36*
X150151340Y-63851588D02*
G01*
X150502652Y-63921468D01*
X150903608Y-64087550D01*
X151264458Y-64328662D01*
X151571338Y-64635542D01*
X151812450Y-64996392D01*
X151978532Y-65397348D01*
X152063200Y-65823005D01*
X152063200Y-66256995D01*
X151978532Y-66682652D01*
X151812450Y-67083608D01*
X151571338Y-67444458D01*
X151264458Y-67751338D01*
X150903608Y-67992450D01*
X150502652Y-68158532D01*
X150218881Y-68214977D01*
X150076996Y-68243200D01*
X149643004Y-68243200D01*
X149501119Y-68214977D01*
X149217348Y-68158532D01*
X148816392Y-67992450D01*
X148455542Y-67751338D01*
X148148662Y-67444458D01*
X147907550Y-67083608D01*
X147741468Y-66682652D01*
X147656800Y-66256995D01*
X147656800Y-65823005D01*
X147741468Y-65397348D01*
X147907550Y-64996392D01*
X148148662Y-64635542D01*
X148455542Y-64328662D01*
X148816392Y-64087550D01*
X149217348Y-63921468D01*
X149568660Y-63851588D01*
X149643004Y-63836800D01*
X150076996Y-63836800D01*
X150151340Y-63851588D01*
G37*
G36*
X112051340Y-63851588D02*
G01*
X112402652Y-63921468D01*
X112803608Y-64087550D01*
X113164458Y-64328662D01*
X113471338Y-64635542D01*
X113712450Y-64996392D01*
X113878532Y-65397348D01*
X113963200Y-65823005D01*
X113963200Y-66256995D01*
X113878532Y-66682652D01*
X113712450Y-67083608D01*
X113471338Y-67444458D01*
X113164458Y-67751338D01*
X112803608Y-67992450D01*
X112402652Y-68158532D01*
X112118881Y-68214977D01*
X111976996Y-68243200D01*
X111543004Y-68243200D01*
X111401119Y-68214977D01*
X111117348Y-68158532D01*
X110716392Y-67992450D01*
X110355542Y-67751338D01*
X110048662Y-67444458D01*
X109807550Y-67083608D01*
X109641468Y-66682652D01*
X109556800Y-66256995D01*
X109556800Y-65823005D01*
X109641468Y-65397348D01*
X109807550Y-64996392D01*
X110048662Y-64635542D01*
X110355542Y-64328662D01*
X110716392Y-64087550D01*
X111117348Y-63921468D01*
X111468660Y-63851588D01*
X111543004Y-63836800D01*
X111976996Y-63836800D01*
X112051340Y-63851588D01*
G37*
G36*
X131101340Y-63851588D02*
G01*
X131452652Y-63921468D01*
X131853608Y-64087550D01*
X132214458Y-64328662D01*
X132521338Y-64635542D01*
X132762450Y-64996392D01*
X132928532Y-65397348D01*
X133013200Y-65823005D01*
X133013200Y-66256995D01*
X132928532Y-66682652D01*
X132762450Y-67083608D01*
X132521338Y-67444458D01*
X132214458Y-67751338D01*
X131853608Y-67992450D01*
X131452652Y-68158532D01*
X131168881Y-68214977D01*
X131026996Y-68243200D01*
X130593004Y-68243200D01*
X130451119Y-68214977D01*
X130167348Y-68158532D01*
X129766392Y-67992450D01*
X129405542Y-67751338D01*
X129098662Y-67444458D01*
X128857550Y-67083608D01*
X128691468Y-66682652D01*
X128606800Y-66256995D01*
X128606800Y-65823005D01*
X128691468Y-65397348D01*
X128857550Y-64996392D01*
X129098662Y-64635542D01*
X129405542Y-64328662D01*
X129766392Y-64087550D01*
X130167348Y-63921468D01*
X130518660Y-63851588D01*
X130593004Y-63836800D01*
X131026996Y-63836800D01*
X131101340Y-63851588D01*
G37*
G36*
X136027464Y-64993510D02*
G01*
X136197210Y-65027274D01*
X136388879Y-65106666D01*
X136561376Y-65221925D01*
X136708075Y-65368624D01*
X136823334Y-65541121D01*
X136902726Y-65732790D01*
X136943200Y-65936270D01*
X136943200Y-66143730D01*
X136902726Y-66347210D01*
X136823334Y-66538879D01*
X136708075Y-66711376D01*
X136561376Y-66858075D01*
X136388879Y-66973334D01*
X136197210Y-67052726D01*
X136044600Y-67083082D01*
X135993731Y-67093200D01*
X135786269Y-67093200D01*
X135735400Y-67083082D01*
X135582790Y-67052726D01*
X135391121Y-66973334D01*
X135218624Y-66858075D01*
X135071925Y-66711376D01*
X134956666Y-66538879D01*
X134877274Y-66347210D01*
X134836800Y-66143730D01*
X134836800Y-65936270D01*
X134877274Y-65732790D01*
X134956666Y-65541121D01*
X135071925Y-65368624D01*
X135218624Y-65221925D01*
X135391121Y-65106666D01*
X135582790Y-65027274D01*
X135752536Y-64993510D01*
X135786269Y-64986800D01*
X135993731Y-64986800D01*
X136027464Y-64993510D01*
G37*
G36*
X144917464Y-64993510D02*
G01*
X145087210Y-65027274D01*
X145278879Y-65106666D01*
X145451376Y-65221925D01*
X145598075Y-65368624D01*
X145713334Y-65541121D01*
X145792726Y-65732790D01*
X145833200Y-65936270D01*
X145833200Y-66143730D01*
X145792726Y-66347210D01*
X145713334Y-66538879D01*
X145598075Y-66711376D01*
X145451376Y-66858075D01*
X145278879Y-66973334D01*
X145087210Y-67052726D01*
X144934600Y-67083082D01*
X144883731Y-67093200D01*
X144676269Y-67093200D01*
X144625400Y-67083082D01*
X144472790Y-67052726D01*
X144281121Y-66973334D01*
X144108624Y-66858075D01*
X143961925Y-66711376D01*
X143846666Y-66538879D01*
X143767274Y-66347210D01*
X143726800Y-66143730D01*
X143726800Y-65936270D01*
X143767274Y-65732790D01*
X143846666Y-65541121D01*
X143961925Y-65368624D01*
X144108624Y-65221925D01*
X144281121Y-65106666D01*
X144472790Y-65027274D01*
X144642536Y-64993510D01*
X144676269Y-64986800D01*
X144883731Y-64986800D01*
X144917464Y-64993510D01*
G37*
G36*
X155077464Y-64993510D02*
G01*
X155247210Y-65027274D01*
X155438879Y-65106666D01*
X155611376Y-65221925D01*
X155758075Y-65368624D01*
X155873334Y-65541121D01*
X155952726Y-65732790D01*
X155993200Y-65936270D01*
X155993200Y-66143730D01*
X155952726Y-66347210D01*
X155873334Y-66538879D01*
X155758075Y-66711376D01*
X155611376Y-66858075D01*
X155438879Y-66973334D01*
X155247210Y-67052726D01*
X155094600Y-67083082D01*
X155043731Y-67093200D01*
X154836269Y-67093200D01*
X154785400Y-67083082D01*
X154632790Y-67052726D01*
X154441121Y-66973334D01*
X154268624Y-66858075D01*
X154121925Y-66711376D01*
X154006666Y-66538879D01*
X153927274Y-66347210D01*
X153886800Y-66143730D01*
X153886800Y-65936270D01*
X153927274Y-65732790D01*
X154006666Y-65541121D01*
X154121925Y-65368624D01*
X154268624Y-65221925D01*
X154441121Y-65106666D01*
X154632790Y-65027274D01*
X154802536Y-64993510D01*
X154836269Y-64986800D01*
X155043731Y-64986800D01*
X155077464Y-64993510D01*
G37*
G36*
X106817464Y-64993510D02*
G01*
X106987210Y-65027274D01*
X107178879Y-65106666D01*
X107351376Y-65221925D01*
X107498075Y-65368624D01*
X107613334Y-65541121D01*
X107692726Y-65732790D01*
X107733200Y-65936270D01*
X107733200Y-66143730D01*
X107692726Y-66347210D01*
X107613334Y-66538879D01*
X107498075Y-66711376D01*
X107351376Y-66858075D01*
X107178879Y-66973334D01*
X106987210Y-67052726D01*
X106834600Y-67083082D01*
X106783731Y-67093200D01*
X106576269Y-67093200D01*
X106525400Y-67083082D01*
X106372790Y-67052726D01*
X106181121Y-66973334D01*
X106008624Y-66858075D01*
X105861925Y-66711376D01*
X105746666Y-66538879D01*
X105667274Y-66347210D01*
X105626800Y-66143730D01*
X105626800Y-65936270D01*
X105667274Y-65732790D01*
X105746666Y-65541121D01*
X105861925Y-65368624D01*
X106008624Y-65221925D01*
X106181121Y-65106666D01*
X106372790Y-65027274D01*
X106542536Y-64993510D01*
X106576269Y-64986800D01*
X106783731Y-64986800D01*
X106817464Y-64993510D01*
G37*
G36*
X116977464Y-64993510D02*
G01*
X117147210Y-65027274D01*
X117338879Y-65106666D01*
X117511376Y-65221925D01*
X117658075Y-65368624D01*
X117773334Y-65541121D01*
X117852726Y-65732790D01*
X117893200Y-65936270D01*
X117893200Y-66143730D01*
X117852726Y-66347210D01*
X117773334Y-66538879D01*
X117658075Y-66711376D01*
X117511376Y-66858075D01*
X117338879Y-66973334D01*
X117147210Y-67052726D01*
X116994600Y-67083082D01*
X116943731Y-67093200D01*
X116736269Y-67093200D01*
X116685400Y-67083082D01*
X116532790Y-67052726D01*
X116341121Y-66973334D01*
X116168624Y-66858075D01*
X116021925Y-66711376D01*
X115906666Y-66538879D01*
X115827274Y-66347210D01*
X115786800Y-66143730D01*
X115786800Y-65936270D01*
X115827274Y-65732790D01*
X115906666Y-65541121D01*
X116021925Y-65368624D01*
X116168624Y-65221925D01*
X116341121Y-65106666D01*
X116532790Y-65027274D01*
X116702536Y-64993510D01*
X116736269Y-64986800D01*
X116943731Y-64986800D01*
X116977464Y-64993510D01*
G37*
G36*
X125867464Y-64993510D02*
G01*
X126037210Y-65027274D01*
X126228879Y-65106666D01*
X126401376Y-65221925D01*
X126548075Y-65368624D01*
X126663334Y-65541121D01*
X126742726Y-65732790D01*
X126783200Y-65936270D01*
X126783200Y-66143730D01*
X126742726Y-66347210D01*
X126663334Y-66538879D01*
X126548075Y-66711376D01*
X126401376Y-66858075D01*
X126228879Y-66973334D01*
X126037210Y-67052726D01*
X125884600Y-67083082D01*
X125833731Y-67093200D01*
X125626269Y-67093200D01*
X125575400Y-67083082D01*
X125422790Y-67052726D01*
X125231121Y-66973334D01*
X125058624Y-66858075D01*
X124911925Y-66711376D01*
X124796666Y-66538879D01*
X124717274Y-66347210D01*
X124676800Y-66143730D01*
X124676800Y-65936270D01*
X124717274Y-65732790D01*
X124796666Y-65541121D01*
X124911925Y-65368624D01*
X125058624Y-65221925D01*
X125231121Y-65106666D01*
X125422790Y-65027274D01*
X125592536Y-64993510D01*
X125626269Y-64986800D01*
X125833731Y-64986800D01*
X125867464Y-64993510D01*
G37*
G36*
X103409021Y-63831443D02*
G01*
X103464183Y-63848175D01*
X103515018Y-63875347D01*
X103559581Y-63911919D01*
X103596153Y-63956482D01*
X103623325Y-64007317D01*
X103640057Y-64062479D01*
X103646200Y-64124844D01*
X103646200Y-64907156D01*
X103640057Y-64969521D01*
X103623325Y-65024683D01*
X103596153Y-65075518D01*
X103559581Y-65120081D01*
X103515018Y-65156653D01*
X103464183Y-65183825D01*
X103409021Y-65200557D01*
X103346656Y-65206700D01*
X102139344Y-65206700D01*
X102076979Y-65200557D01*
X102021817Y-65183825D01*
X101970982Y-65156653D01*
X101926419Y-65120081D01*
X101889847Y-65075518D01*
X101862675Y-65024683D01*
X101845943Y-64969521D01*
X101839800Y-64907156D01*
X101839800Y-64124844D01*
X101845943Y-64062479D01*
X101862675Y-64007317D01*
X101889847Y-63956482D01*
X101926419Y-63911919D01*
X101970982Y-63875347D01*
X102021817Y-63848175D01*
X102076979Y-63831443D01*
X102139344Y-63825300D01*
X103346656Y-63825300D01*
X103409021Y-63831443D01*
G37*
G36*
X127380130Y-62246881D02*
G01*
X127380133Y-62246882D01*
X127380132Y-62246882D01*
X127617296Y-62345118D01*
X127656330Y-62371200D01*
X127830742Y-62487738D01*
X128012262Y-62669258D01*
X128126435Y-62840131D01*
X128154882Y-62882704D01*
X128197813Y-62986350D01*
X128253119Y-63119870D01*
X128303200Y-63371646D01*
X128303200Y-63628354D01*
X128253119Y-63880130D01*
X128235996Y-63921468D01*
X128154882Y-64117296D01*
X128126435Y-64159869D01*
X128012262Y-64330742D01*
X127830742Y-64512262D01*
X127659869Y-64626435D01*
X127617296Y-64654882D01*
X127433859Y-64730864D01*
X127380130Y-64753119D01*
X127128354Y-64803200D01*
X126871646Y-64803200D01*
X126619870Y-64753119D01*
X126566141Y-64730864D01*
X126382704Y-64654882D01*
X126340131Y-64626435D01*
X126169258Y-64512262D01*
X125987738Y-64330742D01*
X125873565Y-64159869D01*
X125845118Y-64117296D01*
X125764004Y-63921468D01*
X125746881Y-63880130D01*
X125696800Y-63628354D01*
X125696800Y-63371646D01*
X125746881Y-63119870D01*
X125802187Y-62986350D01*
X125845118Y-62882704D01*
X125873565Y-62840131D01*
X125987738Y-62669258D01*
X126169258Y-62487738D01*
X126343670Y-62371200D01*
X126382704Y-62345118D01*
X126619868Y-62246882D01*
X126619867Y-62246882D01*
X126619870Y-62246881D01*
X126871646Y-62196800D01*
X127128354Y-62196800D01*
X127380130Y-62246881D01*
G37*
G36*
X108330130Y-62246881D02*
G01*
X108330133Y-62246882D01*
X108330132Y-62246882D01*
X108567296Y-62345118D01*
X108606330Y-62371200D01*
X108780742Y-62487738D01*
X108962262Y-62669258D01*
X109076435Y-62840131D01*
X109104882Y-62882704D01*
X109147813Y-62986350D01*
X109203119Y-63119870D01*
X109253200Y-63371646D01*
X109253200Y-63628354D01*
X109203119Y-63880130D01*
X109185996Y-63921468D01*
X109104882Y-64117296D01*
X109076435Y-64159869D01*
X108962262Y-64330742D01*
X108780742Y-64512262D01*
X108609869Y-64626435D01*
X108567296Y-64654882D01*
X108383859Y-64730864D01*
X108330130Y-64753119D01*
X108078354Y-64803200D01*
X107821646Y-64803200D01*
X107569870Y-64753119D01*
X107516141Y-64730864D01*
X107332704Y-64654882D01*
X107290131Y-64626435D01*
X107119258Y-64512262D01*
X106937738Y-64330742D01*
X106823565Y-64159869D01*
X106795118Y-64117296D01*
X106714004Y-63921468D01*
X106696881Y-63880130D01*
X106646800Y-63628354D01*
X106646800Y-63371646D01*
X106696881Y-63119870D01*
X106752187Y-62986350D01*
X106795118Y-62882704D01*
X106823565Y-62840131D01*
X106937738Y-62669258D01*
X107119258Y-62487738D01*
X107293670Y-62371200D01*
X107332704Y-62345118D01*
X107569868Y-62246882D01*
X107569867Y-62246882D01*
X107569870Y-62246881D01*
X107821646Y-62196800D01*
X108078354Y-62196800D01*
X108330130Y-62246881D01*
G37*
G36*
X146430130Y-62246881D02*
G01*
X146430133Y-62246882D01*
X146430132Y-62246882D01*
X146667296Y-62345118D01*
X146706330Y-62371200D01*
X146880742Y-62487738D01*
X147062262Y-62669258D01*
X147176435Y-62840131D01*
X147204882Y-62882704D01*
X147247813Y-62986350D01*
X147303119Y-63119870D01*
X147353200Y-63371646D01*
X147353200Y-63628354D01*
X147303119Y-63880130D01*
X147285996Y-63921468D01*
X147204882Y-64117296D01*
X147176435Y-64159869D01*
X147062262Y-64330742D01*
X146880742Y-64512262D01*
X146709869Y-64626435D01*
X146667296Y-64654882D01*
X146483859Y-64730864D01*
X146430130Y-64753119D01*
X146178354Y-64803200D01*
X145921646Y-64803200D01*
X145669870Y-64753119D01*
X145616141Y-64730864D01*
X145432704Y-64654882D01*
X145390131Y-64626435D01*
X145219258Y-64512262D01*
X145037738Y-64330742D01*
X144923565Y-64159869D01*
X144895118Y-64117296D01*
X144814004Y-63921468D01*
X144796881Y-63880130D01*
X144746800Y-63628354D01*
X144746800Y-63371646D01*
X144796881Y-63119870D01*
X144852187Y-62986350D01*
X144895118Y-62882704D01*
X144923565Y-62840131D01*
X145037738Y-62669258D01*
X145219258Y-62487738D01*
X145393670Y-62371200D01*
X145432704Y-62345118D01*
X145669868Y-62246882D01*
X145669867Y-62246882D01*
X145669870Y-62246881D01*
X145921646Y-62196800D01*
X146178354Y-62196800D01*
X146430130Y-62246881D01*
G37*
G36*
X103409021Y-61956443D02*
G01*
X103464183Y-61973175D01*
X103515018Y-62000347D01*
X103559581Y-62036919D01*
X103596153Y-62081482D01*
X103623325Y-62132317D01*
X103640057Y-62187479D01*
X103646200Y-62249844D01*
X103646200Y-63032156D01*
X103640057Y-63094521D01*
X103623325Y-63149683D01*
X103596153Y-63200518D01*
X103559581Y-63245081D01*
X103515018Y-63281653D01*
X103464183Y-63308825D01*
X103409021Y-63325557D01*
X103346656Y-63331700D01*
X102139344Y-63331700D01*
X102076979Y-63325557D01*
X102021817Y-63308825D01*
X101970982Y-63281653D01*
X101926419Y-63245081D01*
X101889847Y-63200518D01*
X101862675Y-63149683D01*
X101845943Y-63094521D01*
X101839800Y-63032156D01*
X101839800Y-62249844D01*
X101845943Y-62187479D01*
X101862675Y-62132317D01*
X101889847Y-62081482D01*
X101926419Y-62036919D01*
X101970982Y-62000347D01*
X102021817Y-61973175D01*
X102076979Y-61956443D01*
X102139344Y-61950300D01*
X103346656Y-61950300D01*
X103409021Y-61956443D01*
G37*
G36*
X167794600Y-60551918D02*
G01*
X167947210Y-60582274D01*
X168138879Y-60661666D01*
X168311376Y-60776925D01*
X168458075Y-60923624D01*
X168573334Y-61096121D01*
X168652726Y-61287790D01*
X168693200Y-61491270D01*
X168693200Y-61698730D01*
X168652726Y-61902210D01*
X168573334Y-62093879D01*
X168458075Y-62266376D01*
X168311376Y-62413075D01*
X168138879Y-62528334D01*
X167947210Y-62607726D01*
X167794600Y-62638081D01*
X167743731Y-62648200D01*
X167536269Y-62648200D01*
X167485400Y-62638081D01*
X167332790Y-62607726D01*
X167141121Y-62528334D01*
X166968624Y-62413075D01*
X166821925Y-62266376D01*
X166706666Y-62093879D01*
X166627274Y-61902210D01*
X166586800Y-61698730D01*
X166586800Y-61491270D01*
X166627274Y-61287790D01*
X166706666Y-61096121D01*
X166821925Y-60923624D01*
X166968624Y-60776925D01*
X167141121Y-60661666D01*
X167332790Y-60582274D01*
X167485400Y-60551918D01*
X167536269Y-60541800D01*
X167743731Y-60541800D01*
X167794600Y-60551918D01*
G37*
G36*
X97306021Y-60570943D02*
G01*
X97361183Y-60587675D01*
X97412018Y-60614847D01*
X97456581Y-60651419D01*
X97493153Y-60695982D01*
X97520325Y-60746817D01*
X97537057Y-60801979D01*
X97543200Y-60864344D01*
X97543200Y-62071656D01*
X97537057Y-62134021D01*
X97520325Y-62189183D01*
X97493153Y-62240018D01*
X97456581Y-62284581D01*
X97412018Y-62321153D01*
X97361183Y-62348325D01*
X97306021Y-62365057D01*
X97243656Y-62371200D01*
X96461344Y-62371200D01*
X96398979Y-62365057D01*
X96343817Y-62348325D01*
X96292982Y-62321153D01*
X96248419Y-62284581D01*
X96211847Y-62240018D01*
X96184675Y-62189183D01*
X96167943Y-62134021D01*
X96161800Y-62071656D01*
X96161800Y-60864344D01*
X96167943Y-60801979D01*
X96184675Y-60746817D01*
X96211847Y-60695982D01*
X96248419Y-60651419D01*
X96292982Y-60614847D01*
X96343817Y-60587675D01*
X96398979Y-60570943D01*
X96461344Y-60564800D01*
X97243656Y-60564800D01*
X97306021Y-60570943D01*
G37*
G36*
X99181021Y-60570943D02*
G01*
X99236183Y-60587675D01*
X99287018Y-60614847D01*
X99331581Y-60651419D01*
X99368153Y-60695982D01*
X99395325Y-60746817D01*
X99412057Y-60801979D01*
X99418200Y-60864344D01*
X99418200Y-62071656D01*
X99412057Y-62134021D01*
X99395325Y-62189183D01*
X99368153Y-62240018D01*
X99331581Y-62284581D01*
X99287018Y-62321153D01*
X99236183Y-62348325D01*
X99181021Y-62365057D01*
X99118656Y-62371200D01*
X98336344Y-62371200D01*
X98273979Y-62365057D01*
X98218817Y-62348325D01*
X98167982Y-62321153D01*
X98123419Y-62284581D01*
X98086847Y-62240018D01*
X98059675Y-62189183D01*
X98042943Y-62134021D01*
X98036800Y-62071656D01*
X98036800Y-60864344D01*
X98042943Y-60801979D01*
X98059675Y-60746817D01*
X98086847Y-60695982D01*
X98123419Y-60651419D01*
X98167982Y-60614847D01*
X98218817Y-60587675D01*
X98273979Y-60570943D01*
X98336344Y-60564800D01*
X99118656Y-60564800D01*
X99181021Y-60570943D01*
G37*
G36*
X152780130Y-59706881D02*
G01*
X152780133Y-59706882D01*
X152780132Y-59706882D01*
X153017296Y-59805118D01*
X153017297Y-59805119D01*
X153230742Y-59947738D01*
X153412262Y-60129258D01*
X153526435Y-60300131D01*
X153554882Y-60342704D01*
X153630864Y-60526141D01*
X153653119Y-60579870D01*
X153703200Y-60831646D01*
X153703200Y-61088354D01*
X153653119Y-61340130D01*
X153653118Y-61340132D01*
X153554882Y-61577296D01*
X153554881Y-61577297D01*
X153412262Y-61790742D01*
X153230742Y-61972262D01*
X153081988Y-62071656D01*
X153017296Y-62114882D01*
X152833859Y-62190864D01*
X152780130Y-62213119D01*
X152528354Y-62263200D01*
X152271646Y-62263200D01*
X152019870Y-62213119D01*
X151966141Y-62190864D01*
X151782704Y-62114882D01*
X151718012Y-62071656D01*
X151569258Y-61972262D01*
X151387738Y-61790742D01*
X151245119Y-61577297D01*
X151245118Y-61577296D01*
X151146882Y-61340132D01*
X151146881Y-61340130D01*
X151096800Y-61088354D01*
X151096800Y-60831646D01*
X151146881Y-60579870D01*
X151169136Y-60526141D01*
X151245118Y-60342704D01*
X151273565Y-60300131D01*
X151387738Y-60129258D01*
X151569258Y-59947738D01*
X151782703Y-59805119D01*
X151782704Y-59805118D01*
X152019868Y-59706882D01*
X152019867Y-59706882D01*
X152019870Y-59706881D01*
X152271646Y-59656800D01*
X152528354Y-59656800D01*
X152780130Y-59706881D01*
G37*
G36*
X133730130Y-59706881D02*
G01*
X133730133Y-59706882D01*
X133730132Y-59706882D01*
X133967296Y-59805118D01*
X133967297Y-59805119D01*
X134180742Y-59947738D01*
X134362262Y-60129258D01*
X134476435Y-60300131D01*
X134504882Y-60342704D01*
X134580864Y-60526141D01*
X134603119Y-60579870D01*
X134653200Y-60831646D01*
X134653200Y-61088354D01*
X134603119Y-61340130D01*
X134603118Y-61340132D01*
X134504882Y-61577296D01*
X134504881Y-61577297D01*
X134362262Y-61790742D01*
X134180742Y-61972262D01*
X134031988Y-62071656D01*
X133967296Y-62114882D01*
X133783859Y-62190864D01*
X133730130Y-62213119D01*
X133478354Y-62263200D01*
X133221646Y-62263200D01*
X132969870Y-62213119D01*
X132916141Y-62190864D01*
X132732704Y-62114882D01*
X132668012Y-62071656D01*
X132519258Y-61972262D01*
X132337738Y-61790742D01*
X132195119Y-61577297D01*
X132195118Y-61577296D01*
X132096882Y-61340132D01*
X132096881Y-61340130D01*
X132046800Y-61088354D01*
X132046800Y-60831646D01*
X132096881Y-60579870D01*
X132119136Y-60526141D01*
X132195118Y-60342704D01*
X132223565Y-60300131D01*
X132337738Y-60129258D01*
X132519258Y-59947738D01*
X132732703Y-59805119D01*
X132732704Y-59805118D01*
X132969868Y-59706882D01*
X132969867Y-59706882D01*
X132969870Y-59706881D01*
X133221646Y-59656800D01*
X133478354Y-59656800D01*
X133730130Y-59706881D01*
G37*
G36*
X114680130Y-59706881D02*
G01*
X114680133Y-59706882D01*
X114680132Y-59706882D01*
X114917296Y-59805118D01*
X114917297Y-59805119D01*
X115130742Y-59947738D01*
X115312262Y-60129258D01*
X115426435Y-60300131D01*
X115454882Y-60342704D01*
X115530864Y-60526141D01*
X115553119Y-60579870D01*
X115603200Y-60831646D01*
X115603200Y-61088354D01*
X115553119Y-61340130D01*
X115553118Y-61340132D01*
X115454882Y-61577296D01*
X115454881Y-61577297D01*
X115312262Y-61790742D01*
X115130742Y-61972262D01*
X114981988Y-62071656D01*
X114917296Y-62114882D01*
X114733859Y-62190864D01*
X114680130Y-62213119D01*
X114428354Y-62263200D01*
X114171646Y-62263200D01*
X113919870Y-62213119D01*
X113866141Y-62190864D01*
X113682704Y-62114882D01*
X113618012Y-62071656D01*
X113469258Y-61972262D01*
X113287738Y-61790742D01*
X113145119Y-61577297D01*
X113145118Y-61577296D01*
X113046882Y-61340132D01*
X113046881Y-61340130D01*
X112996800Y-61088354D01*
X112996800Y-60831646D01*
X113046881Y-60579870D01*
X113069136Y-60526141D01*
X113145118Y-60342704D01*
X113173565Y-60300131D01*
X113287738Y-60129258D01*
X113469258Y-59947738D01*
X113682703Y-59805119D01*
X113682704Y-59805118D01*
X113919868Y-59706882D01*
X113919867Y-59706882D01*
X113919870Y-59706881D01*
X114171646Y-59656800D01*
X114428354Y-59656800D01*
X114680130Y-59706881D01*
G37*
G36*
X167794600Y-58011919D02*
G01*
X167947210Y-58042274D01*
X168138879Y-58121666D01*
X168311376Y-58236925D01*
X168458075Y-58383624D01*
X168573334Y-58556121D01*
X168652726Y-58747790D01*
X168693200Y-58951270D01*
X168693200Y-59158730D01*
X168652726Y-59362210D01*
X168573334Y-59553879D01*
X168458075Y-59726376D01*
X168311376Y-59873075D01*
X168138879Y-59988334D01*
X167947210Y-60067726D01*
X167794600Y-60098081D01*
X167743731Y-60108200D01*
X167536269Y-60108200D01*
X167485400Y-60098081D01*
X167332790Y-60067726D01*
X167141121Y-59988334D01*
X166968624Y-59873075D01*
X166821925Y-59726376D01*
X166706666Y-59553879D01*
X166627274Y-59362210D01*
X166586800Y-59158730D01*
X166586800Y-58951270D01*
X166627274Y-58747790D01*
X166706666Y-58556121D01*
X166821925Y-58383624D01*
X166968624Y-58236925D01*
X167141121Y-58121666D01*
X167332790Y-58042274D01*
X167485400Y-58011919D01*
X167536269Y-58001800D01*
X167743731Y-58001800D01*
X167794600Y-58011919D01*
G37*
G36*
X95606521Y-57903943D02*
G01*
X95661683Y-57920675D01*
X95712518Y-57947847D01*
X95757081Y-57984419D01*
X95793653Y-58028982D01*
X95820825Y-58079817D01*
X95837557Y-58134979D01*
X95843700Y-58197344D01*
X95843700Y-59404656D01*
X95837557Y-59467021D01*
X95820825Y-59522183D01*
X95793653Y-59573018D01*
X95757081Y-59617581D01*
X95712518Y-59654153D01*
X95661683Y-59681325D01*
X95606521Y-59698057D01*
X95544156Y-59704200D01*
X94761844Y-59704200D01*
X94699479Y-59698057D01*
X94644317Y-59681325D01*
X94593482Y-59654153D01*
X94548919Y-59617581D01*
X94512347Y-59573018D01*
X94485175Y-59522183D01*
X94468443Y-59467021D01*
X94462300Y-59404656D01*
X94462300Y-58197344D01*
X94468443Y-58134979D01*
X94485175Y-58079817D01*
X94512347Y-58028982D01*
X94548919Y-57984419D01*
X94593482Y-57947847D01*
X94644317Y-57920675D01*
X94699479Y-57903943D01*
X94761844Y-57897800D01*
X95544156Y-57897800D01*
X95606521Y-57903943D01*
G37*
G36*
X97481521Y-57903943D02*
G01*
X97536683Y-57920675D01*
X97587518Y-57947847D01*
X97632081Y-57984419D01*
X97668653Y-58028982D01*
X97695825Y-58079817D01*
X97712557Y-58134979D01*
X97718700Y-58197344D01*
X97718700Y-59404656D01*
X97712557Y-59467021D01*
X97695825Y-59522183D01*
X97668653Y-59573018D01*
X97632081Y-59617581D01*
X97587518Y-59654153D01*
X97536683Y-59681325D01*
X97481521Y-59698057D01*
X97419156Y-59704200D01*
X96636844Y-59704200D01*
X96574479Y-59698057D01*
X96519317Y-59681325D01*
X96468482Y-59654153D01*
X96423919Y-59617581D01*
X96387347Y-59573018D01*
X96360175Y-59522183D01*
X96343443Y-59467021D01*
X96337300Y-59404656D01*
X96337300Y-58197344D01*
X96343443Y-58134979D01*
X96360175Y-58079817D01*
X96387347Y-58028982D01*
X96423919Y-57984419D01*
X96468482Y-57947847D01*
X96519317Y-57920675D01*
X96574479Y-57903943D01*
X96636844Y-57897800D01*
X97419156Y-57897800D01*
X97481521Y-57903943D01*
G37*
G36*
X168693200Y-57568200D02*
G01*
X166586800Y-57568200D01*
X166586800Y-55461800D01*
X168693200Y-55461800D01*
X168693200Y-57568200D01*
G37*
G36*
X137318021Y-54608943D02*
G01*
X137373183Y-54625675D01*
X137424018Y-54652847D01*
X137468581Y-54689419D01*
X137505153Y-54733982D01*
X137532325Y-54784817D01*
X137549057Y-54839979D01*
X137555200Y-54902344D01*
X137555200Y-55684656D01*
X137549057Y-55747021D01*
X137532325Y-55802183D01*
X137505153Y-55853018D01*
X137468581Y-55897581D01*
X137424018Y-55934153D01*
X137373183Y-55961325D01*
X137318021Y-55978057D01*
X137255656Y-55984200D01*
X136048344Y-55984200D01*
X135985979Y-55978057D01*
X135930817Y-55961325D01*
X135879982Y-55934153D01*
X135835419Y-55897581D01*
X135798847Y-55853018D01*
X135771675Y-55802183D01*
X135754943Y-55747021D01*
X135748800Y-55684656D01*
X135748800Y-54902344D01*
X135754943Y-54839979D01*
X135771675Y-54784817D01*
X135798847Y-54733982D01*
X135835419Y-54689419D01*
X135879982Y-54652847D01*
X135930817Y-54625675D01*
X135985979Y-54608943D01*
X136048344Y-54602800D01*
X137255656Y-54602800D01*
X137318021Y-54608943D01*
G37*
G36*
X139350021Y-54608943D02*
G01*
X139405183Y-54625675D01*
X139456018Y-54652847D01*
X139500581Y-54689419D01*
X139537153Y-54733982D01*
X139564325Y-54784817D01*
X139581057Y-54839979D01*
X139587200Y-54902344D01*
X139587200Y-55684656D01*
X139581057Y-55747021D01*
X139564325Y-55802183D01*
X139537153Y-55853018D01*
X139500581Y-55897581D01*
X139456018Y-55934153D01*
X139405183Y-55961325D01*
X139350021Y-55978057D01*
X139287656Y-55984200D01*
X138080344Y-55984200D01*
X138017979Y-55978057D01*
X137962817Y-55961325D01*
X137911982Y-55934153D01*
X137867419Y-55897581D01*
X137830847Y-55853018D01*
X137803675Y-55802183D01*
X137786943Y-55747021D01*
X137780800Y-55684656D01*
X137780800Y-54902344D01*
X137786943Y-54839979D01*
X137803675Y-54784817D01*
X137830847Y-54733982D01*
X137867419Y-54689419D01*
X137911982Y-54652847D01*
X137962817Y-54625675D01*
X138017979Y-54608943D01*
X138080344Y-54602800D01*
X139287656Y-54602800D01*
X139350021Y-54608943D01*
G37*
G36*
X137318021Y-52733943D02*
G01*
X137373183Y-52750675D01*
X137424018Y-52777847D01*
X137468581Y-52814419D01*
X137505153Y-52858982D01*
X137532325Y-52909817D01*
X137549057Y-52964979D01*
X137555200Y-53027344D01*
X137555200Y-53809656D01*
X137549057Y-53872021D01*
X137532325Y-53927183D01*
X137505153Y-53978018D01*
X137468581Y-54022581D01*
X137424018Y-54059153D01*
X137373183Y-54086325D01*
X137318021Y-54103057D01*
X137255656Y-54109200D01*
X136048344Y-54109200D01*
X135985979Y-54103057D01*
X135930817Y-54086325D01*
X135879982Y-54059153D01*
X135835419Y-54022581D01*
X135798847Y-53978018D01*
X135771675Y-53927183D01*
X135754943Y-53872021D01*
X135748800Y-53809656D01*
X135748800Y-53027344D01*
X135754943Y-52964979D01*
X135771675Y-52909817D01*
X135798847Y-52858982D01*
X135835419Y-52814419D01*
X135879982Y-52777847D01*
X135930817Y-52750675D01*
X135985979Y-52733943D01*
X136048344Y-52727800D01*
X137255656Y-52727800D01*
X137318021Y-52733943D01*
G37*
G36*
X139350021Y-52733943D02*
G01*
X139405183Y-52750675D01*
X139456018Y-52777847D01*
X139500581Y-52814419D01*
X139537153Y-52858982D01*
X139564325Y-52909817D01*
X139581057Y-52964979D01*
X139587200Y-53027344D01*
X139587200Y-53809656D01*
X139581057Y-53872021D01*
X139564325Y-53927183D01*
X139537153Y-53978018D01*
X139500581Y-54022581D01*
X139456018Y-54059153D01*
X139405183Y-54086325D01*
X139350021Y-54103057D01*
X139287656Y-54109200D01*
X138080344Y-54109200D01*
X138017979Y-54103057D01*
X137962817Y-54086325D01*
X137911982Y-54059153D01*
X137867419Y-54022581D01*
X137830847Y-53978018D01*
X137803675Y-53927183D01*
X137786943Y-53872021D01*
X137780800Y-53809656D01*
X137780800Y-53027344D01*
X137786943Y-52964979D01*
X137803675Y-52909817D01*
X137830847Y-52858982D01*
X137867419Y-52814419D01*
X137911982Y-52777847D01*
X137962817Y-52750675D01*
X138017979Y-52733943D01*
X138080344Y-52727800D01*
X139287656Y-52727800D01*
X139350021Y-52733943D01*
G37*
G36*
X104533921Y-50998958D02*
G01*
X104672041Y-51026431D01*
X104845509Y-51098284D01*
X105001631Y-51202602D01*
X105134398Y-51335369D01*
X105238716Y-51491491D01*
X105310569Y-51664959D01*
X105347200Y-51849119D01*
X105347200Y-52036881D01*
X105310569Y-52221041D01*
X105238716Y-52394509D01*
X105134398Y-52550631D01*
X105001631Y-52683398D01*
X104845509Y-52787716D01*
X104672041Y-52859569D01*
X104562870Y-52881284D01*
X104487882Y-52896200D01*
X104300118Y-52896200D01*
X104225130Y-52881284D01*
X104115959Y-52859569D01*
X103942491Y-52787716D01*
X103786369Y-52683398D01*
X103653602Y-52550631D01*
X103549284Y-52394509D01*
X103477431Y-52221041D01*
X103440800Y-52036881D01*
X103440800Y-51849119D01*
X103477431Y-51664959D01*
X103549284Y-51491491D01*
X103653602Y-51335369D01*
X103786369Y-51202602D01*
X103942491Y-51098284D01*
X104115959Y-51026431D01*
X104254079Y-50998958D01*
X104300118Y-50989800D01*
X104487882Y-50989800D01*
X104533921Y-50998958D01*
G37*
G36*
X107073921Y-50998958D02*
G01*
X107212041Y-51026431D01*
X107385509Y-51098284D01*
X107541631Y-51202602D01*
X107674398Y-51335369D01*
X107778716Y-51491491D01*
X107850569Y-51664959D01*
X107887200Y-51849119D01*
X107887200Y-52036881D01*
X107850569Y-52221041D01*
X107778716Y-52394509D01*
X107674398Y-52550631D01*
X107541631Y-52683398D01*
X107385509Y-52787716D01*
X107212041Y-52859569D01*
X107102870Y-52881284D01*
X107027882Y-52896200D01*
X106840118Y-52896200D01*
X106765130Y-52881284D01*
X106655959Y-52859569D01*
X106482491Y-52787716D01*
X106326369Y-52683398D01*
X106193602Y-52550631D01*
X106089284Y-52394509D01*
X106017431Y-52221041D01*
X105980800Y-52036881D01*
X105980800Y-51849119D01*
X106017431Y-51664959D01*
X106089284Y-51491491D01*
X106193602Y-51335369D01*
X106326369Y-51202602D01*
X106482491Y-51098284D01*
X106655959Y-51026431D01*
X106794079Y-50998958D01*
X106840118Y-50989800D01*
X107027882Y-50989800D01*
X107073921Y-50998958D01*
G37*
G36*
X109613921Y-50998958D02*
G01*
X109752041Y-51026431D01*
X109925509Y-51098284D01*
X110081631Y-51202602D01*
X110214398Y-51335369D01*
X110318716Y-51491491D01*
X110390569Y-51664959D01*
X110427200Y-51849119D01*
X110427200Y-52036881D01*
X110390569Y-52221041D01*
X110318716Y-52394509D01*
X110214398Y-52550631D01*
X110081631Y-52683398D01*
X109925509Y-52787716D01*
X109752041Y-52859569D01*
X109642870Y-52881284D01*
X109567882Y-52896200D01*
X109380118Y-52896200D01*
X109305130Y-52881284D01*
X109195959Y-52859569D01*
X109022491Y-52787716D01*
X108866369Y-52683398D01*
X108733602Y-52550631D01*
X108629284Y-52394509D01*
X108557431Y-52221041D01*
X108520800Y-52036881D01*
X108520800Y-51849119D01*
X108557431Y-51664959D01*
X108629284Y-51491491D01*
X108733602Y-51335369D01*
X108866369Y-51202602D01*
X109022491Y-51098284D01*
X109195959Y-51026431D01*
X109334079Y-50998958D01*
X109380118Y-50989800D01*
X109567882Y-50989800D01*
X109613921Y-50998958D01*
G37*
G36*
X112153921Y-50998958D02*
G01*
X112292041Y-51026431D01*
X112465509Y-51098284D01*
X112621631Y-51202602D01*
X112754398Y-51335369D01*
X112858716Y-51491491D01*
X112930569Y-51664959D01*
X112967200Y-51849119D01*
X112967200Y-52036881D01*
X112930569Y-52221041D01*
X112858716Y-52394509D01*
X112754398Y-52550631D01*
X112621631Y-52683398D01*
X112465509Y-52787716D01*
X112292041Y-52859569D01*
X112182870Y-52881284D01*
X112107882Y-52896200D01*
X111920118Y-52896200D01*
X111845130Y-52881284D01*
X111735959Y-52859569D01*
X111562491Y-52787716D01*
X111406369Y-52683398D01*
X111273602Y-52550631D01*
X111169284Y-52394509D01*
X111097431Y-52221041D01*
X111060800Y-52036881D01*
X111060800Y-51849119D01*
X111097431Y-51664959D01*
X111169284Y-51491491D01*
X111273602Y-51335369D01*
X111406369Y-51202602D01*
X111562491Y-51098284D01*
X111735959Y-51026431D01*
X111874079Y-50998958D01*
X111920118Y-50989800D01*
X112107882Y-50989800D01*
X112153921Y-50998958D01*
G37*
G36*
X114693921Y-50998958D02*
G01*
X114832041Y-51026431D01*
X115005509Y-51098284D01*
X115161631Y-51202602D01*
X115294398Y-51335369D01*
X115398716Y-51491491D01*
X115470569Y-51664959D01*
X115507200Y-51849119D01*
X115507200Y-52036881D01*
X115470569Y-52221041D01*
X115398716Y-52394509D01*
X115294398Y-52550631D01*
X115161631Y-52683398D01*
X115005509Y-52787716D01*
X114832041Y-52859569D01*
X114722870Y-52881284D01*
X114647882Y-52896200D01*
X114460118Y-52896200D01*
X114385130Y-52881284D01*
X114275959Y-52859569D01*
X114102491Y-52787716D01*
X113946369Y-52683398D01*
X113813602Y-52550631D01*
X113709284Y-52394509D01*
X113637431Y-52221041D01*
X113600800Y-52036881D01*
X113600800Y-51849119D01*
X113637431Y-51664959D01*
X113709284Y-51491491D01*
X113813602Y-51335369D01*
X113946369Y-51202602D01*
X114102491Y-51098284D01*
X114275959Y-51026431D01*
X114414079Y-50998958D01*
X114460118Y-50989800D01*
X114647882Y-50989800D01*
X114693921Y-50998958D01*
G37*
G36*
X117233921Y-50998958D02*
G01*
X117372041Y-51026431D01*
X117545509Y-51098284D01*
X117701631Y-51202602D01*
X117834398Y-51335369D01*
X117938716Y-51491491D01*
X118010569Y-51664959D01*
X118047200Y-51849119D01*
X118047200Y-52036881D01*
X118010569Y-52221041D01*
X117938716Y-52394509D01*
X117834398Y-52550631D01*
X117701631Y-52683398D01*
X117545509Y-52787716D01*
X117372041Y-52859569D01*
X117262870Y-52881284D01*
X117187882Y-52896200D01*
X117000118Y-52896200D01*
X116925130Y-52881284D01*
X116815959Y-52859569D01*
X116642491Y-52787716D01*
X116486369Y-52683398D01*
X116353602Y-52550631D01*
X116249284Y-52394509D01*
X116177431Y-52221041D01*
X116140800Y-52036881D01*
X116140800Y-51849119D01*
X116177431Y-51664959D01*
X116249284Y-51491491D01*
X116353602Y-51335369D01*
X116486369Y-51202602D01*
X116642491Y-51098284D01*
X116815959Y-51026431D01*
X116954079Y-50998958D01*
X117000118Y-50989800D01*
X117187882Y-50989800D01*
X117233921Y-50998958D01*
G37*
G36*
X119773921Y-50998958D02*
G01*
X119912041Y-51026431D01*
X120085509Y-51098284D01*
X120241631Y-51202602D01*
X120374398Y-51335369D01*
X120478716Y-51491491D01*
X120550569Y-51664959D01*
X120587200Y-51849119D01*
X120587200Y-52036881D01*
X120550569Y-52221041D01*
X120478716Y-52394509D01*
X120374398Y-52550631D01*
X120241631Y-52683398D01*
X120085509Y-52787716D01*
X119912041Y-52859569D01*
X119802870Y-52881284D01*
X119727882Y-52896200D01*
X119540118Y-52896200D01*
X119465130Y-52881284D01*
X119355959Y-52859569D01*
X119182491Y-52787716D01*
X119026369Y-52683398D01*
X118893602Y-52550631D01*
X118789284Y-52394509D01*
X118717431Y-52221041D01*
X118680800Y-52036881D01*
X118680800Y-51849119D01*
X118717431Y-51664959D01*
X118789284Y-51491491D01*
X118893602Y-51335369D01*
X119026369Y-51202602D01*
X119182491Y-51098284D01*
X119355959Y-51026431D01*
X119494079Y-50998958D01*
X119540118Y-50989800D01*
X119727882Y-50989800D01*
X119773921Y-50998958D01*
G37*
G36*
X142939200Y-52896200D02*
G01*
X141032800Y-52896200D01*
X141032800Y-50989800D01*
X142939200Y-50989800D01*
X142939200Y-52896200D01*
G37*
G36*
X144665921Y-50998958D02*
G01*
X144804041Y-51026431D01*
X144977509Y-51098284D01*
X145133631Y-51202602D01*
X145266398Y-51335369D01*
X145370716Y-51491491D01*
X145442569Y-51664959D01*
X145479200Y-51849119D01*
X145479200Y-52036881D01*
X145442569Y-52221041D01*
X145370716Y-52394509D01*
X145266398Y-52550631D01*
X145133631Y-52683398D01*
X144977509Y-52787716D01*
X144804041Y-52859569D01*
X144694870Y-52881284D01*
X144619882Y-52896200D01*
X144432118Y-52896200D01*
X144357130Y-52881284D01*
X144247959Y-52859569D01*
X144074491Y-52787716D01*
X143918369Y-52683398D01*
X143785602Y-52550631D01*
X143681284Y-52394509D01*
X143609431Y-52221041D01*
X143572800Y-52036881D01*
X143572800Y-51849119D01*
X143609431Y-51664959D01*
X143681284Y-51491491D01*
X143785602Y-51335369D01*
X143918369Y-51202602D01*
X144074491Y-51098284D01*
X144247959Y-51026431D01*
X144386079Y-50998958D01*
X144432118Y-50989800D01*
X144619882Y-50989800D01*
X144665921Y-50998958D01*
G37*
G36*
X147205921Y-50998958D02*
G01*
X147344041Y-51026431D01*
X147517509Y-51098284D01*
X147673631Y-51202602D01*
X147806398Y-51335369D01*
X147910716Y-51491491D01*
X147982569Y-51664959D01*
X148019200Y-51849119D01*
X148019200Y-52036881D01*
X147982569Y-52221041D01*
X147910716Y-52394509D01*
X147806398Y-52550631D01*
X147673631Y-52683398D01*
X147517509Y-52787716D01*
X147344041Y-52859569D01*
X147234870Y-52881284D01*
X147159882Y-52896200D01*
X146972118Y-52896200D01*
X146897130Y-52881284D01*
X146787959Y-52859569D01*
X146614491Y-52787716D01*
X146458369Y-52683398D01*
X146325602Y-52550631D01*
X146221284Y-52394509D01*
X146149431Y-52221041D01*
X146112800Y-52036881D01*
X146112800Y-51849119D01*
X146149431Y-51664959D01*
X146221284Y-51491491D01*
X146325602Y-51335369D01*
X146458369Y-51202602D01*
X146614491Y-51098284D01*
X146787959Y-51026431D01*
X146926079Y-50998958D01*
X146972118Y-50989800D01*
X147159882Y-50989800D01*
X147205921Y-50998958D01*
G37*
G36*
X149745921Y-50998958D02*
G01*
X149884041Y-51026431D01*
X150057509Y-51098284D01*
X150213631Y-51202602D01*
X150346398Y-51335369D01*
X150450716Y-51491491D01*
X150522569Y-51664959D01*
X150559200Y-51849119D01*
X150559200Y-52036881D01*
X150522569Y-52221041D01*
X150450716Y-52394509D01*
X150346398Y-52550631D01*
X150213631Y-52683398D01*
X150057509Y-52787716D01*
X149884041Y-52859569D01*
X149774870Y-52881284D01*
X149699882Y-52896200D01*
X149512118Y-52896200D01*
X149437130Y-52881284D01*
X149327959Y-52859569D01*
X149154491Y-52787716D01*
X148998369Y-52683398D01*
X148865602Y-52550631D01*
X148761284Y-52394509D01*
X148689431Y-52221041D01*
X148652800Y-52036881D01*
X148652800Y-51849119D01*
X148689431Y-51664959D01*
X148761284Y-51491491D01*
X148865602Y-51335369D01*
X148998369Y-51202602D01*
X149154491Y-51098284D01*
X149327959Y-51026431D01*
X149466079Y-50998958D01*
X149512118Y-50989800D01*
X149699882Y-50989800D01*
X149745921Y-50998958D01*
G37*
G36*
X152285921Y-50998958D02*
G01*
X152424041Y-51026431D01*
X152597509Y-51098284D01*
X152753631Y-51202602D01*
X152886398Y-51335369D01*
X152990716Y-51491491D01*
X153062569Y-51664959D01*
X153099200Y-51849119D01*
X153099200Y-52036881D01*
X153062569Y-52221041D01*
X152990716Y-52394509D01*
X152886398Y-52550631D01*
X152753631Y-52683398D01*
X152597509Y-52787716D01*
X152424041Y-52859569D01*
X152314870Y-52881284D01*
X152239882Y-52896200D01*
X152052118Y-52896200D01*
X151977130Y-52881284D01*
X151867959Y-52859569D01*
X151694491Y-52787716D01*
X151538369Y-52683398D01*
X151405602Y-52550631D01*
X151301284Y-52394509D01*
X151229431Y-52221041D01*
X151192800Y-52036881D01*
X151192800Y-51849119D01*
X151229431Y-51664959D01*
X151301284Y-51491491D01*
X151405602Y-51335369D01*
X151538369Y-51202602D01*
X151694491Y-51098284D01*
X151867959Y-51026431D01*
X152006079Y-50998958D01*
X152052118Y-50989800D01*
X152239882Y-50989800D01*
X152285921Y-50998958D01*
G37*
G36*
X157365921Y-50998958D02*
G01*
X157504041Y-51026431D01*
X157677509Y-51098284D01*
X157833631Y-51202602D01*
X157966398Y-51335369D01*
X158070716Y-51491491D01*
X158142569Y-51664959D01*
X158179200Y-51849119D01*
X158179200Y-52036881D01*
X158142569Y-52221041D01*
X158070716Y-52394509D01*
X157966398Y-52550631D01*
X157833631Y-52683398D01*
X157677509Y-52787716D01*
X157504041Y-52859569D01*
X157394870Y-52881284D01*
X157319882Y-52896200D01*
X157132118Y-52896200D01*
X157057130Y-52881284D01*
X156947959Y-52859569D01*
X156774491Y-52787716D01*
X156618369Y-52683398D01*
X156485602Y-52550631D01*
X156381284Y-52394509D01*
X156309431Y-52221041D01*
X156272800Y-52036881D01*
X156272800Y-51849119D01*
X156309431Y-51664959D01*
X156381284Y-51491491D01*
X156485602Y-51335369D01*
X156618369Y-51202602D01*
X156774491Y-51098284D01*
X156947959Y-51026431D01*
X157086079Y-50998958D01*
X157132118Y-50989800D01*
X157319882Y-50989800D01*
X157365921Y-50998958D01*
G37*
G36*
X154825921Y-50998958D02*
G01*
X154964041Y-51026431D01*
X155137509Y-51098284D01*
X155293631Y-51202602D01*
X155426398Y-51335369D01*
X155530716Y-51491491D01*
X155602569Y-51664959D01*
X155639200Y-51849119D01*
X155639200Y-52036881D01*
X155602569Y-52221041D01*
X155530716Y-52394509D01*
X155426398Y-52550631D01*
X155293631Y-52683398D01*
X155137509Y-52787716D01*
X154964041Y-52859569D01*
X154854870Y-52881284D01*
X154779882Y-52896200D01*
X154592118Y-52896200D01*
X154517130Y-52881284D01*
X154407959Y-52859569D01*
X154234491Y-52787716D01*
X154078369Y-52683398D01*
X153945602Y-52550631D01*
X153841284Y-52394509D01*
X153769431Y-52221041D01*
X153732800Y-52036881D01*
X153732800Y-51849119D01*
X153769431Y-51664959D01*
X153841284Y-51491491D01*
X153945602Y-51335369D01*
X154078369Y-51202602D01*
X154234491Y-51098284D01*
X154407959Y-51026431D01*
X154546079Y-50998958D01*
X154592118Y-50989800D01*
X154779882Y-50989800D01*
X154825921Y-50998958D01*
G37*
G36*
X102807200Y-52896200D02*
G01*
X100900800Y-52896200D01*
X100900800Y-50989800D01*
X102807200Y-50989800D01*
X102807200Y-52896200D01*
G37*
G36*
X159905921Y-50998958D02*
G01*
X160044041Y-51026431D01*
X160217509Y-51098284D01*
X160373631Y-51202602D01*
X160506398Y-51335369D01*
X160610716Y-51491491D01*
X160682569Y-51664959D01*
X160719200Y-51849119D01*
X160719200Y-52036881D01*
X160682569Y-52221041D01*
X160610716Y-52394509D01*
X160506398Y-52550631D01*
X160373631Y-52683398D01*
X160217509Y-52787716D01*
X160044041Y-52859569D01*
X159934870Y-52881284D01*
X159859882Y-52896200D01*
X159672118Y-52896200D01*
X159597130Y-52881284D01*
X159487959Y-52859569D01*
X159314491Y-52787716D01*
X159158369Y-52683398D01*
X159025602Y-52550631D01*
X158921284Y-52394509D01*
X158849431Y-52221041D01*
X158812800Y-52036881D01*
X158812800Y-51849119D01*
X158849431Y-51664959D01*
X158921284Y-51491491D01*
X159025602Y-51335369D01*
X159158369Y-51202602D01*
X159314491Y-51098284D01*
X159487959Y-51026431D01*
X159626079Y-50998958D01*
X159672118Y-50989800D01*
X159859882Y-50989800D01*
X159905921Y-50998958D01*
G37*
G36*
X137318021Y-50720443D02*
G01*
X137373183Y-50737175D01*
X137424018Y-50764347D01*
X137468581Y-50800919D01*
X137505153Y-50845482D01*
X137532325Y-50896317D01*
X137549057Y-50951479D01*
X137555200Y-51013844D01*
X137555200Y-51796156D01*
X137549057Y-51858521D01*
X137532325Y-51913683D01*
X137505153Y-51964518D01*
X137468581Y-52009081D01*
X137424018Y-52045653D01*
X137373183Y-52072825D01*
X137318021Y-52089557D01*
X137255656Y-52095700D01*
X136048344Y-52095700D01*
X135985979Y-52089557D01*
X135930817Y-52072825D01*
X135879982Y-52045653D01*
X135835419Y-52009081D01*
X135798847Y-51964518D01*
X135771675Y-51913683D01*
X135754943Y-51858521D01*
X135748800Y-51796156D01*
X135748800Y-51013844D01*
X135754943Y-50951479D01*
X135771675Y-50896317D01*
X135798847Y-50845482D01*
X135835419Y-50800919D01*
X135879982Y-50764347D01*
X135930817Y-50737175D01*
X135985979Y-50720443D01*
X136048344Y-50714300D01*
X137255656Y-50714300D01*
X137318021Y-50720443D01*
G37*
G36*
X134710700Y-50647500D02*
G01*
X126909300Y-50647500D01*
X126909300Y-48641100D01*
X134710700Y-48641100D01*
X134710700Y-50647500D01*
G37*
G36*
X137318021Y-48845443D02*
G01*
X137373183Y-48862175D01*
X137424018Y-48889347D01*
X137468581Y-48925919D01*
X137505153Y-48970482D01*
X137532325Y-49021317D01*
X137549057Y-49076479D01*
X137555200Y-49138844D01*
X137555200Y-49921156D01*
X137549057Y-49983521D01*
X137532325Y-50038683D01*
X137505153Y-50089518D01*
X137468581Y-50134081D01*
X137424018Y-50170653D01*
X137373183Y-50197825D01*
X137318021Y-50214557D01*
X137255656Y-50220700D01*
X136048344Y-50220700D01*
X135985979Y-50214557D01*
X135930817Y-50197825D01*
X135879982Y-50170653D01*
X135835419Y-50134081D01*
X135798847Y-50089518D01*
X135771675Y-50038683D01*
X135754943Y-49983521D01*
X135748800Y-49921156D01*
X135748800Y-49138844D01*
X135754943Y-49076479D01*
X135771675Y-49021317D01*
X135798847Y-48970482D01*
X135835419Y-48925919D01*
X135879982Y-48889347D01*
X135930817Y-48862175D01*
X135985979Y-48845443D01*
X136048344Y-48839300D01*
X137255656Y-48839300D01*
X137318021Y-48845443D01*
G37*
G36*
X134710700Y-45338900D02*
G01*
X126909300Y-45338900D01*
X126909300Y-43332500D01*
X134710700Y-43332500D01*
X134710700Y-45338900D01*
G37*
G36*
X169051200Y-44150200D02*
G01*
X167584800Y-44150200D01*
X167584800Y-41193800D01*
X169051200Y-41193800D01*
X169051200Y-44150200D01*
G37*
G36*
X171251200Y-44150200D02*
G01*
X169784800Y-44150200D01*
X169784800Y-43093800D01*
X171251200Y-43093800D01*
X171251200Y-44150200D01*
G37*
G36*
X163737200Y-43971200D02*
G01*
X162430800Y-43971200D01*
X162430800Y-42764800D01*
X163737200Y-42764800D01*
X163737200Y-43971200D01*
G37*
G36*
X165737200Y-43021200D02*
G01*
X164430800Y-43021200D01*
X164430800Y-41814800D01*
X165737200Y-41814800D01*
X165737200Y-43021200D01*
G37*
G36*
X140213621Y-41474843D02*
G01*
X140268783Y-41491575D01*
X140319618Y-41518747D01*
X140364181Y-41555319D01*
X140400753Y-41599882D01*
X140427925Y-41650717D01*
X140444657Y-41705879D01*
X140450800Y-41768244D01*
X140450800Y-42550556D01*
X140444657Y-42612921D01*
X140427925Y-42668083D01*
X140400753Y-42718918D01*
X140364181Y-42763481D01*
X140319618Y-42800053D01*
X140268783Y-42827225D01*
X140213621Y-42843957D01*
X140151256Y-42850100D01*
X138943944Y-42850100D01*
X138881579Y-42843957D01*
X138826417Y-42827225D01*
X138775582Y-42800053D01*
X138731019Y-42763481D01*
X138694447Y-42718918D01*
X138667275Y-42668083D01*
X138650543Y-42612921D01*
X138644400Y-42550556D01*
X138644400Y-41768244D01*
X138650543Y-41705879D01*
X138667275Y-41650717D01*
X138694447Y-41599882D01*
X138731019Y-41555319D01*
X138775582Y-41518747D01*
X138826417Y-41491575D01*
X138881579Y-41474843D01*
X138943944Y-41468700D01*
X140151256Y-41468700D01*
X140213621Y-41474843D01*
G37*
G36*
X138080021Y-41474843D02*
G01*
X138135183Y-41491575D01*
X138186018Y-41518747D01*
X138230581Y-41555319D01*
X138267153Y-41599882D01*
X138294325Y-41650717D01*
X138311057Y-41705879D01*
X138317200Y-41768244D01*
X138317200Y-42550556D01*
X138311057Y-42612921D01*
X138294325Y-42668083D01*
X138267153Y-42718918D01*
X138230581Y-42763481D01*
X138186018Y-42800053D01*
X138135183Y-42827225D01*
X138080021Y-42843957D01*
X138017656Y-42850100D01*
X136810344Y-42850100D01*
X136747979Y-42843957D01*
X136692817Y-42827225D01*
X136641982Y-42800053D01*
X136597419Y-42763481D01*
X136560847Y-42718918D01*
X136533675Y-42668083D01*
X136516943Y-42612921D01*
X136510800Y-42550556D01*
X136510800Y-41768244D01*
X136516943Y-41705879D01*
X136533675Y-41650717D01*
X136560847Y-41599882D01*
X136597419Y-41555319D01*
X136641982Y-41518747D01*
X136692817Y-41491575D01*
X136747979Y-41474843D01*
X136810344Y-41468700D01*
X138017656Y-41468700D01*
X138080021Y-41474843D01*
G37*
G36*
X149720248Y-40821616D02*
G01*
X149887541Y-40854892D01*
X150063191Y-40927649D01*
X150221282Y-41033282D01*
X150355718Y-41167718D01*
X150461351Y-41325809D01*
X150534108Y-41501459D01*
X150571200Y-41687937D01*
X150571200Y-41878063D01*
X150534108Y-42064541D01*
X150461351Y-42240191D01*
X150355718Y-42398282D01*
X150221282Y-42532718D01*
X150063191Y-42638351D01*
X149887541Y-42711108D01*
X149761392Y-42736200D01*
X149701064Y-42748200D01*
X149510936Y-42748200D01*
X149450608Y-42736200D01*
X149324459Y-42711108D01*
X149148809Y-42638351D01*
X148990718Y-42532718D01*
X148856282Y-42398282D01*
X148750649Y-42240191D01*
X148677892Y-42064541D01*
X148640800Y-41878063D01*
X148640800Y-41687937D01*
X148677892Y-41501459D01*
X148750649Y-41325809D01*
X148856282Y-41167718D01*
X148990718Y-41033282D01*
X149148809Y-40927649D01*
X149324459Y-40854892D01*
X149491752Y-40821616D01*
X149510936Y-40817800D01*
X149701064Y-40817800D01*
X149720248Y-40821616D01*
G37*
G36*
X109588248Y-40821616D02*
G01*
X109755541Y-40854892D01*
X109931191Y-40927649D01*
X110089282Y-41033282D01*
X110223718Y-41167718D01*
X110329351Y-41325809D01*
X110402108Y-41501459D01*
X110439200Y-41687937D01*
X110439200Y-41878063D01*
X110402108Y-42064541D01*
X110329351Y-42240191D01*
X110223718Y-42398282D01*
X110089282Y-42532718D01*
X109931191Y-42638351D01*
X109755541Y-42711108D01*
X109629392Y-42736200D01*
X109569064Y-42748200D01*
X109378936Y-42748200D01*
X109318608Y-42736200D01*
X109192459Y-42711108D01*
X109016809Y-42638351D01*
X108858718Y-42532718D01*
X108724282Y-42398282D01*
X108618649Y-42240191D01*
X108545892Y-42064541D01*
X108508800Y-41878063D01*
X108508800Y-41687937D01*
X108545892Y-41501459D01*
X108618649Y-41325809D01*
X108724282Y-41167718D01*
X108858718Y-41033282D01*
X109016809Y-40927649D01*
X109192459Y-40854892D01*
X109359752Y-40821616D01*
X109378936Y-40817800D01*
X109569064Y-40817800D01*
X109588248Y-40821616D01*
G37*
G36*
X107048248Y-40821616D02*
G01*
X107215541Y-40854892D01*
X107391191Y-40927649D01*
X107549282Y-41033282D01*
X107683718Y-41167718D01*
X107789351Y-41325809D01*
X107862108Y-41501459D01*
X107899200Y-41687937D01*
X107899200Y-41878063D01*
X107862108Y-42064541D01*
X107789351Y-42240191D01*
X107683718Y-42398282D01*
X107549282Y-42532718D01*
X107391191Y-42638351D01*
X107215541Y-42711108D01*
X107089392Y-42736200D01*
X107029064Y-42748200D01*
X106838936Y-42748200D01*
X106778608Y-42736200D01*
X106652459Y-42711108D01*
X106476809Y-42638351D01*
X106318718Y-42532718D01*
X106184282Y-42398282D01*
X106078649Y-42240191D01*
X106005892Y-42064541D01*
X105968800Y-41878063D01*
X105968800Y-41687937D01*
X106005892Y-41501459D01*
X106078649Y-41325809D01*
X106184282Y-41167718D01*
X106318718Y-41033282D01*
X106476809Y-40927649D01*
X106652459Y-40854892D01*
X106819752Y-40821616D01*
X106838936Y-40817800D01*
X107029064Y-40817800D01*
X107048248Y-40821616D01*
G37*
G36*
X147180248Y-40821616D02*
G01*
X147347541Y-40854892D01*
X147523191Y-40927649D01*
X147681282Y-41033282D01*
X147815718Y-41167718D01*
X147921351Y-41325809D01*
X147994108Y-41501459D01*
X148031200Y-41687937D01*
X148031200Y-41878063D01*
X147994108Y-42064541D01*
X147921351Y-42240191D01*
X147815718Y-42398282D01*
X147681282Y-42532718D01*
X147523191Y-42638351D01*
X147347541Y-42711108D01*
X147221392Y-42736200D01*
X147161064Y-42748200D01*
X146970936Y-42748200D01*
X146910608Y-42736200D01*
X146784459Y-42711108D01*
X146608809Y-42638351D01*
X146450718Y-42532718D01*
X146316282Y-42398282D01*
X146210649Y-42240191D01*
X146137892Y-42064541D01*
X146100800Y-41878063D01*
X146100800Y-41687937D01*
X146137892Y-41501459D01*
X146210649Y-41325809D01*
X146316282Y-41167718D01*
X146450718Y-41033282D01*
X146608809Y-40927649D01*
X146784459Y-40854892D01*
X146951752Y-40821616D01*
X146970936Y-40817800D01*
X147161064Y-40817800D01*
X147180248Y-40821616D01*
G37*
G36*
X114693921Y-40838958D02*
G01*
X114832041Y-40866431D01*
X115005509Y-40938284D01*
X115161631Y-41042602D01*
X115294398Y-41175369D01*
X115398716Y-41331491D01*
X115470569Y-41504959D01*
X115507200Y-41689119D01*
X115507200Y-41876881D01*
X115470569Y-42061041D01*
X115398716Y-42234509D01*
X115294398Y-42390631D01*
X115161631Y-42523398D01*
X115005509Y-42627716D01*
X114832041Y-42699569D01*
X114693921Y-42727042D01*
X114647882Y-42736200D01*
X114460118Y-42736200D01*
X114414079Y-42727042D01*
X114275959Y-42699569D01*
X114102491Y-42627716D01*
X113946369Y-42523398D01*
X113813602Y-42390631D01*
X113709284Y-42234509D01*
X113637431Y-42061041D01*
X113600800Y-41876881D01*
X113600800Y-41689119D01*
X113637431Y-41504959D01*
X113709284Y-41331491D01*
X113813602Y-41175369D01*
X113946369Y-41042602D01*
X114102491Y-40938284D01*
X114275959Y-40866431D01*
X114414079Y-40838958D01*
X114460118Y-40829800D01*
X114647882Y-40829800D01*
X114693921Y-40838958D01*
G37*
G36*
X144665921Y-40838958D02*
G01*
X144804041Y-40866431D01*
X144977509Y-40938284D01*
X145133631Y-41042602D01*
X145266398Y-41175369D01*
X145370716Y-41331491D01*
X145442569Y-41504959D01*
X145479200Y-41689119D01*
X145479200Y-41876881D01*
X145442569Y-42061041D01*
X145370716Y-42234509D01*
X145266398Y-42390631D01*
X145133631Y-42523398D01*
X144977509Y-42627716D01*
X144804041Y-42699569D01*
X144665921Y-42727042D01*
X144619882Y-42736200D01*
X144432118Y-42736200D01*
X144386079Y-42727042D01*
X144247959Y-42699569D01*
X144074491Y-42627716D01*
X143918369Y-42523398D01*
X143785602Y-42390631D01*
X143681284Y-42234509D01*
X143609431Y-42061041D01*
X143572800Y-41876881D01*
X143572800Y-41689119D01*
X143609431Y-41504959D01*
X143681284Y-41331491D01*
X143785602Y-41175369D01*
X143918369Y-41042602D01*
X144074491Y-40938284D01*
X144247959Y-40866431D01*
X144386079Y-40838958D01*
X144432118Y-40829800D01*
X144619882Y-40829800D01*
X144665921Y-40838958D01*
G37*
G36*
X159905921Y-40838958D02*
G01*
X160044041Y-40866431D01*
X160217509Y-40938284D01*
X160373631Y-41042602D01*
X160506398Y-41175369D01*
X160610716Y-41331491D01*
X160682569Y-41504959D01*
X160719200Y-41689119D01*
X160719200Y-41876881D01*
X160682569Y-42061041D01*
X160610716Y-42234509D01*
X160506398Y-42390631D01*
X160373631Y-42523398D01*
X160217509Y-42627716D01*
X160044041Y-42699569D01*
X159905921Y-42727042D01*
X159859882Y-42736200D01*
X159672118Y-42736200D01*
X159626079Y-42727042D01*
X159487959Y-42699569D01*
X159314491Y-42627716D01*
X159158369Y-42523398D01*
X159025602Y-42390631D01*
X158921284Y-42234509D01*
X158849431Y-42061041D01*
X158812800Y-41876881D01*
X158812800Y-41689119D01*
X158849431Y-41504959D01*
X158921284Y-41331491D01*
X159025602Y-41175369D01*
X159158369Y-41042602D01*
X159314491Y-40938284D01*
X159487959Y-40866431D01*
X159626079Y-40838958D01*
X159672118Y-40829800D01*
X159859882Y-40829800D01*
X159905921Y-40838958D01*
G37*
G36*
X101993921Y-40838958D02*
G01*
X102132041Y-40866431D01*
X102305509Y-40938284D01*
X102461631Y-41042602D01*
X102594398Y-41175369D01*
X102698716Y-41331491D01*
X102770569Y-41504959D01*
X102807200Y-41689119D01*
X102807200Y-41876881D01*
X102770569Y-42061041D01*
X102698716Y-42234509D01*
X102594398Y-42390631D01*
X102461631Y-42523398D01*
X102305509Y-42627716D01*
X102132041Y-42699569D01*
X101993921Y-42727042D01*
X101947882Y-42736200D01*
X101760118Y-42736200D01*
X101714079Y-42727042D01*
X101575959Y-42699569D01*
X101402491Y-42627716D01*
X101246369Y-42523398D01*
X101113602Y-42390631D01*
X101009284Y-42234509D01*
X100937431Y-42061041D01*
X100900800Y-41876881D01*
X100900800Y-41689119D01*
X100937431Y-41504959D01*
X101009284Y-41331491D01*
X101113602Y-41175369D01*
X101246369Y-41042602D01*
X101402491Y-40938284D01*
X101575959Y-40866431D01*
X101714079Y-40838958D01*
X101760118Y-40829800D01*
X101947882Y-40829800D01*
X101993921Y-40838958D01*
G37*
G36*
X119773921Y-40838958D02*
G01*
X119912041Y-40866431D01*
X120085509Y-40938284D01*
X120241631Y-41042602D01*
X120374398Y-41175369D01*
X120478716Y-41331491D01*
X120550569Y-41504959D01*
X120587200Y-41689119D01*
X120587200Y-41876881D01*
X120550569Y-42061041D01*
X120478716Y-42234509D01*
X120374398Y-42390631D01*
X120241631Y-42523398D01*
X120085509Y-42627716D01*
X119912041Y-42699569D01*
X119773921Y-42727042D01*
X119727882Y-42736200D01*
X119540118Y-42736200D01*
X119494079Y-42727042D01*
X119355959Y-42699569D01*
X119182491Y-42627716D01*
X119026369Y-42523398D01*
X118893602Y-42390631D01*
X118789284Y-42234509D01*
X118717431Y-42061041D01*
X118680800Y-41876881D01*
X118680800Y-41689119D01*
X118717431Y-41504959D01*
X118789284Y-41331491D01*
X118893602Y-41175369D01*
X119026369Y-41042602D01*
X119182491Y-40938284D01*
X119355959Y-40866431D01*
X119494079Y-40838958D01*
X119540118Y-40829800D01*
X119727882Y-40829800D01*
X119773921Y-40838958D01*
G37*
G36*
X154825921Y-40838958D02*
G01*
X154964041Y-40866431D01*
X155137509Y-40938284D01*
X155293631Y-41042602D01*
X155426398Y-41175369D01*
X155530716Y-41331491D01*
X155602569Y-41504959D01*
X155639200Y-41689119D01*
X155639200Y-41876881D01*
X155602569Y-42061041D01*
X155530716Y-42234509D01*
X155426398Y-42390631D01*
X155293631Y-42523398D01*
X155137509Y-42627716D01*
X154964041Y-42699569D01*
X154825921Y-42727042D01*
X154779882Y-42736200D01*
X154592118Y-42736200D01*
X154546079Y-42727042D01*
X154407959Y-42699569D01*
X154234491Y-42627716D01*
X154078369Y-42523398D01*
X153945602Y-42390631D01*
X153841284Y-42234509D01*
X153769431Y-42061041D01*
X153732800Y-41876881D01*
X153732800Y-41689119D01*
X153769431Y-41504959D01*
X153841284Y-41331491D01*
X153945602Y-41175369D01*
X154078369Y-41042602D01*
X154234491Y-40938284D01*
X154407959Y-40866431D01*
X154546079Y-40838958D01*
X154592118Y-40829800D01*
X154779882Y-40829800D01*
X154825921Y-40838958D01*
G37*
G36*
X142125921Y-40838958D02*
G01*
X142264041Y-40866431D01*
X142437509Y-40938284D01*
X142593631Y-41042602D01*
X142726398Y-41175369D01*
X142830716Y-41331491D01*
X142902569Y-41504959D01*
X142939200Y-41689119D01*
X142939200Y-41876881D01*
X142902569Y-42061041D01*
X142830716Y-42234509D01*
X142726398Y-42390631D01*
X142593631Y-42523398D01*
X142437509Y-42627716D01*
X142264041Y-42699569D01*
X142125921Y-42727042D01*
X142079882Y-42736200D01*
X141892118Y-42736200D01*
X141846079Y-42727042D01*
X141707959Y-42699569D01*
X141534491Y-42627716D01*
X141378369Y-42523398D01*
X141245602Y-42390631D01*
X141141284Y-42234509D01*
X141069431Y-42061041D01*
X141032800Y-41876881D01*
X141032800Y-41689119D01*
X141069431Y-41504959D01*
X141141284Y-41331491D01*
X141245602Y-41175369D01*
X141378369Y-41042602D01*
X141534491Y-40938284D01*
X141707959Y-40866431D01*
X141846079Y-40838958D01*
X141892118Y-40829800D01*
X142079882Y-40829800D01*
X142125921Y-40838958D01*
G37*
G36*
X104533921Y-40838958D02*
G01*
X104672041Y-40866431D01*
X104845509Y-40938284D01*
X105001631Y-41042602D01*
X105134398Y-41175369D01*
X105238716Y-41331491D01*
X105310569Y-41504959D01*
X105347200Y-41689119D01*
X105347200Y-41876881D01*
X105310569Y-42061041D01*
X105238716Y-42234509D01*
X105134398Y-42390631D01*
X105001631Y-42523398D01*
X104845509Y-42627716D01*
X104672041Y-42699569D01*
X104533921Y-42727042D01*
X104487882Y-42736200D01*
X104300118Y-42736200D01*
X104254079Y-42727042D01*
X104115959Y-42699569D01*
X103942491Y-42627716D01*
X103786369Y-42523398D01*
X103653602Y-42390631D01*
X103549284Y-42234509D01*
X103477431Y-42061041D01*
X103440800Y-41876881D01*
X103440800Y-41689119D01*
X103477431Y-41504959D01*
X103549284Y-41331491D01*
X103653602Y-41175369D01*
X103786369Y-41042602D01*
X103942491Y-40938284D01*
X104115959Y-40866431D01*
X104254079Y-40838958D01*
X104300118Y-40829800D01*
X104487882Y-40829800D01*
X104533921Y-40838958D01*
G37*
G36*
X171251200Y-42250200D02*
G01*
X169784800Y-42250200D01*
X169784800Y-41193800D01*
X171251200Y-41193800D01*
X171251200Y-42250200D01*
G37*
G36*
X163737200Y-42071200D02*
G01*
X162430800Y-42071200D01*
X162430800Y-40864800D01*
X163737200Y-40864800D01*
X163737200Y-42071200D01*
G37*
G36*
X140213621Y-39599843D02*
G01*
X140268783Y-39616575D01*
X140319618Y-39643747D01*
X140364181Y-39680319D01*
X140400753Y-39724882D01*
X140427925Y-39775717D01*
X140444657Y-39830879D01*
X140450800Y-39893244D01*
X140450800Y-40675556D01*
X140444657Y-40737921D01*
X140427925Y-40793083D01*
X140400753Y-40843918D01*
X140364181Y-40888481D01*
X140319618Y-40925053D01*
X140268783Y-40952225D01*
X140213621Y-40968957D01*
X140151256Y-40975100D01*
X138943944Y-40975100D01*
X138881579Y-40968957D01*
X138826417Y-40952225D01*
X138775582Y-40925053D01*
X138731019Y-40888481D01*
X138694447Y-40843918D01*
X138667275Y-40793083D01*
X138650543Y-40737921D01*
X138644400Y-40675556D01*
X138644400Y-39893244D01*
X138650543Y-39830879D01*
X138667275Y-39775717D01*
X138694447Y-39724882D01*
X138731019Y-39680319D01*
X138775582Y-39643747D01*
X138826417Y-39616575D01*
X138881579Y-39599843D01*
X138943944Y-39593700D01*
X140151256Y-39593700D01*
X140213621Y-39599843D01*
G37*
G36*
X138080021Y-39599843D02*
G01*
X138135183Y-39616575D01*
X138186018Y-39643747D01*
X138230581Y-39680319D01*
X138267153Y-39724882D01*
X138294325Y-39775717D01*
X138311057Y-39830879D01*
X138317200Y-39893244D01*
X138317200Y-40675556D01*
X138311057Y-40737921D01*
X138294325Y-40793083D01*
X138267153Y-40843918D01*
X138230581Y-40888481D01*
X138186018Y-40925053D01*
X138135183Y-40952225D01*
X138080021Y-40968957D01*
X138017656Y-40975100D01*
X136810344Y-40975100D01*
X136747979Y-40968957D01*
X136692817Y-40952225D01*
X136641982Y-40925053D01*
X136597419Y-40888481D01*
X136560847Y-40843918D01*
X136533675Y-40793083D01*
X136516943Y-40737921D01*
X136510800Y-40675556D01*
X136510800Y-39893244D01*
X136516943Y-39830879D01*
X136533675Y-39775717D01*
X136560847Y-39724882D01*
X136597419Y-39680319D01*
X136641982Y-39643747D01*
X136692817Y-39616575D01*
X136747979Y-39599843D01*
X136810344Y-39593700D01*
X138017656Y-39593700D01*
X138080021Y-39599843D01*
G37*
G36*
X109610614Y-37917300D02*
G01*
X109752041Y-37945431D01*
X109925509Y-38017284D01*
X110034671Y-38090224D01*
X110081630Y-38121601D01*
X110214399Y-38254370D01*
X110219931Y-38262650D01*
X110318716Y-38410491D01*
X110390569Y-38583959D01*
X110427200Y-38768119D01*
X110427200Y-38955881D01*
X110390569Y-39140041D01*
X110318716Y-39313509D01*
X110214398Y-39469631D01*
X110081631Y-39602398D01*
X109925509Y-39706716D01*
X109752041Y-39778569D01*
X109613921Y-39806042D01*
X109567882Y-39815200D01*
X109380118Y-39815200D01*
X109334079Y-39806042D01*
X109195959Y-39778569D01*
X109022491Y-39706716D01*
X108866369Y-39602398D01*
X108733602Y-39469631D01*
X108629284Y-39313509D01*
X108557431Y-39140041D01*
X108520800Y-38955881D01*
X108520800Y-38768119D01*
X108557431Y-38583959D01*
X108629284Y-38410491D01*
X108728069Y-38262650D01*
X108733601Y-38254370D01*
X108866370Y-38121601D01*
X108913329Y-38090224D01*
X109022491Y-38017284D01*
X109195959Y-37945431D01*
X109337386Y-37917300D01*
X109380118Y-37908800D01*
X109567882Y-37908800D01*
X109610614Y-37917300D01*
G37*
G36*
X107070614Y-37917300D02*
G01*
X107212041Y-37945431D01*
X107385509Y-38017284D01*
X107494671Y-38090224D01*
X107541630Y-38121601D01*
X107674399Y-38254370D01*
X107679931Y-38262650D01*
X107778716Y-38410491D01*
X107850569Y-38583959D01*
X107887200Y-38768119D01*
X107887200Y-38955881D01*
X107850569Y-39140041D01*
X107778716Y-39313509D01*
X107674398Y-39469631D01*
X107541631Y-39602398D01*
X107385509Y-39706716D01*
X107212041Y-39778569D01*
X107073921Y-39806042D01*
X107027882Y-39815200D01*
X106840118Y-39815200D01*
X106794079Y-39806042D01*
X106655959Y-39778569D01*
X106482491Y-39706716D01*
X106326369Y-39602398D01*
X106193602Y-39469631D01*
X106089284Y-39313509D01*
X106017431Y-39140041D01*
X105980800Y-38955881D01*
X105980800Y-38768119D01*
X106017431Y-38583959D01*
X106089284Y-38410491D01*
X106188069Y-38262650D01*
X106193601Y-38254370D01*
X106326370Y-38121601D01*
X106373329Y-38090224D01*
X106482491Y-38017284D01*
X106655959Y-37945431D01*
X106797386Y-37917300D01*
X106840118Y-37908800D01*
X107027882Y-37908800D01*
X107070614Y-37917300D01*
G37*
G36*
X104530614Y-37917300D02*
G01*
X104672041Y-37945431D01*
X104845509Y-38017284D01*
X104954671Y-38090224D01*
X105001630Y-38121601D01*
X105134399Y-38254370D01*
X105139931Y-38262650D01*
X105238716Y-38410491D01*
X105310569Y-38583959D01*
X105347200Y-38768119D01*
X105347200Y-38955881D01*
X105310569Y-39140041D01*
X105238716Y-39313509D01*
X105134398Y-39469631D01*
X105001631Y-39602398D01*
X104845509Y-39706716D01*
X104672041Y-39778569D01*
X104533921Y-39806042D01*
X104487882Y-39815200D01*
X104300118Y-39815200D01*
X104254079Y-39806042D01*
X104115959Y-39778569D01*
X103942491Y-39706716D01*
X103786369Y-39602398D01*
X103653602Y-39469631D01*
X103549284Y-39313509D01*
X103477431Y-39140041D01*
X103440800Y-38955881D01*
X103440800Y-38768119D01*
X103477431Y-38583959D01*
X103549284Y-38410491D01*
X103648069Y-38262650D01*
X103653601Y-38254370D01*
X103786370Y-38121601D01*
X103833329Y-38090224D01*
X103942491Y-38017284D01*
X104115959Y-37945431D01*
X104257386Y-37917300D01*
X104300118Y-37908800D01*
X104487882Y-37908800D01*
X104530614Y-37917300D01*
G37*
G36*
X102807200Y-39815200D02*
G01*
X100900800Y-39815200D01*
X100900800Y-37908800D01*
X102807200Y-37908800D01*
X102807200Y-39815200D01*
G37*
G36*
X157362614Y-37917300D02*
G01*
X157504041Y-37945431D01*
X157677509Y-38017284D01*
X157786671Y-38090224D01*
X157833630Y-38121601D01*
X157966399Y-38254370D01*
X157971931Y-38262650D01*
X158070716Y-38410491D01*
X158142569Y-38583959D01*
X158179200Y-38768119D01*
X158179200Y-38955881D01*
X158142569Y-39140041D01*
X158070716Y-39313509D01*
X157966398Y-39469631D01*
X157833631Y-39602398D01*
X157677509Y-39706716D01*
X157504041Y-39778569D01*
X157365921Y-39806042D01*
X157319882Y-39815200D01*
X157132118Y-39815200D01*
X157086079Y-39806042D01*
X156947959Y-39778569D01*
X156774491Y-39706716D01*
X156618369Y-39602398D01*
X156485602Y-39469631D01*
X156381284Y-39313509D01*
X156309431Y-39140041D01*
X156272800Y-38955881D01*
X156272800Y-38768119D01*
X156309431Y-38583959D01*
X156381284Y-38410491D01*
X156480069Y-38262650D01*
X156485601Y-38254370D01*
X156618370Y-38121601D01*
X156665329Y-38090224D01*
X156774491Y-38017284D01*
X156947959Y-37945431D01*
X157089386Y-37917300D01*
X157132118Y-37908800D01*
X157319882Y-37908800D01*
X157362614Y-37917300D01*
G37*
G36*
X159902614Y-37917300D02*
G01*
X160044041Y-37945431D01*
X160217509Y-38017284D01*
X160326671Y-38090224D01*
X160373630Y-38121601D01*
X160506399Y-38254370D01*
X160511931Y-38262650D01*
X160610716Y-38410491D01*
X160682569Y-38583959D01*
X160719200Y-38768119D01*
X160719200Y-38955881D01*
X160682569Y-39140041D01*
X160610716Y-39313509D01*
X160506398Y-39469631D01*
X160373631Y-39602398D01*
X160217509Y-39706716D01*
X160044041Y-39778569D01*
X159905921Y-39806042D01*
X159859882Y-39815200D01*
X159672118Y-39815200D01*
X159626079Y-39806042D01*
X159487959Y-39778569D01*
X159314491Y-39706716D01*
X159158369Y-39602398D01*
X159025602Y-39469631D01*
X158921284Y-39313509D01*
X158849431Y-39140041D01*
X158812800Y-38955881D01*
X158812800Y-38768119D01*
X158849431Y-38583959D01*
X158921284Y-38410491D01*
X159020069Y-38262650D01*
X159025601Y-38254370D01*
X159158370Y-38121601D01*
X159205329Y-38090224D01*
X159314491Y-38017284D01*
X159487959Y-37945431D01*
X159629386Y-37917300D01*
X159672118Y-37908800D01*
X159859882Y-37908800D01*
X159902614Y-37917300D01*
G37*
G36*
X154822614Y-37917300D02*
G01*
X154964041Y-37945431D01*
X155137509Y-38017284D01*
X155246671Y-38090224D01*
X155293630Y-38121601D01*
X155426399Y-38254370D01*
X155431931Y-38262650D01*
X155530716Y-38410491D01*
X155602569Y-38583959D01*
X155639200Y-38768119D01*
X155639200Y-38955881D01*
X155602569Y-39140041D01*
X155530716Y-39313509D01*
X155426398Y-39469631D01*
X155293631Y-39602398D01*
X155137509Y-39706716D01*
X154964041Y-39778569D01*
X154825921Y-39806042D01*
X154779882Y-39815200D01*
X154592118Y-39815200D01*
X154546079Y-39806042D01*
X154407959Y-39778569D01*
X154234491Y-39706716D01*
X154078369Y-39602398D01*
X153945602Y-39469631D01*
X153841284Y-39313509D01*
X153769431Y-39140041D01*
X153732800Y-38955881D01*
X153732800Y-38768119D01*
X153769431Y-38583959D01*
X153841284Y-38410491D01*
X153940069Y-38262650D01*
X153945601Y-38254370D01*
X154078370Y-38121601D01*
X154125329Y-38090224D01*
X154234491Y-38017284D01*
X154407959Y-37945431D01*
X154549386Y-37917300D01*
X154592118Y-37908800D01*
X154779882Y-37908800D01*
X154822614Y-37917300D01*
G37*
G36*
X152282614Y-37917300D02*
G01*
X152424041Y-37945431D01*
X152597509Y-38017284D01*
X152706671Y-38090224D01*
X152753630Y-38121601D01*
X152886399Y-38254370D01*
X152891931Y-38262650D01*
X152990716Y-38410491D01*
X153062569Y-38583959D01*
X153099200Y-38768119D01*
X153099200Y-38955881D01*
X153062569Y-39140041D01*
X152990716Y-39313509D01*
X152886398Y-39469631D01*
X152753631Y-39602398D01*
X152597509Y-39706716D01*
X152424041Y-39778569D01*
X152285921Y-39806042D01*
X152239882Y-39815200D01*
X152052118Y-39815200D01*
X152006079Y-39806042D01*
X151867959Y-39778569D01*
X151694491Y-39706716D01*
X151538369Y-39602398D01*
X151405602Y-39469631D01*
X151301284Y-39313509D01*
X151229431Y-39140041D01*
X151192800Y-38955881D01*
X151192800Y-38768119D01*
X151229431Y-38583959D01*
X151301284Y-38410491D01*
X151400069Y-38262650D01*
X151405601Y-38254370D01*
X151538370Y-38121601D01*
X151585329Y-38090224D01*
X151694491Y-38017284D01*
X151867959Y-37945431D01*
X152009386Y-37917300D01*
X152052118Y-37908800D01*
X152239882Y-37908800D01*
X152282614Y-37917300D01*
G37*
G36*
X149742614Y-37917300D02*
G01*
X149884041Y-37945431D01*
X150057509Y-38017284D01*
X150166671Y-38090224D01*
X150213630Y-38121601D01*
X150346399Y-38254370D01*
X150351931Y-38262650D01*
X150450716Y-38410491D01*
X150522569Y-38583959D01*
X150559200Y-38768119D01*
X150559200Y-38955881D01*
X150522569Y-39140041D01*
X150450716Y-39313509D01*
X150346398Y-39469631D01*
X150213631Y-39602398D01*
X150057509Y-39706716D01*
X149884041Y-39778569D01*
X149745921Y-39806042D01*
X149699882Y-39815200D01*
X149512118Y-39815200D01*
X149466079Y-39806042D01*
X149327959Y-39778569D01*
X149154491Y-39706716D01*
X148998369Y-39602398D01*
X148865602Y-39469631D01*
X148761284Y-39313509D01*
X148689431Y-39140041D01*
X148652800Y-38955881D01*
X148652800Y-38768119D01*
X148689431Y-38583959D01*
X148761284Y-38410491D01*
X148860069Y-38262650D01*
X148865601Y-38254370D01*
X148998370Y-38121601D01*
X149045329Y-38090224D01*
X149154491Y-38017284D01*
X149327959Y-37945431D01*
X149469386Y-37917300D01*
X149512118Y-37908800D01*
X149699882Y-37908800D01*
X149742614Y-37917300D01*
G37*
G36*
X147202614Y-37917300D02*
G01*
X147344041Y-37945431D01*
X147517509Y-38017284D01*
X147626671Y-38090224D01*
X147673630Y-38121601D01*
X147806399Y-38254370D01*
X147811931Y-38262650D01*
X147910716Y-38410491D01*
X147982569Y-38583959D01*
X148019200Y-38768119D01*
X148019200Y-38955881D01*
X147982569Y-39140041D01*
X147910716Y-39313509D01*
X147806398Y-39469631D01*
X147673631Y-39602398D01*
X147517509Y-39706716D01*
X147344041Y-39778569D01*
X147205921Y-39806042D01*
X147159882Y-39815200D01*
X146972118Y-39815200D01*
X146926079Y-39806042D01*
X146787959Y-39778569D01*
X146614491Y-39706716D01*
X146458369Y-39602398D01*
X146325602Y-39469631D01*
X146221284Y-39313509D01*
X146149431Y-39140041D01*
X146112800Y-38955881D01*
X146112800Y-38768119D01*
X146149431Y-38583959D01*
X146221284Y-38410491D01*
X146320069Y-38262650D01*
X146325601Y-38254370D01*
X146458370Y-38121601D01*
X146505329Y-38090224D01*
X146614491Y-38017284D01*
X146787959Y-37945431D01*
X146929386Y-37917300D01*
X146972118Y-37908800D01*
X147159882Y-37908800D01*
X147202614Y-37917300D01*
G37*
G36*
X144662614Y-37917300D02*
G01*
X144804041Y-37945431D01*
X144977509Y-38017284D01*
X145086671Y-38090224D01*
X145133630Y-38121601D01*
X145266399Y-38254370D01*
X145271931Y-38262650D01*
X145370716Y-38410491D01*
X145442569Y-38583959D01*
X145479200Y-38768119D01*
X145479200Y-38955881D01*
X145442569Y-39140041D01*
X145370716Y-39313509D01*
X145266398Y-39469631D01*
X145133631Y-39602398D01*
X144977509Y-39706716D01*
X144804041Y-39778569D01*
X144665921Y-39806042D01*
X144619882Y-39815200D01*
X144432118Y-39815200D01*
X144386079Y-39806042D01*
X144247959Y-39778569D01*
X144074491Y-39706716D01*
X143918369Y-39602398D01*
X143785602Y-39469631D01*
X143681284Y-39313509D01*
X143609431Y-39140041D01*
X143572800Y-38955881D01*
X143572800Y-38768119D01*
X143609431Y-38583959D01*
X143681284Y-38410491D01*
X143780069Y-38262650D01*
X143785601Y-38254370D01*
X143918370Y-38121601D01*
X143965329Y-38090224D01*
X144074491Y-38017284D01*
X144247959Y-37945431D01*
X144389386Y-37917300D01*
X144432118Y-37908800D01*
X144619882Y-37908800D01*
X144662614Y-37917300D01*
G37*
G36*
X142939200Y-39815200D02*
G01*
X141032800Y-39815200D01*
X141032800Y-37908800D01*
X142939200Y-37908800D01*
X142939200Y-39815200D01*
G37*
G36*
X112150614Y-37917300D02*
G01*
X112292041Y-37945431D01*
X112465509Y-38017284D01*
X112574671Y-38090224D01*
X112621630Y-38121601D01*
X112754399Y-38254370D01*
X112759931Y-38262650D01*
X112858716Y-38410491D01*
X112930569Y-38583959D01*
X112967200Y-38768119D01*
X112967200Y-38955881D01*
X112930569Y-39140041D01*
X112858716Y-39313509D01*
X112754398Y-39469631D01*
X112621631Y-39602398D01*
X112465509Y-39706716D01*
X112292041Y-39778569D01*
X112153921Y-39806042D01*
X112107882Y-39815200D01*
X111920118Y-39815200D01*
X111874079Y-39806042D01*
X111735959Y-39778569D01*
X111562491Y-39706716D01*
X111406369Y-39602398D01*
X111273602Y-39469631D01*
X111169284Y-39313509D01*
X111097431Y-39140041D01*
X111060800Y-38955881D01*
X111060800Y-38768119D01*
X111097431Y-38583959D01*
X111169284Y-38410491D01*
X111268069Y-38262650D01*
X111273601Y-38254370D01*
X111406370Y-38121601D01*
X111453329Y-38090224D01*
X111562491Y-38017284D01*
X111735959Y-37945431D01*
X111877386Y-37917300D01*
X111920118Y-37908800D01*
X112107882Y-37908800D01*
X112150614Y-37917300D01*
G37*
G36*
X114690614Y-37917300D02*
G01*
X114832041Y-37945431D01*
X115005509Y-38017284D01*
X115114671Y-38090224D01*
X115161630Y-38121601D01*
X115294399Y-38254370D01*
X115299931Y-38262650D01*
X115398716Y-38410491D01*
X115470569Y-38583959D01*
X115507200Y-38768119D01*
X115507200Y-38955881D01*
X115470569Y-39140041D01*
X115398716Y-39313509D01*
X115294398Y-39469631D01*
X115161631Y-39602398D01*
X115005509Y-39706716D01*
X114832041Y-39778569D01*
X114693921Y-39806042D01*
X114647882Y-39815200D01*
X114460118Y-39815200D01*
X114414079Y-39806042D01*
X114275959Y-39778569D01*
X114102491Y-39706716D01*
X113946369Y-39602398D01*
X113813602Y-39469631D01*
X113709284Y-39313509D01*
X113637431Y-39140041D01*
X113600800Y-38955881D01*
X113600800Y-38768119D01*
X113637431Y-38583959D01*
X113709284Y-38410491D01*
X113808069Y-38262650D01*
X113813601Y-38254370D01*
X113946370Y-38121601D01*
X113993329Y-38090224D01*
X114102491Y-38017284D01*
X114275959Y-37945431D01*
X114417386Y-37917300D01*
X114460118Y-37908800D01*
X114647882Y-37908800D01*
X114690614Y-37917300D01*
G37*
G36*
X117230614Y-37917300D02*
G01*
X117372041Y-37945431D01*
X117545509Y-38017284D01*
X117654671Y-38090224D01*
X117701630Y-38121601D01*
X117834399Y-38254370D01*
X117839931Y-38262650D01*
X117938716Y-38410491D01*
X118010569Y-38583959D01*
X118047200Y-38768119D01*
X118047200Y-38955881D01*
X118010569Y-39140041D01*
X117938716Y-39313509D01*
X117834398Y-39469631D01*
X117701631Y-39602398D01*
X117545509Y-39706716D01*
X117372041Y-39778569D01*
X117233921Y-39806042D01*
X117187882Y-39815200D01*
X117000118Y-39815200D01*
X116954079Y-39806042D01*
X116815959Y-39778569D01*
X116642491Y-39706716D01*
X116486369Y-39602398D01*
X116353602Y-39469631D01*
X116249284Y-39313509D01*
X116177431Y-39140041D01*
X116140800Y-38955881D01*
X116140800Y-38768119D01*
X116177431Y-38583959D01*
X116249284Y-38410491D01*
X116348069Y-38262650D01*
X116353601Y-38254370D01*
X116486370Y-38121601D01*
X116533329Y-38090224D01*
X116642491Y-38017284D01*
X116815959Y-37945431D01*
X116957386Y-37917300D01*
X117000118Y-37908800D01*
X117187882Y-37908800D01*
X117230614Y-37917300D01*
G37*
G36*
X119770614Y-37917300D02*
G01*
X119912041Y-37945431D01*
X120085509Y-38017284D01*
X120194671Y-38090224D01*
X120241630Y-38121601D01*
X120374399Y-38254370D01*
X120379931Y-38262650D01*
X120478716Y-38410491D01*
X120550569Y-38583959D01*
X120587200Y-38768119D01*
X120587200Y-38955881D01*
X120550569Y-39140041D01*
X120478716Y-39313509D01*
X120374398Y-39469631D01*
X120241631Y-39602398D01*
X120085509Y-39706716D01*
X119912041Y-39778569D01*
X119773921Y-39806042D01*
X119727882Y-39815200D01*
X119540118Y-39815200D01*
X119494079Y-39806042D01*
X119355959Y-39778569D01*
X119182491Y-39706716D01*
X119026369Y-39602398D01*
X118893602Y-39469631D01*
X118789284Y-39313509D01*
X118717431Y-39140041D01*
X118680800Y-38955881D01*
X118680800Y-38768119D01*
X118717431Y-38583959D01*
X118789284Y-38410491D01*
X118888069Y-38262650D01*
X118893601Y-38254370D01*
X119026370Y-38121601D01*
X119073329Y-38090224D01*
X119182491Y-38017284D01*
X119355959Y-37945431D01*
X119497386Y-37917300D01*
X119540118Y-37908800D01*
X119727882Y-37908800D01*
X119770614Y-37917300D01*
G37*
G36*
X137318021Y-37923443D02*
G01*
X137373183Y-37940175D01*
X137424018Y-37967347D01*
X137468581Y-38003919D01*
X137505153Y-38048482D01*
X137532325Y-38099317D01*
X137549057Y-38154479D01*
X137555200Y-38216844D01*
X137555200Y-38999156D01*
X137549057Y-39061521D01*
X137532325Y-39116683D01*
X137505153Y-39167518D01*
X137468581Y-39212081D01*
X137424018Y-39248653D01*
X137373183Y-39275825D01*
X137318021Y-39292557D01*
X137255656Y-39298700D01*
X136048344Y-39298700D01*
X135985979Y-39292557D01*
X135930817Y-39275825D01*
X135879982Y-39248653D01*
X135835419Y-39212081D01*
X135798847Y-39167518D01*
X135771675Y-39116683D01*
X135754943Y-39061521D01*
X135748800Y-38999156D01*
X135748800Y-38216844D01*
X135754943Y-38154479D01*
X135771675Y-38099317D01*
X135798847Y-38048482D01*
X135835419Y-38003919D01*
X135879982Y-37967347D01*
X135930817Y-37940175D01*
X135985979Y-37923443D01*
X136048344Y-37917300D01*
X137255656Y-37917300D01*
X137318021Y-37923443D01*
G37*
G36*
X165094021Y-36694943D02*
G01*
X165149183Y-36711675D01*
X165200018Y-36738847D01*
X165244581Y-36775419D01*
X165281153Y-36819982D01*
X165308325Y-36870817D01*
X165325057Y-36925979D01*
X165331200Y-36988344D01*
X165331200Y-38195656D01*
X165325057Y-38258021D01*
X165308325Y-38313183D01*
X165281153Y-38364018D01*
X165244581Y-38408581D01*
X165200018Y-38445153D01*
X165149183Y-38472325D01*
X165094021Y-38489057D01*
X165031656Y-38495200D01*
X164249344Y-38495200D01*
X164186979Y-38489057D01*
X164131817Y-38472325D01*
X164080982Y-38445153D01*
X164036419Y-38408581D01*
X163999847Y-38364018D01*
X163972675Y-38313183D01*
X163955943Y-38258021D01*
X163949800Y-38195656D01*
X163949800Y-36988344D01*
X163955943Y-36925979D01*
X163972675Y-36870817D01*
X163999847Y-36819982D01*
X164036419Y-36775419D01*
X164080982Y-36738847D01*
X164131817Y-36711675D01*
X164186979Y-36694943D01*
X164249344Y-36688800D01*
X165031656Y-36688800D01*
X165094021Y-36694943D01*
G37*
G36*
X163219021Y-36694943D02*
G01*
X163274183Y-36711675D01*
X163325018Y-36738847D01*
X163369581Y-36775419D01*
X163406153Y-36819982D01*
X163433325Y-36870817D01*
X163450057Y-36925979D01*
X163456200Y-36988344D01*
X163456200Y-38195656D01*
X163450057Y-38258021D01*
X163433325Y-38313183D01*
X163406153Y-38364018D01*
X163369581Y-38408581D01*
X163325018Y-38445153D01*
X163274183Y-38472325D01*
X163219021Y-38489057D01*
X163156656Y-38495200D01*
X162374344Y-38495200D01*
X162311979Y-38489057D01*
X162256817Y-38472325D01*
X162205982Y-38445153D01*
X162161419Y-38408581D01*
X162124847Y-38364018D01*
X162097675Y-38313183D01*
X162080943Y-38258021D01*
X162074800Y-38195656D01*
X162074800Y-36988344D01*
X162080943Y-36925979D01*
X162097675Y-36870817D01*
X162124847Y-36819982D01*
X162161419Y-36775419D01*
X162205982Y-36738847D01*
X162256817Y-36711675D01*
X162311979Y-36694943D01*
X162374344Y-36688800D01*
X163156656Y-36688800D01*
X163219021Y-36694943D01*
G37*
G36*
X167966521Y-36567943D02*
G01*
X168021683Y-36584675D01*
X168072518Y-36611847D01*
X168117081Y-36648419D01*
X168153653Y-36692982D01*
X168180825Y-36743817D01*
X168197557Y-36798979D01*
X168203700Y-36861344D01*
X168203700Y-38068656D01*
X168197557Y-38131021D01*
X168180825Y-38186183D01*
X168153653Y-38237018D01*
X168117081Y-38281581D01*
X168072518Y-38318153D01*
X168021683Y-38345325D01*
X167966521Y-38362057D01*
X167904156Y-38368200D01*
X167121844Y-38368200D01*
X167059479Y-38362057D01*
X167004317Y-38345325D01*
X166953482Y-38318153D01*
X166908919Y-38281581D01*
X166872347Y-38237018D01*
X166845175Y-38186183D01*
X166828443Y-38131021D01*
X166822300Y-38068656D01*
X166822300Y-36861344D01*
X166828443Y-36798979D01*
X166845175Y-36743817D01*
X166872347Y-36692982D01*
X166908919Y-36648419D01*
X166953482Y-36611847D01*
X167004317Y-36584675D01*
X167059479Y-36567943D01*
X167121844Y-36561800D01*
X167904156Y-36561800D01*
X167966521Y-36567943D01*
G37*
G36*
X169841521Y-36567943D02*
G01*
X169896683Y-36584675D01*
X169947518Y-36611847D01*
X169992081Y-36648419D01*
X170028653Y-36692982D01*
X170055825Y-36743817D01*
X170072557Y-36798979D01*
X170078700Y-36861344D01*
X170078700Y-38068656D01*
X170072557Y-38131021D01*
X170055825Y-38186183D01*
X170028653Y-38237018D01*
X169992081Y-38281581D01*
X169947518Y-38318153D01*
X169896683Y-38345325D01*
X169841521Y-38362057D01*
X169779156Y-38368200D01*
X168996844Y-38368200D01*
X168934479Y-38362057D01*
X168879317Y-38345325D01*
X168828482Y-38318153D01*
X168783919Y-38281581D01*
X168747347Y-38237018D01*
X168720175Y-38186183D01*
X168703443Y-38131021D01*
X168697300Y-38068656D01*
X168697300Y-36861344D01*
X168703443Y-36798979D01*
X168720175Y-36743817D01*
X168747347Y-36692982D01*
X168783919Y-36648419D01*
X168828482Y-36611847D01*
X168879317Y-36584675D01*
X168934479Y-36567943D01*
X168996844Y-36561800D01*
X169779156Y-36561800D01*
X169841521Y-36567943D01*
G37*
G36*
X134710700Y-37947500D02*
G01*
X126909300Y-37947500D01*
X126909300Y-35941100D01*
X134710700Y-35941100D01*
X134710700Y-37947500D01*
G37*
G36*
X137318021Y-36048443D02*
G01*
X137373183Y-36065175D01*
X137424018Y-36092347D01*
X137468581Y-36128919D01*
X137505153Y-36173482D01*
X137532325Y-36224317D01*
X137549057Y-36279479D01*
X137555200Y-36341844D01*
X137555200Y-37124156D01*
X137549057Y-37186521D01*
X137532325Y-37241683D01*
X137505153Y-37292518D01*
X137468581Y-37337081D01*
X137424018Y-37373653D01*
X137373183Y-37400825D01*
X137318021Y-37417557D01*
X137255656Y-37423700D01*
X136048344Y-37423700D01*
X135985979Y-37417557D01*
X135930817Y-37400825D01*
X135879982Y-37373653D01*
X135835419Y-37337081D01*
X135798847Y-37292518D01*
X135771675Y-37241683D01*
X135754943Y-37186521D01*
X135748800Y-37124156D01*
X135748800Y-36341844D01*
X135754943Y-36279479D01*
X135771675Y-36224317D01*
X135798847Y-36173482D01*
X135835419Y-36128919D01*
X135879982Y-36092347D01*
X135930817Y-36065175D01*
X135985979Y-36048443D01*
X136048344Y-36042300D01*
X137255656Y-36042300D01*
X137318021Y-36048443D01*
G37*
G36*
X165187449Y-31789251D02*
G01*
X165310580Y-31826603D01*
X165424054Y-31887256D01*
X165523515Y-31968881D01*
X165523517Y-31968883D01*
X165540564Y-31989655D01*
X165605146Y-32068348D01*
X165665797Y-32181819D01*
X165703149Y-32304950D01*
X165712600Y-32400913D01*
X165712600Y-33965087D01*
X165703149Y-34061050D01*
X165665797Y-34184181D01*
X165605146Y-34297652D01*
X165523517Y-34397117D01*
X165424052Y-34478746D01*
X165310581Y-34539397D01*
X165187450Y-34576749D01*
X165059400Y-34589360D01*
X164931351Y-34576749D01*
X164808220Y-34539397D01*
X164694749Y-34478746D01*
X164595284Y-34397117D01*
X164513656Y-34297652D01*
X164452921Y-34184025D01*
X164441856Y-34167465D01*
X164427773Y-34153381D01*
X164411213Y-34142316D01*
X164392812Y-34134694D01*
X164373278Y-34130808D01*
X164353361Y-34130808D01*
X164333827Y-34134694D01*
X164315426Y-34142316D01*
X164298866Y-34153381D01*
X164284782Y-34167464D01*
X164273717Y-34184024D01*
X164263672Y-34212096D01*
X164262600Y-34217485D01*
X164241341Y-34324363D01*
X164199640Y-34425039D01*
X164139099Y-34515645D01*
X164062045Y-34592699D01*
X163971439Y-34653240D01*
X163870763Y-34694941D01*
X163763885Y-34716200D01*
X163654915Y-34716200D01*
X163548037Y-34694941D01*
X163447361Y-34653240D01*
X163356755Y-34592699D01*
X163356235Y-34592179D01*
X163340845Y-34579549D01*
X163323280Y-34570160D01*
X163304221Y-34564378D01*
X163284400Y-34562426D01*
X163264579Y-34564378D01*
X163245520Y-34570160D01*
X163227955Y-34579549D01*
X163212565Y-34592179D01*
X163212045Y-34592699D01*
X163121439Y-34653240D01*
X163020763Y-34694941D01*
X162913885Y-34716200D01*
X162804915Y-34716200D01*
X162698037Y-34694941D01*
X162597361Y-34653240D01*
X162506755Y-34592699D01*
X162506235Y-34592179D01*
X162490845Y-34579549D01*
X162473280Y-34570160D01*
X162454221Y-34564378D01*
X162434400Y-34562426D01*
X162414579Y-34564378D01*
X162395520Y-34570160D01*
X162377955Y-34579549D01*
X162362565Y-34592179D01*
X162362045Y-34592699D01*
X162271439Y-34653240D01*
X162170763Y-34694941D01*
X162063885Y-34716200D01*
X161954915Y-34716200D01*
X161848037Y-34694941D01*
X161747361Y-34653240D01*
X161656755Y-34592699D01*
X161656235Y-34592179D01*
X161640845Y-34579549D01*
X161623280Y-34570160D01*
X161604221Y-34564378D01*
X161584400Y-34562426D01*
X161564579Y-34564378D01*
X161545520Y-34570160D01*
X161527955Y-34579549D01*
X161512565Y-34592179D01*
X161512045Y-34592699D01*
X161421439Y-34653240D01*
X161320763Y-34694941D01*
X161213885Y-34716200D01*
X161104915Y-34716200D01*
X160998037Y-34694941D01*
X160897361Y-34653240D01*
X160806755Y-34592699D01*
X160806235Y-34592179D01*
X160790845Y-34579549D01*
X160773280Y-34570160D01*
X160754221Y-34564378D01*
X160734400Y-34562426D01*
X160714579Y-34564378D01*
X160695520Y-34570160D01*
X160677955Y-34579549D01*
X160662565Y-34592179D01*
X160662045Y-34592699D01*
X160571439Y-34653240D01*
X160470763Y-34694941D01*
X160363885Y-34716200D01*
X160254915Y-34716200D01*
X160148037Y-34694941D01*
X160047361Y-34653240D01*
X159956755Y-34592699D01*
X159956235Y-34592179D01*
X159940845Y-34579549D01*
X159923280Y-34570160D01*
X159904221Y-34564378D01*
X159884400Y-34562426D01*
X159864579Y-34564378D01*
X159845520Y-34570160D01*
X159827955Y-34579549D01*
X159812565Y-34592179D01*
X159812045Y-34592699D01*
X159721439Y-34653240D01*
X159620763Y-34694941D01*
X159513885Y-34716200D01*
X159404915Y-34716200D01*
X159298037Y-34694941D01*
X159197361Y-34653240D01*
X159106755Y-34592699D01*
X159106235Y-34592179D01*
X159090845Y-34579549D01*
X159073280Y-34570160D01*
X159054221Y-34564378D01*
X159034400Y-34562426D01*
X159014579Y-34564378D01*
X158995520Y-34570160D01*
X158977955Y-34579549D01*
X158962565Y-34592179D01*
X158962045Y-34592699D01*
X158871439Y-34653240D01*
X158770763Y-34694941D01*
X158663885Y-34716200D01*
X158554915Y-34716200D01*
X158448037Y-34694941D01*
X158347361Y-34653240D01*
X158256755Y-34592699D01*
X158256235Y-34592179D01*
X158240845Y-34579549D01*
X158223280Y-34570160D01*
X158204221Y-34564378D01*
X158184400Y-34562426D01*
X158164579Y-34564378D01*
X158145520Y-34570160D01*
X158127955Y-34579549D01*
X158112565Y-34592179D01*
X158112045Y-34592699D01*
X158021439Y-34653240D01*
X157920763Y-34694941D01*
X157813885Y-34716200D01*
X157704915Y-34716200D01*
X157598037Y-34694941D01*
X157497361Y-34653240D01*
X157406755Y-34592699D01*
X157329701Y-34515645D01*
X157269160Y-34425039D01*
X157227459Y-34324363D01*
X157206200Y-34217485D01*
X157206200Y-34217482D01*
X157205129Y-34212098D01*
X157199347Y-34193039D01*
X157189958Y-34175474D01*
X157177323Y-34160078D01*
X157161927Y-34147443D01*
X157144362Y-34138054D01*
X157125303Y-34132272D01*
X157105482Y-34130320D01*
X157085661Y-34132272D01*
X157066602Y-34138054D01*
X157049037Y-34147443D01*
X157033641Y-34160078D01*
X157021006Y-34175474D01*
X157015880Y-34184026D01*
X156955146Y-34297652D01*
X156873517Y-34397117D01*
X156774052Y-34478746D01*
X156660581Y-34539397D01*
X156537450Y-34576749D01*
X156409400Y-34589360D01*
X156281351Y-34576749D01*
X156158220Y-34539397D01*
X156044749Y-34478746D01*
X155945284Y-34397117D01*
X155863655Y-34297652D01*
X155803004Y-34184181D01*
X155765652Y-34061050D01*
X155756201Y-33965087D01*
X155756201Y-33087129D01*
X157062600Y-33087129D01*
X157062600Y-33888871D01*
X157064552Y-33908692D01*
X157070334Y-33927751D01*
X157079723Y-33945316D01*
X157092358Y-33960712D01*
X157107754Y-33973347D01*
X157125319Y-33982736D01*
X157144378Y-33988518D01*
X157164199Y-33990470D01*
X157184020Y-33988518D01*
X157203079Y-33982736D01*
X157220644Y-33973347D01*
X157236040Y-33960712D01*
X157248675Y-33945316D01*
X157258059Y-33927761D01*
X157269160Y-33900961D01*
X157329701Y-33810355D01*
X157406755Y-33733301D01*
X157497361Y-33672760D01*
X157598037Y-33631059D01*
X157704915Y-33609800D01*
X157813885Y-33609800D01*
X157920763Y-33631059D01*
X158021439Y-33672760D01*
X158112045Y-33733301D01*
X158112565Y-33733821D01*
X158127955Y-33746451D01*
X158145520Y-33755840D01*
X158164579Y-33761622D01*
X158184400Y-33763574D01*
X158204221Y-33761622D01*
X158223280Y-33755840D01*
X158240845Y-33746451D01*
X158256235Y-33733821D01*
X158256755Y-33733301D01*
X158347361Y-33672760D01*
X158448037Y-33631059D01*
X158554915Y-33609800D01*
X158663885Y-33609800D01*
X158770763Y-33631059D01*
X158871439Y-33672760D01*
X158962045Y-33733301D01*
X158962565Y-33733821D01*
X158977955Y-33746451D01*
X158995520Y-33755840D01*
X159014579Y-33761622D01*
X159034400Y-33763574D01*
X159054221Y-33761622D01*
X159073280Y-33755840D01*
X159090845Y-33746451D01*
X159106235Y-33733821D01*
X159106755Y-33733301D01*
X159197361Y-33672760D01*
X159298037Y-33631059D01*
X159404915Y-33609800D01*
X159513885Y-33609800D01*
X159620763Y-33631059D01*
X159721439Y-33672760D01*
X159812045Y-33733301D01*
X159812565Y-33733821D01*
X159827955Y-33746451D01*
X159845520Y-33755840D01*
X159864579Y-33761622D01*
X159884400Y-33763574D01*
X159904221Y-33761622D01*
X159923280Y-33755840D01*
X159940845Y-33746451D01*
X159956235Y-33733821D01*
X159956755Y-33733301D01*
X160047361Y-33672760D01*
X160148037Y-33631059D01*
X160254915Y-33609800D01*
X160363885Y-33609800D01*
X160470763Y-33631059D01*
X160571439Y-33672760D01*
X160662045Y-33733301D01*
X160662565Y-33733821D01*
X160677955Y-33746451D01*
X160695520Y-33755840D01*
X160714579Y-33761622D01*
X160734400Y-33763574D01*
X160754221Y-33761622D01*
X160773280Y-33755840D01*
X160790845Y-33746451D01*
X160806235Y-33733821D01*
X160806755Y-33733301D01*
X160897361Y-33672760D01*
X160998037Y-33631059D01*
X161104915Y-33609800D01*
X161213885Y-33609800D01*
X161320763Y-33631059D01*
X161421439Y-33672760D01*
X161512045Y-33733301D01*
X161512565Y-33733821D01*
X161527955Y-33746451D01*
X161545520Y-33755840D01*
X161564579Y-33761622D01*
X161584400Y-33763574D01*
X161604221Y-33761622D01*
X161623280Y-33755840D01*
X161640845Y-33746451D01*
X161656235Y-33733821D01*
X161656755Y-33733301D01*
X161747361Y-33672760D01*
X161848037Y-33631059D01*
X161954915Y-33609800D01*
X162063885Y-33609800D01*
X162170763Y-33631059D01*
X162271439Y-33672760D01*
X162362045Y-33733301D01*
X162362565Y-33733821D01*
X162377955Y-33746451D01*
X162395520Y-33755840D01*
X162414579Y-33761622D01*
X162434400Y-33763574D01*
X162454221Y-33761622D01*
X162473280Y-33755840D01*
X162490845Y-33746451D01*
X162506235Y-33733821D01*
X162506755Y-33733301D01*
X162597361Y-33672760D01*
X162698037Y-33631059D01*
X162804915Y-33609800D01*
X162913885Y-33609800D01*
X163020763Y-33631059D01*
X163121439Y-33672760D01*
X163212045Y-33733301D01*
X163212565Y-33733821D01*
X163227955Y-33746451D01*
X163245520Y-33755840D01*
X163264579Y-33761622D01*
X163284400Y-33763574D01*
X163304221Y-33761622D01*
X163323280Y-33755840D01*
X163340845Y-33746451D01*
X163356235Y-33733821D01*
X163356755Y-33733301D01*
X163447361Y-33672760D01*
X163548037Y-33631059D01*
X163654915Y-33609800D01*
X163763885Y-33609800D01*
X163870763Y-33631059D01*
X163971439Y-33672760D01*
X164062045Y-33733301D01*
X164139099Y-33810355D01*
X164199640Y-33900961D01*
X164210741Y-33927762D01*
X164220125Y-33945319D01*
X164232761Y-33960715D01*
X164248157Y-33973350D01*
X164265722Y-33982739D01*
X164284781Y-33988521D01*
X164304602Y-33990473D01*
X164324423Y-33988521D01*
X164343482Y-33982739D01*
X164361047Y-33973351D01*
X164376443Y-33960715D01*
X164389078Y-33945319D01*
X164398467Y-33927754D01*
X164404249Y-33908695D01*
X164406201Y-33888874D01*
X164406200Y-33087128D01*
X164404248Y-33067307D01*
X164398466Y-33048248D01*
X164389077Y-33030683D01*
X164376442Y-33015287D01*
X164361046Y-33002651D01*
X164343481Y-32993263D01*
X164324422Y-32987481D01*
X164304601Y-32985529D01*
X164284780Y-32987481D01*
X164265721Y-32993263D01*
X164248156Y-33002652D01*
X164232760Y-33015287D01*
X164220124Y-33030683D01*
X164210741Y-33048239D01*
X164199640Y-33075039D01*
X164139099Y-33165645D01*
X164062045Y-33242699D01*
X163971439Y-33303240D01*
X163870763Y-33344941D01*
X163763885Y-33366200D01*
X163654915Y-33366200D01*
X163548037Y-33344941D01*
X163447361Y-33303240D01*
X163356755Y-33242699D01*
X163356235Y-33242179D01*
X163340845Y-33229549D01*
X163323280Y-33220160D01*
X163304221Y-33214378D01*
X163284400Y-33212426D01*
X163264579Y-33214378D01*
X163245520Y-33220160D01*
X163227955Y-33229549D01*
X163212565Y-33242179D01*
X163212045Y-33242699D01*
X163121439Y-33303240D01*
X163020763Y-33344941D01*
X162913885Y-33366200D01*
X162804915Y-33366200D01*
X162698037Y-33344941D01*
X162597361Y-33303240D01*
X162506755Y-33242699D01*
X162506235Y-33242179D01*
X162490845Y-33229549D01*
X162473280Y-33220160D01*
X162454221Y-33214378D01*
X162434400Y-33212426D01*
X162414579Y-33214378D01*
X162395520Y-33220160D01*
X162377955Y-33229549D01*
X162362565Y-33242179D01*
X162362045Y-33242699D01*
X162271439Y-33303240D01*
X162170763Y-33344941D01*
X162063885Y-33366200D01*
X161954915Y-33366200D01*
X161848037Y-33344941D01*
X161747361Y-33303240D01*
X161656755Y-33242699D01*
X161656235Y-33242179D01*
X161640845Y-33229549D01*
X161623280Y-33220160D01*
X161604221Y-33214378D01*
X161584400Y-33212426D01*
X161564579Y-33214378D01*
X161545520Y-33220160D01*
X161527955Y-33229549D01*
X161512565Y-33242179D01*
X161512045Y-33242699D01*
X161421439Y-33303240D01*
X161320763Y-33344941D01*
X161213885Y-33366200D01*
X161104915Y-33366200D01*
X160998037Y-33344941D01*
X160897361Y-33303240D01*
X160806755Y-33242699D01*
X160806235Y-33242179D01*
X160790845Y-33229549D01*
X160773280Y-33220160D01*
X160754221Y-33214378D01*
X160734400Y-33212426D01*
X160714579Y-33214378D01*
X160695520Y-33220160D01*
X160677955Y-33229549D01*
X160662565Y-33242179D01*
X160662045Y-33242699D01*
X160571439Y-33303240D01*
X160470763Y-33344941D01*
X160363885Y-33366200D01*
X160254915Y-33366200D01*
X160148037Y-33344941D01*
X160047361Y-33303240D01*
X159956755Y-33242699D01*
X159956235Y-33242179D01*
X159940845Y-33229549D01*
X159923280Y-33220160D01*
X159904221Y-33214378D01*
X159884400Y-33212426D01*
X159864579Y-33214378D01*
X159845520Y-33220160D01*
X159827955Y-33229549D01*
X159812565Y-33242179D01*
X159812045Y-33242699D01*
X159721439Y-33303240D01*
X159620763Y-33344941D01*
X159513885Y-33366200D01*
X159404915Y-33366200D01*
X159298037Y-33344941D01*
X159197361Y-33303240D01*
X159106755Y-33242699D01*
X159106235Y-33242179D01*
X159090845Y-33229549D01*
X159073280Y-33220160D01*
X159054221Y-33214378D01*
X159034400Y-33212426D01*
X159014579Y-33214378D01*
X158995520Y-33220160D01*
X158977955Y-33229549D01*
X158962565Y-33242179D01*
X158962045Y-33242699D01*
X158871439Y-33303240D01*
X158770763Y-33344941D01*
X158663885Y-33366200D01*
X158554915Y-33366200D01*
X158448037Y-33344941D01*
X158347361Y-33303240D01*
X158256755Y-33242699D01*
X158256235Y-33242179D01*
X158240845Y-33229549D01*
X158223280Y-33220160D01*
X158204221Y-33214378D01*
X158184400Y-33212426D01*
X158164579Y-33214378D01*
X158145520Y-33220160D01*
X158127955Y-33229549D01*
X158112565Y-33242179D01*
X158112045Y-33242699D01*
X158021439Y-33303240D01*
X157920763Y-33344941D01*
X157813885Y-33366200D01*
X157704915Y-33366200D01*
X157598037Y-33344941D01*
X157497361Y-33303240D01*
X157406755Y-33242699D01*
X157329701Y-33165645D01*
X157269160Y-33075039D01*
X157258059Y-33048239D01*
X157248675Y-33030683D01*
X157236040Y-33015287D01*
X157220644Y-33002652D01*
X157203079Y-32993264D01*
X157184019Y-32987482D01*
X157164198Y-32985530D01*
X157144377Y-32987482D01*
X157125318Y-32993264D01*
X157107753Y-33002653D01*
X157092357Y-33015288D01*
X157079722Y-33030684D01*
X157070334Y-33048249D01*
X157064552Y-33067309D01*
X157062600Y-33087129D01*
X155756201Y-33087129D01*
X155756200Y-32400914D01*
X155765651Y-32304951D01*
X155803003Y-32181820D01*
X155863656Y-32068346D01*
X155945281Y-31968885D01*
X155945286Y-31968881D01*
X155966055Y-31951836D01*
X156044748Y-31887254D01*
X156158219Y-31826603D01*
X156281350Y-31789251D01*
X156409400Y-31776640D01*
X156537449Y-31789251D01*
X156660580Y-31826603D01*
X156774054Y-31887256D01*
X156873515Y-31968881D01*
X156873517Y-31968883D01*
X156890564Y-31989655D01*
X156955146Y-32068348D01*
X157015797Y-32181819D01*
X157053149Y-32304950D01*
X157062600Y-32400913D01*
X157062600Y-32538871D01*
X157064552Y-32558692D01*
X157070334Y-32577751D01*
X157079723Y-32595316D01*
X157092358Y-32610712D01*
X157107754Y-32623347D01*
X157125319Y-32632736D01*
X157144378Y-32638518D01*
X157164199Y-32640470D01*
X157184020Y-32638518D01*
X157203079Y-32632736D01*
X157220644Y-32623347D01*
X157236040Y-32610712D01*
X157248675Y-32595316D01*
X157258059Y-32577761D01*
X157269160Y-32550961D01*
X157329701Y-32460355D01*
X157406755Y-32383301D01*
X157497361Y-32322760D01*
X157598037Y-32281059D01*
X157704915Y-32259800D01*
X157813885Y-32259800D01*
X157920763Y-32281059D01*
X158021439Y-32322760D01*
X158112045Y-32383301D01*
X158112565Y-32383821D01*
X158127955Y-32396451D01*
X158145520Y-32405840D01*
X158164579Y-32411622D01*
X158184400Y-32413574D01*
X158204221Y-32411622D01*
X158223280Y-32405840D01*
X158240845Y-32396451D01*
X158256235Y-32383821D01*
X158256755Y-32383301D01*
X158347361Y-32322760D01*
X158448037Y-32281059D01*
X158554915Y-32259800D01*
X158663885Y-32259800D01*
X158770763Y-32281059D01*
X158871439Y-32322760D01*
X158962045Y-32383301D01*
X158962565Y-32383821D01*
X158977955Y-32396451D01*
X158995520Y-32405840D01*
X159014579Y-32411622D01*
X159034400Y-32413574D01*
X159054221Y-32411622D01*
X159073280Y-32405840D01*
X159090845Y-32396451D01*
X159106235Y-32383821D01*
X159106755Y-32383301D01*
X159197361Y-32322760D01*
X159298037Y-32281059D01*
X159404915Y-32259800D01*
X159513885Y-32259800D01*
X159620763Y-32281059D01*
X159721439Y-32322760D01*
X159812045Y-32383301D01*
X159812565Y-32383821D01*
X159827955Y-32396451D01*
X159845520Y-32405840D01*
X159864579Y-32411622D01*
X159884400Y-32413574D01*
X159904221Y-32411622D01*
X159923280Y-32405840D01*
X159940845Y-32396451D01*
X159956235Y-32383821D01*
X159956755Y-32383301D01*
X160047361Y-32322760D01*
X160148037Y-32281059D01*
X160254915Y-32259800D01*
X160363885Y-32259800D01*
X160470763Y-32281059D01*
X160571439Y-32322760D01*
X160662045Y-32383301D01*
X160662565Y-32383821D01*
X160677955Y-32396451D01*
X160695520Y-32405840D01*
X160714579Y-32411622D01*
X160734400Y-32413574D01*
X160754221Y-32411622D01*
X160773280Y-32405840D01*
X160790845Y-32396451D01*
X160806235Y-32383821D01*
X160806755Y-32383301D01*
X160897361Y-32322760D01*
X160998037Y-32281059D01*
X161104915Y-32259800D01*
X161213885Y-32259800D01*
X161320763Y-32281059D01*
X161421439Y-32322760D01*
X161512045Y-32383301D01*
X161512565Y-32383821D01*
X161527955Y-32396451D01*
X161545520Y-32405840D01*
X161564579Y-32411622D01*
X161584400Y-32413574D01*
X161604221Y-32411622D01*
X161623280Y-32405840D01*
X161640845Y-32396451D01*
X161656235Y-32383821D01*
X161656755Y-32383301D01*
X161747361Y-32322760D01*
X161848037Y-32281059D01*
X161954915Y-32259800D01*
X162063885Y-32259800D01*
X162170763Y-32281059D01*
X162271439Y-32322760D01*
X162362045Y-32383301D01*
X162362565Y-32383821D01*
X162377955Y-32396451D01*
X162395520Y-32405840D01*
X162414579Y-32411622D01*
X162434400Y-32413574D01*
X162454221Y-32411622D01*
X162473280Y-32405840D01*
X162490845Y-32396451D01*
X162506235Y-32383821D01*
X162506755Y-32383301D01*
X162597361Y-32322760D01*
X162698037Y-32281059D01*
X162804915Y-32259800D01*
X162913885Y-32259800D01*
X163020763Y-32281059D01*
X163121439Y-32322760D01*
X163212045Y-32383301D01*
X163212565Y-32383821D01*
X163227955Y-32396451D01*
X163245520Y-32405840D01*
X163264579Y-32411622D01*
X163284400Y-32413574D01*
X163304221Y-32411622D01*
X163323280Y-32405840D01*
X163340845Y-32396451D01*
X163356235Y-32383821D01*
X163356755Y-32383301D01*
X163447361Y-32322760D01*
X163548037Y-32281059D01*
X163654915Y-32259800D01*
X163763885Y-32259800D01*
X163870763Y-32281059D01*
X163971439Y-32322760D01*
X164062045Y-32383301D01*
X164139099Y-32460355D01*
X164199640Y-32550961D01*
X164210741Y-32577761D01*
X164220124Y-32595317D01*
X164232759Y-32610713D01*
X164248155Y-32623348D01*
X164265720Y-32632737D01*
X164284780Y-32638519D01*
X164304601Y-32640471D01*
X164324422Y-32638519D01*
X164343481Y-32632737D01*
X164361046Y-32623349D01*
X164376442Y-32610714D01*
X164389077Y-32595318D01*
X164398466Y-32577753D01*
X164404248Y-32558693D01*
X164406200Y-32538872D01*
X164406200Y-32400914D01*
X164415651Y-32304951D01*
X164453003Y-32181820D01*
X164513656Y-32068346D01*
X164595281Y-31968885D01*
X164595286Y-31968881D01*
X164616055Y-31951836D01*
X164694748Y-31887254D01*
X164808219Y-31826603D01*
X164931350Y-31789251D01*
X165059400Y-31776640D01*
X165187449Y-31789251D01*
G37*
G36*
X134710700Y-32638900D02*
G01*
X126909300Y-32638900D01*
X126909300Y-30632500D01*
X134710700Y-30632500D01*
X134710700Y-32638900D01*
G37*
G36*
X92699913Y-26068348D02*
G01*
X93009341Y-26129897D01*
X93592286Y-26371361D01*
X94116921Y-26721911D01*
X94563089Y-27168079D01*
X94913639Y-27692714D01*
X95155103Y-28275659D01*
X95155103Y-28275661D01*
X95278200Y-28894512D01*
X95278200Y-29525488D01*
X95250012Y-29667200D01*
X95155103Y-30144341D01*
X94913639Y-30727286D01*
X94563089Y-31251921D01*
X94116921Y-31698089D01*
X93592286Y-32048639D01*
X93009341Y-32290103D01*
X92699914Y-32351651D01*
X92390488Y-32413200D01*
X91759512Y-32413200D01*
X91450086Y-32351651D01*
X91140659Y-32290103D01*
X90557714Y-32048639D01*
X90033079Y-31698089D01*
X89586911Y-31251921D01*
X89236361Y-30727286D01*
X88994897Y-30144341D01*
X88899988Y-29667200D01*
X88871800Y-29525488D01*
X88871800Y-28894512D01*
X88994897Y-28275661D01*
X88994897Y-28275659D01*
X89236361Y-27692714D01*
X89586911Y-27168079D01*
X90033079Y-26721911D01*
X90557714Y-26371361D01*
X91140659Y-26129897D01*
X91450086Y-26068349D01*
X91759512Y-26006800D01*
X92390488Y-26006800D01*
X92699913Y-26068348D01*
G37*
G36*
X170169913Y-26068348D02*
G01*
X170479341Y-26129897D01*
X171062286Y-26371361D01*
X171586921Y-26721911D01*
X172033089Y-27168079D01*
X172383639Y-27692714D01*
X172625103Y-28275659D01*
X172625103Y-28275661D01*
X172748200Y-28894512D01*
X172748200Y-29525488D01*
X172720012Y-29667200D01*
X172625103Y-30144341D01*
X172383639Y-30727286D01*
X172033089Y-31251921D01*
X171586921Y-31698089D01*
X171062286Y-32048639D01*
X170479341Y-32290103D01*
X170169914Y-32351651D01*
X169860488Y-32413200D01*
X169229512Y-32413200D01*
X168920086Y-32351651D01*
X168610659Y-32290103D01*
X168027714Y-32048639D01*
X167503079Y-31698089D01*
X167056911Y-31251921D01*
X166706361Y-30727286D01*
X166464897Y-30144341D01*
X166369988Y-29667200D01*
X166341800Y-29525488D01*
X166341800Y-28894512D01*
X166464897Y-28275661D01*
X166464897Y-28275659D01*
X166706361Y-27692714D01*
X167056911Y-27168079D01*
X167503079Y-26721911D01*
X168027714Y-26371361D01*
X168610659Y-26129897D01*
X168920086Y-26068349D01*
X169229512Y-26006800D01*
X169860488Y-26006800D01*
X170169913Y-26068348D01*
G37*
G36*
X156537449Y-28759251D02*
G01*
X156660580Y-28796603D01*
X156774054Y-28857256D01*
X156873515Y-28938881D01*
X156873517Y-28938883D01*
X156890564Y-28959655D01*
X156955146Y-29038348D01*
X157015797Y-29151819D01*
X157053149Y-29274950D01*
X157062600Y-29370913D01*
X157062600Y-30235087D01*
X157053149Y-30331050D01*
X157015797Y-30454181D01*
X156955146Y-30567652D01*
X156873517Y-30667117D01*
X156774052Y-30748746D01*
X156660581Y-30809397D01*
X156537450Y-30846749D01*
X156409400Y-30859360D01*
X156281351Y-30846749D01*
X156158220Y-30809397D01*
X156044749Y-30748746D01*
X155945284Y-30667117D01*
X155863655Y-30567652D01*
X155803004Y-30454182D01*
X155765651Y-30331049D01*
X155756200Y-30235087D01*
X155756200Y-29370914D01*
X155765651Y-29274951D01*
X155803003Y-29151820D01*
X155863656Y-29038346D01*
X155945281Y-28938885D01*
X155945286Y-28938881D01*
X155966055Y-28921836D01*
X156044748Y-28857254D01*
X156158219Y-28796603D01*
X156281350Y-28759251D01*
X156409400Y-28746640D01*
X156537449Y-28759251D01*
G37*
G36*
X165187449Y-28759251D02*
G01*
X165310580Y-28796603D01*
X165424054Y-28857256D01*
X165523515Y-28938881D01*
X165523517Y-28938883D01*
X165540564Y-28959655D01*
X165605146Y-29038348D01*
X165665797Y-29151819D01*
X165703149Y-29274950D01*
X165712600Y-29370913D01*
X165712600Y-30235087D01*
X165703149Y-30331050D01*
X165665797Y-30454181D01*
X165605146Y-30567652D01*
X165523517Y-30667117D01*
X165424052Y-30748746D01*
X165310581Y-30809397D01*
X165187450Y-30846749D01*
X165059400Y-30859360D01*
X164931351Y-30846749D01*
X164808220Y-30809397D01*
X164694749Y-30748746D01*
X164595284Y-30667117D01*
X164513655Y-30567652D01*
X164453004Y-30454182D01*
X164415651Y-30331049D01*
X164406200Y-30235087D01*
X164406200Y-29370914D01*
X164415651Y-29274951D01*
X164453003Y-29151820D01*
X164513656Y-29038346D01*
X164595281Y-28938885D01*
X164595286Y-28938881D01*
X164616055Y-28921836D01*
X164694748Y-28857254D01*
X164808219Y-28796603D01*
X164931350Y-28759251D01*
X165059400Y-28746640D01*
X165187449Y-28759251D01*
G37*
G36*
X149747683Y-27746073D02*
G01*
X149887541Y-27773892D01*
X150063191Y-27846649D01*
X150221282Y-27952282D01*
X150355718Y-28086718D01*
X150461351Y-28244809D01*
X150534108Y-28420459D01*
X150571200Y-28606937D01*
X150571200Y-28797063D01*
X150534108Y-28983541D01*
X150461351Y-29159191D01*
X150355718Y-29317282D01*
X150221282Y-29451718D01*
X150063191Y-29557351D01*
X149887541Y-29630108D01*
X149761392Y-29655200D01*
X149701064Y-29667200D01*
X149510936Y-29667200D01*
X149450608Y-29655200D01*
X149324459Y-29630108D01*
X149148809Y-29557351D01*
X148990718Y-29451718D01*
X148856282Y-29317282D01*
X148750649Y-29159191D01*
X148677892Y-28983541D01*
X148640800Y-28797063D01*
X148640800Y-28606937D01*
X148677892Y-28420459D01*
X148750649Y-28244809D01*
X148856282Y-28086718D01*
X148990718Y-27952282D01*
X149148809Y-27846649D01*
X149324459Y-27773892D01*
X149464317Y-27746073D01*
X149510936Y-27736800D01*
X149701064Y-27736800D01*
X149747683Y-27746073D01*
G37*
G36*
X147207683Y-27746073D02*
G01*
X147347541Y-27773892D01*
X147523191Y-27846649D01*
X147681282Y-27952282D01*
X147815718Y-28086718D01*
X147921351Y-28244809D01*
X147994108Y-28420459D01*
X148031200Y-28606937D01*
X148031200Y-28797063D01*
X147994108Y-28983541D01*
X147921351Y-29159191D01*
X147815718Y-29317282D01*
X147681282Y-29451718D01*
X147523191Y-29557351D01*
X147347541Y-29630108D01*
X147221392Y-29655200D01*
X147161064Y-29667200D01*
X146970936Y-29667200D01*
X146910608Y-29655200D01*
X146784459Y-29630108D01*
X146608809Y-29557351D01*
X146450718Y-29451718D01*
X146316282Y-29317282D01*
X146210649Y-29159191D01*
X146137892Y-28983541D01*
X146100800Y-28797063D01*
X146100800Y-28606937D01*
X146137892Y-28420459D01*
X146210649Y-28244809D01*
X146316282Y-28086718D01*
X146450718Y-27952282D01*
X146608809Y-27846649D01*
X146784459Y-27773892D01*
X146924317Y-27746073D01*
X146970936Y-27736800D01*
X147161064Y-27736800D01*
X147207683Y-27746073D01*
G37*
G36*
X109615683Y-27746073D02*
G01*
X109755541Y-27773892D01*
X109931191Y-27846649D01*
X110089282Y-27952282D01*
X110223718Y-28086718D01*
X110329351Y-28244809D01*
X110402108Y-28420459D01*
X110439200Y-28606937D01*
X110439200Y-28797063D01*
X110402108Y-28983541D01*
X110329351Y-29159191D01*
X110223718Y-29317282D01*
X110089282Y-29451718D01*
X109931191Y-29557351D01*
X109755541Y-29630108D01*
X109629392Y-29655200D01*
X109569064Y-29667200D01*
X109378936Y-29667200D01*
X109318608Y-29655200D01*
X109192459Y-29630108D01*
X109016809Y-29557351D01*
X108858718Y-29451718D01*
X108724282Y-29317282D01*
X108618649Y-29159191D01*
X108545892Y-28983541D01*
X108508800Y-28797063D01*
X108508800Y-28606937D01*
X108545892Y-28420459D01*
X108618649Y-28244809D01*
X108724282Y-28086718D01*
X108858718Y-27952282D01*
X109016809Y-27846649D01*
X109192459Y-27773892D01*
X109332317Y-27746073D01*
X109378936Y-27736800D01*
X109569064Y-27736800D01*
X109615683Y-27746073D01*
G37*
G36*
X107075683Y-27746073D02*
G01*
X107215541Y-27773892D01*
X107391191Y-27846649D01*
X107549282Y-27952282D01*
X107683718Y-28086718D01*
X107789351Y-28244809D01*
X107862108Y-28420459D01*
X107899200Y-28606937D01*
X107899200Y-28797063D01*
X107862108Y-28983541D01*
X107789351Y-29159191D01*
X107683718Y-29317282D01*
X107549282Y-29451718D01*
X107391191Y-29557351D01*
X107215541Y-29630108D01*
X107089392Y-29655200D01*
X107029064Y-29667200D01*
X106838936Y-29667200D01*
X106778608Y-29655200D01*
X106652459Y-29630108D01*
X106476809Y-29557351D01*
X106318718Y-29451718D01*
X106184282Y-29317282D01*
X106078649Y-29159191D01*
X106005892Y-28983541D01*
X105968800Y-28797063D01*
X105968800Y-28606937D01*
X106005892Y-28420459D01*
X106078649Y-28244809D01*
X106184282Y-28086718D01*
X106318718Y-27952282D01*
X106476809Y-27846649D01*
X106652459Y-27773892D01*
X106792317Y-27746073D01*
X106838936Y-27736800D01*
X107029064Y-27736800D01*
X107075683Y-27746073D01*
G37*
G36*
X144665921Y-27757958D02*
G01*
X144804041Y-27785431D01*
X144977509Y-27857284D01*
X145133631Y-27961602D01*
X145266398Y-28094369D01*
X145370716Y-28250491D01*
X145442569Y-28423959D01*
X145470042Y-28562079D01*
X145479200Y-28608118D01*
X145479200Y-28795882D01*
X145478965Y-28797063D01*
X145442569Y-28980041D01*
X145370716Y-29153509D01*
X145266398Y-29309631D01*
X145133631Y-29442398D01*
X144977509Y-29546716D01*
X144804041Y-29618569D01*
X144665921Y-29646042D01*
X144619882Y-29655200D01*
X144432118Y-29655200D01*
X144386079Y-29646042D01*
X144247959Y-29618569D01*
X144074491Y-29546716D01*
X143918369Y-29442398D01*
X143785602Y-29309631D01*
X143681284Y-29153509D01*
X143609431Y-28980041D01*
X143573035Y-28797063D01*
X143572800Y-28795882D01*
X143572800Y-28608118D01*
X143581958Y-28562079D01*
X143609431Y-28423959D01*
X143681284Y-28250491D01*
X143785602Y-28094369D01*
X143918369Y-27961602D01*
X144074491Y-27857284D01*
X144247959Y-27785431D01*
X144386079Y-27757958D01*
X144432118Y-27748800D01*
X144619882Y-27748800D01*
X144665921Y-27757958D01*
G37*
G36*
X159905921Y-27757958D02*
G01*
X160044041Y-27785431D01*
X160217509Y-27857284D01*
X160373631Y-27961602D01*
X160506398Y-28094369D01*
X160610716Y-28250491D01*
X160682569Y-28423959D01*
X160710042Y-28562079D01*
X160719200Y-28608118D01*
X160719200Y-28795882D01*
X160718965Y-28797063D01*
X160682569Y-28980041D01*
X160610716Y-29153509D01*
X160506398Y-29309631D01*
X160373631Y-29442398D01*
X160217509Y-29546716D01*
X160044041Y-29618569D01*
X159905921Y-29646042D01*
X159859882Y-29655200D01*
X159672118Y-29655200D01*
X159626079Y-29646042D01*
X159487959Y-29618569D01*
X159314491Y-29546716D01*
X159158369Y-29442398D01*
X159025602Y-29309631D01*
X158921284Y-29153509D01*
X158849431Y-28980041D01*
X158813035Y-28797063D01*
X158812800Y-28795882D01*
X158812800Y-28608118D01*
X158821958Y-28562079D01*
X158849431Y-28423959D01*
X158921284Y-28250491D01*
X159025602Y-28094369D01*
X159158369Y-27961602D01*
X159314491Y-27857284D01*
X159487959Y-27785431D01*
X159626079Y-27757958D01*
X159672118Y-27748800D01*
X159859882Y-27748800D01*
X159905921Y-27757958D01*
G37*
G36*
X154825921Y-27757958D02*
G01*
X154964041Y-27785431D01*
X155137509Y-27857284D01*
X155293631Y-27961602D01*
X155426398Y-28094369D01*
X155530716Y-28250491D01*
X155602569Y-28423959D01*
X155630042Y-28562079D01*
X155639200Y-28608118D01*
X155639200Y-28795882D01*
X155638965Y-28797063D01*
X155602569Y-28980041D01*
X155530716Y-29153509D01*
X155426398Y-29309631D01*
X155293631Y-29442398D01*
X155137509Y-29546716D01*
X154964041Y-29618569D01*
X154825921Y-29646042D01*
X154779882Y-29655200D01*
X154592118Y-29655200D01*
X154546079Y-29646042D01*
X154407959Y-29618569D01*
X154234491Y-29546716D01*
X154078369Y-29442398D01*
X153945602Y-29309631D01*
X153841284Y-29153509D01*
X153769431Y-28980041D01*
X153733035Y-28797063D01*
X153732800Y-28795882D01*
X153732800Y-28608118D01*
X153741958Y-28562079D01*
X153769431Y-28423959D01*
X153841284Y-28250491D01*
X153945602Y-28094369D01*
X154078369Y-27961602D01*
X154234491Y-27857284D01*
X154407959Y-27785431D01*
X154546079Y-27757958D01*
X154592118Y-27748800D01*
X154779882Y-27748800D01*
X154825921Y-27757958D01*
G37*
G36*
X142125921Y-27757958D02*
G01*
X142264041Y-27785431D01*
X142437509Y-27857284D01*
X142593631Y-27961602D01*
X142726398Y-28094369D01*
X142830716Y-28250491D01*
X142902569Y-28423959D01*
X142930042Y-28562079D01*
X142939200Y-28608118D01*
X142939200Y-28795882D01*
X142938965Y-28797063D01*
X142902569Y-28980041D01*
X142830716Y-29153509D01*
X142726398Y-29309631D01*
X142593631Y-29442398D01*
X142437509Y-29546716D01*
X142264041Y-29618569D01*
X142125921Y-29646042D01*
X142079882Y-29655200D01*
X141892118Y-29655200D01*
X141846079Y-29646042D01*
X141707959Y-29618569D01*
X141534491Y-29546716D01*
X141378369Y-29442398D01*
X141245602Y-29309631D01*
X141141284Y-29153509D01*
X141069431Y-28980041D01*
X141033035Y-28797063D01*
X141032800Y-28795882D01*
X141032800Y-28608118D01*
X141041958Y-28562079D01*
X141069431Y-28423959D01*
X141141284Y-28250491D01*
X141245602Y-28094369D01*
X141378369Y-27961602D01*
X141534491Y-27857284D01*
X141707959Y-27785431D01*
X141846079Y-27757958D01*
X141892118Y-27748800D01*
X142079882Y-27748800D01*
X142125921Y-27757958D01*
G37*
G36*
X119773921Y-27757958D02*
G01*
X119912041Y-27785431D01*
X120085509Y-27857284D01*
X120241631Y-27961602D01*
X120374398Y-28094369D01*
X120478716Y-28250491D01*
X120550569Y-28423959D01*
X120578042Y-28562079D01*
X120587200Y-28608118D01*
X120587200Y-28795882D01*
X120586965Y-28797063D01*
X120550569Y-28980041D01*
X120478716Y-29153509D01*
X120374398Y-29309631D01*
X120241631Y-29442398D01*
X120085509Y-29546716D01*
X119912041Y-29618569D01*
X119773921Y-29646042D01*
X119727882Y-29655200D01*
X119540118Y-29655200D01*
X119494079Y-29646042D01*
X119355959Y-29618569D01*
X119182491Y-29546716D01*
X119026369Y-29442398D01*
X118893602Y-29309631D01*
X118789284Y-29153509D01*
X118717431Y-28980041D01*
X118681035Y-28797063D01*
X118680800Y-28795882D01*
X118680800Y-28608118D01*
X118689958Y-28562079D01*
X118717431Y-28423959D01*
X118789284Y-28250491D01*
X118893602Y-28094369D01*
X119026369Y-27961602D01*
X119182491Y-27857284D01*
X119355959Y-27785431D01*
X119494079Y-27757958D01*
X119540118Y-27748800D01*
X119727882Y-27748800D01*
X119773921Y-27757958D01*
G37*
G36*
X114693921Y-27757958D02*
G01*
X114832041Y-27785431D01*
X115005509Y-27857284D01*
X115161631Y-27961602D01*
X115294398Y-28094369D01*
X115398716Y-28250491D01*
X115470569Y-28423959D01*
X115498042Y-28562079D01*
X115507200Y-28608118D01*
X115507200Y-28795882D01*
X115506965Y-28797063D01*
X115470569Y-28980041D01*
X115398716Y-29153509D01*
X115294398Y-29309631D01*
X115161631Y-29442398D01*
X115005509Y-29546716D01*
X114832041Y-29618569D01*
X114693921Y-29646042D01*
X114647882Y-29655200D01*
X114460118Y-29655200D01*
X114414079Y-29646042D01*
X114275959Y-29618569D01*
X114102491Y-29546716D01*
X113946369Y-29442398D01*
X113813602Y-29309631D01*
X113709284Y-29153509D01*
X113637431Y-28980041D01*
X113601035Y-28797063D01*
X113600800Y-28795882D01*
X113600800Y-28608118D01*
X113609958Y-28562079D01*
X113637431Y-28423959D01*
X113709284Y-28250491D01*
X113813602Y-28094369D01*
X113946369Y-27961602D01*
X114102491Y-27857284D01*
X114275959Y-27785431D01*
X114414079Y-27757958D01*
X114460118Y-27748800D01*
X114647882Y-27748800D01*
X114693921Y-27757958D01*
G37*
G36*
X104533921Y-27757958D02*
G01*
X104672041Y-27785431D01*
X104845509Y-27857284D01*
X105001631Y-27961602D01*
X105134398Y-28094369D01*
X105238716Y-28250491D01*
X105310569Y-28423959D01*
X105338042Y-28562079D01*
X105347200Y-28608118D01*
X105347200Y-28795882D01*
X105346965Y-28797063D01*
X105310569Y-28980041D01*
X105238716Y-29153509D01*
X105134398Y-29309631D01*
X105001631Y-29442398D01*
X104845509Y-29546716D01*
X104672041Y-29618569D01*
X104533921Y-29646042D01*
X104487882Y-29655200D01*
X104300118Y-29655200D01*
X104254079Y-29646042D01*
X104115959Y-29618569D01*
X103942491Y-29546716D01*
X103786369Y-29442398D01*
X103653602Y-29309631D01*
X103549284Y-29153509D01*
X103477431Y-28980041D01*
X103441035Y-28797063D01*
X103440800Y-28795882D01*
X103440800Y-28608118D01*
X103449958Y-28562079D01*
X103477431Y-28423959D01*
X103549284Y-28250491D01*
X103653602Y-28094369D01*
X103786369Y-27961602D01*
X103942491Y-27857284D01*
X104115959Y-27785431D01*
X104254079Y-27757958D01*
X104300118Y-27748800D01*
X104487882Y-27748800D01*
X104533921Y-27757958D01*
G37*
G36*
X101993921Y-27757958D02*
G01*
X102132041Y-27785431D01*
X102305509Y-27857284D01*
X102461631Y-27961602D01*
X102594398Y-28094369D01*
X102698716Y-28250491D01*
X102770569Y-28423959D01*
X102798042Y-28562079D01*
X102807200Y-28608118D01*
X102807200Y-28795882D01*
X102806965Y-28797063D01*
X102770569Y-28980041D01*
X102698716Y-29153509D01*
X102594398Y-29309631D01*
X102461631Y-29442398D01*
X102305509Y-29546716D01*
X102132041Y-29618569D01*
X101993921Y-29646042D01*
X101947882Y-29655200D01*
X101760118Y-29655200D01*
X101714079Y-29646042D01*
X101575959Y-29618569D01*
X101402491Y-29546716D01*
X101246369Y-29442398D01*
X101113602Y-29309631D01*
X101009284Y-29153509D01*
X100937431Y-28980041D01*
X100901035Y-28797063D01*
X100900800Y-28795882D01*
X100900800Y-28608118D01*
X100909958Y-28562079D01*
X100937431Y-28423959D01*
X101009284Y-28250491D01*
X101113602Y-28094369D01*
X101246369Y-27961602D01*
X101402491Y-27857284D01*
X101575959Y-27785431D01*
X101714079Y-27757958D01*
X101760118Y-27748800D01*
X101947882Y-27748800D01*
X101993921Y-27757958D01*
G37*
M02*
