G04 #@! TF.GenerationSoftware,KiCad,Pcbnew,(5.1.6-0-10_14)*
G04 #@! TF.CreationDate,2020-08-01T23:48:07-04:00*
G04 #@! TF.ProjectId,imperializer,696d7065-7269-4616-9c69-7a65722e6b69,1.1*
G04 #@! TF.SameCoordinates,Original*
G04 #@! TF.FileFunction,Soldermask,Top*
G04 #@! TF.FilePolarity,Negative*
%FSLAX46Y46*%
G04 Gerber Fmt 4.6, Leading zero omitted, Abs format (unit mm)*
G04 Created by KiCad (PCBNEW (5.1.6-0-10_14)) date 2020-08-01 23:48:07*
%MOMM*%
%LPD*%
G01*
G04 APERTURE LIST*
%ADD10C,0.100000*%
G04 APERTURE END LIST*
D10*
G36*
X170169913Y-128938348D02*
G01*
X170479341Y-128999897D01*
X171062286Y-129241361D01*
X171586921Y-129591911D01*
X172033089Y-130038079D01*
X172383639Y-130562714D01*
X172625103Y-131145659D01*
X172638499Y-131213005D01*
X172724825Y-131646996D01*
X172748200Y-131764514D01*
X172748200Y-132395486D01*
X172625103Y-133014341D01*
X172383639Y-133597286D01*
X172033089Y-134121921D01*
X171586921Y-134568089D01*
X171062286Y-134918639D01*
X170479341Y-135160103D01*
X170169913Y-135221652D01*
X169860488Y-135283200D01*
X169229512Y-135283200D01*
X168920087Y-135221652D01*
X168610659Y-135160103D01*
X168027714Y-134918639D01*
X167503079Y-134568089D01*
X167056911Y-134121921D01*
X166706361Y-133597286D01*
X166464897Y-133014341D01*
X166341800Y-132395486D01*
X166341800Y-131764514D01*
X166365176Y-131646996D01*
X166451501Y-131213005D01*
X166464897Y-131145659D01*
X166706361Y-130562714D01*
X167056911Y-130038079D01*
X167503079Y-129591911D01*
X168027714Y-129241361D01*
X168610659Y-128999897D01*
X168920087Y-128938348D01*
X169229512Y-128876800D01*
X169860488Y-128876800D01*
X170169913Y-128938348D01*
G37*
G36*
X92699913Y-128938348D02*
G01*
X93009341Y-128999897D01*
X93592286Y-129241361D01*
X94116921Y-129591911D01*
X94563089Y-130038079D01*
X94913639Y-130562714D01*
X95155103Y-131145659D01*
X95168499Y-131213005D01*
X95254825Y-131646996D01*
X95278200Y-131764514D01*
X95278200Y-132395486D01*
X95155103Y-133014341D01*
X94913639Y-133597286D01*
X94563089Y-134121921D01*
X94116921Y-134568089D01*
X93592286Y-134918639D01*
X93009341Y-135160103D01*
X92699913Y-135221652D01*
X92390488Y-135283200D01*
X91759512Y-135283200D01*
X91450087Y-135221652D01*
X91140659Y-135160103D01*
X90557714Y-134918639D01*
X90033079Y-134568089D01*
X89586911Y-134121921D01*
X89236361Y-133597286D01*
X88994897Y-133014341D01*
X88871800Y-132395486D01*
X88871800Y-131764514D01*
X88895176Y-131646996D01*
X88981501Y-131213005D01*
X88994897Y-131145659D01*
X89236361Y-130562714D01*
X89586911Y-130038079D01*
X90033079Y-129591911D01*
X90557714Y-129241361D01*
X91140659Y-128999897D01*
X91450087Y-128938348D01*
X91759512Y-128876800D01*
X92390488Y-128876800D01*
X92699913Y-128938348D01*
G37*
G36*
X133543881Y-129255023D02*
G01*
X133827652Y-129311468D01*
X134228608Y-129477550D01*
X134589458Y-129718662D01*
X134896338Y-130025542D01*
X135137450Y-130386392D01*
X135303532Y-130787348D01*
X135388200Y-131213005D01*
X135388200Y-131646995D01*
X135303532Y-132072652D01*
X135137450Y-132473608D01*
X134896338Y-132834458D01*
X134589458Y-133141338D01*
X134228608Y-133382450D01*
X133827652Y-133548532D01*
X133582558Y-133597284D01*
X133401996Y-133633200D01*
X132968004Y-133633200D01*
X132787442Y-133597284D01*
X132542348Y-133548532D01*
X132141392Y-133382450D01*
X131780542Y-133141338D01*
X131473662Y-132834458D01*
X131232550Y-132473608D01*
X131066468Y-132072652D01*
X130981800Y-131646995D01*
X130981800Y-131213005D01*
X131066468Y-130787348D01*
X131232550Y-130386392D01*
X131473662Y-130025542D01*
X131780542Y-129718662D01*
X132141392Y-129477550D01*
X132542348Y-129311468D01*
X132826119Y-129255023D01*
X132968004Y-129226800D01*
X133401996Y-129226800D01*
X133543881Y-129255023D01*
G37*
G36*
X109743881Y-129255023D02*
G01*
X110027652Y-129311468D01*
X110428608Y-129477550D01*
X110789458Y-129718662D01*
X111096338Y-130025542D01*
X111337450Y-130386392D01*
X111503532Y-130787348D01*
X111588200Y-131213005D01*
X111588200Y-131646995D01*
X111503532Y-132072652D01*
X111337450Y-132473608D01*
X111096338Y-132834458D01*
X110789458Y-133141338D01*
X110428608Y-133382450D01*
X110027652Y-133548532D01*
X109782558Y-133597284D01*
X109601996Y-133633200D01*
X109168004Y-133633200D01*
X108987442Y-133597284D01*
X108742348Y-133548532D01*
X108341392Y-133382450D01*
X107980542Y-133141338D01*
X107673662Y-132834458D01*
X107432550Y-132473608D01*
X107266468Y-132072652D01*
X107181800Y-131646995D01*
X107181800Y-131213005D01*
X107266468Y-130787348D01*
X107432550Y-130386392D01*
X107673662Y-130025542D01*
X107980542Y-129718662D01*
X108341392Y-129477550D01*
X108742348Y-129311468D01*
X109026119Y-129255023D01*
X109168004Y-129226800D01*
X109601996Y-129226800D01*
X109743881Y-129255023D01*
G37*
G36*
X90311682Y-126044073D02*
G01*
X90451541Y-126071892D01*
X90627191Y-126144649D01*
X90785282Y-126250282D01*
X90919718Y-126384718D01*
X91025351Y-126542809D01*
X91098108Y-126718459D01*
X91135200Y-126904937D01*
X91135200Y-127095063D01*
X91098108Y-127281541D01*
X91025351Y-127457191D01*
X90919718Y-127615282D01*
X90785282Y-127749718D01*
X90627191Y-127855351D01*
X90451541Y-127928108D01*
X90311682Y-127955927D01*
X90265064Y-127965200D01*
X90074936Y-127965200D01*
X90028318Y-127955927D01*
X89888459Y-127928108D01*
X89712809Y-127855351D01*
X89554718Y-127749718D01*
X89420282Y-127615282D01*
X89314649Y-127457191D01*
X89241892Y-127281541D01*
X89204800Y-127095063D01*
X89204800Y-126904937D01*
X89241892Y-126718459D01*
X89314649Y-126542809D01*
X89420282Y-126384718D01*
X89554718Y-126250282D01*
X89712809Y-126144649D01*
X89888459Y-126071892D01*
X90028318Y-126044073D01*
X90074936Y-126034800D01*
X90265064Y-126034800D01*
X90311682Y-126044073D01*
G37*
G36*
X103011682Y-126044073D02*
G01*
X103151541Y-126071892D01*
X103327191Y-126144649D01*
X103485282Y-126250282D01*
X103619718Y-126384718D01*
X103725351Y-126542809D01*
X103798108Y-126718459D01*
X103835200Y-126904937D01*
X103835200Y-127095063D01*
X103798108Y-127281541D01*
X103725351Y-127457191D01*
X103619718Y-127615282D01*
X103485282Y-127749718D01*
X103327191Y-127855351D01*
X103151541Y-127928108D01*
X103011682Y-127955927D01*
X102965064Y-127965200D01*
X102774936Y-127965200D01*
X102728318Y-127955927D01*
X102588459Y-127928108D01*
X102412809Y-127855351D01*
X102254718Y-127749718D01*
X102120282Y-127615282D01*
X102014649Y-127457191D01*
X101941892Y-127281541D01*
X101904800Y-127095063D01*
X101904800Y-126904937D01*
X101941892Y-126718459D01*
X102014649Y-126542809D01*
X102120282Y-126384718D01*
X102254718Y-126250282D01*
X102412809Y-126144649D01*
X102588459Y-126071892D01*
X102728318Y-126044073D01*
X102774936Y-126034800D01*
X102965064Y-126034800D01*
X103011682Y-126044073D01*
G37*
G36*
X165254600Y-124686918D02*
G01*
X165407210Y-124717274D01*
X165598879Y-124796666D01*
X165771376Y-124911925D01*
X165918075Y-125058624D01*
X166033334Y-125231121D01*
X166112726Y-125422790D01*
X166153200Y-125626270D01*
X166153200Y-125833730D01*
X166112726Y-126037210D01*
X166033334Y-126228879D01*
X165918075Y-126401376D01*
X165771376Y-126548075D01*
X165598879Y-126663334D01*
X165407210Y-126742726D01*
X165254600Y-126773082D01*
X165203731Y-126783200D01*
X164996269Y-126783200D01*
X164945400Y-126773082D01*
X164792790Y-126742726D01*
X164601121Y-126663334D01*
X164428624Y-126548075D01*
X164281925Y-126401376D01*
X164166666Y-126228879D01*
X164087274Y-126037210D01*
X164046800Y-125833730D01*
X164046800Y-125626270D01*
X164087274Y-125422790D01*
X164166666Y-125231121D01*
X164281925Y-125058624D01*
X164428624Y-124911925D01*
X164601121Y-124796666D01*
X164792790Y-124717274D01*
X164945400Y-124686918D01*
X164996269Y-124676800D01*
X165203731Y-124676800D01*
X165254600Y-124686918D01*
G37*
G36*
X103011683Y-123504073D02*
G01*
X103151541Y-123531892D01*
X103327191Y-123604649D01*
X103485282Y-123710282D01*
X103619718Y-123844718D01*
X103725351Y-124002809D01*
X103798108Y-124178459D01*
X103835200Y-124364937D01*
X103835200Y-124555063D01*
X103798108Y-124741541D01*
X103725351Y-124917191D01*
X103619718Y-125075282D01*
X103485282Y-125209718D01*
X103327191Y-125315351D01*
X103151541Y-125388108D01*
X103011682Y-125415927D01*
X102965064Y-125425200D01*
X102774936Y-125425200D01*
X102728318Y-125415927D01*
X102588459Y-125388108D01*
X102412809Y-125315351D01*
X102254718Y-125209718D01*
X102120282Y-125075282D01*
X102014649Y-124917191D01*
X101941892Y-124741541D01*
X101904800Y-124555063D01*
X101904800Y-124364937D01*
X101941892Y-124178459D01*
X102014649Y-124002809D01*
X102120282Y-123844718D01*
X102254718Y-123710282D01*
X102412809Y-123604649D01*
X102588459Y-123531892D01*
X102728317Y-123504073D01*
X102774936Y-123494800D01*
X102965064Y-123494800D01*
X103011683Y-123504073D01*
G37*
G36*
X90311683Y-123504073D02*
G01*
X90451541Y-123531892D01*
X90627191Y-123604649D01*
X90785282Y-123710282D01*
X90919718Y-123844718D01*
X91025351Y-124002809D01*
X91098108Y-124178459D01*
X91135200Y-124364937D01*
X91135200Y-124555063D01*
X91098108Y-124741541D01*
X91025351Y-124917191D01*
X90919718Y-125075282D01*
X90785282Y-125209718D01*
X90627191Y-125315351D01*
X90451541Y-125388108D01*
X90311682Y-125415927D01*
X90265064Y-125425200D01*
X90074936Y-125425200D01*
X90028318Y-125415927D01*
X89888459Y-125388108D01*
X89712809Y-125315351D01*
X89554718Y-125209718D01*
X89420282Y-125075282D01*
X89314649Y-124917191D01*
X89241892Y-124741541D01*
X89204800Y-124555063D01*
X89204800Y-124364937D01*
X89241892Y-124178459D01*
X89314649Y-124002809D01*
X89420282Y-123844718D01*
X89554718Y-123710282D01*
X89712809Y-123604649D01*
X89888459Y-123531892D01*
X90028317Y-123504073D01*
X90074936Y-123494800D01*
X90265064Y-123494800D01*
X90311683Y-123504073D01*
G37*
G36*
X150218881Y-121015023D02*
G01*
X150502652Y-121071468D01*
X150903608Y-121237550D01*
X151264458Y-121478662D01*
X151571338Y-121785542D01*
X151812450Y-122146392D01*
X151978532Y-122547348D01*
X152063200Y-122973005D01*
X152063200Y-123406995D01*
X151978532Y-123832652D01*
X151812450Y-124233608D01*
X151571338Y-124594458D01*
X151264458Y-124901338D01*
X150903608Y-125142450D01*
X150502652Y-125308532D01*
X150218881Y-125364977D01*
X150076996Y-125393200D01*
X149643004Y-125393200D01*
X149501119Y-125364977D01*
X149217348Y-125308532D01*
X148816392Y-125142450D01*
X148455542Y-124901338D01*
X148148662Y-124594458D01*
X147907550Y-124233608D01*
X147741468Y-123832652D01*
X147656800Y-123406995D01*
X147656800Y-122973005D01*
X147741468Y-122547348D01*
X147907550Y-122146392D01*
X148148662Y-121785542D01*
X148455542Y-121478662D01*
X148816392Y-121237550D01*
X149217348Y-121071468D01*
X149501119Y-121015023D01*
X149643004Y-120986800D01*
X150076996Y-120986800D01*
X150218881Y-121015023D01*
G37*
G36*
X121643881Y-121015023D02*
G01*
X121927652Y-121071468D01*
X122328608Y-121237550D01*
X122689458Y-121478662D01*
X122996338Y-121785542D01*
X123237450Y-122146392D01*
X123403532Y-122547348D01*
X123488200Y-122973005D01*
X123488200Y-123406995D01*
X123403532Y-123832652D01*
X123237450Y-124233608D01*
X122996338Y-124594458D01*
X122689458Y-124901338D01*
X122328608Y-125142450D01*
X121927652Y-125308532D01*
X121643881Y-125364977D01*
X121501996Y-125393200D01*
X121068004Y-125393200D01*
X120926119Y-125364977D01*
X120642348Y-125308532D01*
X120241392Y-125142450D01*
X119880542Y-124901338D01*
X119573662Y-124594458D01*
X119332550Y-124233608D01*
X119166468Y-123832652D01*
X119081800Y-123406995D01*
X119081800Y-122973005D01*
X119166468Y-122547348D01*
X119332550Y-122146392D01*
X119573662Y-121785542D01*
X119880542Y-121478662D01*
X120241392Y-121237550D01*
X120642348Y-121071468D01*
X120926119Y-121015023D01*
X121068004Y-120986800D01*
X121501996Y-120986800D01*
X121643881Y-121015023D01*
G37*
G36*
X116356953Y-122146392D02*
G01*
X116512210Y-122177274D01*
X116703879Y-122256666D01*
X116876376Y-122371925D01*
X117023075Y-122518624D01*
X117138334Y-122691121D01*
X117217726Y-122882790D01*
X117258200Y-123086270D01*
X117258200Y-123293730D01*
X117217726Y-123497210D01*
X117138334Y-123688879D01*
X117023075Y-123861376D01*
X116876376Y-124008075D01*
X116703879Y-124123334D01*
X116512210Y-124202726D01*
X116359600Y-124233082D01*
X116308731Y-124243200D01*
X116101269Y-124243200D01*
X116050400Y-124233082D01*
X115897790Y-124202726D01*
X115706121Y-124123334D01*
X115533624Y-124008075D01*
X115386925Y-123861376D01*
X115271666Y-123688879D01*
X115192274Y-123497210D01*
X115151800Y-123293730D01*
X115151800Y-123086270D01*
X115192274Y-122882790D01*
X115271666Y-122691121D01*
X115386925Y-122518624D01*
X115533624Y-122371925D01*
X115706121Y-122256666D01*
X115897790Y-122177274D01*
X116053047Y-122146392D01*
X116101269Y-122136800D01*
X116308731Y-122136800D01*
X116356953Y-122146392D01*
G37*
G36*
X165251953Y-122146392D02*
G01*
X165407210Y-122177274D01*
X165598879Y-122256666D01*
X165771376Y-122371925D01*
X165918075Y-122518624D01*
X166033334Y-122691121D01*
X166112726Y-122882790D01*
X166153200Y-123086270D01*
X166153200Y-123293730D01*
X166112726Y-123497210D01*
X166033334Y-123688879D01*
X165918075Y-123861376D01*
X165771376Y-124008075D01*
X165598879Y-124123334D01*
X165407210Y-124202726D01*
X165254600Y-124233082D01*
X165203731Y-124243200D01*
X164996269Y-124243200D01*
X164945400Y-124233082D01*
X164792790Y-124202726D01*
X164601121Y-124123334D01*
X164428624Y-124008075D01*
X164281925Y-123861376D01*
X164166666Y-123688879D01*
X164087274Y-123497210D01*
X164046800Y-123293730D01*
X164046800Y-123086270D01*
X164087274Y-122882790D01*
X164166666Y-122691121D01*
X164281925Y-122518624D01*
X164428624Y-122371925D01*
X164601121Y-122256666D01*
X164792790Y-122177274D01*
X164948047Y-122146392D01*
X164996269Y-122136800D01*
X165203731Y-122136800D01*
X165251953Y-122146392D01*
G37*
G36*
X155091953Y-122146392D02*
G01*
X155247210Y-122177274D01*
X155438879Y-122256666D01*
X155611376Y-122371925D01*
X155758075Y-122518624D01*
X155873334Y-122691121D01*
X155952726Y-122882790D01*
X155993200Y-123086270D01*
X155993200Y-123293730D01*
X155952726Y-123497210D01*
X155873334Y-123688879D01*
X155758075Y-123861376D01*
X155611376Y-124008075D01*
X155438879Y-124123334D01*
X155247210Y-124202726D01*
X155094600Y-124233082D01*
X155043731Y-124243200D01*
X154836269Y-124243200D01*
X154785400Y-124233082D01*
X154632790Y-124202726D01*
X154441121Y-124123334D01*
X154268624Y-124008075D01*
X154121925Y-123861376D01*
X154006666Y-123688879D01*
X153927274Y-123497210D01*
X153886800Y-123293730D01*
X153886800Y-123086270D01*
X153927274Y-122882790D01*
X154006666Y-122691121D01*
X154121925Y-122518624D01*
X154268624Y-122371925D01*
X154441121Y-122256666D01*
X154632790Y-122177274D01*
X154788047Y-122146392D01*
X154836269Y-122136800D01*
X155043731Y-122136800D01*
X155091953Y-122146392D01*
G37*
G36*
X144931953Y-122146392D02*
G01*
X145087210Y-122177274D01*
X145278879Y-122256666D01*
X145451376Y-122371925D01*
X145598075Y-122518624D01*
X145713334Y-122691121D01*
X145792726Y-122882790D01*
X145833200Y-123086270D01*
X145833200Y-123293730D01*
X145792726Y-123497210D01*
X145713334Y-123688879D01*
X145598075Y-123861376D01*
X145451376Y-124008075D01*
X145278879Y-124123334D01*
X145087210Y-124202726D01*
X144934600Y-124233082D01*
X144883731Y-124243200D01*
X144676269Y-124243200D01*
X144625400Y-124233082D01*
X144472790Y-124202726D01*
X144281121Y-124123334D01*
X144108624Y-124008075D01*
X143961925Y-123861376D01*
X143846666Y-123688879D01*
X143767274Y-123497210D01*
X143726800Y-123293730D01*
X143726800Y-123086270D01*
X143767274Y-122882790D01*
X143846666Y-122691121D01*
X143961925Y-122518624D01*
X144108624Y-122371925D01*
X144281121Y-122256666D01*
X144472790Y-122177274D01*
X144628047Y-122146392D01*
X144676269Y-122136800D01*
X144883731Y-122136800D01*
X144931953Y-122146392D01*
G37*
G36*
X126516953Y-122146392D02*
G01*
X126672210Y-122177274D01*
X126863879Y-122256666D01*
X127036376Y-122371925D01*
X127183075Y-122518624D01*
X127298334Y-122691121D01*
X127377726Y-122882790D01*
X127418200Y-123086270D01*
X127418200Y-123293730D01*
X127377726Y-123497210D01*
X127298334Y-123688879D01*
X127183075Y-123861376D01*
X127036376Y-124008075D01*
X126863879Y-124123334D01*
X126672210Y-124202726D01*
X126519600Y-124233082D01*
X126468731Y-124243200D01*
X126261269Y-124243200D01*
X126210400Y-124233082D01*
X126057790Y-124202726D01*
X125866121Y-124123334D01*
X125693624Y-124008075D01*
X125546925Y-123861376D01*
X125431666Y-123688879D01*
X125352274Y-123497210D01*
X125311800Y-123293730D01*
X125311800Y-123086270D01*
X125352274Y-122882790D01*
X125431666Y-122691121D01*
X125546925Y-122518624D01*
X125693624Y-122371925D01*
X125866121Y-122256666D01*
X126057790Y-122177274D01*
X126213047Y-122146392D01*
X126261269Y-122136800D01*
X126468731Y-122136800D01*
X126516953Y-122146392D01*
G37*
G36*
X103011682Y-120964073D02*
G01*
X103151541Y-120991892D01*
X103327191Y-121064649D01*
X103485282Y-121170282D01*
X103619718Y-121304718D01*
X103725351Y-121462809D01*
X103798108Y-121638459D01*
X103835200Y-121824937D01*
X103835200Y-122015063D01*
X103798108Y-122201541D01*
X103725351Y-122377191D01*
X103619718Y-122535282D01*
X103485282Y-122669718D01*
X103327191Y-122775351D01*
X103151541Y-122848108D01*
X103011682Y-122875927D01*
X102965064Y-122885200D01*
X102774936Y-122885200D01*
X102728318Y-122875927D01*
X102588459Y-122848108D01*
X102412809Y-122775351D01*
X102254718Y-122669718D01*
X102120282Y-122535282D01*
X102014649Y-122377191D01*
X101941892Y-122201541D01*
X101904800Y-122015063D01*
X101904800Y-121824937D01*
X101941892Y-121638459D01*
X102014649Y-121462809D01*
X102120282Y-121304718D01*
X102254718Y-121170282D01*
X102412809Y-121064649D01*
X102588459Y-120991892D01*
X102728318Y-120964073D01*
X102774936Y-120954800D01*
X102965064Y-120954800D01*
X103011682Y-120964073D01*
G37*
G36*
X90311682Y-120964073D02*
G01*
X90451541Y-120991892D01*
X90627191Y-121064649D01*
X90785282Y-121170282D01*
X90919718Y-121304718D01*
X91025351Y-121462809D01*
X91098108Y-121638459D01*
X91135200Y-121824937D01*
X91135200Y-122015063D01*
X91098108Y-122201541D01*
X91025351Y-122377191D01*
X90919718Y-122535282D01*
X90785282Y-122669718D01*
X90627191Y-122775351D01*
X90451541Y-122848108D01*
X90311682Y-122875927D01*
X90265064Y-122885200D01*
X90074936Y-122885200D01*
X90028318Y-122875927D01*
X89888459Y-122848108D01*
X89712809Y-122775351D01*
X89554718Y-122669718D01*
X89420282Y-122535282D01*
X89314649Y-122377191D01*
X89241892Y-122201541D01*
X89204800Y-122015063D01*
X89204800Y-121824937D01*
X89241892Y-121638459D01*
X89314649Y-121462809D01*
X89420282Y-121304718D01*
X89554718Y-121170282D01*
X89712809Y-121064649D01*
X89888459Y-120991892D01*
X90028318Y-120964073D01*
X90074936Y-120954800D01*
X90265064Y-120954800D01*
X90311682Y-120964073D01*
G37*
G36*
X117855130Y-119396881D02*
G01*
X117855133Y-119396882D01*
X117855132Y-119396882D01*
X118092296Y-119495118D01*
X118092297Y-119495119D01*
X118305742Y-119637738D01*
X118487262Y-119819258D01*
X118601435Y-119990131D01*
X118629882Y-120032704D01*
X118670066Y-120129718D01*
X118728119Y-120269870D01*
X118778200Y-120521646D01*
X118778200Y-120778354D01*
X118728119Y-121030130D01*
X118728118Y-121030132D01*
X118629882Y-121267296D01*
X118629881Y-121267297D01*
X118487262Y-121480742D01*
X118305742Y-121662262D01*
X118134869Y-121776435D01*
X118092296Y-121804882D01*
X117908859Y-121880864D01*
X117855130Y-121903119D01*
X117603354Y-121953200D01*
X117346646Y-121953200D01*
X117094870Y-121903119D01*
X117041141Y-121880864D01*
X116857704Y-121804882D01*
X116815131Y-121776435D01*
X116644258Y-121662262D01*
X116462738Y-121480742D01*
X116320119Y-121267297D01*
X116320118Y-121267296D01*
X116221882Y-121030132D01*
X116221881Y-121030130D01*
X116171800Y-120778354D01*
X116171800Y-120521646D01*
X116221881Y-120269870D01*
X116279934Y-120129718D01*
X116320118Y-120032704D01*
X116348565Y-119990131D01*
X116462738Y-119819258D01*
X116644258Y-119637738D01*
X116857703Y-119495119D01*
X116857704Y-119495118D01*
X117094868Y-119396882D01*
X117094867Y-119396882D01*
X117094870Y-119396881D01*
X117346646Y-119346800D01*
X117603354Y-119346800D01*
X117855130Y-119396881D01*
G37*
G36*
X146430130Y-119396881D02*
G01*
X146430133Y-119396882D01*
X146430132Y-119396882D01*
X146667296Y-119495118D01*
X146667297Y-119495119D01*
X146880742Y-119637738D01*
X147062262Y-119819258D01*
X147176435Y-119990131D01*
X147204882Y-120032704D01*
X147245066Y-120129718D01*
X147303119Y-120269870D01*
X147353200Y-120521646D01*
X147353200Y-120778354D01*
X147303119Y-121030130D01*
X147303118Y-121030132D01*
X147204882Y-121267296D01*
X147204881Y-121267297D01*
X147062262Y-121480742D01*
X146880742Y-121662262D01*
X146709869Y-121776435D01*
X146667296Y-121804882D01*
X146483859Y-121880864D01*
X146430130Y-121903119D01*
X146178354Y-121953200D01*
X145921646Y-121953200D01*
X145669870Y-121903119D01*
X145616141Y-121880864D01*
X145432704Y-121804882D01*
X145390131Y-121776435D01*
X145219258Y-121662262D01*
X145037738Y-121480742D01*
X144895119Y-121267297D01*
X144895118Y-121267296D01*
X144796882Y-121030132D01*
X144796881Y-121030130D01*
X144746800Y-120778354D01*
X144746800Y-120521646D01*
X144796881Y-120269870D01*
X144854934Y-120129718D01*
X144895118Y-120032704D01*
X144923565Y-119990131D01*
X145037738Y-119819258D01*
X145219258Y-119637738D01*
X145432703Y-119495119D01*
X145432704Y-119495118D01*
X145669868Y-119396882D01*
X145669867Y-119396882D01*
X145669870Y-119396881D01*
X145921646Y-119346800D01*
X146178354Y-119346800D01*
X146430130Y-119396881D01*
G37*
G36*
X166153200Y-121703200D02*
G01*
X164046800Y-121703200D01*
X164046800Y-119596800D01*
X166153200Y-119596800D01*
X166153200Y-121703200D01*
G37*
G36*
X103011682Y-118424073D02*
G01*
X103151541Y-118451892D01*
X103327191Y-118524649D01*
X103485282Y-118630282D01*
X103619718Y-118764718D01*
X103725351Y-118922809D01*
X103798108Y-119098459D01*
X103835200Y-119284937D01*
X103835200Y-119475063D01*
X103798108Y-119661541D01*
X103725351Y-119837191D01*
X103619718Y-119995282D01*
X103485282Y-120129718D01*
X103327191Y-120235351D01*
X103151541Y-120308108D01*
X103011683Y-120335927D01*
X102965064Y-120345200D01*
X102774936Y-120345200D01*
X102728317Y-120335927D01*
X102588459Y-120308108D01*
X102412809Y-120235351D01*
X102254718Y-120129718D01*
X102120282Y-119995282D01*
X102014649Y-119837191D01*
X101941892Y-119661541D01*
X101904800Y-119475063D01*
X101904800Y-119284937D01*
X101941892Y-119098459D01*
X102014649Y-118922809D01*
X102120282Y-118764718D01*
X102254718Y-118630282D01*
X102412809Y-118524649D01*
X102588459Y-118451892D01*
X102728318Y-118424073D01*
X102774936Y-118414800D01*
X102965064Y-118414800D01*
X103011682Y-118424073D01*
G37*
G36*
X90311682Y-118424073D02*
G01*
X90451541Y-118451892D01*
X90627191Y-118524649D01*
X90785282Y-118630282D01*
X90919718Y-118764718D01*
X91025351Y-118922809D01*
X91098108Y-119098459D01*
X91135200Y-119284937D01*
X91135200Y-119475063D01*
X91098108Y-119661541D01*
X91025351Y-119837191D01*
X90919718Y-119995282D01*
X90785282Y-120129718D01*
X90627191Y-120235351D01*
X90451541Y-120308108D01*
X90311683Y-120335927D01*
X90265064Y-120345200D01*
X90074936Y-120345200D01*
X90028317Y-120335927D01*
X89888459Y-120308108D01*
X89712809Y-120235351D01*
X89554718Y-120129718D01*
X89420282Y-119995282D01*
X89314649Y-119837191D01*
X89241892Y-119661541D01*
X89204800Y-119475063D01*
X89204800Y-119284937D01*
X89241892Y-119098459D01*
X89314649Y-118922809D01*
X89420282Y-118764718D01*
X89554718Y-118630282D01*
X89712809Y-118524649D01*
X89888459Y-118451892D01*
X90028318Y-118424073D01*
X90074936Y-118414800D01*
X90265064Y-118414800D01*
X90311682Y-118424073D01*
G37*
G36*
X152780130Y-116856881D02*
G01*
X152780133Y-116856882D01*
X152780132Y-116856882D01*
X153017296Y-116955118D01*
X153017297Y-116955119D01*
X153230742Y-117097738D01*
X153412262Y-117279258D01*
X153526435Y-117450131D01*
X153554882Y-117492704D01*
X153571317Y-117532382D01*
X153653119Y-117729870D01*
X153703200Y-117981646D01*
X153703200Y-118238354D01*
X153653119Y-118490130D01*
X153653118Y-118490132D01*
X153554882Y-118727296D01*
X153554881Y-118727297D01*
X153412262Y-118940742D01*
X153230742Y-119122262D01*
X153059869Y-119236435D01*
X153017296Y-119264882D01*
X152833859Y-119340864D01*
X152780130Y-119363119D01*
X152528354Y-119413200D01*
X152271646Y-119413200D01*
X152019870Y-119363119D01*
X151966141Y-119340864D01*
X151782704Y-119264882D01*
X151740131Y-119236435D01*
X151569258Y-119122262D01*
X151387738Y-118940742D01*
X151245119Y-118727297D01*
X151245118Y-118727296D01*
X151146882Y-118490132D01*
X151146881Y-118490130D01*
X151096800Y-118238354D01*
X151096800Y-117981646D01*
X151146881Y-117729870D01*
X151228683Y-117532382D01*
X151245118Y-117492704D01*
X151273565Y-117450131D01*
X151387738Y-117279258D01*
X151569258Y-117097738D01*
X151782703Y-116955119D01*
X151782704Y-116955118D01*
X152019868Y-116856882D01*
X152019867Y-116856882D01*
X152019870Y-116856881D01*
X152271646Y-116806800D01*
X152528354Y-116806800D01*
X152780130Y-116856881D01*
G37*
G36*
X124205130Y-116856881D02*
G01*
X124205133Y-116856882D01*
X124205132Y-116856882D01*
X124442296Y-116955118D01*
X124442297Y-116955119D01*
X124655742Y-117097738D01*
X124837262Y-117279258D01*
X124951435Y-117450131D01*
X124979882Y-117492704D01*
X124996317Y-117532382D01*
X125078119Y-117729870D01*
X125128200Y-117981646D01*
X125128200Y-118238354D01*
X125078119Y-118490130D01*
X125078118Y-118490132D01*
X124979882Y-118727296D01*
X124979881Y-118727297D01*
X124837262Y-118940742D01*
X124655742Y-119122262D01*
X124484869Y-119236435D01*
X124442296Y-119264882D01*
X124258859Y-119340864D01*
X124205130Y-119363119D01*
X123953354Y-119413200D01*
X123696646Y-119413200D01*
X123444870Y-119363119D01*
X123391141Y-119340864D01*
X123207704Y-119264882D01*
X123165131Y-119236435D01*
X122994258Y-119122262D01*
X122812738Y-118940742D01*
X122670119Y-118727297D01*
X122670118Y-118727296D01*
X122571882Y-118490132D01*
X122571881Y-118490130D01*
X122521800Y-118238354D01*
X122521800Y-117981646D01*
X122571881Y-117729870D01*
X122653683Y-117532382D01*
X122670118Y-117492704D01*
X122698565Y-117450131D01*
X122812738Y-117279258D01*
X122994258Y-117097738D01*
X123207703Y-116955119D01*
X123207704Y-116955118D01*
X123444868Y-116856882D01*
X123444867Y-116856882D01*
X123444870Y-116856881D01*
X123696646Y-116806800D01*
X123953354Y-116806800D01*
X124205130Y-116856881D01*
G37*
G36*
X133438684Y-114478404D02*
G01*
X133689100Y-114528214D01*
X134003611Y-114658489D01*
X134286663Y-114847618D01*
X134527382Y-115088337D01*
X134716511Y-115371389D01*
X134846786Y-115685900D01*
X134884360Y-115874800D01*
X134906211Y-115984649D01*
X134913200Y-116019788D01*
X134913200Y-116360212D01*
X134846786Y-116694100D01*
X134716511Y-117008611D01*
X134527382Y-117291663D01*
X134286663Y-117532382D01*
X134003611Y-117721511D01*
X133689100Y-117851786D01*
X133438684Y-117901597D01*
X133355213Y-117918200D01*
X133014787Y-117918200D01*
X132931316Y-117901597D01*
X132680900Y-117851786D01*
X132366389Y-117721511D01*
X132083337Y-117532382D01*
X131842618Y-117291663D01*
X131653489Y-117008611D01*
X131523214Y-116694100D01*
X131456800Y-116360212D01*
X131456800Y-116019788D01*
X131463790Y-115984649D01*
X131485640Y-115874800D01*
X131523214Y-115685900D01*
X131653489Y-115371389D01*
X131842618Y-115088337D01*
X132083337Y-114847618D01*
X132366389Y-114658489D01*
X132680900Y-114528214D01*
X132931316Y-114478404D01*
X133014787Y-114461800D01*
X133355213Y-114461800D01*
X133438684Y-114478404D01*
G37*
G36*
X109638684Y-114478404D02*
G01*
X109889100Y-114528214D01*
X110203611Y-114658489D01*
X110486663Y-114847618D01*
X110727382Y-115088337D01*
X110916511Y-115371389D01*
X111046786Y-115685900D01*
X111084360Y-115874800D01*
X111106211Y-115984649D01*
X111113200Y-116019788D01*
X111113200Y-116360212D01*
X111046786Y-116694100D01*
X110916511Y-117008611D01*
X110727382Y-117291663D01*
X110486663Y-117532382D01*
X110203611Y-117721511D01*
X109889100Y-117851786D01*
X109638684Y-117901597D01*
X109555213Y-117918200D01*
X109214787Y-117918200D01*
X109131316Y-117901597D01*
X108880900Y-117851786D01*
X108566389Y-117721511D01*
X108283337Y-117532382D01*
X108042618Y-117291663D01*
X107853489Y-117008611D01*
X107723214Y-116694100D01*
X107656800Y-116360212D01*
X107656800Y-116019788D01*
X107663790Y-115984649D01*
X107685640Y-115874800D01*
X107723214Y-115685900D01*
X107853489Y-115371389D01*
X108042618Y-115088337D01*
X108283337Y-114847618D01*
X108566389Y-114658489D01*
X108880900Y-114528214D01*
X109131316Y-114478404D01*
X109214787Y-114461800D01*
X109555213Y-114461800D01*
X109638684Y-114478404D01*
G37*
G36*
X103011682Y-115884073D02*
G01*
X103151541Y-115911892D01*
X103327191Y-115984649D01*
X103485282Y-116090282D01*
X103619718Y-116224718D01*
X103725351Y-116382809D01*
X103798108Y-116558459D01*
X103835200Y-116744937D01*
X103835200Y-116935063D01*
X103798108Y-117121541D01*
X103725351Y-117297191D01*
X103619718Y-117455282D01*
X103485282Y-117589718D01*
X103327191Y-117695351D01*
X103151541Y-117768108D01*
X103011682Y-117795927D01*
X102965064Y-117805200D01*
X102774936Y-117805200D01*
X102728318Y-117795927D01*
X102588459Y-117768108D01*
X102412809Y-117695351D01*
X102254718Y-117589718D01*
X102120282Y-117455282D01*
X102014649Y-117297191D01*
X101941892Y-117121541D01*
X101904800Y-116935063D01*
X101904800Y-116744937D01*
X101941892Y-116558459D01*
X102014649Y-116382809D01*
X102120282Y-116224718D01*
X102254718Y-116090282D01*
X102412809Y-115984649D01*
X102588459Y-115911892D01*
X102728318Y-115884073D01*
X102774936Y-115874800D01*
X102965064Y-115874800D01*
X103011682Y-115884073D01*
G37*
G36*
X90311682Y-115884073D02*
G01*
X90451541Y-115911892D01*
X90627191Y-115984649D01*
X90785282Y-116090282D01*
X90919718Y-116224718D01*
X91025351Y-116382809D01*
X91098108Y-116558459D01*
X91135200Y-116744937D01*
X91135200Y-116935063D01*
X91098108Y-117121541D01*
X91025351Y-117297191D01*
X90919718Y-117455282D01*
X90785282Y-117589718D01*
X90627191Y-117695351D01*
X90451541Y-117768108D01*
X90311682Y-117795927D01*
X90265064Y-117805200D01*
X90074936Y-117805200D01*
X90028318Y-117795927D01*
X89888459Y-117768108D01*
X89712809Y-117695351D01*
X89554718Y-117589718D01*
X89420282Y-117455282D01*
X89314649Y-117297191D01*
X89241892Y-117121541D01*
X89204800Y-116935063D01*
X89204800Y-116744937D01*
X89241892Y-116558459D01*
X89314649Y-116382809D01*
X89420282Y-116224718D01*
X89554718Y-116090282D01*
X89712809Y-115984649D01*
X89888459Y-115911892D01*
X90028318Y-115884073D01*
X90074936Y-115874800D01*
X90265064Y-115874800D01*
X90311682Y-115884073D01*
G37*
G36*
X112118881Y-101965023D02*
G01*
X112402652Y-102021468D01*
X112803608Y-102187550D01*
X113164458Y-102428662D01*
X113471338Y-102735542D01*
X113712450Y-103096392D01*
X113878532Y-103497348D01*
X113963200Y-103923005D01*
X113963200Y-104356995D01*
X113878532Y-104782652D01*
X113712450Y-105183608D01*
X113471338Y-105544458D01*
X113164458Y-105851338D01*
X112803608Y-106092450D01*
X112402652Y-106258532D01*
X112118881Y-106314977D01*
X111976996Y-106343200D01*
X111543004Y-106343200D01*
X111401119Y-106314977D01*
X111117348Y-106258532D01*
X110716392Y-106092450D01*
X110355542Y-105851338D01*
X110048662Y-105544458D01*
X109807550Y-105183608D01*
X109641468Y-104782652D01*
X109556800Y-104356995D01*
X109556800Y-103923005D01*
X109641468Y-103497348D01*
X109807550Y-103096392D01*
X110048662Y-102735542D01*
X110355542Y-102428662D01*
X110716392Y-102187550D01*
X111117348Y-102021468D01*
X111401119Y-101965023D01*
X111543004Y-101936800D01*
X111976996Y-101936800D01*
X112118881Y-101965023D01*
G37*
G36*
X131168881Y-101965023D02*
G01*
X131452652Y-102021468D01*
X131853608Y-102187550D01*
X132214458Y-102428662D01*
X132521338Y-102735542D01*
X132762450Y-103096392D01*
X132928532Y-103497348D01*
X133013200Y-103923005D01*
X133013200Y-104356995D01*
X132928532Y-104782652D01*
X132762450Y-105183608D01*
X132521338Y-105544458D01*
X132214458Y-105851338D01*
X131853608Y-106092450D01*
X131452652Y-106258532D01*
X131168881Y-106314977D01*
X131026996Y-106343200D01*
X130593004Y-106343200D01*
X130451119Y-106314977D01*
X130167348Y-106258532D01*
X129766392Y-106092450D01*
X129405542Y-105851338D01*
X129098662Y-105544458D01*
X128857550Y-105183608D01*
X128691468Y-104782652D01*
X128606800Y-104356995D01*
X128606800Y-103923005D01*
X128691468Y-103497348D01*
X128857550Y-103096392D01*
X129098662Y-102735542D01*
X129405542Y-102428662D01*
X129766392Y-102187550D01*
X130167348Y-102021468D01*
X130451119Y-101965023D01*
X130593004Y-101936800D01*
X131026996Y-101936800D01*
X131168881Y-101965023D01*
G37*
G36*
X150218881Y-101965023D02*
G01*
X150502652Y-102021468D01*
X150903608Y-102187550D01*
X151264458Y-102428662D01*
X151571338Y-102735542D01*
X151812450Y-103096392D01*
X151978532Y-103497348D01*
X152063200Y-103923005D01*
X152063200Y-104356995D01*
X151978532Y-104782652D01*
X151812450Y-105183608D01*
X151571338Y-105544458D01*
X151264458Y-105851338D01*
X150903608Y-106092450D01*
X150502652Y-106258532D01*
X150218881Y-106314977D01*
X150076996Y-106343200D01*
X149643004Y-106343200D01*
X149501119Y-106314977D01*
X149217348Y-106258532D01*
X148816392Y-106092450D01*
X148455542Y-105851338D01*
X148148662Y-105544458D01*
X147907550Y-105183608D01*
X147741468Y-104782652D01*
X147656800Y-104356995D01*
X147656800Y-103923005D01*
X147741468Y-103497348D01*
X147907550Y-103096392D01*
X148148662Y-102735542D01*
X148455542Y-102428662D01*
X148816392Y-102187550D01*
X149217348Y-102021468D01*
X149501119Y-101965023D01*
X149643004Y-101936800D01*
X150076996Y-101936800D01*
X150218881Y-101965023D01*
G37*
G36*
X166303200Y-105343200D02*
G01*
X163896800Y-105343200D01*
X163896800Y-102936800D01*
X166303200Y-102936800D01*
X166303200Y-105343200D01*
G37*
G36*
X97723200Y-105343200D02*
G01*
X95316800Y-105343200D01*
X95316800Y-102936800D01*
X97723200Y-102936800D01*
X97723200Y-105343200D01*
G37*
G36*
X144931953Y-103096392D02*
G01*
X145087210Y-103127274D01*
X145278879Y-103206666D01*
X145451376Y-103321925D01*
X145598075Y-103468624D01*
X145713334Y-103641121D01*
X145792726Y-103832790D01*
X145833200Y-104036270D01*
X145833200Y-104243730D01*
X145792726Y-104447210D01*
X145713334Y-104638879D01*
X145598075Y-104811376D01*
X145451376Y-104958075D01*
X145278879Y-105073334D01*
X145087210Y-105152726D01*
X144934600Y-105183082D01*
X144883731Y-105193200D01*
X144676269Y-105193200D01*
X144625400Y-105183081D01*
X144472790Y-105152726D01*
X144281121Y-105073334D01*
X144108624Y-104958075D01*
X143961925Y-104811376D01*
X143846666Y-104638879D01*
X143767274Y-104447210D01*
X143726800Y-104243730D01*
X143726800Y-104036270D01*
X143767274Y-103832790D01*
X143846666Y-103641121D01*
X143961925Y-103468624D01*
X144108624Y-103321925D01*
X144281121Y-103206666D01*
X144472790Y-103127274D01*
X144628047Y-103096392D01*
X144676269Y-103086800D01*
X144883731Y-103086800D01*
X144931953Y-103096392D01*
G37*
G36*
X136041953Y-103096392D02*
G01*
X136197210Y-103127274D01*
X136388879Y-103206666D01*
X136561376Y-103321925D01*
X136708075Y-103468624D01*
X136823334Y-103641121D01*
X136902726Y-103832790D01*
X136943200Y-104036270D01*
X136943200Y-104243730D01*
X136902726Y-104447210D01*
X136823334Y-104638879D01*
X136708075Y-104811376D01*
X136561376Y-104958075D01*
X136388879Y-105073334D01*
X136197210Y-105152726D01*
X136044600Y-105183082D01*
X135993731Y-105193200D01*
X135786269Y-105193200D01*
X135735400Y-105183081D01*
X135582790Y-105152726D01*
X135391121Y-105073334D01*
X135218624Y-104958075D01*
X135071925Y-104811376D01*
X134956666Y-104638879D01*
X134877274Y-104447210D01*
X134836800Y-104243730D01*
X134836800Y-104036270D01*
X134877274Y-103832790D01*
X134956666Y-103641121D01*
X135071925Y-103468624D01*
X135218624Y-103321925D01*
X135391121Y-103206666D01*
X135582790Y-103127274D01*
X135738047Y-103096392D01*
X135786269Y-103086800D01*
X135993731Y-103086800D01*
X136041953Y-103096392D01*
G37*
G36*
X125881953Y-103096392D02*
G01*
X126037210Y-103127274D01*
X126228879Y-103206666D01*
X126401376Y-103321925D01*
X126548075Y-103468624D01*
X126663334Y-103641121D01*
X126742726Y-103832790D01*
X126783200Y-104036270D01*
X126783200Y-104243730D01*
X126742726Y-104447210D01*
X126663334Y-104638879D01*
X126548075Y-104811376D01*
X126401376Y-104958075D01*
X126228879Y-105073334D01*
X126037210Y-105152726D01*
X125884600Y-105183082D01*
X125833731Y-105193200D01*
X125626269Y-105193200D01*
X125575400Y-105183081D01*
X125422790Y-105152726D01*
X125231121Y-105073334D01*
X125058624Y-104958075D01*
X124911925Y-104811376D01*
X124796666Y-104638879D01*
X124717274Y-104447210D01*
X124676800Y-104243730D01*
X124676800Y-104036270D01*
X124717274Y-103832790D01*
X124796666Y-103641121D01*
X124911925Y-103468624D01*
X125058624Y-103321925D01*
X125231121Y-103206666D01*
X125422790Y-103127274D01*
X125578047Y-103096392D01*
X125626269Y-103086800D01*
X125833731Y-103086800D01*
X125881953Y-103096392D01*
G37*
G36*
X116991953Y-103096392D02*
G01*
X117147210Y-103127274D01*
X117338879Y-103206666D01*
X117511376Y-103321925D01*
X117658075Y-103468624D01*
X117773334Y-103641121D01*
X117852726Y-103832790D01*
X117893200Y-104036270D01*
X117893200Y-104243730D01*
X117852726Y-104447210D01*
X117773334Y-104638879D01*
X117658075Y-104811376D01*
X117511376Y-104958075D01*
X117338879Y-105073334D01*
X117147210Y-105152726D01*
X116994600Y-105183082D01*
X116943731Y-105193200D01*
X116736269Y-105193200D01*
X116685400Y-105183081D01*
X116532790Y-105152726D01*
X116341121Y-105073334D01*
X116168624Y-104958075D01*
X116021925Y-104811376D01*
X115906666Y-104638879D01*
X115827274Y-104447210D01*
X115786800Y-104243730D01*
X115786800Y-104036270D01*
X115827274Y-103832790D01*
X115906666Y-103641121D01*
X116021925Y-103468624D01*
X116168624Y-103321925D01*
X116341121Y-103206666D01*
X116532790Y-103127274D01*
X116688047Y-103096392D01*
X116736269Y-103086800D01*
X116943731Y-103086800D01*
X116991953Y-103096392D01*
G37*
G36*
X106831953Y-103096392D02*
G01*
X106987210Y-103127274D01*
X107178879Y-103206666D01*
X107351376Y-103321925D01*
X107498075Y-103468624D01*
X107613334Y-103641121D01*
X107692726Y-103832790D01*
X107733200Y-104036270D01*
X107733200Y-104243730D01*
X107692726Y-104447210D01*
X107613334Y-104638879D01*
X107498075Y-104811376D01*
X107351376Y-104958075D01*
X107178879Y-105073334D01*
X106987210Y-105152726D01*
X106834600Y-105183082D01*
X106783731Y-105193200D01*
X106576269Y-105193200D01*
X106525400Y-105183081D01*
X106372790Y-105152726D01*
X106181121Y-105073334D01*
X106008624Y-104958075D01*
X105861925Y-104811376D01*
X105746666Y-104638879D01*
X105667274Y-104447210D01*
X105626800Y-104243730D01*
X105626800Y-104036270D01*
X105667274Y-103832790D01*
X105746666Y-103641121D01*
X105861925Y-103468624D01*
X106008624Y-103321925D01*
X106181121Y-103206666D01*
X106372790Y-103127274D01*
X106528047Y-103096392D01*
X106576269Y-103086800D01*
X106783731Y-103086800D01*
X106831953Y-103096392D01*
G37*
G36*
X155091953Y-103096392D02*
G01*
X155247210Y-103127274D01*
X155438879Y-103206666D01*
X155611376Y-103321925D01*
X155758075Y-103468624D01*
X155873334Y-103641121D01*
X155952726Y-103832790D01*
X155993200Y-104036270D01*
X155993200Y-104243730D01*
X155952726Y-104447210D01*
X155873334Y-104638879D01*
X155758075Y-104811376D01*
X155611376Y-104958075D01*
X155438879Y-105073334D01*
X155247210Y-105152726D01*
X155094600Y-105183082D01*
X155043731Y-105193200D01*
X154836269Y-105193200D01*
X154785400Y-105183081D01*
X154632790Y-105152726D01*
X154441121Y-105073334D01*
X154268624Y-104958075D01*
X154121925Y-104811376D01*
X154006666Y-104638879D01*
X153927274Y-104447210D01*
X153886800Y-104243730D01*
X153886800Y-104036270D01*
X153927274Y-103832790D01*
X154006666Y-103641121D01*
X154121925Y-103468624D01*
X154268624Y-103321925D01*
X154441121Y-103206666D01*
X154632790Y-103127274D01*
X154788047Y-103096392D01*
X154836269Y-103086800D01*
X155043731Y-103086800D01*
X155091953Y-103096392D01*
G37*
G36*
X146430130Y-100346881D02*
G01*
X146430133Y-100346882D01*
X146430132Y-100346882D01*
X146667296Y-100445118D01*
X146667297Y-100445119D01*
X146880742Y-100587738D01*
X147062262Y-100769258D01*
X147176435Y-100940131D01*
X147204882Y-100982704D01*
X147280864Y-101166141D01*
X147303119Y-101219870D01*
X147353200Y-101471646D01*
X147353200Y-101728354D01*
X147303119Y-101980130D01*
X147303118Y-101980132D01*
X147204882Y-102217296D01*
X147204881Y-102217297D01*
X147062262Y-102430742D01*
X146880742Y-102612262D01*
X146709869Y-102726435D01*
X146667296Y-102754882D01*
X146483859Y-102830864D01*
X146430130Y-102853119D01*
X146178354Y-102903200D01*
X145921646Y-102903200D01*
X145669870Y-102853119D01*
X145616141Y-102830864D01*
X145432704Y-102754882D01*
X145390131Y-102726435D01*
X145219258Y-102612262D01*
X145037738Y-102430742D01*
X144895119Y-102217297D01*
X144895118Y-102217296D01*
X144796882Y-101980132D01*
X144796881Y-101980130D01*
X144746800Y-101728354D01*
X144746800Y-101471646D01*
X144796881Y-101219870D01*
X144819136Y-101166141D01*
X144895118Y-100982704D01*
X144923565Y-100940131D01*
X145037738Y-100769258D01*
X145219258Y-100587738D01*
X145432703Y-100445119D01*
X145432704Y-100445118D01*
X145669868Y-100346882D01*
X145669867Y-100346882D01*
X145669870Y-100346881D01*
X145921646Y-100296800D01*
X146178354Y-100296800D01*
X146430130Y-100346881D01*
G37*
G36*
X127380130Y-100346881D02*
G01*
X127380133Y-100346882D01*
X127380132Y-100346882D01*
X127617296Y-100445118D01*
X127617297Y-100445119D01*
X127830742Y-100587738D01*
X128012262Y-100769258D01*
X128126435Y-100940131D01*
X128154882Y-100982704D01*
X128230864Y-101166141D01*
X128253119Y-101219870D01*
X128303200Y-101471646D01*
X128303200Y-101728354D01*
X128253119Y-101980130D01*
X128253118Y-101980132D01*
X128154882Y-102217296D01*
X128154881Y-102217297D01*
X128012262Y-102430742D01*
X127830742Y-102612262D01*
X127659869Y-102726435D01*
X127617296Y-102754882D01*
X127433859Y-102830864D01*
X127380130Y-102853119D01*
X127128354Y-102903200D01*
X126871646Y-102903200D01*
X126619870Y-102853119D01*
X126566141Y-102830864D01*
X126382704Y-102754882D01*
X126340131Y-102726435D01*
X126169258Y-102612262D01*
X125987738Y-102430742D01*
X125845119Y-102217297D01*
X125845118Y-102217296D01*
X125746882Y-101980132D01*
X125746881Y-101980130D01*
X125696800Y-101728354D01*
X125696800Y-101471646D01*
X125746881Y-101219870D01*
X125769136Y-101166141D01*
X125845118Y-100982704D01*
X125873565Y-100940131D01*
X125987738Y-100769258D01*
X126169258Y-100587738D01*
X126382703Y-100445119D01*
X126382704Y-100445118D01*
X126619868Y-100346882D01*
X126619867Y-100346882D01*
X126619870Y-100346881D01*
X126871646Y-100296800D01*
X127128354Y-100296800D01*
X127380130Y-100346881D01*
G37*
G36*
X108330130Y-100346881D02*
G01*
X108330133Y-100346882D01*
X108330132Y-100346882D01*
X108567296Y-100445118D01*
X108567297Y-100445119D01*
X108780742Y-100587738D01*
X108962262Y-100769258D01*
X109076435Y-100940131D01*
X109104882Y-100982704D01*
X109180864Y-101166141D01*
X109203119Y-101219870D01*
X109253200Y-101471646D01*
X109253200Y-101728354D01*
X109203119Y-101980130D01*
X109203118Y-101980132D01*
X109104882Y-102217296D01*
X109104881Y-102217297D01*
X108962262Y-102430742D01*
X108780742Y-102612262D01*
X108609869Y-102726435D01*
X108567296Y-102754882D01*
X108383859Y-102830864D01*
X108330130Y-102853119D01*
X108078354Y-102903200D01*
X107821646Y-102903200D01*
X107569870Y-102853119D01*
X107516141Y-102830864D01*
X107332704Y-102754882D01*
X107290131Y-102726435D01*
X107119258Y-102612262D01*
X106937738Y-102430742D01*
X106795119Y-102217297D01*
X106795118Y-102217296D01*
X106696882Y-101980132D01*
X106696881Y-101980130D01*
X106646800Y-101728354D01*
X106646800Y-101471646D01*
X106696881Y-101219870D01*
X106719136Y-101166141D01*
X106795118Y-100982704D01*
X106823565Y-100940131D01*
X106937738Y-100769258D01*
X107119258Y-100587738D01*
X107332703Y-100445119D01*
X107332704Y-100445118D01*
X107569868Y-100346882D01*
X107569867Y-100346882D01*
X107569870Y-100346881D01*
X107821646Y-100296800D01*
X108078354Y-100296800D01*
X108330130Y-100346881D01*
G37*
G36*
X114680130Y-97806881D02*
G01*
X114680133Y-97806882D01*
X114680132Y-97806882D01*
X114917296Y-97905118D01*
X114917297Y-97905119D01*
X115130742Y-98047738D01*
X115312262Y-98229258D01*
X115426435Y-98400131D01*
X115454882Y-98442704D01*
X115530864Y-98626141D01*
X115553119Y-98679870D01*
X115603200Y-98931646D01*
X115603200Y-99188354D01*
X115553119Y-99440130D01*
X115553118Y-99440132D01*
X115454882Y-99677296D01*
X115454881Y-99677297D01*
X115312262Y-99890742D01*
X115130742Y-100072262D01*
X114959869Y-100186435D01*
X114917296Y-100214882D01*
X114733859Y-100290864D01*
X114680130Y-100313119D01*
X114428354Y-100363200D01*
X114171646Y-100363200D01*
X113919870Y-100313119D01*
X113866141Y-100290864D01*
X113682704Y-100214882D01*
X113640131Y-100186435D01*
X113469258Y-100072262D01*
X113287738Y-99890742D01*
X113145119Y-99677297D01*
X113145118Y-99677296D01*
X113046882Y-99440132D01*
X113046881Y-99440130D01*
X112996800Y-99188354D01*
X112996800Y-98931646D01*
X113046881Y-98679870D01*
X113069136Y-98626141D01*
X113145118Y-98442704D01*
X113173565Y-98400131D01*
X113287738Y-98229258D01*
X113469258Y-98047738D01*
X113682703Y-97905119D01*
X113682704Y-97905118D01*
X113919868Y-97806882D01*
X113919867Y-97806882D01*
X113919870Y-97806881D01*
X114171646Y-97756800D01*
X114428354Y-97756800D01*
X114680130Y-97806881D01*
G37*
G36*
X152780130Y-97806881D02*
G01*
X152780133Y-97806882D01*
X152780132Y-97806882D01*
X153017296Y-97905118D01*
X153017297Y-97905119D01*
X153230742Y-98047738D01*
X153412262Y-98229258D01*
X153526435Y-98400131D01*
X153554882Y-98442704D01*
X153630864Y-98626141D01*
X153653119Y-98679870D01*
X153703200Y-98931646D01*
X153703200Y-99188354D01*
X153653119Y-99440130D01*
X153653118Y-99440132D01*
X153554882Y-99677296D01*
X153554881Y-99677297D01*
X153412262Y-99890742D01*
X153230742Y-100072262D01*
X153059869Y-100186435D01*
X153017296Y-100214882D01*
X152833859Y-100290864D01*
X152780130Y-100313119D01*
X152528354Y-100363200D01*
X152271646Y-100363200D01*
X152019870Y-100313119D01*
X151966141Y-100290864D01*
X151782704Y-100214882D01*
X151740131Y-100186435D01*
X151569258Y-100072262D01*
X151387738Y-99890742D01*
X151245119Y-99677297D01*
X151245118Y-99677296D01*
X151146882Y-99440132D01*
X151146881Y-99440130D01*
X151096800Y-99188354D01*
X151096800Y-98931646D01*
X151146881Y-98679870D01*
X151169136Y-98626141D01*
X151245118Y-98442704D01*
X151273565Y-98400131D01*
X151387738Y-98229258D01*
X151569258Y-98047738D01*
X151782703Y-97905119D01*
X151782704Y-97905118D01*
X152019868Y-97806882D01*
X152019867Y-97806882D01*
X152019870Y-97806881D01*
X152271646Y-97756800D01*
X152528354Y-97756800D01*
X152780130Y-97806881D01*
G37*
G36*
X133730130Y-97806881D02*
G01*
X133730133Y-97806882D01*
X133730132Y-97806882D01*
X133967296Y-97905118D01*
X133967297Y-97905119D01*
X134180742Y-98047738D01*
X134362262Y-98229258D01*
X134476435Y-98400131D01*
X134504882Y-98442704D01*
X134580864Y-98626141D01*
X134603119Y-98679870D01*
X134653200Y-98931646D01*
X134653200Y-99188354D01*
X134603119Y-99440130D01*
X134603118Y-99440132D01*
X134504882Y-99677296D01*
X134504881Y-99677297D01*
X134362262Y-99890742D01*
X134180742Y-100072262D01*
X134009869Y-100186435D01*
X133967296Y-100214882D01*
X133783859Y-100290864D01*
X133730130Y-100313119D01*
X133478354Y-100363200D01*
X133221646Y-100363200D01*
X132969870Y-100313119D01*
X132916141Y-100290864D01*
X132732704Y-100214882D01*
X132690131Y-100186435D01*
X132519258Y-100072262D01*
X132337738Y-99890742D01*
X132195119Y-99677297D01*
X132195118Y-99677296D01*
X132096882Y-99440132D01*
X132096881Y-99440130D01*
X132046800Y-99188354D01*
X132046800Y-98931646D01*
X132096881Y-98679870D01*
X132119136Y-98626141D01*
X132195118Y-98442704D01*
X132223565Y-98400131D01*
X132337738Y-98229258D01*
X132519258Y-98047738D01*
X132732703Y-97905119D01*
X132732704Y-97905118D01*
X132969868Y-97806882D01*
X132969867Y-97806882D01*
X132969870Y-97806881D01*
X133221646Y-97756800D01*
X133478354Y-97756800D01*
X133730130Y-97806881D01*
G37*
G36*
X112118881Y-82915023D02*
G01*
X112402652Y-82971468D01*
X112803608Y-83137550D01*
X113164458Y-83378662D01*
X113471338Y-83685542D01*
X113712450Y-84046392D01*
X113878532Y-84447348D01*
X113963200Y-84873005D01*
X113963200Y-85306995D01*
X113878532Y-85732652D01*
X113712450Y-86133608D01*
X113471338Y-86494458D01*
X113164458Y-86801338D01*
X112803608Y-87042450D01*
X112402652Y-87208532D01*
X112118881Y-87264977D01*
X111976996Y-87293200D01*
X111543004Y-87293200D01*
X111401119Y-87264977D01*
X111117348Y-87208532D01*
X110716392Y-87042450D01*
X110355542Y-86801338D01*
X110048662Y-86494458D01*
X109807550Y-86133608D01*
X109641468Y-85732652D01*
X109556800Y-85306995D01*
X109556800Y-84873005D01*
X109641468Y-84447348D01*
X109807550Y-84046392D01*
X110048662Y-83685542D01*
X110355542Y-83378662D01*
X110716392Y-83137550D01*
X111117348Y-82971468D01*
X111401119Y-82915023D01*
X111543004Y-82886800D01*
X111976996Y-82886800D01*
X112118881Y-82915023D01*
G37*
G36*
X131168881Y-82915023D02*
G01*
X131452652Y-82971468D01*
X131853608Y-83137550D01*
X132214458Y-83378662D01*
X132521338Y-83685542D01*
X132762450Y-84046392D01*
X132928532Y-84447348D01*
X133013200Y-84873005D01*
X133013200Y-85306995D01*
X132928532Y-85732652D01*
X132762450Y-86133608D01*
X132521338Y-86494458D01*
X132214458Y-86801338D01*
X131853608Y-87042450D01*
X131452652Y-87208532D01*
X131168881Y-87264977D01*
X131026996Y-87293200D01*
X130593004Y-87293200D01*
X130451119Y-87264977D01*
X130167348Y-87208532D01*
X129766392Y-87042450D01*
X129405542Y-86801338D01*
X129098662Y-86494458D01*
X128857550Y-86133608D01*
X128691468Y-85732652D01*
X128606800Y-85306995D01*
X128606800Y-84873005D01*
X128691468Y-84447348D01*
X128857550Y-84046392D01*
X129098662Y-83685542D01*
X129405542Y-83378662D01*
X129766392Y-83137550D01*
X130167348Y-82971468D01*
X130451119Y-82915023D01*
X130593004Y-82886800D01*
X131026996Y-82886800D01*
X131168881Y-82915023D01*
G37*
G36*
X150218881Y-82915023D02*
G01*
X150502652Y-82971468D01*
X150903608Y-83137550D01*
X151264458Y-83378662D01*
X151571338Y-83685542D01*
X151812450Y-84046392D01*
X151978532Y-84447348D01*
X152063200Y-84873005D01*
X152063200Y-85306995D01*
X151978532Y-85732652D01*
X151812450Y-86133608D01*
X151571338Y-86494458D01*
X151264458Y-86801338D01*
X150903608Y-87042450D01*
X150502652Y-87208532D01*
X150218881Y-87264977D01*
X150076996Y-87293200D01*
X149643004Y-87293200D01*
X149501119Y-87264977D01*
X149217348Y-87208532D01*
X148816392Y-87042450D01*
X148455542Y-86801338D01*
X148148662Y-86494458D01*
X147907550Y-86133608D01*
X147741468Y-85732652D01*
X147656800Y-85306995D01*
X147656800Y-84873005D01*
X147741468Y-84447348D01*
X147907550Y-84046392D01*
X148148662Y-83685542D01*
X148455542Y-83378662D01*
X148816392Y-83137550D01*
X149217348Y-82971468D01*
X149501119Y-82915023D01*
X149643004Y-82886800D01*
X150076996Y-82886800D01*
X150218881Y-82915023D01*
G37*
G36*
X116991953Y-84046392D02*
G01*
X117147210Y-84077274D01*
X117338879Y-84156666D01*
X117511376Y-84271925D01*
X117658075Y-84418624D01*
X117773334Y-84591121D01*
X117852726Y-84782790D01*
X117893200Y-84986270D01*
X117893200Y-85193730D01*
X117852726Y-85397210D01*
X117773334Y-85588879D01*
X117658075Y-85761376D01*
X117511376Y-85908075D01*
X117338879Y-86023334D01*
X117147210Y-86102726D01*
X116994600Y-86133081D01*
X116943731Y-86143200D01*
X116736269Y-86143200D01*
X116685400Y-86133081D01*
X116532790Y-86102726D01*
X116341121Y-86023334D01*
X116168624Y-85908075D01*
X116021925Y-85761376D01*
X115906666Y-85588879D01*
X115827274Y-85397210D01*
X115786800Y-85193730D01*
X115786800Y-84986270D01*
X115827274Y-84782790D01*
X115906666Y-84591121D01*
X116021925Y-84418624D01*
X116168624Y-84271925D01*
X116341121Y-84156666D01*
X116532790Y-84077274D01*
X116688047Y-84046392D01*
X116736269Y-84036800D01*
X116943731Y-84036800D01*
X116991953Y-84046392D01*
G37*
G36*
X106831953Y-84046392D02*
G01*
X106987210Y-84077274D01*
X107178879Y-84156666D01*
X107351376Y-84271925D01*
X107498075Y-84418624D01*
X107613334Y-84591121D01*
X107692726Y-84782790D01*
X107733200Y-84986270D01*
X107733200Y-85193730D01*
X107692726Y-85397210D01*
X107613334Y-85588879D01*
X107498075Y-85761376D01*
X107351376Y-85908075D01*
X107178879Y-86023334D01*
X106987210Y-86102726D01*
X106834600Y-86133081D01*
X106783731Y-86143200D01*
X106576269Y-86143200D01*
X106525400Y-86133081D01*
X106372790Y-86102726D01*
X106181121Y-86023334D01*
X106008624Y-85908075D01*
X105861925Y-85761376D01*
X105746666Y-85588879D01*
X105667274Y-85397210D01*
X105626800Y-85193730D01*
X105626800Y-84986270D01*
X105667274Y-84782790D01*
X105746666Y-84591121D01*
X105861925Y-84418624D01*
X106008624Y-84271925D01*
X106181121Y-84156666D01*
X106372790Y-84077274D01*
X106528047Y-84046392D01*
X106576269Y-84036800D01*
X106783731Y-84036800D01*
X106831953Y-84046392D01*
G37*
G36*
X125881953Y-84046392D02*
G01*
X126037210Y-84077274D01*
X126228879Y-84156666D01*
X126401376Y-84271925D01*
X126548075Y-84418624D01*
X126663334Y-84591121D01*
X126742726Y-84782790D01*
X126783200Y-84986270D01*
X126783200Y-85193730D01*
X126742726Y-85397210D01*
X126663334Y-85588879D01*
X126548075Y-85761376D01*
X126401376Y-85908075D01*
X126228879Y-86023334D01*
X126037210Y-86102726D01*
X125884600Y-86133081D01*
X125833731Y-86143200D01*
X125626269Y-86143200D01*
X125575400Y-86133081D01*
X125422790Y-86102726D01*
X125231121Y-86023334D01*
X125058624Y-85908075D01*
X124911925Y-85761376D01*
X124796666Y-85588879D01*
X124717274Y-85397210D01*
X124676800Y-85193730D01*
X124676800Y-84986270D01*
X124717274Y-84782790D01*
X124796666Y-84591121D01*
X124911925Y-84418624D01*
X125058624Y-84271925D01*
X125231121Y-84156666D01*
X125422790Y-84077274D01*
X125578047Y-84046392D01*
X125626269Y-84036800D01*
X125833731Y-84036800D01*
X125881953Y-84046392D01*
G37*
G36*
X136041953Y-84046392D02*
G01*
X136197210Y-84077274D01*
X136388879Y-84156666D01*
X136561376Y-84271925D01*
X136708075Y-84418624D01*
X136823334Y-84591121D01*
X136902726Y-84782790D01*
X136943200Y-84986270D01*
X136943200Y-85193730D01*
X136902726Y-85397210D01*
X136823334Y-85588879D01*
X136708075Y-85761376D01*
X136561376Y-85908075D01*
X136388879Y-86023334D01*
X136197210Y-86102726D01*
X136044600Y-86133081D01*
X135993731Y-86143200D01*
X135786269Y-86143200D01*
X135735400Y-86133081D01*
X135582790Y-86102726D01*
X135391121Y-86023334D01*
X135218624Y-85908075D01*
X135071925Y-85761376D01*
X134956666Y-85588879D01*
X134877274Y-85397210D01*
X134836800Y-85193730D01*
X134836800Y-84986270D01*
X134877274Y-84782790D01*
X134956666Y-84591121D01*
X135071925Y-84418624D01*
X135218624Y-84271925D01*
X135391121Y-84156666D01*
X135582790Y-84077274D01*
X135738047Y-84046392D01*
X135786269Y-84036800D01*
X135993731Y-84036800D01*
X136041953Y-84046392D01*
G37*
G36*
X144931953Y-84046392D02*
G01*
X145087210Y-84077274D01*
X145278879Y-84156666D01*
X145451376Y-84271925D01*
X145598075Y-84418624D01*
X145713334Y-84591121D01*
X145792726Y-84782790D01*
X145833200Y-84986270D01*
X145833200Y-85193730D01*
X145792726Y-85397210D01*
X145713334Y-85588879D01*
X145598075Y-85761376D01*
X145451376Y-85908075D01*
X145278879Y-86023334D01*
X145087210Y-86102726D01*
X144934600Y-86133081D01*
X144883731Y-86143200D01*
X144676269Y-86143200D01*
X144625400Y-86133081D01*
X144472790Y-86102726D01*
X144281121Y-86023334D01*
X144108624Y-85908075D01*
X143961925Y-85761376D01*
X143846666Y-85588879D01*
X143767274Y-85397210D01*
X143726800Y-85193730D01*
X143726800Y-84986270D01*
X143767274Y-84782790D01*
X143846666Y-84591121D01*
X143961925Y-84418624D01*
X144108624Y-84271925D01*
X144281121Y-84156666D01*
X144472790Y-84077274D01*
X144628047Y-84046392D01*
X144676269Y-84036800D01*
X144883731Y-84036800D01*
X144931953Y-84046392D01*
G37*
G36*
X155091953Y-84046392D02*
G01*
X155247210Y-84077274D01*
X155438879Y-84156666D01*
X155611376Y-84271925D01*
X155758075Y-84418624D01*
X155873334Y-84591121D01*
X155952726Y-84782790D01*
X155993200Y-84986270D01*
X155993200Y-85193730D01*
X155952726Y-85397210D01*
X155873334Y-85588879D01*
X155758075Y-85761376D01*
X155611376Y-85908075D01*
X155438879Y-86023334D01*
X155247210Y-86102726D01*
X155094600Y-86133081D01*
X155043731Y-86143200D01*
X154836269Y-86143200D01*
X154785400Y-86133081D01*
X154632790Y-86102726D01*
X154441121Y-86023334D01*
X154268624Y-85908075D01*
X154121925Y-85761376D01*
X154006666Y-85588879D01*
X153927274Y-85397210D01*
X153886800Y-85193730D01*
X153886800Y-84986270D01*
X153927274Y-84782790D01*
X154006666Y-84591121D01*
X154121925Y-84418624D01*
X154268624Y-84271925D01*
X154441121Y-84156666D01*
X154632790Y-84077274D01*
X154788047Y-84046392D01*
X154836269Y-84036800D01*
X155043731Y-84036800D01*
X155091953Y-84046392D01*
G37*
G36*
X108330130Y-81296881D02*
G01*
X108330133Y-81296882D01*
X108330132Y-81296882D01*
X108567296Y-81395118D01*
X108567297Y-81395119D01*
X108780742Y-81537738D01*
X108962262Y-81719258D01*
X109076435Y-81890131D01*
X109104882Y-81932704D01*
X109180864Y-82116141D01*
X109203119Y-82169870D01*
X109253200Y-82421646D01*
X109253200Y-82678354D01*
X109203119Y-82930130D01*
X109203118Y-82930132D01*
X109104882Y-83167296D01*
X109104881Y-83167297D01*
X108962262Y-83380742D01*
X108780742Y-83562262D01*
X108609869Y-83676435D01*
X108567296Y-83704882D01*
X108383859Y-83780864D01*
X108330130Y-83803119D01*
X108078354Y-83853200D01*
X107821646Y-83853200D01*
X107569870Y-83803119D01*
X107516141Y-83780864D01*
X107332704Y-83704882D01*
X107290131Y-83676435D01*
X107119258Y-83562262D01*
X106937738Y-83380742D01*
X106795119Y-83167297D01*
X106795118Y-83167296D01*
X106696882Y-82930132D01*
X106696881Y-82930130D01*
X106646800Y-82678354D01*
X106646800Y-82421646D01*
X106696881Y-82169870D01*
X106719136Y-82116141D01*
X106795118Y-81932704D01*
X106823565Y-81890131D01*
X106937738Y-81719258D01*
X107119258Y-81537738D01*
X107332703Y-81395119D01*
X107332704Y-81395118D01*
X107569868Y-81296882D01*
X107569867Y-81296882D01*
X107569870Y-81296881D01*
X107821646Y-81246800D01*
X108078354Y-81246800D01*
X108330130Y-81296881D01*
G37*
G36*
X146430130Y-81296881D02*
G01*
X146430133Y-81296882D01*
X146430132Y-81296882D01*
X146667296Y-81395118D01*
X146667297Y-81395119D01*
X146880742Y-81537738D01*
X147062262Y-81719258D01*
X147176435Y-81890131D01*
X147204882Y-81932704D01*
X147280864Y-82116141D01*
X147303119Y-82169870D01*
X147353200Y-82421646D01*
X147353200Y-82678354D01*
X147303119Y-82930130D01*
X147303118Y-82930132D01*
X147204882Y-83167296D01*
X147204881Y-83167297D01*
X147062262Y-83380742D01*
X146880742Y-83562262D01*
X146709869Y-83676435D01*
X146667296Y-83704882D01*
X146483859Y-83780864D01*
X146430130Y-83803119D01*
X146178354Y-83853200D01*
X145921646Y-83853200D01*
X145669870Y-83803119D01*
X145616141Y-83780864D01*
X145432704Y-83704882D01*
X145390131Y-83676435D01*
X145219258Y-83562262D01*
X145037738Y-83380742D01*
X144895119Y-83167297D01*
X144895118Y-83167296D01*
X144796882Y-82930132D01*
X144796881Y-82930130D01*
X144746800Y-82678354D01*
X144746800Y-82421646D01*
X144796881Y-82169870D01*
X144819136Y-82116141D01*
X144895118Y-81932704D01*
X144923565Y-81890131D01*
X145037738Y-81719258D01*
X145219258Y-81537738D01*
X145432703Y-81395119D01*
X145432704Y-81395118D01*
X145669868Y-81296882D01*
X145669867Y-81296882D01*
X145669870Y-81296881D01*
X145921646Y-81246800D01*
X146178354Y-81246800D01*
X146430130Y-81296881D01*
G37*
G36*
X127380130Y-81296881D02*
G01*
X127380133Y-81296882D01*
X127380132Y-81296882D01*
X127617296Y-81395118D01*
X127617297Y-81395119D01*
X127830742Y-81537738D01*
X128012262Y-81719258D01*
X128126435Y-81890131D01*
X128154882Y-81932704D01*
X128230864Y-82116141D01*
X128253119Y-82169870D01*
X128303200Y-82421646D01*
X128303200Y-82678354D01*
X128253119Y-82930130D01*
X128253118Y-82930132D01*
X128154882Y-83167296D01*
X128154881Y-83167297D01*
X128012262Y-83380742D01*
X127830742Y-83562262D01*
X127659869Y-83676435D01*
X127617296Y-83704882D01*
X127433859Y-83780864D01*
X127380130Y-83803119D01*
X127128354Y-83853200D01*
X126871646Y-83853200D01*
X126619870Y-83803119D01*
X126566141Y-83780864D01*
X126382704Y-83704882D01*
X126340131Y-83676435D01*
X126169258Y-83562262D01*
X125987738Y-83380742D01*
X125845119Y-83167297D01*
X125845118Y-83167296D01*
X125746882Y-82930132D01*
X125746881Y-82930130D01*
X125696800Y-82678354D01*
X125696800Y-82421646D01*
X125746881Y-82169870D01*
X125769136Y-82116141D01*
X125845118Y-81932704D01*
X125873565Y-81890131D01*
X125987738Y-81719258D01*
X126169258Y-81537738D01*
X126382703Y-81395119D01*
X126382704Y-81395118D01*
X126619868Y-81296882D01*
X126619867Y-81296882D01*
X126619870Y-81296881D01*
X126871646Y-81246800D01*
X127128354Y-81246800D01*
X127380130Y-81296881D01*
G37*
G36*
X114680130Y-78756881D02*
G01*
X114680133Y-78756882D01*
X114680132Y-78756882D01*
X114917296Y-78855118D01*
X114917297Y-78855119D01*
X115130742Y-78997738D01*
X115312262Y-79179258D01*
X115426435Y-79350131D01*
X115454882Y-79392704D01*
X115530864Y-79576141D01*
X115553119Y-79629870D01*
X115603200Y-79881646D01*
X115603200Y-80138354D01*
X115553119Y-80390130D01*
X115553118Y-80390132D01*
X115454882Y-80627296D01*
X115454881Y-80627297D01*
X115312262Y-80840742D01*
X115130742Y-81022262D01*
X114959869Y-81136435D01*
X114917296Y-81164882D01*
X114733859Y-81240864D01*
X114680130Y-81263119D01*
X114428354Y-81313200D01*
X114171646Y-81313200D01*
X113919870Y-81263119D01*
X113866141Y-81240864D01*
X113682704Y-81164882D01*
X113640131Y-81136435D01*
X113469258Y-81022262D01*
X113287738Y-80840742D01*
X113145119Y-80627297D01*
X113145118Y-80627296D01*
X113046882Y-80390132D01*
X113046881Y-80390130D01*
X112996800Y-80138354D01*
X112996800Y-79881646D01*
X113046881Y-79629870D01*
X113069136Y-79576141D01*
X113145118Y-79392704D01*
X113173565Y-79350131D01*
X113287738Y-79179258D01*
X113469258Y-78997738D01*
X113682703Y-78855119D01*
X113682704Y-78855118D01*
X113919868Y-78756882D01*
X113919867Y-78756882D01*
X113919870Y-78756881D01*
X114171646Y-78706800D01*
X114428354Y-78706800D01*
X114680130Y-78756881D01*
G37*
G36*
X133730130Y-78756881D02*
G01*
X133730133Y-78756882D01*
X133730132Y-78756882D01*
X133967296Y-78855118D01*
X133967297Y-78855119D01*
X134180742Y-78997738D01*
X134362262Y-79179258D01*
X134476435Y-79350131D01*
X134504882Y-79392704D01*
X134580864Y-79576141D01*
X134603119Y-79629870D01*
X134653200Y-79881646D01*
X134653200Y-80138354D01*
X134603119Y-80390130D01*
X134603118Y-80390132D01*
X134504882Y-80627296D01*
X134504881Y-80627297D01*
X134362262Y-80840742D01*
X134180742Y-81022262D01*
X134009869Y-81136435D01*
X133967296Y-81164882D01*
X133783859Y-81240864D01*
X133730130Y-81263119D01*
X133478354Y-81313200D01*
X133221646Y-81313200D01*
X132969870Y-81263119D01*
X132916141Y-81240864D01*
X132732704Y-81164882D01*
X132690131Y-81136435D01*
X132519258Y-81022262D01*
X132337738Y-80840742D01*
X132195119Y-80627297D01*
X132195118Y-80627296D01*
X132096882Y-80390132D01*
X132096881Y-80390130D01*
X132046800Y-80138354D01*
X132046800Y-79881646D01*
X132096881Y-79629870D01*
X132119136Y-79576141D01*
X132195118Y-79392704D01*
X132223565Y-79350131D01*
X132337738Y-79179258D01*
X132519258Y-78997738D01*
X132732703Y-78855119D01*
X132732704Y-78855118D01*
X132969868Y-78756882D01*
X132969867Y-78756882D01*
X132969870Y-78756881D01*
X133221646Y-78706800D01*
X133478354Y-78706800D01*
X133730130Y-78756881D01*
G37*
G36*
X152780130Y-78756881D02*
G01*
X152780133Y-78756882D01*
X152780132Y-78756882D01*
X153017296Y-78855118D01*
X153017297Y-78855119D01*
X153230742Y-78997738D01*
X153412262Y-79179258D01*
X153526435Y-79350131D01*
X153554882Y-79392704D01*
X153630864Y-79576141D01*
X153653119Y-79629870D01*
X153703200Y-79881646D01*
X153703200Y-80138354D01*
X153653119Y-80390130D01*
X153653118Y-80390132D01*
X153554882Y-80627296D01*
X153554881Y-80627297D01*
X153412262Y-80840742D01*
X153230742Y-81022262D01*
X153059869Y-81136435D01*
X153017296Y-81164882D01*
X152833859Y-81240864D01*
X152780130Y-81263119D01*
X152528354Y-81313200D01*
X152271646Y-81313200D01*
X152019870Y-81263119D01*
X151966141Y-81240864D01*
X151782704Y-81164882D01*
X151740131Y-81136435D01*
X151569258Y-81022262D01*
X151387738Y-80840742D01*
X151245119Y-80627297D01*
X151245118Y-80627296D01*
X151146882Y-80390132D01*
X151146881Y-80390130D01*
X151096800Y-80138354D01*
X151096800Y-79881646D01*
X151146881Y-79629870D01*
X151169136Y-79576141D01*
X151245118Y-79392704D01*
X151273565Y-79350131D01*
X151387738Y-79179258D01*
X151569258Y-78997738D01*
X151782703Y-78855119D01*
X151782704Y-78855118D01*
X152019868Y-78756882D01*
X152019867Y-78756882D01*
X152019870Y-78756881D01*
X152271646Y-78706800D01*
X152528354Y-78706800D01*
X152780130Y-78756881D01*
G37*
G36*
X131168881Y-63865023D02*
G01*
X131452652Y-63921468D01*
X131853608Y-64087550D01*
X132214458Y-64328662D01*
X132521338Y-64635542D01*
X132762450Y-64996392D01*
X132928532Y-65397348D01*
X133013200Y-65823005D01*
X133013200Y-66256995D01*
X132928532Y-66682652D01*
X132762450Y-67083608D01*
X132521338Y-67444458D01*
X132214458Y-67751338D01*
X131853608Y-67992450D01*
X131452652Y-68158532D01*
X131168881Y-68214977D01*
X131026996Y-68243200D01*
X130593004Y-68243200D01*
X130451119Y-68214977D01*
X130167348Y-68158532D01*
X129766392Y-67992450D01*
X129405542Y-67751338D01*
X129098662Y-67444458D01*
X128857550Y-67083608D01*
X128691468Y-66682652D01*
X128606800Y-66256995D01*
X128606800Y-65823005D01*
X128691468Y-65397348D01*
X128857550Y-64996392D01*
X129098662Y-64635542D01*
X129405542Y-64328662D01*
X129766392Y-64087550D01*
X130167348Y-63921468D01*
X130451119Y-63865023D01*
X130593004Y-63836800D01*
X131026996Y-63836800D01*
X131168881Y-63865023D01*
G37*
G36*
X112118881Y-63865023D02*
G01*
X112402652Y-63921468D01*
X112803608Y-64087550D01*
X113164458Y-64328662D01*
X113471338Y-64635542D01*
X113712450Y-64996392D01*
X113878532Y-65397348D01*
X113963200Y-65823005D01*
X113963200Y-66256995D01*
X113878532Y-66682652D01*
X113712450Y-67083608D01*
X113471338Y-67444458D01*
X113164458Y-67751338D01*
X112803608Y-67992450D01*
X112402652Y-68158532D01*
X112118881Y-68214977D01*
X111976996Y-68243200D01*
X111543004Y-68243200D01*
X111401119Y-68214977D01*
X111117348Y-68158532D01*
X110716392Y-67992450D01*
X110355542Y-67751338D01*
X110048662Y-67444458D01*
X109807550Y-67083608D01*
X109641468Y-66682652D01*
X109556800Y-66256995D01*
X109556800Y-65823005D01*
X109641468Y-65397348D01*
X109807550Y-64996392D01*
X110048662Y-64635542D01*
X110355542Y-64328662D01*
X110716392Y-64087550D01*
X111117348Y-63921468D01*
X111401119Y-63865023D01*
X111543004Y-63836800D01*
X111976996Y-63836800D01*
X112118881Y-63865023D01*
G37*
G36*
X150218881Y-63865023D02*
G01*
X150502652Y-63921468D01*
X150903608Y-64087550D01*
X151264458Y-64328662D01*
X151571338Y-64635542D01*
X151812450Y-64996392D01*
X151978532Y-65397348D01*
X152063200Y-65823005D01*
X152063200Y-66256995D01*
X151978532Y-66682652D01*
X151812450Y-67083608D01*
X151571338Y-67444458D01*
X151264458Y-67751338D01*
X150903608Y-67992450D01*
X150502652Y-68158532D01*
X150218881Y-68214977D01*
X150076996Y-68243200D01*
X149643004Y-68243200D01*
X149501119Y-68214977D01*
X149217348Y-68158532D01*
X148816392Y-67992450D01*
X148455542Y-67751338D01*
X148148662Y-67444458D01*
X147907550Y-67083608D01*
X147741468Y-66682652D01*
X147656800Y-66256995D01*
X147656800Y-65823005D01*
X147741468Y-65397348D01*
X147907550Y-64996392D01*
X148148662Y-64635542D01*
X148455542Y-64328662D01*
X148816392Y-64087550D01*
X149217348Y-63921468D01*
X149501119Y-63865023D01*
X149643004Y-63836800D01*
X150076996Y-63836800D01*
X150218881Y-63865023D01*
G37*
G36*
X125881953Y-64996392D02*
G01*
X126037210Y-65027274D01*
X126228879Y-65106666D01*
X126401376Y-65221925D01*
X126548075Y-65368624D01*
X126663334Y-65541121D01*
X126742726Y-65732790D01*
X126783200Y-65936270D01*
X126783200Y-66143730D01*
X126742726Y-66347210D01*
X126663334Y-66538879D01*
X126548075Y-66711376D01*
X126401376Y-66858075D01*
X126228879Y-66973334D01*
X126037210Y-67052726D01*
X125884600Y-67083082D01*
X125833731Y-67093200D01*
X125626269Y-67093200D01*
X125575400Y-67083082D01*
X125422790Y-67052726D01*
X125231121Y-66973334D01*
X125058624Y-66858075D01*
X124911925Y-66711376D01*
X124796666Y-66538879D01*
X124717274Y-66347210D01*
X124676800Y-66143730D01*
X124676800Y-65936270D01*
X124717274Y-65732790D01*
X124796666Y-65541121D01*
X124911925Y-65368624D01*
X125058624Y-65221925D01*
X125231121Y-65106666D01*
X125422790Y-65027274D01*
X125578047Y-64996392D01*
X125626269Y-64986800D01*
X125833731Y-64986800D01*
X125881953Y-64996392D01*
G37*
G36*
X136041953Y-64996392D02*
G01*
X136197210Y-65027274D01*
X136388879Y-65106666D01*
X136561376Y-65221925D01*
X136708075Y-65368624D01*
X136823334Y-65541121D01*
X136902726Y-65732790D01*
X136943200Y-65936270D01*
X136943200Y-66143730D01*
X136902726Y-66347210D01*
X136823334Y-66538879D01*
X136708075Y-66711376D01*
X136561376Y-66858075D01*
X136388879Y-66973334D01*
X136197210Y-67052726D01*
X136044600Y-67083082D01*
X135993731Y-67093200D01*
X135786269Y-67093200D01*
X135735400Y-67083082D01*
X135582790Y-67052726D01*
X135391121Y-66973334D01*
X135218624Y-66858075D01*
X135071925Y-66711376D01*
X134956666Y-66538879D01*
X134877274Y-66347210D01*
X134836800Y-66143730D01*
X134836800Y-65936270D01*
X134877274Y-65732790D01*
X134956666Y-65541121D01*
X135071925Y-65368624D01*
X135218624Y-65221925D01*
X135391121Y-65106666D01*
X135582790Y-65027274D01*
X135738047Y-64996392D01*
X135786269Y-64986800D01*
X135993731Y-64986800D01*
X136041953Y-64996392D01*
G37*
G36*
X106831953Y-64996392D02*
G01*
X106987210Y-65027274D01*
X107178879Y-65106666D01*
X107351376Y-65221925D01*
X107498075Y-65368624D01*
X107613334Y-65541121D01*
X107692726Y-65732790D01*
X107733200Y-65936270D01*
X107733200Y-66143730D01*
X107692726Y-66347210D01*
X107613334Y-66538879D01*
X107498075Y-66711376D01*
X107351376Y-66858075D01*
X107178879Y-66973334D01*
X106987210Y-67052726D01*
X106834600Y-67083082D01*
X106783731Y-67093200D01*
X106576269Y-67093200D01*
X106525400Y-67083082D01*
X106372790Y-67052726D01*
X106181121Y-66973334D01*
X106008624Y-66858075D01*
X105861925Y-66711376D01*
X105746666Y-66538879D01*
X105667274Y-66347210D01*
X105626800Y-66143730D01*
X105626800Y-65936270D01*
X105667274Y-65732790D01*
X105746666Y-65541121D01*
X105861925Y-65368624D01*
X106008624Y-65221925D01*
X106181121Y-65106666D01*
X106372790Y-65027274D01*
X106528047Y-64996392D01*
X106576269Y-64986800D01*
X106783731Y-64986800D01*
X106831953Y-64996392D01*
G37*
G36*
X116991953Y-64996392D02*
G01*
X117147210Y-65027274D01*
X117338879Y-65106666D01*
X117511376Y-65221925D01*
X117658075Y-65368624D01*
X117773334Y-65541121D01*
X117852726Y-65732790D01*
X117893200Y-65936270D01*
X117893200Y-66143730D01*
X117852726Y-66347210D01*
X117773334Y-66538879D01*
X117658075Y-66711376D01*
X117511376Y-66858075D01*
X117338879Y-66973334D01*
X117147210Y-67052726D01*
X116994600Y-67083082D01*
X116943731Y-67093200D01*
X116736269Y-67093200D01*
X116685400Y-67083082D01*
X116532790Y-67052726D01*
X116341121Y-66973334D01*
X116168624Y-66858075D01*
X116021925Y-66711376D01*
X115906666Y-66538879D01*
X115827274Y-66347210D01*
X115786800Y-66143730D01*
X115786800Y-65936270D01*
X115827274Y-65732790D01*
X115906666Y-65541121D01*
X116021925Y-65368624D01*
X116168624Y-65221925D01*
X116341121Y-65106666D01*
X116532790Y-65027274D01*
X116688047Y-64996392D01*
X116736269Y-64986800D01*
X116943731Y-64986800D01*
X116991953Y-64996392D01*
G37*
G36*
X144931953Y-64996392D02*
G01*
X145087210Y-65027274D01*
X145278879Y-65106666D01*
X145451376Y-65221925D01*
X145598075Y-65368624D01*
X145713334Y-65541121D01*
X145792726Y-65732790D01*
X145833200Y-65936270D01*
X145833200Y-66143730D01*
X145792726Y-66347210D01*
X145713334Y-66538879D01*
X145598075Y-66711376D01*
X145451376Y-66858075D01*
X145278879Y-66973334D01*
X145087210Y-67052726D01*
X144934600Y-67083082D01*
X144883731Y-67093200D01*
X144676269Y-67093200D01*
X144625400Y-67083082D01*
X144472790Y-67052726D01*
X144281121Y-66973334D01*
X144108624Y-66858075D01*
X143961925Y-66711376D01*
X143846666Y-66538879D01*
X143767274Y-66347210D01*
X143726800Y-66143730D01*
X143726800Y-65936270D01*
X143767274Y-65732790D01*
X143846666Y-65541121D01*
X143961925Y-65368624D01*
X144108624Y-65221925D01*
X144281121Y-65106666D01*
X144472790Y-65027274D01*
X144628047Y-64996392D01*
X144676269Y-64986800D01*
X144883731Y-64986800D01*
X144931953Y-64996392D01*
G37*
G36*
X155091953Y-64996392D02*
G01*
X155247210Y-65027274D01*
X155438879Y-65106666D01*
X155611376Y-65221925D01*
X155758075Y-65368624D01*
X155873334Y-65541121D01*
X155952726Y-65732790D01*
X155993200Y-65936270D01*
X155993200Y-66143730D01*
X155952726Y-66347210D01*
X155873334Y-66538879D01*
X155758075Y-66711376D01*
X155611376Y-66858075D01*
X155438879Y-66973334D01*
X155247210Y-67052726D01*
X155094600Y-67083082D01*
X155043731Y-67093200D01*
X154836269Y-67093200D01*
X154785400Y-67083082D01*
X154632790Y-67052726D01*
X154441121Y-66973334D01*
X154268624Y-66858075D01*
X154121925Y-66711376D01*
X154006666Y-66538879D01*
X153927274Y-66347210D01*
X153886800Y-66143730D01*
X153886800Y-65936270D01*
X153927274Y-65732790D01*
X154006666Y-65541121D01*
X154121925Y-65368624D01*
X154268624Y-65221925D01*
X154441121Y-65106666D01*
X154632790Y-65027274D01*
X154788047Y-64996392D01*
X154836269Y-64986800D01*
X155043731Y-64986800D01*
X155091953Y-64996392D01*
G37*
G36*
X146430130Y-62246881D02*
G01*
X146430133Y-62246882D01*
X146430132Y-62246882D01*
X146667296Y-62345118D01*
X146667297Y-62345119D01*
X146880742Y-62487738D01*
X147062262Y-62669258D01*
X147176435Y-62840131D01*
X147204882Y-62882704D01*
X147280864Y-63066141D01*
X147303119Y-63119870D01*
X147353200Y-63371646D01*
X147353200Y-63628354D01*
X147303119Y-63880130D01*
X147303118Y-63880132D01*
X147204882Y-64117296D01*
X147204881Y-64117297D01*
X147062262Y-64330742D01*
X146880742Y-64512262D01*
X146709869Y-64626435D01*
X146667296Y-64654882D01*
X146483859Y-64730864D01*
X146430130Y-64753119D01*
X146178354Y-64803200D01*
X145921646Y-64803200D01*
X145669870Y-64753119D01*
X145616141Y-64730864D01*
X145432704Y-64654882D01*
X145390131Y-64626435D01*
X145219258Y-64512262D01*
X145037738Y-64330742D01*
X144895119Y-64117297D01*
X144895118Y-64117296D01*
X144796882Y-63880132D01*
X144796881Y-63880130D01*
X144746800Y-63628354D01*
X144746800Y-63371646D01*
X144796881Y-63119870D01*
X144819136Y-63066141D01*
X144895118Y-62882704D01*
X144923565Y-62840131D01*
X145037738Y-62669258D01*
X145219258Y-62487738D01*
X145432703Y-62345119D01*
X145432704Y-62345118D01*
X145669868Y-62246882D01*
X145669867Y-62246882D01*
X145669870Y-62246881D01*
X145921646Y-62196800D01*
X146178354Y-62196800D01*
X146430130Y-62246881D01*
G37*
G36*
X127380130Y-62246881D02*
G01*
X127380133Y-62246882D01*
X127380132Y-62246882D01*
X127617296Y-62345118D01*
X127617297Y-62345119D01*
X127830742Y-62487738D01*
X128012262Y-62669258D01*
X128126435Y-62840131D01*
X128154882Y-62882704D01*
X128230864Y-63066141D01*
X128253119Y-63119870D01*
X128303200Y-63371646D01*
X128303200Y-63628354D01*
X128253119Y-63880130D01*
X128253118Y-63880132D01*
X128154882Y-64117296D01*
X128154881Y-64117297D01*
X128012262Y-64330742D01*
X127830742Y-64512262D01*
X127659869Y-64626435D01*
X127617296Y-64654882D01*
X127433859Y-64730864D01*
X127380130Y-64753119D01*
X127128354Y-64803200D01*
X126871646Y-64803200D01*
X126619870Y-64753119D01*
X126566141Y-64730864D01*
X126382704Y-64654882D01*
X126340131Y-64626435D01*
X126169258Y-64512262D01*
X125987738Y-64330742D01*
X125845119Y-64117297D01*
X125845118Y-64117296D01*
X125746882Y-63880132D01*
X125746881Y-63880130D01*
X125696800Y-63628354D01*
X125696800Y-63371646D01*
X125746881Y-63119870D01*
X125769136Y-63066141D01*
X125845118Y-62882704D01*
X125873565Y-62840131D01*
X125987738Y-62669258D01*
X126169258Y-62487738D01*
X126382703Y-62345119D01*
X126382704Y-62345118D01*
X126619868Y-62246882D01*
X126619867Y-62246882D01*
X126619870Y-62246881D01*
X126871646Y-62196800D01*
X127128354Y-62196800D01*
X127380130Y-62246881D01*
G37*
G36*
X108330130Y-62246881D02*
G01*
X108330133Y-62246882D01*
X108330132Y-62246882D01*
X108567296Y-62345118D01*
X108567297Y-62345119D01*
X108780742Y-62487738D01*
X108962262Y-62669258D01*
X109076435Y-62840131D01*
X109104882Y-62882704D01*
X109180864Y-63066141D01*
X109203119Y-63119870D01*
X109253200Y-63371646D01*
X109253200Y-63628354D01*
X109203119Y-63880130D01*
X109203118Y-63880132D01*
X109104882Y-64117296D01*
X109104881Y-64117297D01*
X108962262Y-64330742D01*
X108780742Y-64512262D01*
X108609869Y-64626435D01*
X108567296Y-64654882D01*
X108383859Y-64730864D01*
X108330130Y-64753119D01*
X108078354Y-64803200D01*
X107821646Y-64803200D01*
X107569870Y-64753119D01*
X107516141Y-64730864D01*
X107332704Y-64654882D01*
X107290131Y-64626435D01*
X107119258Y-64512262D01*
X106937738Y-64330742D01*
X106795119Y-64117297D01*
X106795118Y-64117296D01*
X106696882Y-63880132D01*
X106696881Y-63880130D01*
X106646800Y-63628354D01*
X106646800Y-63371646D01*
X106696881Y-63119870D01*
X106719136Y-63066141D01*
X106795118Y-62882704D01*
X106823565Y-62840131D01*
X106937738Y-62669258D01*
X107119258Y-62487738D01*
X107332703Y-62345119D01*
X107332704Y-62345118D01*
X107569868Y-62246882D01*
X107569867Y-62246882D01*
X107569870Y-62246881D01*
X107821646Y-62196800D01*
X108078354Y-62196800D01*
X108330130Y-62246881D01*
G37*
G36*
X152780130Y-59706881D02*
G01*
X152780133Y-59706882D01*
X152780132Y-59706882D01*
X153017296Y-59805118D01*
X153017297Y-59805119D01*
X153230742Y-59947738D01*
X153412262Y-60129258D01*
X153464205Y-60206997D01*
X153554882Y-60342704D01*
X153568087Y-60374585D01*
X153653119Y-60579870D01*
X153703200Y-60831646D01*
X153703200Y-61088354D01*
X153653119Y-61340130D01*
X153653118Y-61340132D01*
X153554882Y-61577296D01*
X153554881Y-61577297D01*
X153412262Y-61790742D01*
X153230742Y-61972262D01*
X153059869Y-62086435D01*
X153017296Y-62114882D01*
X152833859Y-62190864D01*
X152780130Y-62213119D01*
X152528354Y-62263200D01*
X152271646Y-62263200D01*
X152019870Y-62213119D01*
X151966141Y-62190864D01*
X151782704Y-62114882D01*
X151740131Y-62086435D01*
X151569258Y-61972262D01*
X151387738Y-61790742D01*
X151245119Y-61577297D01*
X151245118Y-61577296D01*
X151146882Y-61340132D01*
X151146881Y-61340130D01*
X151096800Y-61088354D01*
X151096800Y-60831646D01*
X151146881Y-60579870D01*
X151231913Y-60374585D01*
X151245118Y-60342704D01*
X151335795Y-60206997D01*
X151387738Y-60129258D01*
X151569258Y-59947738D01*
X151782703Y-59805119D01*
X151782704Y-59805118D01*
X152019868Y-59706882D01*
X152019867Y-59706882D01*
X152019870Y-59706881D01*
X152271646Y-59656800D01*
X152528354Y-59656800D01*
X152780130Y-59706881D01*
G37*
G36*
X133730130Y-59706881D02*
G01*
X133730133Y-59706882D01*
X133730132Y-59706882D01*
X133967296Y-59805118D01*
X133967297Y-59805119D01*
X134180742Y-59947738D01*
X134362262Y-60129258D01*
X134414205Y-60206997D01*
X134504882Y-60342704D01*
X134518087Y-60374585D01*
X134603119Y-60579870D01*
X134653200Y-60831646D01*
X134653200Y-61088354D01*
X134603119Y-61340130D01*
X134603118Y-61340132D01*
X134504882Y-61577296D01*
X134504881Y-61577297D01*
X134362262Y-61790742D01*
X134180742Y-61972262D01*
X134009869Y-62086435D01*
X133967296Y-62114882D01*
X133783859Y-62190864D01*
X133730130Y-62213119D01*
X133478354Y-62263200D01*
X133221646Y-62263200D01*
X132969870Y-62213119D01*
X132916141Y-62190864D01*
X132732704Y-62114882D01*
X132690131Y-62086435D01*
X132519258Y-61972262D01*
X132337738Y-61790742D01*
X132195119Y-61577297D01*
X132195118Y-61577296D01*
X132096882Y-61340132D01*
X132096881Y-61340130D01*
X132046800Y-61088354D01*
X132046800Y-60831646D01*
X132096881Y-60579870D01*
X132181913Y-60374585D01*
X132195118Y-60342704D01*
X132285795Y-60206997D01*
X132337738Y-60129258D01*
X132519258Y-59947738D01*
X132732703Y-59805119D01*
X132732704Y-59805118D01*
X132969868Y-59706882D01*
X132969867Y-59706882D01*
X132969870Y-59706881D01*
X133221646Y-59656800D01*
X133478354Y-59656800D01*
X133730130Y-59706881D01*
G37*
G36*
X114680130Y-59706881D02*
G01*
X114680133Y-59706882D01*
X114680132Y-59706882D01*
X114917296Y-59805118D01*
X114917297Y-59805119D01*
X115130742Y-59947738D01*
X115312262Y-60129258D01*
X115364205Y-60206997D01*
X115454882Y-60342704D01*
X115468087Y-60374585D01*
X115553119Y-60579870D01*
X115603200Y-60831646D01*
X115603200Y-61088354D01*
X115553119Y-61340130D01*
X115553118Y-61340132D01*
X115454882Y-61577296D01*
X115454881Y-61577297D01*
X115312262Y-61790742D01*
X115130742Y-61972262D01*
X114959869Y-62086435D01*
X114917296Y-62114882D01*
X114733859Y-62190864D01*
X114680130Y-62213119D01*
X114428354Y-62263200D01*
X114171646Y-62263200D01*
X113919870Y-62213119D01*
X113866141Y-62190864D01*
X113682704Y-62114882D01*
X113640131Y-62086435D01*
X113469258Y-61972262D01*
X113287738Y-61790742D01*
X113145119Y-61577297D01*
X113145118Y-61577296D01*
X113046882Y-61340132D01*
X113046881Y-61340130D01*
X112996800Y-61088354D01*
X112996800Y-60831646D01*
X113046881Y-60579870D01*
X113131913Y-60374585D01*
X113145118Y-60342704D01*
X113235795Y-60206997D01*
X113287738Y-60129258D01*
X113469258Y-59947738D01*
X113682703Y-59805119D01*
X113682704Y-59805118D01*
X113919868Y-59706882D01*
X113919867Y-59706882D01*
X113919870Y-59706881D01*
X114171646Y-59656800D01*
X114428354Y-59656800D01*
X114680130Y-59706881D01*
G37*
G36*
X165450961Y-58283038D02*
G01*
X165450964Y-58283039D01*
X165450963Y-58283039D01*
X165669928Y-58373737D01*
X165669929Y-58373738D01*
X165866995Y-58505413D01*
X166034587Y-58673005D01*
X166122370Y-58804382D01*
X166166263Y-58870072D01*
X166236415Y-59039433D01*
X166256962Y-59089039D01*
X166303200Y-59321495D01*
X166303200Y-59558505D01*
X166256962Y-59790961D01*
X166236415Y-59840567D01*
X166166263Y-60009928D01*
X166166262Y-60009929D01*
X166034587Y-60206995D01*
X165866995Y-60374587D01*
X165735618Y-60462370D01*
X165669928Y-60506263D01*
X165500567Y-60576415D01*
X165450961Y-60596962D01*
X165218505Y-60643200D01*
X164981495Y-60643200D01*
X164749039Y-60596962D01*
X164699433Y-60576415D01*
X164530072Y-60506263D01*
X164464382Y-60462370D01*
X164333005Y-60374587D01*
X164165413Y-60206995D01*
X164033738Y-60009929D01*
X164033737Y-60009928D01*
X163963585Y-59840567D01*
X163943038Y-59790961D01*
X163896800Y-59558505D01*
X163896800Y-59321495D01*
X163943038Y-59089039D01*
X163963585Y-59039433D01*
X164033737Y-58870072D01*
X164077630Y-58804382D01*
X164165413Y-58673005D01*
X164333005Y-58505413D01*
X164530071Y-58373738D01*
X164530072Y-58373737D01*
X164749037Y-58283039D01*
X164749036Y-58283039D01*
X164749039Y-58283038D01*
X164981495Y-58236800D01*
X165218505Y-58236800D01*
X165450961Y-58283038D01*
G37*
G36*
X96870961Y-58283038D02*
G01*
X96870964Y-58283039D01*
X96870963Y-58283039D01*
X97089928Y-58373737D01*
X97089929Y-58373738D01*
X97286995Y-58505413D01*
X97454587Y-58673005D01*
X97542370Y-58804382D01*
X97586263Y-58870072D01*
X97656415Y-59039433D01*
X97676962Y-59089039D01*
X97723200Y-59321495D01*
X97723200Y-59558505D01*
X97676962Y-59790961D01*
X97656415Y-59840567D01*
X97586263Y-60009928D01*
X97586262Y-60009929D01*
X97454587Y-60206995D01*
X97286995Y-60374587D01*
X97155618Y-60462370D01*
X97089928Y-60506263D01*
X96920567Y-60576415D01*
X96870961Y-60596962D01*
X96638505Y-60643200D01*
X96401495Y-60643200D01*
X96169039Y-60596962D01*
X96119433Y-60576415D01*
X95950072Y-60506263D01*
X95884382Y-60462370D01*
X95753005Y-60374587D01*
X95585413Y-60206995D01*
X95453738Y-60009929D01*
X95453737Y-60009928D01*
X95383585Y-59840567D01*
X95363038Y-59790961D01*
X95316800Y-59558505D01*
X95316800Y-59321495D01*
X95363038Y-59089039D01*
X95383585Y-59039433D01*
X95453737Y-58870072D01*
X95497630Y-58804382D01*
X95585413Y-58673005D01*
X95753005Y-58505413D01*
X95950071Y-58373738D01*
X95950072Y-58373737D01*
X96169037Y-58283039D01*
X96169036Y-58283039D01*
X96169039Y-58283038D01*
X96401495Y-58236800D01*
X96638505Y-58236800D01*
X96870961Y-58283038D01*
G37*
G36*
X117233921Y-50998958D02*
G01*
X117372041Y-51026431D01*
X117545509Y-51098284D01*
X117701631Y-51202602D01*
X117834398Y-51335369D01*
X117938716Y-51491491D01*
X118010569Y-51664959D01*
X118047200Y-51849119D01*
X118047200Y-52036881D01*
X118010569Y-52221041D01*
X117938716Y-52394509D01*
X117834398Y-52550631D01*
X117701631Y-52683398D01*
X117545509Y-52787716D01*
X117372041Y-52859569D01*
X117233921Y-52887042D01*
X117187882Y-52896200D01*
X117000118Y-52896200D01*
X116954079Y-52887042D01*
X116815959Y-52859569D01*
X116642491Y-52787716D01*
X116486369Y-52683398D01*
X116353602Y-52550631D01*
X116249284Y-52394509D01*
X116177431Y-52221041D01*
X116140800Y-52036881D01*
X116140800Y-51849119D01*
X116177431Y-51664959D01*
X116249284Y-51491491D01*
X116353602Y-51335369D01*
X116486369Y-51202602D01*
X116642491Y-51098284D01*
X116815959Y-51026431D01*
X116954079Y-50998958D01*
X117000118Y-50989800D01*
X117187882Y-50989800D01*
X117233921Y-50998958D01*
G37*
G36*
X109613921Y-50998958D02*
G01*
X109752041Y-51026431D01*
X109925509Y-51098284D01*
X110081631Y-51202602D01*
X110214398Y-51335369D01*
X110318716Y-51491491D01*
X110390569Y-51664959D01*
X110427200Y-51849119D01*
X110427200Y-52036881D01*
X110390569Y-52221041D01*
X110318716Y-52394509D01*
X110214398Y-52550631D01*
X110081631Y-52683398D01*
X109925509Y-52787716D01*
X109752041Y-52859569D01*
X109613921Y-52887042D01*
X109567882Y-52896200D01*
X109380118Y-52896200D01*
X109334079Y-52887042D01*
X109195959Y-52859569D01*
X109022491Y-52787716D01*
X108866369Y-52683398D01*
X108733602Y-52550631D01*
X108629284Y-52394509D01*
X108557431Y-52221041D01*
X108520800Y-52036881D01*
X108520800Y-51849119D01*
X108557431Y-51664959D01*
X108629284Y-51491491D01*
X108733602Y-51335369D01*
X108866369Y-51202602D01*
X109022491Y-51098284D01*
X109195959Y-51026431D01*
X109334079Y-50998958D01*
X109380118Y-50989800D01*
X109567882Y-50989800D01*
X109613921Y-50998958D01*
G37*
G36*
X114693921Y-50998958D02*
G01*
X114832041Y-51026431D01*
X115005509Y-51098284D01*
X115161631Y-51202602D01*
X115294398Y-51335369D01*
X115398716Y-51491491D01*
X115470569Y-51664959D01*
X115507200Y-51849119D01*
X115507200Y-52036881D01*
X115470569Y-52221041D01*
X115398716Y-52394509D01*
X115294398Y-52550631D01*
X115161631Y-52683398D01*
X115005509Y-52787716D01*
X114832041Y-52859569D01*
X114693921Y-52887042D01*
X114647882Y-52896200D01*
X114460118Y-52896200D01*
X114414079Y-52887042D01*
X114275959Y-52859569D01*
X114102491Y-52787716D01*
X113946369Y-52683398D01*
X113813602Y-52550631D01*
X113709284Y-52394509D01*
X113637431Y-52221041D01*
X113600800Y-52036881D01*
X113600800Y-51849119D01*
X113637431Y-51664959D01*
X113709284Y-51491491D01*
X113813602Y-51335369D01*
X113946369Y-51202602D01*
X114102491Y-51098284D01*
X114275959Y-51026431D01*
X114414079Y-50998958D01*
X114460118Y-50989800D01*
X114647882Y-50989800D01*
X114693921Y-50998958D01*
G37*
G36*
X112153921Y-50998958D02*
G01*
X112292041Y-51026431D01*
X112465509Y-51098284D01*
X112621631Y-51202602D01*
X112754398Y-51335369D01*
X112858716Y-51491491D01*
X112930569Y-51664959D01*
X112967200Y-51849119D01*
X112967200Y-52036881D01*
X112930569Y-52221041D01*
X112858716Y-52394509D01*
X112754398Y-52550631D01*
X112621631Y-52683398D01*
X112465509Y-52787716D01*
X112292041Y-52859569D01*
X112153921Y-52887042D01*
X112107882Y-52896200D01*
X111920118Y-52896200D01*
X111874079Y-52887042D01*
X111735959Y-52859569D01*
X111562491Y-52787716D01*
X111406369Y-52683398D01*
X111273602Y-52550631D01*
X111169284Y-52394509D01*
X111097431Y-52221041D01*
X111060800Y-52036881D01*
X111060800Y-51849119D01*
X111097431Y-51664959D01*
X111169284Y-51491491D01*
X111273602Y-51335369D01*
X111406369Y-51202602D01*
X111562491Y-51098284D01*
X111735959Y-51026431D01*
X111874079Y-50998958D01*
X111920118Y-50989800D01*
X112107882Y-50989800D01*
X112153921Y-50998958D01*
G37*
G36*
X142939200Y-52896200D02*
G01*
X141032800Y-52896200D01*
X141032800Y-50989800D01*
X142939200Y-50989800D01*
X142939200Y-52896200D01*
G37*
G36*
X144665921Y-50998958D02*
G01*
X144804041Y-51026431D01*
X144977509Y-51098284D01*
X145133631Y-51202602D01*
X145266398Y-51335369D01*
X145370716Y-51491491D01*
X145442569Y-51664959D01*
X145479200Y-51849119D01*
X145479200Y-52036881D01*
X145442569Y-52221041D01*
X145370716Y-52394509D01*
X145266398Y-52550631D01*
X145133631Y-52683398D01*
X144977509Y-52787716D01*
X144804041Y-52859569D01*
X144665921Y-52887042D01*
X144619882Y-52896200D01*
X144432118Y-52896200D01*
X144386079Y-52887042D01*
X144247959Y-52859569D01*
X144074491Y-52787716D01*
X143918369Y-52683398D01*
X143785602Y-52550631D01*
X143681284Y-52394509D01*
X143609431Y-52221041D01*
X143572800Y-52036881D01*
X143572800Y-51849119D01*
X143609431Y-51664959D01*
X143681284Y-51491491D01*
X143785602Y-51335369D01*
X143918369Y-51202602D01*
X144074491Y-51098284D01*
X144247959Y-51026431D01*
X144386079Y-50998958D01*
X144432118Y-50989800D01*
X144619882Y-50989800D01*
X144665921Y-50998958D01*
G37*
G36*
X147205921Y-50998958D02*
G01*
X147344041Y-51026431D01*
X147517509Y-51098284D01*
X147673631Y-51202602D01*
X147806398Y-51335369D01*
X147910716Y-51491491D01*
X147982569Y-51664959D01*
X148019200Y-51849119D01*
X148019200Y-52036881D01*
X147982569Y-52221041D01*
X147910716Y-52394509D01*
X147806398Y-52550631D01*
X147673631Y-52683398D01*
X147517509Y-52787716D01*
X147344041Y-52859569D01*
X147205921Y-52887042D01*
X147159882Y-52896200D01*
X146972118Y-52896200D01*
X146926079Y-52887042D01*
X146787959Y-52859569D01*
X146614491Y-52787716D01*
X146458369Y-52683398D01*
X146325602Y-52550631D01*
X146221284Y-52394509D01*
X146149431Y-52221041D01*
X146112800Y-52036881D01*
X146112800Y-51849119D01*
X146149431Y-51664959D01*
X146221284Y-51491491D01*
X146325602Y-51335369D01*
X146458369Y-51202602D01*
X146614491Y-51098284D01*
X146787959Y-51026431D01*
X146926079Y-50998958D01*
X146972118Y-50989800D01*
X147159882Y-50989800D01*
X147205921Y-50998958D01*
G37*
G36*
X149745921Y-50998958D02*
G01*
X149884041Y-51026431D01*
X150057509Y-51098284D01*
X150213631Y-51202602D01*
X150346398Y-51335369D01*
X150450716Y-51491491D01*
X150522569Y-51664959D01*
X150559200Y-51849119D01*
X150559200Y-52036881D01*
X150522569Y-52221041D01*
X150450716Y-52394509D01*
X150346398Y-52550631D01*
X150213631Y-52683398D01*
X150057509Y-52787716D01*
X149884041Y-52859569D01*
X149745921Y-52887042D01*
X149699882Y-52896200D01*
X149512118Y-52896200D01*
X149466079Y-52887042D01*
X149327959Y-52859569D01*
X149154491Y-52787716D01*
X148998369Y-52683398D01*
X148865602Y-52550631D01*
X148761284Y-52394509D01*
X148689431Y-52221041D01*
X148652800Y-52036881D01*
X148652800Y-51849119D01*
X148689431Y-51664959D01*
X148761284Y-51491491D01*
X148865602Y-51335369D01*
X148998369Y-51202602D01*
X149154491Y-51098284D01*
X149327959Y-51026431D01*
X149466079Y-50998958D01*
X149512118Y-50989800D01*
X149699882Y-50989800D01*
X149745921Y-50998958D01*
G37*
G36*
X152285921Y-50998958D02*
G01*
X152424041Y-51026431D01*
X152597509Y-51098284D01*
X152753631Y-51202602D01*
X152886398Y-51335369D01*
X152990716Y-51491491D01*
X153062569Y-51664959D01*
X153099200Y-51849119D01*
X153099200Y-52036881D01*
X153062569Y-52221041D01*
X152990716Y-52394509D01*
X152886398Y-52550631D01*
X152753631Y-52683398D01*
X152597509Y-52787716D01*
X152424041Y-52859569D01*
X152285921Y-52887042D01*
X152239882Y-52896200D01*
X152052118Y-52896200D01*
X152006079Y-52887042D01*
X151867959Y-52859569D01*
X151694491Y-52787716D01*
X151538369Y-52683398D01*
X151405602Y-52550631D01*
X151301284Y-52394509D01*
X151229431Y-52221041D01*
X151192800Y-52036881D01*
X151192800Y-51849119D01*
X151229431Y-51664959D01*
X151301284Y-51491491D01*
X151405602Y-51335369D01*
X151538369Y-51202602D01*
X151694491Y-51098284D01*
X151867959Y-51026431D01*
X152006079Y-50998958D01*
X152052118Y-50989800D01*
X152239882Y-50989800D01*
X152285921Y-50998958D01*
G37*
G36*
X154825921Y-50998958D02*
G01*
X154964041Y-51026431D01*
X155137509Y-51098284D01*
X155293631Y-51202602D01*
X155426398Y-51335369D01*
X155530716Y-51491491D01*
X155602569Y-51664959D01*
X155639200Y-51849119D01*
X155639200Y-52036881D01*
X155602569Y-52221041D01*
X155530716Y-52394509D01*
X155426398Y-52550631D01*
X155293631Y-52683398D01*
X155137509Y-52787716D01*
X154964041Y-52859569D01*
X154825921Y-52887042D01*
X154779882Y-52896200D01*
X154592118Y-52896200D01*
X154546079Y-52887042D01*
X154407959Y-52859569D01*
X154234491Y-52787716D01*
X154078369Y-52683398D01*
X153945602Y-52550631D01*
X153841284Y-52394509D01*
X153769431Y-52221041D01*
X153732800Y-52036881D01*
X153732800Y-51849119D01*
X153769431Y-51664959D01*
X153841284Y-51491491D01*
X153945602Y-51335369D01*
X154078369Y-51202602D01*
X154234491Y-51098284D01*
X154407959Y-51026431D01*
X154546079Y-50998958D01*
X154592118Y-50989800D01*
X154779882Y-50989800D01*
X154825921Y-50998958D01*
G37*
G36*
X157365921Y-50998958D02*
G01*
X157504041Y-51026431D01*
X157677509Y-51098284D01*
X157833631Y-51202602D01*
X157966398Y-51335369D01*
X158070716Y-51491491D01*
X158142569Y-51664959D01*
X158179200Y-51849119D01*
X158179200Y-52036881D01*
X158142569Y-52221041D01*
X158070716Y-52394509D01*
X157966398Y-52550631D01*
X157833631Y-52683398D01*
X157677509Y-52787716D01*
X157504041Y-52859569D01*
X157365921Y-52887042D01*
X157319882Y-52896200D01*
X157132118Y-52896200D01*
X157086079Y-52887042D01*
X156947959Y-52859569D01*
X156774491Y-52787716D01*
X156618369Y-52683398D01*
X156485602Y-52550631D01*
X156381284Y-52394509D01*
X156309431Y-52221041D01*
X156272800Y-52036881D01*
X156272800Y-51849119D01*
X156309431Y-51664959D01*
X156381284Y-51491491D01*
X156485602Y-51335369D01*
X156618369Y-51202602D01*
X156774491Y-51098284D01*
X156947959Y-51026431D01*
X157086079Y-50998958D01*
X157132118Y-50989800D01*
X157319882Y-50989800D01*
X157365921Y-50998958D01*
G37*
G36*
X159905921Y-50998958D02*
G01*
X160044041Y-51026431D01*
X160217509Y-51098284D01*
X160373631Y-51202602D01*
X160506398Y-51335369D01*
X160610716Y-51491491D01*
X160682569Y-51664959D01*
X160719200Y-51849119D01*
X160719200Y-52036881D01*
X160682569Y-52221041D01*
X160610716Y-52394509D01*
X160506398Y-52550631D01*
X160373631Y-52683398D01*
X160217509Y-52787716D01*
X160044041Y-52859569D01*
X159905921Y-52887042D01*
X159859882Y-52896200D01*
X159672118Y-52896200D01*
X159626079Y-52887042D01*
X159487959Y-52859569D01*
X159314491Y-52787716D01*
X159158369Y-52683398D01*
X159025602Y-52550631D01*
X158921284Y-52394509D01*
X158849431Y-52221041D01*
X158812800Y-52036881D01*
X158812800Y-51849119D01*
X158849431Y-51664959D01*
X158921284Y-51491491D01*
X159025602Y-51335369D01*
X159158369Y-51202602D01*
X159314491Y-51098284D01*
X159487959Y-51026431D01*
X159626079Y-50998958D01*
X159672118Y-50989800D01*
X159859882Y-50989800D01*
X159905921Y-50998958D01*
G37*
G36*
X107073921Y-50998958D02*
G01*
X107212041Y-51026431D01*
X107385509Y-51098284D01*
X107541631Y-51202602D01*
X107674398Y-51335369D01*
X107778716Y-51491491D01*
X107850569Y-51664959D01*
X107887200Y-51849119D01*
X107887200Y-52036881D01*
X107850569Y-52221041D01*
X107778716Y-52394509D01*
X107674398Y-52550631D01*
X107541631Y-52683398D01*
X107385509Y-52787716D01*
X107212041Y-52859569D01*
X107073921Y-52887042D01*
X107027882Y-52896200D01*
X106840118Y-52896200D01*
X106794079Y-52887042D01*
X106655959Y-52859569D01*
X106482491Y-52787716D01*
X106326369Y-52683398D01*
X106193602Y-52550631D01*
X106089284Y-52394509D01*
X106017431Y-52221041D01*
X105980800Y-52036881D01*
X105980800Y-51849119D01*
X106017431Y-51664959D01*
X106089284Y-51491491D01*
X106193602Y-51335369D01*
X106326369Y-51202602D01*
X106482491Y-51098284D01*
X106655959Y-51026431D01*
X106794079Y-50998958D01*
X106840118Y-50989800D01*
X107027882Y-50989800D01*
X107073921Y-50998958D01*
G37*
G36*
X104533921Y-50998958D02*
G01*
X104672041Y-51026431D01*
X104845509Y-51098284D01*
X105001631Y-51202602D01*
X105134398Y-51335369D01*
X105238716Y-51491491D01*
X105310569Y-51664959D01*
X105347200Y-51849119D01*
X105347200Y-52036881D01*
X105310569Y-52221041D01*
X105238716Y-52394509D01*
X105134398Y-52550631D01*
X105001631Y-52683398D01*
X104845509Y-52787716D01*
X104672041Y-52859569D01*
X104533921Y-52887042D01*
X104487882Y-52896200D01*
X104300118Y-52896200D01*
X104254079Y-52887042D01*
X104115959Y-52859569D01*
X103942491Y-52787716D01*
X103786369Y-52683398D01*
X103653602Y-52550631D01*
X103549284Y-52394509D01*
X103477431Y-52221041D01*
X103440800Y-52036881D01*
X103440800Y-51849119D01*
X103477431Y-51664959D01*
X103549284Y-51491491D01*
X103653602Y-51335369D01*
X103786369Y-51202602D01*
X103942491Y-51098284D01*
X104115959Y-51026431D01*
X104254079Y-50998958D01*
X104300118Y-50989800D01*
X104487882Y-50989800D01*
X104533921Y-50998958D01*
G37*
G36*
X102807200Y-52896200D02*
G01*
X100900800Y-52896200D01*
X100900800Y-50989800D01*
X102807200Y-50989800D01*
X102807200Y-52896200D01*
G37*
G36*
X119773921Y-50998958D02*
G01*
X119912041Y-51026431D01*
X120085509Y-51098284D01*
X120241631Y-51202602D01*
X120374398Y-51335369D01*
X120478716Y-51491491D01*
X120550569Y-51664959D01*
X120587200Y-51849119D01*
X120587200Y-52036881D01*
X120550569Y-52221041D01*
X120478716Y-52394509D01*
X120374398Y-52550631D01*
X120241631Y-52683398D01*
X120085509Y-52787716D01*
X119912041Y-52859569D01*
X119773921Y-52887042D01*
X119727882Y-52896200D01*
X119540118Y-52896200D01*
X119494079Y-52887042D01*
X119355959Y-52859569D01*
X119182491Y-52787716D01*
X119026369Y-52683398D01*
X118893602Y-52550631D01*
X118789284Y-52394509D01*
X118717431Y-52221041D01*
X118680800Y-52036881D01*
X118680800Y-51849119D01*
X118717431Y-51664959D01*
X118789284Y-51491491D01*
X118893602Y-51335369D01*
X119026369Y-51202602D01*
X119182491Y-51098284D01*
X119355959Y-51026431D01*
X119494079Y-50998958D01*
X119540118Y-50989800D01*
X119727882Y-50989800D01*
X119773921Y-50998958D01*
G37*
G36*
X107075682Y-40827073D02*
G01*
X107215541Y-40854892D01*
X107391191Y-40927649D01*
X107549282Y-41033282D01*
X107683718Y-41167718D01*
X107789351Y-41325809D01*
X107862108Y-41501459D01*
X107899200Y-41687937D01*
X107899200Y-41878063D01*
X107862108Y-42064541D01*
X107789351Y-42240191D01*
X107683718Y-42398282D01*
X107549282Y-42532718D01*
X107391191Y-42638351D01*
X107215541Y-42711108D01*
X107089392Y-42736200D01*
X107029064Y-42748200D01*
X106838936Y-42748200D01*
X106778608Y-42736200D01*
X106652459Y-42711108D01*
X106476809Y-42638351D01*
X106318718Y-42532718D01*
X106184282Y-42398282D01*
X106078649Y-42240191D01*
X106005892Y-42064541D01*
X105968800Y-41878063D01*
X105968800Y-41687937D01*
X106005892Y-41501459D01*
X106078649Y-41325809D01*
X106184282Y-41167718D01*
X106318718Y-41033282D01*
X106476809Y-40927649D01*
X106652459Y-40854892D01*
X106792318Y-40827073D01*
X106838936Y-40817800D01*
X107029064Y-40817800D01*
X107075682Y-40827073D01*
G37*
G36*
X149747682Y-40827073D02*
G01*
X149887541Y-40854892D01*
X150063191Y-40927649D01*
X150221282Y-41033282D01*
X150355718Y-41167718D01*
X150461351Y-41325809D01*
X150534108Y-41501459D01*
X150571200Y-41687937D01*
X150571200Y-41878063D01*
X150534108Y-42064541D01*
X150461351Y-42240191D01*
X150355718Y-42398282D01*
X150221282Y-42532718D01*
X150063191Y-42638351D01*
X149887541Y-42711108D01*
X149761392Y-42736200D01*
X149701064Y-42748200D01*
X149510936Y-42748200D01*
X149450608Y-42736200D01*
X149324459Y-42711108D01*
X149148809Y-42638351D01*
X148990718Y-42532718D01*
X148856282Y-42398282D01*
X148750649Y-42240191D01*
X148677892Y-42064541D01*
X148640800Y-41878063D01*
X148640800Y-41687937D01*
X148677892Y-41501459D01*
X148750649Y-41325809D01*
X148856282Y-41167718D01*
X148990718Y-41033282D01*
X149148809Y-40927649D01*
X149324459Y-40854892D01*
X149464318Y-40827073D01*
X149510936Y-40817800D01*
X149701064Y-40817800D01*
X149747682Y-40827073D01*
G37*
G36*
X147207682Y-40827073D02*
G01*
X147347541Y-40854892D01*
X147523191Y-40927649D01*
X147681282Y-41033282D01*
X147815718Y-41167718D01*
X147921351Y-41325809D01*
X147994108Y-41501459D01*
X148031200Y-41687937D01*
X148031200Y-41878063D01*
X147994108Y-42064541D01*
X147921351Y-42240191D01*
X147815718Y-42398282D01*
X147681282Y-42532718D01*
X147523191Y-42638351D01*
X147347541Y-42711108D01*
X147221392Y-42736200D01*
X147161064Y-42748200D01*
X146970936Y-42748200D01*
X146910608Y-42736200D01*
X146784459Y-42711108D01*
X146608809Y-42638351D01*
X146450718Y-42532718D01*
X146316282Y-42398282D01*
X146210649Y-42240191D01*
X146137892Y-42064541D01*
X146100800Y-41878063D01*
X146100800Y-41687937D01*
X146137892Y-41501459D01*
X146210649Y-41325809D01*
X146316282Y-41167718D01*
X146450718Y-41033282D01*
X146608809Y-40927649D01*
X146784459Y-40854892D01*
X146924318Y-40827073D01*
X146970936Y-40817800D01*
X147161064Y-40817800D01*
X147207682Y-40827073D01*
G37*
G36*
X109615682Y-40827073D02*
G01*
X109755541Y-40854892D01*
X109931191Y-40927649D01*
X110089282Y-41033282D01*
X110223718Y-41167718D01*
X110329351Y-41325809D01*
X110402108Y-41501459D01*
X110439200Y-41687937D01*
X110439200Y-41878063D01*
X110402108Y-42064541D01*
X110329351Y-42240191D01*
X110223718Y-42398282D01*
X110089282Y-42532718D01*
X109931191Y-42638351D01*
X109755541Y-42711108D01*
X109629392Y-42736200D01*
X109569064Y-42748200D01*
X109378936Y-42748200D01*
X109318608Y-42736200D01*
X109192459Y-42711108D01*
X109016809Y-42638351D01*
X108858718Y-42532718D01*
X108724282Y-42398282D01*
X108618649Y-42240191D01*
X108545892Y-42064541D01*
X108508800Y-41878063D01*
X108508800Y-41687937D01*
X108545892Y-41501459D01*
X108618649Y-41325809D01*
X108724282Y-41167718D01*
X108858718Y-41033282D01*
X109016809Y-40927649D01*
X109192459Y-40854892D01*
X109332318Y-40827073D01*
X109378936Y-40817800D01*
X109569064Y-40817800D01*
X109615682Y-40827073D01*
G37*
G36*
X159905921Y-40838958D02*
G01*
X160044041Y-40866431D01*
X160217509Y-40938284D01*
X160373631Y-41042602D01*
X160506398Y-41175369D01*
X160610716Y-41331491D01*
X160682569Y-41504959D01*
X160719200Y-41689119D01*
X160719200Y-41876881D01*
X160682569Y-42061041D01*
X160610716Y-42234509D01*
X160506398Y-42390631D01*
X160373631Y-42523398D01*
X160217509Y-42627716D01*
X160044041Y-42699569D01*
X159905921Y-42727042D01*
X159859882Y-42736200D01*
X159672118Y-42736200D01*
X159626079Y-42727042D01*
X159487959Y-42699569D01*
X159314491Y-42627716D01*
X159158369Y-42523398D01*
X159025602Y-42390631D01*
X158921284Y-42234509D01*
X158849431Y-42061041D01*
X158812800Y-41876881D01*
X158812800Y-41689119D01*
X158849431Y-41504959D01*
X158921284Y-41331491D01*
X159025602Y-41175369D01*
X159158369Y-41042602D01*
X159314491Y-40938284D01*
X159487959Y-40866431D01*
X159626079Y-40838958D01*
X159672118Y-40829800D01*
X159859882Y-40829800D01*
X159905921Y-40838958D01*
G37*
G36*
X142125921Y-40838958D02*
G01*
X142264041Y-40866431D01*
X142437509Y-40938284D01*
X142593631Y-41042602D01*
X142726398Y-41175369D01*
X142830716Y-41331491D01*
X142902569Y-41504959D01*
X142939200Y-41689119D01*
X142939200Y-41876881D01*
X142902569Y-42061041D01*
X142830716Y-42234509D01*
X142726398Y-42390631D01*
X142593631Y-42523398D01*
X142437509Y-42627716D01*
X142264041Y-42699569D01*
X142125921Y-42727042D01*
X142079882Y-42736200D01*
X141892118Y-42736200D01*
X141846079Y-42727042D01*
X141707959Y-42699569D01*
X141534491Y-42627716D01*
X141378369Y-42523398D01*
X141245602Y-42390631D01*
X141141284Y-42234509D01*
X141069431Y-42061041D01*
X141032800Y-41876881D01*
X141032800Y-41689119D01*
X141069431Y-41504959D01*
X141141284Y-41331491D01*
X141245602Y-41175369D01*
X141378369Y-41042602D01*
X141534491Y-40938284D01*
X141707959Y-40866431D01*
X141846079Y-40838958D01*
X141892118Y-40829800D01*
X142079882Y-40829800D01*
X142125921Y-40838958D01*
G37*
G36*
X157365921Y-40838958D02*
G01*
X157504041Y-40866431D01*
X157677509Y-40938284D01*
X157833631Y-41042602D01*
X157966398Y-41175369D01*
X158070716Y-41331491D01*
X158142569Y-41504959D01*
X158179200Y-41689119D01*
X158179200Y-41876881D01*
X158142569Y-42061041D01*
X158070716Y-42234509D01*
X157966398Y-42390631D01*
X157833631Y-42523398D01*
X157677509Y-42627716D01*
X157504041Y-42699569D01*
X157365921Y-42727042D01*
X157319882Y-42736200D01*
X157132118Y-42736200D01*
X157086079Y-42727042D01*
X156947959Y-42699569D01*
X156774491Y-42627716D01*
X156618369Y-42523398D01*
X156485602Y-42390631D01*
X156381284Y-42234509D01*
X156309431Y-42061041D01*
X156272800Y-41876881D01*
X156272800Y-41689119D01*
X156309431Y-41504959D01*
X156381284Y-41331491D01*
X156485602Y-41175369D01*
X156618369Y-41042602D01*
X156774491Y-40938284D01*
X156947959Y-40866431D01*
X157086079Y-40838958D01*
X157132118Y-40829800D01*
X157319882Y-40829800D01*
X157365921Y-40838958D01*
G37*
G36*
X154825921Y-40838958D02*
G01*
X154964041Y-40866431D01*
X155137509Y-40938284D01*
X155293631Y-41042602D01*
X155426398Y-41175369D01*
X155530716Y-41331491D01*
X155602569Y-41504959D01*
X155639200Y-41689119D01*
X155639200Y-41876881D01*
X155602569Y-42061041D01*
X155530716Y-42234509D01*
X155426398Y-42390631D01*
X155293631Y-42523398D01*
X155137509Y-42627716D01*
X154964041Y-42699569D01*
X154825921Y-42727042D01*
X154779882Y-42736200D01*
X154592118Y-42736200D01*
X154546079Y-42727042D01*
X154407959Y-42699569D01*
X154234491Y-42627716D01*
X154078369Y-42523398D01*
X153945602Y-42390631D01*
X153841284Y-42234509D01*
X153769431Y-42061041D01*
X153732800Y-41876881D01*
X153732800Y-41689119D01*
X153769431Y-41504959D01*
X153841284Y-41331491D01*
X153945602Y-41175369D01*
X154078369Y-41042602D01*
X154234491Y-40938284D01*
X154407959Y-40866431D01*
X154546079Y-40838958D01*
X154592118Y-40829800D01*
X154779882Y-40829800D01*
X154825921Y-40838958D01*
G37*
G36*
X152285921Y-40838958D02*
G01*
X152424041Y-40866431D01*
X152597509Y-40938284D01*
X152753631Y-41042602D01*
X152886398Y-41175369D01*
X152990716Y-41331491D01*
X153062569Y-41504959D01*
X153099200Y-41689119D01*
X153099200Y-41876881D01*
X153062569Y-42061041D01*
X152990716Y-42234509D01*
X152886398Y-42390631D01*
X152753631Y-42523398D01*
X152597509Y-42627716D01*
X152424041Y-42699569D01*
X152285921Y-42727042D01*
X152239882Y-42736200D01*
X152052118Y-42736200D01*
X152006079Y-42727042D01*
X151867959Y-42699569D01*
X151694491Y-42627716D01*
X151538369Y-42523398D01*
X151405602Y-42390631D01*
X151301284Y-42234509D01*
X151229431Y-42061041D01*
X151192800Y-41876881D01*
X151192800Y-41689119D01*
X151229431Y-41504959D01*
X151301284Y-41331491D01*
X151405602Y-41175369D01*
X151538369Y-41042602D01*
X151694491Y-40938284D01*
X151867959Y-40866431D01*
X152006079Y-40838958D01*
X152052118Y-40829800D01*
X152239882Y-40829800D01*
X152285921Y-40838958D01*
G37*
G36*
X144665921Y-40838958D02*
G01*
X144804041Y-40866431D01*
X144977509Y-40938284D01*
X145133631Y-41042602D01*
X145266398Y-41175369D01*
X145370716Y-41331491D01*
X145442569Y-41504959D01*
X145479200Y-41689119D01*
X145479200Y-41876881D01*
X145442569Y-42061041D01*
X145370716Y-42234509D01*
X145266398Y-42390631D01*
X145133631Y-42523398D01*
X144977509Y-42627716D01*
X144804041Y-42699569D01*
X144665921Y-42727042D01*
X144619882Y-42736200D01*
X144432118Y-42736200D01*
X144386079Y-42727042D01*
X144247959Y-42699569D01*
X144074491Y-42627716D01*
X143918369Y-42523398D01*
X143785602Y-42390631D01*
X143681284Y-42234509D01*
X143609431Y-42061041D01*
X143572800Y-41876881D01*
X143572800Y-41689119D01*
X143609431Y-41504959D01*
X143681284Y-41331491D01*
X143785602Y-41175369D01*
X143918369Y-41042602D01*
X144074491Y-40938284D01*
X144247959Y-40866431D01*
X144386079Y-40838958D01*
X144432118Y-40829800D01*
X144619882Y-40829800D01*
X144665921Y-40838958D01*
G37*
G36*
X104533921Y-40838958D02*
G01*
X104672041Y-40866431D01*
X104845509Y-40938284D01*
X105001631Y-41042602D01*
X105134398Y-41175369D01*
X105238716Y-41331491D01*
X105310569Y-41504959D01*
X105347200Y-41689119D01*
X105347200Y-41876881D01*
X105310569Y-42061041D01*
X105238716Y-42234509D01*
X105134398Y-42390631D01*
X105001631Y-42523398D01*
X104845509Y-42627716D01*
X104672041Y-42699569D01*
X104533921Y-42727042D01*
X104487882Y-42736200D01*
X104300118Y-42736200D01*
X104254079Y-42727042D01*
X104115959Y-42699569D01*
X103942491Y-42627716D01*
X103786369Y-42523398D01*
X103653602Y-42390631D01*
X103549284Y-42234509D01*
X103477431Y-42061041D01*
X103440800Y-41876881D01*
X103440800Y-41689119D01*
X103477431Y-41504959D01*
X103549284Y-41331491D01*
X103653602Y-41175369D01*
X103786369Y-41042602D01*
X103942491Y-40938284D01*
X104115959Y-40866431D01*
X104254079Y-40838958D01*
X104300118Y-40829800D01*
X104487882Y-40829800D01*
X104533921Y-40838958D01*
G37*
G36*
X119773921Y-40838958D02*
G01*
X119912041Y-40866431D01*
X120085509Y-40938284D01*
X120241631Y-41042602D01*
X120374398Y-41175369D01*
X120478716Y-41331491D01*
X120550569Y-41504959D01*
X120587200Y-41689119D01*
X120587200Y-41876881D01*
X120550569Y-42061041D01*
X120478716Y-42234509D01*
X120374398Y-42390631D01*
X120241631Y-42523398D01*
X120085509Y-42627716D01*
X119912041Y-42699569D01*
X119773921Y-42727042D01*
X119727882Y-42736200D01*
X119540118Y-42736200D01*
X119494079Y-42727042D01*
X119355959Y-42699569D01*
X119182491Y-42627716D01*
X119026369Y-42523398D01*
X118893602Y-42390631D01*
X118789284Y-42234509D01*
X118717431Y-42061041D01*
X118680800Y-41876881D01*
X118680800Y-41689119D01*
X118717431Y-41504959D01*
X118789284Y-41331491D01*
X118893602Y-41175369D01*
X119026369Y-41042602D01*
X119182491Y-40938284D01*
X119355959Y-40866431D01*
X119494079Y-40838958D01*
X119540118Y-40829800D01*
X119727882Y-40829800D01*
X119773921Y-40838958D01*
G37*
G36*
X117233921Y-40838958D02*
G01*
X117372041Y-40866431D01*
X117545509Y-40938284D01*
X117701631Y-41042602D01*
X117834398Y-41175369D01*
X117938716Y-41331491D01*
X118010569Y-41504959D01*
X118047200Y-41689119D01*
X118047200Y-41876881D01*
X118010569Y-42061041D01*
X117938716Y-42234509D01*
X117834398Y-42390631D01*
X117701631Y-42523398D01*
X117545509Y-42627716D01*
X117372041Y-42699569D01*
X117233921Y-42727042D01*
X117187882Y-42736200D01*
X117000118Y-42736200D01*
X116954079Y-42727042D01*
X116815959Y-42699569D01*
X116642491Y-42627716D01*
X116486369Y-42523398D01*
X116353602Y-42390631D01*
X116249284Y-42234509D01*
X116177431Y-42061041D01*
X116140800Y-41876881D01*
X116140800Y-41689119D01*
X116177431Y-41504959D01*
X116249284Y-41331491D01*
X116353602Y-41175369D01*
X116486369Y-41042602D01*
X116642491Y-40938284D01*
X116815959Y-40866431D01*
X116954079Y-40838958D01*
X117000118Y-40829800D01*
X117187882Y-40829800D01*
X117233921Y-40838958D01*
G37*
G36*
X114693921Y-40838958D02*
G01*
X114832041Y-40866431D01*
X115005509Y-40938284D01*
X115161631Y-41042602D01*
X115294398Y-41175369D01*
X115398716Y-41331491D01*
X115470569Y-41504959D01*
X115507200Y-41689119D01*
X115507200Y-41876881D01*
X115470569Y-42061041D01*
X115398716Y-42234509D01*
X115294398Y-42390631D01*
X115161631Y-42523398D01*
X115005509Y-42627716D01*
X114832041Y-42699569D01*
X114693921Y-42727042D01*
X114647882Y-42736200D01*
X114460118Y-42736200D01*
X114414079Y-42727042D01*
X114275959Y-42699569D01*
X114102491Y-42627716D01*
X113946369Y-42523398D01*
X113813602Y-42390631D01*
X113709284Y-42234509D01*
X113637431Y-42061041D01*
X113600800Y-41876881D01*
X113600800Y-41689119D01*
X113637431Y-41504959D01*
X113709284Y-41331491D01*
X113813602Y-41175369D01*
X113946369Y-41042602D01*
X114102491Y-40938284D01*
X114275959Y-40866431D01*
X114414079Y-40838958D01*
X114460118Y-40829800D01*
X114647882Y-40829800D01*
X114693921Y-40838958D01*
G37*
G36*
X112153921Y-40838958D02*
G01*
X112292041Y-40866431D01*
X112465509Y-40938284D01*
X112621631Y-41042602D01*
X112754398Y-41175369D01*
X112858716Y-41331491D01*
X112930569Y-41504959D01*
X112967200Y-41689119D01*
X112967200Y-41876881D01*
X112930569Y-42061041D01*
X112858716Y-42234509D01*
X112754398Y-42390631D01*
X112621631Y-42523398D01*
X112465509Y-42627716D01*
X112292041Y-42699569D01*
X112153921Y-42727042D01*
X112107882Y-42736200D01*
X111920118Y-42736200D01*
X111874079Y-42727042D01*
X111735959Y-42699569D01*
X111562491Y-42627716D01*
X111406369Y-42523398D01*
X111273602Y-42390631D01*
X111169284Y-42234509D01*
X111097431Y-42061041D01*
X111060800Y-41876881D01*
X111060800Y-41689119D01*
X111097431Y-41504959D01*
X111169284Y-41331491D01*
X111273602Y-41175369D01*
X111406369Y-41042602D01*
X111562491Y-40938284D01*
X111735959Y-40866431D01*
X111874079Y-40838958D01*
X111920118Y-40829800D01*
X112107882Y-40829800D01*
X112153921Y-40838958D01*
G37*
G36*
X101993921Y-40838958D02*
G01*
X102132041Y-40866431D01*
X102305509Y-40938284D01*
X102461631Y-41042602D01*
X102594398Y-41175369D01*
X102698716Y-41331491D01*
X102770569Y-41504959D01*
X102807200Y-41689119D01*
X102807200Y-41876881D01*
X102770569Y-42061041D01*
X102698716Y-42234509D01*
X102594398Y-42390631D01*
X102461631Y-42523398D01*
X102305509Y-42627716D01*
X102132041Y-42699569D01*
X101993921Y-42727042D01*
X101947882Y-42736200D01*
X101760118Y-42736200D01*
X101714079Y-42727042D01*
X101575959Y-42699569D01*
X101402491Y-42627716D01*
X101246369Y-42523398D01*
X101113602Y-42390631D01*
X101009284Y-42234509D01*
X100937431Y-42061041D01*
X100900800Y-41876881D01*
X100900800Y-41689119D01*
X100937431Y-41504959D01*
X101009284Y-41331491D01*
X101113602Y-41175369D01*
X101246369Y-41042602D01*
X101402491Y-40938284D01*
X101575959Y-40866431D01*
X101714079Y-40838958D01*
X101760118Y-40829800D01*
X101947882Y-40829800D01*
X101993921Y-40838958D01*
G37*
G36*
X107073921Y-37917958D02*
G01*
X107212041Y-37945431D01*
X107385509Y-38017284D01*
X107541631Y-38121602D01*
X107674398Y-38254369D01*
X107778716Y-38410491D01*
X107850569Y-38583959D01*
X107887200Y-38768119D01*
X107887200Y-38955881D01*
X107850569Y-39140041D01*
X107778716Y-39313509D01*
X107674398Y-39469631D01*
X107541631Y-39602398D01*
X107385509Y-39706716D01*
X107212041Y-39778569D01*
X107073921Y-39806042D01*
X107027882Y-39815200D01*
X106840118Y-39815200D01*
X106794079Y-39806042D01*
X106655959Y-39778569D01*
X106482491Y-39706716D01*
X106326369Y-39602398D01*
X106193602Y-39469631D01*
X106089284Y-39313509D01*
X106017431Y-39140041D01*
X105980800Y-38955881D01*
X105980800Y-38768119D01*
X106017431Y-38583959D01*
X106089284Y-38410491D01*
X106193602Y-38254369D01*
X106326369Y-38121602D01*
X106482491Y-38017284D01*
X106655959Y-37945431D01*
X106794079Y-37917958D01*
X106840118Y-37908800D01*
X107027882Y-37908800D01*
X107073921Y-37917958D01*
G37*
G36*
X152285921Y-37917958D02*
G01*
X152424041Y-37945431D01*
X152597509Y-38017284D01*
X152753631Y-38121602D01*
X152886398Y-38254369D01*
X152990716Y-38410491D01*
X153062569Y-38583959D01*
X153099200Y-38768119D01*
X153099200Y-38955881D01*
X153062569Y-39140041D01*
X152990716Y-39313509D01*
X152886398Y-39469631D01*
X152753631Y-39602398D01*
X152597509Y-39706716D01*
X152424041Y-39778569D01*
X152285921Y-39806042D01*
X152239882Y-39815200D01*
X152052118Y-39815200D01*
X152006079Y-39806042D01*
X151867959Y-39778569D01*
X151694491Y-39706716D01*
X151538369Y-39602398D01*
X151405602Y-39469631D01*
X151301284Y-39313509D01*
X151229431Y-39140041D01*
X151192800Y-38955881D01*
X151192800Y-38768119D01*
X151229431Y-38583959D01*
X151301284Y-38410491D01*
X151405602Y-38254369D01*
X151538369Y-38121602D01*
X151694491Y-38017284D01*
X151867959Y-37945431D01*
X152006079Y-37917958D01*
X152052118Y-37908800D01*
X152239882Y-37908800D01*
X152285921Y-37917958D01*
G37*
G36*
X102807200Y-39815200D02*
G01*
X100900800Y-39815200D01*
X100900800Y-37908800D01*
X102807200Y-37908800D01*
X102807200Y-39815200D01*
G37*
G36*
X104533921Y-37917958D02*
G01*
X104672041Y-37945431D01*
X104845509Y-38017284D01*
X105001631Y-38121602D01*
X105134398Y-38254369D01*
X105238716Y-38410491D01*
X105310569Y-38583959D01*
X105347200Y-38768119D01*
X105347200Y-38955881D01*
X105310569Y-39140041D01*
X105238716Y-39313509D01*
X105134398Y-39469631D01*
X105001631Y-39602398D01*
X104845509Y-39706716D01*
X104672041Y-39778569D01*
X104533921Y-39806042D01*
X104487882Y-39815200D01*
X104300118Y-39815200D01*
X104254079Y-39806042D01*
X104115959Y-39778569D01*
X103942491Y-39706716D01*
X103786369Y-39602398D01*
X103653602Y-39469631D01*
X103549284Y-39313509D01*
X103477431Y-39140041D01*
X103440800Y-38955881D01*
X103440800Y-38768119D01*
X103477431Y-38583959D01*
X103549284Y-38410491D01*
X103653602Y-38254369D01*
X103786369Y-38121602D01*
X103942491Y-38017284D01*
X104115959Y-37945431D01*
X104254079Y-37917958D01*
X104300118Y-37908800D01*
X104487882Y-37908800D01*
X104533921Y-37917958D01*
G37*
G36*
X109613921Y-37917958D02*
G01*
X109752041Y-37945431D01*
X109925509Y-38017284D01*
X110081631Y-38121602D01*
X110214398Y-38254369D01*
X110318716Y-38410491D01*
X110390569Y-38583959D01*
X110427200Y-38768119D01*
X110427200Y-38955881D01*
X110390569Y-39140041D01*
X110318716Y-39313509D01*
X110214398Y-39469631D01*
X110081631Y-39602398D01*
X109925509Y-39706716D01*
X109752041Y-39778569D01*
X109613921Y-39806042D01*
X109567882Y-39815200D01*
X109380118Y-39815200D01*
X109334079Y-39806042D01*
X109195959Y-39778569D01*
X109022491Y-39706716D01*
X108866369Y-39602398D01*
X108733602Y-39469631D01*
X108629284Y-39313509D01*
X108557431Y-39140041D01*
X108520800Y-38955881D01*
X108520800Y-38768119D01*
X108557431Y-38583959D01*
X108629284Y-38410491D01*
X108733602Y-38254369D01*
X108866369Y-38121602D01*
X109022491Y-38017284D01*
X109195959Y-37945431D01*
X109334079Y-37917958D01*
X109380118Y-37908800D01*
X109567882Y-37908800D01*
X109613921Y-37917958D01*
G37*
G36*
X112153921Y-37917958D02*
G01*
X112292041Y-37945431D01*
X112465509Y-38017284D01*
X112621631Y-38121602D01*
X112754398Y-38254369D01*
X112858716Y-38410491D01*
X112930569Y-38583959D01*
X112967200Y-38768119D01*
X112967200Y-38955881D01*
X112930569Y-39140041D01*
X112858716Y-39313509D01*
X112754398Y-39469631D01*
X112621631Y-39602398D01*
X112465509Y-39706716D01*
X112292041Y-39778569D01*
X112153921Y-39806042D01*
X112107882Y-39815200D01*
X111920118Y-39815200D01*
X111874079Y-39806042D01*
X111735959Y-39778569D01*
X111562491Y-39706716D01*
X111406369Y-39602398D01*
X111273602Y-39469631D01*
X111169284Y-39313509D01*
X111097431Y-39140041D01*
X111060800Y-38955881D01*
X111060800Y-38768119D01*
X111097431Y-38583959D01*
X111169284Y-38410491D01*
X111273602Y-38254369D01*
X111406369Y-38121602D01*
X111562491Y-38017284D01*
X111735959Y-37945431D01*
X111874079Y-37917958D01*
X111920118Y-37908800D01*
X112107882Y-37908800D01*
X112153921Y-37917958D01*
G37*
G36*
X114693921Y-37917958D02*
G01*
X114832041Y-37945431D01*
X115005509Y-38017284D01*
X115161631Y-38121602D01*
X115294398Y-38254369D01*
X115398716Y-38410491D01*
X115470569Y-38583959D01*
X115507200Y-38768119D01*
X115507200Y-38955881D01*
X115470569Y-39140041D01*
X115398716Y-39313509D01*
X115294398Y-39469631D01*
X115161631Y-39602398D01*
X115005509Y-39706716D01*
X114832041Y-39778569D01*
X114693921Y-39806042D01*
X114647882Y-39815200D01*
X114460118Y-39815200D01*
X114414079Y-39806042D01*
X114275959Y-39778569D01*
X114102491Y-39706716D01*
X113946369Y-39602398D01*
X113813602Y-39469631D01*
X113709284Y-39313509D01*
X113637431Y-39140041D01*
X113600800Y-38955881D01*
X113600800Y-38768119D01*
X113637431Y-38583959D01*
X113709284Y-38410491D01*
X113813602Y-38254369D01*
X113946369Y-38121602D01*
X114102491Y-38017284D01*
X114275959Y-37945431D01*
X114414079Y-37917958D01*
X114460118Y-37908800D01*
X114647882Y-37908800D01*
X114693921Y-37917958D01*
G37*
G36*
X117233921Y-37917958D02*
G01*
X117372041Y-37945431D01*
X117545509Y-38017284D01*
X117701631Y-38121602D01*
X117834398Y-38254369D01*
X117938716Y-38410491D01*
X118010569Y-38583959D01*
X118047200Y-38768119D01*
X118047200Y-38955881D01*
X118010569Y-39140041D01*
X117938716Y-39313509D01*
X117834398Y-39469631D01*
X117701631Y-39602398D01*
X117545509Y-39706716D01*
X117372041Y-39778569D01*
X117233921Y-39806042D01*
X117187882Y-39815200D01*
X117000118Y-39815200D01*
X116954079Y-39806042D01*
X116815959Y-39778569D01*
X116642491Y-39706716D01*
X116486369Y-39602398D01*
X116353602Y-39469631D01*
X116249284Y-39313509D01*
X116177431Y-39140041D01*
X116140800Y-38955881D01*
X116140800Y-38768119D01*
X116177431Y-38583959D01*
X116249284Y-38410491D01*
X116353602Y-38254369D01*
X116486369Y-38121602D01*
X116642491Y-38017284D01*
X116815959Y-37945431D01*
X116954079Y-37917958D01*
X117000118Y-37908800D01*
X117187882Y-37908800D01*
X117233921Y-37917958D01*
G37*
G36*
X159905921Y-37917958D02*
G01*
X160044041Y-37945431D01*
X160217509Y-38017284D01*
X160373631Y-38121602D01*
X160506398Y-38254369D01*
X160610716Y-38410491D01*
X160682569Y-38583959D01*
X160719200Y-38768119D01*
X160719200Y-38955881D01*
X160682569Y-39140041D01*
X160610716Y-39313509D01*
X160506398Y-39469631D01*
X160373631Y-39602398D01*
X160217509Y-39706716D01*
X160044041Y-39778569D01*
X159905921Y-39806042D01*
X159859882Y-39815200D01*
X159672118Y-39815200D01*
X159626079Y-39806042D01*
X159487959Y-39778569D01*
X159314491Y-39706716D01*
X159158369Y-39602398D01*
X159025602Y-39469631D01*
X158921284Y-39313509D01*
X158849431Y-39140041D01*
X158812800Y-38955881D01*
X158812800Y-38768119D01*
X158849431Y-38583959D01*
X158921284Y-38410491D01*
X159025602Y-38254369D01*
X159158369Y-38121602D01*
X159314491Y-38017284D01*
X159487959Y-37945431D01*
X159626079Y-37917958D01*
X159672118Y-37908800D01*
X159859882Y-37908800D01*
X159905921Y-37917958D01*
G37*
G36*
X157365921Y-37917958D02*
G01*
X157504041Y-37945431D01*
X157677509Y-38017284D01*
X157833631Y-38121602D01*
X157966398Y-38254369D01*
X158070716Y-38410491D01*
X158142569Y-38583959D01*
X158179200Y-38768119D01*
X158179200Y-38955881D01*
X158142569Y-39140041D01*
X158070716Y-39313509D01*
X157966398Y-39469631D01*
X157833631Y-39602398D01*
X157677509Y-39706716D01*
X157504041Y-39778569D01*
X157365921Y-39806042D01*
X157319882Y-39815200D01*
X157132118Y-39815200D01*
X157086079Y-39806042D01*
X156947959Y-39778569D01*
X156774491Y-39706716D01*
X156618369Y-39602398D01*
X156485602Y-39469631D01*
X156381284Y-39313509D01*
X156309431Y-39140041D01*
X156272800Y-38955881D01*
X156272800Y-38768119D01*
X156309431Y-38583959D01*
X156381284Y-38410491D01*
X156485602Y-38254369D01*
X156618369Y-38121602D01*
X156774491Y-38017284D01*
X156947959Y-37945431D01*
X157086079Y-37917958D01*
X157132118Y-37908800D01*
X157319882Y-37908800D01*
X157365921Y-37917958D01*
G37*
G36*
X154825921Y-37917958D02*
G01*
X154964041Y-37945431D01*
X155137509Y-38017284D01*
X155293631Y-38121602D01*
X155426398Y-38254369D01*
X155530716Y-38410491D01*
X155602569Y-38583959D01*
X155639200Y-38768119D01*
X155639200Y-38955881D01*
X155602569Y-39140041D01*
X155530716Y-39313509D01*
X155426398Y-39469631D01*
X155293631Y-39602398D01*
X155137509Y-39706716D01*
X154964041Y-39778569D01*
X154825921Y-39806042D01*
X154779882Y-39815200D01*
X154592118Y-39815200D01*
X154546079Y-39806042D01*
X154407959Y-39778569D01*
X154234491Y-39706716D01*
X154078369Y-39602398D01*
X153945602Y-39469631D01*
X153841284Y-39313509D01*
X153769431Y-39140041D01*
X153732800Y-38955881D01*
X153732800Y-38768119D01*
X153769431Y-38583959D01*
X153841284Y-38410491D01*
X153945602Y-38254369D01*
X154078369Y-38121602D01*
X154234491Y-38017284D01*
X154407959Y-37945431D01*
X154546079Y-37917958D01*
X154592118Y-37908800D01*
X154779882Y-37908800D01*
X154825921Y-37917958D01*
G37*
G36*
X149745921Y-37917958D02*
G01*
X149884041Y-37945431D01*
X150057509Y-38017284D01*
X150213631Y-38121602D01*
X150346398Y-38254369D01*
X150450716Y-38410491D01*
X150522569Y-38583959D01*
X150559200Y-38768119D01*
X150559200Y-38955881D01*
X150522569Y-39140041D01*
X150450716Y-39313509D01*
X150346398Y-39469631D01*
X150213631Y-39602398D01*
X150057509Y-39706716D01*
X149884041Y-39778569D01*
X149745921Y-39806042D01*
X149699882Y-39815200D01*
X149512118Y-39815200D01*
X149466079Y-39806042D01*
X149327959Y-39778569D01*
X149154491Y-39706716D01*
X148998369Y-39602398D01*
X148865602Y-39469631D01*
X148761284Y-39313509D01*
X148689431Y-39140041D01*
X148652800Y-38955881D01*
X148652800Y-38768119D01*
X148689431Y-38583959D01*
X148761284Y-38410491D01*
X148865602Y-38254369D01*
X148998369Y-38121602D01*
X149154491Y-38017284D01*
X149327959Y-37945431D01*
X149466079Y-37917958D01*
X149512118Y-37908800D01*
X149699882Y-37908800D01*
X149745921Y-37917958D01*
G37*
G36*
X119773921Y-37917958D02*
G01*
X119912041Y-37945431D01*
X120085509Y-38017284D01*
X120241631Y-38121602D01*
X120374398Y-38254369D01*
X120478716Y-38410491D01*
X120550569Y-38583959D01*
X120587200Y-38768119D01*
X120587200Y-38955881D01*
X120550569Y-39140041D01*
X120478716Y-39313509D01*
X120374398Y-39469631D01*
X120241631Y-39602398D01*
X120085509Y-39706716D01*
X119912041Y-39778569D01*
X119773921Y-39806042D01*
X119727882Y-39815200D01*
X119540118Y-39815200D01*
X119494079Y-39806042D01*
X119355959Y-39778569D01*
X119182491Y-39706716D01*
X119026369Y-39602398D01*
X118893602Y-39469631D01*
X118789284Y-39313509D01*
X118717431Y-39140041D01*
X118680800Y-38955881D01*
X118680800Y-38768119D01*
X118717431Y-38583959D01*
X118789284Y-38410491D01*
X118893602Y-38254369D01*
X119026369Y-38121602D01*
X119182491Y-38017284D01*
X119355959Y-37945431D01*
X119494079Y-37917958D01*
X119540118Y-37908800D01*
X119727882Y-37908800D01*
X119773921Y-37917958D01*
G37*
G36*
X147205921Y-37917958D02*
G01*
X147344041Y-37945431D01*
X147517509Y-38017284D01*
X147673631Y-38121602D01*
X147806398Y-38254369D01*
X147910716Y-38410491D01*
X147982569Y-38583959D01*
X148019200Y-38768119D01*
X148019200Y-38955881D01*
X147982569Y-39140041D01*
X147910716Y-39313509D01*
X147806398Y-39469631D01*
X147673631Y-39602398D01*
X147517509Y-39706716D01*
X147344041Y-39778569D01*
X147205921Y-39806042D01*
X147159882Y-39815200D01*
X146972118Y-39815200D01*
X146926079Y-39806042D01*
X146787959Y-39778569D01*
X146614491Y-39706716D01*
X146458369Y-39602398D01*
X146325602Y-39469631D01*
X146221284Y-39313509D01*
X146149431Y-39140041D01*
X146112800Y-38955881D01*
X146112800Y-38768119D01*
X146149431Y-38583959D01*
X146221284Y-38410491D01*
X146325602Y-38254369D01*
X146458369Y-38121602D01*
X146614491Y-38017284D01*
X146787959Y-37945431D01*
X146926079Y-37917958D01*
X146972118Y-37908800D01*
X147159882Y-37908800D01*
X147205921Y-37917958D01*
G37*
G36*
X142939200Y-39815200D02*
G01*
X141032800Y-39815200D01*
X141032800Y-37908800D01*
X142939200Y-37908800D01*
X142939200Y-39815200D01*
G37*
G36*
X144665921Y-37917958D02*
G01*
X144804041Y-37945431D01*
X144977509Y-38017284D01*
X145133631Y-38121602D01*
X145266398Y-38254369D01*
X145370716Y-38410491D01*
X145442569Y-38583959D01*
X145479200Y-38768119D01*
X145479200Y-38955881D01*
X145442569Y-39140041D01*
X145370716Y-39313509D01*
X145266398Y-39469631D01*
X145133631Y-39602398D01*
X144977509Y-39706716D01*
X144804041Y-39778569D01*
X144665921Y-39806042D01*
X144619882Y-39815200D01*
X144432118Y-39815200D01*
X144386079Y-39806042D01*
X144247959Y-39778569D01*
X144074491Y-39706716D01*
X143918369Y-39602398D01*
X143785602Y-39469631D01*
X143681284Y-39313509D01*
X143609431Y-39140041D01*
X143572800Y-38955881D01*
X143572800Y-38768119D01*
X143609431Y-38583959D01*
X143681284Y-38410491D01*
X143785602Y-38254369D01*
X143918369Y-38121602D01*
X144074491Y-38017284D01*
X144247959Y-37945431D01*
X144386079Y-37917958D01*
X144432118Y-37908800D01*
X144619882Y-37908800D01*
X144665921Y-37917958D01*
G37*
G36*
X170169913Y-26068348D02*
G01*
X170479341Y-26129897D01*
X171062286Y-26371361D01*
X171586921Y-26721911D01*
X172033089Y-27168079D01*
X172383639Y-27692714D01*
X172625103Y-28275659D01*
X172625103Y-28275661D01*
X172748200Y-28894512D01*
X172748200Y-29525488D01*
X172720012Y-29667200D01*
X172625103Y-30144341D01*
X172383639Y-30727286D01*
X172033089Y-31251921D01*
X171586921Y-31698089D01*
X171062286Y-32048639D01*
X170479341Y-32290103D01*
X170169914Y-32351651D01*
X169860488Y-32413200D01*
X169229512Y-32413200D01*
X168920086Y-32351651D01*
X168610659Y-32290103D01*
X168027714Y-32048639D01*
X167503079Y-31698089D01*
X167056911Y-31251921D01*
X166706361Y-30727286D01*
X166464897Y-30144341D01*
X166369988Y-29667200D01*
X166341800Y-29525488D01*
X166341800Y-28894512D01*
X166464897Y-28275661D01*
X166464897Y-28275659D01*
X166706361Y-27692714D01*
X167056911Y-27168079D01*
X167503079Y-26721911D01*
X168027714Y-26371361D01*
X168610659Y-26129897D01*
X168920086Y-26068349D01*
X169229512Y-26006800D01*
X169860488Y-26006800D01*
X170169913Y-26068348D01*
G37*
G36*
X92699913Y-26068348D02*
G01*
X93009341Y-26129897D01*
X93592286Y-26371361D01*
X94116921Y-26721911D01*
X94563089Y-27168079D01*
X94913639Y-27692714D01*
X95155103Y-28275659D01*
X95155103Y-28275661D01*
X95278200Y-28894512D01*
X95278200Y-29525488D01*
X95250012Y-29667200D01*
X95155103Y-30144341D01*
X94913639Y-30727286D01*
X94563089Y-31251921D01*
X94116921Y-31698089D01*
X93592286Y-32048639D01*
X93009341Y-32290103D01*
X92699914Y-32351651D01*
X92390488Y-32413200D01*
X91759512Y-32413200D01*
X91450086Y-32351651D01*
X91140659Y-32290103D01*
X90557714Y-32048639D01*
X90033079Y-31698089D01*
X89586911Y-31251921D01*
X89236361Y-30727286D01*
X88994897Y-30144341D01*
X88899988Y-29667200D01*
X88871800Y-29525488D01*
X88871800Y-28894512D01*
X88994897Y-28275661D01*
X88994897Y-28275659D01*
X89236361Y-27692714D01*
X89586911Y-27168079D01*
X90033079Y-26721911D01*
X90557714Y-26371361D01*
X91140659Y-26129897D01*
X91450086Y-26068349D01*
X91759512Y-26006800D01*
X92390488Y-26006800D01*
X92699913Y-26068348D01*
G37*
G36*
X149747683Y-27746073D02*
G01*
X149887541Y-27773892D01*
X150063191Y-27846649D01*
X150221282Y-27952282D01*
X150355718Y-28086718D01*
X150461351Y-28244809D01*
X150534108Y-28420459D01*
X150571200Y-28606937D01*
X150571200Y-28797063D01*
X150534108Y-28983541D01*
X150461351Y-29159191D01*
X150355718Y-29317282D01*
X150221282Y-29451718D01*
X150063191Y-29557351D01*
X149887541Y-29630108D01*
X149761392Y-29655200D01*
X149701064Y-29667200D01*
X149510936Y-29667200D01*
X149450608Y-29655200D01*
X149324459Y-29630108D01*
X149148809Y-29557351D01*
X148990718Y-29451718D01*
X148856282Y-29317282D01*
X148750649Y-29159191D01*
X148677892Y-28983541D01*
X148640800Y-28797063D01*
X148640800Y-28606937D01*
X148677892Y-28420459D01*
X148750649Y-28244809D01*
X148856282Y-28086718D01*
X148990718Y-27952282D01*
X149148809Y-27846649D01*
X149324459Y-27773892D01*
X149464317Y-27746073D01*
X149510936Y-27736800D01*
X149701064Y-27736800D01*
X149747683Y-27746073D01*
G37*
G36*
X147207683Y-27746073D02*
G01*
X147347541Y-27773892D01*
X147523191Y-27846649D01*
X147681282Y-27952282D01*
X147815718Y-28086718D01*
X147921351Y-28244809D01*
X147994108Y-28420459D01*
X148031200Y-28606937D01*
X148031200Y-28797063D01*
X147994108Y-28983541D01*
X147921351Y-29159191D01*
X147815718Y-29317282D01*
X147681282Y-29451718D01*
X147523191Y-29557351D01*
X147347541Y-29630108D01*
X147221392Y-29655200D01*
X147161064Y-29667200D01*
X146970936Y-29667200D01*
X146910608Y-29655200D01*
X146784459Y-29630108D01*
X146608809Y-29557351D01*
X146450718Y-29451718D01*
X146316282Y-29317282D01*
X146210649Y-29159191D01*
X146137892Y-28983541D01*
X146100800Y-28797063D01*
X146100800Y-28606937D01*
X146137892Y-28420459D01*
X146210649Y-28244809D01*
X146316282Y-28086718D01*
X146450718Y-27952282D01*
X146608809Y-27846649D01*
X146784459Y-27773892D01*
X146924317Y-27746073D01*
X146970936Y-27736800D01*
X147161064Y-27736800D01*
X147207683Y-27746073D01*
G37*
G36*
X107075683Y-27746073D02*
G01*
X107215541Y-27773892D01*
X107391191Y-27846649D01*
X107549282Y-27952282D01*
X107683718Y-28086718D01*
X107789351Y-28244809D01*
X107862108Y-28420459D01*
X107899200Y-28606937D01*
X107899200Y-28797063D01*
X107862108Y-28983541D01*
X107789351Y-29159191D01*
X107683718Y-29317282D01*
X107549282Y-29451718D01*
X107391191Y-29557351D01*
X107215541Y-29630108D01*
X107089392Y-29655200D01*
X107029064Y-29667200D01*
X106838936Y-29667200D01*
X106778608Y-29655200D01*
X106652459Y-29630108D01*
X106476809Y-29557351D01*
X106318718Y-29451718D01*
X106184282Y-29317282D01*
X106078649Y-29159191D01*
X106005892Y-28983541D01*
X105968800Y-28797063D01*
X105968800Y-28606937D01*
X106005892Y-28420459D01*
X106078649Y-28244809D01*
X106184282Y-28086718D01*
X106318718Y-27952282D01*
X106476809Y-27846649D01*
X106652459Y-27773892D01*
X106792317Y-27746073D01*
X106838936Y-27736800D01*
X107029064Y-27736800D01*
X107075683Y-27746073D01*
G37*
G36*
X109615683Y-27746073D02*
G01*
X109755541Y-27773892D01*
X109931191Y-27846649D01*
X110089282Y-27952282D01*
X110223718Y-28086718D01*
X110329351Y-28244809D01*
X110402108Y-28420459D01*
X110439200Y-28606937D01*
X110439200Y-28797063D01*
X110402108Y-28983541D01*
X110329351Y-29159191D01*
X110223718Y-29317282D01*
X110089282Y-29451718D01*
X109931191Y-29557351D01*
X109755541Y-29630108D01*
X109629392Y-29655200D01*
X109569064Y-29667200D01*
X109378936Y-29667200D01*
X109318608Y-29655200D01*
X109192459Y-29630108D01*
X109016809Y-29557351D01*
X108858718Y-29451718D01*
X108724282Y-29317282D01*
X108618649Y-29159191D01*
X108545892Y-28983541D01*
X108508800Y-28797063D01*
X108508800Y-28606937D01*
X108545892Y-28420459D01*
X108618649Y-28244809D01*
X108724282Y-28086718D01*
X108858718Y-27952282D01*
X109016809Y-27846649D01*
X109192459Y-27773892D01*
X109332317Y-27746073D01*
X109378936Y-27736800D01*
X109569064Y-27736800D01*
X109615683Y-27746073D01*
G37*
G36*
X159905921Y-27757958D02*
G01*
X160044041Y-27785431D01*
X160217509Y-27857284D01*
X160373631Y-27961602D01*
X160506398Y-28094369D01*
X160610716Y-28250491D01*
X160682569Y-28423959D01*
X160719200Y-28608119D01*
X160719200Y-28795881D01*
X160682569Y-28980041D01*
X160610716Y-29153509D01*
X160506398Y-29309631D01*
X160373631Y-29442398D01*
X160217509Y-29546716D01*
X160044041Y-29618569D01*
X159905921Y-29646042D01*
X159859882Y-29655200D01*
X159672118Y-29655200D01*
X159626079Y-29646042D01*
X159487959Y-29618569D01*
X159314491Y-29546716D01*
X159158369Y-29442398D01*
X159025602Y-29309631D01*
X158921284Y-29153509D01*
X158849431Y-28980041D01*
X158812800Y-28795881D01*
X158812800Y-28608119D01*
X158849431Y-28423959D01*
X158921284Y-28250491D01*
X159025602Y-28094369D01*
X159158369Y-27961602D01*
X159314491Y-27857284D01*
X159487959Y-27785431D01*
X159626079Y-27757958D01*
X159672118Y-27748800D01*
X159859882Y-27748800D01*
X159905921Y-27757958D01*
G37*
G36*
X157365921Y-27757958D02*
G01*
X157504041Y-27785431D01*
X157677509Y-27857284D01*
X157833631Y-27961602D01*
X157966398Y-28094369D01*
X158070716Y-28250491D01*
X158142569Y-28423959D01*
X158179200Y-28608119D01*
X158179200Y-28795881D01*
X158142569Y-28980041D01*
X158070716Y-29153509D01*
X157966398Y-29309631D01*
X157833631Y-29442398D01*
X157677509Y-29546716D01*
X157504041Y-29618569D01*
X157365921Y-29646042D01*
X157319882Y-29655200D01*
X157132118Y-29655200D01*
X157086079Y-29646042D01*
X156947959Y-29618569D01*
X156774491Y-29546716D01*
X156618369Y-29442398D01*
X156485602Y-29309631D01*
X156381284Y-29153509D01*
X156309431Y-28980041D01*
X156272800Y-28795881D01*
X156272800Y-28608119D01*
X156309431Y-28423959D01*
X156381284Y-28250491D01*
X156485602Y-28094369D01*
X156618369Y-27961602D01*
X156774491Y-27857284D01*
X156947959Y-27785431D01*
X157086079Y-27757958D01*
X157132118Y-27748800D01*
X157319882Y-27748800D01*
X157365921Y-27757958D01*
G37*
G36*
X154825921Y-27757958D02*
G01*
X154964041Y-27785431D01*
X155137509Y-27857284D01*
X155293631Y-27961602D01*
X155426398Y-28094369D01*
X155530716Y-28250491D01*
X155602569Y-28423959D01*
X155639200Y-28608119D01*
X155639200Y-28795881D01*
X155602569Y-28980041D01*
X155530716Y-29153509D01*
X155426398Y-29309631D01*
X155293631Y-29442398D01*
X155137509Y-29546716D01*
X154964041Y-29618569D01*
X154825921Y-29646042D01*
X154779882Y-29655200D01*
X154592118Y-29655200D01*
X154546079Y-29646042D01*
X154407959Y-29618569D01*
X154234491Y-29546716D01*
X154078369Y-29442398D01*
X153945602Y-29309631D01*
X153841284Y-29153509D01*
X153769431Y-28980041D01*
X153732800Y-28795881D01*
X153732800Y-28608119D01*
X153769431Y-28423959D01*
X153841284Y-28250491D01*
X153945602Y-28094369D01*
X154078369Y-27961602D01*
X154234491Y-27857284D01*
X154407959Y-27785431D01*
X154546079Y-27757958D01*
X154592118Y-27748800D01*
X154779882Y-27748800D01*
X154825921Y-27757958D01*
G37*
G36*
X152285921Y-27757958D02*
G01*
X152424041Y-27785431D01*
X152597509Y-27857284D01*
X152753631Y-27961602D01*
X152886398Y-28094369D01*
X152990716Y-28250491D01*
X153062569Y-28423959D01*
X153099200Y-28608119D01*
X153099200Y-28795881D01*
X153062569Y-28980041D01*
X152990716Y-29153509D01*
X152886398Y-29309631D01*
X152753631Y-29442398D01*
X152597509Y-29546716D01*
X152424041Y-29618569D01*
X152285921Y-29646042D01*
X152239882Y-29655200D01*
X152052118Y-29655200D01*
X152006079Y-29646042D01*
X151867959Y-29618569D01*
X151694491Y-29546716D01*
X151538369Y-29442398D01*
X151405602Y-29309631D01*
X151301284Y-29153509D01*
X151229431Y-28980041D01*
X151192800Y-28795881D01*
X151192800Y-28608119D01*
X151229431Y-28423959D01*
X151301284Y-28250491D01*
X151405602Y-28094369D01*
X151538369Y-27961602D01*
X151694491Y-27857284D01*
X151867959Y-27785431D01*
X152006079Y-27757958D01*
X152052118Y-27748800D01*
X152239882Y-27748800D01*
X152285921Y-27757958D01*
G37*
G36*
X144665921Y-27757958D02*
G01*
X144804041Y-27785431D01*
X144977509Y-27857284D01*
X145133631Y-27961602D01*
X145266398Y-28094369D01*
X145370716Y-28250491D01*
X145442569Y-28423959D01*
X145479200Y-28608119D01*
X145479200Y-28795881D01*
X145442569Y-28980041D01*
X145370716Y-29153509D01*
X145266398Y-29309631D01*
X145133631Y-29442398D01*
X144977509Y-29546716D01*
X144804041Y-29618569D01*
X144665921Y-29646042D01*
X144619882Y-29655200D01*
X144432118Y-29655200D01*
X144386079Y-29646042D01*
X144247959Y-29618569D01*
X144074491Y-29546716D01*
X143918369Y-29442398D01*
X143785602Y-29309631D01*
X143681284Y-29153509D01*
X143609431Y-28980041D01*
X143572800Y-28795881D01*
X143572800Y-28608119D01*
X143609431Y-28423959D01*
X143681284Y-28250491D01*
X143785602Y-28094369D01*
X143918369Y-27961602D01*
X144074491Y-27857284D01*
X144247959Y-27785431D01*
X144386079Y-27757958D01*
X144432118Y-27748800D01*
X144619882Y-27748800D01*
X144665921Y-27757958D01*
G37*
G36*
X142125921Y-27757958D02*
G01*
X142264041Y-27785431D01*
X142437509Y-27857284D01*
X142593631Y-27961602D01*
X142726398Y-28094369D01*
X142830716Y-28250491D01*
X142902569Y-28423959D01*
X142939200Y-28608119D01*
X142939200Y-28795881D01*
X142902569Y-28980041D01*
X142830716Y-29153509D01*
X142726398Y-29309631D01*
X142593631Y-29442398D01*
X142437509Y-29546716D01*
X142264041Y-29618569D01*
X142125921Y-29646042D01*
X142079882Y-29655200D01*
X141892118Y-29655200D01*
X141846079Y-29646042D01*
X141707959Y-29618569D01*
X141534491Y-29546716D01*
X141378369Y-29442398D01*
X141245602Y-29309631D01*
X141141284Y-29153509D01*
X141069431Y-28980041D01*
X141032800Y-28795881D01*
X141032800Y-28608119D01*
X141069431Y-28423959D01*
X141141284Y-28250491D01*
X141245602Y-28094369D01*
X141378369Y-27961602D01*
X141534491Y-27857284D01*
X141707959Y-27785431D01*
X141846079Y-27757958D01*
X141892118Y-27748800D01*
X142079882Y-27748800D01*
X142125921Y-27757958D01*
G37*
G36*
X119773921Y-27757958D02*
G01*
X119912041Y-27785431D01*
X120085509Y-27857284D01*
X120241631Y-27961602D01*
X120374398Y-28094369D01*
X120478716Y-28250491D01*
X120550569Y-28423959D01*
X120587200Y-28608119D01*
X120587200Y-28795881D01*
X120550569Y-28980041D01*
X120478716Y-29153509D01*
X120374398Y-29309631D01*
X120241631Y-29442398D01*
X120085509Y-29546716D01*
X119912041Y-29618569D01*
X119773921Y-29646042D01*
X119727882Y-29655200D01*
X119540118Y-29655200D01*
X119494079Y-29646042D01*
X119355959Y-29618569D01*
X119182491Y-29546716D01*
X119026369Y-29442398D01*
X118893602Y-29309631D01*
X118789284Y-29153509D01*
X118717431Y-28980041D01*
X118680800Y-28795881D01*
X118680800Y-28608119D01*
X118717431Y-28423959D01*
X118789284Y-28250491D01*
X118893602Y-28094369D01*
X119026369Y-27961602D01*
X119182491Y-27857284D01*
X119355959Y-27785431D01*
X119494079Y-27757958D01*
X119540118Y-27748800D01*
X119727882Y-27748800D01*
X119773921Y-27757958D01*
G37*
G36*
X117233921Y-27757958D02*
G01*
X117372041Y-27785431D01*
X117545509Y-27857284D01*
X117701631Y-27961602D01*
X117834398Y-28094369D01*
X117938716Y-28250491D01*
X118010569Y-28423959D01*
X118047200Y-28608119D01*
X118047200Y-28795881D01*
X118010569Y-28980041D01*
X117938716Y-29153509D01*
X117834398Y-29309631D01*
X117701631Y-29442398D01*
X117545509Y-29546716D01*
X117372041Y-29618569D01*
X117233921Y-29646042D01*
X117187882Y-29655200D01*
X117000118Y-29655200D01*
X116954079Y-29646042D01*
X116815959Y-29618569D01*
X116642491Y-29546716D01*
X116486369Y-29442398D01*
X116353602Y-29309631D01*
X116249284Y-29153509D01*
X116177431Y-28980041D01*
X116140800Y-28795881D01*
X116140800Y-28608119D01*
X116177431Y-28423959D01*
X116249284Y-28250491D01*
X116353602Y-28094369D01*
X116486369Y-27961602D01*
X116642491Y-27857284D01*
X116815959Y-27785431D01*
X116954079Y-27757958D01*
X117000118Y-27748800D01*
X117187882Y-27748800D01*
X117233921Y-27757958D01*
G37*
G36*
X114693921Y-27757958D02*
G01*
X114832041Y-27785431D01*
X115005509Y-27857284D01*
X115161631Y-27961602D01*
X115294398Y-28094369D01*
X115398716Y-28250491D01*
X115470569Y-28423959D01*
X115507200Y-28608119D01*
X115507200Y-28795881D01*
X115470569Y-28980041D01*
X115398716Y-29153509D01*
X115294398Y-29309631D01*
X115161631Y-29442398D01*
X115005509Y-29546716D01*
X114832041Y-29618569D01*
X114693921Y-29646042D01*
X114647882Y-29655200D01*
X114460118Y-29655200D01*
X114414079Y-29646042D01*
X114275959Y-29618569D01*
X114102491Y-29546716D01*
X113946369Y-29442398D01*
X113813602Y-29309631D01*
X113709284Y-29153509D01*
X113637431Y-28980041D01*
X113600800Y-28795881D01*
X113600800Y-28608119D01*
X113637431Y-28423959D01*
X113709284Y-28250491D01*
X113813602Y-28094369D01*
X113946369Y-27961602D01*
X114102491Y-27857284D01*
X114275959Y-27785431D01*
X114414079Y-27757958D01*
X114460118Y-27748800D01*
X114647882Y-27748800D01*
X114693921Y-27757958D01*
G37*
G36*
X112153921Y-27757958D02*
G01*
X112292041Y-27785431D01*
X112465509Y-27857284D01*
X112621631Y-27961602D01*
X112754398Y-28094369D01*
X112858716Y-28250491D01*
X112930569Y-28423959D01*
X112967200Y-28608119D01*
X112967200Y-28795881D01*
X112930569Y-28980041D01*
X112858716Y-29153509D01*
X112754398Y-29309631D01*
X112621631Y-29442398D01*
X112465509Y-29546716D01*
X112292041Y-29618569D01*
X112153921Y-29646042D01*
X112107882Y-29655200D01*
X111920118Y-29655200D01*
X111874079Y-29646042D01*
X111735959Y-29618569D01*
X111562491Y-29546716D01*
X111406369Y-29442398D01*
X111273602Y-29309631D01*
X111169284Y-29153509D01*
X111097431Y-28980041D01*
X111060800Y-28795881D01*
X111060800Y-28608119D01*
X111097431Y-28423959D01*
X111169284Y-28250491D01*
X111273602Y-28094369D01*
X111406369Y-27961602D01*
X111562491Y-27857284D01*
X111735959Y-27785431D01*
X111874079Y-27757958D01*
X111920118Y-27748800D01*
X112107882Y-27748800D01*
X112153921Y-27757958D01*
G37*
G36*
X104533921Y-27757958D02*
G01*
X104672041Y-27785431D01*
X104845509Y-27857284D01*
X105001631Y-27961602D01*
X105134398Y-28094369D01*
X105238716Y-28250491D01*
X105310569Y-28423959D01*
X105347200Y-28608119D01*
X105347200Y-28795881D01*
X105310569Y-28980041D01*
X105238716Y-29153509D01*
X105134398Y-29309631D01*
X105001631Y-29442398D01*
X104845509Y-29546716D01*
X104672041Y-29618569D01*
X104533921Y-29646042D01*
X104487882Y-29655200D01*
X104300118Y-29655200D01*
X104254079Y-29646042D01*
X104115959Y-29618569D01*
X103942491Y-29546716D01*
X103786369Y-29442398D01*
X103653602Y-29309631D01*
X103549284Y-29153509D01*
X103477431Y-28980041D01*
X103440800Y-28795881D01*
X103440800Y-28608119D01*
X103477431Y-28423959D01*
X103549284Y-28250491D01*
X103653602Y-28094369D01*
X103786369Y-27961602D01*
X103942491Y-27857284D01*
X104115959Y-27785431D01*
X104254079Y-27757958D01*
X104300118Y-27748800D01*
X104487882Y-27748800D01*
X104533921Y-27757958D01*
G37*
G36*
X101993921Y-27757958D02*
G01*
X102132041Y-27785431D01*
X102305509Y-27857284D01*
X102461631Y-27961602D01*
X102594398Y-28094369D01*
X102698716Y-28250491D01*
X102770569Y-28423959D01*
X102807200Y-28608119D01*
X102807200Y-28795881D01*
X102770569Y-28980041D01*
X102698716Y-29153509D01*
X102594398Y-29309631D01*
X102461631Y-29442398D01*
X102305509Y-29546716D01*
X102132041Y-29618569D01*
X101993921Y-29646042D01*
X101947882Y-29655200D01*
X101760118Y-29655200D01*
X101714079Y-29646042D01*
X101575959Y-29618569D01*
X101402491Y-29546716D01*
X101246369Y-29442398D01*
X101113602Y-29309631D01*
X101009284Y-29153509D01*
X100937431Y-28980041D01*
X100900800Y-28795881D01*
X100900800Y-28608119D01*
X100937431Y-28423959D01*
X101009284Y-28250491D01*
X101113602Y-28094369D01*
X101246369Y-27961602D01*
X101402491Y-27857284D01*
X101575959Y-27785431D01*
X101714079Y-27757958D01*
X101760118Y-27748800D01*
X101947882Y-27748800D01*
X101993921Y-27757958D01*
G37*
M02*
