G04 #@! TF.GenerationSoftware,KiCad,Pcbnew,(5.1.6-0-10_14)*
G04 #@! TF.CreationDate,2020-08-01T23:48:07-04:00*
G04 #@! TF.ProjectId,imperializer,696d7065-7269-4616-9c69-7a65722e6b69,1.1*
G04 #@! TF.SameCoordinates,Original*
G04 #@! TF.FileFunction,Paste,Bot*
G04 #@! TF.FilePolarity,Positive*
%FSLAX46Y46*%
G04 Gerber Fmt 4.6, Leading zero omitted, Abs format (unit mm)*
G04 Created by KiCad (PCBNEW (5.1.6-0-10_14)) date 2020-08-01 23:48:07*
%MOMM*%
%LPD*%
G01*
G04 APERTURE LIST*
%ADD10R,0.410000X1.600000*%
G04 APERTURE END LIST*
G36*
G01*
X136957750Y-41671900D02*
X137870250Y-41671900D01*
G75*
G02*
X138114000Y-41915650I0J-243750D01*
G01*
X138114000Y-42403150D01*
G75*
G02*
X137870250Y-42646900I-243750J0D01*
G01*
X136957750Y-42646900D01*
G75*
G02*
X136714000Y-42403150I0J243750D01*
G01*
X136714000Y-41915650D01*
G75*
G02*
X136957750Y-41671900I243750J0D01*
G01*
G37*
G36*
G01*
X136957750Y-39796900D02*
X137870250Y-39796900D01*
G75*
G02*
X138114000Y-40040650I0J-243750D01*
G01*
X138114000Y-40528150D01*
G75*
G02*
X137870250Y-40771900I-243750J0D01*
G01*
X136957750Y-40771900D01*
G75*
G02*
X136714000Y-40528150I0J243750D01*
G01*
X136714000Y-40040650D01*
G75*
G02*
X136957750Y-39796900I243750J0D01*
G01*
G37*
G36*
G01*
X136195750Y-38120500D02*
X137108250Y-38120500D01*
G75*
G02*
X137352000Y-38364250I0J-243750D01*
G01*
X137352000Y-38851750D01*
G75*
G02*
X137108250Y-39095500I-243750J0D01*
G01*
X136195750Y-39095500D01*
G75*
G02*
X135952000Y-38851750I0J243750D01*
G01*
X135952000Y-38364250D01*
G75*
G02*
X136195750Y-38120500I243750J0D01*
G01*
G37*
G36*
G01*
X136195750Y-36245500D02*
X137108250Y-36245500D01*
G75*
G02*
X137352000Y-36489250I0J-243750D01*
G01*
X137352000Y-36976750D01*
G75*
G02*
X137108250Y-37220500I-243750J0D01*
G01*
X136195750Y-37220500D01*
G75*
G02*
X135952000Y-36976750I0J243750D01*
G01*
X135952000Y-36489250D01*
G75*
G02*
X136195750Y-36245500I243750J0D01*
G01*
G37*
G36*
G01*
X139091350Y-41671900D02*
X140003850Y-41671900D01*
G75*
G02*
X140247600Y-41915650I0J-243750D01*
G01*
X140247600Y-42403150D01*
G75*
G02*
X140003850Y-42646900I-243750J0D01*
G01*
X139091350Y-42646900D01*
G75*
G02*
X138847600Y-42403150I0J243750D01*
G01*
X138847600Y-41915650D01*
G75*
G02*
X139091350Y-41671900I243750J0D01*
G01*
G37*
G36*
G01*
X139091350Y-39796900D02*
X140003850Y-39796900D01*
G75*
G02*
X140247600Y-40040650I0J-243750D01*
G01*
X140247600Y-40528150D01*
G75*
G02*
X140003850Y-40771900I-243750J0D01*
G01*
X139091350Y-40771900D01*
G75*
G02*
X138847600Y-40528150I0J243750D01*
G01*
X138847600Y-40040650D01*
G75*
G02*
X139091350Y-39796900I243750J0D01*
G01*
G37*
D10*
X127317500Y-36944300D03*
X127952500Y-36944300D03*
X128587500Y-36944300D03*
X129222500Y-36944300D03*
X132397500Y-36944300D03*
X133032500Y-36944300D03*
X133667500Y-36944300D03*
X134302500Y-36944300D03*
X134302500Y-31635700D03*
X133667500Y-31635700D03*
X133032500Y-31635700D03*
X132397500Y-31635700D03*
X129222500Y-31635700D03*
X128587500Y-31635700D03*
X127952500Y-31635700D03*
X127317500Y-31635700D03*
X129857500Y-31635700D03*
X130492500Y-31635700D03*
X130492500Y-36944300D03*
X129857500Y-36944300D03*
X131127500Y-31635700D03*
X131762500Y-31635700D03*
X131127500Y-36944300D03*
X131762500Y-36944300D03*
G36*
G01*
X136195750Y-54806000D02*
X137108250Y-54806000D01*
G75*
G02*
X137352000Y-55049750I0J-243750D01*
G01*
X137352000Y-55537250D01*
G75*
G02*
X137108250Y-55781000I-243750J0D01*
G01*
X136195750Y-55781000D01*
G75*
G02*
X135952000Y-55537250I0J243750D01*
G01*
X135952000Y-55049750D01*
G75*
G02*
X136195750Y-54806000I243750J0D01*
G01*
G37*
G36*
G01*
X136195750Y-52931000D02*
X137108250Y-52931000D01*
G75*
G02*
X137352000Y-53174750I0J-243750D01*
G01*
X137352000Y-53662250D01*
G75*
G02*
X137108250Y-53906000I-243750J0D01*
G01*
X136195750Y-53906000D01*
G75*
G02*
X135952000Y-53662250I0J243750D01*
G01*
X135952000Y-53174750D01*
G75*
G02*
X136195750Y-52931000I243750J0D01*
G01*
G37*
G36*
G01*
X136195750Y-50917500D02*
X137108250Y-50917500D01*
G75*
G02*
X137352000Y-51161250I0J-243750D01*
G01*
X137352000Y-51648750D01*
G75*
G02*
X137108250Y-51892500I-243750J0D01*
G01*
X136195750Y-51892500D01*
G75*
G02*
X135952000Y-51648750I0J243750D01*
G01*
X135952000Y-51161250D01*
G75*
G02*
X136195750Y-50917500I243750J0D01*
G01*
G37*
G36*
G01*
X136195750Y-49042500D02*
X137108250Y-49042500D01*
G75*
G02*
X137352000Y-49286250I0J-243750D01*
G01*
X137352000Y-49773750D01*
G75*
G02*
X137108250Y-50017500I-243750J0D01*
G01*
X136195750Y-50017500D01*
G75*
G02*
X135952000Y-49773750I0J243750D01*
G01*
X135952000Y-49286250D01*
G75*
G02*
X136195750Y-49042500I243750J0D01*
G01*
G37*
G36*
G01*
X138227750Y-54806000D02*
X139140250Y-54806000D01*
G75*
G02*
X139384000Y-55049750I0J-243750D01*
G01*
X139384000Y-55537250D01*
G75*
G02*
X139140250Y-55781000I-243750J0D01*
G01*
X138227750Y-55781000D01*
G75*
G02*
X137984000Y-55537250I0J243750D01*
G01*
X137984000Y-55049750D01*
G75*
G02*
X138227750Y-54806000I243750J0D01*
G01*
G37*
G36*
G01*
X138227750Y-52931000D02*
X139140250Y-52931000D01*
G75*
G02*
X139384000Y-53174750I0J-243750D01*
G01*
X139384000Y-53662250D01*
G75*
G02*
X139140250Y-53906000I-243750J0D01*
G01*
X138227750Y-53906000D01*
G75*
G02*
X137984000Y-53662250I0J243750D01*
G01*
X137984000Y-53174750D01*
G75*
G02*
X138227750Y-52931000I243750J0D01*
G01*
G37*
G36*
G01*
X100272000Y-122376250D02*
X100272000Y-121463750D01*
G75*
G02*
X100515750Y-121220000I243750J0D01*
G01*
X101003250Y-121220000D01*
G75*
G02*
X101247000Y-121463750I0J-243750D01*
G01*
X101247000Y-122376250D01*
G75*
G02*
X101003250Y-122620000I-243750J0D01*
G01*
X100515750Y-122620000D01*
G75*
G02*
X100272000Y-122376250I0J243750D01*
G01*
G37*
G36*
G01*
X98397000Y-122376250D02*
X98397000Y-121463750D01*
G75*
G02*
X98640750Y-121220000I243750J0D01*
G01*
X99128250Y-121220000D01*
G75*
G02*
X99372000Y-121463750I0J-243750D01*
G01*
X99372000Y-122376250D01*
G75*
G02*
X99128250Y-122620000I-243750J0D01*
G01*
X98640750Y-122620000D01*
G75*
G02*
X98397000Y-122376250I0J243750D01*
G01*
G37*
G36*
G01*
X94097500Y-124916250D02*
X94097500Y-124003750D01*
G75*
G02*
X94341250Y-123760000I243750J0D01*
G01*
X94828750Y-123760000D01*
G75*
G02*
X95072500Y-124003750I0J-243750D01*
G01*
X95072500Y-124916250D01*
G75*
G02*
X94828750Y-125160000I-243750J0D01*
G01*
X94341250Y-125160000D01*
G75*
G02*
X94097500Y-124916250I0J243750D01*
G01*
G37*
G36*
G01*
X92222500Y-124916250D02*
X92222500Y-124003750D01*
G75*
G02*
X92466250Y-123760000I243750J0D01*
G01*
X92953750Y-123760000D01*
G75*
G02*
X93197500Y-124003750I0J-243750D01*
G01*
X93197500Y-124916250D01*
G75*
G02*
X92953750Y-125160000I-243750J0D01*
G01*
X92466250Y-125160000D01*
G75*
G02*
X92222500Y-124916250I0J243750D01*
G01*
G37*
G36*
G01*
X94254500Y-119836250D02*
X94254500Y-118923750D01*
G75*
G02*
X94498250Y-118680000I243750J0D01*
G01*
X94985750Y-118680000D01*
G75*
G02*
X95229500Y-118923750I0J-243750D01*
G01*
X95229500Y-119836250D01*
G75*
G02*
X94985750Y-120080000I-243750J0D01*
G01*
X94498250Y-120080000D01*
G75*
G02*
X94254500Y-119836250I0J243750D01*
G01*
G37*
G36*
G01*
X92379500Y-119836250D02*
X92379500Y-118923750D01*
G75*
G02*
X92623250Y-118680000I243750J0D01*
G01*
X93110750Y-118680000D01*
G75*
G02*
X93354500Y-118923750I0J-243750D01*
G01*
X93354500Y-119836250D01*
G75*
G02*
X93110750Y-120080000I-243750J0D01*
G01*
X92623250Y-120080000D01*
G75*
G02*
X92379500Y-119836250I0J243750D01*
G01*
G37*
X127317500Y-49644300D03*
X127952500Y-49644300D03*
X128587500Y-49644300D03*
X129222500Y-49644300D03*
X132397500Y-49644300D03*
X133032500Y-49644300D03*
X133667500Y-49644300D03*
X134302500Y-49644300D03*
X134302500Y-44335700D03*
X133667500Y-44335700D03*
X133032500Y-44335700D03*
X132397500Y-44335700D03*
X129222500Y-44335700D03*
X128587500Y-44335700D03*
X127952500Y-44335700D03*
X127317500Y-44335700D03*
X129857500Y-44335700D03*
X130492500Y-44335700D03*
X130492500Y-49644300D03*
X129857500Y-49644300D03*
X131127500Y-44335700D03*
X131762500Y-44335700D03*
X131127500Y-49644300D03*
X131762500Y-49644300D03*
M02*
