G04 #@! TF.GenerationSoftware,KiCad,Pcbnew,(5.1.5-0)*
G04 #@! TF.CreationDate,2020-05-07T21:13:09-04:00*
G04 #@! TF.ProjectId,imperializer,696d7065-7269-4616-9c69-7a65722e6b69,1.0*
G04 #@! TF.SameCoordinates,Original*
G04 #@! TF.FileFunction,Copper,L2,Bot*
G04 #@! TF.FilePolarity,Positive*
%FSLAX46Y46*%
G04 Gerber Fmt 4.6, Leading zero omitted, Abs format (unit mm)*
G04 Created by KiCad (PCBNEW (5.1.5-0)) date 2020-05-07 21:13:09*
%MOMM*%
%LPD*%
G04 APERTURE LIST*
%ADD10O,1.700000X1.700000*%
%ADD11R,1.700000X1.700000*%
%ADD12C,1.700000*%
%ADD13C,1.500000*%
%ADD14C,1.524000*%
%ADD15R,1.500000X1.500000*%
%ADD16C,1.055600*%
%ADD17C,2.200000*%
%ADD18C,0.800000*%
%ADD19C,0.304800*%
%ADD20C,0.355600*%
%ADD21C,0.254000*%
G04 APERTURE END LIST*
D10*
X166560500Y-120459500D03*
X166560500Y-117919500D03*
X166560500Y-115379500D03*
X166560500Y-112839500D03*
X166560500Y-110299500D03*
D11*
X166560500Y-107759500D03*
D10*
X166560500Y-96964500D03*
X166560500Y-94424500D03*
D11*
X166560500Y-91884500D03*
D12*
X94234000Y-118872000D03*
X96774000Y-118872000D03*
X94234000Y-121412000D03*
X96774000Y-121412000D03*
X94234000Y-123952000D03*
X96774000Y-123952000D03*
D13*
X142621000Y-41783000D03*
X160401000Y-51943000D03*
D14*
X147701000Y-41783000D03*
X150241000Y-41783000D03*
D13*
X152781000Y-41783000D03*
X155321000Y-41783000D03*
X157861000Y-41783000D03*
X160401000Y-41783000D03*
X145161000Y-41783000D03*
X157861000Y-51943000D03*
X155321000Y-51943000D03*
X152781000Y-51943000D03*
X150241000Y-51943000D03*
X147701000Y-51943000D03*
X145161000Y-51943000D03*
D15*
X142621000Y-51943000D03*
D13*
X89662000Y-73970400D03*
X89662000Y-80969600D03*
D16*
X92362000Y-79970000D03*
X92362000Y-74970000D03*
D17*
X117475000Y-120650000D03*
X123825000Y-118110000D03*
X146050000Y-120650000D03*
X152400000Y-118110000D03*
X146050000Y-63500000D03*
X152400000Y-60960000D03*
D13*
X102362000Y-41783000D03*
X120142000Y-51943000D03*
D14*
X107442000Y-41783000D03*
X109982000Y-41783000D03*
D13*
X112522000Y-41783000D03*
X115062000Y-41783000D03*
X117602000Y-41783000D03*
X120142000Y-41783000D03*
X104902000Y-41783000D03*
X117602000Y-51943000D03*
X115062000Y-51943000D03*
X112522000Y-51943000D03*
X109982000Y-51943000D03*
X107442000Y-51943000D03*
X104902000Y-51943000D03*
D15*
X102362000Y-51943000D03*
D17*
X127000000Y-63500000D03*
X133350000Y-60960000D03*
X146050000Y-82550000D03*
X152400000Y-80010000D03*
X127000000Y-82550000D03*
X133350000Y-80010000D03*
X107950000Y-82550000D03*
X114300000Y-80010000D03*
X107950000Y-63500000D03*
X114300000Y-60960000D03*
X146050000Y-101600000D03*
X152400000Y-99060000D03*
X127000000Y-101600000D03*
X133350000Y-99060000D03*
X107950000Y-101600000D03*
X114300000Y-99060000D03*
D18*
X95377000Y-98996500D03*
X92456000Y-98552000D03*
X92964000Y-94678500D03*
X89979500Y-61849000D03*
X89916000Y-64706500D03*
X99377500Y-76898500D03*
X102489000Y-76517500D03*
X103886000Y-64516000D03*
X147700998Y-45212000D03*
X137414004Y-46539190D03*
X101981000Y-63366690D03*
X108712000Y-57658000D03*
X150241000Y-44450000D03*
X139319000Y-44450000D03*
X145986500Y-112649000D03*
X107442000Y-57150000D03*
X147574000Y-48514000D03*
X107449759Y-47313810D03*
X100330000Y-54102000D03*
X116332000Y-49784000D03*
X146812000Y-76835000D03*
X101092000Y-58801000D03*
X109982000Y-60452000D03*
X145161000Y-46227996D03*
X103378000Y-62484006D03*
X99245896Y-49726810D03*
X99196624Y-59572624D03*
X93599000Y-65024000D03*
X102489000Y-72136000D03*
X102489000Y-69977000D03*
X93726000Y-63881000D03*
X156591000Y-70993000D03*
X93980000Y-61468000D03*
X98044008Y-57404000D03*
X101219000Y-61595000D03*
X102616000Y-65659000D03*
X142494000Y-49022000D03*
X102997000Y-66802000D03*
X93726000Y-62738002D03*
X141097000Y-69723000D03*
X96520000Y-93726000D03*
X95954810Y-82989896D03*
X97396000Y-92850000D03*
X97536000Y-83058000D03*
X90678000Y-100584000D03*
X89916000Y-102870000D03*
X97028000Y-98552000D03*
X94361000Y-73406000D03*
X91440000Y-57912000D03*
X97964799Y-97925349D03*
X118872000Y-48260000D03*
X92710000Y-50546000D03*
X90805000Y-66929000D03*
X93091000Y-65913000D03*
X102489000Y-73660000D03*
X152400000Y-74422000D03*
X92964000Y-67056000D03*
X162115500Y-109220000D03*
X98256297Y-96363947D03*
D19*
X102108000Y-76898500D02*
X102489000Y-76517500D01*
X99377500Y-76898500D02*
X102108000Y-76898500D01*
X147701000Y-41783000D02*
X147701000Y-45211998D01*
X147701000Y-45211998D02*
X147700998Y-45212000D01*
X146050000Y-61944366D02*
X148971000Y-59023366D01*
X146050000Y-63500000D02*
X146050000Y-61944366D01*
X148971000Y-46482002D02*
X147700998Y-45212000D01*
X148971000Y-59023366D02*
X148971000Y-46482002D01*
X103886000Y-65081685D02*
X103886000Y-64516000D01*
X103886000Y-97663000D02*
X103886000Y-65081685D01*
X107823000Y-101600000D02*
X103886000Y-97663000D01*
X107950000Y-101600000D02*
X107823000Y-101600000D01*
X104285999Y-64116001D02*
X103886000Y-64516000D01*
X104285999Y-58274001D02*
X104285999Y-64116001D01*
X106172000Y-56388000D02*
X104285999Y-58274001D01*
X106172000Y-43053000D02*
X106172000Y-56388000D01*
X107442000Y-41783000D02*
X106172000Y-43053000D01*
D20*
X144950001Y-119550001D02*
X141140001Y-119550001D01*
X146050000Y-120650000D02*
X144950001Y-119550001D01*
X127000000Y-105410000D02*
X127000000Y-101600000D01*
X141140001Y-119550001D02*
X127000000Y-105410000D01*
D19*
X137394988Y-43580012D02*
X139192000Y-41783000D01*
X141560340Y-41783000D02*
X142621000Y-41783000D01*
X127000000Y-101600000D02*
X137394988Y-91205012D01*
X137394988Y-91205012D02*
X137394988Y-43580012D01*
X139192000Y-41783000D02*
X141560340Y-41783000D01*
X102108000Y-54229000D02*
X102108000Y-63239690D01*
X101073001Y-53194001D02*
X102108000Y-54229000D01*
X101073001Y-43071999D02*
X101073001Y-53194001D01*
X102108000Y-63239690D02*
X101981000Y-63366690D01*
X102362000Y-41783000D02*
X101073001Y-43071999D01*
X109982000Y-41783000D02*
X108712000Y-43053000D01*
X108712000Y-43053000D02*
X108712000Y-57658000D01*
X150241000Y-41783000D02*
X150241000Y-44450000D01*
X146050000Y-101600000D02*
X139319000Y-94869000D01*
X139319000Y-94869000D02*
X139319000Y-44450000D01*
X146431000Y-101981000D02*
X146050000Y-101600000D01*
X146431000Y-112204500D02*
X146431000Y-101981000D01*
X145986500Y-112649000D02*
X146431000Y-112204500D01*
X107442000Y-62992000D02*
X107950000Y-63500000D01*
X107442000Y-57150000D02*
X107442000Y-62992000D01*
X107442000Y-51943000D02*
X107442000Y-57150000D01*
X147574000Y-51816000D02*
X147701000Y-51943000D01*
X147574000Y-48514000D02*
X147574000Y-51816000D01*
X107442000Y-51943000D02*
X107442000Y-47321569D01*
X107442000Y-47321569D02*
X107449759Y-47313810D01*
X114681000Y-49784000D02*
X116332000Y-49784000D01*
X112522000Y-51943000D02*
X114681000Y-49784000D01*
X152781000Y-57785000D02*
X152781000Y-51943000D01*
X149987000Y-60579000D02*
X152781000Y-57785000D01*
X149987000Y-62103000D02*
X149987000Y-60579000D01*
X146812000Y-65278000D02*
X149987000Y-62103000D01*
X146812000Y-76835000D02*
X146812000Y-65278000D01*
X100330000Y-54102000D02*
X101092000Y-54864000D01*
X101092000Y-54864000D02*
X101092000Y-58801000D01*
X111252000Y-59182000D02*
X110381999Y-60052001D01*
X111252000Y-45593000D02*
X111252000Y-59182000D01*
X115062000Y-41783000D02*
X111252000Y-45593000D01*
X110381999Y-60052001D02*
X109982000Y-60452000D01*
X129794000Y-63119000D02*
X129794000Y-56515000D01*
X127000000Y-82550000D02*
X127000000Y-68072000D01*
X127889000Y-65024000D02*
X129794000Y-63119000D01*
X129794000Y-56515000D02*
X115062000Y-41783000D01*
X127000000Y-68072000D02*
X127889000Y-67183000D01*
X127889000Y-67183000D02*
X127889000Y-65024000D01*
X145161000Y-41783000D02*
X145161000Y-46227996D01*
X146431000Y-47497996D02*
X145161000Y-46227996D01*
X143129000Y-57404000D02*
X146431000Y-54102000D01*
X146431000Y-54102000D02*
X146431000Y-47497996D01*
X143129000Y-79629000D02*
X143129000Y-57404000D01*
X146050000Y-82550000D02*
X143129000Y-79629000D01*
X103505000Y-61791321D02*
X103378000Y-61918321D01*
X104902000Y-41783000D02*
X103505000Y-43180000D01*
X103378000Y-61918321D02*
X103378000Y-62484006D01*
X103505000Y-43180000D02*
X103505000Y-61791321D01*
X127000000Y-61341000D02*
X127000000Y-63500000D01*
X117602000Y-51943000D02*
X127000000Y-61341000D01*
X99245896Y-49726810D02*
X99245896Y-59523352D01*
X99245896Y-59523352D02*
X99196624Y-59572624D01*
X93599000Y-65024000D02*
X95377000Y-65024000D01*
X95377000Y-65024000D02*
X102489000Y-72136000D01*
X97663000Y-63881000D02*
X93726000Y-63881000D01*
X102489000Y-68707000D02*
X97663000Y-63881000D01*
X102489000Y-69977000D02*
X102489000Y-68707000D01*
X155321000Y-51943000D02*
X156591000Y-53213000D01*
X156591000Y-53213000D02*
X156591000Y-70427315D01*
X156591000Y-70427315D02*
X156591000Y-70993000D01*
D20*
X93980000Y-61468000D02*
X98044000Y-57404000D01*
X98044000Y-57404000D02*
X98044008Y-57404000D01*
X101219000Y-61595000D02*
X101219000Y-62160685D01*
X101219000Y-64262000D02*
X102616000Y-65659000D01*
X101219000Y-62160685D02*
X101219000Y-64262000D01*
D19*
X142621000Y-51943000D02*
X142621000Y-49149000D01*
X142621000Y-49149000D02*
X142494000Y-49022000D01*
X145161000Y-51943000D02*
X141097000Y-56007000D01*
X141097000Y-56007000D02*
X141097000Y-69157315D01*
X141097000Y-69157315D02*
X141097000Y-69723000D01*
X94291685Y-62738002D02*
X93726000Y-62738002D01*
X98171002Y-62738002D02*
X94291685Y-62738002D01*
X102235000Y-66802000D02*
X98171002Y-62738002D01*
X102997000Y-66802000D02*
X102235000Y-66802000D01*
X96520000Y-93726000D02*
X95954810Y-93160810D01*
X95954810Y-83555581D02*
X95954810Y-82989896D01*
X95954810Y-93160810D02*
X95954810Y-83555581D01*
X97396000Y-92850000D02*
X97396000Y-83198000D01*
X97396000Y-83198000D02*
X97536000Y-83058000D01*
X93384001Y-118022001D02*
X93384001Y-103290001D01*
X94234000Y-118872000D02*
X93384001Y-118022001D01*
X93384001Y-103290001D02*
X90678000Y-100584000D01*
X92964000Y-98552000D02*
X92456000Y-98552000D01*
X95388801Y-120026801D02*
X95388801Y-100976801D01*
X95388801Y-100976801D02*
X92964000Y-98552000D01*
X96774000Y-121412000D02*
X95388801Y-120026801D01*
X94234000Y-121412000D02*
X89916000Y-117094000D01*
X89916000Y-117094000D02*
X89916000Y-102870000D01*
X94361000Y-95885000D02*
X94361000Y-73971685D01*
X94361000Y-73971685D02*
X94361000Y-73406000D01*
X97028000Y-98552000D02*
X94361000Y-95885000D01*
X95250000Y-95210550D02*
X97564800Y-97525350D01*
X88963500Y-60388500D02*
X88963500Y-66865500D01*
X95250000Y-73152000D02*
X95250000Y-95210550D01*
X88963500Y-66865500D02*
X95250000Y-73152000D01*
X91440000Y-57912000D02*
X88963500Y-60388500D01*
X97564800Y-97525350D02*
X97964799Y-97925349D01*
X92710000Y-50546000D02*
X92710000Y-61087000D01*
X90805000Y-62992000D02*
X90805000Y-66929000D01*
X92710000Y-61087000D02*
X90805000Y-62992000D01*
X118872000Y-48641000D02*
X118872000Y-48260000D01*
X116332000Y-51181000D02*
X118872000Y-48641000D01*
X116332000Y-58928000D02*
X116332000Y-51181000D01*
X114300000Y-60960000D02*
X116332000Y-58928000D01*
X114300000Y-80010000D02*
X114300000Y-60960000D01*
X114300000Y-99060000D02*
X114300000Y-80010000D01*
X157099000Y-113411000D02*
X152400000Y-118110000D01*
X152400000Y-74422000D02*
X157099000Y-79121000D01*
X157099000Y-79121000D02*
X157099000Y-113411000D01*
X152400000Y-60960000D02*
X152400000Y-74422000D01*
X93091000Y-65913000D02*
X94742000Y-65913000D01*
X94742000Y-65913000D02*
X102489000Y-73660000D01*
X162115500Y-110934500D02*
X166560500Y-115379500D01*
X162115500Y-109220000D02*
X162115500Y-110934500D01*
X98256297Y-95798262D02*
X98256297Y-96363947D01*
X92964000Y-67056000D02*
X98256297Y-72348297D01*
X98256297Y-72348297D02*
X98256297Y-95798262D01*
X166560500Y-117919500D02*
X168656000Y-117919500D01*
X168656000Y-92825200D02*
X167715300Y-91884500D01*
X167715300Y-91884500D02*
X166560500Y-91884500D01*
X168656000Y-117919500D02*
X168656000Y-92825200D01*
D21*
G36*
X172695001Y-135230000D02*
G01*
X88925000Y-135230000D01*
X88925000Y-131170475D01*
X106750000Y-131170475D01*
X106750000Y-131689525D01*
X106851261Y-132198601D01*
X107049893Y-132678141D01*
X107338262Y-133109715D01*
X107705285Y-133476738D01*
X108136859Y-133765107D01*
X108616399Y-133963739D01*
X109125475Y-134065000D01*
X109644525Y-134065000D01*
X110153601Y-133963739D01*
X110633141Y-133765107D01*
X111064715Y-133476738D01*
X111431738Y-133109715D01*
X111720107Y-132678141D01*
X111918739Y-132198601D01*
X112020000Y-131689525D01*
X112020000Y-131170475D01*
X130550000Y-131170475D01*
X130550000Y-131689525D01*
X130651261Y-132198601D01*
X130849893Y-132678141D01*
X131138262Y-133109715D01*
X131505285Y-133476738D01*
X131936859Y-133765107D01*
X132416399Y-133963739D01*
X132925475Y-134065000D01*
X133444525Y-134065000D01*
X133953601Y-133963739D01*
X134433141Y-133765107D01*
X134864715Y-133476738D01*
X135231738Y-133109715D01*
X135520107Y-132678141D01*
X135718739Y-132198601D01*
X135820000Y-131689525D01*
X135820000Y-131170475D01*
X135718739Y-130661399D01*
X135520107Y-130181859D01*
X135231738Y-129750285D01*
X134864715Y-129383262D01*
X134433141Y-129094893D01*
X133953601Y-128896261D01*
X133444525Y-128795000D01*
X132925475Y-128795000D01*
X132416399Y-128896261D01*
X131936859Y-129094893D01*
X131505285Y-129383262D01*
X131138262Y-129750285D01*
X130849893Y-130181859D01*
X130651261Y-130661399D01*
X130550000Y-131170475D01*
X112020000Y-131170475D01*
X111918739Y-130661399D01*
X111720107Y-130181859D01*
X111431738Y-129750285D01*
X111064715Y-129383262D01*
X110633141Y-129094893D01*
X110153601Y-128896261D01*
X109644525Y-128795000D01*
X109125475Y-128795000D01*
X108616399Y-128896261D01*
X108136859Y-129094893D01*
X107705285Y-129383262D01*
X107338262Y-129750285D01*
X107049893Y-130181859D01*
X106851261Y-130661399D01*
X106750000Y-131170475D01*
X88925000Y-131170475D01*
X88925000Y-103182100D01*
X88998795Y-103360256D01*
X89112063Y-103529774D01*
X89128601Y-103546312D01*
X89128600Y-117055337D01*
X89124792Y-117094000D01*
X89128600Y-117132663D01*
X89128600Y-117132672D01*
X89139994Y-117248356D01*
X89185018Y-117396782D01*
X89258134Y-117533571D01*
X89356531Y-117653469D01*
X89386578Y-117678128D01*
X92786361Y-121077913D01*
X92749000Y-121265740D01*
X92749000Y-121558260D01*
X92806068Y-121845158D01*
X92918010Y-122115411D01*
X93080525Y-122358632D01*
X93287368Y-122565475D01*
X93461760Y-122682000D01*
X93287368Y-122798525D01*
X93080525Y-123005368D01*
X92918010Y-123248589D01*
X92806068Y-123518842D01*
X92749000Y-123805740D01*
X92749000Y-124098260D01*
X92806068Y-124385158D01*
X92918010Y-124655411D01*
X93080525Y-124898632D01*
X93287368Y-125105475D01*
X93530589Y-125267990D01*
X93800842Y-125379932D01*
X94087740Y-125437000D01*
X94380260Y-125437000D01*
X94667158Y-125379932D01*
X94937411Y-125267990D01*
X95180632Y-125105475D01*
X95305710Y-124980397D01*
X95925208Y-124980397D01*
X96002843Y-125229472D01*
X96266883Y-125355371D01*
X96550411Y-125427339D01*
X96842531Y-125442611D01*
X97132019Y-125400599D01*
X97407747Y-125302919D01*
X97545157Y-125229472D01*
X97622792Y-124980397D01*
X96774000Y-124131605D01*
X95925208Y-124980397D01*
X95305710Y-124980397D01*
X95387475Y-124898632D01*
X95503311Y-124725271D01*
X95745603Y-124800792D01*
X96594395Y-123952000D01*
X96953605Y-123952000D01*
X97802397Y-124800792D01*
X98051472Y-124723157D01*
X98177371Y-124459117D01*
X98249339Y-124175589D01*
X98264611Y-123883469D01*
X98222599Y-123593981D01*
X98124919Y-123318253D01*
X98051472Y-123180843D01*
X97802397Y-123103208D01*
X96953605Y-123952000D01*
X96594395Y-123952000D01*
X95745603Y-123103208D01*
X95503311Y-123178729D01*
X95387475Y-123005368D01*
X95180632Y-122798525D01*
X95006240Y-122682000D01*
X95180632Y-122565475D01*
X95387475Y-122358632D01*
X95504000Y-122184240D01*
X95620525Y-122358632D01*
X95827368Y-122565475D01*
X96000729Y-122681311D01*
X95925208Y-122923603D01*
X96774000Y-123772395D01*
X97502655Y-123043740D01*
X114720000Y-123043740D01*
X114720000Y-123336260D01*
X114777068Y-123623158D01*
X114889010Y-123893411D01*
X115051525Y-124136632D01*
X115258368Y-124343475D01*
X115501589Y-124505990D01*
X115771842Y-124617932D01*
X116058740Y-124675000D01*
X116351260Y-124675000D01*
X116638158Y-124617932D01*
X116908411Y-124505990D01*
X117151632Y-124343475D01*
X117358475Y-124136632D01*
X117520990Y-123893411D01*
X117632932Y-123623158D01*
X117690000Y-123336260D01*
X117690000Y-123043740D01*
X117667471Y-122930475D01*
X118650000Y-122930475D01*
X118650000Y-123449525D01*
X118751261Y-123958601D01*
X118949893Y-124438141D01*
X119238262Y-124869715D01*
X119605285Y-125236738D01*
X120036859Y-125525107D01*
X120516399Y-125723739D01*
X121025475Y-125825000D01*
X121544525Y-125825000D01*
X122053601Y-125723739D01*
X122533141Y-125525107D01*
X122964715Y-125236738D01*
X123331738Y-124869715D01*
X123620107Y-124438141D01*
X123818739Y-123958601D01*
X123920000Y-123449525D01*
X123920000Y-123043740D01*
X124880000Y-123043740D01*
X124880000Y-123336260D01*
X124937068Y-123623158D01*
X125049010Y-123893411D01*
X125211525Y-124136632D01*
X125418368Y-124343475D01*
X125661589Y-124505990D01*
X125931842Y-124617932D01*
X126218740Y-124675000D01*
X126511260Y-124675000D01*
X126798158Y-124617932D01*
X127068411Y-124505990D01*
X127311632Y-124343475D01*
X127518475Y-124136632D01*
X127680990Y-123893411D01*
X127792932Y-123623158D01*
X127850000Y-123336260D01*
X127850000Y-123043740D01*
X127792932Y-122756842D01*
X127680990Y-122486589D01*
X127518475Y-122243368D01*
X127311632Y-122036525D01*
X127068411Y-121874010D01*
X126798158Y-121762068D01*
X126511260Y-121705000D01*
X126218740Y-121705000D01*
X125931842Y-121762068D01*
X125661589Y-121874010D01*
X125418368Y-122036525D01*
X125211525Y-122243368D01*
X125049010Y-122486589D01*
X124937068Y-122756842D01*
X124880000Y-123043740D01*
X123920000Y-123043740D01*
X123920000Y-122930475D01*
X123818739Y-122421399D01*
X123620107Y-121941859D01*
X123331738Y-121510285D01*
X122964715Y-121143262D01*
X122533141Y-120854893D01*
X122053601Y-120656261D01*
X121544525Y-120555000D01*
X121025475Y-120555000D01*
X120516399Y-120656261D01*
X120036859Y-120854893D01*
X119605285Y-121143262D01*
X119238262Y-121510285D01*
X118949893Y-121941859D01*
X118751261Y-122421399D01*
X118650000Y-122930475D01*
X117667471Y-122930475D01*
X117632932Y-122756842D01*
X117520990Y-122486589D01*
X117453110Y-122385000D01*
X117645883Y-122385000D01*
X117981081Y-122318325D01*
X118296831Y-122187537D01*
X118580998Y-121997663D01*
X118822663Y-121755998D01*
X119012537Y-121471831D01*
X119143325Y-121156081D01*
X119210000Y-120820883D01*
X119210000Y-120479117D01*
X119143325Y-120143919D01*
X119012537Y-119828169D01*
X118822663Y-119544002D01*
X118580998Y-119302337D01*
X118296831Y-119112463D01*
X117981081Y-118981675D01*
X117645883Y-118915000D01*
X117304117Y-118915000D01*
X116968919Y-118981675D01*
X116653169Y-119112463D01*
X116369002Y-119302337D01*
X116127337Y-119544002D01*
X115937463Y-119828169D01*
X115806675Y-120143919D01*
X115740000Y-120479117D01*
X115740000Y-120820883D01*
X115806675Y-121156081D01*
X115937463Y-121471831D01*
X116093261Y-121705000D01*
X116058740Y-121705000D01*
X115771842Y-121762068D01*
X115501589Y-121874010D01*
X115258368Y-122036525D01*
X115051525Y-122243368D01*
X114889010Y-122486589D01*
X114777068Y-122756842D01*
X114720000Y-123043740D01*
X97502655Y-123043740D01*
X97622792Y-122923603D01*
X97547271Y-122681311D01*
X97720632Y-122565475D01*
X97927475Y-122358632D01*
X98089990Y-122115411D01*
X98201932Y-121845158D01*
X98259000Y-121558260D01*
X98259000Y-121265740D01*
X98201932Y-120978842D01*
X98089990Y-120708589D01*
X97927475Y-120465368D01*
X97720632Y-120258525D01*
X97546240Y-120142000D01*
X97720632Y-120025475D01*
X97927475Y-119818632D01*
X98089990Y-119575411D01*
X98201932Y-119305158D01*
X98259000Y-119018260D01*
X98259000Y-118725740D01*
X98201932Y-118438842D01*
X98089990Y-118168589D01*
X97927475Y-117925368D01*
X97720632Y-117718525D01*
X97477411Y-117556010D01*
X97207158Y-117444068D01*
X96920260Y-117387000D01*
X96627740Y-117387000D01*
X96340842Y-117444068D01*
X96176201Y-117512264D01*
X96176201Y-115977259D01*
X107225000Y-115977259D01*
X107225000Y-116402741D01*
X107308008Y-116820049D01*
X107470833Y-117213144D01*
X107707219Y-117566920D01*
X108008080Y-117867781D01*
X108361856Y-118104167D01*
X108754951Y-118266992D01*
X109172259Y-118350000D01*
X109597741Y-118350000D01*
X110015049Y-118266992D01*
X110408144Y-118104167D01*
X110655158Y-117939117D01*
X122090000Y-117939117D01*
X122090000Y-118280883D01*
X122156675Y-118616081D01*
X122287463Y-118931831D01*
X122477337Y-119215998D01*
X122719002Y-119457663D01*
X123003169Y-119647537D01*
X123318919Y-119778325D01*
X123654117Y-119845000D01*
X123995883Y-119845000D01*
X124331081Y-119778325D01*
X124646831Y-119647537D01*
X124930998Y-119457663D01*
X125172663Y-119215998D01*
X125362537Y-118931831D01*
X125493325Y-118616081D01*
X125560000Y-118280883D01*
X125560000Y-117939117D01*
X125493325Y-117603919D01*
X125362537Y-117288169D01*
X125172663Y-117004002D01*
X124930998Y-116762337D01*
X124646831Y-116572463D01*
X124331081Y-116441675D01*
X123995883Y-116375000D01*
X123654117Y-116375000D01*
X123318919Y-116441675D01*
X123003169Y-116572463D01*
X122719002Y-116762337D01*
X122477337Y-117004002D01*
X122287463Y-117288169D01*
X122156675Y-117603919D01*
X122090000Y-117939117D01*
X110655158Y-117939117D01*
X110761920Y-117867781D01*
X111062781Y-117566920D01*
X111299167Y-117213144D01*
X111461992Y-116820049D01*
X111545000Y-116402741D01*
X111545000Y-115977259D01*
X131025000Y-115977259D01*
X131025000Y-116402741D01*
X131108008Y-116820049D01*
X131270833Y-117213144D01*
X131507219Y-117566920D01*
X131808080Y-117867781D01*
X132161856Y-118104167D01*
X132554951Y-118266992D01*
X132972259Y-118350000D01*
X133397741Y-118350000D01*
X133815049Y-118266992D01*
X134208144Y-118104167D01*
X134561920Y-117867781D01*
X134862781Y-117566920D01*
X135099167Y-117213144D01*
X135261992Y-116820049D01*
X135345000Y-116402741D01*
X135345000Y-115977259D01*
X135261992Y-115559951D01*
X135099167Y-115166856D01*
X134862781Y-114813080D01*
X134561920Y-114512219D01*
X134208144Y-114275833D01*
X133815049Y-114113008D01*
X133397741Y-114030000D01*
X132972259Y-114030000D01*
X132554951Y-114113008D01*
X132161856Y-114275833D01*
X131808080Y-114512219D01*
X131507219Y-114813080D01*
X131270833Y-115166856D01*
X131108008Y-115559951D01*
X131025000Y-115977259D01*
X111545000Y-115977259D01*
X111461992Y-115559951D01*
X111299167Y-115166856D01*
X111062781Y-114813080D01*
X110761920Y-114512219D01*
X110408144Y-114275833D01*
X110015049Y-114113008D01*
X109597741Y-114030000D01*
X109172259Y-114030000D01*
X108754951Y-114113008D01*
X108361856Y-114275833D01*
X108008080Y-114512219D01*
X107707219Y-114813080D01*
X107470833Y-115166856D01*
X107308008Y-115559951D01*
X107225000Y-115977259D01*
X96176201Y-115977259D01*
X96176201Y-101015463D01*
X96180009Y-100976800D01*
X96176201Y-100938137D01*
X96176201Y-100938128D01*
X96164807Y-100822444D01*
X96119783Y-100674018D01*
X96046667Y-100537229D01*
X96025023Y-100510856D01*
X95972922Y-100447370D01*
X95972920Y-100447368D01*
X95948270Y-100417332D01*
X95918234Y-100392682D01*
X93548128Y-98022577D01*
X93523469Y-97992531D01*
X93403572Y-97894134D01*
X93266783Y-97821018D01*
X93154742Y-97787031D01*
X93115774Y-97748063D01*
X92946256Y-97634795D01*
X92757898Y-97556774D01*
X92557939Y-97517000D01*
X92354061Y-97517000D01*
X92154102Y-97556774D01*
X91965744Y-97634795D01*
X91796226Y-97748063D01*
X91652063Y-97892226D01*
X91538795Y-98061744D01*
X91460774Y-98250102D01*
X91421000Y-98450061D01*
X91421000Y-98653939D01*
X91460774Y-98853898D01*
X91538795Y-99042256D01*
X91652063Y-99211774D01*
X91796226Y-99355937D01*
X91965744Y-99469205D01*
X92154102Y-99547226D01*
X92354061Y-99587000D01*
X92557939Y-99587000D01*
X92757898Y-99547226D01*
X92819966Y-99521516D01*
X94601402Y-101302954D01*
X94601401Y-117430988D01*
X94380260Y-117387000D01*
X94171401Y-117387000D01*
X94171401Y-103328663D01*
X94175209Y-103290000D01*
X94171401Y-103251337D01*
X94171401Y-103251328D01*
X94160007Y-103135644D01*
X94114983Y-102987218D01*
X94041867Y-102850429D01*
X93977673Y-102772208D01*
X93968122Y-102760570D01*
X93968120Y-102760568D01*
X93943470Y-102730532D01*
X93913434Y-102705882D01*
X91713000Y-100505450D01*
X91713000Y-100482061D01*
X91673226Y-100282102D01*
X91595205Y-100093744D01*
X91481937Y-99924226D01*
X91337774Y-99780063D01*
X91168256Y-99666795D01*
X90979898Y-99588774D01*
X90779939Y-99549000D01*
X90576061Y-99549000D01*
X90376102Y-99588774D01*
X90187744Y-99666795D01*
X90018226Y-99780063D01*
X89874063Y-99924226D01*
X89760795Y-100093744D01*
X89682774Y-100282102D01*
X89643000Y-100482061D01*
X89643000Y-100685939D01*
X89682774Y-100885898D01*
X89760795Y-101074256D01*
X89874063Y-101243774D01*
X90018226Y-101387937D01*
X90187744Y-101501205D01*
X90376102Y-101579226D01*
X90576061Y-101619000D01*
X90599450Y-101619000D01*
X92596602Y-103616154D01*
X92596601Y-117983338D01*
X92592793Y-118022001D01*
X92596601Y-118060664D01*
X92596601Y-118060673D01*
X92607995Y-118176357D01*
X92653019Y-118324783D01*
X92726135Y-118461572D01*
X92786834Y-118535535D01*
X92749000Y-118725740D01*
X92749000Y-118813449D01*
X90703400Y-116767850D01*
X90703400Y-103546311D01*
X90719937Y-103529774D01*
X90833205Y-103360256D01*
X90911226Y-103171898D01*
X90951000Y-102971939D01*
X90951000Y-102768061D01*
X90911226Y-102568102D01*
X90833205Y-102379744D01*
X90719937Y-102210226D01*
X90575774Y-102066063D01*
X90406256Y-101952795D01*
X90217898Y-101874774D01*
X90017939Y-101835000D01*
X89814061Y-101835000D01*
X89614102Y-101874774D01*
X89425744Y-101952795D01*
X89256226Y-102066063D01*
X89112063Y-102210226D01*
X88998795Y-102379744D01*
X88925000Y-102557900D01*
X88925000Y-82073825D01*
X88950137Y-82165460D01*
X89197116Y-82281360D01*
X89461960Y-82346850D01*
X89734492Y-82359412D01*
X90004238Y-82318565D01*
X90260832Y-82225877D01*
X90373863Y-82165460D01*
X90439388Y-81926593D01*
X89662000Y-81149205D01*
X89647858Y-81163348D01*
X89468253Y-80983743D01*
X89482395Y-80969600D01*
X89841605Y-80969600D01*
X90618993Y-81746988D01*
X90857860Y-81681463D01*
X90973760Y-81434484D01*
X91039250Y-81169640D01*
X91051812Y-80897108D01*
X91032274Y-80768081D01*
X91743524Y-80768081D01*
X91782031Y-80984325D01*
X91991060Y-81077981D01*
X92214345Y-81129058D01*
X92443303Y-81135593D01*
X92669137Y-81097335D01*
X92883167Y-81015754D01*
X92941969Y-80984325D01*
X92980476Y-80768081D01*
X92362000Y-80149605D01*
X91743524Y-80768081D01*
X91032274Y-80768081D01*
X91010965Y-80627362D01*
X90918277Y-80370768D01*
X90857860Y-80257737D01*
X90618993Y-80192212D01*
X89841605Y-80969600D01*
X89482395Y-80969600D01*
X89468253Y-80955458D01*
X89647858Y-80775853D01*
X89662000Y-80789995D01*
X90400692Y-80051303D01*
X91196407Y-80051303D01*
X91234665Y-80277137D01*
X91316246Y-80491167D01*
X91347675Y-80549969D01*
X91563919Y-80588476D01*
X92182395Y-79970000D01*
X92541605Y-79970000D01*
X93160081Y-80588476D01*
X93376325Y-80549969D01*
X93469981Y-80340940D01*
X93521058Y-80117655D01*
X93527593Y-79888697D01*
X93489335Y-79662863D01*
X93407754Y-79448833D01*
X93376325Y-79390031D01*
X93160081Y-79351524D01*
X92541605Y-79970000D01*
X92182395Y-79970000D01*
X91563919Y-79351524D01*
X91347675Y-79390031D01*
X91254019Y-79599060D01*
X91202942Y-79822345D01*
X91196407Y-80051303D01*
X90400692Y-80051303D01*
X90439388Y-80012607D01*
X90373863Y-79773740D01*
X90126884Y-79657840D01*
X89862040Y-79592350D01*
X89589508Y-79579788D01*
X89319762Y-79620635D01*
X89063168Y-79713323D01*
X88950137Y-79773740D01*
X88925000Y-79865375D01*
X88925000Y-79171919D01*
X91743524Y-79171919D01*
X92362000Y-79790395D01*
X92980476Y-79171919D01*
X92941969Y-78955675D01*
X92732940Y-78862019D01*
X92509655Y-78810942D01*
X92280697Y-78804407D01*
X92054863Y-78842665D01*
X91840833Y-78924246D01*
X91782031Y-78955675D01*
X91743524Y-79171919D01*
X88925000Y-79171919D01*
X88925000Y-75768081D01*
X91743524Y-75768081D01*
X91782031Y-75984325D01*
X91991060Y-76077981D01*
X92214345Y-76129058D01*
X92443303Y-76135593D01*
X92669137Y-76097335D01*
X92883167Y-76015754D01*
X92941969Y-75984325D01*
X92980476Y-75768081D01*
X92362000Y-75149605D01*
X91743524Y-75768081D01*
X88925000Y-75768081D01*
X88925000Y-75074625D01*
X88950137Y-75166260D01*
X89197116Y-75282160D01*
X89461960Y-75347650D01*
X89734492Y-75360212D01*
X90004238Y-75319365D01*
X90260832Y-75226677D01*
X90373863Y-75166260D01*
X90405397Y-75051303D01*
X91196407Y-75051303D01*
X91234665Y-75277137D01*
X91316246Y-75491167D01*
X91347675Y-75549969D01*
X91563919Y-75588476D01*
X92182395Y-74970000D01*
X92541605Y-74970000D01*
X93160081Y-75588476D01*
X93376325Y-75549969D01*
X93469981Y-75340940D01*
X93521058Y-75117655D01*
X93527593Y-74888697D01*
X93489335Y-74662863D01*
X93407754Y-74448833D01*
X93376325Y-74390031D01*
X93160081Y-74351524D01*
X92541605Y-74970000D01*
X92182395Y-74970000D01*
X91563919Y-74351524D01*
X91347675Y-74390031D01*
X91254019Y-74599060D01*
X91202942Y-74822345D01*
X91196407Y-75051303D01*
X90405397Y-75051303D01*
X90439388Y-74927393D01*
X89662000Y-74150005D01*
X89647858Y-74164148D01*
X89468253Y-73984543D01*
X89482395Y-73970400D01*
X89841605Y-73970400D01*
X90618993Y-74747788D01*
X90857860Y-74682263D01*
X90973760Y-74435284D01*
X91038884Y-74171919D01*
X91743524Y-74171919D01*
X92362000Y-74790395D01*
X92980476Y-74171919D01*
X92941969Y-73955675D01*
X92732940Y-73862019D01*
X92509655Y-73810942D01*
X92280697Y-73804407D01*
X92054863Y-73842665D01*
X91840833Y-73924246D01*
X91782031Y-73955675D01*
X91743524Y-74171919D01*
X91038884Y-74171919D01*
X91039250Y-74170440D01*
X91051812Y-73897908D01*
X91010965Y-73628162D01*
X90918277Y-73371568D01*
X90857860Y-73258537D01*
X90618993Y-73193012D01*
X89841605Y-73970400D01*
X89482395Y-73970400D01*
X89468253Y-73956258D01*
X89647858Y-73776653D01*
X89662000Y-73790795D01*
X90439388Y-73013407D01*
X90373863Y-72774540D01*
X90126884Y-72658640D01*
X89862040Y-72593150D01*
X89589508Y-72580588D01*
X89319762Y-72621435D01*
X89063168Y-72714123D01*
X88950137Y-72774540D01*
X88925000Y-72866175D01*
X88925000Y-67940550D01*
X93643869Y-72659420D01*
X93557063Y-72746226D01*
X93443795Y-72915744D01*
X93365774Y-73104102D01*
X93326000Y-73304061D01*
X93326000Y-73507939D01*
X93365774Y-73707898D01*
X93443795Y-73896256D01*
X93557063Y-74065774D01*
X93573601Y-74082312D01*
X93573600Y-95846337D01*
X93569792Y-95885000D01*
X93573600Y-95923663D01*
X93573600Y-95923672D01*
X93584994Y-96039356D01*
X93630018Y-96187782D01*
X93703134Y-96324571D01*
X93801531Y-96444469D01*
X93831578Y-96469128D01*
X95993000Y-98630552D01*
X95993000Y-98653939D01*
X96032774Y-98853898D01*
X96110795Y-99042256D01*
X96224063Y-99211774D01*
X96368226Y-99355937D01*
X96537744Y-99469205D01*
X96726102Y-99547226D01*
X96926061Y-99587000D01*
X97129939Y-99587000D01*
X97329898Y-99547226D01*
X97518256Y-99469205D01*
X97687774Y-99355937D01*
X97831937Y-99211774D01*
X97945205Y-99042256D01*
X97979132Y-98960349D01*
X98066738Y-98960349D01*
X98266697Y-98920575D01*
X98455055Y-98842554D01*
X98624573Y-98729286D01*
X98768736Y-98585123D01*
X98882004Y-98415605D01*
X98960025Y-98227247D01*
X98999799Y-98027288D01*
X98999799Y-97823410D01*
X98960025Y-97623451D01*
X98882004Y-97435093D01*
X98769085Y-97266097D01*
X98916071Y-97167884D01*
X99060234Y-97023721D01*
X99173502Y-96854203D01*
X99251523Y-96665845D01*
X99291297Y-96465886D01*
X99291297Y-96262008D01*
X99251523Y-96062049D01*
X99173502Y-95873691D01*
X99060234Y-95704173D01*
X99043697Y-95687636D01*
X99043697Y-77880510D01*
X99075602Y-77893726D01*
X99275561Y-77933500D01*
X99479439Y-77933500D01*
X99679398Y-77893726D01*
X99867756Y-77815705D01*
X100037274Y-77702437D01*
X100053811Y-77685900D01*
X102069337Y-77685900D01*
X102108000Y-77689708D01*
X102146663Y-77685900D01*
X102146673Y-77685900D01*
X102262357Y-77674506D01*
X102410783Y-77629482D01*
X102547572Y-77556366D01*
X102552283Y-77552500D01*
X102590939Y-77552500D01*
X102790898Y-77512726D01*
X102979256Y-77434705D01*
X103098601Y-77354962D01*
X103098600Y-97624337D01*
X103094792Y-97663000D01*
X103098600Y-97701663D01*
X103098600Y-97701672D01*
X103109994Y-97817356D01*
X103155018Y-97965782D01*
X103228134Y-98102571D01*
X103326531Y-98222469D01*
X103356578Y-98247128D01*
X106268683Y-101159234D01*
X106215000Y-101429117D01*
X106215000Y-101770883D01*
X106281675Y-102106081D01*
X106412463Y-102421831D01*
X106568261Y-102655000D01*
X106533740Y-102655000D01*
X106246842Y-102712068D01*
X105976589Y-102824010D01*
X105733368Y-102986525D01*
X105526525Y-103193368D01*
X105364010Y-103436589D01*
X105252068Y-103706842D01*
X105195000Y-103993740D01*
X105195000Y-104286260D01*
X105252068Y-104573158D01*
X105364010Y-104843411D01*
X105526525Y-105086632D01*
X105733368Y-105293475D01*
X105976589Y-105455990D01*
X106246842Y-105567932D01*
X106533740Y-105625000D01*
X106826260Y-105625000D01*
X107113158Y-105567932D01*
X107383411Y-105455990D01*
X107626632Y-105293475D01*
X107833475Y-105086632D01*
X107995990Y-104843411D01*
X108107932Y-104573158D01*
X108165000Y-104286260D01*
X108165000Y-103993740D01*
X108142471Y-103880475D01*
X109125000Y-103880475D01*
X109125000Y-104399525D01*
X109226261Y-104908601D01*
X109424893Y-105388141D01*
X109713262Y-105819715D01*
X110080285Y-106186738D01*
X110511859Y-106475107D01*
X110991399Y-106673739D01*
X111500475Y-106775000D01*
X112019525Y-106775000D01*
X112528601Y-106673739D01*
X113008141Y-106475107D01*
X113439715Y-106186738D01*
X113806738Y-105819715D01*
X114095107Y-105388141D01*
X114293739Y-104908601D01*
X114395000Y-104399525D01*
X114395000Y-103993740D01*
X115355000Y-103993740D01*
X115355000Y-104286260D01*
X115412068Y-104573158D01*
X115524010Y-104843411D01*
X115686525Y-105086632D01*
X115893368Y-105293475D01*
X116136589Y-105455990D01*
X116406842Y-105567932D01*
X116693740Y-105625000D01*
X116986260Y-105625000D01*
X117273158Y-105567932D01*
X117543411Y-105455990D01*
X117786632Y-105293475D01*
X117993475Y-105086632D01*
X118155990Y-104843411D01*
X118267932Y-104573158D01*
X118325000Y-104286260D01*
X118325000Y-103993740D01*
X124245000Y-103993740D01*
X124245000Y-104286260D01*
X124302068Y-104573158D01*
X124414010Y-104843411D01*
X124576525Y-105086632D01*
X124783368Y-105293475D01*
X125026589Y-105455990D01*
X125296842Y-105567932D01*
X125583740Y-105625000D01*
X125876260Y-105625000D01*
X126163158Y-105567932D01*
X126197425Y-105553738D01*
X126198961Y-105569336D01*
X126245438Y-105722549D01*
X126320912Y-105863751D01*
X126422483Y-105987517D01*
X126453500Y-106012972D01*
X140537034Y-120096507D01*
X140562484Y-120127518D01*
X140686249Y-120229089D01*
X140827451Y-120304563D01*
X140980664Y-120351040D01*
X141100078Y-120362801D01*
X141100080Y-120362801D01*
X141140000Y-120366733D01*
X141179921Y-120362801D01*
X144338137Y-120362801D01*
X144315000Y-120479117D01*
X144315000Y-120820883D01*
X144381675Y-121156081D01*
X144512463Y-121471831D01*
X144668261Y-121705000D01*
X144633740Y-121705000D01*
X144346842Y-121762068D01*
X144076589Y-121874010D01*
X143833368Y-122036525D01*
X143626525Y-122243368D01*
X143464010Y-122486589D01*
X143352068Y-122756842D01*
X143295000Y-123043740D01*
X143295000Y-123336260D01*
X143352068Y-123623158D01*
X143464010Y-123893411D01*
X143626525Y-124136632D01*
X143833368Y-124343475D01*
X144076589Y-124505990D01*
X144346842Y-124617932D01*
X144633740Y-124675000D01*
X144926260Y-124675000D01*
X145213158Y-124617932D01*
X145483411Y-124505990D01*
X145726632Y-124343475D01*
X145933475Y-124136632D01*
X146095990Y-123893411D01*
X146207932Y-123623158D01*
X146265000Y-123336260D01*
X146265000Y-123043740D01*
X146242471Y-122930475D01*
X147225000Y-122930475D01*
X147225000Y-123449525D01*
X147326261Y-123958601D01*
X147524893Y-124438141D01*
X147813262Y-124869715D01*
X148180285Y-125236738D01*
X148611859Y-125525107D01*
X149091399Y-125723739D01*
X149600475Y-125825000D01*
X150119525Y-125825000D01*
X150628601Y-125723739D01*
X151108141Y-125525107D01*
X151539715Y-125236738D01*
X151906738Y-124869715D01*
X152195107Y-124438141D01*
X152393739Y-123958601D01*
X152495000Y-123449525D01*
X152495000Y-123043740D01*
X153455000Y-123043740D01*
X153455000Y-123336260D01*
X153512068Y-123623158D01*
X153624010Y-123893411D01*
X153786525Y-124136632D01*
X153993368Y-124343475D01*
X154236589Y-124505990D01*
X154506842Y-124617932D01*
X154793740Y-124675000D01*
X155086260Y-124675000D01*
X155373158Y-124617932D01*
X155643411Y-124505990D01*
X155886632Y-124343475D01*
X156093475Y-124136632D01*
X156255990Y-123893411D01*
X156367932Y-123623158D01*
X156425000Y-123336260D01*
X156425000Y-123043740D01*
X156367932Y-122756842D01*
X156255990Y-122486589D01*
X156093475Y-122243368D01*
X155886632Y-122036525D01*
X155643411Y-121874010D01*
X155373158Y-121762068D01*
X155086260Y-121705000D01*
X154793740Y-121705000D01*
X154506842Y-121762068D01*
X154236589Y-121874010D01*
X153993368Y-122036525D01*
X153786525Y-122243368D01*
X153624010Y-122486589D01*
X153512068Y-122756842D01*
X153455000Y-123043740D01*
X152495000Y-123043740D01*
X152495000Y-122930475D01*
X152393739Y-122421399D01*
X152195107Y-121941859D01*
X151906738Y-121510285D01*
X151539715Y-121143262D01*
X151108141Y-120854893D01*
X151015187Y-120816390D01*
X165119024Y-120816390D01*
X165163675Y-120963599D01*
X165288859Y-121226420D01*
X165462912Y-121459769D01*
X165679145Y-121654678D01*
X165929248Y-121803657D01*
X166203609Y-121900981D01*
X166433500Y-121780314D01*
X166433500Y-120586500D01*
X166687500Y-120586500D01*
X166687500Y-121780314D01*
X166917391Y-121900981D01*
X167191752Y-121803657D01*
X167441855Y-121654678D01*
X167658088Y-121459769D01*
X167832141Y-121226420D01*
X167957325Y-120963599D01*
X168001976Y-120816390D01*
X167880655Y-120586500D01*
X166687500Y-120586500D01*
X166433500Y-120586500D01*
X165240345Y-120586500D01*
X165119024Y-120816390D01*
X151015187Y-120816390D01*
X150628601Y-120656261D01*
X150119525Y-120555000D01*
X149600475Y-120555000D01*
X149091399Y-120656261D01*
X148611859Y-120854893D01*
X148180285Y-121143262D01*
X147813262Y-121510285D01*
X147524893Y-121941859D01*
X147326261Y-122421399D01*
X147225000Y-122930475D01*
X146242471Y-122930475D01*
X146207932Y-122756842D01*
X146095990Y-122486589D01*
X146028110Y-122385000D01*
X146220883Y-122385000D01*
X146556081Y-122318325D01*
X146871831Y-122187537D01*
X147155998Y-121997663D01*
X147397663Y-121755998D01*
X147587537Y-121471831D01*
X147718325Y-121156081D01*
X147785000Y-120820883D01*
X147785000Y-120479117D01*
X147718325Y-120143919D01*
X147587537Y-119828169D01*
X147397663Y-119544002D01*
X147155998Y-119302337D01*
X146871831Y-119112463D01*
X146556081Y-118981675D01*
X146220883Y-118915000D01*
X145879117Y-118915000D01*
X145543919Y-118981675D01*
X145537308Y-118984413D01*
X145527518Y-118972484D01*
X145403753Y-118870913D01*
X145262551Y-118795439D01*
X145109338Y-118748962D01*
X144989924Y-118737201D01*
X144989921Y-118737201D01*
X144950001Y-118733269D01*
X144910081Y-118737201D01*
X141476674Y-118737201D01*
X127812800Y-105073328D01*
X127812800Y-103880475D01*
X128175000Y-103880475D01*
X128175000Y-104399525D01*
X128276261Y-104908601D01*
X128474893Y-105388141D01*
X128763262Y-105819715D01*
X129130285Y-106186738D01*
X129561859Y-106475107D01*
X130041399Y-106673739D01*
X130550475Y-106775000D01*
X131069525Y-106775000D01*
X131578601Y-106673739D01*
X132058141Y-106475107D01*
X132489715Y-106186738D01*
X132856738Y-105819715D01*
X133145107Y-105388141D01*
X133343739Y-104908601D01*
X133445000Y-104399525D01*
X133445000Y-103993740D01*
X134405000Y-103993740D01*
X134405000Y-104286260D01*
X134462068Y-104573158D01*
X134574010Y-104843411D01*
X134736525Y-105086632D01*
X134943368Y-105293475D01*
X135186589Y-105455990D01*
X135456842Y-105567932D01*
X135743740Y-105625000D01*
X136036260Y-105625000D01*
X136323158Y-105567932D01*
X136593411Y-105455990D01*
X136836632Y-105293475D01*
X137043475Y-105086632D01*
X137205990Y-104843411D01*
X137317932Y-104573158D01*
X137375000Y-104286260D01*
X137375000Y-103993740D01*
X137317932Y-103706842D01*
X137205990Y-103436589D01*
X137043475Y-103193368D01*
X136836632Y-102986525D01*
X136593411Y-102824010D01*
X136323158Y-102712068D01*
X136036260Y-102655000D01*
X135743740Y-102655000D01*
X135456842Y-102712068D01*
X135186589Y-102824010D01*
X134943368Y-102986525D01*
X134736525Y-103193368D01*
X134574010Y-103436589D01*
X134462068Y-103706842D01*
X134405000Y-103993740D01*
X133445000Y-103993740D01*
X133445000Y-103880475D01*
X133343739Y-103371399D01*
X133145107Y-102891859D01*
X132856738Y-102460285D01*
X132489715Y-102093262D01*
X132058141Y-101804893D01*
X131578601Y-101606261D01*
X131069525Y-101505000D01*
X130550475Y-101505000D01*
X130041399Y-101606261D01*
X129561859Y-101804893D01*
X129130285Y-102093262D01*
X128763262Y-102460285D01*
X128474893Y-102891859D01*
X128276261Y-103371399D01*
X128175000Y-103880475D01*
X127812800Y-103880475D01*
X127812800Y-103141278D01*
X127821831Y-103137537D01*
X128105998Y-102947663D01*
X128347663Y-102705998D01*
X128537537Y-102421831D01*
X128668325Y-102106081D01*
X128735000Y-101770883D01*
X128735000Y-101429117D01*
X128668325Y-101093919D01*
X128654063Y-101059487D01*
X130824433Y-98889117D01*
X131615000Y-98889117D01*
X131615000Y-99230883D01*
X131681675Y-99566081D01*
X131812463Y-99881831D01*
X132002337Y-100165998D01*
X132244002Y-100407663D01*
X132528169Y-100597537D01*
X132843919Y-100728325D01*
X133179117Y-100795000D01*
X133520883Y-100795000D01*
X133856081Y-100728325D01*
X134171831Y-100597537D01*
X134455998Y-100407663D01*
X134697663Y-100165998D01*
X134887537Y-99881831D01*
X135018325Y-99566081D01*
X135085000Y-99230883D01*
X135085000Y-98889117D01*
X135018325Y-98553919D01*
X134887537Y-98238169D01*
X134697663Y-97954002D01*
X134455998Y-97712337D01*
X134171831Y-97522463D01*
X133856081Y-97391675D01*
X133520883Y-97325000D01*
X133179117Y-97325000D01*
X132843919Y-97391675D01*
X132528169Y-97522463D01*
X132244002Y-97712337D01*
X132002337Y-97954002D01*
X131812463Y-98238169D01*
X131681675Y-98553919D01*
X131615000Y-98889117D01*
X130824433Y-98889117D01*
X137924417Y-91789134D01*
X137954457Y-91764481D01*
X138052854Y-91644584D01*
X138125970Y-91507795D01*
X138170994Y-91359369D01*
X138182388Y-91243685D01*
X138182388Y-91243676D01*
X138186196Y-91205013D01*
X138182388Y-91166350D01*
X138182388Y-47234517D01*
X138217941Y-47198964D01*
X138331209Y-47029446D01*
X138409230Y-46841088D01*
X138449004Y-46641129D01*
X138449004Y-46437251D01*
X138409230Y-46237292D01*
X138331209Y-46048934D01*
X138217941Y-45879416D01*
X138182388Y-45843863D01*
X138182388Y-43906162D01*
X139518152Y-42570400D01*
X141481399Y-42570400D01*
X141545201Y-42665886D01*
X141738114Y-42858799D01*
X141964957Y-43010371D01*
X142217011Y-43114775D01*
X142484589Y-43168000D01*
X142757411Y-43168000D01*
X143024989Y-43114775D01*
X143277043Y-43010371D01*
X143503886Y-42858799D01*
X143696799Y-42665886D01*
X143848371Y-42439043D01*
X143891000Y-42336127D01*
X143933629Y-42439043D01*
X144085201Y-42665886D01*
X144278114Y-42858799D01*
X144373600Y-42922601D01*
X144373601Y-45551684D01*
X144357063Y-45568222D01*
X144243795Y-45737740D01*
X144165774Y-45926098D01*
X144126000Y-46126057D01*
X144126000Y-46329935D01*
X144165774Y-46529894D01*
X144243795Y-46718252D01*
X144357063Y-46887770D01*
X144501226Y-47031933D01*
X144670744Y-47145201D01*
X144859102Y-47223222D01*
X145059061Y-47262996D01*
X145082449Y-47262996D01*
X145643601Y-47824149D01*
X145643601Y-50643787D01*
X145564989Y-50611225D01*
X145297411Y-50558000D01*
X145024589Y-50558000D01*
X144757011Y-50611225D01*
X144504957Y-50715629D01*
X144278114Y-50867201D01*
X144085201Y-51060114D01*
X144007445Y-51176483D01*
X143996812Y-51068518D01*
X143960502Y-50948820D01*
X143901537Y-50838506D01*
X143822185Y-50741815D01*
X143725494Y-50662463D01*
X143615180Y-50603498D01*
X143495482Y-50567188D01*
X143408400Y-50558611D01*
X143408400Y-49516454D01*
X143411205Y-49512256D01*
X143489226Y-49323898D01*
X143529000Y-49123939D01*
X143529000Y-48920061D01*
X143489226Y-48720102D01*
X143411205Y-48531744D01*
X143297937Y-48362226D01*
X143153774Y-48218063D01*
X142984256Y-48104795D01*
X142795898Y-48026774D01*
X142595939Y-47987000D01*
X142392061Y-47987000D01*
X142192102Y-48026774D01*
X142003744Y-48104795D01*
X141834226Y-48218063D01*
X141690063Y-48362226D01*
X141576795Y-48531744D01*
X141498774Y-48720102D01*
X141459000Y-48920061D01*
X141459000Y-49123939D01*
X141498774Y-49323898D01*
X141576795Y-49512256D01*
X141690063Y-49681774D01*
X141833601Y-49825312D01*
X141833600Y-50558611D01*
X141746518Y-50567188D01*
X141626820Y-50603498D01*
X141516506Y-50662463D01*
X141419815Y-50741815D01*
X141340463Y-50838506D01*
X141281498Y-50948820D01*
X141245188Y-51068518D01*
X141232928Y-51193000D01*
X141232928Y-52693000D01*
X141245188Y-52817482D01*
X141281498Y-52937180D01*
X141340463Y-53047494D01*
X141419815Y-53144185D01*
X141516506Y-53223537D01*
X141626820Y-53282502D01*
X141746518Y-53318812D01*
X141871000Y-53331072D01*
X142659377Y-53331072D01*
X140567578Y-55422872D01*
X140537531Y-55447531D01*
X140439134Y-55567429D01*
X140366018Y-55704218D01*
X140320994Y-55852644D01*
X140309600Y-55968328D01*
X140309600Y-55968337D01*
X140305792Y-56007000D01*
X140309600Y-56045663D01*
X140309601Y-69046688D01*
X140293063Y-69063226D01*
X140179795Y-69232744D01*
X140106400Y-69409934D01*
X140106400Y-45126311D01*
X140122937Y-45109774D01*
X140236205Y-44940256D01*
X140314226Y-44751898D01*
X140354000Y-44551939D01*
X140354000Y-44348061D01*
X140314226Y-44148102D01*
X140236205Y-43959744D01*
X140122937Y-43790226D01*
X139978774Y-43646063D01*
X139809256Y-43532795D01*
X139620898Y-43454774D01*
X139420939Y-43415000D01*
X139217061Y-43415000D01*
X139017102Y-43454774D01*
X138828744Y-43532795D01*
X138659226Y-43646063D01*
X138515063Y-43790226D01*
X138401795Y-43959744D01*
X138323774Y-44148102D01*
X138284000Y-44348061D01*
X138284000Y-44551939D01*
X138323774Y-44751898D01*
X138401795Y-44940256D01*
X138515063Y-45109774D01*
X138531601Y-45126312D01*
X138531600Y-94830337D01*
X138527792Y-94869000D01*
X138531600Y-94907663D01*
X138531600Y-94907672D01*
X138542994Y-95023356D01*
X138588018Y-95171782D01*
X138661134Y-95308571D01*
X138759531Y-95428469D01*
X138789578Y-95453128D01*
X144395937Y-101059488D01*
X144381675Y-101093919D01*
X144315000Y-101429117D01*
X144315000Y-101770883D01*
X144381675Y-102106081D01*
X144512463Y-102421831D01*
X144668261Y-102655000D01*
X144633740Y-102655000D01*
X144346842Y-102712068D01*
X144076589Y-102824010D01*
X143833368Y-102986525D01*
X143626525Y-103193368D01*
X143464010Y-103436589D01*
X143352068Y-103706842D01*
X143295000Y-103993740D01*
X143295000Y-104286260D01*
X143352068Y-104573158D01*
X143464010Y-104843411D01*
X143626525Y-105086632D01*
X143833368Y-105293475D01*
X144076589Y-105455990D01*
X144346842Y-105567932D01*
X144633740Y-105625000D01*
X144926260Y-105625000D01*
X145213158Y-105567932D01*
X145483411Y-105455990D01*
X145643601Y-105348955D01*
X145643600Y-111670758D01*
X145496244Y-111731795D01*
X145326726Y-111845063D01*
X145182563Y-111989226D01*
X145069295Y-112158744D01*
X144991274Y-112347102D01*
X144951500Y-112547061D01*
X144951500Y-112750939D01*
X144991274Y-112950898D01*
X145069295Y-113139256D01*
X145182563Y-113308774D01*
X145326726Y-113452937D01*
X145496244Y-113566205D01*
X145684602Y-113644226D01*
X145884561Y-113684000D01*
X146088439Y-113684000D01*
X146288398Y-113644226D01*
X146476756Y-113566205D01*
X146646274Y-113452937D01*
X146790437Y-113308774D01*
X146903705Y-113139256D01*
X146981726Y-112950898D01*
X147021500Y-112750939D01*
X147021500Y-112726158D01*
X147084822Y-112649000D01*
X147088866Y-112644073D01*
X147161982Y-112507283D01*
X147165816Y-112494643D01*
X147207006Y-112358857D01*
X147218400Y-112243173D01*
X147218400Y-112243163D01*
X147222208Y-112204500D01*
X147218400Y-112165837D01*
X147218400Y-103880475D01*
X147225000Y-103880475D01*
X147225000Y-104399525D01*
X147326261Y-104908601D01*
X147524893Y-105388141D01*
X147813262Y-105819715D01*
X148180285Y-106186738D01*
X148611859Y-106475107D01*
X149091399Y-106673739D01*
X149600475Y-106775000D01*
X150119525Y-106775000D01*
X150628601Y-106673739D01*
X151108141Y-106475107D01*
X151539715Y-106186738D01*
X151906738Y-105819715D01*
X152195107Y-105388141D01*
X152393739Y-104908601D01*
X152495000Y-104399525D01*
X152495000Y-103880475D01*
X152393739Y-103371399D01*
X152195107Y-102891859D01*
X151906738Y-102460285D01*
X151539715Y-102093262D01*
X151108141Y-101804893D01*
X150628601Y-101606261D01*
X150119525Y-101505000D01*
X149600475Y-101505000D01*
X149091399Y-101606261D01*
X148611859Y-101804893D01*
X148180285Y-102093262D01*
X147813262Y-102460285D01*
X147524893Y-102891859D01*
X147326261Y-103371399D01*
X147225000Y-103880475D01*
X147218400Y-103880475D01*
X147218400Y-102885261D01*
X147397663Y-102705998D01*
X147587537Y-102421831D01*
X147718325Y-102106081D01*
X147785000Y-101770883D01*
X147785000Y-101429117D01*
X147718325Y-101093919D01*
X147587537Y-100778169D01*
X147397663Y-100494002D01*
X147155998Y-100252337D01*
X146871831Y-100062463D01*
X146556081Y-99931675D01*
X146220883Y-99865000D01*
X145879117Y-99865000D01*
X145543919Y-99931675D01*
X145509488Y-99945937D01*
X144452668Y-98889117D01*
X150665000Y-98889117D01*
X150665000Y-99230883D01*
X150731675Y-99566081D01*
X150862463Y-99881831D01*
X151052337Y-100165998D01*
X151294002Y-100407663D01*
X151578169Y-100597537D01*
X151893919Y-100728325D01*
X152229117Y-100795000D01*
X152570883Y-100795000D01*
X152906081Y-100728325D01*
X153221831Y-100597537D01*
X153505998Y-100407663D01*
X153747663Y-100165998D01*
X153937537Y-99881831D01*
X154068325Y-99566081D01*
X154135000Y-99230883D01*
X154135000Y-98889117D01*
X154068325Y-98553919D01*
X153937537Y-98238169D01*
X153747663Y-97954002D01*
X153505998Y-97712337D01*
X153221831Y-97522463D01*
X152906081Y-97391675D01*
X152570883Y-97325000D01*
X152229117Y-97325000D01*
X151893919Y-97391675D01*
X151578169Y-97522463D01*
X151294002Y-97712337D01*
X151052337Y-97954002D01*
X150862463Y-98238169D01*
X150731675Y-98553919D01*
X150665000Y-98889117D01*
X144452668Y-98889117D01*
X140106400Y-94542850D01*
X140106400Y-70036066D01*
X140179795Y-70213256D01*
X140293063Y-70382774D01*
X140437226Y-70526937D01*
X140606744Y-70640205D01*
X140795102Y-70718226D01*
X140995061Y-70758000D01*
X141198939Y-70758000D01*
X141398898Y-70718226D01*
X141587256Y-70640205D01*
X141756774Y-70526937D01*
X141900937Y-70382774D01*
X142014205Y-70213256D01*
X142092226Y-70024898D01*
X142132000Y-69824939D01*
X142132000Y-69621061D01*
X142092226Y-69421102D01*
X142014205Y-69232744D01*
X141900937Y-69063226D01*
X141884400Y-69046689D01*
X141884400Y-56333150D01*
X144911955Y-53305596D01*
X145024589Y-53328000D01*
X145297411Y-53328000D01*
X145564989Y-53274775D01*
X145643600Y-53242213D01*
X145643600Y-53775848D01*
X142599573Y-56819877D01*
X142569532Y-56844531D01*
X142485053Y-56947469D01*
X142471135Y-56964428D01*
X142398018Y-57101218D01*
X142352995Y-57249643D01*
X142337792Y-57404000D01*
X142341601Y-57442673D01*
X142341600Y-79590337D01*
X142337792Y-79629000D01*
X142341600Y-79667663D01*
X142341600Y-79667672D01*
X142352994Y-79783356D01*
X142398018Y-79931782D01*
X142471134Y-80068571D01*
X142569531Y-80188469D01*
X142599578Y-80213128D01*
X144395937Y-82009488D01*
X144381675Y-82043919D01*
X144315000Y-82379117D01*
X144315000Y-82720883D01*
X144381675Y-83056081D01*
X144512463Y-83371831D01*
X144668261Y-83605000D01*
X144633740Y-83605000D01*
X144346842Y-83662068D01*
X144076589Y-83774010D01*
X143833368Y-83936525D01*
X143626525Y-84143368D01*
X143464010Y-84386589D01*
X143352068Y-84656842D01*
X143295000Y-84943740D01*
X143295000Y-85236260D01*
X143352068Y-85523158D01*
X143464010Y-85793411D01*
X143626525Y-86036632D01*
X143833368Y-86243475D01*
X144076589Y-86405990D01*
X144346842Y-86517932D01*
X144633740Y-86575000D01*
X144926260Y-86575000D01*
X145213158Y-86517932D01*
X145483411Y-86405990D01*
X145726632Y-86243475D01*
X145933475Y-86036632D01*
X146095990Y-85793411D01*
X146207932Y-85523158D01*
X146265000Y-85236260D01*
X146265000Y-84943740D01*
X146242471Y-84830475D01*
X147225000Y-84830475D01*
X147225000Y-85349525D01*
X147326261Y-85858601D01*
X147524893Y-86338141D01*
X147813262Y-86769715D01*
X148180285Y-87136738D01*
X148611859Y-87425107D01*
X149091399Y-87623739D01*
X149600475Y-87725000D01*
X150119525Y-87725000D01*
X150628601Y-87623739D01*
X151108141Y-87425107D01*
X151539715Y-87136738D01*
X151906738Y-86769715D01*
X152195107Y-86338141D01*
X152393739Y-85858601D01*
X152495000Y-85349525D01*
X152495000Y-84830475D01*
X152393739Y-84321399D01*
X152195107Y-83841859D01*
X151906738Y-83410285D01*
X151539715Y-83043262D01*
X151108141Y-82754893D01*
X150628601Y-82556261D01*
X150119525Y-82455000D01*
X149600475Y-82455000D01*
X149091399Y-82556261D01*
X148611859Y-82754893D01*
X148180285Y-83043262D01*
X147813262Y-83410285D01*
X147524893Y-83841859D01*
X147326261Y-84321399D01*
X147225000Y-84830475D01*
X146242471Y-84830475D01*
X146207932Y-84656842D01*
X146095990Y-84386589D01*
X146028110Y-84285000D01*
X146220883Y-84285000D01*
X146556081Y-84218325D01*
X146871831Y-84087537D01*
X147155998Y-83897663D01*
X147397663Y-83655998D01*
X147587537Y-83371831D01*
X147718325Y-83056081D01*
X147785000Y-82720883D01*
X147785000Y-82379117D01*
X147718325Y-82043919D01*
X147587537Y-81728169D01*
X147397663Y-81444002D01*
X147155998Y-81202337D01*
X146871831Y-81012463D01*
X146556081Y-80881675D01*
X146220883Y-80815000D01*
X145879117Y-80815000D01*
X145543919Y-80881675D01*
X145509488Y-80895937D01*
X144452668Y-79839117D01*
X150665000Y-79839117D01*
X150665000Y-80180883D01*
X150731675Y-80516081D01*
X150862463Y-80831831D01*
X151052337Y-81115998D01*
X151294002Y-81357663D01*
X151578169Y-81547537D01*
X151893919Y-81678325D01*
X152229117Y-81745000D01*
X152570883Y-81745000D01*
X152906081Y-81678325D01*
X153221831Y-81547537D01*
X153505998Y-81357663D01*
X153747663Y-81115998D01*
X153937537Y-80831831D01*
X154068325Y-80516081D01*
X154135000Y-80180883D01*
X154135000Y-79839117D01*
X154068325Y-79503919D01*
X153937537Y-79188169D01*
X153747663Y-78904002D01*
X153505998Y-78662337D01*
X153221831Y-78472463D01*
X152906081Y-78341675D01*
X152570883Y-78275000D01*
X152229117Y-78275000D01*
X151893919Y-78341675D01*
X151578169Y-78472463D01*
X151294002Y-78662337D01*
X151052337Y-78904002D01*
X150862463Y-79188169D01*
X150731675Y-79503919D01*
X150665000Y-79839117D01*
X144452668Y-79839117D01*
X143916400Y-79302850D01*
X143916400Y-67248955D01*
X144076589Y-67355990D01*
X144346842Y-67467932D01*
X144633740Y-67525000D01*
X144926260Y-67525000D01*
X145213158Y-67467932D01*
X145483411Y-67355990D01*
X145726632Y-67193475D01*
X145933475Y-66986632D01*
X146024601Y-66850252D01*
X146024600Y-76158689D01*
X146008063Y-76175226D01*
X145894795Y-76344744D01*
X145816774Y-76533102D01*
X145777000Y-76733061D01*
X145777000Y-76936939D01*
X145816774Y-77136898D01*
X145894795Y-77325256D01*
X146008063Y-77494774D01*
X146152226Y-77638937D01*
X146321744Y-77752205D01*
X146510102Y-77830226D01*
X146710061Y-77870000D01*
X146913939Y-77870000D01*
X147113898Y-77830226D01*
X147302256Y-77752205D01*
X147471774Y-77638937D01*
X147615937Y-77494774D01*
X147729205Y-77325256D01*
X147807226Y-77136898D01*
X147847000Y-76936939D01*
X147847000Y-76733061D01*
X147807226Y-76533102D01*
X147729205Y-76344744D01*
X147615937Y-76175226D01*
X147599400Y-76158689D01*
X147599400Y-67399648D01*
X147813262Y-67719715D01*
X148180285Y-68086738D01*
X148611859Y-68375107D01*
X149091399Y-68573739D01*
X149600475Y-68675000D01*
X150119525Y-68675000D01*
X150628601Y-68573739D01*
X151108141Y-68375107D01*
X151539715Y-68086738D01*
X151612601Y-68013852D01*
X151612601Y-73745688D01*
X151596063Y-73762226D01*
X151482795Y-73931744D01*
X151404774Y-74120102D01*
X151365000Y-74320061D01*
X151365000Y-74523939D01*
X151404774Y-74723898D01*
X151482795Y-74912256D01*
X151596063Y-75081774D01*
X151740226Y-75225937D01*
X151909744Y-75339205D01*
X152098102Y-75417226D01*
X152298061Y-75457000D01*
X152321450Y-75457000D01*
X156311600Y-79447152D01*
X156311600Y-84520844D01*
X156255990Y-84386589D01*
X156093475Y-84143368D01*
X155886632Y-83936525D01*
X155643411Y-83774010D01*
X155373158Y-83662068D01*
X155086260Y-83605000D01*
X154793740Y-83605000D01*
X154506842Y-83662068D01*
X154236589Y-83774010D01*
X153993368Y-83936525D01*
X153786525Y-84143368D01*
X153624010Y-84386589D01*
X153512068Y-84656842D01*
X153455000Y-84943740D01*
X153455000Y-85236260D01*
X153512068Y-85523158D01*
X153624010Y-85793411D01*
X153786525Y-86036632D01*
X153993368Y-86243475D01*
X154236589Y-86405990D01*
X154506842Y-86517932D01*
X154793740Y-86575000D01*
X155086260Y-86575000D01*
X155373158Y-86517932D01*
X155643411Y-86405990D01*
X155886632Y-86243475D01*
X156093475Y-86036632D01*
X156255990Y-85793411D01*
X156311600Y-85659156D01*
X156311601Y-103570846D01*
X156255990Y-103436589D01*
X156093475Y-103193368D01*
X155886632Y-102986525D01*
X155643411Y-102824010D01*
X155373158Y-102712068D01*
X155086260Y-102655000D01*
X154793740Y-102655000D01*
X154506842Y-102712068D01*
X154236589Y-102824010D01*
X153993368Y-102986525D01*
X153786525Y-103193368D01*
X153624010Y-103436589D01*
X153512068Y-103706842D01*
X153455000Y-103993740D01*
X153455000Y-104286260D01*
X153512068Y-104573158D01*
X153624010Y-104843411D01*
X153786525Y-105086632D01*
X153993368Y-105293475D01*
X154236589Y-105455990D01*
X154506842Y-105567932D01*
X154793740Y-105625000D01*
X155086260Y-105625000D01*
X155373158Y-105567932D01*
X155643411Y-105455990D01*
X155886632Y-105293475D01*
X156093475Y-105086632D01*
X156255990Y-104843411D01*
X156311601Y-104709154D01*
X156311601Y-113084847D01*
X152940513Y-116455937D01*
X152906081Y-116441675D01*
X152570883Y-116375000D01*
X152229117Y-116375000D01*
X151893919Y-116441675D01*
X151578169Y-116572463D01*
X151294002Y-116762337D01*
X151052337Y-117004002D01*
X150862463Y-117288169D01*
X150731675Y-117603919D01*
X150665000Y-117939117D01*
X150665000Y-118280883D01*
X150731675Y-118616081D01*
X150862463Y-118931831D01*
X151052337Y-119215998D01*
X151294002Y-119457663D01*
X151578169Y-119647537D01*
X151893919Y-119778325D01*
X152229117Y-119845000D01*
X152570883Y-119845000D01*
X152906081Y-119778325D01*
X153221831Y-119647537D01*
X153505998Y-119457663D01*
X153747663Y-119215998D01*
X153937537Y-118931831D01*
X154068325Y-118616081D01*
X154135000Y-118280883D01*
X154135000Y-117939117D01*
X154068325Y-117603919D01*
X154054063Y-117569487D01*
X157628433Y-113995119D01*
X157658469Y-113970469D01*
X157683119Y-113940433D01*
X157683122Y-113940430D01*
X157756866Y-113850572D01*
X157829982Y-113713783D01*
X157875006Y-113565357D01*
X157877217Y-113542911D01*
X157886400Y-113449673D01*
X157886400Y-113449665D01*
X157890208Y-113411000D01*
X157886400Y-113372335D01*
X157886400Y-109118061D01*
X161080500Y-109118061D01*
X161080500Y-109321939D01*
X161120274Y-109521898D01*
X161198295Y-109710256D01*
X161311563Y-109879774D01*
X161328100Y-109896311D01*
X161328101Y-110895827D01*
X161324292Y-110934500D01*
X161339495Y-111088857D01*
X161384518Y-111237282D01*
X161384519Y-111237283D01*
X161457635Y-111374072D01*
X161556032Y-111493969D01*
X161586073Y-111518623D01*
X165112861Y-115045413D01*
X165075500Y-115233240D01*
X165075500Y-115525760D01*
X165132568Y-115812658D01*
X165244510Y-116082911D01*
X165407025Y-116326132D01*
X165613868Y-116532975D01*
X165788260Y-116649500D01*
X165613868Y-116766025D01*
X165407025Y-116972868D01*
X165244510Y-117216089D01*
X165132568Y-117486342D01*
X165075500Y-117773240D01*
X165075500Y-118065760D01*
X165132568Y-118352658D01*
X165244510Y-118622911D01*
X165407025Y-118866132D01*
X165613868Y-119072975D01*
X165796034Y-119194695D01*
X165679145Y-119264322D01*
X165462912Y-119459231D01*
X165288859Y-119692580D01*
X165163675Y-119955401D01*
X165119024Y-120102610D01*
X165240345Y-120332500D01*
X166433500Y-120332500D01*
X166433500Y-120312500D01*
X166687500Y-120312500D01*
X166687500Y-120332500D01*
X167880655Y-120332500D01*
X168001976Y-120102610D01*
X167957325Y-119955401D01*
X167832141Y-119692580D01*
X167658088Y-119459231D01*
X167441855Y-119264322D01*
X167324966Y-119194695D01*
X167507132Y-119072975D01*
X167713975Y-118866132D01*
X167820370Y-118706900D01*
X168617327Y-118706900D01*
X168656000Y-118710709D01*
X168694673Y-118706900D01*
X168810357Y-118695506D01*
X168958783Y-118650482D01*
X169095572Y-118577366D01*
X169215469Y-118478969D01*
X169313866Y-118359072D01*
X169386982Y-118222283D01*
X169432006Y-118073857D01*
X169447209Y-117919500D01*
X169443400Y-117880827D01*
X169443400Y-92863865D01*
X169447208Y-92825200D01*
X169443400Y-92786535D01*
X169443400Y-92786527D01*
X169432006Y-92670843D01*
X169386982Y-92522417D01*
X169376574Y-92502945D01*
X169313866Y-92385627D01*
X169240122Y-92295770D01*
X169240119Y-92295767D01*
X169215469Y-92265731D01*
X169185433Y-92241081D01*
X168299427Y-91355077D01*
X168274769Y-91325031D01*
X168154872Y-91226634D01*
X168048572Y-91169815D01*
X168048572Y-91034500D01*
X168036312Y-90910018D01*
X168000002Y-90790320D01*
X167941037Y-90680006D01*
X167861685Y-90583315D01*
X167764994Y-90503963D01*
X167654680Y-90444998D01*
X167534982Y-90408688D01*
X167410500Y-90396428D01*
X165710500Y-90396428D01*
X165586018Y-90408688D01*
X165466320Y-90444998D01*
X165356006Y-90503963D01*
X165259315Y-90583315D01*
X165179963Y-90680006D01*
X165120998Y-90790320D01*
X165084688Y-90910018D01*
X165072428Y-91034500D01*
X165072428Y-92734500D01*
X165084688Y-92858982D01*
X165120998Y-92978680D01*
X165179963Y-93088994D01*
X165259315Y-93185685D01*
X165356006Y-93265037D01*
X165466320Y-93324002D01*
X165546966Y-93348466D01*
X165462912Y-93424231D01*
X165288859Y-93657580D01*
X165163675Y-93920401D01*
X165119024Y-94067610D01*
X165240345Y-94297500D01*
X166433500Y-94297500D01*
X166433500Y-94277500D01*
X166687500Y-94277500D01*
X166687500Y-94297500D01*
X166707500Y-94297500D01*
X166707500Y-94551500D01*
X166687500Y-94551500D01*
X166687500Y-94571500D01*
X166433500Y-94571500D01*
X166433500Y-94551500D01*
X165240345Y-94551500D01*
X165119024Y-94781390D01*
X165163675Y-94928599D01*
X165288859Y-95191420D01*
X165462912Y-95424769D01*
X165679145Y-95619678D01*
X165796034Y-95689305D01*
X165613868Y-95811025D01*
X165407025Y-96017868D01*
X165244510Y-96261089D01*
X165132568Y-96531342D01*
X165075500Y-96818240D01*
X165075500Y-97110760D01*
X165132568Y-97397658D01*
X165244510Y-97667911D01*
X165407025Y-97911132D01*
X165613868Y-98117975D01*
X165857089Y-98280490D01*
X166127342Y-98392432D01*
X166414240Y-98449500D01*
X166706760Y-98449500D01*
X166993658Y-98392432D01*
X167263911Y-98280490D01*
X167507132Y-98117975D01*
X167713975Y-97911132D01*
X167868601Y-97679718D01*
X167868600Y-106466742D01*
X167861685Y-106458315D01*
X167764994Y-106378963D01*
X167654680Y-106319998D01*
X167534982Y-106283688D01*
X167410500Y-106271428D01*
X165710500Y-106271428D01*
X165586018Y-106283688D01*
X165466320Y-106319998D01*
X165356006Y-106378963D01*
X165259315Y-106458315D01*
X165179963Y-106555006D01*
X165120998Y-106665320D01*
X165084688Y-106785018D01*
X165072428Y-106909500D01*
X165072428Y-108609500D01*
X165084688Y-108733982D01*
X165120998Y-108853680D01*
X165179963Y-108963994D01*
X165259315Y-109060685D01*
X165356006Y-109140037D01*
X165466320Y-109199002D01*
X165538880Y-109221013D01*
X165407025Y-109352868D01*
X165244510Y-109596089D01*
X165132568Y-109866342D01*
X165075500Y-110153240D01*
X165075500Y-110445760D01*
X165132568Y-110732658D01*
X165244510Y-111002911D01*
X165407025Y-111246132D01*
X165613868Y-111452975D01*
X165788260Y-111569500D01*
X165613868Y-111686025D01*
X165407025Y-111892868D01*
X165244510Y-112136089D01*
X165132568Y-112406342D01*
X165075500Y-112693240D01*
X165075500Y-112780949D01*
X162902900Y-110608350D01*
X162902900Y-109896311D01*
X162919437Y-109879774D01*
X163032705Y-109710256D01*
X163110726Y-109521898D01*
X163150500Y-109321939D01*
X163150500Y-109118061D01*
X163110726Y-108918102D01*
X163032705Y-108729744D01*
X162919437Y-108560226D01*
X162775274Y-108416063D01*
X162605756Y-108302795D01*
X162417398Y-108224774D01*
X162217439Y-108185000D01*
X162013561Y-108185000D01*
X161813602Y-108224774D01*
X161625244Y-108302795D01*
X161455726Y-108416063D01*
X161311563Y-108560226D01*
X161198295Y-108729744D01*
X161120274Y-108918102D01*
X161080500Y-109118061D01*
X157886400Y-109118061D01*
X157886400Y-79159665D01*
X157890208Y-79121000D01*
X157886400Y-79082335D01*
X157886400Y-79082327D01*
X157875006Y-78966643D01*
X157829982Y-78818217D01*
X157756866Y-78681428D01*
X157683122Y-78591570D01*
X157683119Y-78591567D01*
X157658469Y-78561531D01*
X157628434Y-78536882D01*
X153435000Y-74343450D01*
X153435000Y-74320061D01*
X153395226Y-74120102D01*
X153317205Y-73931744D01*
X153203937Y-73762226D01*
X153187400Y-73745689D01*
X153187400Y-62511799D01*
X153221831Y-62497537D01*
X153505998Y-62307663D01*
X153747663Y-62065998D01*
X153937537Y-61781831D01*
X154068325Y-61466081D01*
X154135000Y-61130883D01*
X154135000Y-60789117D01*
X154068325Y-60453919D01*
X153937537Y-60138169D01*
X153747663Y-59854002D01*
X153505998Y-59612337D01*
X153221831Y-59422463D01*
X152906081Y-59291675D01*
X152570883Y-59225000D01*
X152454551Y-59225000D01*
X153310434Y-58369118D01*
X153340469Y-58344469D01*
X153365119Y-58314433D01*
X153365122Y-58314430D01*
X153438866Y-58224573D01*
X153511982Y-58087783D01*
X153557006Y-57939357D01*
X153565043Y-57857752D01*
X153568400Y-57823673D01*
X153568400Y-57823665D01*
X153572208Y-57785000D01*
X153568400Y-57746335D01*
X153568400Y-53082601D01*
X153663886Y-53018799D01*
X153856799Y-52825886D01*
X154008371Y-52599043D01*
X154051000Y-52496127D01*
X154093629Y-52599043D01*
X154245201Y-52825886D01*
X154438114Y-53018799D01*
X154664957Y-53170371D01*
X154917011Y-53274775D01*
X155184589Y-53328000D01*
X155457411Y-53328000D01*
X155570044Y-53305596D01*
X155803600Y-53539152D01*
X155803601Y-64831045D01*
X155643411Y-64724010D01*
X155373158Y-64612068D01*
X155086260Y-64555000D01*
X154793740Y-64555000D01*
X154506842Y-64612068D01*
X154236589Y-64724010D01*
X153993368Y-64886525D01*
X153786525Y-65093368D01*
X153624010Y-65336589D01*
X153512068Y-65606842D01*
X153455000Y-65893740D01*
X153455000Y-66186260D01*
X153512068Y-66473158D01*
X153624010Y-66743411D01*
X153786525Y-66986632D01*
X153993368Y-67193475D01*
X154236589Y-67355990D01*
X154506842Y-67467932D01*
X154793740Y-67525000D01*
X155086260Y-67525000D01*
X155373158Y-67467932D01*
X155643411Y-67355990D01*
X155803601Y-67248955D01*
X155803601Y-70316688D01*
X155787063Y-70333226D01*
X155673795Y-70502744D01*
X155595774Y-70691102D01*
X155556000Y-70891061D01*
X155556000Y-71094939D01*
X155595774Y-71294898D01*
X155673795Y-71483256D01*
X155787063Y-71652774D01*
X155931226Y-71796937D01*
X156100744Y-71910205D01*
X156289102Y-71988226D01*
X156489061Y-72028000D01*
X156692939Y-72028000D01*
X156892898Y-71988226D01*
X157081256Y-71910205D01*
X157250774Y-71796937D01*
X157394937Y-71652774D01*
X157508205Y-71483256D01*
X157586226Y-71294898D01*
X157626000Y-71094939D01*
X157626000Y-70891061D01*
X157586226Y-70691102D01*
X157508205Y-70502744D01*
X157394937Y-70333226D01*
X157378400Y-70316689D01*
X157378400Y-53251662D01*
X157379294Y-53242584D01*
X157457011Y-53274775D01*
X157724589Y-53328000D01*
X157997411Y-53328000D01*
X158264989Y-53274775D01*
X158517043Y-53170371D01*
X158743886Y-53018799D01*
X158936799Y-52825886D01*
X159088371Y-52599043D01*
X159131000Y-52496127D01*
X159173629Y-52599043D01*
X159325201Y-52825886D01*
X159518114Y-53018799D01*
X159744957Y-53170371D01*
X159997011Y-53274775D01*
X160264589Y-53328000D01*
X160537411Y-53328000D01*
X160804989Y-53274775D01*
X161057043Y-53170371D01*
X161283886Y-53018799D01*
X161476799Y-52825886D01*
X161628371Y-52599043D01*
X161732775Y-52346989D01*
X161786000Y-52079411D01*
X161786000Y-51806589D01*
X161732775Y-51539011D01*
X161628371Y-51286957D01*
X161476799Y-51060114D01*
X161283886Y-50867201D01*
X161057043Y-50715629D01*
X160804989Y-50611225D01*
X160537411Y-50558000D01*
X160264589Y-50558000D01*
X159997011Y-50611225D01*
X159744957Y-50715629D01*
X159518114Y-50867201D01*
X159325201Y-51060114D01*
X159173629Y-51286957D01*
X159131000Y-51389873D01*
X159088371Y-51286957D01*
X158936799Y-51060114D01*
X158743886Y-50867201D01*
X158517043Y-50715629D01*
X158264989Y-50611225D01*
X157997411Y-50558000D01*
X157724589Y-50558000D01*
X157457011Y-50611225D01*
X157204957Y-50715629D01*
X156978114Y-50867201D01*
X156785201Y-51060114D01*
X156633629Y-51286957D01*
X156591000Y-51389873D01*
X156548371Y-51286957D01*
X156396799Y-51060114D01*
X156203886Y-50867201D01*
X155977043Y-50715629D01*
X155724989Y-50611225D01*
X155457411Y-50558000D01*
X155184589Y-50558000D01*
X154917011Y-50611225D01*
X154664957Y-50715629D01*
X154438114Y-50867201D01*
X154245201Y-51060114D01*
X154093629Y-51286957D01*
X154051000Y-51389873D01*
X154008371Y-51286957D01*
X153856799Y-51060114D01*
X153663886Y-50867201D01*
X153437043Y-50715629D01*
X153184989Y-50611225D01*
X152917411Y-50558000D01*
X152644589Y-50558000D01*
X152377011Y-50611225D01*
X152124957Y-50715629D01*
X151898114Y-50867201D01*
X151705201Y-51060114D01*
X151553629Y-51286957D01*
X151511000Y-51389873D01*
X151468371Y-51286957D01*
X151316799Y-51060114D01*
X151123886Y-50867201D01*
X150897043Y-50715629D01*
X150644989Y-50611225D01*
X150377411Y-50558000D01*
X150104589Y-50558000D01*
X149837011Y-50611225D01*
X149758400Y-50643787D01*
X149758400Y-46520664D01*
X149762208Y-46482001D01*
X149758400Y-46443338D01*
X149758400Y-46443329D01*
X149747006Y-46327645D01*
X149701982Y-46179219D01*
X149628866Y-46042430D01*
X149530469Y-45922533D01*
X149500428Y-45897879D01*
X148735998Y-45133450D01*
X148735998Y-45110061D01*
X148696224Y-44910102D01*
X148618203Y-44721744D01*
X148504935Y-44552226D01*
X148488400Y-44535691D01*
X148488400Y-42937033D01*
X148591535Y-42868120D01*
X148786120Y-42673535D01*
X148939005Y-42444727D01*
X148971000Y-42367485D01*
X149002995Y-42444727D01*
X149155880Y-42673535D01*
X149350465Y-42868120D01*
X149453600Y-42937033D01*
X149453601Y-43773688D01*
X149437063Y-43790226D01*
X149323795Y-43959744D01*
X149245774Y-44148102D01*
X149206000Y-44348061D01*
X149206000Y-44551939D01*
X149245774Y-44751898D01*
X149323795Y-44940256D01*
X149437063Y-45109774D01*
X149581226Y-45253937D01*
X149750744Y-45367205D01*
X149939102Y-45445226D01*
X150139061Y-45485000D01*
X150342939Y-45485000D01*
X150542898Y-45445226D01*
X150731256Y-45367205D01*
X150900774Y-45253937D01*
X151044937Y-45109774D01*
X151158205Y-44940256D01*
X151236226Y-44751898D01*
X151276000Y-44551939D01*
X151276000Y-44348061D01*
X151236226Y-44148102D01*
X151158205Y-43959744D01*
X151044937Y-43790226D01*
X151028400Y-43773689D01*
X151028400Y-42937033D01*
X151131535Y-42868120D01*
X151326120Y-42673535D01*
X151479005Y-42444727D01*
X151517494Y-42351806D01*
X151553629Y-42439043D01*
X151705201Y-42665886D01*
X151898114Y-42858799D01*
X152124957Y-43010371D01*
X152377011Y-43114775D01*
X152644589Y-43168000D01*
X152917411Y-43168000D01*
X153184989Y-43114775D01*
X153437043Y-43010371D01*
X153663886Y-42858799D01*
X153856799Y-42665886D01*
X154008371Y-42439043D01*
X154051000Y-42336127D01*
X154093629Y-42439043D01*
X154245201Y-42665886D01*
X154438114Y-42858799D01*
X154664957Y-43010371D01*
X154917011Y-43114775D01*
X155184589Y-43168000D01*
X155457411Y-43168000D01*
X155724989Y-43114775D01*
X155977043Y-43010371D01*
X156203886Y-42858799D01*
X156396799Y-42665886D01*
X156548371Y-42439043D01*
X156591000Y-42336127D01*
X156633629Y-42439043D01*
X156785201Y-42665886D01*
X156978114Y-42858799D01*
X157204957Y-43010371D01*
X157457011Y-43114775D01*
X157724589Y-43168000D01*
X157997411Y-43168000D01*
X158264989Y-43114775D01*
X158517043Y-43010371D01*
X158743886Y-42858799D01*
X158936799Y-42665886D01*
X159088371Y-42439043D01*
X159131000Y-42336127D01*
X159173629Y-42439043D01*
X159325201Y-42665886D01*
X159518114Y-42858799D01*
X159744957Y-43010371D01*
X159997011Y-43114775D01*
X160264589Y-43168000D01*
X160537411Y-43168000D01*
X160804989Y-43114775D01*
X161057043Y-43010371D01*
X161283886Y-42858799D01*
X161476799Y-42665886D01*
X161628371Y-42439043D01*
X161732775Y-42186989D01*
X161786000Y-41919411D01*
X161786000Y-41646589D01*
X161732775Y-41379011D01*
X161628371Y-41126957D01*
X161476799Y-40900114D01*
X161283886Y-40707201D01*
X161057043Y-40555629D01*
X160804989Y-40451225D01*
X160537411Y-40398000D01*
X160264589Y-40398000D01*
X159997011Y-40451225D01*
X159744957Y-40555629D01*
X159518114Y-40707201D01*
X159325201Y-40900114D01*
X159173629Y-41126957D01*
X159131000Y-41229873D01*
X159088371Y-41126957D01*
X158936799Y-40900114D01*
X158743886Y-40707201D01*
X158517043Y-40555629D01*
X158264989Y-40451225D01*
X157997411Y-40398000D01*
X157724589Y-40398000D01*
X157457011Y-40451225D01*
X157204957Y-40555629D01*
X156978114Y-40707201D01*
X156785201Y-40900114D01*
X156633629Y-41126957D01*
X156591000Y-41229873D01*
X156548371Y-41126957D01*
X156396799Y-40900114D01*
X156203886Y-40707201D01*
X155977043Y-40555629D01*
X155724989Y-40451225D01*
X155457411Y-40398000D01*
X155184589Y-40398000D01*
X154917011Y-40451225D01*
X154664957Y-40555629D01*
X154438114Y-40707201D01*
X154245201Y-40900114D01*
X154093629Y-41126957D01*
X154051000Y-41229873D01*
X154008371Y-41126957D01*
X153856799Y-40900114D01*
X153663886Y-40707201D01*
X153437043Y-40555629D01*
X153184989Y-40451225D01*
X152917411Y-40398000D01*
X152644589Y-40398000D01*
X152377011Y-40451225D01*
X152124957Y-40555629D01*
X151898114Y-40707201D01*
X151705201Y-40900114D01*
X151553629Y-41126957D01*
X151517494Y-41214194D01*
X151479005Y-41121273D01*
X151326120Y-40892465D01*
X151131535Y-40697880D01*
X150902727Y-40544995D01*
X150648490Y-40439686D01*
X150378592Y-40386000D01*
X150103408Y-40386000D01*
X149833510Y-40439686D01*
X149579273Y-40544995D01*
X149350465Y-40697880D01*
X149155880Y-40892465D01*
X149002995Y-41121273D01*
X148971000Y-41198515D01*
X148939005Y-41121273D01*
X148786120Y-40892465D01*
X148591535Y-40697880D01*
X148362727Y-40544995D01*
X148108490Y-40439686D01*
X147838592Y-40386000D01*
X147563408Y-40386000D01*
X147293510Y-40439686D01*
X147039273Y-40544995D01*
X146810465Y-40697880D01*
X146615880Y-40892465D01*
X146462995Y-41121273D01*
X146424506Y-41214194D01*
X146388371Y-41126957D01*
X146236799Y-40900114D01*
X146043886Y-40707201D01*
X145817043Y-40555629D01*
X145564989Y-40451225D01*
X145297411Y-40398000D01*
X145024589Y-40398000D01*
X144757011Y-40451225D01*
X144504957Y-40555629D01*
X144278114Y-40707201D01*
X144085201Y-40900114D01*
X143933629Y-41126957D01*
X143891000Y-41229873D01*
X143848371Y-41126957D01*
X143696799Y-40900114D01*
X143503886Y-40707201D01*
X143277043Y-40555629D01*
X143024989Y-40451225D01*
X142757411Y-40398000D01*
X142484589Y-40398000D01*
X142217011Y-40451225D01*
X141964957Y-40555629D01*
X141738114Y-40707201D01*
X141545201Y-40900114D01*
X141481399Y-40995600D01*
X139230665Y-40995600D01*
X139192000Y-40991792D01*
X139153335Y-40995600D01*
X139153327Y-40995600D01*
X139037643Y-41006994D01*
X138889217Y-41052018D01*
X138752427Y-41125134D01*
X138662570Y-41198878D01*
X138662567Y-41198881D01*
X138632531Y-41223531D01*
X138607881Y-41253567D01*
X136865561Y-42995889D01*
X136835520Y-43020543D01*
X136810867Y-43050583D01*
X136737123Y-43140440D01*
X136664006Y-43277230D01*
X136618983Y-43425655D01*
X136603780Y-43580012D01*
X136607589Y-43618685D01*
X136607589Y-45883125D01*
X136496799Y-46048934D01*
X136418778Y-46237292D01*
X136379004Y-46437251D01*
X136379004Y-46641129D01*
X136418778Y-46841088D01*
X136496799Y-47029446D01*
X136607589Y-47195255D01*
X136607589Y-64733483D01*
X136593411Y-64724010D01*
X136323158Y-64612068D01*
X136036260Y-64555000D01*
X135743740Y-64555000D01*
X135456842Y-64612068D01*
X135186589Y-64724010D01*
X134943368Y-64886525D01*
X134736525Y-65093368D01*
X134574010Y-65336589D01*
X134462068Y-65606842D01*
X134405000Y-65893740D01*
X134405000Y-66186260D01*
X134462068Y-66473158D01*
X134574010Y-66743411D01*
X134736525Y-66986632D01*
X134943368Y-67193475D01*
X135186589Y-67355990D01*
X135456842Y-67467932D01*
X135743740Y-67525000D01*
X136036260Y-67525000D01*
X136323158Y-67467932D01*
X136593411Y-67355990D01*
X136607589Y-67346517D01*
X136607588Y-83783483D01*
X136593411Y-83774010D01*
X136323158Y-83662068D01*
X136036260Y-83605000D01*
X135743740Y-83605000D01*
X135456842Y-83662068D01*
X135186589Y-83774010D01*
X134943368Y-83936525D01*
X134736525Y-84143368D01*
X134574010Y-84386589D01*
X134462068Y-84656842D01*
X134405000Y-84943740D01*
X134405000Y-85236260D01*
X134462068Y-85523158D01*
X134574010Y-85793411D01*
X134736525Y-86036632D01*
X134943368Y-86243475D01*
X135186589Y-86405990D01*
X135456842Y-86517932D01*
X135743740Y-86575000D01*
X136036260Y-86575000D01*
X136323158Y-86517932D01*
X136593411Y-86405990D01*
X136607588Y-86396517D01*
X136607588Y-90878861D01*
X127540513Y-99945937D01*
X127506081Y-99931675D01*
X127170883Y-99865000D01*
X126829117Y-99865000D01*
X126493919Y-99931675D01*
X126178169Y-100062463D01*
X125894002Y-100252337D01*
X125652337Y-100494002D01*
X125462463Y-100778169D01*
X125331675Y-101093919D01*
X125265000Y-101429117D01*
X125265000Y-101770883D01*
X125331675Y-102106081D01*
X125462463Y-102421831D01*
X125618261Y-102655000D01*
X125583740Y-102655000D01*
X125296842Y-102712068D01*
X125026589Y-102824010D01*
X124783368Y-102986525D01*
X124576525Y-103193368D01*
X124414010Y-103436589D01*
X124302068Y-103706842D01*
X124245000Y-103993740D01*
X118325000Y-103993740D01*
X118267932Y-103706842D01*
X118155990Y-103436589D01*
X117993475Y-103193368D01*
X117786632Y-102986525D01*
X117543411Y-102824010D01*
X117273158Y-102712068D01*
X116986260Y-102655000D01*
X116693740Y-102655000D01*
X116406842Y-102712068D01*
X116136589Y-102824010D01*
X115893368Y-102986525D01*
X115686525Y-103193368D01*
X115524010Y-103436589D01*
X115412068Y-103706842D01*
X115355000Y-103993740D01*
X114395000Y-103993740D01*
X114395000Y-103880475D01*
X114293739Y-103371399D01*
X114095107Y-102891859D01*
X113806738Y-102460285D01*
X113439715Y-102093262D01*
X113008141Y-101804893D01*
X112528601Y-101606261D01*
X112019525Y-101505000D01*
X111500475Y-101505000D01*
X110991399Y-101606261D01*
X110511859Y-101804893D01*
X110080285Y-102093262D01*
X109713262Y-102460285D01*
X109424893Y-102891859D01*
X109226261Y-103371399D01*
X109125000Y-103880475D01*
X108142471Y-103880475D01*
X108107932Y-103706842D01*
X107995990Y-103436589D01*
X107928110Y-103335000D01*
X108120883Y-103335000D01*
X108456081Y-103268325D01*
X108771831Y-103137537D01*
X109055998Y-102947663D01*
X109297663Y-102705998D01*
X109487537Y-102421831D01*
X109618325Y-102106081D01*
X109685000Y-101770883D01*
X109685000Y-101429117D01*
X109618325Y-101093919D01*
X109487537Y-100778169D01*
X109297663Y-100494002D01*
X109055998Y-100252337D01*
X108771831Y-100062463D01*
X108456081Y-99931675D01*
X108120883Y-99865000D01*
X107779117Y-99865000D01*
X107443919Y-99931675D01*
X107319685Y-99983134D01*
X104673400Y-97336850D01*
X104673400Y-84943740D01*
X105195000Y-84943740D01*
X105195000Y-85236260D01*
X105252068Y-85523158D01*
X105364010Y-85793411D01*
X105526525Y-86036632D01*
X105733368Y-86243475D01*
X105976589Y-86405990D01*
X106246842Y-86517932D01*
X106533740Y-86575000D01*
X106826260Y-86575000D01*
X107113158Y-86517932D01*
X107383411Y-86405990D01*
X107626632Y-86243475D01*
X107833475Y-86036632D01*
X107995990Y-85793411D01*
X108107932Y-85523158D01*
X108165000Y-85236260D01*
X108165000Y-84943740D01*
X108107932Y-84656842D01*
X107995990Y-84386589D01*
X107928110Y-84285000D01*
X108120883Y-84285000D01*
X108456081Y-84218325D01*
X108771831Y-84087537D01*
X109055998Y-83897663D01*
X109297663Y-83655998D01*
X109487537Y-83371831D01*
X109618325Y-83056081D01*
X109685000Y-82720883D01*
X109685000Y-82379117D01*
X109618325Y-82043919D01*
X109487537Y-81728169D01*
X109297663Y-81444002D01*
X109055998Y-81202337D01*
X108771831Y-81012463D01*
X108456081Y-80881675D01*
X108120883Y-80815000D01*
X107779117Y-80815000D01*
X107443919Y-80881675D01*
X107128169Y-81012463D01*
X106844002Y-81202337D01*
X106602337Y-81444002D01*
X106412463Y-81728169D01*
X106281675Y-82043919D01*
X106215000Y-82379117D01*
X106215000Y-82720883D01*
X106281675Y-83056081D01*
X106412463Y-83371831D01*
X106568261Y-83605000D01*
X106533740Y-83605000D01*
X106246842Y-83662068D01*
X105976589Y-83774010D01*
X105733368Y-83936525D01*
X105526525Y-84143368D01*
X105364010Y-84386589D01*
X105252068Y-84656842D01*
X105195000Y-84943740D01*
X104673400Y-84943740D01*
X104673400Y-65192311D01*
X104689937Y-65175774D01*
X104803205Y-65006256D01*
X104881226Y-64817898D01*
X104921000Y-64617939D01*
X104921000Y-64583434D01*
X104943865Y-64555573D01*
X105016981Y-64418784D01*
X105062005Y-64270358D01*
X105073399Y-64154674D01*
X105073399Y-64154665D01*
X105077207Y-64116002D01*
X105073399Y-64077339D01*
X105073399Y-58600151D01*
X106409424Y-57264127D01*
X106446774Y-57451898D01*
X106524795Y-57640256D01*
X106638063Y-57809774D01*
X106654600Y-57826311D01*
X106654601Y-62341738D01*
X106602337Y-62394002D01*
X106412463Y-62678169D01*
X106281675Y-62993919D01*
X106215000Y-63329117D01*
X106215000Y-63670883D01*
X106281675Y-64006081D01*
X106412463Y-64321831D01*
X106568261Y-64555000D01*
X106533740Y-64555000D01*
X106246842Y-64612068D01*
X105976589Y-64724010D01*
X105733368Y-64886525D01*
X105526525Y-65093368D01*
X105364010Y-65336589D01*
X105252068Y-65606842D01*
X105195000Y-65893740D01*
X105195000Y-66186260D01*
X105252068Y-66473158D01*
X105364010Y-66743411D01*
X105526525Y-66986632D01*
X105733368Y-67193475D01*
X105976589Y-67355990D01*
X106246842Y-67467932D01*
X106533740Y-67525000D01*
X106826260Y-67525000D01*
X107113158Y-67467932D01*
X107383411Y-67355990D01*
X107626632Y-67193475D01*
X107833475Y-66986632D01*
X107995990Y-66743411D01*
X108107932Y-66473158D01*
X108165000Y-66186260D01*
X108165000Y-65893740D01*
X108107932Y-65606842D01*
X107995990Y-65336589D01*
X107928110Y-65235000D01*
X108120883Y-65235000D01*
X108456081Y-65168325D01*
X108771831Y-65037537D01*
X109055998Y-64847663D01*
X109297663Y-64605998D01*
X109487537Y-64321831D01*
X109618325Y-64006081D01*
X109685000Y-63670883D01*
X109685000Y-63329117D01*
X109618325Y-62993919D01*
X109487537Y-62678169D01*
X109297663Y-62394002D01*
X109055998Y-62152337D01*
X108771831Y-61962463D01*
X108456081Y-61831675D01*
X108229400Y-61786585D01*
X108229400Y-58578376D01*
X108410102Y-58653226D01*
X108610061Y-58693000D01*
X108813939Y-58693000D01*
X109013898Y-58653226D01*
X109202256Y-58575205D01*
X109371774Y-58461937D01*
X109515937Y-58317774D01*
X109629205Y-58148256D01*
X109707226Y-57959898D01*
X109747000Y-57759939D01*
X109747000Y-57556061D01*
X109707226Y-57356102D01*
X109629205Y-57167744D01*
X109515937Y-56998226D01*
X109499400Y-56981689D01*
X109499400Y-53242213D01*
X109578011Y-53274775D01*
X109845589Y-53328000D01*
X110118411Y-53328000D01*
X110385989Y-53274775D01*
X110464601Y-53242213D01*
X110464601Y-58855848D01*
X109903450Y-59417000D01*
X109880061Y-59417000D01*
X109680102Y-59456774D01*
X109491744Y-59534795D01*
X109322226Y-59648063D01*
X109178063Y-59792226D01*
X109064795Y-59961744D01*
X108986774Y-60150102D01*
X108947000Y-60350061D01*
X108947000Y-60553939D01*
X108986774Y-60753898D01*
X109064795Y-60942256D01*
X109178063Y-61111774D01*
X109322226Y-61255937D01*
X109491744Y-61369205D01*
X109680102Y-61447226D01*
X109880061Y-61487000D01*
X110083939Y-61487000D01*
X110283898Y-61447226D01*
X110472256Y-61369205D01*
X110641774Y-61255937D01*
X110785937Y-61111774D01*
X110899205Y-60942256D01*
X110977226Y-60753898D01*
X111017000Y-60553939D01*
X111017000Y-60530550D01*
X111781433Y-59766119D01*
X111811469Y-59741469D01*
X111866378Y-59674563D01*
X111909865Y-59621573D01*
X111918758Y-59604937D01*
X111982982Y-59484783D01*
X112028006Y-59336357D01*
X112039400Y-59220673D01*
X112039400Y-59220664D01*
X112043208Y-59182001D01*
X112039400Y-59143338D01*
X112039400Y-53242213D01*
X112118011Y-53274775D01*
X112385589Y-53328000D01*
X112658411Y-53328000D01*
X112925989Y-53274775D01*
X113178043Y-53170371D01*
X113404886Y-53018799D01*
X113597799Y-52825886D01*
X113749371Y-52599043D01*
X113792000Y-52496127D01*
X113834629Y-52599043D01*
X113986201Y-52825886D01*
X114179114Y-53018799D01*
X114405957Y-53170371D01*
X114658011Y-53274775D01*
X114925589Y-53328000D01*
X115198411Y-53328000D01*
X115465989Y-53274775D01*
X115544601Y-53242213D01*
X115544600Y-58601849D01*
X114840512Y-59305937D01*
X114806081Y-59291675D01*
X114470883Y-59225000D01*
X114129117Y-59225000D01*
X113793919Y-59291675D01*
X113478169Y-59422463D01*
X113194002Y-59612337D01*
X112952337Y-59854002D01*
X112762463Y-60138169D01*
X112631675Y-60453919D01*
X112565000Y-60789117D01*
X112565000Y-61130883D01*
X112631675Y-61466081D01*
X112762463Y-61781831D01*
X112952337Y-62065998D01*
X113194002Y-62307663D01*
X113478169Y-62497537D01*
X113512601Y-62511799D01*
X113512601Y-64066148D01*
X113439715Y-63993262D01*
X113008141Y-63704893D01*
X112528601Y-63506261D01*
X112019525Y-63405000D01*
X111500475Y-63405000D01*
X110991399Y-63506261D01*
X110511859Y-63704893D01*
X110080285Y-63993262D01*
X109713262Y-64360285D01*
X109424893Y-64791859D01*
X109226261Y-65271399D01*
X109125000Y-65780475D01*
X109125000Y-66299525D01*
X109226261Y-66808601D01*
X109424893Y-67288141D01*
X109713262Y-67719715D01*
X110080285Y-68086738D01*
X110511859Y-68375107D01*
X110991399Y-68573739D01*
X111500475Y-68675000D01*
X112019525Y-68675000D01*
X112528601Y-68573739D01*
X113008141Y-68375107D01*
X113439715Y-68086738D01*
X113512601Y-68013852D01*
X113512600Y-78458201D01*
X113478169Y-78472463D01*
X113194002Y-78662337D01*
X112952337Y-78904002D01*
X112762463Y-79188169D01*
X112631675Y-79503919D01*
X112565000Y-79839117D01*
X112565000Y-80180883D01*
X112631675Y-80516081D01*
X112762463Y-80831831D01*
X112952337Y-81115998D01*
X113194002Y-81357663D01*
X113478169Y-81547537D01*
X113512601Y-81561799D01*
X113512601Y-83116148D01*
X113439715Y-83043262D01*
X113008141Y-82754893D01*
X112528601Y-82556261D01*
X112019525Y-82455000D01*
X111500475Y-82455000D01*
X110991399Y-82556261D01*
X110511859Y-82754893D01*
X110080285Y-83043262D01*
X109713262Y-83410285D01*
X109424893Y-83841859D01*
X109226261Y-84321399D01*
X109125000Y-84830475D01*
X109125000Y-85349525D01*
X109226261Y-85858601D01*
X109424893Y-86338141D01*
X109713262Y-86769715D01*
X110080285Y-87136738D01*
X110511859Y-87425107D01*
X110991399Y-87623739D01*
X111500475Y-87725000D01*
X112019525Y-87725000D01*
X112528601Y-87623739D01*
X113008141Y-87425107D01*
X113439715Y-87136738D01*
X113512601Y-87063852D01*
X113512600Y-97508201D01*
X113478169Y-97522463D01*
X113194002Y-97712337D01*
X112952337Y-97954002D01*
X112762463Y-98238169D01*
X112631675Y-98553919D01*
X112565000Y-98889117D01*
X112565000Y-99230883D01*
X112631675Y-99566081D01*
X112762463Y-99881831D01*
X112952337Y-100165998D01*
X113194002Y-100407663D01*
X113478169Y-100597537D01*
X113793919Y-100728325D01*
X114129117Y-100795000D01*
X114470883Y-100795000D01*
X114806081Y-100728325D01*
X115121831Y-100597537D01*
X115405998Y-100407663D01*
X115647663Y-100165998D01*
X115837537Y-99881831D01*
X115968325Y-99566081D01*
X116035000Y-99230883D01*
X116035000Y-98889117D01*
X115968325Y-98553919D01*
X115837537Y-98238169D01*
X115647663Y-97954002D01*
X115405998Y-97712337D01*
X115121831Y-97522463D01*
X115087400Y-97508201D01*
X115087400Y-84943740D01*
X115355000Y-84943740D01*
X115355000Y-85236260D01*
X115412068Y-85523158D01*
X115524010Y-85793411D01*
X115686525Y-86036632D01*
X115893368Y-86243475D01*
X116136589Y-86405990D01*
X116406842Y-86517932D01*
X116693740Y-86575000D01*
X116986260Y-86575000D01*
X117273158Y-86517932D01*
X117543411Y-86405990D01*
X117786632Y-86243475D01*
X117993475Y-86036632D01*
X118155990Y-85793411D01*
X118267932Y-85523158D01*
X118325000Y-85236260D01*
X118325000Y-84943740D01*
X118267932Y-84656842D01*
X118155990Y-84386589D01*
X117993475Y-84143368D01*
X117786632Y-83936525D01*
X117543411Y-83774010D01*
X117273158Y-83662068D01*
X116986260Y-83605000D01*
X116693740Y-83605000D01*
X116406842Y-83662068D01*
X116136589Y-83774010D01*
X115893368Y-83936525D01*
X115686525Y-84143368D01*
X115524010Y-84386589D01*
X115412068Y-84656842D01*
X115355000Y-84943740D01*
X115087400Y-84943740D01*
X115087400Y-81561799D01*
X115121831Y-81547537D01*
X115405998Y-81357663D01*
X115647663Y-81115998D01*
X115837537Y-80831831D01*
X115968325Y-80516081D01*
X116035000Y-80180883D01*
X116035000Y-79839117D01*
X115968325Y-79503919D01*
X115837537Y-79188169D01*
X115647663Y-78904002D01*
X115405998Y-78662337D01*
X115121831Y-78472463D01*
X115087400Y-78458201D01*
X115087400Y-65893740D01*
X115355000Y-65893740D01*
X115355000Y-66186260D01*
X115412068Y-66473158D01*
X115524010Y-66743411D01*
X115686525Y-66986632D01*
X115893368Y-67193475D01*
X116136589Y-67355990D01*
X116406842Y-67467932D01*
X116693740Y-67525000D01*
X116986260Y-67525000D01*
X117273158Y-67467932D01*
X117543411Y-67355990D01*
X117786632Y-67193475D01*
X117993475Y-66986632D01*
X118155990Y-66743411D01*
X118267932Y-66473158D01*
X118325000Y-66186260D01*
X118325000Y-65893740D01*
X118267932Y-65606842D01*
X118155990Y-65336589D01*
X117993475Y-65093368D01*
X117786632Y-64886525D01*
X117543411Y-64724010D01*
X117273158Y-64612068D01*
X116986260Y-64555000D01*
X116693740Y-64555000D01*
X116406842Y-64612068D01*
X116136589Y-64724010D01*
X115893368Y-64886525D01*
X115686525Y-65093368D01*
X115524010Y-65336589D01*
X115412068Y-65606842D01*
X115355000Y-65893740D01*
X115087400Y-65893740D01*
X115087400Y-62511799D01*
X115121831Y-62497537D01*
X115405998Y-62307663D01*
X115647663Y-62065998D01*
X115837537Y-61781831D01*
X115968325Y-61466081D01*
X116035000Y-61130883D01*
X116035000Y-60789117D01*
X115968325Y-60453919D01*
X115954063Y-60419488D01*
X116861429Y-59512122D01*
X116891469Y-59487469D01*
X116948262Y-59418267D01*
X116989866Y-59367573D01*
X117062982Y-59230783D01*
X117066080Y-59220570D01*
X117108006Y-59082357D01*
X117119400Y-58966673D01*
X117119400Y-58966663D01*
X117123208Y-58928000D01*
X117119400Y-58889337D01*
X117119400Y-53242213D01*
X117198011Y-53274775D01*
X117465589Y-53328000D01*
X117738411Y-53328000D01*
X117851045Y-53305595D01*
X126212600Y-61667151D01*
X126212600Y-61948201D01*
X126178169Y-61962463D01*
X125894002Y-62152337D01*
X125652337Y-62394002D01*
X125462463Y-62678169D01*
X125331675Y-62993919D01*
X125265000Y-63329117D01*
X125265000Y-63670883D01*
X125331675Y-64006081D01*
X125462463Y-64321831D01*
X125618261Y-64555000D01*
X125583740Y-64555000D01*
X125296842Y-64612068D01*
X125026589Y-64724010D01*
X124783368Y-64886525D01*
X124576525Y-65093368D01*
X124414010Y-65336589D01*
X124302068Y-65606842D01*
X124245000Y-65893740D01*
X124245000Y-66186260D01*
X124302068Y-66473158D01*
X124414010Y-66743411D01*
X124576525Y-66986632D01*
X124783368Y-67193475D01*
X125026589Y-67355990D01*
X125296842Y-67467932D01*
X125583740Y-67525000D01*
X125876260Y-67525000D01*
X126163158Y-67467932D01*
X126433411Y-67355990D01*
X126676632Y-67193475D01*
X126883475Y-66986632D01*
X127045990Y-66743411D01*
X127101600Y-66609155D01*
X127101600Y-66856849D01*
X126470573Y-67487877D01*
X126440532Y-67512531D01*
X126415879Y-67542571D01*
X126342135Y-67632428D01*
X126269018Y-67769218D01*
X126223995Y-67917643D01*
X126208792Y-68072000D01*
X126212601Y-68110673D01*
X126212600Y-80998201D01*
X126178169Y-81012463D01*
X125894002Y-81202337D01*
X125652337Y-81444002D01*
X125462463Y-81728169D01*
X125331675Y-82043919D01*
X125265000Y-82379117D01*
X125265000Y-82720883D01*
X125331675Y-83056081D01*
X125462463Y-83371831D01*
X125618261Y-83605000D01*
X125583740Y-83605000D01*
X125296842Y-83662068D01*
X125026589Y-83774010D01*
X124783368Y-83936525D01*
X124576525Y-84143368D01*
X124414010Y-84386589D01*
X124302068Y-84656842D01*
X124245000Y-84943740D01*
X124245000Y-85236260D01*
X124302068Y-85523158D01*
X124414010Y-85793411D01*
X124576525Y-86036632D01*
X124783368Y-86243475D01*
X125026589Y-86405990D01*
X125296842Y-86517932D01*
X125583740Y-86575000D01*
X125876260Y-86575000D01*
X126163158Y-86517932D01*
X126433411Y-86405990D01*
X126676632Y-86243475D01*
X126883475Y-86036632D01*
X127045990Y-85793411D01*
X127157932Y-85523158D01*
X127215000Y-85236260D01*
X127215000Y-84943740D01*
X127192471Y-84830475D01*
X128175000Y-84830475D01*
X128175000Y-85349525D01*
X128276261Y-85858601D01*
X128474893Y-86338141D01*
X128763262Y-86769715D01*
X129130285Y-87136738D01*
X129561859Y-87425107D01*
X130041399Y-87623739D01*
X130550475Y-87725000D01*
X131069525Y-87725000D01*
X131578601Y-87623739D01*
X132058141Y-87425107D01*
X132489715Y-87136738D01*
X132856738Y-86769715D01*
X133145107Y-86338141D01*
X133343739Y-85858601D01*
X133445000Y-85349525D01*
X133445000Y-84830475D01*
X133343739Y-84321399D01*
X133145107Y-83841859D01*
X132856738Y-83410285D01*
X132489715Y-83043262D01*
X132058141Y-82754893D01*
X131578601Y-82556261D01*
X131069525Y-82455000D01*
X130550475Y-82455000D01*
X130041399Y-82556261D01*
X129561859Y-82754893D01*
X129130285Y-83043262D01*
X128763262Y-83410285D01*
X128474893Y-83841859D01*
X128276261Y-84321399D01*
X128175000Y-84830475D01*
X127192471Y-84830475D01*
X127157932Y-84656842D01*
X127045990Y-84386589D01*
X126978110Y-84285000D01*
X127170883Y-84285000D01*
X127506081Y-84218325D01*
X127821831Y-84087537D01*
X128105998Y-83897663D01*
X128347663Y-83655998D01*
X128537537Y-83371831D01*
X128668325Y-83056081D01*
X128735000Y-82720883D01*
X128735000Y-82379117D01*
X128668325Y-82043919D01*
X128537537Y-81728169D01*
X128347663Y-81444002D01*
X128105998Y-81202337D01*
X127821831Y-81012463D01*
X127787400Y-80998201D01*
X127787400Y-79839117D01*
X131615000Y-79839117D01*
X131615000Y-80180883D01*
X131681675Y-80516081D01*
X131812463Y-80831831D01*
X132002337Y-81115998D01*
X132244002Y-81357663D01*
X132528169Y-81547537D01*
X132843919Y-81678325D01*
X133179117Y-81745000D01*
X133520883Y-81745000D01*
X133856081Y-81678325D01*
X134171831Y-81547537D01*
X134455998Y-81357663D01*
X134697663Y-81115998D01*
X134887537Y-80831831D01*
X135018325Y-80516081D01*
X135085000Y-80180883D01*
X135085000Y-79839117D01*
X135018325Y-79503919D01*
X134887537Y-79188169D01*
X134697663Y-78904002D01*
X134455998Y-78662337D01*
X134171831Y-78472463D01*
X133856081Y-78341675D01*
X133520883Y-78275000D01*
X133179117Y-78275000D01*
X132843919Y-78341675D01*
X132528169Y-78472463D01*
X132244002Y-78662337D01*
X132002337Y-78904002D01*
X131812463Y-79188169D01*
X131681675Y-79503919D01*
X131615000Y-79839117D01*
X127787400Y-79839117D01*
X127787400Y-68398150D01*
X128418429Y-67767122D01*
X128448469Y-67742469D01*
X128496835Y-67683535D01*
X128546866Y-67622573D01*
X128614192Y-67496616D01*
X128763262Y-67719715D01*
X129130285Y-68086738D01*
X129561859Y-68375107D01*
X130041399Y-68573739D01*
X130550475Y-68675000D01*
X131069525Y-68675000D01*
X131578601Y-68573739D01*
X132058141Y-68375107D01*
X132489715Y-68086738D01*
X132856738Y-67719715D01*
X133145107Y-67288141D01*
X133343739Y-66808601D01*
X133445000Y-66299525D01*
X133445000Y-65780475D01*
X133343739Y-65271399D01*
X133145107Y-64791859D01*
X132856738Y-64360285D01*
X132489715Y-63993262D01*
X132058141Y-63704893D01*
X131578601Y-63506261D01*
X131069525Y-63405000D01*
X130550475Y-63405000D01*
X130528763Y-63409319D01*
X130532843Y-63395868D01*
X130570006Y-63273357D01*
X130581400Y-63157673D01*
X130581400Y-63157663D01*
X130585208Y-63119000D01*
X130581400Y-63080337D01*
X130581400Y-60789117D01*
X131615000Y-60789117D01*
X131615000Y-61130883D01*
X131681675Y-61466081D01*
X131812463Y-61781831D01*
X132002337Y-62065998D01*
X132244002Y-62307663D01*
X132528169Y-62497537D01*
X132843919Y-62628325D01*
X133179117Y-62695000D01*
X133520883Y-62695000D01*
X133856081Y-62628325D01*
X134171831Y-62497537D01*
X134455998Y-62307663D01*
X134697663Y-62065998D01*
X134887537Y-61781831D01*
X135018325Y-61466081D01*
X135085000Y-61130883D01*
X135085000Y-60789117D01*
X135018325Y-60453919D01*
X134887537Y-60138169D01*
X134697663Y-59854002D01*
X134455998Y-59612337D01*
X134171831Y-59422463D01*
X133856081Y-59291675D01*
X133520883Y-59225000D01*
X133179117Y-59225000D01*
X132843919Y-59291675D01*
X132528169Y-59422463D01*
X132244002Y-59612337D01*
X132002337Y-59854002D01*
X131812463Y-60138169D01*
X131681675Y-60453919D01*
X131615000Y-60789117D01*
X130581400Y-60789117D01*
X130581400Y-56553662D01*
X130585208Y-56514999D01*
X130581400Y-56476336D01*
X130581400Y-56476327D01*
X130570006Y-56360643D01*
X130524982Y-56212217D01*
X130451866Y-56075428D01*
X130353469Y-55955531D01*
X130323433Y-55930881D01*
X117560550Y-43168000D01*
X117738411Y-43168000D01*
X118005989Y-43114775D01*
X118258043Y-43010371D01*
X118484886Y-42858799D01*
X118677799Y-42665886D01*
X118829371Y-42439043D01*
X118872000Y-42336127D01*
X118914629Y-42439043D01*
X119066201Y-42665886D01*
X119259114Y-42858799D01*
X119485957Y-43010371D01*
X119738011Y-43114775D01*
X120005589Y-43168000D01*
X120278411Y-43168000D01*
X120545989Y-43114775D01*
X120798043Y-43010371D01*
X121024886Y-42858799D01*
X121217799Y-42665886D01*
X121369371Y-42439043D01*
X121473775Y-42186989D01*
X121527000Y-41919411D01*
X121527000Y-41646589D01*
X121473775Y-41379011D01*
X121369371Y-41126957D01*
X121217799Y-40900114D01*
X121024886Y-40707201D01*
X120798043Y-40555629D01*
X120545989Y-40451225D01*
X120278411Y-40398000D01*
X120005589Y-40398000D01*
X119738011Y-40451225D01*
X119485957Y-40555629D01*
X119259114Y-40707201D01*
X119066201Y-40900114D01*
X118914629Y-41126957D01*
X118872000Y-41229873D01*
X118829371Y-41126957D01*
X118677799Y-40900114D01*
X118484886Y-40707201D01*
X118258043Y-40555629D01*
X118005989Y-40451225D01*
X117738411Y-40398000D01*
X117465589Y-40398000D01*
X117198011Y-40451225D01*
X116945957Y-40555629D01*
X116719114Y-40707201D01*
X116526201Y-40900114D01*
X116374629Y-41126957D01*
X116332000Y-41229873D01*
X116289371Y-41126957D01*
X116137799Y-40900114D01*
X115944886Y-40707201D01*
X115718043Y-40555629D01*
X115465989Y-40451225D01*
X115198411Y-40398000D01*
X114925589Y-40398000D01*
X114658011Y-40451225D01*
X114405957Y-40555629D01*
X114179114Y-40707201D01*
X113986201Y-40900114D01*
X113834629Y-41126957D01*
X113792000Y-41229873D01*
X113749371Y-41126957D01*
X113597799Y-40900114D01*
X113404886Y-40707201D01*
X113178043Y-40555629D01*
X112925989Y-40451225D01*
X112658411Y-40398000D01*
X112385589Y-40398000D01*
X112118011Y-40451225D01*
X111865957Y-40555629D01*
X111639114Y-40707201D01*
X111446201Y-40900114D01*
X111294629Y-41126957D01*
X111258494Y-41214194D01*
X111220005Y-41121273D01*
X111067120Y-40892465D01*
X110872535Y-40697880D01*
X110643727Y-40544995D01*
X110389490Y-40439686D01*
X110119592Y-40386000D01*
X109844408Y-40386000D01*
X109574510Y-40439686D01*
X109320273Y-40544995D01*
X109091465Y-40697880D01*
X108896880Y-40892465D01*
X108743995Y-41121273D01*
X108712000Y-41198515D01*
X108680005Y-41121273D01*
X108527120Y-40892465D01*
X108332535Y-40697880D01*
X108103727Y-40544995D01*
X107849490Y-40439686D01*
X107579592Y-40386000D01*
X107304408Y-40386000D01*
X107034510Y-40439686D01*
X106780273Y-40544995D01*
X106551465Y-40697880D01*
X106356880Y-40892465D01*
X106203995Y-41121273D01*
X106165506Y-41214194D01*
X106129371Y-41126957D01*
X105977799Y-40900114D01*
X105784886Y-40707201D01*
X105558043Y-40555629D01*
X105305989Y-40451225D01*
X105038411Y-40398000D01*
X104765589Y-40398000D01*
X104498011Y-40451225D01*
X104245957Y-40555629D01*
X104019114Y-40707201D01*
X103826201Y-40900114D01*
X103674629Y-41126957D01*
X103632000Y-41229873D01*
X103589371Y-41126957D01*
X103437799Y-40900114D01*
X103244886Y-40707201D01*
X103018043Y-40555629D01*
X102765989Y-40451225D01*
X102498411Y-40398000D01*
X102225589Y-40398000D01*
X101958011Y-40451225D01*
X101705957Y-40555629D01*
X101479114Y-40707201D01*
X101286201Y-40900114D01*
X101134629Y-41126957D01*
X101030225Y-41379011D01*
X100977000Y-41646589D01*
X100977000Y-41919411D01*
X100999404Y-42032045D01*
X100543579Y-42487871D01*
X100513532Y-42512530D01*
X100415135Y-42632428D01*
X100342019Y-42769217D01*
X100296995Y-42917643D01*
X100285601Y-43033327D01*
X100285601Y-43033336D01*
X100281793Y-43071999D01*
X100285601Y-43110662D01*
X100285602Y-53067000D01*
X100228061Y-53067000D01*
X100033296Y-53105741D01*
X100033296Y-50403121D01*
X100049833Y-50386584D01*
X100163101Y-50217066D01*
X100241122Y-50028708D01*
X100280896Y-49828749D01*
X100280896Y-49624871D01*
X100241122Y-49424912D01*
X100163101Y-49236554D01*
X100049833Y-49067036D01*
X99905670Y-48922873D01*
X99736152Y-48809605D01*
X99547794Y-48731584D01*
X99347835Y-48691810D01*
X99143957Y-48691810D01*
X98943998Y-48731584D01*
X98755640Y-48809605D01*
X98586122Y-48922873D01*
X98441959Y-49067036D01*
X98328691Y-49236554D01*
X98250670Y-49424912D01*
X98210896Y-49624871D01*
X98210896Y-49828749D01*
X98250670Y-50028708D01*
X98328691Y-50217066D01*
X98441959Y-50386584D01*
X98458496Y-50403121D01*
X98458497Y-56455411D01*
X98345906Y-56408774D01*
X98145947Y-56369000D01*
X97942069Y-56369000D01*
X97742110Y-56408774D01*
X97553752Y-56486795D01*
X97384234Y-56600063D01*
X97240071Y-56744226D01*
X97126803Y-56913744D01*
X97048782Y-57102102D01*
X97012122Y-57286405D01*
X93862416Y-60436112D01*
X93678102Y-60472774D01*
X93497400Y-60547624D01*
X93497400Y-51222311D01*
X93513937Y-51205774D01*
X93627205Y-51036256D01*
X93705226Y-50847898D01*
X93745000Y-50647939D01*
X93745000Y-50444061D01*
X93705226Y-50244102D01*
X93627205Y-50055744D01*
X93513937Y-49886226D01*
X93369774Y-49742063D01*
X93200256Y-49628795D01*
X93011898Y-49550774D01*
X92811939Y-49511000D01*
X92608061Y-49511000D01*
X92408102Y-49550774D01*
X92219744Y-49628795D01*
X92050226Y-49742063D01*
X91906063Y-49886226D01*
X91792795Y-50055744D01*
X91714774Y-50244102D01*
X91675000Y-50444061D01*
X91675000Y-50647939D01*
X91714774Y-50847898D01*
X91792795Y-51036256D01*
X91906063Y-51205774D01*
X91922600Y-51222311D01*
X91922601Y-56991624D01*
X91741898Y-56916774D01*
X91541939Y-56877000D01*
X91338061Y-56877000D01*
X91138102Y-56916774D01*
X90949744Y-56994795D01*
X90780226Y-57108063D01*
X90636063Y-57252226D01*
X90522795Y-57421744D01*
X90444774Y-57610102D01*
X90405000Y-57810061D01*
X90405000Y-57833449D01*
X88925000Y-59313450D01*
X88925000Y-37490000D01*
X172695000Y-37490000D01*
X172695001Y-135230000D01*
G37*
X172695001Y-135230000D02*
X88925000Y-135230000D01*
X88925000Y-131170475D01*
X106750000Y-131170475D01*
X106750000Y-131689525D01*
X106851261Y-132198601D01*
X107049893Y-132678141D01*
X107338262Y-133109715D01*
X107705285Y-133476738D01*
X108136859Y-133765107D01*
X108616399Y-133963739D01*
X109125475Y-134065000D01*
X109644525Y-134065000D01*
X110153601Y-133963739D01*
X110633141Y-133765107D01*
X111064715Y-133476738D01*
X111431738Y-133109715D01*
X111720107Y-132678141D01*
X111918739Y-132198601D01*
X112020000Y-131689525D01*
X112020000Y-131170475D01*
X130550000Y-131170475D01*
X130550000Y-131689525D01*
X130651261Y-132198601D01*
X130849893Y-132678141D01*
X131138262Y-133109715D01*
X131505285Y-133476738D01*
X131936859Y-133765107D01*
X132416399Y-133963739D01*
X132925475Y-134065000D01*
X133444525Y-134065000D01*
X133953601Y-133963739D01*
X134433141Y-133765107D01*
X134864715Y-133476738D01*
X135231738Y-133109715D01*
X135520107Y-132678141D01*
X135718739Y-132198601D01*
X135820000Y-131689525D01*
X135820000Y-131170475D01*
X135718739Y-130661399D01*
X135520107Y-130181859D01*
X135231738Y-129750285D01*
X134864715Y-129383262D01*
X134433141Y-129094893D01*
X133953601Y-128896261D01*
X133444525Y-128795000D01*
X132925475Y-128795000D01*
X132416399Y-128896261D01*
X131936859Y-129094893D01*
X131505285Y-129383262D01*
X131138262Y-129750285D01*
X130849893Y-130181859D01*
X130651261Y-130661399D01*
X130550000Y-131170475D01*
X112020000Y-131170475D01*
X111918739Y-130661399D01*
X111720107Y-130181859D01*
X111431738Y-129750285D01*
X111064715Y-129383262D01*
X110633141Y-129094893D01*
X110153601Y-128896261D01*
X109644525Y-128795000D01*
X109125475Y-128795000D01*
X108616399Y-128896261D01*
X108136859Y-129094893D01*
X107705285Y-129383262D01*
X107338262Y-129750285D01*
X107049893Y-130181859D01*
X106851261Y-130661399D01*
X106750000Y-131170475D01*
X88925000Y-131170475D01*
X88925000Y-103182100D01*
X88998795Y-103360256D01*
X89112063Y-103529774D01*
X89128601Y-103546312D01*
X89128600Y-117055337D01*
X89124792Y-117094000D01*
X89128600Y-117132663D01*
X89128600Y-117132672D01*
X89139994Y-117248356D01*
X89185018Y-117396782D01*
X89258134Y-117533571D01*
X89356531Y-117653469D01*
X89386578Y-117678128D01*
X92786361Y-121077913D01*
X92749000Y-121265740D01*
X92749000Y-121558260D01*
X92806068Y-121845158D01*
X92918010Y-122115411D01*
X93080525Y-122358632D01*
X93287368Y-122565475D01*
X93461760Y-122682000D01*
X93287368Y-122798525D01*
X93080525Y-123005368D01*
X92918010Y-123248589D01*
X92806068Y-123518842D01*
X92749000Y-123805740D01*
X92749000Y-124098260D01*
X92806068Y-124385158D01*
X92918010Y-124655411D01*
X93080525Y-124898632D01*
X93287368Y-125105475D01*
X93530589Y-125267990D01*
X93800842Y-125379932D01*
X94087740Y-125437000D01*
X94380260Y-125437000D01*
X94667158Y-125379932D01*
X94937411Y-125267990D01*
X95180632Y-125105475D01*
X95305710Y-124980397D01*
X95925208Y-124980397D01*
X96002843Y-125229472D01*
X96266883Y-125355371D01*
X96550411Y-125427339D01*
X96842531Y-125442611D01*
X97132019Y-125400599D01*
X97407747Y-125302919D01*
X97545157Y-125229472D01*
X97622792Y-124980397D01*
X96774000Y-124131605D01*
X95925208Y-124980397D01*
X95305710Y-124980397D01*
X95387475Y-124898632D01*
X95503311Y-124725271D01*
X95745603Y-124800792D01*
X96594395Y-123952000D01*
X96953605Y-123952000D01*
X97802397Y-124800792D01*
X98051472Y-124723157D01*
X98177371Y-124459117D01*
X98249339Y-124175589D01*
X98264611Y-123883469D01*
X98222599Y-123593981D01*
X98124919Y-123318253D01*
X98051472Y-123180843D01*
X97802397Y-123103208D01*
X96953605Y-123952000D01*
X96594395Y-123952000D01*
X95745603Y-123103208D01*
X95503311Y-123178729D01*
X95387475Y-123005368D01*
X95180632Y-122798525D01*
X95006240Y-122682000D01*
X95180632Y-122565475D01*
X95387475Y-122358632D01*
X95504000Y-122184240D01*
X95620525Y-122358632D01*
X95827368Y-122565475D01*
X96000729Y-122681311D01*
X95925208Y-122923603D01*
X96774000Y-123772395D01*
X97502655Y-123043740D01*
X114720000Y-123043740D01*
X114720000Y-123336260D01*
X114777068Y-123623158D01*
X114889010Y-123893411D01*
X115051525Y-124136632D01*
X115258368Y-124343475D01*
X115501589Y-124505990D01*
X115771842Y-124617932D01*
X116058740Y-124675000D01*
X116351260Y-124675000D01*
X116638158Y-124617932D01*
X116908411Y-124505990D01*
X117151632Y-124343475D01*
X117358475Y-124136632D01*
X117520990Y-123893411D01*
X117632932Y-123623158D01*
X117690000Y-123336260D01*
X117690000Y-123043740D01*
X117667471Y-122930475D01*
X118650000Y-122930475D01*
X118650000Y-123449525D01*
X118751261Y-123958601D01*
X118949893Y-124438141D01*
X119238262Y-124869715D01*
X119605285Y-125236738D01*
X120036859Y-125525107D01*
X120516399Y-125723739D01*
X121025475Y-125825000D01*
X121544525Y-125825000D01*
X122053601Y-125723739D01*
X122533141Y-125525107D01*
X122964715Y-125236738D01*
X123331738Y-124869715D01*
X123620107Y-124438141D01*
X123818739Y-123958601D01*
X123920000Y-123449525D01*
X123920000Y-123043740D01*
X124880000Y-123043740D01*
X124880000Y-123336260D01*
X124937068Y-123623158D01*
X125049010Y-123893411D01*
X125211525Y-124136632D01*
X125418368Y-124343475D01*
X125661589Y-124505990D01*
X125931842Y-124617932D01*
X126218740Y-124675000D01*
X126511260Y-124675000D01*
X126798158Y-124617932D01*
X127068411Y-124505990D01*
X127311632Y-124343475D01*
X127518475Y-124136632D01*
X127680990Y-123893411D01*
X127792932Y-123623158D01*
X127850000Y-123336260D01*
X127850000Y-123043740D01*
X127792932Y-122756842D01*
X127680990Y-122486589D01*
X127518475Y-122243368D01*
X127311632Y-122036525D01*
X127068411Y-121874010D01*
X126798158Y-121762068D01*
X126511260Y-121705000D01*
X126218740Y-121705000D01*
X125931842Y-121762068D01*
X125661589Y-121874010D01*
X125418368Y-122036525D01*
X125211525Y-122243368D01*
X125049010Y-122486589D01*
X124937068Y-122756842D01*
X124880000Y-123043740D01*
X123920000Y-123043740D01*
X123920000Y-122930475D01*
X123818739Y-122421399D01*
X123620107Y-121941859D01*
X123331738Y-121510285D01*
X122964715Y-121143262D01*
X122533141Y-120854893D01*
X122053601Y-120656261D01*
X121544525Y-120555000D01*
X121025475Y-120555000D01*
X120516399Y-120656261D01*
X120036859Y-120854893D01*
X119605285Y-121143262D01*
X119238262Y-121510285D01*
X118949893Y-121941859D01*
X118751261Y-122421399D01*
X118650000Y-122930475D01*
X117667471Y-122930475D01*
X117632932Y-122756842D01*
X117520990Y-122486589D01*
X117453110Y-122385000D01*
X117645883Y-122385000D01*
X117981081Y-122318325D01*
X118296831Y-122187537D01*
X118580998Y-121997663D01*
X118822663Y-121755998D01*
X119012537Y-121471831D01*
X119143325Y-121156081D01*
X119210000Y-120820883D01*
X119210000Y-120479117D01*
X119143325Y-120143919D01*
X119012537Y-119828169D01*
X118822663Y-119544002D01*
X118580998Y-119302337D01*
X118296831Y-119112463D01*
X117981081Y-118981675D01*
X117645883Y-118915000D01*
X117304117Y-118915000D01*
X116968919Y-118981675D01*
X116653169Y-119112463D01*
X116369002Y-119302337D01*
X116127337Y-119544002D01*
X115937463Y-119828169D01*
X115806675Y-120143919D01*
X115740000Y-120479117D01*
X115740000Y-120820883D01*
X115806675Y-121156081D01*
X115937463Y-121471831D01*
X116093261Y-121705000D01*
X116058740Y-121705000D01*
X115771842Y-121762068D01*
X115501589Y-121874010D01*
X115258368Y-122036525D01*
X115051525Y-122243368D01*
X114889010Y-122486589D01*
X114777068Y-122756842D01*
X114720000Y-123043740D01*
X97502655Y-123043740D01*
X97622792Y-122923603D01*
X97547271Y-122681311D01*
X97720632Y-122565475D01*
X97927475Y-122358632D01*
X98089990Y-122115411D01*
X98201932Y-121845158D01*
X98259000Y-121558260D01*
X98259000Y-121265740D01*
X98201932Y-120978842D01*
X98089990Y-120708589D01*
X97927475Y-120465368D01*
X97720632Y-120258525D01*
X97546240Y-120142000D01*
X97720632Y-120025475D01*
X97927475Y-119818632D01*
X98089990Y-119575411D01*
X98201932Y-119305158D01*
X98259000Y-119018260D01*
X98259000Y-118725740D01*
X98201932Y-118438842D01*
X98089990Y-118168589D01*
X97927475Y-117925368D01*
X97720632Y-117718525D01*
X97477411Y-117556010D01*
X97207158Y-117444068D01*
X96920260Y-117387000D01*
X96627740Y-117387000D01*
X96340842Y-117444068D01*
X96176201Y-117512264D01*
X96176201Y-115977259D01*
X107225000Y-115977259D01*
X107225000Y-116402741D01*
X107308008Y-116820049D01*
X107470833Y-117213144D01*
X107707219Y-117566920D01*
X108008080Y-117867781D01*
X108361856Y-118104167D01*
X108754951Y-118266992D01*
X109172259Y-118350000D01*
X109597741Y-118350000D01*
X110015049Y-118266992D01*
X110408144Y-118104167D01*
X110655158Y-117939117D01*
X122090000Y-117939117D01*
X122090000Y-118280883D01*
X122156675Y-118616081D01*
X122287463Y-118931831D01*
X122477337Y-119215998D01*
X122719002Y-119457663D01*
X123003169Y-119647537D01*
X123318919Y-119778325D01*
X123654117Y-119845000D01*
X123995883Y-119845000D01*
X124331081Y-119778325D01*
X124646831Y-119647537D01*
X124930998Y-119457663D01*
X125172663Y-119215998D01*
X125362537Y-118931831D01*
X125493325Y-118616081D01*
X125560000Y-118280883D01*
X125560000Y-117939117D01*
X125493325Y-117603919D01*
X125362537Y-117288169D01*
X125172663Y-117004002D01*
X124930998Y-116762337D01*
X124646831Y-116572463D01*
X124331081Y-116441675D01*
X123995883Y-116375000D01*
X123654117Y-116375000D01*
X123318919Y-116441675D01*
X123003169Y-116572463D01*
X122719002Y-116762337D01*
X122477337Y-117004002D01*
X122287463Y-117288169D01*
X122156675Y-117603919D01*
X122090000Y-117939117D01*
X110655158Y-117939117D01*
X110761920Y-117867781D01*
X111062781Y-117566920D01*
X111299167Y-117213144D01*
X111461992Y-116820049D01*
X111545000Y-116402741D01*
X111545000Y-115977259D01*
X131025000Y-115977259D01*
X131025000Y-116402741D01*
X131108008Y-116820049D01*
X131270833Y-117213144D01*
X131507219Y-117566920D01*
X131808080Y-117867781D01*
X132161856Y-118104167D01*
X132554951Y-118266992D01*
X132972259Y-118350000D01*
X133397741Y-118350000D01*
X133815049Y-118266992D01*
X134208144Y-118104167D01*
X134561920Y-117867781D01*
X134862781Y-117566920D01*
X135099167Y-117213144D01*
X135261992Y-116820049D01*
X135345000Y-116402741D01*
X135345000Y-115977259D01*
X135261992Y-115559951D01*
X135099167Y-115166856D01*
X134862781Y-114813080D01*
X134561920Y-114512219D01*
X134208144Y-114275833D01*
X133815049Y-114113008D01*
X133397741Y-114030000D01*
X132972259Y-114030000D01*
X132554951Y-114113008D01*
X132161856Y-114275833D01*
X131808080Y-114512219D01*
X131507219Y-114813080D01*
X131270833Y-115166856D01*
X131108008Y-115559951D01*
X131025000Y-115977259D01*
X111545000Y-115977259D01*
X111461992Y-115559951D01*
X111299167Y-115166856D01*
X111062781Y-114813080D01*
X110761920Y-114512219D01*
X110408144Y-114275833D01*
X110015049Y-114113008D01*
X109597741Y-114030000D01*
X109172259Y-114030000D01*
X108754951Y-114113008D01*
X108361856Y-114275833D01*
X108008080Y-114512219D01*
X107707219Y-114813080D01*
X107470833Y-115166856D01*
X107308008Y-115559951D01*
X107225000Y-115977259D01*
X96176201Y-115977259D01*
X96176201Y-101015463D01*
X96180009Y-100976800D01*
X96176201Y-100938137D01*
X96176201Y-100938128D01*
X96164807Y-100822444D01*
X96119783Y-100674018D01*
X96046667Y-100537229D01*
X96025023Y-100510856D01*
X95972922Y-100447370D01*
X95972920Y-100447368D01*
X95948270Y-100417332D01*
X95918234Y-100392682D01*
X93548128Y-98022577D01*
X93523469Y-97992531D01*
X93403572Y-97894134D01*
X93266783Y-97821018D01*
X93154742Y-97787031D01*
X93115774Y-97748063D01*
X92946256Y-97634795D01*
X92757898Y-97556774D01*
X92557939Y-97517000D01*
X92354061Y-97517000D01*
X92154102Y-97556774D01*
X91965744Y-97634795D01*
X91796226Y-97748063D01*
X91652063Y-97892226D01*
X91538795Y-98061744D01*
X91460774Y-98250102D01*
X91421000Y-98450061D01*
X91421000Y-98653939D01*
X91460774Y-98853898D01*
X91538795Y-99042256D01*
X91652063Y-99211774D01*
X91796226Y-99355937D01*
X91965744Y-99469205D01*
X92154102Y-99547226D01*
X92354061Y-99587000D01*
X92557939Y-99587000D01*
X92757898Y-99547226D01*
X92819966Y-99521516D01*
X94601402Y-101302954D01*
X94601401Y-117430988D01*
X94380260Y-117387000D01*
X94171401Y-117387000D01*
X94171401Y-103328663D01*
X94175209Y-103290000D01*
X94171401Y-103251337D01*
X94171401Y-103251328D01*
X94160007Y-103135644D01*
X94114983Y-102987218D01*
X94041867Y-102850429D01*
X93977673Y-102772208D01*
X93968122Y-102760570D01*
X93968120Y-102760568D01*
X93943470Y-102730532D01*
X93913434Y-102705882D01*
X91713000Y-100505450D01*
X91713000Y-100482061D01*
X91673226Y-100282102D01*
X91595205Y-100093744D01*
X91481937Y-99924226D01*
X91337774Y-99780063D01*
X91168256Y-99666795D01*
X90979898Y-99588774D01*
X90779939Y-99549000D01*
X90576061Y-99549000D01*
X90376102Y-99588774D01*
X90187744Y-99666795D01*
X90018226Y-99780063D01*
X89874063Y-99924226D01*
X89760795Y-100093744D01*
X89682774Y-100282102D01*
X89643000Y-100482061D01*
X89643000Y-100685939D01*
X89682774Y-100885898D01*
X89760795Y-101074256D01*
X89874063Y-101243774D01*
X90018226Y-101387937D01*
X90187744Y-101501205D01*
X90376102Y-101579226D01*
X90576061Y-101619000D01*
X90599450Y-101619000D01*
X92596602Y-103616154D01*
X92596601Y-117983338D01*
X92592793Y-118022001D01*
X92596601Y-118060664D01*
X92596601Y-118060673D01*
X92607995Y-118176357D01*
X92653019Y-118324783D01*
X92726135Y-118461572D01*
X92786834Y-118535535D01*
X92749000Y-118725740D01*
X92749000Y-118813449D01*
X90703400Y-116767850D01*
X90703400Y-103546311D01*
X90719937Y-103529774D01*
X90833205Y-103360256D01*
X90911226Y-103171898D01*
X90951000Y-102971939D01*
X90951000Y-102768061D01*
X90911226Y-102568102D01*
X90833205Y-102379744D01*
X90719937Y-102210226D01*
X90575774Y-102066063D01*
X90406256Y-101952795D01*
X90217898Y-101874774D01*
X90017939Y-101835000D01*
X89814061Y-101835000D01*
X89614102Y-101874774D01*
X89425744Y-101952795D01*
X89256226Y-102066063D01*
X89112063Y-102210226D01*
X88998795Y-102379744D01*
X88925000Y-102557900D01*
X88925000Y-82073825D01*
X88950137Y-82165460D01*
X89197116Y-82281360D01*
X89461960Y-82346850D01*
X89734492Y-82359412D01*
X90004238Y-82318565D01*
X90260832Y-82225877D01*
X90373863Y-82165460D01*
X90439388Y-81926593D01*
X89662000Y-81149205D01*
X89647858Y-81163348D01*
X89468253Y-80983743D01*
X89482395Y-80969600D01*
X89841605Y-80969600D01*
X90618993Y-81746988D01*
X90857860Y-81681463D01*
X90973760Y-81434484D01*
X91039250Y-81169640D01*
X91051812Y-80897108D01*
X91032274Y-80768081D01*
X91743524Y-80768081D01*
X91782031Y-80984325D01*
X91991060Y-81077981D01*
X92214345Y-81129058D01*
X92443303Y-81135593D01*
X92669137Y-81097335D01*
X92883167Y-81015754D01*
X92941969Y-80984325D01*
X92980476Y-80768081D01*
X92362000Y-80149605D01*
X91743524Y-80768081D01*
X91032274Y-80768081D01*
X91010965Y-80627362D01*
X90918277Y-80370768D01*
X90857860Y-80257737D01*
X90618993Y-80192212D01*
X89841605Y-80969600D01*
X89482395Y-80969600D01*
X89468253Y-80955458D01*
X89647858Y-80775853D01*
X89662000Y-80789995D01*
X90400692Y-80051303D01*
X91196407Y-80051303D01*
X91234665Y-80277137D01*
X91316246Y-80491167D01*
X91347675Y-80549969D01*
X91563919Y-80588476D01*
X92182395Y-79970000D01*
X92541605Y-79970000D01*
X93160081Y-80588476D01*
X93376325Y-80549969D01*
X93469981Y-80340940D01*
X93521058Y-80117655D01*
X93527593Y-79888697D01*
X93489335Y-79662863D01*
X93407754Y-79448833D01*
X93376325Y-79390031D01*
X93160081Y-79351524D01*
X92541605Y-79970000D01*
X92182395Y-79970000D01*
X91563919Y-79351524D01*
X91347675Y-79390031D01*
X91254019Y-79599060D01*
X91202942Y-79822345D01*
X91196407Y-80051303D01*
X90400692Y-80051303D01*
X90439388Y-80012607D01*
X90373863Y-79773740D01*
X90126884Y-79657840D01*
X89862040Y-79592350D01*
X89589508Y-79579788D01*
X89319762Y-79620635D01*
X89063168Y-79713323D01*
X88950137Y-79773740D01*
X88925000Y-79865375D01*
X88925000Y-79171919D01*
X91743524Y-79171919D01*
X92362000Y-79790395D01*
X92980476Y-79171919D01*
X92941969Y-78955675D01*
X92732940Y-78862019D01*
X92509655Y-78810942D01*
X92280697Y-78804407D01*
X92054863Y-78842665D01*
X91840833Y-78924246D01*
X91782031Y-78955675D01*
X91743524Y-79171919D01*
X88925000Y-79171919D01*
X88925000Y-75768081D01*
X91743524Y-75768081D01*
X91782031Y-75984325D01*
X91991060Y-76077981D01*
X92214345Y-76129058D01*
X92443303Y-76135593D01*
X92669137Y-76097335D01*
X92883167Y-76015754D01*
X92941969Y-75984325D01*
X92980476Y-75768081D01*
X92362000Y-75149605D01*
X91743524Y-75768081D01*
X88925000Y-75768081D01*
X88925000Y-75074625D01*
X88950137Y-75166260D01*
X89197116Y-75282160D01*
X89461960Y-75347650D01*
X89734492Y-75360212D01*
X90004238Y-75319365D01*
X90260832Y-75226677D01*
X90373863Y-75166260D01*
X90405397Y-75051303D01*
X91196407Y-75051303D01*
X91234665Y-75277137D01*
X91316246Y-75491167D01*
X91347675Y-75549969D01*
X91563919Y-75588476D01*
X92182395Y-74970000D01*
X92541605Y-74970000D01*
X93160081Y-75588476D01*
X93376325Y-75549969D01*
X93469981Y-75340940D01*
X93521058Y-75117655D01*
X93527593Y-74888697D01*
X93489335Y-74662863D01*
X93407754Y-74448833D01*
X93376325Y-74390031D01*
X93160081Y-74351524D01*
X92541605Y-74970000D01*
X92182395Y-74970000D01*
X91563919Y-74351524D01*
X91347675Y-74390031D01*
X91254019Y-74599060D01*
X91202942Y-74822345D01*
X91196407Y-75051303D01*
X90405397Y-75051303D01*
X90439388Y-74927393D01*
X89662000Y-74150005D01*
X89647858Y-74164148D01*
X89468253Y-73984543D01*
X89482395Y-73970400D01*
X89841605Y-73970400D01*
X90618993Y-74747788D01*
X90857860Y-74682263D01*
X90973760Y-74435284D01*
X91038884Y-74171919D01*
X91743524Y-74171919D01*
X92362000Y-74790395D01*
X92980476Y-74171919D01*
X92941969Y-73955675D01*
X92732940Y-73862019D01*
X92509655Y-73810942D01*
X92280697Y-73804407D01*
X92054863Y-73842665D01*
X91840833Y-73924246D01*
X91782031Y-73955675D01*
X91743524Y-74171919D01*
X91038884Y-74171919D01*
X91039250Y-74170440D01*
X91051812Y-73897908D01*
X91010965Y-73628162D01*
X90918277Y-73371568D01*
X90857860Y-73258537D01*
X90618993Y-73193012D01*
X89841605Y-73970400D01*
X89482395Y-73970400D01*
X89468253Y-73956258D01*
X89647858Y-73776653D01*
X89662000Y-73790795D01*
X90439388Y-73013407D01*
X90373863Y-72774540D01*
X90126884Y-72658640D01*
X89862040Y-72593150D01*
X89589508Y-72580588D01*
X89319762Y-72621435D01*
X89063168Y-72714123D01*
X88950137Y-72774540D01*
X88925000Y-72866175D01*
X88925000Y-67940550D01*
X93643869Y-72659420D01*
X93557063Y-72746226D01*
X93443795Y-72915744D01*
X93365774Y-73104102D01*
X93326000Y-73304061D01*
X93326000Y-73507939D01*
X93365774Y-73707898D01*
X93443795Y-73896256D01*
X93557063Y-74065774D01*
X93573601Y-74082312D01*
X93573600Y-95846337D01*
X93569792Y-95885000D01*
X93573600Y-95923663D01*
X93573600Y-95923672D01*
X93584994Y-96039356D01*
X93630018Y-96187782D01*
X93703134Y-96324571D01*
X93801531Y-96444469D01*
X93831578Y-96469128D01*
X95993000Y-98630552D01*
X95993000Y-98653939D01*
X96032774Y-98853898D01*
X96110795Y-99042256D01*
X96224063Y-99211774D01*
X96368226Y-99355937D01*
X96537744Y-99469205D01*
X96726102Y-99547226D01*
X96926061Y-99587000D01*
X97129939Y-99587000D01*
X97329898Y-99547226D01*
X97518256Y-99469205D01*
X97687774Y-99355937D01*
X97831937Y-99211774D01*
X97945205Y-99042256D01*
X97979132Y-98960349D01*
X98066738Y-98960349D01*
X98266697Y-98920575D01*
X98455055Y-98842554D01*
X98624573Y-98729286D01*
X98768736Y-98585123D01*
X98882004Y-98415605D01*
X98960025Y-98227247D01*
X98999799Y-98027288D01*
X98999799Y-97823410D01*
X98960025Y-97623451D01*
X98882004Y-97435093D01*
X98769085Y-97266097D01*
X98916071Y-97167884D01*
X99060234Y-97023721D01*
X99173502Y-96854203D01*
X99251523Y-96665845D01*
X99291297Y-96465886D01*
X99291297Y-96262008D01*
X99251523Y-96062049D01*
X99173502Y-95873691D01*
X99060234Y-95704173D01*
X99043697Y-95687636D01*
X99043697Y-77880510D01*
X99075602Y-77893726D01*
X99275561Y-77933500D01*
X99479439Y-77933500D01*
X99679398Y-77893726D01*
X99867756Y-77815705D01*
X100037274Y-77702437D01*
X100053811Y-77685900D01*
X102069337Y-77685900D01*
X102108000Y-77689708D01*
X102146663Y-77685900D01*
X102146673Y-77685900D01*
X102262357Y-77674506D01*
X102410783Y-77629482D01*
X102547572Y-77556366D01*
X102552283Y-77552500D01*
X102590939Y-77552500D01*
X102790898Y-77512726D01*
X102979256Y-77434705D01*
X103098601Y-77354962D01*
X103098600Y-97624337D01*
X103094792Y-97663000D01*
X103098600Y-97701663D01*
X103098600Y-97701672D01*
X103109994Y-97817356D01*
X103155018Y-97965782D01*
X103228134Y-98102571D01*
X103326531Y-98222469D01*
X103356578Y-98247128D01*
X106268683Y-101159234D01*
X106215000Y-101429117D01*
X106215000Y-101770883D01*
X106281675Y-102106081D01*
X106412463Y-102421831D01*
X106568261Y-102655000D01*
X106533740Y-102655000D01*
X106246842Y-102712068D01*
X105976589Y-102824010D01*
X105733368Y-102986525D01*
X105526525Y-103193368D01*
X105364010Y-103436589D01*
X105252068Y-103706842D01*
X105195000Y-103993740D01*
X105195000Y-104286260D01*
X105252068Y-104573158D01*
X105364010Y-104843411D01*
X105526525Y-105086632D01*
X105733368Y-105293475D01*
X105976589Y-105455990D01*
X106246842Y-105567932D01*
X106533740Y-105625000D01*
X106826260Y-105625000D01*
X107113158Y-105567932D01*
X107383411Y-105455990D01*
X107626632Y-105293475D01*
X107833475Y-105086632D01*
X107995990Y-104843411D01*
X108107932Y-104573158D01*
X108165000Y-104286260D01*
X108165000Y-103993740D01*
X108142471Y-103880475D01*
X109125000Y-103880475D01*
X109125000Y-104399525D01*
X109226261Y-104908601D01*
X109424893Y-105388141D01*
X109713262Y-105819715D01*
X110080285Y-106186738D01*
X110511859Y-106475107D01*
X110991399Y-106673739D01*
X111500475Y-106775000D01*
X112019525Y-106775000D01*
X112528601Y-106673739D01*
X113008141Y-106475107D01*
X113439715Y-106186738D01*
X113806738Y-105819715D01*
X114095107Y-105388141D01*
X114293739Y-104908601D01*
X114395000Y-104399525D01*
X114395000Y-103993740D01*
X115355000Y-103993740D01*
X115355000Y-104286260D01*
X115412068Y-104573158D01*
X115524010Y-104843411D01*
X115686525Y-105086632D01*
X115893368Y-105293475D01*
X116136589Y-105455990D01*
X116406842Y-105567932D01*
X116693740Y-105625000D01*
X116986260Y-105625000D01*
X117273158Y-105567932D01*
X117543411Y-105455990D01*
X117786632Y-105293475D01*
X117993475Y-105086632D01*
X118155990Y-104843411D01*
X118267932Y-104573158D01*
X118325000Y-104286260D01*
X118325000Y-103993740D01*
X124245000Y-103993740D01*
X124245000Y-104286260D01*
X124302068Y-104573158D01*
X124414010Y-104843411D01*
X124576525Y-105086632D01*
X124783368Y-105293475D01*
X125026589Y-105455990D01*
X125296842Y-105567932D01*
X125583740Y-105625000D01*
X125876260Y-105625000D01*
X126163158Y-105567932D01*
X126197425Y-105553738D01*
X126198961Y-105569336D01*
X126245438Y-105722549D01*
X126320912Y-105863751D01*
X126422483Y-105987517D01*
X126453500Y-106012972D01*
X140537034Y-120096507D01*
X140562484Y-120127518D01*
X140686249Y-120229089D01*
X140827451Y-120304563D01*
X140980664Y-120351040D01*
X141100078Y-120362801D01*
X141100080Y-120362801D01*
X141140000Y-120366733D01*
X141179921Y-120362801D01*
X144338137Y-120362801D01*
X144315000Y-120479117D01*
X144315000Y-120820883D01*
X144381675Y-121156081D01*
X144512463Y-121471831D01*
X144668261Y-121705000D01*
X144633740Y-121705000D01*
X144346842Y-121762068D01*
X144076589Y-121874010D01*
X143833368Y-122036525D01*
X143626525Y-122243368D01*
X143464010Y-122486589D01*
X143352068Y-122756842D01*
X143295000Y-123043740D01*
X143295000Y-123336260D01*
X143352068Y-123623158D01*
X143464010Y-123893411D01*
X143626525Y-124136632D01*
X143833368Y-124343475D01*
X144076589Y-124505990D01*
X144346842Y-124617932D01*
X144633740Y-124675000D01*
X144926260Y-124675000D01*
X145213158Y-124617932D01*
X145483411Y-124505990D01*
X145726632Y-124343475D01*
X145933475Y-124136632D01*
X146095990Y-123893411D01*
X146207932Y-123623158D01*
X146265000Y-123336260D01*
X146265000Y-123043740D01*
X146242471Y-122930475D01*
X147225000Y-122930475D01*
X147225000Y-123449525D01*
X147326261Y-123958601D01*
X147524893Y-124438141D01*
X147813262Y-124869715D01*
X148180285Y-125236738D01*
X148611859Y-125525107D01*
X149091399Y-125723739D01*
X149600475Y-125825000D01*
X150119525Y-125825000D01*
X150628601Y-125723739D01*
X151108141Y-125525107D01*
X151539715Y-125236738D01*
X151906738Y-124869715D01*
X152195107Y-124438141D01*
X152393739Y-123958601D01*
X152495000Y-123449525D01*
X152495000Y-123043740D01*
X153455000Y-123043740D01*
X153455000Y-123336260D01*
X153512068Y-123623158D01*
X153624010Y-123893411D01*
X153786525Y-124136632D01*
X153993368Y-124343475D01*
X154236589Y-124505990D01*
X154506842Y-124617932D01*
X154793740Y-124675000D01*
X155086260Y-124675000D01*
X155373158Y-124617932D01*
X155643411Y-124505990D01*
X155886632Y-124343475D01*
X156093475Y-124136632D01*
X156255990Y-123893411D01*
X156367932Y-123623158D01*
X156425000Y-123336260D01*
X156425000Y-123043740D01*
X156367932Y-122756842D01*
X156255990Y-122486589D01*
X156093475Y-122243368D01*
X155886632Y-122036525D01*
X155643411Y-121874010D01*
X155373158Y-121762068D01*
X155086260Y-121705000D01*
X154793740Y-121705000D01*
X154506842Y-121762068D01*
X154236589Y-121874010D01*
X153993368Y-122036525D01*
X153786525Y-122243368D01*
X153624010Y-122486589D01*
X153512068Y-122756842D01*
X153455000Y-123043740D01*
X152495000Y-123043740D01*
X152495000Y-122930475D01*
X152393739Y-122421399D01*
X152195107Y-121941859D01*
X151906738Y-121510285D01*
X151539715Y-121143262D01*
X151108141Y-120854893D01*
X151015187Y-120816390D01*
X165119024Y-120816390D01*
X165163675Y-120963599D01*
X165288859Y-121226420D01*
X165462912Y-121459769D01*
X165679145Y-121654678D01*
X165929248Y-121803657D01*
X166203609Y-121900981D01*
X166433500Y-121780314D01*
X166433500Y-120586500D01*
X166687500Y-120586500D01*
X166687500Y-121780314D01*
X166917391Y-121900981D01*
X167191752Y-121803657D01*
X167441855Y-121654678D01*
X167658088Y-121459769D01*
X167832141Y-121226420D01*
X167957325Y-120963599D01*
X168001976Y-120816390D01*
X167880655Y-120586500D01*
X166687500Y-120586500D01*
X166433500Y-120586500D01*
X165240345Y-120586500D01*
X165119024Y-120816390D01*
X151015187Y-120816390D01*
X150628601Y-120656261D01*
X150119525Y-120555000D01*
X149600475Y-120555000D01*
X149091399Y-120656261D01*
X148611859Y-120854893D01*
X148180285Y-121143262D01*
X147813262Y-121510285D01*
X147524893Y-121941859D01*
X147326261Y-122421399D01*
X147225000Y-122930475D01*
X146242471Y-122930475D01*
X146207932Y-122756842D01*
X146095990Y-122486589D01*
X146028110Y-122385000D01*
X146220883Y-122385000D01*
X146556081Y-122318325D01*
X146871831Y-122187537D01*
X147155998Y-121997663D01*
X147397663Y-121755998D01*
X147587537Y-121471831D01*
X147718325Y-121156081D01*
X147785000Y-120820883D01*
X147785000Y-120479117D01*
X147718325Y-120143919D01*
X147587537Y-119828169D01*
X147397663Y-119544002D01*
X147155998Y-119302337D01*
X146871831Y-119112463D01*
X146556081Y-118981675D01*
X146220883Y-118915000D01*
X145879117Y-118915000D01*
X145543919Y-118981675D01*
X145537308Y-118984413D01*
X145527518Y-118972484D01*
X145403753Y-118870913D01*
X145262551Y-118795439D01*
X145109338Y-118748962D01*
X144989924Y-118737201D01*
X144989921Y-118737201D01*
X144950001Y-118733269D01*
X144910081Y-118737201D01*
X141476674Y-118737201D01*
X127812800Y-105073328D01*
X127812800Y-103880475D01*
X128175000Y-103880475D01*
X128175000Y-104399525D01*
X128276261Y-104908601D01*
X128474893Y-105388141D01*
X128763262Y-105819715D01*
X129130285Y-106186738D01*
X129561859Y-106475107D01*
X130041399Y-106673739D01*
X130550475Y-106775000D01*
X131069525Y-106775000D01*
X131578601Y-106673739D01*
X132058141Y-106475107D01*
X132489715Y-106186738D01*
X132856738Y-105819715D01*
X133145107Y-105388141D01*
X133343739Y-104908601D01*
X133445000Y-104399525D01*
X133445000Y-103993740D01*
X134405000Y-103993740D01*
X134405000Y-104286260D01*
X134462068Y-104573158D01*
X134574010Y-104843411D01*
X134736525Y-105086632D01*
X134943368Y-105293475D01*
X135186589Y-105455990D01*
X135456842Y-105567932D01*
X135743740Y-105625000D01*
X136036260Y-105625000D01*
X136323158Y-105567932D01*
X136593411Y-105455990D01*
X136836632Y-105293475D01*
X137043475Y-105086632D01*
X137205990Y-104843411D01*
X137317932Y-104573158D01*
X137375000Y-104286260D01*
X137375000Y-103993740D01*
X137317932Y-103706842D01*
X137205990Y-103436589D01*
X137043475Y-103193368D01*
X136836632Y-102986525D01*
X136593411Y-102824010D01*
X136323158Y-102712068D01*
X136036260Y-102655000D01*
X135743740Y-102655000D01*
X135456842Y-102712068D01*
X135186589Y-102824010D01*
X134943368Y-102986525D01*
X134736525Y-103193368D01*
X134574010Y-103436589D01*
X134462068Y-103706842D01*
X134405000Y-103993740D01*
X133445000Y-103993740D01*
X133445000Y-103880475D01*
X133343739Y-103371399D01*
X133145107Y-102891859D01*
X132856738Y-102460285D01*
X132489715Y-102093262D01*
X132058141Y-101804893D01*
X131578601Y-101606261D01*
X131069525Y-101505000D01*
X130550475Y-101505000D01*
X130041399Y-101606261D01*
X129561859Y-101804893D01*
X129130285Y-102093262D01*
X128763262Y-102460285D01*
X128474893Y-102891859D01*
X128276261Y-103371399D01*
X128175000Y-103880475D01*
X127812800Y-103880475D01*
X127812800Y-103141278D01*
X127821831Y-103137537D01*
X128105998Y-102947663D01*
X128347663Y-102705998D01*
X128537537Y-102421831D01*
X128668325Y-102106081D01*
X128735000Y-101770883D01*
X128735000Y-101429117D01*
X128668325Y-101093919D01*
X128654063Y-101059487D01*
X130824433Y-98889117D01*
X131615000Y-98889117D01*
X131615000Y-99230883D01*
X131681675Y-99566081D01*
X131812463Y-99881831D01*
X132002337Y-100165998D01*
X132244002Y-100407663D01*
X132528169Y-100597537D01*
X132843919Y-100728325D01*
X133179117Y-100795000D01*
X133520883Y-100795000D01*
X133856081Y-100728325D01*
X134171831Y-100597537D01*
X134455998Y-100407663D01*
X134697663Y-100165998D01*
X134887537Y-99881831D01*
X135018325Y-99566081D01*
X135085000Y-99230883D01*
X135085000Y-98889117D01*
X135018325Y-98553919D01*
X134887537Y-98238169D01*
X134697663Y-97954002D01*
X134455998Y-97712337D01*
X134171831Y-97522463D01*
X133856081Y-97391675D01*
X133520883Y-97325000D01*
X133179117Y-97325000D01*
X132843919Y-97391675D01*
X132528169Y-97522463D01*
X132244002Y-97712337D01*
X132002337Y-97954002D01*
X131812463Y-98238169D01*
X131681675Y-98553919D01*
X131615000Y-98889117D01*
X130824433Y-98889117D01*
X137924417Y-91789134D01*
X137954457Y-91764481D01*
X138052854Y-91644584D01*
X138125970Y-91507795D01*
X138170994Y-91359369D01*
X138182388Y-91243685D01*
X138182388Y-91243676D01*
X138186196Y-91205013D01*
X138182388Y-91166350D01*
X138182388Y-47234517D01*
X138217941Y-47198964D01*
X138331209Y-47029446D01*
X138409230Y-46841088D01*
X138449004Y-46641129D01*
X138449004Y-46437251D01*
X138409230Y-46237292D01*
X138331209Y-46048934D01*
X138217941Y-45879416D01*
X138182388Y-45843863D01*
X138182388Y-43906162D01*
X139518152Y-42570400D01*
X141481399Y-42570400D01*
X141545201Y-42665886D01*
X141738114Y-42858799D01*
X141964957Y-43010371D01*
X142217011Y-43114775D01*
X142484589Y-43168000D01*
X142757411Y-43168000D01*
X143024989Y-43114775D01*
X143277043Y-43010371D01*
X143503886Y-42858799D01*
X143696799Y-42665886D01*
X143848371Y-42439043D01*
X143891000Y-42336127D01*
X143933629Y-42439043D01*
X144085201Y-42665886D01*
X144278114Y-42858799D01*
X144373600Y-42922601D01*
X144373601Y-45551684D01*
X144357063Y-45568222D01*
X144243795Y-45737740D01*
X144165774Y-45926098D01*
X144126000Y-46126057D01*
X144126000Y-46329935D01*
X144165774Y-46529894D01*
X144243795Y-46718252D01*
X144357063Y-46887770D01*
X144501226Y-47031933D01*
X144670744Y-47145201D01*
X144859102Y-47223222D01*
X145059061Y-47262996D01*
X145082449Y-47262996D01*
X145643601Y-47824149D01*
X145643601Y-50643787D01*
X145564989Y-50611225D01*
X145297411Y-50558000D01*
X145024589Y-50558000D01*
X144757011Y-50611225D01*
X144504957Y-50715629D01*
X144278114Y-50867201D01*
X144085201Y-51060114D01*
X144007445Y-51176483D01*
X143996812Y-51068518D01*
X143960502Y-50948820D01*
X143901537Y-50838506D01*
X143822185Y-50741815D01*
X143725494Y-50662463D01*
X143615180Y-50603498D01*
X143495482Y-50567188D01*
X143408400Y-50558611D01*
X143408400Y-49516454D01*
X143411205Y-49512256D01*
X143489226Y-49323898D01*
X143529000Y-49123939D01*
X143529000Y-48920061D01*
X143489226Y-48720102D01*
X143411205Y-48531744D01*
X143297937Y-48362226D01*
X143153774Y-48218063D01*
X142984256Y-48104795D01*
X142795898Y-48026774D01*
X142595939Y-47987000D01*
X142392061Y-47987000D01*
X142192102Y-48026774D01*
X142003744Y-48104795D01*
X141834226Y-48218063D01*
X141690063Y-48362226D01*
X141576795Y-48531744D01*
X141498774Y-48720102D01*
X141459000Y-48920061D01*
X141459000Y-49123939D01*
X141498774Y-49323898D01*
X141576795Y-49512256D01*
X141690063Y-49681774D01*
X141833601Y-49825312D01*
X141833600Y-50558611D01*
X141746518Y-50567188D01*
X141626820Y-50603498D01*
X141516506Y-50662463D01*
X141419815Y-50741815D01*
X141340463Y-50838506D01*
X141281498Y-50948820D01*
X141245188Y-51068518D01*
X141232928Y-51193000D01*
X141232928Y-52693000D01*
X141245188Y-52817482D01*
X141281498Y-52937180D01*
X141340463Y-53047494D01*
X141419815Y-53144185D01*
X141516506Y-53223537D01*
X141626820Y-53282502D01*
X141746518Y-53318812D01*
X141871000Y-53331072D01*
X142659377Y-53331072D01*
X140567578Y-55422872D01*
X140537531Y-55447531D01*
X140439134Y-55567429D01*
X140366018Y-55704218D01*
X140320994Y-55852644D01*
X140309600Y-55968328D01*
X140309600Y-55968337D01*
X140305792Y-56007000D01*
X140309600Y-56045663D01*
X140309601Y-69046688D01*
X140293063Y-69063226D01*
X140179795Y-69232744D01*
X140106400Y-69409934D01*
X140106400Y-45126311D01*
X140122937Y-45109774D01*
X140236205Y-44940256D01*
X140314226Y-44751898D01*
X140354000Y-44551939D01*
X140354000Y-44348061D01*
X140314226Y-44148102D01*
X140236205Y-43959744D01*
X140122937Y-43790226D01*
X139978774Y-43646063D01*
X139809256Y-43532795D01*
X139620898Y-43454774D01*
X139420939Y-43415000D01*
X139217061Y-43415000D01*
X139017102Y-43454774D01*
X138828744Y-43532795D01*
X138659226Y-43646063D01*
X138515063Y-43790226D01*
X138401795Y-43959744D01*
X138323774Y-44148102D01*
X138284000Y-44348061D01*
X138284000Y-44551939D01*
X138323774Y-44751898D01*
X138401795Y-44940256D01*
X138515063Y-45109774D01*
X138531601Y-45126312D01*
X138531600Y-94830337D01*
X138527792Y-94869000D01*
X138531600Y-94907663D01*
X138531600Y-94907672D01*
X138542994Y-95023356D01*
X138588018Y-95171782D01*
X138661134Y-95308571D01*
X138759531Y-95428469D01*
X138789578Y-95453128D01*
X144395937Y-101059488D01*
X144381675Y-101093919D01*
X144315000Y-101429117D01*
X144315000Y-101770883D01*
X144381675Y-102106081D01*
X144512463Y-102421831D01*
X144668261Y-102655000D01*
X144633740Y-102655000D01*
X144346842Y-102712068D01*
X144076589Y-102824010D01*
X143833368Y-102986525D01*
X143626525Y-103193368D01*
X143464010Y-103436589D01*
X143352068Y-103706842D01*
X143295000Y-103993740D01*
X143295000Y-104286260D01*
X143352068Y-104573158D01*
X143464010Y-104843411D01*
X143626525Y-105086632D01*
X143833368Y-105293475D01*
X144076589Y-105455990D01*
X144346842Y-105567932D01*
X144633740Y-105625000D01*
X144926260Y-105625000D01*
X145213158Y-105567932D01*
X145483411Y-105455990D01*
X145643601Y-105348955D01*
X145643600Y-111670758D01*
X145496244Y-111731795D01*
X145326726Y-111845063D01*
X145182563Y-111989226D01*
X145069295Y-112158744D01*
X144991274Y-112347102D01*
X144951500Y-112547061D01*
X144951500Y-112750939D01*
X144991274Y-112950898D01*
X145069295Y-113139256D01*
X145182563Y-113308774D01*
X145326726Y-113452937D01*
X145496244Y-113566205D01*
X145684602Y-113644226D01*
X145884561Y-113684000D01*
X146088439Y-113684000D01*
X146288398Y-113644226D01*
X146476756Y-113566205D01*
X146646274Y-113452937D01*
X146790437Y-113308774D01*
X146903705Y-113139256D01*
X146981726Y-112950898D01*
X147021500Y-112750939D01*
X147021500Y-112726158D01*
X147084822Y-112649000D01*
X147088866Y-112644073D01*
X147161982Y-112507283D01*
X147165816Y-112494643D01*
X147207006Y-112358857D01*
X147218400Y-112243173D01*
X147218400Y-112243163D01*
X147222208Y-112204500D01*
X147218400Y-112165837D01*
X147218400Y-103880475D01*
X147225000Y-103880475D01*
X147225000Y-104399525D01*
X147326261Y-104908601D01*
X147524893Y-105388141D01*
X147813262Y-105819715D01*
X148180285Y-106186738D01*
X148611859Y-106475107D01*
X149091399Y-106673739D01*
X149600475Y-106775000D01*
X150119525Y-106775000D01*
X150628601Y-106673739D01*
X151108141Y-106475107D01*
X151539715Y-106186738D01*
X151906738Y-105819715D01*
X152195107Y-105388141D01*
X152393739Y-104908601D01*
X152495000Y-104399525D01*
X152495000Y-103880475D01*
X152393739Y-103371399D01*
X152195107Y-102891859D01*
X151906738Y-102460285D01*
X151539715Y-102093262D01*
X151108141Y-101804893D01*
X150628601Y-101606261D01*
X150119525Y-101505000D01*
X149600475Y-101505000D01*
X149091399Y-101606261D01*
X148611859Y-101804893D01*
X148180285Y-102093262D01*
X147813262Y-102460285D01*
X147524893Y-102891859D01*
X147326261Y-103371399D01*
X147225000Y-103880475D01*
X147218400Y-103880475D01*
X147218400Y-102885261D01*
X147397663Y-102705998D01*
X147587537Y-102421831D01*
X147718325Y-102106081D01*
X147785000Y-101770883D01*
X147785000Y-101429117D01*
X147718325Y-101093919D01*
X147587537Y-100778169D01*
X147397663Y-100494002D01*
X147155998Y-100252337D01*
X146871831Y-100062463D01*
X146556081Y-99931675D01*
X146220883Y-99865000D01*
X145879117Y-99865000D01*
X145543919Y-99931675D01*
X145509488Y-99945937D01*
X144452668Y-98889117D01*
X150665000Y-98889117D01*
X150665000Y-99230883D01*
X150731675Y-99566081D01*
X150862463Y-99881831D01*
X151052337Y-100165998D01*
X151294002Y-100407663D01*
X151578169Y-100597537D01*
X151893919Y-100728325D01*
X152229117Y-100795000D01*
X152570883Y-100795000D01*
X152906081Y-100728325D01*
X153221831Y-100597537D01*
X153505998Y-100407663D01*
X153747663Y-100165998D01*
X153937537Y-99881831D01*
X154068325Y-99566081D01*
X154135000Y-99230883D01*
X154135000Y-98889117D01*
X154068325Y-98553919D01*
X153937537Y-98238169D01*
X153747663Y-97954002D01*
X153505998Y-97712337D01*
X153221831Y-97522463D01*
X152906081Y-97391675D01*
X152570883Y-97325000D01*
X152229117Y-97325000D01*
X151893919Y-97391675D01*
X151578169Y-97522463D01*
X151294002Y-97712337D01*
X151052337Y-97954002D01*
X150862463Y-98238169D01*
X150731675Y-98553919D01*
X150665000Y-98889117D01*
X144452668Y-98889117D01*
X140106400Y-94542850D01*
X140106400Y-70036066D01*
X140179795Y-70213256D01*
X140293063Y-70382774D01*
X140437226Y-70526937D01*
X140606744Y-70640205D01*
X140795102Y-70718226D01*
X140995061Y-70758000D01*
X141198939Y-70758000D01*
X141398898Y-70718226D01*
X141587256Y-70640205D01*
X141756774Y-70526937D01*
X141900937Y-70382774D01*
X142014205Y-70213256D01*
X142092226Y-70024898D01*
X142132000Y-69824939D01*
X142132000Y-69621061D01*
X142092226Y-69421102D01*
X142014205Y-69232744D01*
X141900937Y-69063226D01*
X141884400Y-69046689D01*
X141884400Y-56333150D01*
X144911955Y-53305596D01*
X145024589Y-53328000D01*
X145297411Y-53328000D01*
X145564989Y-53274775D01*
X145643600Y-53242213D01*
X145643600Y-53775848D01*
X142599573Y-56819877D01*
X142569532Y-56844531D01*
X142485053Y-56947469D01*
X142471135Y-56964428D01*
X142398018Y-57101218D01*
X142352995Y-57249643D01*
X142337792Y-57404000D01*
X142341601Y-57442673D01*
X142341600Y-79590337D01*
X142337792Y-79629000D01*
X142341600Y-79667663D01*
X142341600Y-79667672D01*
X142352994Y-79783356D01*
X142398018Y-79931782D01*
X142471134Y-80068571D01*
X142569531Y-80188469D01*
X142599578Y-80213128D01*
X144395937Y-82009488D01*
X144381675Y-82043919D01*
X144315000Y-82379117D01*
X144315000Y-82720883D01*
X144381675Y-83056081D01*
X144512463Y-83371831D01*
X144668261Y-83605000D01*
X144633740Y-83605000D01*
X144346842Y-83662068D01*
X144076589Y-83774010D01*
X143833368Y-83936525D01*
X143626525Y-84143368D01*
X143464010Y-84386589D01*
X143352068Y-84656842D01*
X143295000Y-84943740D01*
X143295000Y-85236260D01*
X143352068Y-85523158D01*
X143464010Y-85793411D01*
X143626525Y-86036632D01*
X143833368Y-86243475D01*
X144076589Y-86405990D01*
X144346842Y-86517932D01*
X144633740Y-86575000D01*
X144926260Y-86575000D01*
X145213158Y-86517932D01*
X145483411Y-86405990D01*
X145726632Y-86243475D01*
X145933475Y-86036632D01*
X146095990Y-85793411D01*
X146207932Y-85523158D01*
X146265000Y-85236260D01*
X146265000Y-84943740D01*
X146242471Y-84830475D01*
X147225000Y-84830475D01*
X147225000Y-85349525D01*
X147326261Y-85858601D01*
X147524893Y-86338141D01*
X147813262Y-86769715D01*
X148180285Y-87136738D01*
X148611859Y-87425107D01*
X149091399Y-87623739D01*
X149600475Y-87725000D01*
X150119525Y-87725000D01*
X150628601Y-87623739D01*
X151108141Y-87425107D01*
X151539715Y-87136738D01*
X151906738Y-86769715D01*
X152195107Y-86338141D01*
X152393739Y-85858601D01*
X152495000Y-85349525D01*
X152495000Y-84830475D01*
X152393739Y-84321399D01*
X152195107Y-83841859D01*
X151906738Y-83410285D01*
X151539715Y-83043262D01*
X151108141Y-82754893D01*
X150628601Y-82556261D01*
X150119525Y-82455000D01*
X149600475Y-82455000D01*
X149091399Y-82556261D01*
X148611859Y-82754893D01*
X148180285Y-83043262D01*
X147813262Y-83410285D01*
X147524893Y-83841859D01*
X147326261Y-84321399D01*
X147225000Y-84830475D01*
X146242471Y-84830475D01*
X146207932Y-84656842D01*
X146095990Y-84386589D01*
X146028110Y-84285000D01*
X146220883Y-84285000D01*
X146556081Y-84218325D01*
X146871831Y-84087537D01*
X147155998Y-83897663D01*
X147397663Y-83655998D01*
X147587537Y-83371831D01*
X147718325Y-83056081D01*
X147785000Y-82720883D01*
X147785000Y-82379117D01*
X147718325Y-82043919D01*
X147587537Y-81728169D01*
X147397663Y-81444002D01*
X147155998Y-81202337D01*
X146871831Y-81012463D01*
X146556081Y-80881675D01*
X146220883Y-80815000D01*
X145879117Y-80815000D01*
X145543919Y-80881675D01*
X145509488Y-80895937D01*
X144452668Y-79839117D01*
X150665000Y-79839117D01*
X150665000Y-80180883D01*
X150731675Y-80516081D01*
X150862463Y-80831831D01*
X151052337Y-81115998D01*
X151294002Y-81357663D01*
X151578169Y-81547537D01*
X151893919Y-81678325D01*
X152229117Y-81745000D01*
X152570883Y-81745000D01*
X152906081Y-81678325D01*
X153221831Y-81547537D01*
X153505998Y-81357663D01*
X153747663Y-81115998D01*
X153937537Y-80831831D01*
X154068325Y-80516081D01*
X154135000Y-80180883D01*
X154135000Y-79839117D01*
X154068325Y-79503919D01*
X153937537Y-79188169D01*
X153747663Y-78904002D01*
X153505998Y-78662337D01*
X153221831Y-78472463D01*
X152906081Y-78341675D01*
X152570883Y-78275000D01*
X152229117Y-78275000D01*
X151893919Y-78341675D01*
X151578169Y-78472463D01*
X151294002Y-78662337D01*
X151052337Y-78904002D01*
X150862463Y-79188169D01*
X150731675Y-79503919D01*
X150665000Y-79839117D01*
X144452668Y-79839117D01*
X143916400Y-79302850D01*
X143916400Y-67248955D01*
X144076589Y-67355990D01*
X144346842Y-67467932D01*
X144633740Y-67525000D01*
X144926260Y-67525000D01*
X145213158Y-67467932D01*
X145483411Y-67355990D01*
X145726632Y-67193475D01*
X145933475Y-66986632D01*
X146024601Y-66850252D01*
X146024600Y-76158689D01*
X146008063Y-76175226D01*
X145894795Y-76344744D01*
X145816774Y-76533102D01*
X145777000Y-76733061D01*
X145777000Y-76936939D01*
X145816774Y-77136898D01*
X145894795Y-77325256D01*
X146008063Y-77494774D01*
X146152226Y-77638937D01*
X146321744Y-77752205D01*
X146510102Y-77830226D01*
X146710061Y-77870000D01*
X146913939Y-77870000D01*
X147113898Y-77830226D01*
X147302256Y-77752205D01*
X147471774Y-77638937D01*
X147615937Y-77494774D01*
X147729205Y-77325256D01*
X147807226Y-77136898D01*
X147847000Y-76936939D01*
X147847000Y-76733061D01*
X147807226Y-76533102D01*
X147729205Y-76344744D01*
X147615937Y-76175226D01*
X147599400Y-76158689D01*
X147599400Y-67399648D01*
X147813262Y-67719715D01*
X148180285Y-68086738D01*
X148611859Y-68375107D01*
X149091399Y-68573739D01*
X149600475Y-68675000D01*
X150119525Y-68675000D01*
X150628601Y-68573739D01*
X151108141Y-68375107D01*
X151539715Y-68086738D01*
X151612601Y-68013852D01*
X151612601Y-73745688D01*
X151596063Y-73762226D01*
X151482795Y-73931744D01*
X151404774Y-74120102D01*
X151365000Y-74320061D01*
X151365000Y-74523939D01*
X151404774Y-74723898D01*
X151482795Y-74912256D01*
X151596063Y-75081774D01*
X151740226Y-75225937D01*
X151909744Y-75339205D01*
X152098102Y-75417226D01*
X152298061Y-75457000D01*
X152321450Y-75457000D01*
X156311600Y-79447152D01*
X156311600Y-84520844D01*
X156255990Y-84386589D01*
X156093475Y-84143368D01*
X155886632Y-83936525D01*
X155643411Y-83774010D01*
X155373158Y-83662068D01*
X155086260Y-83605000D01*
X154793740Y-83605000D01*
X154506842Y-83662068D01*
X154236589Y-83774010D01*
X153993368Y-83936525D01*
X153786525Y-84143368D01*
X153624010Y-84386589D01*
X153512068Y-84656842D01*
X153455000Y-84943740D01*
X153455000Y-85236260D01*
X153512068Y-85523158D01*
X153624010Y-85793411D01*
X153786525Y-86036632D01*
X153993368Y-86243475D01*
X154236589Y-86405990D01*
X154506842Y-86517932D01*
X154793740Y-86575000D01*
X155086260Y-86575000D01*
X155373158Y-86517932D01*
X155643411Y-86405990D01*
X155886632Y-86243475D01*
X156093475Y-86036632D01*
X156255990Y-85793411D01*
X156311600Y-85659156D01*
X156311601Y-103570846D01*
X156255990Y-103436589D01*
X156093475Y-103193368D01*
X155886632Y-102986525D01*
X155643411Y-102824010D01*
X155373158Y-102712068D01*
X155086260Y-102655000D01*
X154793740Y-102655000D01*
X154506842Y-102712068D01*
X154236589Y-102824010D01*
X153993368Y-102986525D01*
X153786525Y-103193368D01*
X153624010Y-103436589D01*
X153512068Y-103706842D01*
X153455000Y-103993740D01*
X153455000Y-104286260D01*
X153512068Y-104573158D01*
X153624010Y-104843411D01*
X153786525Y-105086632D01*
X153993368Y-105293475D01*
X154236589Y-105455990D01*
X154506842Y-105567932D01*
X154793740Y-105625000D01*
X155086260Y-105625000D01*
X155373158Y-105567932D01*
X155643411Y-105455990D01*
X155886632Y-105293475D01*
X156093475Y-105086632D01*
X156255990Y-104843411D01*
X156311601Y-104709154D01*
X156311601Y-113084847D01*
X152940513Y-116455937D01*
X152906081Y-116441675D01*
X152570883Y-116375000D01*
X152229117Y-116375000D01*
X151893919Y-116441675D01*
X151578169Y-116572463D01*
X151294002Y-116762337D01*
X151052337Y-117004002D01*
X150862463Y-117288169D01*
X150731675Y-117603919D01*
X150665000Y-117939117D01*
X150665000Y-118280883D01*
X150731675Y-118616081D01*
X150862463Y-118931831D01*
X151052337Y-119215998D01*
X151294002Y-119457663D01*
X151578169Y-119647537D01*
X151893919Y-119778325D01*
X152229117Y-119845000D01*
X152570883Y-119845000D01*
X152906081Y-119778325D01*
X153221831Y-119647537D01*
X153505998Y-119457663D01*
X153747663Y-119215998D01*
X153937537Y-118931831D01*
X154068325Y-118616081D01*
X154135000Y-118280883D01*
X154135000Y-117939117D01*
X154068325Y-117603919D01*
X154054063Y-117569487D01*
X157628433Y-113995119D01*
X157658469Y-113970469D01*
X157683119Y-113940433D01*
X157683122Y-113940430D01*
X157756866Y-113850572D01*
X157829982Y-113713783D01*
X157875006Y-113565357D01*
X157877217Y-113542911D01*
X157886400Y-113449673D01*
X157886400Y-113449665D01*
X157890208Y-113411000D01*
X157886400Y-113372335D01*
X157886400Y-109118061D01*
X161080500Y-109118061D01*
X161080500Y-109321939D01*
X161120274Y-109521898D01*
X161198295Y-109710256D01*
X161311563Y-109879774D01*
X161328100Y-109896311D01*
X161328101Y-110895827D01*
X161324292Y-110934500D01*
X161339495Y-111088857D01*
X161384518Y-111237282D01*
X161384519Y-111237283D01*
X161457635Y-111374072D01*
X161556032Y-111493969D01*
X161586073Y-111518623D01*
X165112861Y-115045413D01*
X165075500Y-115233240D01*
X165075500Y-115525760D01*
X165132568Y-115812658D01*
X165244510Y-116082911D01*
X165407025Y-116326132D01*
X165613868Y-116532975D01*
X165788260Y-116649500D01*
X165613868Y-116766025D01*
X165407025Y-116972868D01*
X165244510Y-117216089D01*
X165132568Y-117486342D01*
X165075500Y-117773240D01*
X165075500Y-118065760D01*
X165132568Y-118352658D01*
X165244510Y-118622911D01*
X165407025Y-118866132D01*
X165613868Y-119072975D01*
X165796034Y-119194695D01*
X165679145Y-119264322D01*
X165462912Y-119459231D01*
X165288859Y-119692580D01*
X165163675Y-119955401D01*
X165119024Y-120102610D01*
X165240345Y-120332500D01*
X166433500Y-120332500D01*
X166433500Y-120312500D01*
X166687500Y-120312500D01*
X166687500Y-120332500D01*
X167880655Y-120332500D01*
X168001976Y-120102610D01*
X167957325Y-119955401D01*
X167832141Y-119692580D01*
X167658088Y-119459231D01*
X167441855Y-119264322D01*
X167324966Y-119194695D01*
X167507132Y-119072975D01*
X167713975Y-118866132D01*
X167820370Y-118706900D01*
X168617327Y-118706900D01*
X168656000Y-118710709D01*
X168694673Y-118706900D01*
X168810357Y-118695506D01*
X168958783Y-118650482D01*
X169095572Y-118577366D01*
X169215469Y-118478969D01*
X169313866Y-118359072D01*
X169386982Y-118222283D01*
X169432006Y-118073857D01*
X169447209Y-117919500D01*
X169443400Y-117880827D01*
X169443400Y-92863865D01*
X169447208Y-92825200D01*
X169443400Y-92786535D01*
X169443400Y-92786527D01*
X169432006Y-92670843D01*
X169386982Y-92522417D01*
X169376574Y-92502945D01*
X169313866Y-92385627D01*
X169240122Y-92295770D01*
X169240119Y-92295767D01*
X169215469Y-92265731D01*
X169185433Y-92241081D01*
X168299427Y-91355077D01*
X168274769Y-91325031D01*
X168154872Y-91226634D01*
X168048572Y-91169815D01*
X168048572Y-91034500D01*
X168036312Y-90910018D01*
X168000002Y-90790320D01*
X167941037Y-90680006D01*
X167861685Y-90583315D01*
X167764994Y-90503963D01*
X167654680Y-90444998D01*
X167534982Y-90408688D01*
X167410500Y-90396428D01*
X165710500Y-90396428D01*
X165586018Y-90408688D01*
X165466320Y-90444998D01*
X165356006Y-90503963D01*
X165259315Y-90583315D01*
X165179963Y-90680006D01*
X165120998Y-90790320D01*
X165084688Y-90910018D01*
X165072428Y-91034500D01*
X165072428Y-92734500D01*
X165084688Y-92858982D01*
X165120998Y-92978680D01*
X165179963Y-93088994D01*
X165259315Y-93185685D01*
X165356006Y-93265037D01*
X165466320Y-93324002D01*
X165546966Y-93348466D01*
X165462912Y-93424231D01*
X165288859Y-93657580D01*
X165163675Y-93920401D01*
X165119024Y-94067610D01*
X165240345Y-94297500D01*
X166433500Y-94297500D01*
X166433500Y-94277500D01*
X166687500Y-94277500D01*
X166687500Y-94297500D01*
X166707500Y-94297500D01*
X166707500Y-94551500D01*
X166687500Y-94551500D01*
X166687500Y-94571500D01*
X166433500Y-94571500D01*
X166433500Y-94551500D01*
X165240345Y-94551500D01*
X165119024Y-94781390D01*
X165163675Y-94928599D01*
X165288859Y-95191420D01*
X165462912Y-95424769D01*
X165679145Y-95619678D01*
X165796034Y-95689305D01*
X165613868Y-95811025D01*
X165407025Y-96017868D01*
X165244510Y-96261089D01*
X165132568Y-96531342D01*
X165075500Y-96818240D01*
X165075500Y-97110760D01*
X165132568Y-97397658D01*
X165244510Y-97667911D01*
X165407025Y-97911132D01*
X165613868Y-98117975D01*
X165857089Y-98280490D01*
X166127342Y-98392432D01*
X166414240Y-98449500D01*
X166706760Y-98449500D01*
X166993658Y-98392432D01*
X167263911Y-98280490D01*
X167507132Y-98117975D01*
X167713975Y-97911132D01*
X167868601Y-97679718D01*
X167868600Y-106466742D01*
X167861685Y-106458315D01*
X167764994Y-106378963D01*
X167654680Y-106319998D01*
X167534982Y-106283688D01*
X167410500Y-106271428D01*
X165710500Y-106271428D01*
X165586018Y-106283688D01*
X165466320Y-106319998D01*
X165356006Y-106378963D01*
X165259315Y-106458315D01*
X165179963Y-106555006D01*
X165120998Y-106665320D01*
X165084688Y-106785018D01*
X165072428Y-106909500D01*
X165072428Y-108609500D01*
X165084688Y-108733982D01*
X165120998Y-108853680D01*
X165179963Y-108963994D01*
X165259315Y-109060685D01*
X165356006Y-109140037D01*
X165466320Y-109199002D01*
X165538880Y-109221013D01*
X165407025Y-109352868D01*
X165244510Y-109596089D01*
X165132568Y-109866342D01*
X165075500Y-110153240D01*
X165075500Y-110445760D01*
X165132568Y-110732658D01*
X165244510Y-111002911D01*
X165407025Y-111246132D01*
X165613868Y-111452975D01*
X165788260Y-111569500D01*
X165613868Y-111686025D01*
X165407025Y-111892868D01*
X165244510Y-112136089D01*
X165132568Y-112406342D01*
X165075500Y-112693240D01*
X165075500Y-112780949D01*
X162902900Y-110608350D01*
X162902900Y-109896311D01*
X162919437Y-109879774D01*
X163032705Y-109710256D01*
X163110726Y-109521898D01*
X163150500Y-109321939D01*
X163150500Y-109118061D01*
X163110726Y-108918102D01*
X163032705Y-108729744D01*
X162919437Y-108560226D01*
X162775274Y-108416063D01*
X162605756Y-108302795D01*
X162417398Y-108224774D01*
X162217439Y-108185000D01*
X162013561Y-108185000D01*
X161813602Y-108224774D01*
X161625244Y-108302795D01*
X161455726Y-108416063D01*
X161311563Y-108560226D01*
X161198295Y-108729744D01*
X161120274Y-108918102D01*
X161080500Y-109118061D01*
X157886400Y-109118061D01*
X157886400Y-79159665D01*
X157890208Y-79121000D01*
X157886400Y-79082335D01*
X157886400Y-79082327D01*
X157875006Y-78966643D01*
X157829982Y-78818217D01*
X157756866Y-78681428D01*
X157683122Y-78591570D01*
X157683119Y-78591567D01*
X157658469Y-78561531D01*
X157628434Y-78536882D01*
X153435000Y-74343450D01*
X153435000Y-74320061D01*
X153395226Y-74120102D01*
X153317205Y-73931744D01*
X153203937Y-73762226D01*
X153187400Y-73745689D01*
X153187400Y-62511799D01*
X153221831Y-62497537D01*
X153505998Y-62307663D01*
X153747663Y-62065998D01*
X153937537Y-61781831D01*
X154068325Y-61466081D01*
X154135000Y-61130883D01*
X154135000Y-60789117D01*
X154068325Y-60453919D01*
X153937537Y-60138169D01*
X153747663Y-59854002D01*
X153505998Y-59612337D01*
X153221831Y-59422463D01*
X152906081Y-59291675D01*
X152570883Y-59225000D01*
X152454551Y-59225000D01*
X153310434Y-58369118D01*
X153340469Y-58344469D01*
X153365119Y-58314433D01*
X153365122Y-58314430D01*
X153438866Y-58224573D01*
X153511982Y-58087783D01*
X153557006Y-57939357D01*
X153565043Y-57857752D01*
X153568400Y-57823673D01*
X153568400Y-57823665D01*
X153572208Y-57785000D01*
X153568400Y-57746335D01*
X153568400Y-53082601D01*
X153663886Y-53018799D01*
X153856799Y-52825886D01*
X154008371Y-52599043D01*
X154051000Y-52496127D01*
X154093629Y-52599043D01*
X154245201Y-52825886D01*
X154438114Y-53018799D01*
X154664957Y-53170371D01*
X154917011Y-53274775D01*
X155184589Y-53328000D01*
X155457411Y-53328000D01*
X155570044Y-53305596D01*
X155803600Y-53539152D01*
X155803601Y-64831045D01*
X155643411Y-64724010D01*
X155373158Y-64612068D01*
X155086260Y-64555000D01*
X154793740Y-64555000D01*
X154506842Y-64612068D01*
X154236589Y-64724010D01*
X153993368Y-64886525D01*
X153786525Y-65093368D01*
X153624010Y-65336589D01*
X153512068Y-65606842D01*
X153455000Y-65893740D01*
X153455000Y-66186260D01*
X153512068Y-66473158D01*
X153624010Y-66743411D01*
X153786525Y-66986632D01*
X153993368Y-67193475D01*
X154236589Y-67355990D01*
X154506842Y-67467932D01*
X154793740Y-67525000D01*
X155086260Y-67525000D01*
X155373158Y-67467932D01*
X155643411Y-67355990D01*
X155803601Y-67248955D01*
X155803601Y-70316688D01*
X155787063Y-70333226D01*
X155673795Y-70502744D01*
X155595774Y-70691102D01*
X155556000Y-70891061D01*
X155556000Y-71094939D01*
X155595774Y-71294898D01*
X155673795Y-71483256D01*
X155787063Y-71652774D01*
X155931226Y-71796937D01*
X156100744Y-71910205D01*
X156289102Y-71988226D01*
X156489061Y-72028000D01*
X156692939Y-72028000D01*
X156892898Y-71988226D01*
X157081256Y-71910205D01*
X157250774Y-71796937D01*
X157394937Y-71652774D01*
X157508205Y-71483256D01*
X157586226Y-71294898D01*
X157626000Y-71094939D01*
X157626000Y-70891061D01*
X157586226Y-70691102D01*
X157508205Y-70502744D01*
X157394937Y-70333226D01*
X157378400Y-70316689D01*
X157378400Y-53251662D01*
X157379294Y-53242584D01*
X157457011Y-53274775D01*
X157724589Y-53328000D01*
X157997411Y-53328000D01*
X158264989Y-53274775D01*
X158517043Y-53170371D01*
X158743886Y-53018799D01*
X158936799Y-52825886D01*
X159088371Y-52599043D01*
X159131000Y-52496127D01*
X159173629Y-52599043D01*
X159325201Y-52825886D01*
X159518114Y-53018799D01*
X159744957Y-53170371D01*
X159997011Y-53274775D01*
X160264589Y-53328000D01*
X160537411Y-53328000D01*
X160804989Y-53274775D01*
X161057043Y-53170371D01*
X161283886Y-53018799D01*
X161476799Y-52825886D01*
X161628371Y-52599043D01*
X161732775Y-52346989D01*
X161786000Y-52079411D01*
X161786000Y-51806589D01*
X161732775Y-51539011D01*
X161628371Y-51286957D01*
X161476799Y-51060114D01*
X161283886Y-50867201D01*
X161057043Y-50715629D01*
X160804989Y-50611225D01*
X160537411Y-50558000D01*
X160264589Y-50558000D01*
X159997011Y-50611225D01*
X159744957Y-50715629D01*
X159518114Y-50867201D01*
X159325201Y-51060114D01*
X159173629Y-51286957D01*
X159131000Y-51389873D01*
X159088371Y-51286957D01*
X158936799Y-51060114D01*
X158743886Y-50867201D01*
X158517043Y-50715629D01*
X158264989Y-50611225D01*
X157997411Y-50558000D01*
X157724589Y-50558000D01*
X157457011Y-50611225D01*
X157204957Y-50715629D01*
X156978114Y-50867201D01*
X156785201Y-51060114D01*
X156633629Y-51286957D01*
X156591000Y-51389873D01*
X156548371Y-51286957D01*
X156396799Y-51060114D01*
X156203886Y-50867201D01*
X155977043Y-50715629D01*
X155724989Y-50611225D01*
X155457411Y-50558000D01*
X155184589Y-50558000D01*
X154917011Y-50611225D01*
X154664957Y-50715629D01*
X154438114Y-50867201D01*
X154245201Y-51060114D01*
X154093629Y-51286957D01*
X154051000Y-51389873D01*
X154008371Y-51286957D01*
X153856799Y-51060114D01*
X153663886Y-50867201D01*
X153437043Y-50715629D01*
X153184989Y-50611225D01*
X152917411Y-50558000D01*
X152644589Y-50558000D01*
X152377011Y-50611225D01*
X152124957Y-50715629D01*
X151898114Y-50867201D01*
X151705201Y-51060114D01*
X151553629Y-51286957D01*
X151511000Y-51389873D01*
X151468371Y-51286957D01*
X151316799Y-51060114D01*
X151123886Y-50867201D01*
X150897043Y-50715629D01*
X150644989Y-50611225D01*
X150377411Y-50558000D01*
X150104589Y-50558000D01*
X149837011Y-50611225D01*
X149758400Y-50643787D01*
X149758400Y-46520664D01*
X149762208Y-46482001D01*
X149758400Y-46443338D01*
X149758400Y-46443329D01*
X149747006Y-46327645D01*
X149701982Y-46179219D01*
X149628866Y-46042430D01*
X149530469Y-45922533D01*
X149500428Y-45897879D01*
X148735998Y-45133450D01*
X148735998Y-45110061D01*
X148696224Y-44910102D01*
X148618203Y-44721744D01*
X148504935Y-44552226D01*
X148488400Y-44535691D01*
X148488400Y-42937033D01*
X148591535Y-42868120D01*
X148786120Y-42673535D01*
X148939005Y-42444727D01*
X148971000Y-42367485D01*
X149002995Y-42444727D01*
X149155880Y-42673535D01*
X149350465Y-42868120D01*
X149453600Y-42937033D01*
X149453601Y-43773688D01*
X149437063Y-43790226D01*
X149323795Y-43959744D01*
X149245774Y-44148102D01*
X149206000Y-44348061D01*
X149206000Y-44551939D01*
X149245774Y-44751898D01*
X149323795Y-44940256D01*
X149437063Y-45109774D01*
X149581226Y-45253937D01*
X149750744Y-45367205D01*
X149939102Y-45445226D01*
X150139061Y-45485000D01*
X150342939Y-45485000D01*
X150542898Y-45445226D01*
X150731256Y-45367205D01*
X150900774Y-45253937D01*
X151044937Y-45109774D01*
X151158205Y-44940256D01*
X151236226Y-44751898D01*
X151276000Y-44551939D01*
X151276000Y-44348061D01*
X151236226Y-44148102D01*
X151158205Y-43959744D01*
X151044937Y-43790226D01*
X151028400Y-43773689D01*
X151028400Y-42937033D01*
X151131535Y-42868120D01*
X151326120Y-42673535D01*
X151479005Y-42444727D01*
X151517494Y-42351806D01*
X151553629Y-42439043D01*
X151705201Y-42665886D01*
X151898114Y-42858799D01*
X152124957Y-43010371D01*
X152377011Y-43114775D01*
X152644589Y-43168000D01*
X152917411Y-43168000D01*
X153184989Y-43114775D01*
X153437043Y-43010371D01*
X153663886Y-42858799D01*
X153856799Y-42665886D01*
X154008371Y-42439043D01*
X154051000Y-42336127D01*
X154093629Y-42439043D01*
X154245201Y-42665886D01*
X154438114Y-42858799D01*
X154664957Y-43010371D01*
X154917011Y-43114775D01*
X155184589Y-43168000D01*
X155457411Y-43168000D01*
X155724989Y-43114775D01*
X155977043Y-43010371D01*
X156203886Y-42858799D01*
X156396799Y-42665886D01*
X156548371Y-42439043D01*
X156591000Y-42336127D01*
X156633629Y-42439043D01*
X156785201Y-42665886D01*
X156978114Y-42858799D01*
X157204957Y-43010371D01*
X157457011Y-43114775D01*
X157724589Y-43168000D01*
X157997411Y-43168000D01*
X158264989Y-43114775D01*
X158517043Y-43010371D01*
X158743886Y-42858799D01*
X158936799Y-42665886D01*
X159088371Y-42439043D01*
X159131000Y-42336127D01*
X159173629Y-42439043D01*
X159325201Y-42665886D01*
X159518114Y-42858799D01*
X159744957Y-43010371D01*
X159997011Y-43114775D01*
X160264589Y-43168000D01*
X160537411Y-43168000D01*
X160804989Y-43114775D01*
X161057043Y-43010371D01*
X161283886Y-42858799D01*
X161476799Y-42665886D01*
X161628371Y-42439043D01*
X161732775Y-42186989D01*
X161786000Y-41919411D01*
X161786000Y-41646589D01*
X161732775Y-41379011D01*
X161628371Y-41126957D01*
X161476799Y-40900114D01*
X161283886Y-40707201D01*
X161057043Y-40555629D01*
X160804989Y-40451225D01*
X160537411Y-40398000D01*
X160264589Y-40398000D01*
X159997011Y-40451225D01*
X159744957Y-40555629D01*
X159518114Y-40707201D01*
X159325201Y-40900114D01*
X159173629Y-41126957D01*
X159131000Y-41229873D01*
X159088371Y-41126957D01*
X158936799Y-40900114D01*
X158743886Y-40707201D01*
X158517043Y-40555629D01*
X158264989Y-40451225D01*
X157997411Y-40398000D01*
X157724589Y-40398000D01*
X157457011Y-40451225D01*
X157204957Y-40555629D01*
X156978114Y-40707201D01*
X156785201Y-40900114D01*
X156633629Y-41126957D01*
X156591000Y-41229873D01*
X156548371Y-41126957D01*
X156396799Y-40900114D01*
X156203886Y-40707201D01*
X155977043Y-40555629D01*
X155724989Y-40451225D01*
X155457411Y-40398000D01*
X155184589Y-40398000D01*
X154917011Y-40451225D01*
X154664957Y-40555629D01*
X154438114Y-40707201D01*
X154245201Y-40900114D01*
X154093629Y-41126957D01*
X154051000Y-41229873D01*
X154008371Y-41126957D01*
X153856799Y-40900114D01*
X153663886Y-40707201D01*
X153437043Y-40555629D01*
X153184989Y-40451225D01*
X152917411Y-40398000D01*
X152644589Y-40398000D01*
X152377011Y-40451225D01*
X152124957Y-40555629D01*
X151898114Y-40707201D01*
X151705201Y-40900114D01*
X151553629Y-41126957D01*
X151517494Y-41214194D01*
X151479005Y-41121273D01*
X151326120Y-40892465D01*
X151131535Y-40697880D01*
X150902727Y-40544995D01*
X150648490Y-40439686D01*
X150378592Y-40386000D01*
X150103408Y-40386000D01*
X149833510Y-40439686D01*
X149579273Y-40544995D01*
X149350465Y-40697880D01*
X149155880Y-40892465D01*
X149002995Y-41121273D01*
X148971000Y-41198515D01*
X148939005Y-41121273D01*
X148786120Y-40892465D01*
X148591535Y-40697880D01*
X148362727Y-40544995D01*
X148108490Y-40439686D01*
X147838592Y-40386000D01*
X147563408Y-40386000D01*
X147293510Y-40439686D01*
X147039273Y-40544995D01*
X146810465Y-40697880D01*
X146615880Y-40892465D01*
X146462995Y-41121273D01*
X146424506Y-41214194D01*
X146388371Y-41126957D01*
X146236799Y-40900114D01*
X146043886Y-40707201D01*
X145817043Y-40555629D01*
X145564989Y-40451225D01*
X145297411Y-40398000D01*
X145024589Y-40398000D01*
X144757011Y-40451225D01*
X144504957Y-40555629D01*
X144278114Y-40707201D01*
X144085201Y-40900114D01*
X143933629Y-41126957D01*
X143891000Y-41229873D01*
X143848371Y-41126957D01*
X143696799Y-40900114D01*
X143503886Y-40707201D01*
X143277043Y-40555629D01*
X143024989Y-40451225D01*
X142757411Y-40398000D01*
X142484589Y-40398000D01*
X142217011Y-40451225D01*
X141964957Y-40555629D01*
X141738114Y-40707201D01*
X141545201Y-40900114D01*
X141481399Y-40995600D01*
X139230665Y-40995600D01*
X139192000Y-40991792D01*
X139153335Y-40995600D01*
X139153327Y-40995600D01*
X139037643Y-41006994D01*
X138889217Y-41052018D01*
X138752427Y-41125134D01*
X138662570Y-41198878D01*
X138662567Y-41198881D01*
X138632531Y-41223531D01*
X138607881Y-41253567D01*
X136865561Y-42995889D01*
X136835520Y-43020543D01*
X136810867Y-43050583D01*
X136737123Y-43140440D01*
X136664006Y-43277230D01*
X136618983Y-43425655D01*
X136603780Y-43580012D01*
X136607589Y-43618685D01*
X136607589Y-45883125D01*
X136496799Y-46048934D01*
X136418778Y-46237292D01*
X136379004Y-46437251D01*
X136379004Y-46641129D01*
X136418778Y-46841088D01*
X136496799Y-47029446D01*
X136607589Y-47195255D01*
X136607589Y-64733483D01*
X136593411Y-64724010D01*
X136323158Y-64612068D01*
X136036260Y-64555000D01*
X135743740Y-64555000D01*
X135456842Y-64612068D01*
X135186589Y-64724010D01*
X134943368Y-64886525D01*
X134736525Y-65093368D01*
X134574010Y-65336589D01*
X134462068Y-65606842D01*
X134405000Y-65893740D01*
X134405000Y-66186260D01*
X134462068Y-66473158D01*
X134574010Y-66743411D01*
X134736525Y-66986632D01*
X134943368Y-67193475D01*
X135186589Y-67355990D01*
X135456842Y-67467932D01*
X135743740Y-67525000D01*
X136036260Y-67525000D01*
X136323158Y-67467932D01*
X136593411Y-67355990D01*
X136607589Y-67346517D01*
X136607588Y-83783483D01*
X136593411Y-83774010D01*
X136323158Y-83662068D01*
X136036260Y-83605000D01*
X135743740Y-83605000D01*
X135456842Y-83662068D01*
X135186589Y-83774010D01*
X134943368Y-83936525D01*
X134736525Y-84143368D01*
X134574010Y-84386589D01*
X134462068Y-84656842D01*
X134405000Y-84943740D01*
X134405000Y-85236260D01*
X134462068Y-85523158D01*
X134574010Y-85793411D01*
X134736525Y-86036632D01*
X134943368Y-86243475D01*
X135186589Y-86405990D01*
X135456842Y-86517932D01*
X135743740Y-86575000D01*
X136036260Y-86575000D01*
X136323158Y-86517932D01*
X136593411Y-86405990D01*
X136607588Y-86396517D01*
X136607588Y-90878861D01*
X127540513Y-99945937D01*
X127506081Y-99931675D01*
X127170883Y-99865000D01*
X126829117Y-99865000D01*
X126493919Y-99931675D01*
X126178169Y-100062463D01*
X125894002Y-100252337D01*
X125652337Y-100494002D01*
X125462463Y-100778169D01*
X125331675Y-101093919D01*
X125265000Y-101429117D01*
X125265000Y-101770883D01*
X125331675Y-102106081D01*
X125462463Y-102421831D01*
X125618261Y-102655000D01*
X125583740Y-102655000D01*
X125296842Y-102712068D01*
X125026589Y-102824010D01*
X124783368Y-102986525D01*
X124576525Y-103193368D01*
X124414010Y-103436589D01*
X124302068Y-103706842D01*
X124245000Y-103993740D01*
X118325000Y-103993740D01*
X118267932Y-103706842D01*
X118155990Y-103436589D01*
X117993475Y-103193368D01*
X117786632Y-102986525D01*
X117543411Y-102824010D01*
X117273158Y-102712068D01*
X116986260Y-102655000D01*
X116693740Y-102655000D01*
X116406842Y-102712068D01*
X116136589Y-102824010D01*
X115893368Y-102986525D01*
X115686525Y-103193368D01*
X115524010Y-103436589D01*
X115412068Y-103706842D01*
X115355000Y-103993740D01*
X114395000Y-103993740D01*
X114395000Y-103880475D01*
X114293739Y-103371399D01*
X114095107Y-102891859D01*
X113806738Y-102460285D01*
X113439715Y-102093262D01*
X113008141Y-101804893D01*
X112528601Y-101606261D01*
X112019525Y-101505000D01*
X111500475Y-101505000D01*
X110991399Y-101606261D01*
X110511859Y-101804893D01*
X110080285Y-102093262D01*
X109713262Y-102460285D01*
X109424893Y-102891859D01*
X109226261Y-103371399D01*
X109125000Y-103880475D01*
X108142471Y-103880475D01*
X108107932Y-103706842D01*
X107995990Y-103436589D01*
X107928110Y-103335000D01*
X108120883Y-103335000D01*
X108456081Y-103268325D01*
X108771831Y-103137537D01*
X109055998Y-102947663D01*
X109297663Y-102705998D01*
X109487537Y-102421831D01*
X109618325Y-102106081D01*
X109685000Y-101770883D01*
X109685000Y-101429117D01*
X109618325Y-101093919D01*
X109487537Y-100778169D01*
X109297663Y-100494002D01*
X109055998Y-100252337D01*
X108771831Y-100062463D01*
X108456081Y-99931675D01*
X108120883Y-99865000D01*
X107779117Y-99865000D01*
X107443919Y-99931675D01*
X107319685Y-99983134D01*
X104673400Y-97336850D01*
X104673400Y-84943740D01*
X105195000Y-84943740D01*
X105195000Y-85236260D01*
X105252068Y-85523158D01*
X105364010Y-85793411D01*
X105526525Y-86036632D01*
X105733368Y-86243475D01*
X105976589Y-86405990D01*
X106246842Y-86517932D01*
X106533740Y-86575000D01*
X106826260Y-86575000D01*
X107113158Y-86517932D01*
X107383411Y-86405990D01*
X107626632Y-86243475D01*
X107833475Y-86036632D01*
X107995990Y-85793411D01*
X108107932Y-85523158D01*
X108165000Y-85236260D01*
X108165000Y-84943740D01*
X108107932Y-84656842D01*
X107995990Y-84386589D01*
X107928110Y-84285000D01*
X108120883Y-84285000D01*
X108456081Y-84218325D01*
X108771831Y-84087537D01*
X109055998Y-83897663D01*
X109297663Y-83655998D01*
X109487537Y-83371831D01*
X109618325Y-83056081D01*
X109685000Y-82720883D01*
X109685000Y-82379117D01*
X109618325Y-82043919D01*
X109487537Y-81728169D01*
X109297663Y-81444002D01*
X109055998Y-81202337D01*
X108771831Y-81012463D01*
X108456081Y-80881675D01*
X108120883Y-80815000D01*
X107779117Y-80815000D01*
X107443919Y-80881675D01*
X107128169Y-81012463D01*
X106844002Y-81202337D01*
X106602337Y-81444002D01*
X106412463Y-81728169D01*
X106281675Y-82043919D01*
X106215000Y-82379117D01*
X106215000Y-82720883D01*
X106281675Y-83056081D01*
X106412463Y-83371831D01*
X106568261Y-83605000D01*
X106533740Y-83605000D01*
X106246842Y-83662068D01*
X105976589Y-83774010D01*
X105733368Y-83936525D01*
X105526525Y-84143368D01*
X105364010Y-84386589D01*
X105252068Y-84656842D01*
X105195000Y-84943740D01*
X104673400Y-84943740D01*
X104673400Y-65192311D01*
X104689937Y-65175774D01*
X104803205Y-65006256D01*
X104881226Y-64817898D01*
X104921000Y-64617939D01*
X104921000Y-64583434D01*
X104943865Y-64555573D01*
X105016981Y-64418784D01*
X105062005Y-64270358D01*
X105073399Y-64154674D01*
X105073399Y-64154665D01*
X105077207Y-64116002D01*
X105073399Y-64077339D01*
X105073399Y-58600151D01*
X106409424Y-57264127D01*
X106446774Y-57451898D01*
X106524795Y-57640256D01*
X106638063Y-57809774D01*
X106654600Y-57826311D01*
X106654601Y-62341738D01*
X106602337Y-62394002D01*
X106412463Y-62678169D01*
X106281675Y-62993919D01*
X106215000Y-63329117D01*
X106215000Y-63670883D01*
X106281675Y-64006081D01*
X106412463Y-64321831D01*
X106568261Y-64555000D01*
X106533740Y-64555000D01*
X106246842Y-64612068D01*
X105976589Y-64724010D01*
X105733368Y-64886525D01*
X105526525Y-65093368D01*
X105364010Y-65336589D01*
X105252068Y-65606842D01*
X105195000Y-65893740D01*
X105195000Y-66186260D01*
X105252068Y-66473158D01*
X105364010Y-66743411D01*
X105526525Y-66986632D01*
X105733368Y-67193475D01*
X105976589Y-67355990D01*
X106246842Y-67467932D01*
X106533740Y-67525000D01*
X106826260Y-67525000D01*
X107113158Y-67467932D01*
X107383411Y-67355990D01*
X107626632Y-67193475D01*
X107833475Y-66986632D01*
X107995990Y-66743411D01*
X108107932Y-66473158D01*
X108165000Y-66186260D01*
X108165000Y-65893740D01*
X108107932Y-65606842D01*
X107995990Y-65336589D01*
X107928110Y-65235000D01*
X108120883Y-65235000D01*
X108456081Y-65168325D01*
X108771831Y-65037537D01*
X109055998Y-64847663D01*
X109297663Y-64605998D01*
X109487537Y-64321831D01*
X109618325Y-64006081D01*
X109685000Y-63670883D01*
X109685000Y-63329117D01*
X109618325Y-62993919D01*
X109487537Y-62678169D01*
X109297663Y-62394002D01*
X109055998Y-62152337D01*
X108771831Y-61962463D01*
X108456081Y-61831675D01*
X108229400Y-61786585D01*
X108229400Y-58578376D01*
X108410102Y-58653226D01*
X108610061Y-58693000D01*
X108813939Y-58693000D01*
X109013898Y-58653226D01*
X109202256Y-58575205D01*
X109371774Y-58461937D01*
X109515937Y-58317774D01*
X109629205Y-58148256D01*
X109707226Y-57959898D01*
X109747000Y-57759939D01*
X109747000Y-57556061D01*
X109707226Y-57356102D01*
X109629205Y-57167744D01*
X109515937Y-56998226D01*
X109499400Y-56981689D01*
X109499400Y-53242213D01*
X109578011Y-53274775D01*
X109845589Y-53328000D01*
X110118411Y-53328000D01*
X110385989Y-53274775D01*
X110464601Y-53242213D01*
X110464601Y-58855848D01*
X109903450Y-59417000D01*
X109880061Y-59417000D01*
X109680102Y-59456774D01*
X109491744Y-59534795D01*
X109322226Y-59648063D01*
X109178063Y-59792226D01*
X109064795Y-59961744D01*
X108986774Y-60150102D01*
X108947000Y-60350061D01*
X108947000Y-60553939D01*
X108986774Y-60753898D01*
X109064795Y-60942256D01*
X109178063Y-61111774D01*
X109322226Y-61255937D01*
X109491744Y-61369205D01*
X109680102Y-61447226D01*
X109880061Y-61487000D01*
X110083939Y-61487000D01*
X110283898Y-61447226D01*
X110472256Y-61369205D01*
X110641774Y-61255937D01*
X110785937Y-61111774D01*
X110899205Y-60942256D01*
X110977226Y-60753898D01*
X111017000Y-60553939D01*
X111017000Y-60530550D01*
X111781433Y-59766119D01*
X111811469Y-59741469D01*
X111866378Y-59674563D01*
X111909865Y-59621573D01*
X111918758Y-59604937D01*
X111982982Y-59484783D01*
X112028006Y-59336357D01*
X112039400Y-59220673D01*
X112039400Y-59220664D01*
X112043208Y-59182001D01*
X112039400Y-59143338D01*
X112039400Y-53242213D01*
X112118011Y-53274775D01*
X112385589Y-53328000D01*
X112658411Y-53328000D01*
X112925989Y-53274775D01*
X113178043Y-53170371D01*
X113404886Y-53018799D01*
X113597799Y-52825886D01*
X113749371Y-52599043D01*
X113792000Y-52496127D01*
X113834629Y-52599043D01*
X113986201Y-52825886D01*
X114179114Y-53018799D01*
X114405957Y-53170371D01*
X114658011Y-53274775D01*
X114925589Y-53328000D01*
X115198411Y-53328000D01*
X115465989Y-53274775D01*
X115544601Y-53242213D01*
X115544600Y-58601849D01*
X114840512Y-59305937D01*
X114806081Y-59291675D01*
X114470883Y-59225000D01*
X114129117Y-59225000D01*
X113793919Y-59291675D01*
X113478169Y-59422463D01*
X113194002Y-59612337D01*
X112952337Y-59854002D01*
X112762463Y-60138169D01*
X112631675Y-60453919D01*
X112565000Y-60789117D01*
X112565000Y-61130883D01*
X112631675Y-61466081D01*
X112762463Y-61781831D01*
X112952337Y-62065998D01*
X113194002Y-62307663D01*
X113478169Y-62497537D01*
X113512601Y-62511799D01*
X113512601Y-64066148D01*
X113439715Y-63993262D01*
X113008141Y-63704893D01*
X112528601Y-63506261D01*
X112019525Y-63405000D01*
X111500475Y-63405000D01*
X110991399Y-63506261D01*
X110511859Y-63704893D01*
X110080285Y-63993262D01*
X109713262Y-64360285D01*
X109424893Y-64791859D01*
X109226261Y-65271399D01*
X109125000Y-65780475D01*
X109125000Y-66299525D01*
X109226261Y-66808601D01*
X109424893Y-67288141D01*
X109713262Y-67719715D01*
X110080285Y-68086738D01*
X110511859Y-68375107D01*
X110991399Y-68573739D01*
X111500475Y-68675000D01*
X112019525Y-68675000D01*
X112528601Y-68573739D01*
X113008141Y-68375107D01*
X113439715Y-68086738D01*
X113512601Y-68013852D01*
X113512600Y-78458201D01*
X113478169Y-78472463D01*
X113194002Y-78662337D01*
X112952337Y-78904002D01*
X112762463Y-79188169D01*
X112631675Y-79503919D01*
X112565000Y-79839117D01*
X112565000Y-80180883D01*
X112631675Y-80516081D01*
X112762463Y-80831831D01*
X112952337Y-81115998D01*
X113194002Y-81357663D01*
X113478169Y-81547537D01*
X113512601Y-81561799D01*
X113512601Y-83116148D01*
X113439715Y-83043262D01*
X113008141Y-82754893D01*
X112528601Y-82556261D01*
X112019525Y-82455000D01*
X111500475Y-82455000D01*
X110991399Y-82556261D01*
X110511859Y-82754893D01*
X110080285Y-83043262D01*
X109713262Y-83410285D01*
X109424893Y-83841859D01*
X109226261Y-84321399D01*
X109125000Y-84830475D01*
X109125000Y-85349525D01*
X109226261Y-85858601D01*
X109424893Y-86338141D01*
X109713262Y-86769715D01*
X110080285Y-87136738D01*
X110511859Y-87425107D01*
X110991399Y-87623739D01*
X111500475Y-87725000D01*
X112019525Y-87725000D01*
X112528601Y-87623739D01*
X113008141Y-87425107D01*
X113439715Y-87136738D01*
X113512601Y-87063852D01*
X113512600Y-97508201D01*
X113478169Y-97522463D01*
X113194002Y-97712337D01*
X112952337Y-97954002D01*
X112762463Y-98238169D01*
X112631675Y-98553919D01*
X112565000Y-98889117D01*
X112565000Y-99230883D01*
X112631675Y-99566081D01*
X112762463Y-99881831D01*
X112952337Y-100165998D01*
X113194002Y-100407663D01*
X113478169Y-100597537D01*
X113793919Y-100728325D01*
X114129117Y-100795000D01*
X114470883Y-100795000D01*
X114806081Y-100728325D01*
X115121831Y-100597537D01*
X115405998Y-100407663D01*
X115647663Y-100165998D01*
X115837537Y-99881831D01*
X115968325Y-99566081D01*
X116035000Y-99230883D01*
X116035000Y-98889117D01*
X115968325Y-98553919D01*
X115837537Y-98238169D01*
X115647663Y-97954002D01*
X115405998Y-97712337D01*
X115121831Y-97522463D01*
X115087400Y-97508201D01*
X115087400Y-84943740D01*
X115355000Y-84943740D01*
X115355000Y-85236260D01*
X115412068Y-85523158D01*
X115524010Y-85793411D01*
X115686525Y-86036632D01*
X115893368Y-86243475D01*
X116136589Y-86405990D01*
X116406842Y-86517932D01*
X116693740Y-86575000D01*
X116986260Y-86575000D01*
X117273158Y-86517932D01*
X117543411Y-86405990D01*
X117786632Y-86243475D01*
X117993475Y-86036632D01*
X118155990Y-85793411D01*
X118267932Y-85523158D01*
X118325000Y-85236260D01*
X118325000Y-84943740D01*
X118267932Y-84656842D01*
X118155990Y-84386589D01*
X117993475Y-84143368D01*
X117786632Y-83936525D01*
X117543411Y-83774010D01*
X117273158Y-83662068D01*
X116986260Y-83605000D01*
X116693740Y-83605000D01*
X116406842Y-83662068D01*
X116136589Y-83774010D01*
X115893368Y-83936525D01*
X115686525Y-84143368D01*
X115524010Y-84386589D01*
X115412068Y-84656842D01*
X115355000Y-84943740D01*
X115087400Y-84943740D01*
X115087400Y-81561799D01*
X115121831Y-81547537D01*
X115405998Y-81357663D01*
X115647663Y-81115998D01*
X115837537Y-80831831D01*
X115968325Y-80516081D01*
X116035000Y-80180883D01*
X116035000Y-79839117D01*
X115968325Y-79503919D01*
X115837537Y-79188169D01*
X115647663Y-78904002D01*
X115405998Y-78662337D01*
X115121831Y-78472463D01*
X115087400Y-78458201D01*
X115087400Y-65893740D01*
X115355000Y-65893740D01*
X115355000Y-66186260D01*
X115412068Y-66473158D01*
X115524010Y-66743411D01*
X115686525Y-66986632D01*
X115893368Y-67193475D01*
X116136589Y-67355990D01*
X116406842Y-67467932D01*
X116693740Y-67525000D01*
X116986260Y-67525000D01*
X117273158Y-67467932D01*
X117543411Y-67355990D01*
X117786632Y-67193475D01*
X117993475Y-66986632D01*
X118155990Y-66743411D01*
X118267932Y-66473158D01*
X118325000Y-66186260D01*
X118325000Y-65893740D01*
X118267932Y-65606842D01*
X118155990Y-65336589D01*
X117993475Y-65093368D01*
X117786632Y-64886525D01*
X117543411Y-64724010D01*
X117273158Y-64612068D01*
X116986260Y-64555000D01*
X116693740Y-64555000D01*
X116406842Y-64612068D01*
X116136589Y-64724010D01*
X115893368Y-64886525D01*
X115686525Y-65093368D01*
X115524010Y-65336589D01*
X115412068Y-65606842D01*
X115355000Y-65893740D01*
X115087400Y-65893740D01*
X115087400Y-62511799D01*
X115121831Y-62497537D01*
X115405998Y-62307663D01*
X115647663Y-62065998D01*
X115837537Y-61781831D01*
X115968325Y-61466081D01*
X116035000Y-61130883D01*
X116035000Y-60789117D01*
X115968325Y-60453919D01*
X115954063Y-60419488D01*
X116861429Y-59512122D01*
X116891469Y-59487469D01*
X116948262Y-59418267D01*
X116989866Y-59367573D01*
X117062982Y-59230783D01*
X117066080Y-59220570D01*
X117108006Y-59082357D01*
X117119400Y-58966673D01*
X117119400Y-58966663D01*
X117123208Y-58928000D01*
X117119400Y-58889337D01*
X117119400Y-53242213D01*
X117198011Y-53274775D01*
X117465589Y-53328000D01*
X117738411Y-53328000D01*
X117851045Y-53305595D01*
X126212600Y-61667151D01*
X126212600Y-61948201D01*
X126178169Y-61962463D01*
X125894002Y-62152337D01*
X125652337Y-62394002D01*
X125462463Y-62678169D01*
X125331675Y-62993919D01*
X125265000Y-63329117D01*
X125265000Y-63670883D01*
X125331675Y-64006081D01*
X125462463Y-64321831D01*
X125618261Y-64555000D01*
X125583740Y-64555000D01*
X125296842Y-64612068D01*
X125026589Y-64724010D01*
X124783368Y-64886525D01*
X124576525Y-65093368D01*
X124414010Y-65336589D01*
X124302068Y-65606842D01*
X124245000Y-65893740D01*
X124245000Y-66186260D01*
X124302068Y-66473158D01*
X124414010Y-66743411D01*
X124576525Y-66986632D01*
X124783368Y-67193475D01*
X125026589Y-67355990D01*
X125296842Y-67467932D01*
X125583740Y-67525000D01*
X125876260Y-67525000D01*
X126163158Y-67467932D01*
X126433411Y-67355990D01*
X126676632Y-67193475D01*
X126883475Y-66986632D01*
X127045990Y-66743411D01*
X127101600Y-66609155D01*
X127101600Y-66856849D01*
X126470573Y-67487877D01*
X126440532Y-67512531D01*
X126415879Y-67542571D01*
X126342135Y-67632428D01*
X126269018Y-67769218D01*
X126223995Y-67917643D01*
X126208792Y-68072000D01*
X126212601Y-68110673D01*
X126212600Y-80998201D01*
X126178169Y-81012463D01*
X125894002Y-81202337D01*
X125652337Y-81444002D01*
X125462463Y-81728169D01*
X125331675Y-82043919D01*
X125265000Y-82379117D01*
X125265000Y-82720883D01*
X125331675Y-83056081D01*
X125462463Y-83371831D01*
X125618261Y-83605000D01*
X125583740Y-83605000D01*
X125296842Y-83662068D01*
X125026589Y-83774010D01*
X124783368Y-83936525D01*
X124576525Y-84143368D01*
X124414010Y-84386589D01*
X124302068Y-84656842D01*
X124245000Y-84943740D01*
X124245000Y-85236260D01*
X124302068Y-85523158D01*
X124414010Y-85793411D01*
X124576525Y-86036632D01*
X124783368Y-86243475D01*
X125026589Y-86405990D01*
X125296842Y-86517932D01*
X125583740Y-86575000D01*
X125876260Y-86575000D01*
X126163158Y-86517932D01*
X126433411Y-86405990D01*
X126676632Y-86243475D01*
X126883475Y-86036632D01*
X127045990Y-85793411D01*
X127157932Y-85523158D01*
X127215000Y-85236260D01*
X127215000Y-84943740D01*
X127192471Y-84830475D01*
X128175000Y-84830475D01*
X128175000Y-85349525D01*
X128276261Y-85858601D01*
X128474893Y-86338141D01*
X128763262Y-86769715D01*
X129130285Y-87136738D01*
X129561859Y-87425107D01*
X130041399Y-87623739D01*
X130550475Y-87725000D01*
X131069525Y-87725000D01*
X131578601Y-87623739D01*
X132058141Y-87425107D01*
X132489715Y-87136738D01*
X132856738Y-86769715D01*
X133145107Y-86338141D01*
X133343739Y-85858601D01*
X133445000Y-85349525D01*
X133445000Y-84830475D01*
X133343739Y-84321399D01*
X133145107Y-83841859D01*
X132856738Y-83410285D01*
X132489715Y-83043262D01*
X132058141Y-82754893D01*
X131578601Y-82556261D01*
X131069525Y-82455000D01*
X130550475Y-82455000D01*
X130041399Y-82556261D01*
X129561859Y-82754893D01*
X129130285Y-83043262D01*
X128763262Y-83410285D01*
X128474893Y-83841859D01*
X128276261Y-84321399D01*
X128175000Y-84830475D01*
X127192471Y-84830475D01*
X127157932Y-84656842D01*
X127045990Y-84386589D01*
X126978110Y-84285000D01*
X127170883Y-84285000D01*
X127506081Y-84218325D01*
X127821831Y-84087537D01*
X128105998Y-83897663D01*
X128347663Y-83655998D01*
X128537537Y-83371831D01*
X128668325Y-83056081D01*
X128735000Y-82720883D01*
X128735000Y-82379117D01*
X128668325Y-82043919D01*
X128537537Y-81728169D01*
X128347663Y-81444002D01*
X128105998Y-81202337D01*
X127821831Y-81012463D01*
X127787400Y-80998201D01*
X127787400Y-79839117D01*
X131615000Y-79839117D01*
X131615000Y-80180883D01*
X131681675Y-80516081D01*
X131812463Y-80831831D01*
X132002337Y-81115998D01*
X132244002Y-81357663D01*
X132528169Y-81547537D01*
X132843919Y-81678325D01*
X133179117Y-81745000D01*
X133520883Y-81745000D01*
X133856081Y-81678325D01*
X134171831Y-81547537D01*
X134455998Y-81357663D01*
X134697663Y-81115998D01*
X134887537Y-80831831D01*
X135018325Y-80516081D01*
X135085000Y-80180883D01*
X135085000Y-79839117D01*
X135018325Y-79503919D01*
X134887537Y-79188169D01*
X134697663Y-78904002D01*
X134455998Y-78662337D01*
X134171831Y-78472463D01*
X133856081Y-78341675D01*
X133520883Y-78275000D01*
X133179117Y-78275000D01*
X132843919Y-78341675D01*
X132528169Y-78472463D01*
X132244002Y-78662337D01*
X132002337Y-78904002D01*
X131812463Y-79188169D01*
X131681675Y-79503919D01*
X131615000Y-79839117D01*
X127787400Y-79839117D01*
X127787400Y-68398150D01*
X128418429Y-67767122D01*
X128448469Y-67742469D01*
X128496835Y-67683535D01*
X128546866Y-67622573D01*
X128614192Y-67496616D01*
X128763262Y-67719715D01*
X129130285Y-68086738D01*
X129561859Y-68375107D01*
X130041399Y-68573739D01*
X130550475Y-68675000D01*
X131069525Y-68675000D01*
X131578601Y-68573739D01*
X132058141Y-68375107D01*
X132489715Y-68086738D01*
X132856738Y-67719715D01*
X133145107Y-67288141D01*
X133343739Y-66808601D01*
X133445000Y-66299525D01*
X133445000Y-65780475D01*
X133343739Y-65271399D01*
X133145107Y-64791859D01*
X132856738Y-64360285D01*
X132489715Y-63993262D01*
X132058141Y-63704893D01*
X131578601Y-63506261D01*
X131069525Y-63405000D01*
X130550475Y-63405000D01*
X130528763Y-63409319D01*
X130532843Y-63395868D01*
X130570006Y-63273357D01*
X130581400Y-63157673D01*
X130581400Y-63157663D01*
X130585208Y-63119000D01*
X130581400Y-63080337D01*
X130581400Y-60789117D01*
X131615000Y-60789117D01*
X131615000Y-61130883D01*
X131681675Y-61466081D01*
X131812463Y-61781831D01*
X132002337Y-62065998D01*
X132244002Y-62307663D01*
X132528169Y-62497537D01*
X132843919Y-62628325D01*
X133179117Y-62695000D01*
X133520883Y-62695000D01*
X133856081Y-62628325D01*
X134171831Y-62497537D01*
X134455998Y-62307663D01*
X134697663Y-62065998D01*
X134887537Y-61781831D01*
X135018325Y-61466081D01*
X135085000Y-61130883D01*
X135085000Y-60789117D01*
X135018325Y-60453919D01*
X134887537Y-60138169D01*
X134697663Y-59854002D01*
X134455998Y-59612337D01*
X134171831Y-59422463D01*
X133856081Y-59291675D01*
X133520883Y-59225000D01*
X133179117Y-59225000D01*
X132843919Y-59291675D01*
X132528169Y-59422463D01*
X132244002Y-59612337D01*
X132002337Y-59854002D01*
X131812463Y-60138169D01*
X131681675Y-60453919D01*
X131615000Y-60789117D01*
X130581400Y-60789117D01*
X130581400Y-56553662D01*
X130585208Y-56514999D01*
X130581400Y-56476336D01*
X130581400Y-56476327D01*
X130570006Y-56360643D01*
X130524982Y-56212217D01*
X130451866Y-56075428D01*
X130353469Y-55955531D01*
X130323433Y-55930881D01*
X117560550Y-43168000D01*
X117738411Y-43168000D01*
X118005989Y-43114775D01*
X118258043Y-43010371D01*
X118484886Y-42858799D01*
X118677799Y-42665886D01*
X118829371Y-42439043D01*
X118872000Y-42336127D01*
X118914629Y-42439043D01*
X119066201Y-42665886D01*
X119259114Y-42858799D01*
X119485957Y-43010371D01*
X119738011Y-43114775D01*
X120005589Y-43168000D01*
X120278411Y-43168000D01*
X120545989Y-43114775D01*
X120798043Y-43010371D01*
X121024886Y-42858799D01*
X121217799Y-42665886D01*
X121369371Y-42439043D01*
X121473775Y-42186989D01*
X121527000Y-41919411D01*
X121527000Y-41646589D01*
X121473775Y-41379011D01*
X121369371Y-41126957D01*
X121217799Y-40900114D01*
X121024886Y-40707201D01*
X120798043Y-40555629D01*
X120545989Y-40451225D01*
X120278411Y-40398000D01*
X120005589Y-40398000D01*
X119738011Y-40451225D01*
X119485957Y-40555629D01*
X119259114Y-40707201D01*
X119066201Y-40900114D01*
X118914629Y-41126957D01*
X118872000Y-41229873D01*
X118829371Y-41126957D01*
X118677799Y-40900114D01*
X118484886Y-40707201D01*
X118258043Y-40555629D01*
X118005989Y-40451225D01*
X117738411Y-40398000D01*
X117465589Y-40398000D01*
X117198011Y-40451225D01*
X116945957Y-40555629D01*
X116719114Y-40707201D01*
X116526201Y-40900114D01*
X116374629Y-41126957D01*
X116332000Y-41229873D01*
X116289371Y-41126957D01*
X116137799Y-40900114D01*
X115944886Y-40707201D01*
X115718043Y-40555629D01*
X115465989Y-40451225D01*
X115198411Y-40398000D01*
X114925589Y-40398000D01*
X114658011Y-40451225D01*
X114405957Y-40555629D01*
X114179114Y-40707201D01*
X113986201Y-40900114D01*
X113834629Y-41126957D01*
X113792000Y-41229873D01*
X113749371Y-41126957D01*
X113597799Y-40900114D01*
X113404886Y-40707201D01*
X113178043Y-40555629D01*
X112925989Y-40451225D01*
X112658411Y-40398000D01*
X112385589Y-40398000D01*
X112118011Y-40451225D01*
X111865957Y-40555629D01*
X111639114Y-40707201D01*
X111446201Y-40900114D01*
X111294629Y-41126957D01*
X111258494Y-41214194D01*
X111220005Y-41121273D01*
X111067120Y-40892465D01*
X110872535Y-40697880D01*
X110643727Y-40544995D01*
X110389490Y-40439686D01*
X110119592Y-40386000D01*
X109844408Y-40386000D01*
X109574510Y-40439686D01*
X109320273Y-40544995D01*
X109091465Y-40697880D01*
X108896880Y-40892465D01*
X108743995Y-41121273D01*
X108712000Y-41198515D01*
X108680005Y-41121273D01*
X108527120Y-40892465D01*
X108332535Y-40697880D01*
X108103727Y-40544995D01*
X107849490Y-40439686D01*
X107579592Y-40386000D01*
X107304408Y-40386000D01*
X107034510Y-40439686D01*
X106780273Y-40544995D01*
X106551465Y-40697880D01*
X106356880Y-40892465D01*
X106203995Y-41121273D01*
X106165506Y-41214194D01*
X106129371Y-41126957D01*
X105977799Y-40900114D01*
X105784886Y-40707201D01*
X105558043Y-40555629D01*
X105305989Y-40451225D01*
X105038411Y-40398000D01*
X104765589Y-40398000D01*
X104498011Y-40451225D01*
X104245957Y-40555629D01*
X104019114Y-40707201D01*
X103826201Y-40900114D01*
X103674629Y-41126957D01*
X103632000Y-41229873D01*
X103589371Y-41126957D01*
X103437799Y-40900114D01*
X103244886Y-40707201D01*
X103018043Y-40555629D01*
X102765989Y-40451225D01*
X102498411Y-40398000D01*
X102225589Y-40398000D01*
X101958011Y-40451225D01*
X101705957Y-40555629D01*
X101479114Y-40707201D01*
X101286201Y-40900114D01*
X101134629Y-41126957D01*
X101030225Y-41379011D01*
X100977000Y-41646589D01*
X100977000Y-41919411D01*
X100999404Y-42032045D01*
X100543579Y-42487871D01*
X100513532Y-42512530D01*
X100415135Y-42632428D01*
X100342019Y-42769217D01*
X100296995Y-42917643D01*
X100285601Y-43033327D01*
X100285601Y-43033336D01*
X100281793Y-43071999D01*
X100285601Y-43110662D01*
X100285602Y-53067000D01*
X100228061Y-53067000D01*
X100033296Y-53105741D01*
X100033296Y-50403121D01*
X100049833Y-50386584D01*
X100163101Y-50217066D01*
X100241122Y-50028708D01*
X100280896Y-49828749D01*
X100280896Y-49624871D01*
X100241122Y-49424912D01*
X100163101Y-49236554D01*
X100049833Y-49067036D01*
X99905670Y-48922873D01*
X99736152Y-48809605D01*
X99547794Y-48731584D01*
X99347835Y-48691810D01*
X99143957Y-48691810D01*
X98943998Y-48731584D01*
X98755640Y-48809605D01*
X98586122Y-48922873D01*
X98441959Y-49067036D01*
X98328691Y-49236554D01*
X98250670Y-49424912D01*
X98210896Y-49624871D01*
X98210896Y-49828749D01*
X98250670Y-50028708D01*
X98328691Y-50217066D01*
X98441959Y-50386584D01*
X98458496Y-50403121D01*
X98458497Y-56455411D01*
X98345906Y-56408774D01*
X98145947Y-56369000D01*
X97942069Y-56369000D01*
X97742110Y-56408774D01*
X97553752Y-56486795D01*
X97384234Y-56600063D01*
X97240071Y-56744226D01*
X97126803Y-56913744D01*
X97048782Y-57102102D01*
X97012122Y-57286405D01*
X93862416Y-60436112D01*
X93678102Y-60472774D01*
X93497400Y-60547624D01*
X93497400Y-51222311D01*
X93513937Y-51205774D01*
X93627205Y-51036256D01*
X93705226Y-50847898D01*
X93745000Y-50647939D01*
X93745000Y-50444061D01*
X93705226Y-50244102D01*
X93627205Y-50055744D01*
X93513937Y-49886226D01*
X93369774Y-49742063D01*
X93200256Y-49628795D01*
X93011898Y-49550774D01*
X92811939Y-49511000D01*
X92608061Y-49511000D01*
X92408102Y-49550774D01*
X92219744Y-49628795D01*
X92050226Y-49742063D01*
X91906063Y-49886226D01*
X91792795Y-50055744D01*
X91714774Y-50244102D01*
X91675000Y-50444061D01*
X91675000Y-50647939D01*
X91714774Y-50847898D01*
X91792795Y-51036256D01*
X91906063Y-51205774D01*
X91922600Y-51222311D01*
X91922601Y-56991624D01*
X91741898Y-56916774D01*
X91541939Y-56877000D01*
X91338061Y-56877000D01*
X91138102Y-56916774D01*
X90949744Y-56994795D01*
X90780226Y-57108063D01*
X90636063Y-57252226D01*
X90522795Y-57421744D01*
X90444774Y-57610102D01*
X90405000Y-57810061D01*
X90405000Y-57833449D01*
X88925000Y-59313450D01*
X88925000Y-37490000D01*
X172695000Y-37490000D01*
X172695001Y-135230000D01*
G36*
X91922601Y-60760848D02*
G01*
X90275578Y-62407872D01*
X90245531Y-62432531D01*
X90147134Y-62552429D01*
X90074018Y-62689218D01*
X90028994Y-62837644D01*
X90017600Y-62953328D01*
X90017600Y-62953337D01*
X90013792Y-62992000D01*
X90017600Y-63030663D01*
X90017601Y-66252688D01*
X90001063Y-66269226D01*
X89887795Y-66438744D01*
X89818232Y-66606682D01*
X89750900Y-66539350D01*
X89750900Y-60714650D01*
X91518551Y-58947000D01*
X91541939Y-58947000D01*
X91741898Y-58907226D01*
X91922601Y-58832376D01*
X91922601Y-60760848D01*
G37*
X91922601Y-60760848D02*
X90275578Y-62407872D01*
X90245531Y-62432531D01*
X90147134Y-62552429D01*
X90074018Y-62689218D01*
X90028994Y-62837644D01*
X90017600Y-62953328D01*
X90017600Y-62953337D01*
X90013792Y-62992000D01*
X90017600Y-63030663D01*
X90017601Y-66252688D01*
X90001063Y-66269226D01*
X89887795Y-66438744D01*
X89818232Y-66606682D01*
X89750900Y-66539350D01*
X89750900Y-60714650D01*
X91518551Y-58947000D01*
X91541939Y-58947000D01*
X91741898Y-58907226D01*
X91922601Y-58832376D01*
X91922601Y-60760848D01*
M02*
