G04 #@! TF.GenerationSoftware,KiCad,Pcbnew,(5.1.6-0-10_14)*
G04 #@! TF.CreationDate,2020-09-15T11:41:32-04:00*
G04 #@! TF.ProjectId,imperializer,696d7065-7269-4616-9c69-7a65722e6b69,1.2*
G04 #@! TF.SameCoordinates,Original*
G04 #@! TF.FileFunction,Legend,Bot*
G04 #@! TF.FilePolarity,Positive*
%FSLAX46Y46*%
G04 Gerber Fmt 4.6, Leading zero omitted, Abs format (unit mm)*
G04 Created by KiCad (PCBNEW (5.1.6-0-10_14)) date 2020-09-15 11:41:32*
%MOMM*%
%LPD*%
G01*
G04 APERTURE LIST*
%ADD10C,0.150000*%
%ADD11C,0.120000*%
G04 APERTURE END LIST*
D10*
X168755047Y-69329952D02*
X169588380Y-68139476D01*
X170183619Y-69329952D02*
X170183619Y-66829952D01*
X169231238Y-66829952D01*
X168993142Y-66949000D01*
X168874095Y-67068047D01*
X168755047Y-67306142D01*
X168755047Y-67663285D01*
X168874095Y-67901380D01*
X168993142Y-68020428D01*
X169231238Y-68139476D01*
X170183619Y-68139476D01*
X167802666Y-69210904D02*
X167445523Y-69329952D01*
X166850285Y-69329952D01*
X166612190Y-69210904D01*
X166493142Y-69091857D01*
X166374095Y-68853761D01*
X166374095Y-68615666D01*
X166493142Y-68377571D01*
X166612190Y-68258523D01*
X166850285Y-68139476D01*
X167326476Y-68020428D01*
X167564571Y-67901380D01*
X167683619Y-67782333D01*
X167802666Y-67544238D01*
X167802666Y-67306142D01*
X167683619Y-67068047D01*
X167564571Y-66949000D01*
X167326476Y-66829952D01*
X166731238Y-66829952D01*
X166374095Y-66949000D01*
X165659809Y-66829952D02*
X164231238Y-66829952D01*
X164945523Y-69329952D02*
X164945523Y-66829952D01*
D11*
X100334578Y-86285000D02*
X99817422Y-86285000D01*
X100334578Y-87705000D02*
X99817422Y-87705000D01*
X96349078Y-58091000D02*
X95831922Y-58091000D01*
X96349078Y-59511000D02*
X95831922Y-59511000D01*
X98048578Y-60758000D02*
X97531422Y-60758000D01*
X98048578Y-62178000D02*
X97531422Y-62178000D01*
X103453000Y-63837078D02*
X103453000Y-63319922D01*
X102033000Y-63837078D02*
X102033000Y-63319922D01*
X160072000Y-81704922D02*
X160072000Y-82222078D01*
X161492000Y-81704922D02*
X161492000Y-82222078D01*
X157278000Y-81783422D02*
X157278000Y-82300578D01*
X158698000Y-81783422D02*
X158698000Y-82300578D01*
X164844000Y-40838000D02*
X164844000Y-41768000D01*
X164844000Y-43998000D02*
X164844000Y-43068000D01*
X164844000Y-43998000D02*
X162684000Y-43998000D01*
X164844000Y-40838000D02*
X163384000Y-40838000D01*
X92146000Y-119636000D02*
X93076000Y-119636000D01*
X95306000Y-119636000D02*
X94376000Y-119636000D01*
X95306000Y-119636000D02*
X95306000Y-121796000D01*
X92146000Y-119636000D02*
X92146000Y-121096000D01*
X102480000Y-120178000D02*
X100720000Y-120178000D01*
X100720000Y-117108000D02*
X103150000Y-117108000D01*
X168518000Y-41062000D02*
X170318000Y-41062000D01*
X170318000Y-44282000D02*
X167868000Y-44282000D01*
X90118000Y-74426578D02*
X90118000Y-73909422D01*
X88698000Y-74426578D02*
X88698000Y-73909422D01*
X104850000Y-69600578D02*
X104850000Y-69083422D01*
X103430000Y-69600578D02*
X103430000Y-69083422D01*
X108764000Y-73274422D02*
X108764000Y-73791578D01*
X110184000Y-73274422D02*
X110184000Y-73791578D01*
X156139400Y-25433000D02*
X165329400Y-25433000D01*
X156259400Y-34843000D02*
X165209400Y-34843000D01*
X165329400Y-28163000D02*
X165329400Y-25433000D01*
X156139400Y-28163000D02*
X156139400Y-25433000D01*
X165329400Y-31763000D02*
X165329400Y-30863000D01*
X156139400Y-31763000D02*
X156139400Y-30863000D01*
X168191922Y-38175000D02*
X168709078Y-38175000D01*
X168191922Y-36755000D02*
X168709078Y-36755000D01*
X163444422Y-38302000D02*
X163961578Y-38302000D01*
X163444422Y-36882000D02*
X163961578Y-36882000D01*
X90180000Y-103218200D02*
X91110000Y-103218200D01*
X93340000Y-103218200D02*
X92410000Y-103218200D01*
X93340000Y-103218200D02*
X93340000Y-105378200D01*
X90180000Y-103218200D02*
X90180000Y-104678200D01*
X99242378Y-97384800D02*
X98725222Y-97384800D01*
X99242378Y-98804800D02*
X98725222Y-98804800D01*
X99242378Y-101169400D02*
X98725222Y-101169400D01*
X99242378Y-102589400D02*
X98725222Y-102589400D01*
X106478000Y-124963422D02*
X106478000Y-125480578D01*
X107898000Y-124963422D02*
X107898000Y-125480578D01*
X103580000Y-125480578D02*
X103580000Y-124963422D01*
X102160000Y-125480578D02*
X102160000Y-124963422D01*
X100563800Y-106093800D02*
X99633800Y-106093800D01*
X97403800Y-106093800D02*
X98333800Y-106093800D01*
X97403800Y-106093800D02*
X97403800Y-103933800D01*
X100563800Y-106093800D02*
X100563800Y-104633800D01*
X98300000Y-126802000D02*
X98300000Y-125872000D01*
X98300000Y-123642000D02*
X98300000Y-124572000D01*
X98300000Y-123642000D02*
X100460000Y-123642000D01*
X98300000Y-126802000D02*
X99760000Y-126802000D01*
X164236000Y-76352000D02*
X164236000Y-76602000D01*
X164236000Y-76602000D02*
X170536000Y-76602000D01*
X170536000Y-76602000D02*
X170536000Y-76352000D01*
X164236000Y-71852000D02*
X164236000Y-74452000D01*
X170536000Y-69952000D02*
X170536000Y-69702000D01*
X170536000Y-69702000D02*
X164236000Y-69702000D01*
X164236000Y-69702000D02*
X164236000Y-69952000D01*
X170536000Y-74452000D02*
X170536000Y-71852000D01*
X102181922Y-83260000D02*
X102699078Y-83260000D01*
X102181922Y-81840000D02*
X102699078Y-81840000D01*
X93778000Y-83815422D02*
X93778000Y-84332578D01*
X95198000Y-83815422D02*
X95198000Y-84332578D01*
X98246000Y-84332578D02*
X98246000Y-83815422D01*
X96826000Y-84332578D02*
X96826000Y-83815422D01*
X91743600Y-93753678D02*
X91743600Y-93236522D01*
X90323600Y-93753678D02*
X90323600Y-93236522D01*
X90594922Y-82498000D02*
X91112078Y-82498000D01*
X90594922Y-81078000D02*
X91112078Y-81078000D01*
X92983600Y-84506200D02*
X92983600Y-91056200D01*
X92983600Y-91056200D02*
X89083600Y-91056200D01*
X89083600Y-91056200D02*
X89083600Y-84506200D01*
D10*
X92387000Y-78809000D02*
X92387000Y-78384000D01*
X99637000Y-78809000D02*
X99637000Y-78284000D01*
X99637000Y-71559000D02*
X99637000Y-72084000D01*
X92387000Y-71559000D02*
X92387000Y-72084000D01*
X92387000Y-78809000D02*
X92912000Y-78809000D01*
X92387000Y-71559000D02*
X92912000Y-71559000D01*
X99637000Y-71559000D02*
X99112000Y-71559000D01*
X99637000Y-78809000D02*
X99112000Y-78809000D01*
X92387000Y-78384000D02*
X91012000Y-78384000D01*
D11*
X136704000Y-40963322D02*
X136704000Y-41480478D01*
X138124000Y-40963322D02*
X138124000Y-41480478D01*
X135942000Y-37411922D02*
X135942000Y-37929078D01*
X137362000Y-37411922D02*
X137362000Y-37929078D01*
X138837600Y-40963322D02*
X138837600Y-41480478D01*
X140257600Y-40963322D02*
X140257600Y-41480478D01*
X135285000Y-32435700D02*
X135285000Y-36144300D01*
X126335000Y-30765000D02*
X126335000Y-36148600D01*
X135942000Y-54097422D02*
X135942000Y-54614578D01*
X137362000Y-54097422D02*
X137362000Y-54614578D01*
X135942000Y-50208922D02*
X135942000Y-50726078D01*
X137362000Y-50208922D02*
X137362000Y-50726078D01*
X137974000Y-54097422D02*
X137974000Y-54614578D01*
X139394000Y-54097422D02*
X139394000Y-54614578D01*
X135285000Y-45135700D02*
X135285000Y-48844300D01*
X126335000Y-43465000D02*
X126335000Y-48848600D01*
D10*
X100718857Y-89098380D02*
X101052190Y-88622190D01*
X101290285Y-89098380D02*
X101290285Y-88098380D01*
X100909333Y-88098380D01*
X100814095Y-88146000D01*
X100766476Y-88193619D01*
X100718857Y-88288857D01*
X100718857Y-88431714D01*
X100766476Y-88526952D01*
X100814095Y-88574571D01*
X100909333Y-88622190D01*
X101290285Y-88622190D01*
X100337904Y-88193619D02*
X100290285Y-88146000D01*
X100195047Y-88098380D01*
X99956952Y-88098380D01*
X99861714Y-88146000D01*
X99814095Y-88193619D01*
X99766476Y-88288857D01*
X99766476Y-88384095D01*
X99814095Y-88526952D01*
X100385523Y-89098380D01*
X99766476Y-89098380D01*
X98814095Y-89098380D02*
X99385523Y-89098380D01*
X99099809Y-89098380D02*
X99099809Y-88098380D01*
X99195047Y-88241238D01*
X99290285Y-88336476D01*
X99385523Y-88384095D01*
X96733357Y-57603380D02*
X97066690Y-57127190D01*
X97304785Y-57603380D02*
X97304785Y-56603380D01*
X96923833Y-56603380D01*
X96828595Y-56651000D01*
X96780976Y-56698619D01*
X96733357Y-56793857D01*
X96733357Y-56936714D01*
X96780976Y-57031952D01*
X96828595Y-57079571D01*
X96923833Y-57127190D01*
X97304785Y-57127190D01*
X96352404Y-56698619D02*
X96304785Y-56651000D01*
X96209547Y-56603380D01*
X95971452Y-56603380D01*
X95876214Y-56651000D01*
X95828595Y-56698619D01*
X95780976Y-56793857D01*
X95780976Y-56889095D01*
X95828595Y-57031952D01*
X96400023Y-57603380D01*
X95780976Y-57603380D01*
X95161928Y-56603380D02*
X95066690Y-56603380D01*
X94971452Y-56651000D01*
X94923833Y-56698619D01*
X94876214Y-56793857D01*
X94828595Y-56984333D01*
X94828595Y-57222428D01*
X94876214Y-57412904D01*
X94923833Y-57508142D01*
X94971452Y-57555761D01*
X95066690Y-57603380D01*
X95161928Y-57603380D01*
X95257166Y-57555761D01*
X95304785Y-57508142D01*
X95352404Y-57412904D01*
X95400023Y-57222428D01*
X95400023Y-56984333D01*
X95352404Y-56793857D01*
X95304785Y-56698619D01*
X95257166Y-56651000D01*
X95161928Y-56603380D01*
X98432857Y-63571380D02*
X98766190Y-63095190D01*
X99004285Y-63571380D02*
X99004285Y-62571380D01*
X98623333Y-62571380D01*
X98528095Y-62619000D01*
X98480476Y-62666619D01*
X98432857Y-62761857D01*
X98432857Y-62904714D01*
X98480476Y-62999952D01*
X98528095Y-63047571D01*
X98623333Y-63095190D01*
X99004285Y-63095190D01*
X97480476Y-63571380D02*
X98051904Y-63571380D01*
X97766190Y-63571380D02*
X97766190Y-62571380D01*
X97861428Y-62714238D01*
X97956666Y-62809476D01*
X98051904Y-62857095D01*
X97004285Y-63571380D02*
X96813809Y-63571380D01*
X96718571Y-63523761D01*
X96670952Y-63476142D01*
X96575714Y-63333285D01*
X96528095Y-63142809D01*
X96528095Y-62761857D01*
X96575714Y-62666619D01*
X96623333Y-62619000D01*
X96718571Y-62571380D01*
X96909047Y-62571380D01*
X97004285Y-62619000D01*
X97051904Y-62666619D01*
X97099523Y-62761857D01*
X97099523Y-62999952D01*
X97051904Y-63095190D01*
X97004285Y-63142809D01*
X96909047Y-63190428D01*
X96718571Y-63190428D01*
X96623333Y-63142809D01*
X96575714Y-63095190D01*
X96528095Y-62999952D01*
X104845380Y-62935642D02*
X104369190Y-62602309D01*
X104845380Y-62364214D02*
X103845380Y-62364214D01*
X103845380Y-62745166D01*
X103893000Y-62840404D01*
X103940619Y-62888023D01*
X104035857Y-62935642D01*
X104178714Y-62935642D01*
X104273952Y-62888023D01*
X104321571Y-62840404D01*
X104369190Y-62745166D01*
X104369190Y-62364214D01*
X104845380Y-63888023D02*
X104845380Y-63316595D01*
X104845380Y-63602309D02*
X103845380Y-63602309D01*
X103988238Y-63507071D01*
X104083476Y-63411833D01*
X104131095Y-63316595D01*
X104273952Y-64459452D02*
X104226333Y-64364214D01*
X104178714Y-64316595D01*
X104083476Y-64268976D01*
X104035857Y-64268976D01*
X103940619Y-64316595D01*
X103893000Y-64364214D01*
X103845380Y-64459452D01*
X103845380Y-64649928D01*
X103893000Y-64745166D01*
X103940619Y-64792785D01*
X104035857Y-64840404D01*
X104083476Y-64840404D01*
X104178714Y-64792785D01*
X104226333Y-64745166D01*
X104273952Y-64649928D01*
X104273952Y-64459452D01*
X104321571Y-64364214D01*
X104369190Y-64316595D01*
X104464428Y-64268976D01*
X104654904Y-64268976D01*
X104750142Y-64316595D01*
X104797761Y-64364214D01*
X104845380Y-64459452D01*
X104845380Y-64649928D01*
X104797761Y-64745166D01*
X104750142Y-64792785D01*
X104654904Y-64840404D01*
X104464428Y-64840404D01*
X104369190Y-64792785D01*
X104321571Y-64745166D01*
X104273952Y-64649928D01*
X162059857Y-80081380D02*
X162393190Y-79605190D01*
X162631285Y-80081380D02*
X162631285Y-79081380D01*
X162250333Y-79081380D01*
X162155095Y-79129000D01*
X162107476Y-79176619D01*
X162059857Y-79271857D01*
X162059857Y-79414714D01*
X162107476Y-79509952D01*
X162155095Y-79557571D01*
X162250333Y-79605190D01*
X162631285Y-79605190D01*
X161107476Y-80081380D02*
X161678904Y-80081380D01*
X161393190Y-80081380D02*
X161393190Y-79081380D01*
X161488428Y-79224238D01*
X161583666Y-79319476D01*
X161678904Y-79367095D01*
X160774142Y-79081380D02*
X160107476Y-79081380D01*
X160536047Y-80081380D01*
X156790380Y-81399142D02*
X156314190Y-81065809D01*
X156790380Y-80827714D02*
X155790380Y-80827714D01*
X155790380Y-81208666D01*
X155838000Y-81303904D01*
X155885619Y-81351523D01*
X155980857Y-81399142D01*
X156123714Y-81399142D01*
X156218952Y-81351523D01*
X156266571Y-81303904D01*
X156314190Y-81208666D01*
X156314190Y-80827714D01*
X156790380Y-82351523D02*
X156790380Y-81780095D01*
X156790380Y-82065809D02*
X155790380Y-82065809D01*
X155933238Y-81970571D01*
X156028476Y-81875333D01*
X156076095Y-81780095D01*
X155790380Y-83208666D02*
X155790380Y-83018190D01*
X155838000Y-82922952D01*
X155885619Y-82875333D01*
X156028476Y-82780095D01*
X156218952Y-82732476D01*
X156599904Y-82732476D01*
X156695142Y-82780095D01*
X156742761Y-82827714D01*
X156790380Y-82922952D01*
X156790380Y-83113428D01*
X156742761Y-83208666D01*
X156695142Y-83256285D01*
X156599904Y-83303904D01*
X156361809Y-83303904D01*
X156266571Y-83256285D01*
X156218952Y-83208666D01*
X156171333Y-83113428D01*
X156171333Y-82922952D01*
X156218952Y-82827714D01*
X156266571Y-82780095D01*
X156361809Y-82732476D01*
X164822095Y-45370380D02*
X164822095Y-44370380D01*
X164584000Y-44370380D01*
X164441142Y-44418000D01*
X164345904Y-44513238D01*
X164298285Y-44608476D01*
X164250666Y-44798952D01*
X164250666Y-44941809D01*
X164298285Y-45132285D01*
X164345904Y-45227523D01*
X164441142Y-45322761D01*
X164584000Y-45370380D01*
X164822095Y-45370380D01*
X163917333Y-44370380D02*
X163298285Y-44370380D01*
X163631619Y-44751333D01*
X163488761Y-44751333D01*
X163393523Y-44798952D01*
X163345904Y-44846571D01*
X163298285Y-44941809D01*
X163298285Y-45179904D01*
X163345904Y-45275142D01*
X163393523Y-45322761D01*
X163488761Y-45370380D01*
X163774476Y-45370380D01*
X163869714Y-45322761D01*
X163917333Y-45275142D01*
X96773619Y-120300761D02*
X96726000Y-120205523D01*
X96630761Y-120110285D01*
X96487904Y-119967428D01*
X96440285Y-119872190D01*
X96440285Y-119776952D01*
X96678380Y-119824571D02*
X96630761Y-119729333D01*
X96535523Y-119634095D01*
X96345047Y-119586476D01*
X96011714Y-119586476D01*
X95821238Y-119634095D01*
X95726000Y-119729333D01*
X95678380Y-119824571D01*
X95678380Y-120015047D01*
X95726000Y-120110285D01*
X95821238Y-120205523D01*
X96011714Y-120253142D01*
X96345047Y-120253142D01*
X96535523Y-120205523D01*
X96630761Y-120110285D01*
X96678380Y-120015047D01*
X96678380Y-119824571D01*
X95678380Y-120586476D02*
X95678380Y-121205523D01*
X96059333Y-120872190D01*
X96059333Y-121015047D01*
X96106952Y-121110285D01*
X96154571Y-121157904D01*
X96249809Y-121205523D01*
X96487904Y-121205523D01*
X96583142Y-121157904D01*
X96630761Y-121110285D01*
X96678380Y-121015047D01*
X96678380Y-120729333D01*
X96630761Y-120634095D01*
X96583142Y-120586476D01*
X102361904Y-115620380D02*
X102361904Y-116429904D01*
X102314285Y-116525142D01*
X102266666Y-116572761D01*
X102171428Y-116620380D01*
X101980952Y-116620380D01*
X101885714Y-116572761D01*
X101838095Y-116525142D01*
X101790476Y-116429904D01*
X101790476Y-115620380D01*
X101266666Y-116620380D02*
X101076190Y-116620380D01*
X100980952Y-116572761D01*
X100933333Y-116525142D01*
X100838095Y-116382285D01*
X100790476Y-116191809D01*
X100790476Y-115810857D01*
X100838095Y-115715619D01*
X100885714Y-115668000D01*
X100980952Y-115620380D01*
X101171428Y-115620380D01*
X101266666Y-115668000D01*
X101314285Y-115715619D01*
X101361904Y-115810857D01*
X101361904Y-116048952D01*
X101314285Y-116144190D01*
X101266666Y-116191809D01*
X101171428Y-116239428D01*
X100980952Y-116239428D01*
X100885714Y-116191809D01*
X100838095Y-116144190D01*
X100790476Y-116048952D01*
X170179904Y-45024380D02*
X170179904Y-45833904D01*
X170132285Y-45929142D01*
X170084666Y-45976761D01*
X169989428Y-46024380D01*
X169798952Y-46024380D01*
X169703714Y-45976761D01*
X169656095Y-45929142D01*
X169608476Y-45833904D01*
X169608476Y-45024380D01*
X168703714Y-45357714D02*
X168703714Y-46024380D01*
X168941809Y-44976761D02*
X169179904Y-45691047D01*
X168560857Y-45691047D01*
X89574666Y-72334380D02*
X89908000Y-71858190D01*
X90146095Y-72334380D02*
X90146095Y-71334380D01*
X89765142Y-71334380D01*
X89669904Y-71382000D01*
X89622285Y-71429619D01*
X89574666Y-71524857D01*
X89574666Y-71667714D01*
X89622285Y-71762952D01*
X89669904Y-71810571D01*
X89765142Y-71858190D01*
X90146095Y-71858190D01*
X88622285Y-72334380D02*
X89193714Y-72334380D01*
X88908000Y-72334380D02*
X88908000Y-71334380D01*
X89003238Y-71477238D01*
X89098476Y-71572476D01*
X89193714Y-71620095D01*
X106242380Y-69175333D02*
X105766190Y-68842000D01*
X106242380Y-68603904D02*
X105242380Y-68603904D01*
X105242380Y-68984857D01*
X105290000Y-69080095D01*
X105337619Y-69127714D01*
X105432857Y-69175333D01*
X105575714Y-69175333D01*
X105670952Y-69127714D01*
X105718571Y-69080095D01*
X105766190Y-68984857D01*
X105766190Y-68603904D01*
X105242380Y-70080095D02*
X105242380Y-69603904D01*
X105718571Y-69556285D01*
X105670952Y-69603904D01*
X105623333Y-69699142D01*
X105623333Y-69937238D01*
X105670952Y-70032476D01*
X105718571Y-70080095D01*
X105813809Y-70127714D01*
X106051904Y-70127714D01*
X106147142Y-70080095D01*
X106194761Y-70032476D01*
X106242380Y-69937238D01*
X106242380Y-69699142D01*
X106194761Y-69603904D01*
X106147142Y-69556285D01*
X111450380Y-73366333D02*
X110974190Y-73033000D01*
X111450380Y-72794904D02*
X110450380Y-72794904D01*
X110450380Y-73175857D01*
X110498000Y-73271095D01*
X110545619Y-73318714D01*
X110640857Y-73366333D01*
X110783714Y-73366333D01*
X110878952Y-73318714D01*
X110926571Y-73271095D01*
X110974190Y-73175857D01*
X110974190Y-72794904D01*
X110450380Y-74223476D02*
X110450380Y-74033000D01*
X110498000Y-73937761D01*
X110545619Y-73890142D01*
X110688476Y-73794904D01*
X110878952Y-73747285D01*
X111259904Y-73747285D01*
X111355142Y-73794904D01*
X111402761Y-73842523D01*
X111450380Y-73937761D01*
X111450380Y-74128238D01*
X111402761Y-74223476D01*
X111355142Y-74271095D01*
X111259904Y-74318714D01*
X111021809Y-74318714D01*
X110926571Y-74271095D01*
X110878952Y-74223476D01*
X110831333Y-74128238D01*
X110831333Y-73937761D01*
X110878952Y-73842523D01*
X110926571Y-73794904D01*
X111021809Y-73747285D01*
X161067733Y-35415380D02*
X161067733Y-36129666D01*
X161115352Y-36272523D01*
X161210590Y-36367761D01*
X161353447Y-36415380D01*
X161448685Y-36415380D01*
X160067733Y-36415380D02*
X160639161Y-36415380D01*
X160353447Y-36415380D02*
X160353447Y-35415380D01*
X160448685Y-35558238D01*
X160543923Y-35653476D01*
X160639161Y-35701095D01*
X169093357Y-39567380D02*
X169426690Y-39091190D01*
X169664785Y-39567380D02*
X169664785Y-38567380D01*
X169283833Y-38567380D01*
X169188595Y-38615000D01*
X169140976Y-38662619D01*
X169093357Y-38757857D01*
X169093357Y-38900714D01*
X169140976Y-38995952D01*
X169188595Y-39043571D01*
X169283833Y-39091190D01*
X169664785Y-39091190D01*
X168140976Y-39567380D02*
X168712404Y-39567380D01*
X168426690Y-39567380D02*
X168426690Y-38567380D01*
X168521928Y-38710238D01*
X168617166Y-38805476D01*
X168712404Y-38853095D01*
X167236214Y-38567380D02*
X167712404Y-38567380D01*
X167760023Y-39043571D01*
X167712404Y-38995952D01*
X167617166Y-38948333D01*
X167379071Y-38948333D01*
X167283833Y-38995952D01*
X167236214Y-39043571D01*
X167188595Y-39138809D01*
X167188595Y-39376904D01*
X167236214Y-39472142D01*
X167283833Y-39519761D01*
X167379071Y-39567380D01*
X167617166Y-39567380D01*
X167712404Y-39519761D01*
X167760023Y-39472142D01*
X164345857Y-39694380D02*
X164679190Y-39218190D01*
X164917285Y-39694380D02*
X164917285Y-38694380D01*
X164536333Y-38694380D01*
X164441095Y-38742000D01*
X164393476Y-38789619D01*
X164345857Y-38884857D01*
X164345857Y-39027714D01*
X164393476Y-39122952D01*
X164441095Y-39170571D01*
X164536333Y-39218190D01*
X164917285Y-39218190D01*
X163393476Y-39694380D02*
X163964904Y-39694380D01*
X163679190Y-39694380D02*
X163679190Y-38694380D01*
X163774428Y-38837238D01*
X163869666Y-38932476D01*
X163964904Y-38980095D01*
X162536333Y-39027714D02*
X162536333Y-39694380D01*
X162774428Y-38646761D02*
X163012523Y-39361047D01*
X162393476Y-39361047D01*
X92432095Y-102052380D02*
X92432095Y-101052380D01*
X92194000Y-101052380D01*
X92051142Y-101100000D01*
X91955904Y-101195238D01*
X91908285Y-101290476D01*
X91860666Y-101480952D01*
X91860666Y-101623809D01*
X91908285Y-101814285D01*
X91955904Y-101909523D01*
X92051142Y-102004761D01*
X92194000Y-102052380D01*
X92432095Y-102052380D01*
X90908285Y-102052380D02*
X91479714Y-102052380D01*
X91194000Y-102052380D02*
X91194000Y-101052380D01*
X91289238Y-101195238D01*
X91384476Y-101290476D01*
X91479714Y-101338095D01*
X99626657Y-96897180D02*
X99959990Y-96420990D01*
X100198085Y-96897180D02*
X100198085Y-95897180D01*
X99817133Y-95897180D01*
X99721895Y-95944800D01*
X99674276Y-95992419D01*
X99626657Y-96087657D01*
X99626657Y-96230514D01*
X99674276Y-96325752D01*
X99721895Y-96373371D01*
X99817133Y-96420990D01*
X100198085Y-96420990D01*
X98674276Y-96897180D02*
X99245704Y-96897180D01*
X98959990Y-96897180D02*
X98959990Y-95897180D01*
X99055228Y-96040038D01*
X99150466Y-96135276D01*
X99245704Y-96182895D01*
X98340942Y-95897180D02*
X97721895Y-95897180D01*
X98055228Y-96278133D01*
X97912371Y-96278133D01*
X97817133Y-96325752D01*
X97769514Y-96373371D01*
X97721895Y-96468609D01*
X97721895Y-96706704D01*
X97769514Y-96801942D01*
X97817133Y-96849561D01*
X97912371Y-96897180D01*
X98198085Y-96897180D01*
X98293323Y-96849561D01*
X98340942Y-96801942D01*
X99626657Y-100681780D02*
X99959990Y-100205590D01*
X100198085Y-100681780D02*
X100198085Y-99681780D01*
X99817133Y-99681780D01*
X99721895Y-99729400D01*
X99674276Y-99777019D01*
X99626657Y-99872257D01*
X99626657Y-100015114D01*
X99674276Y-100110352D01*
X99721895Y-100157971D01*
X99817133Y-100205590D01*
X100198085Y-100205590D01*
X98674276Y-100681780D02*
X99245704Y-100681780D01*
X98959990Y-100681780D02*
X98959990Y-99681780D01*
X99055228Y-99824638D01*
X99150466Y-99919876D01*
X99245704Y-99967495D01*
X98293323Y-99777019D02*
X98245704Y-99729400D01*
X98150466Y-99681780D01*
X97912371Y-99681780D01*
X97817133Y-99729400D01*
X97769514Y-99777019D01*
X97721895Y-99872257D01*
X97721895Y-99967495D01*
X97769514Y-100110352D01*
X98340942Y-100681780D01*
X97721895Y-100681780D01*
X109291380Y-124452142D02*
X108815190Y-124118809D01*
X109291380Y-123880714D02*
X108291380Y-123880714D01*
X108291380Y-124261666D01*
X108339000Y-124356904D01*
X108386619Y-124404523D01*
X108481857Y-124452142D01*
X108624714Y-124452142D01*
X108719952Y-124404523D01*
X108767571Y-124356904D01*
X108815190Y-124261666D01*
X108815190Y-123880714D01*
X109291380Y-125404523D02*
X109291380Y-124833095D01*
X109291380Y-125118809D02*
X108291380Y-125118809D01*
X108434238Y-125023571D01*
X108529476Y-124928333D01*
X108577095Y-124833095D01*
X109291380Y-126356904D02*
X109291380Y-125785476D01*
X109291380Y-126071190D02*
X108291380Y-126071190D01*
X108434238Y-125975952D01*
X108529476Y-125880714D01*
X108577095Y-125785476D01*
X103163666Y-123293142D02*
X103211285Y-123340761D01*
X103354142Y-123388380D01*
X103449380Y-123388380D01*
X103592238Y-123340761D01*
X103687476Y-123245523D01*
X103735095Y-123150285D01*
X103782714Y-122959809D01*
X103782714Y-122816952D01*
X103735095Y-122626476D01*
X103687476Y-122531238D01*
X103592238Y-122436000D01*
X103449380Y-122388380D01*
X103354142Y-122388380D01*
X103211285Y-122436000D01*
X103163666Y-122483619D01*
X102258904Y-122388380D02*
X102735095Y-122388380D01*
X102782714Y-122864571D01*
X102735095Y-122816952D01*
X102639857Y-122769333D01*
X102401761Y-122769333D01*
X102306523Y-122816952D01*
X102258904Y-122864571D01*
X102211285Y-122959809D01*
X102211285Y-123197904D01*
X102258904Y-123293142D01*
X102306523Y-123340761D01*
X102401761Y-123388380D01*
X102639857Y-123388380D01*
X102735095Y-123340761D01*
X102782714Y-123293142D01*
X97031419Y-105238561D02*
X96983800Y-105143323D01*
X96888561Y-105048085D01*
X96745704Y-104905228D01*
X96698085Y-104809990D01*
X96698085Y-104714752D01*
X96936180Y-104762371D02*
X96888561Y-104667133D01*
X96793323Y-104571895D01*
X96602847Y-104524276D01*
X96269514Y-104524276D01*
X96079038Y-104571895D01*
X95983800Y-104667133D01*
X95936180Y-104762371D01*
X95936180Y-104952847D01*
X95983800Y-105048085D01*
X96079038Y-105143323D01*
X96269514Y-105190942D01*
X96602847Y-105190942D01*
X96793323Y-105143323D01*
X96888561Y-105048085D01*
X96936180Y-104952847D01*
X96936180Y-104762371D01*
X96031419Y-105571895D02*
X95983800Y-105619514D01*
X95936180Y-105714752D01*
X95936180Y-105952847D01*
X95983800Y-106048085D01*
X96031419Y-106095704D01*
X96126657Y-106143323D01*
X96221895Y-106143323D01*
X96364752Y-106095704D01*
X96936180Y-105524276D01*
X96936180Y-106143323D01*
X99155238Y-123269619D02*
X99250476Y-123222000D01*
X99345714Y-123126761D01*
X99488571Y-122983904D01*
X99583809Y-122936285D01*
X99679047Y-122936285D01*
X99631428Y-123174380D02*
X99726666Y-123126761D01*
X99821904Y-123031523D01*
X99869523Y-122841047D01*
X99869523Y-122507714D01*
X99821904Y-122317238D01*
X99726666Y-122222000D01*
X99631428Y-122174380D01*
X99440952Y-122174380D01*
X99345714Y-122222000D01*
X99250476Y-122317238D01*
X99202857Y-122507714D01*
X99202857Y-122841047D01*
X99250476Y-123031523D01*
X99345714Y-123126761D01*
X99440952Y-123174380D01*
X99631428Y-123174380D01*
X98250476Y-123174380D02*
X98821904Y-123174380D01*
X98536190Y-123174380D02*
X98536190Y-122174380D01*
X98631428Y-122317238D01*
X98726666Y-122412476D01*
X98821904Y-122460095D01*
X168624095Y-78056761D02*
X168481238Y-78104380D01*
X168243142Y-78104380D01*
X168147904Y-78056761D01*
X168100285Y-78009142D01*
X168052666Y-77913904D01*
X168052666Y-77818666D01*
X168100285Y-77723428D01*
X168147904Y-77675809D01*
X168243142Y-77628190D01*
X168433619Y-77580571D01*
X168528857Y-77532952D01*
X168576476Y-77485333D01*
X168624095Y-77390095D01*
X168624095Y-77294857D01*
X168576476Y-77199619D01*
X168528857Y-77152000D01*
X168433619Y-77104380D01*
X168195523Y-77104380D01*
X168052666Y-77152000D01*
X167100285Y-78104380D02*
X167671714Y-78104380D01*
X167386000Y-78104380D02*
X167386000Y-77104380D01*
X167481238Y-77247238D01*
X167576476Y-77342476D01*
X167671714Y-77390095D01*
X166766952Y-77104380D02*
X166147904Y-77104380D01*
X166481238Y-77485333D01*
X166338380Y-77485333D01*
X166243142Y-77532952D01*
X166195523Y-77580571D01*
X166147904Y-77675809D01*
X166147904Y-77913904D01*
X166195523Y-78009142D01*
X166243142Y-78056761D01*
X166338380Y-78104380D01*
X166624095Y-78104380D01*
X166719333Y-78056761D01*
X166766952Y-78009142D01*
X103083357Y-84652380D02*
X103416690Y-84176190D01*
X103654785Y-84652380D02*
X103654785Y-83652380D01*
X103273833Y-83652380D01*
X103178595Y-83700000D01*
X103130976Y-83747619D01*
X103083357Y-83842857D01*
X103083357Y-83985714D01*
X103130976Y-84080952D01*
X103178595Y-84128571D01*
X103273833Y-84176190D01*
X103654785Y-84176190D01*
X102130976Y-84652380D02*
X102702404Y-84652380D01*
X102416690Y-84652380D02*
X102416690Y-83652380D01*
X102511928Y-83795238D01*
X102607166Y-83890476D01*
X102702404Y-83938095D01*
X101511928Y-83652380D02*
X101416690Y-83652380D01*
X101321452Y-83700000D01*
X101273833Y-83747619D01*
X101226214Y-83842857D01*
X101178595Y-84033333D01*
X101178595Y-84271428D01*
X101226214Y-84461904D01*
X101273833Y-84557142D01*
X101321452Y-84604761D01*
X101416690Y-84652380D01*
X101511928Y-84652380D01*
X101607166Y-84604761D01*
X101654785Y-84557142D01*
X101702404Y-84461904D01*
X101750023Y-84271428D01*
X101750023Y-84033333D01*
X101702404Y-83842857D01*
X101654785Y-83747619D01*
X101607166Y-83700000D01*
X101511928Y-83652380D01*
X94781666Y-82272142D02*
X94829285Y-82319761D01*
X94972142Y-82367380D01*
X95067380Y-82367380D01*
X95210238Y-82319761D01*
X95305476Y-82224523D01*
X95353095Y-82129285D01*
X95400714Y-81938809D01*
X95400714Y-81795952D01*
X95353095Y-81605476D01*
X95305476Y-81510238D01*
X95210238Y-81415000D01*
X95067380Y-81367380D01*
X94972142Y-81367380D01*
X94829285Y-81415000D01*
X94781666Y-81462619D01*
X93924523Y-81700714D02*
X93924523Y-82367380D01*
X94162619Y-81319761D02*
X94400714Y-82034047D01*
X93781666Y-82034047D01*
X99543142Y-83907333D02*
X99590761Y-83859714D01*
X99638380Y-83716857D01*
X99638380Y-83621619D01*
X99590761Y-83478761D01*
X99495523Y-83383523D01*
X99400285Y-83335904D01*
X99209809Y-83288285D01*
X99066952Y-83288285D01*
X98876476Y-83335904D01*
X98781238Y-83383523D01*
X98686000Y-83478761D01*
X98638380Y-83621619D01*
X98638380Y-83716857D01*
X98686000Y-83859714D01*
X98733619Y-83907333D01*
X98638380Y-84240666D02*
X98638380Y-84859714D01*
X99019333Y-84526380D01*
X99019333Y-84669238D01*
X99066952Y-84764476D01*
X99114571Y-84812095D01*
X99209809Y-84859714D01*
X99447904Y-84859714D01*
X99543142Y-84812095D01*
X99590761Y-84764476D01*
X99638380Y-84669238D01*
X99638380Y-84383523D01*
X99590761Y-84288285D01*
X99543142Y-84240666D01*
X93040742Y-93328433D02*
X93088361Y-93280814D01*
X93135980Y-93137957D01*
X93135980Y-93042719D01*
X93088361Y-92899861D01*
X92993123Y-92804623D01*
X92897885Y-92757004D01*
X92707409Y-92709385D01*
X92564552Y-92709385D01*
X92374076Y-92757004D01*
X92278838Y-92804623D01*
X92183600Y-92899861D01*
X92135980Y-93042719D01*
X92135980Y-93137957D01*
X92183600Y-93280814D01*
X92231219Y-93328433D01*
X92231219Y-93709385D02*
X92183600Y-93757004D01*
X92135980Y-93852242D01*
X92135980Y-94090338D01*
X92183600Y-94185576D01*
X92231219Y-94233195D01*
X92326457Y-94280814D01*
X92421695Y-94280814D01*
X92564552Y-94233195D01*
X93135980Y-93661766D01*
X93135980Y-94280814D01*
X90971666Y-83669142D02*
X91019285Y-83716761D01*
X91162142Y-83764380D01*
X91257380Y-83764380D01*
X91400238Y-83716761D01*
X91495476Y-83621523D01*
X91543095Y-83526285D01*
X91590714Y-83335809D01*
X91590714Y-83192952D01*
X91543095Y-83002476D01*
X91495476Y-82907238D01*
X91400238Y-82812000D01*
X91257380Y-82764380D01*
X91162142Y-82764380D01*
X91019285Y-82812000D01*
X90971666Y-82859619D01*
X90019285Y-83764380D02*
X90590714Y-83764380D01*
X90305000Y-83764380D02*
X90305000Y-82764380D01*
X90400238Y-82907238D01*
X90495476Y-83002476D01*
X90590714Y-83050095D01*
X93959790Y-87230009D02*
X94435980Y-87230009D01*
X93435980Y-86896676D02*
X93959790Y-87230009D01*
X93435980Y-87563342D01*
X94435980Y-88420485D02*
X94435980Y-87849057D01*
X94435980Y-88134771D02*
X93435980Y-88134771D01*
X93578838Y-88039533D01*
X93674076Y-87944295D01*
X93721695Y-87849057D01*
X92328904Y-79081380D02*
X92328904Y-79890904D01*
X92281285Y-79986142D01*
X92233666Y-80033761D01*
X92138428Y-80081380D01*
X91947952Y-80081380D01*
X91852714Y-80033761D01*
X91805095Y-79986142D01*
X91757476Y-79890904D01*
X91757476Y-79081380D01*
X90757476Y-80081380D02*
X91328904Y-80081380D01*
X91043190Y-80081380D02*
X91043190Y-79081380D01*
X91138428Y-79224238D01*
X91233666Y-79319476D01*
X91328904Y-79367095D01*
X137866380Y-43673733D02*
X137390190Y-43340400D01*
X137866380Y-43102304D02*
X136866380Y-43102304D01*
X136866380Y-43483257D01*
X136914000Y-43578495D01*
X136961619Y-43626114D01*
X137056857Y-43673733D01*
X137199714Y-43673733D01*
X137294952Y-43626114D01*
X137342571Y-43578495D01*
X137390190Y-43483257D01*
X137390190Y-43102304D01*
X137294952Y-44245161D02*
X137247333Y-44149923D01*
X137199714Y-44102304D01*
X137104476Y-44054685D01*
X137056857Y-44054685D01*
X136961619Y-44102304D01*
X136914000Y-44149923D01*
X136866380Y-44245161D01*
X136866380Y-44435638D01*
X136914000Y-44530876D01*
X136961619Y-44578495D01*
X137056857Y-44626114D01*
X137104476Y-44626114D01*
X137199714Y-44578495D01*
X137247333Y-44530876D01*
X137294952Y-44435638D01*
X137294952Y-44245161D01*
X137342571Y-44149923D01*
X137390190Y-44102304D01*
X137485428Y-44054685D01*
X137675904Y-44054685D01*
X137771142Y-44102304D01*
X137818761Y-44149923D01*
X137866380Y-44245161D01*
X137866380Y-44435638D01*
X137818761Y-44530876D01*
X137771142Y-44578495D01*
X137675904Y-44626114D01*
X137485428Y-44626114D01*
X137390190Y-44578495D01*
X137342571Y-44530876D01*
X137294952Y-44435638D01*
X137104380Y-34834533D02*
X136628190Y-34501200D01*
X137104380Y-34263104D02*
X136104380Y-34263104D01*
X136104380Y-34644057D01*
X136152000Y-34739295D01*
X136199619Y-34786914D01*
X136294857Y-34834533D01*
X136437714Y-34834533D01*
X136532952Y-34786914D01*
X136580571Y-34739295D01*
X136628190Y-34644057D01*
X136628190Y-34263104D01*
X137104380Y-35310723D02*
X137104380Y-35501200D01*
X137056761Y-35596438D01*
X137009142Y-35644057D01*
X136866285Y-35739295D01*
X136675809Y-35786914D01*
X136294857Y-35786914D01*
X136199619Y-35739295D01*
X136152000Y-35691676D01*
X136104380Y-35596438D01*
X136104380Y-35405961D01*
X136152000Y-35310723D01*
X136199619Y-35263104D01*
X136294857Y-35215485D01*
X136532952Y-35215485D01*
X136628190Y-35263104D01*
X136675809Y-35310723D01*
X136723428Y-35405961D01*
X136723428Y-35596438D01*
X136675809Y-35691676D01*
X136628190Y-35739295D01*
X136532952Y-35786914D01*
X140101580Y-43724533D02*
X139625390Y-43391200D01*
X140101580Y-43153104D02*
X139101580Y-43153104D01*
X139101580Y-43534057D01*
X139149200Y-43629295D01*
X139196819Y-43676914D01*
X139292057Y-43724533D01*
X139434914Y-43724533D01*
X139530152Y-43676914D01*
X139577771Y-43629295D01*
X139625390Y-43534057D01*
X139625390Y-43153104D01*
X139101580Y-44057866D02*
X139101580Y-44724533D01*
X140101580Y-44295961D01*
X125012380Y-33528095D02*
X125821904Y-33528095D01*
X125917142Y-33575714D01*
X125964761Y-33623333D01*
X126012380Y-33718571D01*
X126012380Y-33909047D01*
X125964761Y-34004285D01*
X125917142Y-34051904D01*
X125821904Y-34099523D01*
X125012380Y-34099523D01*
X125440952Y-34718571D02*
X125393333Y-34623333D01*
X125345714Y-34575714D01*
X125250476Y-34528095D01*
X125202857Y-34528095D01*
X125107619Y-34575714D01*
X125060000Y-34623333D01*
X125012380Y-34718571D01*
X125012380Y-34909047D01*
X125060000Y-35004285D01*
X125107619Y-35051904D01*
X125202857Y-35099523D01*
X125250476Y-35099523D01*
X125345714Y-35051904D01*
X125393333Y-35004285D01*
X125440952Y-34909047D01*
X125440952Y-34718571D01*
X125488571Y-34623333D01*
X125536190Y-34575714D01*
X125631428Y-34528095D01*
X125821904Y-34528095D01*
X125917142Y-34575714D01*
X125964761Y-34623333D01*
X126012380Y-34718571D01*
X126012380Y-34909047D01*
X125964761Y-35004285D01*
X125917142Y-35051904D01*
X125821904Y-35099523D01*
X125631428Y-35099523D01*
X125536190Y-35051904D01*
X125488571Y-35004285D01*
X125440952Y-34909047D01*
X137002780Y-56932533D02*
X136526590Y-56599200D01*
X137002780Y-56361104D02*
X136002780Y-56361104D01*
X136002780Y-56742057D01*
X136050400Y-56837295D01*
X136098019Y-56884914D01*
X136193257Y-56932533D01*
X136336114Y-56932533D01*
X136431352Y-56884914D01*
X136478971Y-56837295D01*
X136526590Y-56742057D01*
X136526590Y-56361104D01*
X136002780Y-57265866D02*
X136002780Y-57884914D01*
X136383733Y-57551580D01*
X136383733Y-57694438D01*
X136431352Y-57789676D01*
X136478971Y-57837295D01*
X136574209Y-57884914D01*
X136812304Y-57884914D01*
X136907542Y-57837295D01*
X136955161Y-57789676D01*
X137002780Y-57694438D01*
X137002780Y-57408723D01*
X136955161Y-57313485D01*
X136907542Y-57265866D01*
X137053580Y-47432933D02*
X136577390Y-47099600D01*
X137053580Y-46861504D02*
X136053580Y-46861504D01*
X136053580Y-47242457D01*
X136101200Y-47337695D01*
X136148819Y-47385314D01*
X136244057Y-47432933D01*
X136386914Y-47432933D01*
X136482152Y-47385314D01*
X136529771Y-47337695D01*
X136577390Y-47242457D01*
X136577390Y-46861504D01*
X136386914Y-48290076D02*
X137053580Y-48290076D01*
X136005961Y-48051980D02*
X136720247Y-47813885D01*
X136720247Y-48432933D01*
X139187180Y-56932533D02*
X138710990Y-56599200D01*
X139187180Y-56361104D02*
X138187180Y-56361104D01*
X138187180Y-56742057D01*
X138234800Y-56837295D01*
X138282419Y-56884914D01*
X138377657Y-56932533D01*
X138520514Y-56932533D01*
X138615752Y-56884914D01*
X138663371Y-56837295D01*
X138710990Y-56742057D01*
X138710990Y-56361104D01*
X138282419Y-57313485D02*
X138234800Y-57361104D01*
X138187180Y-57456342D01*
X138187180Y-57694438D01*
X138234800Y-57789676D01*
X138282419Y-57837295D01*
X138377657Y-57884914D01*
X138472895Y-57884914D01*
X138615752Y-57837295D01*
X139187180Y-57265866D01*
X139187180Y-57884914D01*
X92773404Y-132976880D02*
X92773404Y-131976880D01*
X92773404Y-132453071D02*
X92201976Y-132453071D01*
X92201976Y-132976880D02*
X92201976Y-131976880D01*
X91297214Y-132310214D02*
X91297214Y-132976880D01*
X91535309Y-131929261D02*
X91773404Y-132643547D01*
X91154357Y-132643547D01*
X173100904Y-26614380D02*
X173100904Y-25614380D01*
X173100904Y-26090571D02*
X172529476Y-26090571D01*
X172529476Y-26614380D02*
X172529476Y-25614380D01*
X172148523Y-25614380D02*
X171529476Y-25614380D01*
X171862809Y-25995333D01*
X171719952Y-25995333D01*
X171624714Y-26042952D01*
X171577095Y-26090571D01*
X171529476Y-26185809D01*
X171529476Y-26423904D01*
X171577095Y-26519142D01*
X171624714Y-26566761D01*
X171719952Y-26614380D01*
X172005666Y-26614380D01*
X172100904Y-26566761D01*
X172148523Y-26519142D01*
X170370404Y-132913380D02*
X170370404Y-131913380D01*
X170370404Y-132389571D02*
X169798976Y-132389571D01*
X169798976Y-132913380D02*
X169798976Y-131913380D01*
X169370404Y-132008619D02*
X169322785Y-131961000D01*
X169227547Y-131913380D01*
X168989452Y-131913380D01*
X168894214Y-131961000D01*
X168846595Y-132008619D01*
X168798976Y-132103857D01*
X168798976Y-132199095D01*
X168846595Y-132341952D01*
X169418023Y-132913380D01*
X168798976Y-132913380D01*
X89979404Y-26550880D02*
X89979404Y-25550880D01*
X89979404Y-26027071D02*
X89407976Y-26027071D01*
X89407976Y-26550880D02*
X89407976Y-25550880D01*
X88407976Y-26550880D02*
X88979404Y-26550880D01*
X88693690Y-26550880D02*
X88693690Y-25550880D01*
X88788928Y-25693738D01*
X88884166Y-25788976D01*
X88979404Y-25836595D01*
X125012380Y-46228095D02*
X125821904Y-46228095D01*
X125917142Y-46275714D01*
X125964761Y-46323333D01*
X126012380Y-46418571D01*
X126012380Y-46609047D01*
X125964761Y-46704285D01*
X125917142Y-46751904D01*
X125821904Y-46799523D01*
X125012380Y-46799523D01*
X125012380Y-47751904D02*
X125012380Y-47275714D01*
X125488571Y-47228095D01*
X125440952Y-47275714D01*
X125393333Y-47370952D01*
X125393333Y-47609047D01*
X125440952Y-47704285D01*
X125488571Y-47751904D01*
X125583809Y-47799523D01*
X125821904Y-47799523D01*
X125917142Y-47751904D01*
X125964761Y-47704285D01*
X126012380Y-47609047D01*
X126012380Y-47370952D01*
X125964761Y-47275714D01*
X125917142Y-47228095D01*
M02*
