G04 #@! TF.GenerationSoftware,KiCad,Pcbnew,(5.99.0-6545-gfc5120553)*
G04 #@! TF.CreationDate,2020-10-25T16:43:41-04:00*
G04 #@! TF.ProjectId,imperializer,696d7065-7269-4616-9c69-7a65722e6b69,1.22*
G04 #@! TF.SameCoordinates,Original*
G04 #@! TF.FileFunction,Legend,Top*
G04 #@! TF.FilePolarity,Positive*
%FSLAX46Y46*%
G04 Gerber Fmt 4.6, Leading zero omitted, Abs format (unit mm)*
G04 Created by KiCad (PCBNEW (5.99.0-6545-gfc5120553)) date 2020-10-25 16:43:41*
%MOMM*%
%LPD*%
G01*
G04 APERTURE LIST*
%ADD10C,0.300000*%
%ADD11C,0.150000*%
%ADD12C,0.120000*%
G04 APERTURE END LIST*
D10*
X93009285Y-66017857D02*
X93866428Y-66017857D01*
X93330714Y-67517857D02*
X93330714Y-65589285D01*
X93437857Y-65375000D01*
X93652142Y-65267857D01*
X93866428Y-65267857D01*
X94295000Y-66017857D02*
X95152142Y-66017857D01*
X94616428Y-65267857D02*
X94616428Y-67196428D01*
X94723571Y-67410714D01*
X94937857Y-67517857D01*
X95152142Y-67517857D01*
X95902142Y-67303571D02*
X96009285Y-67410714D01*
X95902142Y-67517857D01*
X95795000Y-67410714D01*
X95902142Y-67303571D01*
X95902142Y-67517857D01*
X95902142Y-66125000D02*
X96009285Y-66232142D01*
X95902142Y-66339285D01*
X95795000Y-66232142D01*
X95902142Y-66125000D01*
X95902142Y-66339285D01*
X96973571Y-67517857D02*
X96973571Y-66017857D01*
X96973571Y-66232142D02*
X97080714Y-66125000D01*
X97295000Y-66017857D01*
X97616428Y-66017857D01*
X97830714Y-66125000D01*
X97937857Y-66339285D01*
X97937857Y-67517857D01*
X97937857Y-66339285D02*
X98045000Y-66125000D01*
X98259285Y-66017857D01*
X98580714Y-66017857D01*
X98795000Y-66125000D01*
X98902142Y-66339285D01*
X98902142Y-67517857D01*
X93252142Y-82417857D02*
X93037857Y-82310714D01*
X92930714Y-82203571D01*
X92823571Y-81989285D01*
X92823571Y-81346428D01*
X92930714Y-81132142D01*
X93037857Y-81025000D01*
X93252142Y-80917857D01*
X93573571Y-80917857D01*
X93787857Y-81025000D01*
X93895000Y-81132142D01*
X94002142Y-81346428D01*
X94002142Y-81989285D01*
X93895000Y-82203571D01*
X93787857Y-82310714D01*
X93573571Y-82417857D01*
X93252142Y-82417857D01*
X94752142Y-80917857D02*
X95930714Y-80917857D01*
X94752142Y-82417857D01*
X95930714Y-82417857D01*
X96787857Y-82203571D02*
X96895000Y-82310714D01*
X96787857Y-82417857D01*
X96680714Y-82310714D01*
X96787857Y-82203571D01*
X96787857Y-82417857D01*
X96787857Y-81025000D02*
X96895000Y-81132142D01*
X96787857Y-81239285D01*
X96680714Y-81132142D01*
X96787857Y-81025000D01*
X96787857Y-81239285D01*
X97859285Y-82417857D02*
X97859285Y-80917857D01*
X97859285Y-81132142D02*
X97966428Y-81025000D01*
X98180714Y-80917857D01*
X98502142Y-80917857D01*
X98716428Y-81025000D01*
X98823571Y-81239285D01*
X98823571Y-82417857D01*
X98823571Y-81239285D02*
X98930714Y-81025000D01*
X99145000Y-80917857D01*
X99466428Y-80917857D01*
X99680714Y-81025000D01*
X99787857Y-81239285D01*
X99787857Y-82417857D01*
X101930714Y-82417857D02*
X100859285Y-82417857D01*
X100859285Y-80167857D01*
X93030714Y-71217857D02*
X93030714Y-69717857D01*
X93030714Y-69932142D02*
X93137857Y-69825000D01*
X93352142Y-69717857D01*
X93673571Y-69717857D01*
X93887857Y-69825000D01*
X93995000Y-70039285D01*
X93995000Y-71217857D01*
X93995000Y-70039285D02*
X94102142Y-69825000D01*
X94316428Y-69717857D01*
X94637857Y-69717857D01*
X94852142Y-69825000D01*
X94959285Y-70039285D01*
X94959285Y-71217857D01*
X96030714Y-71217857D02*
X96030714Y-69717857D01*
X96030714Y-68967857D02*
X95923571Y-69075000D01*
X96030714Y-69182142D01*
X96137857Y-69075000D01*
X96030714Y-68967857D01*
X96030714Y-69182142D01*
X97102142Y-71003571D02*
X97209285Y-71110714D01*
X97102142Y-71217857D01*
X96995000Y-71110714D01*
X97102142Y-71003571D01*
X97102142Y-71217857D01*
X97102142Y-69825000D02*
X97209285Y-69932142D01*
X97102142Y-70039285D01*
X96995000Y-69932142D01*
X97102142Y-69825000D01*
X97102142Y-70039285D01*
X98173571Y-71217857D02*
X98173571Y-68967857D01*
X98387857Y-70360714D02*
X99030714Y-71217857D01*
X99030714Y-69717857D02*
X98173571Y-70575000D01*
X99995000Y-71217857D02*
X99995000Y-69717857D01*
X99995000Y-69932142D02*
X100102142Y-69825000D01*
X100316428Y-69717857D01*
X100637857Y-69717857D01*
X100852142Y-69825000D01*
X100959285Y-70039285D01*
X100959285Y-71217857D01*
X100959285Y-70039285D02*
X101066428Y-69825000D01*
X101280714Y-69717857D01*
X101602142Y-69717857D01*
X101816428Y-69825000D01*
X101923571Y-70039285D01*
X101923571Y-71217857D01*
X94997714Y-78055285D02*
X94247714Y-78055285D01*
X94247714Y-79233857D02*
X94247714Y-76983857D01*
X95319142Y-76983857D01*
X96176285Y-79019571D02*
X96283428Y-79126714D01*
X96176285Y-79233857D01*
X96069142Y-79126714D01*
X96176285Y-79019571D01*
X96176285Y-79233857D01*
X96176285Y-77841000D02*
X96283428Y-77948142D01*
X96176285Y-78055285D01*
X96069142Y-77948142D01*
X96176285Y-77841000D01*
X96176285Y-78055285D01*
D11*
X97110714Y-77765476D02*
X96991666Y-77705952D01*
X96932142Y-77646428D01*
X96872619Y-77527380D01*
X96872619Y-77170238D01*
X96932142Y-77051190D01*
X96991666Y-76991666D01*
X97110714Y-76932142D01*
X97289285Y-76932142D01*
X97408333Y-76991666D01*
X97467857Y-77051190D01*
X97527380Y-77170238D01*
X97527380Y-77527380D01*
X97467857Y-77646428D01*
X97408333Y-77705952D01*
X97289285Y-77765476D01*
X97110714Y-77765476D01*
D10*
X99343428Y-79019571D02*
X99236285Y-79126714D01*
X98914857Y-79233857D01*
X98700571Y-79233857D01*
X98379142Y-79126714D01*
X98164857Y-78912428D01*
X98057714Y-78698142D01*
X97950571Y-78269571D01*
X97950571Y-77948142D01*
X98057714Y-77519571D01*
X98164857Y-77305285D01*
X98379142Y-77091000D01*
X98700571Y-76983857D01*
X98914857Y-76983857D01*
X99236285Y-77091000D01*
X99343428Y-77198142D01*
X162624285Y-56271071D02*
X162624285Y-54771071D01*
X163338571Y-56271071D02*
X163338571Y-55271071D01*
X163338571Y-55413928D02*
X163410000Y-55342500D01*
X163552857Y-55271071D01*
X163767142Y-55271071D01*
X163910000Y-55342500D01*
X163981428Y-55485357D01*
X163981428Y-56271071D01*
X163981428Y-55485357D02*
X164052857Y-55342500D01*
X164195714Y-55271071D01*
X164410000Y-55271071D01*
X164552857Y-55342500D01*
X164624285Y-55485357D01*
X164624285Y-56271071D01*
X165338571Y-55271071D02*
X165338571Y-56771071D01*
X165338571Y-55342500D02*
X165481428Y-55271071D01*
X165767142Y-55271071D01*
X165910000Y-55342500D01*
X165981428Y-55413928D01*
X166052857Y-55556785D01*
X166052857Y-55985357D01*
X165981428Y-56128214D01*
X165910000Y-56199642D01*
X165767142Y-56271071D01*
X165481428Y-56271071D01*
X165338571Y-56199642D01*
X167267142Y-56199642D02*
X167124285Y-56271071D01*
X166838571Y-56271071D01*
X166695714Y-56199642D01*
X166624285Y-56056785D01*
X166624285Y-55485357D01*
X166695714Y-55342500D01*
X166838571Y-55271071D01*
X167124285Y-55271071D01*
X167267142Y-55342500D01*
X167338571Y-55485357D01*
X167338571Y-55628214D01*
X166624285Y-55771071D01*
X167981428Y-56271071D02*
X167981428Y-55271071D01*
X167981428Y-55556785D02*
X168052857Y-55413928D01*
X168124285Y-55342500D01*
X168267142Y-55271071D01*
X168410000Y-55271071D01*
X168910000Y-56271071D02*
X168910000Y-55271071D01*
X168910000Y-54771071D02*
X168838571Y-54842500D01*
X168910000Y-54913928D01*
X168981428Y-54842500D01*
X168910000Y-54771071D01*
X168910000Y-54913928D01*
X170267142Y-56271071D02*
X170267142Y-55485357D01*
X170195714Y-55342500D01*
X170052857Y-55271071D01*
X169767142Y-55271071D01*
X169624285Y-55342500D01*
X170267142Y-56199642D02*
X170124285Y-56271071D01*
X169767142Y-56271071D01*
X169624285Y-56199642D01*
X169552857Y-56056785D01*
X169552857Y-55913928D01*
X169624285Y-55771071D01*
X169767142Y-55699642D01*
X170124285Y-55699642D01*
X170267142Y-55628214D01*
X171195714Y-56271071D02*
X171052857Y-56199642D01*
X170981428Y-56056785D01*
X170981428Y-54771071D01*
X171767142Y-56271071D02*
X171767142Y-55271071D01*
X171767142Y-54771071D02*
X171695714Y-54842500D01*
X171767142Y-54913928D01*
X171838571Y-54842500D01*
X171767142Y-54771071D01*
X171767142Y-54913928D01*
X172338571Y-55271071D02*
X173124285Y-55271071D01*
X172338571Y-56271071D01*
X173124285Y-56271071D01*
X174267142Y-56199642D02*
X174124285Y-56271071D01*
X173838571Y-56271071D01*
X173695714Y-56199642D01*
X173624285Y-56056785D01*
X173624285Y-55485357D01*
X173695714Y-55342500D01*
X173838571Y-55271071D01*
X174124285Y-55271071D01*
X174267142Y-55342500D01*
X174338571Y-55485357D01*
X174338571Y-55628214D01*
X173624285Y-55771071D01*
X174981428Y-56271071D02*
X174981428Y-55271071D01*
X174981428Y-55556785D02*
X175052857Y-55413928D01*
X175124285Y-55342500D01*
X175267142Y-55271071D01*
X175410000Y-55271071D01*
X166767142Y-57686071D02*
X167124285Y-58686071D01*
X167481428Y-57686071D01*
X168838571Y-58686071D02*
X167981428Y-58686071D01*
X168410000Y-58686071D02*
X168410000Y-57186071D01*
X168267142Y-57400357D01*
X168124285Y-57543214D01*
X167981428Y-57614642D01*
X169481428Y-58543214D02*
X169552857Y-58614642D01*
X169481428Y-58686071D01*
X169410000Y-58614642D01*
X169481428Y-58543214D01*
X169481428Y-58686071D01*
X170052857Y-57186071D02*
X170981428Y-57186071D01*
X170481428Y-57757500D01*
X170695714Y-57757500D01*
X170838571Y-57828928D01*
X170910000Y-57900357D01*
X170981428Y-58043214D01*
X170981428Y-58400357D01*
X170910000Y-58543214D01*
X170838571Y-58614642D01*
X170695714Y-58686071D01*
X170267142Y-58686071D01*
X170124285Y-58614642D01*
X170052857Y-58543214D01*
X93130714Y-63617857D02*
X93130714Y-62117857D01*
X93130714Y-61367857D02*
X93023571Y-61475000D01*
X93130714Y-61582142D01*
X93237857Y-61475000D01*
X93130714Y-61367857D01*
X93130714Y-61582142D01*
X94202142Y-62117857D02*
X94202142Y-63617857D01*
X94202142Y-62332142D02*
X94309285Y-62225000D01*
X94523571Y-62117857D01*
X94845000Y-62117857D01*
X95059285Y-62225000D01*
X95166428Y-62439285D01*
X95166428Y-63617857D01*
X96237857Y-63403571D02*
X96345000Y-63510714D01*
X96237857Y-63617857D01*
X96130714Y-63510714D01*
X96237857Y-63403571D01*
X96237857Y-63617857D01*
X96237857Y-62225000D02*
X96345000Y-62332142D01*
X96237857Y-62439285D01*
X96130714Y-62332142D01*
X96237857Y-62225000D01*
X96237857Y-62439285D01*
X97309285Y-63617857D02*
X97309285Y-62117857D01*
X97309285Y-62332142D02*
X97416428Y-62225000D01*
X97630714Y-62117857D01*
X97952142Y-62117857D01*
X98166428Y-62225000D01*
X98273571Y-62439285D01*
X98273571Y-63617857D01*
X98273571Y-62439285D02*
X98380714Y-62225000D01*
X98595000Y-62117857D01*
X98916428Y-62117857D01*
X99130714Y-62225000D01*
X99237857Y-62439285D01*
X99237857Y-63617857D01*
X100309285Y-63617857D02*
X100309285Y-62117857D01*
X100309285Y-62332142D02*
X100416428Y-62225000D01*
X100630714Y-62117857D01*
X100952142Y-62117857D01*
X101166428Y-62225000D01*
X101273571Y-62439285D01*
X101273571Y-63617857D01*
X101273571Y-62439285D02*
X101380714Y-62225000D01*
X101595000Y-62117857D01*
X101916428Y-62117857D01*
X102130714Y-62225000D01*
X102237857Y-62439285D01*
X102237857Y-63617857D01*
X93426142Y-75423857D02*
X93211857Y-75316714D01*
X93104714Y-75102428D01*
X93104714Y-73173857D01*
X94283285Y-75423857D02*
X94283285Y-73173857D01*
X94283285Y-74031000D02*
X94497571Y-73923857D01*
X94926142Y-73923857D01*
X95140428Y-74031000D01*
X95247571Y-74138142D01*
X95354714Y-74352428D01*
X95354714Y-74995285D01*
X95247571Y-75209571D01*
X95140428Y-75316714D01*
X94926142Y-75423857D01*
X94497571Y-75423857D01*
X94283285Y-75316714D01*
X96319000Y-75209571D02*
X96426142Y-75316714D01*
X96319000Y-75423857D01*
X96211857Y-75316714D01*
X96319000Y-75209571D01*
X96319000Y-75423857D01*
X96319000Y-74031000D02*
X96426142Y-74138142D01*
X96319000Y-74245285D01*
X96211857Y-74138142D01*
X96319000Y-74031000D01*
X96319000Y-74245285D01*
X97390428Y-75423857D02*
X97390428Y-73173857D01*
X97604714Y-74566714D02*
X98247571Y-75423857D01*
X98247571Y-73923857D02*
X97390428Y-74781000D01*
X100176142Y-73923857D02*
X100176142Y-75745285D01*
X100069000Y-75959571D01*
X99961857Y-76066714D01*
X99747571Y-76173857D01*
X99426142Y-76173857D01*
X99211857Y-76066714D01*
X100176142Y-75316714D02*
X99961857Y-75423857D01*
X99533285Y-75423857D01*
X99319000Y-75316714D01*
X99211857Y-75209571D01*
X99104714Y-74995285D01*
X99104714Y-74352428D01*
X99211857Y-74138142D01*
X99319000Y-74031000D01*
X99533285Y-73923857D01*
X99961857Y-73923857D01*
X100176142Y-74031000D01*
D11*
X93173714Y-77765476D02*
X93054666Y-77705952D01*
X92995142Y-77646428D01*
X92935619Y-77527380D01*
X92935619Y-77170238D01*
X92995142Y-77051190D01*
X93054666Y-76991666D01*
X93173714Y-76932142D01*
X93352285Y-76932142D01*
X93471333Y-76991666D01*
X93530857Y-77051190D01*
X93590380Y-77170238D01*
X93590380Y-77527380D01*
X93530857Y-77646428D01*
X93471333Y-77705952D01*
X93352285Y-77765476D01*
X93173714Y-77765476D01*
X89602380Y-63538095D02*
X88602380Y-63538095D01*
X88602380Y-63300000D01*
X88650000Y-63157142D01*
X88745238Y-63061904D01*
X88840476Y-63014285D01*
X89030952Y-62966666D01*
X89173809Y-62966666D01*
X89364285Y-63014285D01*
X89459523Y-63061904D01*
X89554761Y-63157142D01*
X89602380Y-63300000D01*
X89602380Y-63538095D01*
X88602380Y-62633333D02*
X88602380Y-62014285D01*
X88983333Y-62347619D01*
X88983333Y-62204761D01*
X89030952Y-62109523D01*
X89078571Y-62061904D01*
X89173809Y-62014285D01*
X89411904Y-62014285D01*
X89507142Y-62061904D01*
X89554761Y-62109523D01*
X89602380Y-62204761D01*
X89602380Y-62490476D01*
X89554761Y-62585714D01*
X89507142Y-62633333D01*
X89602380Y-67338095D02*
X88602380Y-67338095D01*
X88602380Y-67100000D01*
X88650000Y-66957142D01*
X88745238Y-66861904D01*
X88840476Y-66814285D01*
X89030952Y-66766666D01*
X89173809Y-66766666D01*
X89364285Y-66814285D01*
X89459523Y-66861904D01*
X89554761Y-66957142D01*
X89602380Y-67100000D01*
X89602380Y-67338095D01*
X88697619Y-66385714D02*
X88650000Y-66338095D01*
X88602380Y-66242857D01*
X88602380Y-66004761D01*
X88650000Y-65909523D01*
X88697619Y-65861904D01*
X88792857Y-65814285D01*
X88888095Y-65814285D01*
X89030952Y-65861904D01*
X89602380Y-66433333D01*
X89602380Y-65814285D01*
X110998095Y-96670761D02*
X111140952Y-96718380D01*
X111379047Y-96718380D01*
X111474285Y-96670761D01*
X111521904Y-96623142D01*
X111569523Y-96527904D01*
X111569523Y-96432666D01*
X111521904Y-96337428D01*
X111474285Y-96289809D01*
X111379047Y-96242190D01*
X111188571Y-96194571D01*
X111093333Y-96146952D01*
X111045714Y-96099333D01*
X110998095Y-96004095D01*
X110998095Y-95908857D01*
X111045714Y-95813619D01*
X111093333Y-95766000D01*
X111188571Y-95718380D01*
X111426666Y-95718380D01*
X111569523Y-95766000D01*
X112426666Y-96051714D02*
X112426666Y-96718380D01*
X112188571Y-95670761D02*
X111950476Y-96385047D01*
X112569523Y-96385047D01*
X130048095Y-96670761D02*
X130190952Y-96718380D01*
X130429047Y-96718380D01*
X130524285Y-96670761D01*
X130571904Y-96623142D01*
X130619523Y-96527904D01*
X130619523Y-96432666D01*
X130571904Y-96337428D01*
X130524285Y-96289809D01*
X130429047Y-96242190D01*
X130238571Y-96194571D01*
X130143333Y-96146952D01*
X130095714Y-96099333D01*
X130048095Y-96004095D01*
X130048095Y-95908857D01*
X130095714Y-95813619D01*
X130143333Y-95766000D01*
X130238571Y-95718380D01*
X130476666Y-95718380D01*
X130619523Y-95766000D01*
X131524285Y-95718380D02*
X131048095Y-95718380D01*
X131000476Y-96194571D01*
X131048095Y-96146952D01*
X131143333Y-96099333D01*
X131381428Y-96099333D01*
X131476666Y-96146952D01*
X131524285Y-96194571D01*
X131571904Y-96289809D01*
X131571904Y-96527904D01*
X131524285Y-96623142D01*
X131476666Y-96670761D01*
X131381428Y-96718380D01*
X131143333Y-96718380D01*
X131048095Y-96670761D01*
X131000476Y-96623142D01*
X110998095Y-58570761D02*
X111140952Y-58618380D01*
X111379047Y-58618380D01*
X111474285Y-58570761D01*
X111521904Y-58523142D01*
X111569523Y-58427904D01*
X111569523Y-58332666D01*
X111521904Y-58237428D01*
X111474285Y-58189809D01*
X111379047Y-58142190D01*
X111188571Y-58094571D01*
X111093333Y-58046952D01*
X111045714Y-57999333D01*
X110998095Y-57904095D01*
X110998095Y-57808857D01*
X111045714Y-57713619D01*
X111093333Y-57666000D01*
X111188571Y-57618380D01*
X111426666Y-57618380D01*
X111569523Y-57666000D01*
X111902857Y-57618380D02*
X112569523Y-57618380D01*
X112140952Y-58618380D01*
X110998095Y-77620761D02*
X111140952Y-77668380D01*
X111379047Y-77668380D01*
X111474285Y-77620761D01*
X111521904Y-77573142D01*
X111569523Y-77477904D01*
X111569523Y-77382666D01*
X111521904Y-77287428D01*
X111474285Y-77239809D01*
X111379047Y-77192190D01*
X111188571Y-77144571D01*
X111093333Y-77096952D01*
X111045714Y-77049333D01*
X110998095Y-76954095D01*
X110998095Y-76858857D01*
X111045714Y-76763619D01*
X111093333Y-76716000D01*
X111188571Y-76668380D01*
X111426666Y-76668380D01*
X111569523Y-76716000D01*
X112140952Y-77096952D02*
X112045714Y-77049333D01*
X111998095Y-77001714D01*
X111950476Y-76906476D01*
X111950476Y-76858857D01*
X111998095Y-76763619D01*
X112045714Y-76716000D01*
X112140952Y-76668380D01*
X112331428Y-76668380D01*
X112426666Y-76716000D01*
X112474285Y-76763619D01*
X112521904Y-76858857D01*
X112521904Y-76906476D01*
X112474285Y-77001714D01*
X112426666Y-77049333D01*
X112331428Y-77096952D01*
X112140952Y-77096952D01*
X112045714Y-77144571D01*
X111998095Y-77192190D01*
X111950476Y-77287428D01*
X111950476Y-77477904D01*
X111998095Y-77573142D01*
X112045714Y-77620761D01*
X112140952Y-77668380D01*
X112331428Y-77668380D01*
X112426666Y-77620761D01*
X112474285Y-77573142D01*
X112521904Y-77477904D01*
X112521904Y-77287428D01*
X112474285Y-77192190D01*
X112426666Y-77144571D01*
X112331428Y-77096952D01*
X130048095Y-77620761D02*
X130190952Y-77668380D01*
X130429047Y-77668380D01*
X130524285Y-77620761D01*
X130571904Y-77573142D01*
X130619523Y-77477904D01*
X130619523Y-77382666D01*
X130571904Y-77287428D01*
X130524285Y-77239809D01*
X130429047Y-77192190D01*
X130238571Y-77144571D01*
X130143333Y-77096952D01*
X130095714Y-77049333D01*
X130048095Y-76954095D01*
X130048095Y-76858857D01*
X130095714Y-76763619D01*
X130143333Y-76716000D01*
X130238571Y-76668380D01*
X130476666Y-76668380D01*
X130619523Y-76716000D01*
X131095714Y-77668380D02*
X131286190Y-77668380D01*
X131381428Y-77620761D01*
X131429047Y-77573142D01*
X131524285Y-77430285D01*
X131571904Y-77239809D01*
X131571904Y-76858857D01*
X131524285Y-76763619D01*
X131476666Y-76716000D01*
X131381428Y-76668380D01*
X131190952Y-76668380D01*
X131095714Y-76716000D01*
X131048095Y-76763619D01*
X131000476Y-76858857D01*
X131000476Y-77096952D01*
X131048095Y-77192190D01*
X131095714Y-77239809D01*
X131190952Y-77287428D01*
X131381428Y-77287428D01*
X131476666Y-77239809D01*
X131524285Y-77192190D01*
X131571904Y-77096952D01*
X129571904Y-58570761D02*
X129714761Y-58618380D01*
X129952857Y-58618380D01*
X130048095Y-58570761D01*
X130095714Y-58523142D01*
X130143333Y-58427904D01*
X130143333Y-58332666D01*
X130095714Y-58237428D01*
X130048095Y-58189809D01*
X129952857Y-58142190D01*
X129762380Y-58094571D01*
X129667142Y-58046952D01*
X129619523Y-57999333D01*
X129571904Y-57904095D01*
X129571904Y-57808857D01*
X129619523Y-57713619D01*
X129667142Y-57666000D01*
X129762380Y-57618380D01*
X130000476Y-57618380D01*
X130143333Y-57666000D01*
X131095714Y-58618380D02*
X130524285Y-58618380D01*
X130810000Y-58618380D02*
X130810000Y-57618380D01*
X130714761Y-57761238D01*
X130619523Y-57856476D01*
X130524285Y-57904095D01*
X132048095Y-58618380D02*
X131476666Y-58618380D01*
X131762380Y-58618380D02*
X131762380Y-57618380D01*
X131667142Y-57761238D01*
X131571904Y-57856476D01*
X131476666Y-57904095D01*
X149098095Y-58570761D02*
X149240952Y-58618380D01*
X149479047Y-58618380D01*
X149574285Y-58570761D01*
X149621904Y-58523142D01*
X149669523Y-58427904D01*
X149669523Y-58332666D01*
X149621904Y-58237428D01*
X149574285Y-58189809D01*
X149479047Y-58142190D01*
X149288571Y-58094571D01*
X149193333Y-58046952D01*
X149145714Y-57999333D01*
X149098095Y-57904095D01*
X149098095Y-57808857D01*
X149145714Y-57713619D01*
X149193333Y-57666000D01*
X149288571Y-57618380D01*
X149526666Y-57618380D01*
X149669523Y-57666000D01*
X150621904Y-58618380D02*
X150050476Y-58618380D01*
X150336190Y-58618380D02*
X150336190Y-57618380D01*
X150240952Y-57761238D01*
X150145714Y-57856476D01*
X150050476Y-57904095D01*
X149098095Y-115720761D02*
X149240952Y-115768380D01*
X149479047Y-115768380D01*
X149574285Y-115720761D01*
X149621904Y-115673142D01*
X149669523Y-115577904D01*
X149669523Y-115482666D01*
X149621904Y-115387428D01*
X149574285Y-115339809D01*
X149479047Y-115292190D01*
X149288571Y-115244571D01*
X149193333Y-115196952D01*
X149145714Y-115149333D01*
X149098095Y-115054095D01*
X149098095Y-114958857D01*
X149145714Y-114863619D01*
X149193333Y-114816000D01*
X149288571Y-114768380D01*
X149526666Y-114768380D01*
X149669523Y-114816000D01*
X150050476Y-114863619D02*
X150098095Y-114816000D01*
X150193333Y-114768380D01*
X150431428Y-114768380D01*
X150526666Y-114816000D01*
X150574285Y-114863619D01*
X150621904Y-114958857D01*
X150621904Y-115054095D01*
X150574285Y-115196952D01*
X150002857Y-115768380D01*
X150621904Y-115768380D01*
X171338095Y-52252380D02*
X171338095Y-53061904D01*
X171385714Y-53157142D01*
X171433333Y-53204761D01*
X171528571Y-53252380D01*
X171719047Y-53252380D01*
X171814285Y-53204761D01*
X171861904Y-53157142D01*
X171909523Y-53061904D01*
X171909523Y-52252380D01*
X172290476Y-52252380D02*
X172909523Y-52252380D01*
X172576190Y-52633333D01*
X172719047Y-52633333D01*
X172814285Y-52680952D01*
X172861904Y-52728571D01*
X172909523Y-52823809D01*
X172909523Y-53061904D01*
X172861904Y-53157142D01*
X172814285Y-53204761D01*
X172719047Y-53252380D01*
X172433333Y-53252380D01*
X172338095Y-53204761D01*
X172290476Y-53157142D01*
X88493695Y-45985180D02*
X88493695Y-46794704D01*
X88541314Y-46889942D01*
X88588933Y-46937561D01*
X88684171Y-46985180D01*
X88874647Y-46985180D01*
X88969885Y-46937561D01*
X89017504Y-46889942D01*
X89065123Y-46794704D01*
X89065123Y-45985180D01*
X89493695Y-46080419D02*
X89541314Y-46032800D01*
X89636552Y-45985180D01*
X89874647Y-45985180D01*
X89969885Y-46032800D01*
X90017504Y-46080419D01*
X90065123Y-46175657D01*
X90065123Y-46270895D01*
X90017504Y-46413752D01*
X89446076Y-46985180D01*
X90065123Y-46985180D01*
X120523095Y-115720761D02*
X120665952Y-115768380D01*
X120904047Y-115768380D01*
X120999285Y-115720761D01*
X121046904Y-115673142D01*
X121094523Y-115577904D01*
X121094523Y-115482666D01*
X121046904Y-115387428D01*
X120999285Y-115339809D01*
X120904047Y-115292190D01*
X120713571Y-115244571D01*
X120618333Y-115196952D01*
X120570714Y-115149333D01*
X120523095Y-115054095D01*
X120523095Y-114958857D01*
X120570714Y-114863619D01*
X120618333Y-114816000D01*
X120713571Y-114768380D01*
X120951666Y-114768380D01*
X121094523Y-114816000D01*
X121427857Y-114768380D02*
X122046904Y-114768380D01*
X121713571Y-115149333D01*
X121856428Y-115149333D01*
X121951666Y-115196952D01*
X121999285Y-115244571D01*
X122046904Y-115339809D01*
X122046904Y-115577904D01*
X121999285Y-115673142D01*
X121951666Y-115720761D01*
X121856428Y-115768380D01*
X121570714Y-115768380D01*
X121475476Y-115720761D01*
X121427857Y-115673142D01*
X169138095Y-25952380D02*
X169138095Y-26761904D01*
X169185714Y-26857142D01*
X169233333Y-26904761D01*
X169328571Y-26952380D01*
X169519047Y-26952380D01*
X169614285Y-26904761D01*
X169661904Y-26857142D01*
X169709523Y-26761904D01*
X169709523Y-25952380D01*
X170090476Y-25952380D02*
X170757142Y-25952380D01*
X170328571Y-26952380D01*
X88595295Y-34047180D02*
X88595295Y-34856704D01*
X88642914Y-34951942D01*
X88690533Y-34999561D01*
X88785771Y-35047180D01*
X88976247Y-35047180D01*
X89071485Y-34999561D01*
X89119104Y-34951942D01*
X89166723Y-34856704D01*
X89166723Y-34047180D01*
X90071485Y-34047180D02*
X89881009Y-34047180D01*
X89785771Y-34094800D01*
X89738152Y-34142419D01*
X89642914Y-34285276D01*
X89595295Y-34475752D01*
X89595295Y-34856704D01*
X89642914Y-34951942D01*
X89690533Y-34999561D01*
X89785771Y-35047180D01*
X89976247Y-35047180D01*
X90071485Y-34999561D01*
X90119104Y-34951942D01*
X90166723Y-34856704D01*
X90166723Y-34618609D01*
X90119104Y-34523371D01*
X90071485Y-34475752D01*
X89976247Y-34428133D01*
X89785771Y-34428133D01*
X89690533Y-34475752D01*
X89642914Y-34523371D01*
X89595295Y-34618609D01*
X149098095Y-96670761D02*
X149240952Y-96718380D01*
X149479047Y-96718380D01*
X149574285Y-96670761D01*
X149621904Y-96623142D01*
X149669523Y-96527904D01*
X149669523Y-96432666D01*
X149621904Y-96337428D01*
X149574285Y-96289809D01*
X149479047Y-96242190D01*
X149288571Y-96194571D01*
X149193333Y-96146952D01*
X149145714Y-96099333D01*
X149098095Y-96004095D01*
X149098095Y-95908857D01*
X149145714Y-95813619D01*
X149193333Y-95766000D01*
X149288571Y-95718380D01*
X149526666Y-95718380D01*
X149669523Y-95766000D01*
X150526666Y-95718380D02*
X150336190Y-95718380D01*
X150240952Y-95766000D01*
X150193333Y-95813619D01*
X150098095Y-95956476D01*
X150050476Y-96146952D01*
X150050476Y-96527904D01*
X150098095Y-96623142D01*
X150145714Y-96670761D01*
X150240952Y-96718380D01*
X150431428Y-96718380D01*
X150526666Y-96670761D01*
X150574285Y-96623142D01*
X150621904Y-96527904D01*
X150621904Y-96289809D01*
X150574285Y-96194571D01*
X150526666Y-96146952D01*
X150431428Y-96099333D01*
X150240952Y-96099333D01*
X150145714Y-96146952D01*
X150098095Y-96194571D01*
X150050476Y-96289809D01*
X174566666Y-25952380D02*
X174566666Y-26666666D01*
X174519047Y-26809523D01*
X174423809Y-26904761D01*
X174280952Y-26952380D01*
X174185714Y-26952380D01*
X174995238Y-26047619D02*
X175042857Y-26000000D01*
X175138095Y-25952380D01*
X175376190Y-25952380D01*
X175471428Y-26000000D01*
X175519047Y-26047619D01*
X175566666Y-26142857D01*
X175566666Y-26238095D01*
X175519047Y-26380952D01*
X174947619Y-26952380D01*
X175566666Y-26952380D01*
X89510880Y-58577095D02*
X88510880Y-58577095D01*
X88510880Y-58339000D01*
X88558500Y-58196142D01*
X88653738Y-58100904D01*
X88748976Y-58053285D01*
X88939452Y-58005666D01*
X89082309Y-58005666D01*
X89272785Y-58053285D01*
X89368023Y-58100904D01*
X89463261Y-58196142D01*
X89510880Y-58339000D01*
X89510880Y-58577095D01*
X88844214Y-57148523D02*
X89510880Y-57148523D01*
X88463261Y-57386619D02*
X89177547Y-57624714D01*
X89177547Y-57005666D01*
X168576666Y-61574761D02*
X168719523Y-61622380D01*
X168957619Y-61622380D01*
X169052857Y-61574761D01*
X169100476Y-61527142D01*
X169148095Y-61431904D01*
X169148095Y-61336666D01*
X169100476Y-61241428D01*
X169052857Y-61193809D01*
X168957619Y-61146190D01*
X168767142Y-61098571D01*
X168671904Y-61050952D01*
X168624285Y-61003333D01*
X168576666Y-60908095D01*
X168576666Y-60812857D01*
X168624285Y-60717619D01*
X168671904Y-60670000D01*
X168767142Y-60622380D01*
X169005238Y-60622380D01*
X169148095Y-60670000D01*
X169481428Y-60622380D02*
X169719523Y-61622380D01*
X169910000Y-60908095D01*
X170100476Y-61622380D01*
X170338571Y-60622380D01*
X171243333Y-61622380D02*
X170671904Y-61622380D01*
X170957619Y-61622380D02*
X170957619Y-60622380D01*
X170862380Y-60765238D01*
X170767142Y-60860476D01*
X170671904Y-60908095D01*
X148621904Y-77620761D02*
X148764761Y-77668380D01*
X149002857Y-77668380D01*
X149098095Y-77620761D01*
X149145714Y-77573142D01*
X149193333Y-77477904D01*
X149193333Y-77382666D01*
X149145714Y-77287428D01*
X149098095Y-77239809D01*
X149002857Y-77192190D01*
X148812380Y-77144571D01*
X148717142Y-77096952D01*
X148669523Y-77049333D01*
X148621904Y-76954095D01*
X148621904Y-76858857D01*
X148669523Y-76763619D01*
X148717142Y-76716000D01*
X148812380Y-76668380D01*
X149050476Y-76668380D01*
X149193333Y-76716000D01*
X150145714Y-77668380D02*
X149574285Y-77668380D01*
X149860000Y-77668380D02*
X149860000Y-76668380D01*
X149764761Y-76811238D01*
X149669523Y-76906476D01*
X149574285Y-76954095D01*
X150764761Y-76668380D02*
X150860000Y-76668380D01*
X150955238Y-76716000D01*
X151002857Y-76763619D01*
X151050476Y-76858857D01*
X151098095Y-77049333D01*
X151098095Y-77287428D01*
X151050476Y-77477904D01*
X151002857Y-77573142D01*
X150955238Y-77620761D01*
X150860000Y-77668380D01*
X150764761Y-77668380D01*
X150669523Y-77620761D01*
X150621904Y-77573142D01*
X150574285Y-77477904D01*
X150526666Y-77287428D01*
X150526666Y-77049333D01*
X150574285Y-76858857D01*
X150621904Y-76763619D01*
X150669523Y-76716000D01*
X150764761Y-76668380D01*
X89607380Y-74821428D02*
X88607380Y-74821428D01*
X88607380Y-74583333D01*
X88655000Y-74440475D01*
X88750238Y-74345237D01*
X88845476Y-74297618D01*
X89035952Y-74249999D01*
X89178809Y-74249999D01*
X89369285Y-74297618D01*
X89464523Y-74345237D01*
X89559761Y-74440475D01*
X89607380Y-74583333D01*
X89607380Y-74821428D01*
X88607380Y-73392856D02*
X88607380Y-73583333D01*
X88655000Y-73678571D01*
X88702619Y-73726190D01*
X88845476Y-73821428D01*
X89035952Y-73869047D01*
X89416904Y-73869047D01*
X89512142Y-73821428D01*
X89559761Y-73773809D01*
X89607380Y-73678571D01*
X89607380Y-73488094D01*
X89559761Y-73392856D01*
X89512142Y-73345237D01*
X89416904Y-73297618D01*
X89178809Y-73297618D01*
X89083571Y-73345237D01*
X89035952Y-73392856D01*
X88988333Y-73488094D01*
X88988333Y-73678571D01*
X89035952Y-73773809D01*
X89083571Y-73821428D01*
X89178809Y-73869047D01*
X89607380Y-78546761D02*
X88607380Y-78546761D01*
X88607380Y-78308666D01*
X88655000Y-78165808D01*
X88750238Y-78070570D01*
X88845476Y-78022951D01*
X89035952Y-77975332D01*
X89178809Y-77975332D01*
X89369285Y-78022951D01*
X89464523Y-78070570D01*
X89559761Y-78165808D01*
X89607380Y-78308666D01*
X89607380Y-78546761D01*
X88607380Y-77641999D02*
X88607380Y-76975332D01*
X89607380Y-77403904D01*
X89607380Y-71096095D02*
X88607380Y-71096095D01*
X88607380Y-70858000D01*
X88655000Y-70715142D01*
X88750238Y-70619904D01*
X88845476Y-70572285D01*
X89035952Y-70524666D01*
X89178809Y-70524666D01*
X89369285Y-70572285D01*
X89464523Y-70619904D01*
X89559761Y-70715142D01*
X89607380Y-70858000D01*
X89607380Y-71096095D01*
X88607380Y-69619904D02*
X88607380Y-70096095D01*
X89083571Y-70143714D01*
X89035952Y-70096095D01*
X88988333Y-70000857D01*
X88988333Y-69762761D01*
X89035952Y-69667523D01*
X89083571Y-69619904D01*
X89178809Y-69572285D01*
X89416904Y-69572285D01*
X89512142Y-69619904D01*
X89559761Y-69667523D01*
X89607380Y-69762761D01*
X89607380Y-70000857D01*
X89559761Y-70096095D01*
X89512142Y-70143714D01*
X89685880Y-82272095D02*
X88685880Y-82272095D01*
X88685880Y-82034000D01*
X88733500Y-81891142D01*
X88828738Y-81795904D01*
X88923976Y-81748285D01*
X89114452Y-81700666D01*
X89257309Y-81700666D01*
X89447785Y-81748285D01*
X89543023Y-81795904D01*
X89638261Y-81891142D01*
X89685880Y-82034000D01*
X89685880Y-82272095D01*
X89114452Y-81129238D02*
X89066833Y-81224476D01*
X89019214Y-81272095D01*
X88923976Y-81319714D01*
X88876357Y-81319714D01*
X88781119Y-81272095D01*
X88733500Y-81224476D01*
X88685880Y-81129238D01*
X88685880Y-80938761D01*
X88733500Y-80843523D01*
X88781119Y-80795904D01*
X88876357Y-80748285D01*
X88923976Y-80748285D01*
X89019214Y-80795904D01*
X89066833Y-80843523D01*
X89114452Y-80938761D01*
X89114452Y-81129238D01*
X89162071Y-81224476D01*
X89209690Y-81272095D01*
X89304928Y-81319714D01*
X89495404Y-81319714D01*
X89590642Y-81272095D01*
X89638261Y-81224476D01*
X89685880Y-81129238D01*
X89685880Y-80938761D01*
X89638261Y-80843523D01*
X89590642Y-80795904D01*
X89495404Y-80748285D01*
X89304928Y-80748285D01*
X89209690Y-80795904D01*
X89162071Y-80843523D01*
X89114452Y-80938761D01*
X167671904Y-96670761D02*
X167814761Y-96718380D01*
X168052857Y-96718380D01*
X168148095Y-96670761D01*
X168195714Y-96623142D01*
X168243333Y-96527904D01*
X168243333Y-96432666D01*
X168195714Y-96337428D01*
X168148095Y-96289809D01*
X168052857Y-96242190D01*
X167862380Y-96194571D01*
X167767142Y-96146952D01*
X167719523Y-96099333D01*
X167671904Y-96004095D01*
X167671904Y-95908857D01*
X167719523Y-95813619D01*
X167767142Y-95766000D01*
X167862380Y-95718380D01*
X168100476Y-95718380D01*
X168243333Y-95766000D01*
X169195714Y-96718380D02*
X168624285Y-96718380D01*
X168910000Y-96718380D02*
X168910000Y-95718380D01*
X168814761Y-95861238D01*
X168719523Y-95956476D01*
X168624285Y-96004095D01*
X170052857Y-96051714D02*
X170052857Y-96718380D01*
X169814761Y-95670761D02*
X169576666Y-96385047D01*
X170195714Y-96385047D01*
X167671904Y-115720761D02*
X167814761Y-115768380D01*
X168052857Y-115768380D01*
X168148095Y-115720761D01*
X168195714Y-115673142D01*
X168243333Y-115577904D01*
X168243333Y-115482666D01*
X168195714Y-115387428D01*
X168148095Y-115339809D01*
X168052857Y-115292190D01*
X167862380Y-115244571D01*
X167767142Y-115196952D01*
X167719523Y-115149333D01*
X167671904Y-115054095D01*
X167671904Y-114958857D01*
X167719523Y-114863619D01*
X167767142Y-114816000D01*
X167862380Y-114768380D01*
X168100476Y-114768380D01*
X168243333Y-114816000D01*
X169195714Y-115768380D02*
X168624285Y-115768380D01*
X168910000Y-115768380D02*
X168910000Y-114768380D01*
X168814761Y-114911238D01*
X168719523Y-115006476D01*
X168624285Y-115054095D01*
X169576666Y-114863619D02*
X169624285Y-114816000D01*
X169719523Y-114768380D01*
X169957619Y-114768380D01*
X170052857Y-114816000D01*
X170100476Y-114863619D01*
X170148095Y-114958857D01*
X170148095Y-115054095D01*
X170100476Y-115196952D01*
X169529047Y-115768380D01*
X170148095Y-115768380D01*
X89135085Y-128768837D02*
X89182704Y-128625980D01*
X89230323Y-128578361D01*
X89325561Y-128530742D01*
X89468418Y-128530742D01*
X89563656Y-128578361D01*
X89611275Y-128625980D01*
X89658894Y-128721218D01*
X89658894Y-129102170D01*
X88658894Y-129102170D01*
X88658894Y-128768837D01*
X88706514Y-128673599D01*
X88754133Y-128625980D01*
X88849371Y-128578361D01*
X88944609Y-128578361D01*
X89039847Y-128625980D01*
X89087466Y-128673599D01*
X89135085Y-128768837D01*
X89135085Y-129102170D01*
X88658894Y-128245027D02*
X88658894Y-127673599D01*
X89658894Y-127959313D02*
X88658894Y-127959313D01*
X89658894Y-126816456D02*
X89658894Y-127387884D01*
X89658894Y-127102170D02*
X88658894Y-127102170D01*
X88801752Y-127197408D01*
X88896990Y-127292646D01*
X88944609Y-127387884D01*
X102777942Y-133964075D02*
X102777942Y-133202170D01*
X103158894Y-133583123D02*
X102396990Y-133583123D01*
X102325561Y-85254551D02*
X103087466Y-85254551D01*
X167671904Y-77620761D02*
X167814761Y-77668380D01*
X168052857Y-77668380D01*
X168148095Y-77620761D01*
X168195714Y-77573142D01*
X168243333Y-77477904D01*
X168243333Y-77382666D01*
X168195714Y-77287428D01*
X168148095Y-77239809D01*
X168052857Y-77192190D01*
X167862380Y-77144571D01*
X167767142Y-77096952D01*
X167719523Y-77049333D01*
X167671904Y-76954095D01*
X167671904Y-76858857D01*
X167719523Y-76763619D01*
X167767142Y-76716000D01*
X167862380Y-76668380D01*
X168100476Y-76668380D01*
X168243333Y-76716000D01*
X169195714Y-77668380D02*
X168624285Y-77668380D01*
X168910000Y-77668380D02*
X168910000Y-76668380D01*
X168814761Y-76811238D01*
X168719523Y-76906476D01*
X168624285Y-76954095D01*
X170100476Y-76668380D02*
X169624285Y-76668380D01*
X169576666Y-77144571D01*
X169624285Y-77096952D01*
X169719523Y-77049333D01*
X169957619Y-77049333D01*
X170052857Y-77096952D01*
X170100476Y-77144571D01*
X170148095Y-77239809D01*
X170148095Y-77477904D01*
X170100476Y-77573142D01*
X170052857Y-77620761D01*
X169957619Y-77668380D01*
X169719523Y-77668380D01*
X169624285Y-77620761D01*
X169576666Y-77573142D01*
X173261904Y-41604761D02*
X173404761Y-41652380D01*
X173642857Y-41652380D01*
X173738095Y-41604761D01*
X173785714Y-41557142D01*
X173833333Y-41461904D01*
X173833333Y-41366666D01*
X173785714Y-41271428D01*
X173738095Y-41223809D01*
X173642857Y-41176190D01*
X173452380Y-41128571D01*
X173357142Y-41080952D01*
X173309523Y-41033333D01*
X173261904Y-40938095D01*
X173261904Y-40842857D01*
X173309523Y-40747619D01*
X173357142Y-40700000D01*
X173452380Y-40652380D01*
X173690476Y-40652380D01*
X173833333Y-40700000D01*
X174785714Y-41652380D02*
X174214285Y-41652380D01*
X174500000Y-41652380D02*
X174500000Y-40652380D01*
X174404761Y-40795238D01*
X174309523Y-40890476D01*
X174214285Y-40938095D01*
X175119047Y-40652380D02*
X175738095Y-40652380D01*
X175404761Y-41033333D01*
X175547619Y-41033333D01*
X175642857Y-41080952D01*
X175690476Y-41128571D01*
X175738095Y-41223809D01*
X175738095Y-41461904D01*
X175690476Y-41557142D01*
X175642857Y-41604761D01*
X175547619Y-41652380D01*
X175261904Y-41652380D01*
X175166666Y-41604761D01*
X175119047Y-41557142D01*
D12*
X91760000Y-64485000D02*
X91760000Y-61800000D01*
X89840000Y-64485000D02*
X91760000Y-64485000D01*
X89840000Y-61800000D02*
X89840000Y-64485000D01*
X91760000Y-68285000D02*
X91760000Y-65600000D01*
X89840000Y-68285000D02*
X91760000Y-68285000D01*
X89840000Y-65600000D02*
X89840000Y-68285000D01*
X104775000Y-111125000D02*
X104775000Y-97155000D01*
X104775000Y-97155000D02*
X118745000Y-97155000D01*
X118745000Y-97155000D02*
X118745000Y-111125000D01*
X118745000Y-111125000D02*
X104775000Y-111125000D01*
X137795000Y-111125000D02*
X123825000Y-111125000D01*
X123825000Y-97155000D02*
X137795000Y-97155000D01*
X123825000Y-111125000D02*
X123825000Y-97155000D01*
X137795000Y-97155000D02*
X137795000Y-111125000D01*
X104775000Y-59055000D02*
X118745000Y-59055000D01*
X118745000Y-59055000D02*
X118745000Y-73025000D01*
X118745000Y-73025000D02*
X104775000Y-73025000D01*
X104775000Y-73025000D02*
X104775000Y-59055000D01*
X104775000Y-78105000D02*
X118745000Y-78105000D01*
X118745000Y-92075000D02*
X104775000Y-92075000D01*
X118745000Y-78105000D02*
X118745000Y-92075000D01*
X104775000Y-92075000D02*
X104775000Y-78105000D01*
X123825000Y-92075000D02*
X123825000Y-78105000D01*
X137795000Y-92075000D02*
X123825000Y-92075000D01*
X123825000Y-78105000D02*
X137795000Y-78105000D01*
X137795000Y-78105000D02*
X137795000Y-92075000D01*
X123825000Y-73025000D02*
X123825000Y-59055000D01*
X123825000Y-59055000D02*
X137795000Y-59055000D01*
X137795000Y-59055000D02*
X137795000Y-73025000D01*
X137795000Y-73025000D02*
X123825000Y-73025000D01*
X156845000Y-59055000D02*
X156845000Y-73025000D01*
X156845000Y-73025000D02*
X142875000Y-73025000D01*
X142875000Y-73025000D02*
X142875000Y-59055000D01*
X142875000Y-59055000D02*
X156845000Y-59055000D01*
X142875000Y-116205000D02*
X156845000Y-116205000D01*
X156845000Y-130175000D02*
X142875000Y-130175000D01*
X142875000Y-130175000D02*
X142875000Y-116205000D01*
X156845000Y-116205000D02*
X156845000Y-130175000D01*
X130786000Y-53263000D02*
X130786000Y-40463000D01*
X170966000Y-40463000D02*
X130786000Y-40463000D01*
X140986000Y-55593000D02*
X142986000Y-55593000D01*
X130786000Y-53263000D02*
X170966000Y-53263000D01*
X170966000Y-53263000D02*
X170966000Y-40463000D01*
X90654000Y-53263000D02*
X90654000Y-40463000D01*
X90654000Y-53263000D02*
X130834000Y-53263000D01*
X130834000Y-40463000D02*
X90654000Y-40463000D01*
X130834000Y-53263000D02*
X130834000Y-40463000D01*
X100854000Y-55593000D02*
X102854000Y-55593000D01*
X114300000Y-116205000D02*
X128270000Y-116205000D01*
X128270000Y-116205000D02*
X128270000Y-130175000D01*
X114300000Y-130175000D02*
X114300000Y-116205000D01*
X128270000Y-130175000D02*
X114300000Y-130175000D01*
X130786000Y-40182000D02*
X170966000Y-40182000D01*
X140986000Y-42512000D02*
X142986000Y-42512000D01*
X170966000Y-40182000D02*
X170966000Y-27382000D01*
X130786000Y-40182000D02*
X130786000Y-27382000D01*
X170966000Y-27382000D02*
X130786000Y-27382000D01*
X130834000Y-40182000D02*
X130834000Y-27382000D01*
X90654000Y-40182000D02*
X130834000Y-40182000D01*
X90654000Y-40182000D02*
X90654000Y-27382000D01*
X100854000Y-42512000D02*
X102854000Y-42512000D01*
X130834000Y-27382000D02*
X90654000Y-27382000D01*
X142875000Y-111125000D02*
X142875000Y-97155000D01*
X156845000Y-111125000D02*
X142875000Y-111125000D01*
X142875000Y-97155000D02*
X156845000Y-97155000D01*
X156845000Y-97155000D02*
X156845000Y-111125000D01*
X177540000Y-27432000D02*
X177540000Y-33147000D01*
X177540000Y-40132000D02*
X172460000Y-40132000D01*
X177540000Y-35687000D02*
X177540000Y-40132000D01*
X172460000Y-40132000D02*
X172460000Y-27432000D01*
X172460000Y-27432000D02*
X177540000Y-27432000D01*
X89940000Y-59285000D02*
X91860000Y-59285000D01*
X91860000Y-59285000D02*
X91860000Y-56600000D01*
X89940000Y-56600000D02*
X89940000Y-59285000D01*
X168580000Y-64770000D02*
X168580000Y-69910000D01*
X168580000Y-62170000D02*
X169910000Y-62170000D01*
X168580000Y-64770000D02*
X171240000Y-64770000D01*
X168580000Y-69910000D02*
X171240000Y-69910000D01*
X168580000Y-63500000D02*
X168580000Y-62170000D01*
X171240000Y-64770000D02*
X171240000Y-69910000D01*
X142875000Y-92075000D02*
X142875000Y-78105000D01*
X142875000Y-78105000D02*
X156845000Y-78105000D01*
X156845000Y-78105000D02*
X156845000Y-92075000D01*
X156845000Y-92075000D02*
X142875000Y-92075000D01*
X91765000Y-75768333D02*
X91765000Y-73083333D01*
X89845000Y-75768333D02*
X91765000Y-75768333D01*
X89845000Y-73083333D02*
X89845000Y-75768333D01*
X91765000Y-79493666D02*
X91765000Y-76808666D01*
X89845000Y-79493666D02*
X91765000Y-79493666D01*
X89845000Y-76808666D02*
X89845000Y-79493666D01*
X89845000Y-72043000D02*
X91765000Y-72043000D01*
X89845000Y-69358000D02*
X89845000Y-72043000D01*
X91765000Y-72043000D02*
X91765000Y-69358000D01*
X89923500Y-80534000D02*
X89923500Y-83219000D01*
X89923500Y-83219000D02*
X91843500Y-83219000D01*
X91843500Y-83219000D02*
X91843500Y-80534000D01*
X175895000Y-111125000D02*
X161925000Y-111125000D01*
X161925000Y-97155000D02*
X175895000Y-97155000D01*
X161925000Y-111125000D02*
X161925000Y-97155000D01*
X175895000Y-97155000D02*
X175895000Y-111125000D01*
X175895000Y-130175000D02*
X161925000Y-130175000D01*
X161925000Y-130175000D02*
X161925000Y-116205000D01*
X161925000Y-116205000D02*
X175895000Y-116205000D01*
X175895000Y-116205000D02*
X175895000Y-130175000D01*
X90906514Y-89183123D02*
X98906514Y-89183123D01*
X101506514Y-134983123D02*
X101506514Y-84783123D01*
X90906514Y-129183123D02*
X90906514Y-119183123D01*
X96906514Y-133183123D02*
X96906514Y-134183123D01*
X92906514Y-91183123D02*
X96906514Y-91183123D01*
X92906514Y-134183123D02*
X92906514Y-133183123D01*
X88906514Y-86183123D02*
X100906514Y-86183123D01*
X98906514Y-91183123D02*
X98906514Y-101183123D01*
X88906514Y-134183123D02*
X100906514Y-134183123D01*
X88906514Y-134183123D02*
X88906514Y-131183123D01*
X100906514Y-117183123D02*
X100906514Y-103183123D01*
X93906514Y-92183123D02*
X95906514Y-92183123D01*
X88306514Y-84783123D02*
X88306514Y-134983123D01*
X100906514Y-86183123D02*
X100906514Y-89183123D01*
X100906514Y-134183123D02*
X100906514Y-131183123D01*
X98906514Y-129183123D02*
X98906514Y-119183123D01*
X88906514Y-86183123D02*
X88906514Y-89183123D01*
X88906514Y-103183123D02*
X88906514Y-117183123D01*
X97906514Y-90183123D02*
X91906514Y-90183123D01*
X90906514Y-91183123D02*
X90906514Y-101183123D01*
X88306514Y-134983123D02*
X101506514Y-134983123D01*
X101506514Y-84783123D02*
X88306514Y-84783123D01*
X90906514Y-119183123D02*
G75*
G03*
X88906514Y-117183123I-2000000J0D01*
G01*
X98906514Y-129183123D02*
G75*
G03*
X100906514Y-131183123I2000000J0D01*
G01*
X100906514Y-89183123D02*
G75*
G03*
X98906514Y-91183123I0J-2000000D01*
G01*
X100906514Y-117183123D02*
G75*
G03*
X98906514Y-119183123I0J-2000000D01*
G01*
X88906514Y-131183123D02*
G75*
G03*
X90906514Y-129183123I0J2000000D01*
G01*
X90906514Y-91183123D02*
G75*
G03*
X88906514Y-89183123I-2000000J0D01*
G01*
X98906514Y-101183123D02*
G75*
G03*
X100906514Y-103183123I2000000J0D01*
G01*
X88906514Y-103183123D02*
G75*
G03*
X90906514Y-101183123I0J2000000D01*
G01*
X161925000Y-92075000D02*
X161925000Y-78105000D01*
X175895000Y-78105000D02*
X175895000Y-92075000D01*
X175895000Y-92075000D02*
X161925000Y-92075000D01*
X161925000Y-78105000D02*
X175895000Y-78105000D01*
X171350000Y-43713000D02*
X171600000Y-43713000D01*
X173500000Y-43713000D02*
X176100000Y-43713000D01*
X171350000Y-50013000D02*
X171350000Y-43713000D01*
X171600000Y-50013000D02*
X171350000Y-50013000D01*
X178000000Y-43713000D02*
X178250000Y-43713000D01*
X178250000Y-50013000D02*
X178000000Y-50013000D01*
X178250000Y-43713000D02*
X178250000Y-50013000D01*
X176100000Y-50013000D02*
X173500000Y-50013000D01*
M02*
