M48
; DRILL file {KiCad (5.1.5-0)} date Thursday, May 07, 2020 at 09:13:07 PM
; FORMAT={2:4/ absolute / inch / keep zeros}
; #@! TF.CreationDate,2020-05-07T21:13:07-04:00
; #@! TF.GenerationSoftware,Kicad,Pcbnew,(5.1.5-0)
FMAT,2
INCH
T1C0.0157
T2C0.0276
T3C0.0394
T4C0.0402
T5C0.0591
T6C0.0669
T7C0.1201
T8C0.1575
%
G90
G05
T1
X035400Y-025475
X035400Y-040500
X035425Y-024350
X035700Y-039600
X035750Y-026350
X036000Y-022800
X036400Y-038800
X036500Y-019900
X036600Y-026400
X036600Y-037275
X036650Y-025950
X036850Y-025600
X036900Y-024700
X036900Y-025150
X037000Y-024200
X037150Y-028900
X037550Y-038975
X037777Y-032673
X038000Y-036900
X038200Y-038800
X038345Y-036555
X038400Y-032700
X038569Y-038553
X038600Y-022600
X038684Y-037939
X039054Y-023454
X039073Y-019577
X039125Y-030275
X039500Y-021300
X039800Y-023150
X039850Y-024250
X040150Y-024948
X040350Y-027550
X040350Y-028400
X040350Y-029000
X040350Y-030125
X040400Y-025850
X040550Y-026300
X040700Y-024600
X040900Y-025400
X042300Y-022500
X042303Y-018627
X042800Y-022700
X043300Y-023800
X045800Y-019600
X046800Y-019000
X054100Y-018323
X054850Y-017500
X055550Y-027450
X056100Y-019300
X057150Y-018200
X057475Y-044350
X057800Y-030250
X058100Y-019100
X058150Y-017800
X059150Y-017500
X060000Y-029300
X061650Y-027950
X063825Y-043000
T2
X036363Y-029516
X036363Y-031484
T3
X035300Y-029122
X035300Y-031878
X065575Y-042425
X065575Y-043425
X065575Y-044425
X065575Y-045425
X065575Y-046425
X065575Y-047425
X040300Y-016450
X040300Y-020450
X041300Y-016450
X041300Y-020450
X042300Y-016450
X042300Y-020450
X043300Y-016450
X043300Y-020450
X044300Y-016450
X044300Y-020450
X045300Y-016450
X045300Y-020450
X046300Y-016450
X046300Y-020450
X047300Y-016450
X047300Y-020450
X056150Y-016450
X056150Y-020450
X057150Y-016450
X057150Y-020450
X058150Y-016450
X058150Y-020450
X059150Y-016450
X059150Y-020450
X060150Y-016450
X060150Y-020450
X061150Y-016450
X061150Y-020450
X062150Y-016450
X062150Y-020450
X063150Y-016450
X063150Y-020450
X065575Y-036175
X065575Y-037175
X065575Y-038175
T4
X037100Y-046800
X037100Y-047800
X037100Y-048800
X038100Y-046800
X038100Y-047800
X038100Y-048800
T5
X057500Y-025000
X060000Y-024000
X057500Y-047500
X060000Y-046500
X050000Y-040000
X052500Y-039000
X042500Y-025000
X045000Y-024000
X050000Y-025000
X052500Y-024000
X057500Y-040000
X060000Y-039000
X057500Y-032500
X060000Y-031500
X042500Y-040000
X045000Y-039000
X046250Y-047500
X048750Y-046500
X050000Y-032500
X052500Y-031500
X042500Y-032500
X045000Y-031500
T6
X049500Y-026000
X053500Y-026000
X042000Y-041000
X049750Y-048500
X057000Y-026000
X057000Y-033500
X061000Y-033500
X046000Y-041000
X045750Y-048500
X049500Y-033500
X053500Y-033500
X042000Y-033500
X046000Y-033500
X061000Y-026000
X057000Y-048500
X061000Y-048500
X049500Y-041000
X053500Y-041000
X042000Y-026000
X046000Y-026000
X057000Y-041000
X061000Y-041000
T7
X043065Y-045744
X052435Y-045744
T8
X044000Y-033500
X044000Y-026000
X059000Y-041000
X047750Y-048500
X051500Y-033500
X059000Y-048500
X051500Y-041000
X051500Y-026000
X059000Y-033500
X044000Y-041000
X043065Y-051744
X052435Y-051744
X059000Y-026000
T0
M30
