G04 #@! TF.GenerationSoftware,KiCad,Pcbnew,(5.1.5-0)*
G04 #@! TF.CreationDate,2020-05-07T21:13:09-04:00*
G04 #@! TF.ProjectId,imperializer,696d7065-7269-4616-9c69-7a65722e6b69,1.0*
G04 #@! TF.SameCoordinates,Original*
G04 #@! TF.FileFunction,Legend,Top*
G04 #@! TF.FilePolarity,Positive*
%FSLAX46Y46*%
G04 Gerber Fmt 4.6, Leading zero omitted, Abs format (unit mm)*
G04 Created by KiCad (PCBNEW (5.1.5-0)) date 2020-05-07 21:13:09*
%MOMM*%
%LPD*%
G04 APERTURE LIST*
%ADD10C,0.150000*%
%ADD11C,0.120000*%
G04 APERTURE END LIST*
D10*
X168973523Y-107148380D02*
X168497333Y-107148380D01*
X168449714Y-107624571D01*
X168497333Y-107576952D01*
X168592571Y-107529333D01*
X168830666Y-107529333D01*
X168925904Y-107576952D01*
X168973523Y-107624571D01*
X169021142Y-107719809D01*
X169021142Y-107957904D01*
X168973523Y-108053142D01*
X168925904Y-108100761D01*
X168830666Y-108148380D01*
X168592571Y-108148380D01*
X168497333Y-108100761D01*
X168449714Y-108053142D01*
X169306857Y-107148380D02*
X169640190Y-108148380D01*
X169973523Y-107148380D01*
X168910095Y-119896000D02*
X168814857Y-119848380D01*
X168672000Y-119848380D01*
X168529142Y-119896000D01*
X168433904Y-119991238D01*
X168386285Y-120086476D01*
X168338666Y-120276952D01*
X168338666Y-120419809D01*
X168386285Y-120610285D01*
X168433904Y-120705523D01*
X168529142Y-120800761D01*
X168672000Y-120848380D01*
X168767238Y-120848380D01*
X168910095Y-120800761D01*
X168957714Y-120753142D01*
X168957714Y-120419809D01*
X168767238Y-120419809D01*
X169386285Y-120848380D02*
X169386285Y-119848380D01*
X169957714Y-120848380D01*
X169957714Y-119848380D01*
X170433904Y-120848380D02*
X170433904Y-119848380D01*
X170672000Y-119848380D01*
X170814857Y-119896000D01*
X170910095Y-119991238D01*
X170957714Y-120086476D01*
X171005333Y-120276952D01*
X171005333Y-120419809D01*
X170957714Y-120610285D01*
X170910095Y-120705523D01*
X170814857Y-120800761D01*
X170672000Y-120848380D01*
X170433904Y-120848380D01*
X168259333Y-118308380D02*
X168259333Y-117308380D01*
X168592666Y-118022666D01*
X168926000Y-117308380D01*
X168926000Y-118308380D01*
X169545047Y-118308380D02*
X169449809Y-118260761D01*
X169402190Y-118213142D01*
X169354571Y-118117904D01*
X169354571Y-117832190D01*
X169402190Y-117736952D01*
X169449809Y-117689333D01*
X169545047Y-117641714D01*
X169687904Y-117641714D01*
X169783142Y-117689333D01*
X169830761Y-117736952D01*
X169878380Y-117832190D01*
X169878380Y-118117904D01*
X169830761Y-118213142D01*
X169783142Y-118260761D01*
X169687904Y-118308380D01*
X169545047Y-118308380D01*
X170735523Y-118308380D02*
X170735523Y-117308380D01*
X170735523Y-118260761D02*
X170640285Y-118308380D01*
X170449809Y-118308380D01*
X170354571Y-118260761D01*
X170306952Y-118213142D01*
X170259333Y-118117904D01*
X170259333Y-117832190D01*
X170306952Y-117736952D01*
X170354571Y-117689333D01*
X170449809Y-117641714D01*
X170640285Y-117641714D01*
X170735523Y-117689333D01*
X171592666Y-118260761D02*
X171497428Y-118308380D01*
X171306952Y-118308380D01*
X171211714Y-118260761D01*
X171164095Y-118165523D01*
X171164095Y-117784571D01*
X171211714Y-117689333D01*
X171306952Y-117641714D01*
X171497428Y-117641714D01*
X171592666Y-117689333D01*
X171640285Y-117784571D01*
X171640285Y-117879809D01*
X171164095Y-117975047D01*
X168394190Y-115768380D02*
X168394190Y-114768380D01*
X169441809Y-115768380D02*
X169108476Y-115292190D01*
X168870380Y-115768380D02*
X168870380Y-114768380D01*
X169251333Y-114768380D01*
X169346571Y-114816000D01*
X169394190Y-114863619D01*
X169441809Y-114958857D01*
X169441809Y-115101714D01*
X169394190Y-115196952D01*
X169346571Y-115244571D01*
X169251333Y-115292190D01*
X168870380Y-115292190D01*
X170537047Y-115863619D02*
X170441809Y-115816000D01*
X170346571Y-115720761D01*
X170203714Y-115577904D01*
X170108476Y-115530285D01*
X170013238Y-115530285D01*
X170060857Y-115768380D02*
X169965619Y-115720761D01*
X169870380Y-115625523D01*
X169822761Y-115435047D01*
X169822761Y-115101714D01*
X169870380Y-114911238D01*
X169965619Y-114816000D01*
X170060857Y-114768380D01*
X170251333Y-114768380D01*
X170346571Y-114816000D01*
X170441809Y-114911238D01*
X170489428Y-115101714D01*
X170489428Y-115435047D01*
X170441809Y-115625523D01*
X170346571Y-115720761D01*
X170251333Y-115768380D01*
X170060857Y-115768380D01*
X168227523Y-113180761D02*
X168370380Y-113228380D01*
X168608476Y-113228380D01*
X168703714Y-113180761D01*
X168751333Y-113133142D01*
X168798952Y-113037904D01*
X168798952Y-112942666D01*
X168751333Y-112847428D01*
X168703714Y-112799809D01*
X168608476Y-112752190D01*
X168418000Y-112704571D01*
X168322761Y-112656952D01*
X168275142Y-112609333D01*
X168227523Y-112514095D01*
X168227523Y-112418857D01*
X168275142Y-112323619D01*
X168322761Y-112276000D01*
X168418000Y-112228380D01*
X168656095Y-112228380D01*
X168798952Y-112276000D01*
X169798952Y-113133142D02*
X169751333Y-113180761D01*
X169608476Y-113228380D01*
X169513238Y-113228380D01*
X169370380Y-113180761D01*
X169275142Y-113085523D01*
X169227523Y-112990285D01*
X169179904Y-112799809D01*
X169179904Y-112656952D01*
X169227523Y-112466476D01*
X169275142Y-112371238D01*
X169370380Y-112276000D01*
X169513238Y-112228380D01*
X169608476Y-112228380D01*
X169751333Y-112276000D01*
X169798952Y-112323619D01*
X170703714Y-113228380D02*
X170227523Y-113228380D01*
X170227523Y-112228380D01*
X168457714Y-110640761D02*
X168600571Y-110688380D01*
X168838666Y-110688380D01*
X168933904Y-110640761D01*
X168981523Y-110593142D01*
X169029142Y-110497904D01*
X169029142Y-110402666D01*
X168981523Y-110307428D01*
X168933904Y-110259809D01*
X168838666Y-110212190D01*
X168648190Y-110164571D01*
X168552952Y-110116952D01*
X168505333Y-110069333D01*
X168457714Y-109974095D01*
X168457714Y-109878857D01*
X168505333Y-109783619D01*
X168552952Y-109736000D01*
X168648190Y-109688380D01*
X168886285Y-109688380D01*
X169029142Y-109736000D01*
X169457714Y-110688380D02*
X169457714Y-109688380D01*
X169695809Y-109688380D01*
X169838666Y-109736000D01*
X169933904Y-109831238D01*
X169981523Y-109926476D01*
X170029142Y-110116952D01*
X170029142Y-110259809D01*
X169981523Y-110450285D01*
X169933904Y-110545523D01*
X169838666Y-110640761D01*
X169695809Y-110688380D01*
X169457714Y-110688380D01*
X170410095Y-110402666D02*
X170886285Y-110402666D01*
X170314857Y-110688380D02*
X170648190Y-109688380D01*
X170981523Y-110688380D01*
D11*
X165230500Y-106429500D02*
X166560500Y-106429500D01*
X165230500Y-107759500D02*
X165230500Y-106429500D01*
X165230500Y-109029500D02*
X167890500Y-109029500D01*
X167890500Y-109029500D02*
X167890500Y-121789500D01*
X165230500Y-109029500D02*
X165230500Y-121789500D01*
X165230500Y-121789500D02*
X167890500Y-121789500D01*
X165230500Y-90554500D02*
X166560500Y-90554500D01*
X165230500Y-91884500D02*
X165230500Y-90554500D01*
X165230500Y-93154500D02*
X167890500Y-93154500D01*
X167890500Y-93154500D02*
X167890500Y-98294500D01*
X165230500Y-93154500D02*
X165230500Y-98294500D01*
X165230500Y-98294500D02*
X167890500Y-98294500D01*
D10*
X91345000Y-90650000D02*
X90070000Y-90650000D01*
X101695000Y-90075000D02*
X101020000Y-90075000D01*
X101695000Y-100425000D02*
X101020000Y-100425000D01*
X91345000Y-100425000D02*
X92020000Y-100425000D01*
X91345000Y-90075000D02*
X92020000Y-90075000D01*
X91345000Y-100425000D02*
X91345000Y-99750000D01*
X101695000Y-100425000D02*
X101695000Y-99750000D01*
X101695000Y-90075000D02*
X101695000Y-90750000D01*
X91345000Y-90075000D02*
X91345000Y-90650000D01*
D11*
X100334578Y-65457000D02*
X99817422Y-65457000D01*
X100334578Y-66877000D02*
X99817422Y-66877000D01*
X99770000Y-79760578D02*
X99770000Y-79243422D01*
X98350000Y-79760578D02*
X98350000Y-79243422D01*
X96468000Y-79760578D02*
X96468000Y-79243422D01*
X95048000Y-79760578D02*
X95048000Y-79243422D01*
X96788000Y-72984000D02*
X96788000Y-75414000D01*
X96798000Y-72964000D02*
X97798000Y-72964000D01*
X99848000Y-72964000D02*
X99848000Y-74814000D01*
X98798000Y-72964000D02*
X99848000Y-72964000D01*
X98520000Y-105880000D02*
X98520000Y-105480000D01*
X98320000Y-105880000D02*
X98320000Y-105480000D01*
X94720000Y-105880000D02*
X94720000Y-105480000D01*
X98520000Y-107880000D02*
X98520000Y-105880000D01*
X97320000Y-105480000D02*
X97320000Y-105080000D01*
X97320000Y-105480000D02*
X98320000Y-105480000D01*
X98320000Y-105880000D02*
X98320000Y-107880000D01*
X98320000Y-107880000D02*
X97320000Y-107880000D01*
X95520000Y-107880000D02*
X94720000Y-107880000D01*
X94720000Y-107880000D02*
X94720000Y-105880000D01*
X94720000Y-105480000D02*
X95520000Y-105480000D01*
X92329000Y-123952000D02*
X90904000Y-123952000D01*
X92329000Y-118872000D02*
X90904000Y-118872000D01*
X92329000Y-127762000D02*
X92329000Y-115062000D01*
X98679000Y-127762000D02*
X92329000Y-127762000D01*
X98679000Y-115062000D02*
X98679000Y-127762000D01*
X92329000Y-115062000D02*
X98679000Y-115062000D01*
X90904000Y-114062000D02*
X90904000Y-128762000D01*
X100104000Y-114062000D02*
X100104000Y-128762000D01*
X90904000Y-128762000D02*
X100104000Y-128762000D01*
X90904000Y-114062000D02*
X100104000Y-114062000D01*
X141621000Y-55593000D02*
X143621000Y-55593000D01*
X171601000Y-40463000D02*
X131421000Y-40463000D01*
X171601000Y-53263000D02*
X171601000Y-40463000D01*
X131421000Y-53263000D02*
X171601000Y-53263000D01*
X131421000Y-53263000D02*
X131421000Y-40463000D01*
X114300000Y-130175000D02*
X114300000Y-116205000D01*
X128270000Y-130175000D02*
X114300000Y-130175000D01*
X128270000Y-116205000D02*
X128270000Y-130175000D01*
X114300000Y-116205000D02*
X128270000Y-116205000D01*
X142875000Y-130175000D02*
X142875000Y-116205000D01*
X156845000Y-130175000D02*
X142875000Y-130175000D01*
X156845000Y-116205000D02*
X156845000Y-130175000D01*
X142875000Y-116205000D02*
X156845000Y-116205000D01*
X142875000Y-73025000D02*
X142875000Y-59055000D01*
X156845000Y-73025000D02*
X142875000Y-73025000D01*
X156845000Y-59055000D02*
X156845000Y-73025000D01*
X142875000Y-59055000D02*
X156845000Y-59055000D01*
X101362000Y-55593000D02*
X103362000Y-55593000D01*
X131342000Y-40463000D02*
X91162000Y-40463000D01*
X131342000Y-53263000D02*
X131342000Y-40463000D01*
X91162000Y-53263000D02*
X131342000Y-53263000D01*
X91162000Y-53263000D02*
X91162000Y-40463000D01*
X123825000Y-73025000D02*
X123825000Y-59055000D01*
X137795000Y-73025000D02*
X123825000Y-73025000D01*
X137795000Y-59055000D02*
X137795000Y-73025000D01*
X123825000Y-59055000D02*
X137795000Y-59055000D01*
X142875000Y-92075000D02*
X142875000Y-78105000D01*
X156845000Y-92075000D02*
X142875000Y-92075000D01*
X156845000Y-78105000D02*
X156845000Y-92075000D01*
X142875000Y-78105000D02*
X156845000Y-78105000D01*
X123825000Y-92075000D02*
X123825000Y-78105000D01*
X137795000Y-92075000D02*
X123825000Y-92075000D01*
X137795000Y-78105000D02*
X137795000Y-92075000D01*
X123825000Y-78105000D02*
X137795000Y-78105000D01*
X104775000Y-92075000D02*
X104775000Y-78105000D01*
X118745000Y-92075000D02*
X104775000Y-92075000D01*
X118745000Y-78105000D02*
X118745000Y-92075000D01*
X104775000Y-78105000D02*
X118745000Y-78105000D01*
X104775000Y-73025000D02*
X104775000Y-59055000D01*
X118745000Y-73025000D02*
X104775000Y-73025000D01*
X118745000Y-59055000D02*
X118745000Y-73025000D01*
X104775000Y-59055000D02*
X118745000Y-59055000D01*
X142875000Y-111125000D02*
X142875000Y-97155000D01*
X156845000Y-111125000D02*
X142875000Y-111125000D01*
X156845000Y-97155000D02*
X156845000Y-111125000D01*
X142875000Y-97155000D02*
X156845000Y-97155000D01*
X123825000Y-111125000D02*
X123825000Y-97155000D01*
X137795000Y-111125000D02*
X123825000Y-111125000D01*
X137795000Y-97155000D02*
X137795000Y-111125000D01*
X123825000Y-97155000D02*
X137795000Y-97155000D01*
X104775000Y-111125000D02*
X104775000Y-97155000D01*
X118745000Y-111125000D02*
X104775000Y-111125000D01*
X118745000Y-97155000D02*
X118745000Y-111125000D01*
X104775000Y-97155000D02*
X118745000Y-97155000D01*
X90709000Y-58009000D02*
X96092600Y-58009000D01*
X92379700Y-66959000D02*
X96088300Y-66959000D01*
D10*
X166227166Y-104881880D02*
X166227166Y-105596166D01*
X166179547Y-105739023D01*
X166084309Y-105834261D01*
X165941452Y-105881880D01*
X165846214Y-105881880D01*
X166655738Y-104977119D02*
X166703357Y-104929500D01*
X166798595Y-104881880D01*
X167036690Y-104881880D01*
X167131928Y-104929500D01*
X167179547Y-104977119D01*
X167227166Y-105072357D01*
X167227166Y-105167595D01*
X167179547Y-105310452D01*
X166608119Y-105881880D01*
X167227166Y-105881880D01*
X165227166Y-89959261D02*
X165370023Y-90006880D01*
X165608119Y-90006880D01*
X165703357Y-89959261D01*
X165750976Y-89911642D01*
X165798595Y-89816404D01*
X165798595Y-89721166D01*
X165750976Y-89625928D01*
X165703357Y-89578309D01*
X165608119Y-89530690D01*
X165417642Y-89483071D01*
X165322404Y-89435452D01*
X165274785Y-89387833D01*
X165227166Y-89292595D01*
X165227166Y-89197357D01*
X165274785Y-89102119D01*
X165322404Y-89054500D01*
X165417642Y-89006880D01*
X165655738Y-89006880D01*
X165798595Y-89054500D01*
X166131928Y-89006880D02*
X166370023Y-90006880D01*
X166560500Y-89292595D01*
X166750976Y-90006880D01*
X166989071Y-89006880D01*
X167893833Y-90006880D02*
X167322404Y-90006880D01*
X167608119Y-90006880D02*
X167608119Y-89006880D01*
X167512880Y-89149738D01*
X167417642Y-89244976D01*
X167322404Y-89292595D01*
X95758095Y-87252380D02*
X95758095Y-88061904D01*
X95805714Y-88157142D01*
X95853333Y-88204761D01*
X95948571Y-88252380D01*
X96139047Y-88252380D01*
X96234285Y-88204761D01*
X96281904Y-88157142D01*
X96329523Y-88061904D01*
X96329523Y-87252380D01*
X96758095Y-87347619D02*
X96805714Y-87300000D01*
X96900952Y-87252380D01*
X97139047Y-87252380D01*
X97234285Y-87300000D01*
X97281904Y-87347619D01*
X97329523Y-87442857D01*
X97329523Y-87538095D01*
X97281904Y-87680952D01*
X96710476Y-88252380D01*
X97329523Y-88252380D01*
X99909333Y-68269380D02*
X99576000Y-67793190D01*
X99337904Y-68269380D02*
X99337904Y-67269380D01*
X99718857Y-67269380D01*
X99814095Y-67317000D01*
X99861714Y-67364619D01*
X99909333Y-67459857D01*
X99909333Y-67602714D01*
X99861714Y-67697952D01*
X99814095Y-67745571D01*
X99718857Y-67793190D01*
X99337904Y-67793190D01*
X100242666Y-67269380D02*
X100861714Y-67269380D01*
X100528380Y-67650333D01*
X100671238Y-67650333D01*
X100766476Y-67697952D01*
X100814095Y-67745571D01*
X100861714Y-67840809D01*
X100861714Y-68078904D01*
X100814095Y-68174142D01*
X100766476Y-68221761D01*
X100671238Y-68269380D01*
X100385523Y-68269380D01*
X100290285Y-68221761D01*
X100242666Y-68174142D01*
X97862380Y-79668666D02*
X97386190Y-80002000D01*
X97862380Y-80240095D02*
X96862380Y-80240095D01*
X96862380Y-79859142D01*
X96910000Y-79763904D01*
X96957619Y-79716285D01*
X97052857Y-79668666D01*
X97195714Y-79668666D01*
X97290952Y-79716285D01*
X97338571Y-79763904D01*
X97386190Y-79859142D01*
X97386190Y-80240095D01*
X96957619Y-79287714D02*
X96910000Y-79240095D01*
X96862380Y-79144857D01*
X96862380Y-78906761D01*
X96910000Y-78811523D01*
X96957619Y-78763904D01*
X97052857Y-78716285D01*
X97148095Y-78716285D01*
X97290952Y-78763904D01*
X97862380Y-79335333D01*
X97862380Y-78716285D01*
X94560380Y-79668666D02*
X94084190Y-80002000D01*
X94560380Y-80240095D02*
X93560380Y-80240095D01*
X93560380Y-79859142D01*
X93608000Y-79763904D01*
X93655619Y-79716285D01*
X93750857Y-79668666D01*
X93893714Y-79668666D01*
X93988952Y-79716285D01*
X94036571Y-79763904D01*
X94084190Y-79859142D01*
X94084190Y-80240095D01*
X94560380Y-78716285D02*
X94560380Y-79287714D01*
X94560380Y-79002000D02*
X93560380Y-79002000D01*
X93703238Y-79097238D01*
X93798476Y-79192476D01*
X93846095Y-79287714D01*
X95300380Y-74675904D02*
X96109904Y-74675904D01*
X96205142Y-74628285D01*
X96252761Y-74580666D01*
X96300380Y-74485428D01*
X96300380Y-74294952D01*
X96252761Y-74199714D01*
X96205142Y-74152095D01*
X96109904Y-74104476D01*
X95300380Y-74104476D01*
X95300380Y-73152095D02*
X95300380Y-73628285D01*
X95776571Y-73675904D01*
X95728952Y-73628285D01*
X95681333Y-73533047D01*
X95681333Y-73294952D01*
X95728952Y-73199714D01*
X95776571Y-73152095D01*
X95871809Y-73104476D01*
X96109904Y-73104476D01*
X96205142Y-73152095D01*
X96252761Y-73199714D01*
X96300380Y-73294952D01*
X96300380Y-73533047D01*
X96252761Y-73628285D01*
X96205142Y-73675904D01*
X96043809Y-108656190D02*
X96043809Y-109132380D01*
X95710476Y-108132380D02*
X96043809Y-108656190D01*
X96377142Y-108132380D01*
X97234285Y-109132380D02*
X96662857Y-109132380D01*
X96948571Y-109132380D02*
X96948571Y-108132380D01*
X96853333Y-108275238D01*
X96758095Y-108370476D01*
X96662857Y-108418095D01*
X97234476Y-129119380D02*
X97901142Y-130119380D01*
X97901142Y-129119380D02*
X97234476Y-130119380D01*
X98805904Y-130119380D02*
X98234476Y-130119380D01*
X98520190Y-130119380D02*
X98520190Y-129119380D01*
X98424952Y-129262238D01*
X98329714Y-129357476D01*
X98234476Y-129405095D01*
X132969095Y-38695380D02*
X132969095Y-39504904D01*
X133016714Y-39600142D01*
X133064333Y-39647761D01*
X133159571Y-39695380D01*
X133350047Y-39695380D01*
X133445285Y-39647761D01*
X133492904Y-39600142D01*
X133540523Y-39504904D01*
X133540523Y-38695380D01*
X133921476Y-38695380D02*
X134540523Y-38695380D01*
X134207190Y-39076333D01*
X134350047Y-39076333D01*
X134445285Y-39123952D01*
X134492904Y-39171571D01*
X134540523Y-39266809D01*
X134540523Y-39504904D01*
X134492904Y-39600142D01*
X134445285Y-39647761D01*
X134350047Y-39695380D01*
X134064333Y-39695380D01*
X133969095Y-39647761D01*
X133921476Y-39600142D01*
X86574380Y-77803333D02*
X87288666Y-77803333D01*
X87431523Y-77850952D01*
X87526761Y-77946190D01*
X87574380Y-78089047D01*
X87574380Y-78184285D01*
X87574380Y-76803333D02*
X87574380Y-77374761D01*
X87574380Y-77089047D02*
X86574380Y-77089047D01*
X86717238Y-77184285D01*
X86812476Y-77279523D01*
X86860095Y-77374761D01*
X120046904Y-115720761D02*
X120189761Y-115768380D01*
X120427857Y-115768380D01*
X120523095Y-115720761D01*
X120570714Y-115673142D01*
X120618333Y-115577904D01*
X120618333Y-115482666D01*
X120570714Y-115387428D01*
X120523095Y-115339809D01*
X120427857Y-115292190D01*
X120237380Y-115244571D01*
X120142142Y-115196952D01*
X120094523Y-115149333D01*
X120046904Y-115054095D01*
X120046904Y-114958857D01*
X120094523Y-114863619D01*
X120142142Y-114816000D01*
X120237380Y-114768380D01*
X120475476Y-114768380D01*
X120618333Y-114816000D01*
X121570714Y-115768380D02*
X120999285Y-115768380D01*
X121285000Y-115768380D02*
X121285000Y-114768380D01*
X121189761Y-114911238D01*
X121094523Y-115006476D01*
X120999285Y-115054095D01*
X122523095Y-115768380D02*
X121951666Y-115768380D01*
X122237380Y-115768380D02*
X122237380Y-114768380D01*
X122142142Y-114911238D01*
X122046904Y-115006476D01*
X121951666Y-115054095D01*
X148621904Y-115720761D02*
X148764761Y-115768380D01*
X149002857Y-115768380D01*
X149098095Y-115720761D01*
X149145714Y-115673142D01*
X149193333Y-115577904D01*
X149193333Y-115482666D01*
X149145714Y-115387428D01*
X149098095Y-115339809D01*
X149002857Y-115292190D01*
X148812380Y-115244571D01*
X148717142Y-115196952D01*
X148669523Y-115149333D01*
X148621904Y-115054095D01*
X148621904Y-114958857D01*
X148669523Y-114863619D01*
X148717142Y-114816000D01*
X148812380Y-114768380D01*
X149050476Y-114768380D01*
X149193333Y-114816000D01*
X150145714Y-115768380D02*
X149574285Y-115768380D01*
X149860000Y-115768380D02*
X149860000Y-114768380D01*
X149764761Y-114911238D01*
X149669523Y-115006476D01*
X149574285Y-115054095D01*
X150764761Y-114768380D02*
X150860000Y-114768380D01*
X150955238Y-114816000D01*
X151002857Y-114863619D01*
X151050476Y-114958857D01*
X151098095Y-115149333D01*
X151098095Y-115387428D01*
X151050476Y-115577904D01*
X151002857Y-115673142D01*
X150955238Y-115720761D01*
X150860000Y-115768380D01*
X150764761Y-115768380D01*
X150669523Y-115720761D01*
X150621904Y-115673142D01*
X150574285Y-115577904D01*
X150526666Y-115387428D01*
X150526666Y-115149333D01*
X150574285Y-114958857D01*
X150621904Y-114863619D01*
X150669523Y-114816000D01*
X150764761Y-114768380D01*
X149098095Y-58570761D02*
X149240952Y-58618380D01*
X149479047Y-58618380D01*
X149574285Y-58570761D01*
X149621904Y-58523142D01*
X149669523Y-58427904D01*
X149669523Y-58332666D01*
X149621904Y-58237428D01*
X149574285Y-58189809D01*
X149479047Y-58142190D01*
X149288571Y-58094571D01*
X149193333Y-58046952D01*
X149145714Y-57999333D01*
X149098095Y-57904095D01*
X149098095Y-57808857D01*
X149145714Y-57713619D01*
X149193333Y-57666000D01*
X149288571Y-57618380D01*
X149526666Y-57618380D01*
X149669523Y-57666000D01*
X150145714Y-58618380D02*
X150336190Y-58618380D01*
X150431428Y-58570761D01*
X150479047Y-58523142D01*
X150574285Y-58380285D01*
X150621904Y-58189809D01*
X150621904Y-57808857D01*
X150574285Y-57713619D01*
X150526666Y-57666000D01*
X150431428Y-57618380D01*
X150240952Y-57618380D01*
X150145714Y-57666000D01*
X150098095Y-57713619D01*
X150050476Y-57808857D01*
X150050476Y-58046952D01*
X150098095Y-58142190D01*
X150145714Y-58189809D01*
X150240952Y-58237428D01*
X150431428Y-58237428D01*
X150526666Y-58189809D01*
X150574285Y-58142190D01*
X150621904Y-58046952D01*
X92710095Y-38695380D02*
X92710095Y-39504904D01*
X92757714Y-39600142D01*
X92805333Y-39647761D01*
X92900571Y-39695380D01*
X93091047Y-39695380D01*
X93186285Y-39647761D01*
X93233904Y-39600142D01*
X93281523Y-39504904D01*
X93281523Y-38695380D01*
X94186285Y-39028714D02*
X94186285Y-39695380D01*
X93948190Y-38647761D02*
X93710095Y-39362047D01*
X94329142Y-39362047D01*
X130048095Y-58570761D02*
X130190952Y-58618380D01*
X130429047Y-58618380D01*
X130524285Y-58570761D01*
X130571904Y-58523142D01*
X130619523Y-58427904D01*
X130619523Y-58332666D01*
X130571904Y-58237428D01*
X130524285Y-58189809D01*
X130429047Y-58142190D01*
X130238571Y-58094571D01*
X130143333Y-58046952D01*
X130095714Y-57999333D01*
X130048095Y-57904095D01*
X130048095Y-57808857D01*
X130095714Y-57713619D01*
X130143333Y-57666000D01*
X130238571Y-57618380D01*
X130476666Y-57618380D01*
X130619523Y-57666000D01*
X131190952Y-58046952D02*
X131095714Y-57999333D01*
X131048095Y-57951714D01*
X131000476Y-57856476D01*
X131000476Y-57808857D01*
X131048095Y-57713619D01*
X131095714Y-57666000D01*
X131190952Y-57618380D01*
X131381428Y-57618380D01*
X131476666Y-57666000D01*
X131524285Y-57713619D01*
X131571904Y-57808857D01*
X131571904Y-57856476D01*
X131524285Y-57951714D01*
X131476666Y-57999333D01*
X131381428Y-58046952D01*
X131190952Y-58046952D01*
X131095714Y-58094571D01*
X131048095Y-58142190D01*
X131000476Y-58237428D01*
X131000476Y-58427904D01*
X131048095Y-58523142D01*
X131095714Y-58570761D01*
X131190952Y-58618380D01*
X131381428Y-58618380D01*
X131476666Y-58570761D01*
X131524285Y-58523142D01*
X131571904Y-58427904D01*
X131571904Y-58237428D01*
X131524285Y-58142190D01*
X131476666Y-58094571D01*
X131381428Y-58046952D01*
X149098095Y-77620761D02*
X149240952Y-77668380D01*
X149479047Y-77668380D01*
X149574285Y-77620761D01*
X149621904Y-77573142D01*
X149669523Y-77477904D01*
X149669523Y-77382666D01*
X149621904Y-77287428D01*
X149574285Y-77239809D01*
X149479047Y-77192190D01*
X149288571Y-77144571D01*
X149193333Y-77096952D01*
X149145714Y-77049333D01*
X149098095Y-76954095D01*
X149098095Y-76858857D01*
X149145714Y-76763619D01*
X149193333Y-76716000D01*
X149288571Y-76668380D01*
X149526666Y-76668380D01*
X149669523Y-76716000D01*
X150002857Y-76668380D02*
X150669523Y-76668380D01*
X150240952Y-77668380D01*
X130048095Y-77620761D02*
X130190952Y-77668380D01*
X130429047Y-77668380D01*
X130524285Y-77620761D01*
X130571904Y-77573142D01*
X130619523Y-77477904D01*
X130619523Y-77382666D01*
X130571904Y-77287428D01*
X130524285Y-77239809D01*
X130429047Y-77192190D01*
X130238571Y-77144571D01*
X130143333Y-77096952D01*
X130095714Y-77049333D01*
X130048095Y-76954095D01*
X130048095Y-76858857D01*
X130095714Y-76763619D01*
X130143333Y-76716000D01*
X130238571Y-76668380D01*
X130476666Y-76668380D01*
X130619523Y-76716000D01*
X131476666Y-76668380D02*
X131286190Y-76668380D01*
X131190952Y-76716000D01*
X131143333Y-76763619D01*
X131048095Y-76906476D01*
X131000476Y-77096952D01*
X131000476Y-77477904D01*
X131048095Y-77573142D01*
X131095714Y-77620761D01*
X131190952Y-77668380D01*
X131381428Y-77668380D01*
X131476666Y-77620761D01*
X131524285Y-77573142D01*
X131571904Y-77477904D01*
X131571904Y-77239809D01*
X131524285Y-77144571D01*
X131476666Y-77096952D01*
X131381428Y-77049333D01*
X131190952Y-77049333D01*
X131095714Y-77096952D01*
X131048095Y-77144571D01*
X131000476Y-77239809D01*
X110998095Y-77620761D02*
X111140952Y-77668380D01*
X111379047Y-77668380D01*
X111474285Y-77620761D01*
X111521904Y-77573142D01*
X111569523Y-77477904D01*
X111569523Y-77382666D01*
X111521904Y-77287428D01*
X111474285Y-77239809D01*
X111379047Y-77192190D01*
X111188571Y-77144571D01*
X111093333Y-77096952D01*
X111045714Y-77049333D01*
X110998095Y-76954095D01*
X110998095Y-76858857D01*
X111045714Y-76763619D01*
X111093333Y-76716000D01*
X111188571Y-76668380D01*
X111426666Y-76668380D01*
X111569523Y-76716000D01*
X112474285Y-76668380D02*
X111998095Y-76668380D01*
X111950476Y-77144571D01*
X111998095Y-77096952D01*
X112093333Y-77049333D01*
X112331428Y-77049333D01*
X112426666Y-77096952D01*
X112474285Y-77144571D01*
X112521904Y-77239809D01*
X112521904Y-77477904D01*
X112474285Y-77573142D01*
X112426666Y-77620761D01*
X112331428Y-77668380D01*
X112093333Y-77668380D01*
X111998095Y-77620761D01*
X111950476Y-77573142D01*
X110998095Y-58570761D02*
X111140952Y-58618380D01*
X111379047Y-58618380D01*
X111474285Y-58570761D01*
X111521904Y-58523142D01*
X111569523Y-58427904D01*
X111569523Y-58332666D01*
X111521904Y-58237428D01*
X111474285Y-58189809D01*
X111379047Y-58142190D01*
X111188571Y-58094571D01*
X111093333Y-58046952D01*
X111045714Y-57999333D01*
X110998095Y-57904095D01*
X110998095Y-57808857D01*
X111045714Y-57713619D01*
X111093333Y-57666000D01*
X111188571Y-57618380D01*
X111426666Y-57618380D01*
X111569523Y-57666000D01*
X112426666Y-57951714D02*
X112426666Y-58618380D01*
X112188571Y-57570761D02*
X111950476Y-58285047D01*
X112569523Y-58285047D01*
X149098095Y-96670761D02*
X149240952Y-96718380D01*
X149479047Y-96718380D01*
X149574285Y-96670761D01*
X149621904Y-96623142D01*
X149669523Y-96527904D01*
X149669523Y-96432666D01*
X149621904Y-96337428D01*
X149574285Y-96289809D01*
X149479047Y-96242190D01*
X149288571Y-96194571D01*
X149193333Y-96146952D01*
X149145714Y-96099333D01*
X149098095Y-96004095D01*
X149098095Y-95908857D01*
X149145714Y-95813619D01*
X149193333Y-95766000D01*
X149288571Y-95718380D01*
X149526666Y-95718380D01*
X149669523Y-95766000D01*
X150002857Y-95718380D02*
X150621904Y-95718380D01*
X150288571Y-96099333D01*
X150431428Y-96099333D01*
X150526666Y-96146952D01*
X150574285Y-96194571D01*
X150621904Y-96289809D01*
X150621904Y-96527904D01*
X150574285Y-96623142D01*
X150526666Y-96670761D01*
X150431428Y-96718380D01*
X150145714Y-96718380D01*
X150050476Y-96670761D01*
X150002857Y-96623142D01*
X130048095Y-96670761D02*
X130190952Y-96718380D01*
X130429047Y-96718380D01*
X130524285Y-96670761D01*
X130571904Y-96623142D01*
X130619523Y-96527904D01*
X130619523Y-96432666D01*
X130571904Y-96337428D01*
X130524285Y-96289809D01*
X130429047Y-96242190D01*
X130238571Y-96194571D01*
X130143333Y-96146952D01*
X130095714Y-96099333D01*
X130048095Y-96004095D01*
X130048095Y-95908857D01*
X130095714Y-95813619D01*
X130143333Y-95766000D01*
X130238571Y-95718380D01*
X130476666Y-95718380D01*
X130619523Y-95766000D01*
X131000476Y-95813619D02*
X131048095Y-95766000D01*
X131143333Y-95718380D01*
X131381428Y-95718380D01*
X131476666Y-95766000D01*
X131524285Y-95813619D01*
X131571904Y-95908857D01*
X131571904Y-96004095D01*
X131524285Y-96146952D01*
X130952857Y-96718380D01*
X131571904Y-96718380D01*
X110998095Y-96670761D02*
X111140952Y-96718380D01*
X111379047Y-96718380D01*
X111474285Y-96670761D01*
X111521904Y-96623142D01*
X111569523Y-96527904D01*
X111569523Y-96432666D01*
X111521904Y-96337428D01*
X111474285Y-96289809D01*
X111379047Y-96242190D01*
X111188571Y-96194571D01*
X111093333Y-96146952D01*
X111045714Y-96099333D01*
X110998095Y-96004095D01*
X110998095Y-95908857D01*
X111045714Y-95813619D01*
X111093333Y-95766000D01*
X111188571Y-95718380D01*
X111426666Y-95718380D01*
X111569523Y-95766000D01*
X112521904Y-96718380D02*
X111950476Y-96718380D01*
X112236190Y-96718380D02*
X112236190Y-95718380D01*
X112140952Y-95861238D01*
X112045714Y-95956476D01*
X111950476Y-96004095D01*
X93472095Y-56686380D02*
X93472095Y-57495904D01*
X93519714Y-57591142D01*
X93567333Y-57638761D01*
X93662571Y-57686380D01*
X93853047Y-57686380D01*
X93948285Y-57638761D01*
X93995904Y-57591142D01*
X94043523Y-57495904D01*
X94043523Y-56686380D01*
X95043523Y-57686380D02*
X94472095Y-57686380D01*
X94757809Y-57686380D02*
X94757809Y-56686380D01*
X94662571Y-56829238D01*
X94567333Y-56924476D01*
X94472095Y-56972095D01*
M02*
