G04 #@! TF.GenerationSoftware,KiCad,Pcbnew,(5.99.0-6545-gfc5120553)*
G04 #@! TF.CreationDate,2020-10-25T16:43:41-04:00*
G04 #@! TF.ProjectId,imperializer,696d7065-7269-4616-9c69-7a65722e6b69,1.22*
G04 #@! TF.SameCoordinates,Original*
G04 #@! TF.FileFunction,Soldermask,Bot*
G04 #@! TF.FilePolarity,Negative*
%FSLAX46Y46*%
G04 Gerber Fmt 4.6, Leading zero omitted, Abs format (unit mm)*
G04 Created by KiCad (PCBNEW (5.99.0-6545-gfc5120553)) date 2020-10-25 16:43:41*
%MOMM*%
%LPD*%
G01*
G04 APERTURE LIST*
G04 Aperture macros list*
%AMRoundRect*
0 Rectangle with rounded corners*
0 $1 Rounding radius*
0 $2 $3 $4 $5 $6 $7 $8 $9 X,Y pos of 4 corners*
0 Add a 4 corners polygon primitive as box body*
4,1,4,$2,$3,$4,$5,$6,$7,$8,$9,$2,$3,0*
0 Add four circle primitives for the rounded corners*
1,1,$1+$1,$2,$3,0*
1,1,$1+$1,$4,$5,0*
1,1,$1+$1,$6,$7,0*
1,1,$1+$1,$8,$9,0*
0 Add four rect primitives between the rounded corners*
20,1,$1+$1,$2,$3,$4,$5,0*
20,1,$1+$1,$4,$5,$6,$7,0*
20,1,$1+$1,$6,$7,$8,$9,0*
20,1,$1+$1,$8,$9,$2,$3,0*%
G04 Aperture macros list end*
%ADD10RoundRect,0.349122X0.366578X0.554078X-0.366578X0.554078X-0.366578X-0.554078X0.366578X-0.554078X0*%
%ADD11RoundRect,0.251600X0.614100X0.251600X-0.614100X0.251600X-0.614100X-0.251600X0.614100X-0.251600X0*%
%ADD12RoundRect,0.320350X0.320350X0.482850X-0.320350X0.482850X-0.320350X-0.482850X0.320350X-0.482850X0*%
%ADD13C,4.406400*%
%ADD14C,2.106400*%
%ADD15C,2.606400*%
%ADD16RoundRect,0.203200X0.750000X-0.750000X0.750000X0.750000X-0.750000X0.750000X-0.750000X-0.750000X0*%
%ADD17C,1.906400*%
%ADD18C,1.930400*%
%ADD19C,3.456400*%
%ADD20RoundRect,0.203200X-0.850000X-0.850000X0.850000X-0.850000X0.850000X0.850000X-0.850000X0.850000X0*%
%ADD21O,2.106400X2.106400*%
%ADD22RoundRect,0.203200X1.000000X-1.000000X1.000000X1.000000X-1.000000X1.000000X-1.000000X-1.000000X0*%
%ADD23C,2.406400*%
%ADD24RoundRect,0.345350X-0.557850X0.345350X-0.557850X-0.345350X0.557850X-0.345350X0.557850X0.345350X0*%
%ADD25RoundRect,0.203200X-0.205000X0.800000X-0.205000X-0.800000X0.205000X-0.800000X0.205000X0.800000X0*%
%ADD26RoundRect,0.345350X-0.345350X-0.557850X0.345350X-0.557850X0.345350X0.557850X-0.345350X0.557850X0*%
%ADD27RoundRect,0.345350X0.557850X-0.345350X0.557850X0.345350X-0.557850X0.345350X-0.557850X-0.345350X0*%
%ADD28RoundRect,0.345350X0.345350X0.557850X-0.345350X0.557850X-0.345350X-0.557850X0.345350X-0.557850X0*%
%ADD29RoundRect,0.203200X0.400000X-0.450000X0.400000X0.450000X-0.400000X0.450000X-0.400000X-0.450000X0*%
%ADD30RoundRect,0.203200X0.450000X0.400000X-0.450000X0.400000X-0.450000X-0.400000X0.450000X-0.400000X0*%
%ADD31RoundRect,0.203200X-0.400000X0.450000X-0.400000X-0.450000X0.400000X-0.450000X0.400000X0.450000X0*%
%ADD32RoundRect,0.203200X-0.800000X-0.275000X0.800000X-0.275000X0.800000X0.275000X-0.800000X0.275000X0*%
%ADD33RoundRect,0.203200X-0.275000X0.800000X-0.275000X-0.800000X0.275000X-0.800000X0.275000X0.800000X0*%
G04 APERTURE END LIST*
D10*
X90575000Y-59800000D03*
X92400000Y-59800000D03*
X96887500Y-65000000D03*
X98712500Y-65000000D03*
D11*
X96462500Y-121050000D03*
X96462500Y-122950000D03*
X98737500Y-122950000D03*
X98737500Y-122000000D03*
X98737500Y-121050000D03*
D12*
X96537500Y-117600000D03*
X98662500Y-117600000D03*
D13*
X111760000Y-104140000D03*
D14*
X106680000Y-104140000D03*
X116840000Y-104140000D03*
D15*
X114300000Y-99060000D03*
X107950000Y-101600000D03*
D14*
X135890000Y-104140000D03*
X125730000Y-104140000D03*
D13*
X130810000Y-104140000D03*
D15*
X133350000Y-99060000D03*
X127000000Y-101600000D03*
D14*
X106680000Y-66040000D03*
D13*
X111760000Y-66040000D03*
D14*
X116840000Y-66040000D03*
D15*
X114300000Y-60960000D03*
X107950000Y-63500000D03*
D14*
X106680000Y-85090000D03*
D13*
X111760000Y-85090000D03*
D14*
X116840000Y-85090000D03*
D15*
X114300000Y-80010000D03*
X107950000Y-82550000D03*
D14*
X135890000Y-85090000D03*
X125730000Y-85090000D03*
D13*
X130810000Y-85090000D03*
D15*
X133350000Y-80010000D03*
X127000000Y-82550000D03*
D14*
X135890000Y-66040000D03*
X125730000Y-66040000D03*
D13*
X130810000Y-66040000D03*
D15*
X133350000Y-60960000D03*
X127000000Y-63500000D03*
D14*
X144780000Y-66040000D03*
X154940000Y-66040000D03*
D13*
X149860000Y-66040000D03*
D15*
X152400000Y-60960000D03*
X146050000Y-63500000D03*
D13*
X149860000Y-123190000D03*
D14*
X144780000Y-123190000D03*
X154940000Y-123190000D03*
D15*
X152400000Y-118110000D03*
X146050000Y-120650000D03*
D16*
X141986000Y-51943000D03*
D17*
X144526000Y-51943000D03*
X147066000Y-51943000D03*
X149606000Y-51943000D03*
X152146000Y-51943000D03*
X154686000Y-51943000D03*
X157226000Y-51943000D03*
X159766000Y-51943000D03*
X159766000Y-41783000D03*
X154686000Y-41783000D03*
D18*
X149606000Y-41783000D03*
X147066000Y-41783000D03*
D17*
X144526000Y-41783000D03*
X141986000Y-41783000D03*
D16*
X101854000Y-51943000D03*
D17*
X104394000Y-51943000D03*
X106934000Y-51943000D03*
X109474000Y-51943000D03*
X112014000Y-51943000D03*
X114554000Y-51943000D03*
X117094000Y-51943000D03*
X119634000Y-51943000D03*
X119634000Y-41783000D03*
X114554000Y-41783000D03*
D18*
X109474000Y-41783000D03*
X106934000Y-41783000D03*
D17*
X104394000Y-41783000D03*
X101854000Y-41783000D03*
D19*
X109385000Y-116190000D03*
D13*
X109385000Y-131430000D03*
D19*
X133185000Y-116190000D03*
D14*
X126365000Y-123190000D03*
D13*
X121285000Y-123190000D03*
D14*
X116205000Y-123190000D03*
D13*
X133185000Y-131430000D03*
D15*
X123825000Y-118110000D03*
X117475000Y-120650000D03*
D16*
X141986000Y-38862000D03*
D17*
X144526000Y-38862000D03*
X147066000Y-38862000D03*
X149606000Y-38862000D03*
X152146000Y-38862000D03*
X154686000Y-38862000D03*
X157226000Y-38862000D03*
X159766000Y-38862000D03*
X159766000Y-28702000D03*
X154686000Y-28702000D03*
D18*
X149606000Y-28702000D03*
X147066000Y-28702000D03*
D17*
X144526000Y-28702000D03*
X141986000Y-28702000D03*
D16*
X101854000Y-38862000D03*
D17*
X104394000Y-38862000D03*
X106934000Y-38862000D03*
X109474000Y-38862000D03*
X112014000Y-38862000D03*
X114554000Y-38862000D03*
X117094000Y-38862000D03*
X119634000Y-38862000D03*
X119634000Y-28702000D03*
X114554000Y-28702000D03*
D18*
X109474000Y-28702000D03*
X106934000Y-28702000D03*
D17*
X104394000Y-28702000D03*
X101854000Y-28702000D03*
D14*
X144780000Y-104140000D03*
X154940000Y-104140000D03*
D13*
X149860000Y-104140000D03*
D15*
X152400000Y-99060000D03*
X146050000Y-101600000D03*
D20*
X169910000Y-63500000D03*
D21*
X169910000Y-66040000D03*
X169910000Y-68580000D03*
D13*
X149860000Y-85090000D03*
D14*
X154940000Y-85090000D03*
X144780000Y-85090000D03*
D15*
X152400000Y-80010000D03*
X146050000Y-82550000D03*
D13*
X168910000Y-104140000D03*
D14*
X173990000Y-104140000D03*
X163830000Y-104140000D03*
D15*
X171450000Y-99060000D03*
X165100000Y-101600000D03*
D14*
X173990000Y-123190000D03*
X163830000Y-123190000D03*
D13*
X168910000Y-123190000D03*
D15*
X171450000Y-118110000D03*
X165100000Y-120650000D03*
D22*
X94906514Y-132183123D03*
D23*
X94906514Y-87483123D03*
D14*
X173990000Y-85090000D03*
D13*
X168910000Y-85090000D03*
D14*
X163830000Y-85090000D03*
D15*
X171450000Y-80010000D03*
X165100000Y-82550000D03*
D24*
X138684000Y-53418500D03*
X138684000Y-55293500D03*
X136652000Y-49530000D03*
X136652000Y-51405000D03*
X136652000Y-53418500D03*
X136652000Y-55293500D03*
D25*
X127317500Y-31635700D03*
X127952500Y-31635700D03*
X128587500Y-31635700D03*
X129222500Y-31635700D03*
X129857500Y-31635700D03*
X130492500Y-31635700D03*
X131127500Y-31635700D03*
X131762500Y-31635700D03*
X132397500Y-31635700D03*
X133032500Y-31635700D03*
X133667500Y-31635700D03*
X134302500Y-31635700D03*
X134302500Y-36944300D03*
X133667500Y-36944300D03*
X133032500Y-36944300D03*
X132397500Y-36944300D03*
X131762500Y-36944300D03*
X131127500Y-36944300D03*
X130492500Y-36944300D03*
X129857500Y-36944300D03*
X129222500Y-36944300D03*
X128587500Y-36944300D03*
X127952500Y-36944300D03*
X127317500Y-36944300D03*
D24*
X136652000Y-36733000D03*
X136652000Y-38608000D03*
X137414000Y-40284400D03*
X137414000Y-42159400D03*
D25*
X127317500Y-44335700D03*
X127952500Y-44335700D03*
X128587500Y-44335700D03*
X129222500Y-44335700D03*
X129857500Y-44335700D03*
X130492500Y-44335700D03*
X131127500Y-44335700D03*
X131762500Y-44335700D03*
X132397500Y-44335700D03*
X133032500Y-44335700D03*
X133667500Y-44335700D03*
X134302500Y-44335700D03*
X134302500Y-49644300D03*
X133667500Y-49644300D03*
X133032500Y-49644300D03*
X132397500Y-49644300D03*
X131762500Y-49644300D03*
X131127500Y-49644300D03*
X130492500Y-49644300D03*
X129857500Y-49644300D03*
X129222500Y-49644300D03*
X128587500Y-49644300D03*
X127952500Y-49644300D03*
X127317500Y-49644300D03*
D24*
X139547600Y-40284400D03*
X139547600Y-42159400D03*
D26*
X101503000Y-82550000D03*
X103378000Y-82550000D03*
D24*
X99926750Y-110112500D03*
X99926750Y-111987500D03*
D27*
X89408000Y-75105500D03*
X89408000Y-73230500D03*
D28*
X99921300Y-101879400D03*
X98046300Y-101879400D03*
X99921300Y-98094800D03*
X98046300Y-98094800D03*
D29*
X92710000Y-104978200D03*
X90810000Y-104978200D03*
X91760000Y-102978200D03*
D27*
X95608750Y-111987500D03*
X95608750Y-110112500D03*
D28*
X94915506Y-54860415D03*
X93040506Y-54860415D03*
D27*
X97536000Y-85011500D03*
X97536000Y-83136500D03*
D24*
X94488000Y-83136500D03*
X94488000Y-85011500D03*
D30*
X92798750Y-110100000D03*
X92798750Y-112000000D03*
X90798750Y-111050000D03*
D31*
X98033800Y-104333800D03*
X99933800Y-104333800D03*
X98983800Y-106333800D03*
D24*
X109474000Y-72595500D03*
X109474000Y-74470500D03*
D27*
X102743000Y-64516000D03*
X102743000Y-62641000D03*
D28*
X98727500Y-61468000D03*
X96852500Y-61468000D03*
X97028000Y-58801000D03*
X95153000Y-58801000D03*
X101013500Y-86995000D03*
X99138500Y-86995000D03*
D27*
X104140000Y-70279500D03*
X104140000Y-68404500D03*
D32*
X92350000Y-77943225D03*
X92350000Y-77143225D03*
X92350000Y-76343225D03*
X92350000Y-75543225D03*
X92350000Y-74743225D03*
X92350000Y-73943225D03*
X92350000Y-73143225D03*
X92350000Y-72343225D03*
D33*
X93800000Y-70893225D03*
X94600000Y-70893225D03*
X95400000Y-70893225D03*
X96200000Y-70893225D03*
X97000000Y-70893225D03*
X97800000Y-70893225D03*
X98600000Y-70893225D03*
X99400000Y-70893225D03*
D32*
X100850000Y-72343225D03*
X100850000Y-73143225D03*
X100850000Y-73943225D03*
X100850000Y-74743225D03*
X100850000Y-75543225D03*
X100850000Y-76343225D03*
X100850000Y-77143225D03*
X100850000Y-77943225D03*
D33*
X99400000Y-79393225D03*
X98600000Y-79393225D03*
X97800000Y-79393225D03*
X97000000Y-79393225D03*
X96200000Y-79393225D03*
X95400000Y-79393225D03*
X94600000Y-79393225D03*
X93800000Y-79393225D03*
G36*
X93339649Y-78291475D02*
G01*
X93340313Y-78292721D01*
X93347975Y-78351622D01*
X93390196Y-78396250D01*
X93446929Y-78403896D01*
X93448512Y-78405118D01*
X93447773Y-78407541D01*
X93382758Y-78450983D01*
X93339153Y-78516243D01*
X93338632Y-78518861D01*
X93337313Y-78520365D01*
X93335351Y-78519975D01*
X93334687Y-78518729D01*
X93327025Y-78459828D01*
X93284804Y-78415200D01*
X93228071Y-78407554D01*
X93226488Y-78406332D01*
X93227227Y-78403909D01*
X93292242Y-78360467D01*
X93335847Y-78295207D01*
X93336368Y-78292589D01*
X93337687Y-78291085D01*
X93339649Y-78291475D01*
G37*
G36*
X99864316Y-78295452D02*
G01*
X99907758Y-78360467D01*
X99973018Y-78404072D01*
X99975636Y-78404593D01*
X99977140Y-78405912D01*
X99976750Y-78407874D01*
X99975504Y-78408538D01*
X99916603Y-78416200D01*
X99871975Y-78458421D01*
X99864329Y-78515154D01*
X99863107Y-78516737D01*
X99860684Y-78515998D01*
X99817242Y-78450983D01*
X99751982Y-78407378D01*
X99749364Y-78406857D01*
X99747860Y-78405538D01*
X99748250Y-78403576D01*
X99749496Y-78402912D01*
X99808397Y-78395250D01*
X99853025Y-78353029D01*
X99860671Y-78296296D01*
X99861893Y-78294713D01*
X99864316Y-78295452D01*
G37*
G36*
X99864649Y-71766475D02*
G01*
X99865313Y-71767721D01*
X99872975Y-71826622D01*
X99915196Y-71871250D01*
X99971929Y-71878896D01*
X99973512Y-71880118D01*
X99972773Y-71882541D01*
X99907758Y-71925983D01*
X99864153Y-71991243D01*
X99863632Y-71993861D01*
X99862313Y-71995365D01*
X99860351Y-71994975D01*
X99859687Y-71993729D01*
X99852025Y-71934828D01*
X99809804Y-71890200D01*
X99753071Y-71882554D01*
X99751488Y-71881332D01*
X99752227Y-71878909D01*
X99817242Y-71835467D01*
X99860847Y-71770207D01*
X99861368Y-71767589D01*
X99862687Y-71766085D01*
X99864649Y-71766475D01*
G37*
G36*
X93339316Y-71770452D02*
G01*
X93382758Y-71835467D01*
X93448018Y-71879072D01*
X93450636Y-71879593D01*
X93452140Y-71880912D01*
X93451750Y-71882874D01*
X93450504Y-71883538D01*
X93391603Y-71891200D01*
X93346975Y-71933421D01*
X93339329Y-71990154D01*
X93338107Y-71991737D01*
X93335684Y-71990998D01*
X93292242Y-71925983D01*
X93226982Y-71882378D01*
X93224364Y-71881857D01*
X93222860Y-71880538D01*
X93223250Y-71878576D01*
X93224496Y-71877912D01*
X93283397Y-71870250D01*
X93328025Y-71828029D01*
X93335671Y-71771296D01*
X93336893Y-71769713D01*
X93339316Y-71770452D01*
G37*
M02*
