G04 #@! TF.GenerationSoftware,KiCad,Pcbnew,(5.1.5-0)*
G04 #@! TF.CreationDate,2020-05-07T21:13:09-04:00*
G04 #@! TF.ProjectId,imperializer,696d7065-7269-4616-9c69-7a65722e6b69,1.0*
G04 #@! TF.SameCoordinates,Original*
G04 #@! TF.FileFunction,Paste,Top*
G04 #@! TF.FilePolarity,Positive*
%FSLAX46Y46*%
G04 Gerber Fmt 4.6, Leading zero omitted, Abs format (unit mm)*
G04 Created by KiCad (PCBNEW (5.1.5-0)) date 2020-05-07 21:13:09*
%MOMM*%
%LPD*%
G04 APERTURE LIST*
%ADD10R,0.550000X1.500000*%
%ADD11R,1.500000X0.550000*%
%ADD12C,0.100000*%
%ADD13R,0.650000X1.220000*%
%ADD14R,0.400000X1.900000*%
%ADD15R,1.350000X0.400000*%
%ADD16R,1.600000X0.410000*%
G04 APERTURE END LIST*
D10*
X92520000Y-89550000D03*
X93320000Y-89550000D03*
X94120000Y-89550000D03*
X94920000Y-89550000D03*
X95720000Y-89550000D03*
X96520000Y-89550000D03*
X97320000Y-89550000D03*
X98120000Y-89550000D03*
X98920000Y-89550000D03*
X99720000Y-89550000D03*
X100520000Y-89550000D03*
D11*
X102220000Y-91250000D03*
X102220000Y-92050000D03*
X102220000Y-92850000D03*
X102220000Y-93650000D03*
X102220000Y-94450000D03*
X102220000Y-95250000D03*
X102220000Y-96050000D03*
X102220000Y-96850000D03*
X102220000Y-97650000D03*
X102220000Y-98450000D03*
X102220000Y-99250000D03*
D10*
X100520000Y-100950000D03*
X99720000Y-100950000D03*
X98920000Y-100950000D03*
X98120000Y-100950000D03*
X97320000Y-100950000D03*
X96520000Y-100950000D03*
X95720000Y-100950000D03*
X94920000Y-100950000D03*
X94120000Y-100950000D03*
X93320000Y-100950000D03*
X92520000Y-100950000D03*
D11*
X90820000Y-99250000D03*
X90820000Y-98450000D03*
X90820000Y-97650000D03*
X90820000Y-96850000D03*
X90820000Y-96050000D03*
X90820000Y-95250000D03*
X90820000Y-94450000D03*
X90820000Y-93650000D03*
X90820000Y-92850000D03*
X90820000Y-92050000D03*
X90820000Y-91250000D03*
D12*
G36*
X99406142Y-65468174D02*
G01*
X99429803Y-65471684D01*
X99453007Y-65477496D01*
X99475529Y-65485554D01*
X99497153Y-65495782D01*
X99517670Y-65508079D01*
X99536883Y-65522329D01*
X99554607Y-65538393D01*
X99570671Y-65556117D01*
X99584921Y-65575330D01*
X99597218Y-65595847D01*
X99607446Y-65617471D01*
X99615504Y-65639993D01*
X99621316Y-65663197D01*
X99624826Y-65686858D01*
X99626000Y-65710750D01*
X99626000Y-66623250D01*
X99624826Y-66647142D01*
X99621316Y-66670803D01*
X99615504Y-66694007D01*
X99607446Y-66716529D01*
X99597218Y-66738153D01*
X99584921Y-66758670D01*
X99570671Y-66777883D01*
X99554607Y-66795607D01*
X99536883Y-66811671D01*
X99517670Y-66825921D01*
X99497153Y-66838218D01*
X99475529Y-66848446D01*
X99453007Y-66856504D01*
X99429803Y-66862316D01*
X99406142Y-66865826D01*
X99382250Y-66867000D01*
X98894750Y-66867000D01*
X98870858Y-66865826D01*
X98847197Y-66862316D01*
X98823993Y-66856504D01*
X98801471Y-66848446D01*
X98779847Y-66838218D01*
X98759330Y-66825921D01*
X98740117Y-66811671D01*
X98722393Y-66795607D01*
X98706329Y-66777883D01*
X98692079Y-66758670D01*
X98679782Y-66738153D01*
X98669554Y-66716529D01*
X98661496Y-66694007D01*
X98655684Y-66670803D01*
X98652174Y-66647142D01*
X98651000Y-66623250D01*
X98651000Y-65710750D01*
X98652174Y-65686858D01*
X98655684Y-65663197D01*
X98661496Y-65639993D01*
X98669554Y-65617471D01*
X98679782Y-65595847D01*
X98692079Y-65575330D01*
X98706329Y-65556117D01*
X98722393Y-65538393D01*
X98740117Y-65522329D01*
X98759330Y-65508079D01*
X98779847Y-65495782D01*
X98801471Y-65485554D01*
X98823993Y-65477496D01*
X98847197Y-65471684D01*
X98870858Y-65468174D01*
X98894750Y-65467000D01*
X99382250Y-65467000D01*
X99406142Y-65468174D01*
G37*
G36*
X101281142Y-65468174D02*
G01*
X101304803Y-65471684D01*
X101328007Y-65477496D01*
X101350529Y-65485554D01*
X101372153Y-65495782D01*
X101392670Y-65508079D01*
X101411883Y-65522329D01*
X101429607Y-65538393D01*
X101445671Y-65556117D01*
X101459921Y-65575330D01*
X101472218Y-65595847D01*
X101482446Y-65617471D01*
X101490504Y-65639993D01*
X101496316Y-65663197D01*
X101499826Y-65686858D01*
X101501000Y-65710750D01*
X101501000Y-66623250D01*
X101499826Y-66647142D01*
X101496316Y-66670803D01*
X101490504Y-66694007D01*
X101482446Y-66716529D01*
X101472218Y-66738153D01*
X101459921Y-66758670D01*
X101445671Y-66777883D01*
X101429607Y-66795607D01*
X101411883Y-66811671D01*
X101392670Y-66825921D01*
X101372153Y-66838218D01*
X101350529Y-66848446D01*
X101328007Y-66856504D01*
X101304803Y-66862316D01*
X101281142Y-66865826D01*
X101257250Y-66867000D01*
X100769750Y-66867000D01*
X100745858Y-66865826D01*
X100722197Y-66862316D01*
X100698993Y-66856504D01*
X100676471Y-66848446D01*
X100654847Y-66838218D01*
X100634330Y-66825921D01*
X100615117Y-66811671D01*
X100597393Y-66795607D01*
X100581329Y-66777883D01*
X100567079Y-66758670D01*
X100554782Y-66738153D01*
X100544554Y-66716529D01*
X100536496Y-66694007D01*
X100530684Y-66670803D01*
X100527174Y-66647142D01*
X100526000Y-66623250D01*
X100526000Y-65710750D01*
X100527174Y-65686858D01*
X100530684Y-65663197D01*
X100536496Y-65639993D01*
X100544554Y-65617471D01*
X100554782Y-65595847D01*
X100567079Y-65575330D01*
X100581329Y-65556117D01*
X100597393Y-65538393D01*
X100615117Y-65522329D01*
X100634330Y-65508079D01*
X100654847Y-65495782D01*
X100676471Y-65485554D01*
X100698993Y-65477496D01*
X100722197Y-65471684D01*
X100745858Y-65468174D01*
X100769750Y-65467000D01*
X101257250Y-65467000D01*
X101281142Y-65468174D01*
G37*
G36*
X99540142Y-78078174D02*
G01*
X99563803Y-78081684D01*
X99587007Y-78087496D01*
X99609529Y-78095554D01*
X99631153Y-78105782D01*
X99651670Y-78118079D01*
X99670883Y-78132329D01*
X99688607Y-78148393D01*
X99704671Y-78166117D01*
X99718921Y-78185330D01*
X99731218Y-78205847D01*
X99741446Y-78227471D01*
X99749504Y-78249993D01*
X99755316Y-78273197D01*
X99758826Y-78296858D01*
X99760000Y-78320750D01*
X99760000Y-78808250D01*
X99758826Y-78832142D01*
X99755316Y-78855803D01*
X99749504Y-78879007D01*
X99741446Y-78901529D01*
X99731218Y-78923153D01*
X99718921Y-78943670D01*
X99704671Y-78962883D01*
X99688607Y-78980607D01*
X99670883Y-78996671D01*
X99651670Y-79010921D01*
X99631153Y-79023218D01*
X99609529Y-79033446D01*
X99587007Y-79041504D01*
X99563803Y-79047316D01*
X99540142Y-79050826D01*
X99516250Y-79052000D01*
X98603750Y-79052000D01*
X98579858Y-79050826D01*
X98556197Y-79047316D01*
X98532993Y-79041504D01*
X98510471Y-79033446D01*
X98488847Y-79023218D01*
X98468330Y-79010921D01*
X98449117Y-78996671D01*
X98431393Y-78980607D01*
X98415329Y-78962883D01*
X98401079Y-78943670D01*
X98388782Y-78923153D01*
X98378554Y-78901529D01*
X98370496Y-78879007D01*
X98364684Y-78855803D01*
X98361174Y-78832142D01*
X98360000Y-78808250D01*
X98360000Y-78320750D01*
X98361174Y-78296858D01*
X98364684Y-78273197D01*
X98370496Y-78249993D01*
X98378554Y-78227471D01*
X98388782Y-78205847D01*
X98401079Y-78185330D01*
X98415329Y-78166117D01*
X98431393Y-78148393D01*
X98449117Y-78132329D01*
X98468330Y-78118079D01*
X98488847Y-78105782D01*
X98510471Y-78095554D01*
X98532993Y-78087496D01*
X98556197Y-78081684D01*
X98579858Y-78078174D01*
X98603750Y-78077000D01*
X99516250Y-78077000D01*
X99540142Y-78078174D01*
G37*
G36*
X99540142Y-79953174D02*
G01*
X99563803Y-79956684D01*
X99587007Y-79962496D01*
X99609529Y-79970554D01*
X99631153Y-79980782D01*
X99651670Y-79993079D01*
X99670883Y-80007329D01*
X99688607Y-80023393D01*
X99704671Y-80041117D01*
X99718921Y-80060330D01*
X99731218Y-80080847D01*
X99741446Y-80102471D01*
X99749504Y-80124993D01*
X99755316Y-80148197D01*
X99758826Y-80171858D01*
X99760000Y-80195750D01*
X99760000Y-80683250D01*
X99758826Y-80707142D01*
X99755316Y-80730803D01*
X99749504Y-80754007D01*
X99741446Y-80776529D01*
X99731218Y-80798153D01*
X99718921Y-80818670D01*
X99704671Y-80837883D01*
X99688607Y-80855607D01*
X99670883Y-80871671D01*
X99651670Y-80885921D01*
X99631153Y-80898218D01*
X99609529Y-80908446D01*
X99587007Y-80916504D01*
X99563803Y-80922316D01*
X99540142Y-80925826D01*
X99516250Y-80927000D01*
X98603750Y-80927000D01*
X98579858Y-80925826D01*
X98556197Y-80922316D01*
X98532993Y-80916504D01*
X98510471Y-80908446D01*
X98488847Y-80898218D01*
X98468330Y-80885921D01*
X98449117Y-80871671D01*
X98431393Y-80855607D01*
X98415329Y-80837883D01*
X98401079Y-80818670D01*
X98388782Y-80798153D01*
X98378554Y-80776529D01*
X98370496Y-80754007D01*
X98364684Y-80730803D01*
X98361174Y-80707142D01*
X98360000Y-80683250D01*
X98360000Y-80195750D01*
X98361174Y-80171858D01*
X98364684Y-80148197D01*
X98370496Y-80124993D01*
X98378554Y-80102471D01*
X98388782Y-80080847D01*
X98401079Y-80060330D01*
X98415329Y-80041117D01*
X98431393Y-80023393D01*
X98449117Y-80007329D01*
X98468330Y-79993079D01*
X98488847Y-79980782D01*
X98510471Y-79970554D01*
X98532993Y-79962496D01*
X98556197Y-79956684D01*
X98579858Y-79953174D01*
X98603750Y-79952000D01*
X99516250Y-79952000D01*
X99540142Y-79953174D01*
G37*
G36*
X96238142Y-78078174D02*
G01*
X96261803Y-78081684D01*
X96285007Y-78087496D01*
X96307529Y-78095554D01*
X96329153Y-78105782D01*
X96349670Y-78118079D01*
X96368883Y-78132329D01*
X96386607Y-78148393D01*
X96402671Y-78166117D01*
X96416921Y-78185330D01*
X96429218Y-78205847D01*
X96439446Y-78227471D01*
X96447504Y-78249993D01*
X96453316Y-78273197D01*
X96456826Y-78296858D01*
X96458000Y-78320750D01*
X96458000Y-78808250D01*
X96456826Y-78832142D01*
X96453316Y-78855803D01*
X96447504Y-78879007D01*
X96439446Y-78901529D01*
X96429218Y-78923153D01*
X96416921Y-78943670D01*
X96402671Y-78962883D01*
X96386607Y-78980607D01*
X96368883Y-78996671D01*
X96349670Y-79010921D01*
X96329153Y-79023218D01*
X96307529Y-79033446D01*
X96285007Y-79041504D01*
X96261803Y-79047316D01*
X96238142Y-79050826D01*
X96214250Y-79052000D01*
X95301750Y-79052000D01*
X95277858Y-79050826D01*
X95254197Y-79047316D01*
X95230993Y-79041504D01*
X95208471Y-79033446D01*
X95186847Y-79023218D01*
X95166330Y-79010921D01*
X95147117Y-78996671D01*
X95129393Y-78980607D01*
X95113329Y-78962883D01*
X95099079Y-78943670D01*
X95086782Y-78923153D01*
X95076554Y-78901529D01*
X95068496Y-78879007D01*
X95062684Y-78855803D01*
X95059174Y-78832142D01*
X95058000Y-78808250D01*
X95058000Y-78320750D01*
X95059174Y-78296858D01*
X95062684Y-78273197D01*
X95068496Y-78249993D01*
X95076554Y-78227471D01*
X95086782Y-78205847D01*
X95099079Y-78185330D01*
X95113329Y-78166117D01*
X95129393Y-78148393D01*
X95147117Y-78132329D01*
X95166330Y-78118079D01*
X95186847Y-78105782D01*
X95208471Y-78095554D01*
X95230993Y-78087496D01*
X95254197Y-78081684D01*
X95277858Y-78078174D01*
X95301750Y-78077000D01*
X96214250Y-78077000D01*
X96238142Y-78078174D01*
G37*
G36*
X96238142Y-79953174D02*
G01*
X96261803Y-79956684D01*
X96285007Y-79962496D01*
X96307529Y-79970554D01*
X96329153Y-79980782D01*
X96349670Y-79993079D01*
X96368883Y-80007329D01*
X96386607Y-80023393D01*
X96402671Y-80041117D01*
X96416921Y-80060330D01*
X96429218Y-80080847D01*
X96439446Y-80102471D01*
X96447504Y-80124993D01*
X96453316Y-80148197D01*
X96456826Y-80171858D01*
X96458000Y-80195750D01*
X96458000Y-80683250D01*
X96456826Y-80707142D01*
X96453316Y-80730803D01*
X96447504Y-80754007D01*
X96439446Y-80776529D01*
X96429218Y-80798153D01*
X96416921Y-80818670D01*
X96402671Y-80837883D01*
X96386607Y-80855607D01*
X96368883Y-80871671D01*
X96349670Y-80885921D01*
X96329153Y-80898218D01*
X96307529Y-80908446D01*
X96285007Y-80916504D01*
X96261803Y-80922316D01*
X96238142Y-80925826D01*
X96214250Y-80927000D01*
X95301750Y-80927000D01*
X95277858Y-80925826D01*
X95254197Y-80922316D01*
X95230993Y-80916504D01*
X95208471Y-80908446D01*
X95186847Y-80898218D01*
X95166330Y-80885921D01*
X95147117Y-80871671D01*
X95129393Y-80855607D01*
X95113329Y-80837883D01*
X95099079Y-80818670D01*
X95086782Y-80798153D01*
X95076554Y-80776529D01*
X95068496Y-80754007D01*
X95062684Y-80730803D01*
X95059174Y-80707142D01*
X95058000Y-80683250D01*
X95058000Y-80195750D01*
X95059174Y-80171858D01*
X95062684Y-80148197D01*
X95068496Y-80124993D01*
X95076554Y-80102471D01*
X95086782Y-80080847D01*
X95099079Y-80060330D01*
X95113329Y-80041117D01*
X95129393Y-80023393D01*
X95147117Y-80007329D01*
X95166330Y-79993079D01*
X95186847Y-79980782D01*
X95208471Y-79970554D01*
X95230993Y-79962496D01*
X95254197Y-79956684D01*
X95277858Y-79953174D01*
X95301750Y-79952000D01*
X96214250Y-79952000D01*
X96238142Y-79953174D01*
G37*
D13*
X98298000Y-72604000D03*
X99248000Y-75224000D03*
X97348000Y-75224000D03*
D14*
X95320000Y-106680000D03*
X96520000Y-106680000D03*
X97720000Y-106680000D03*
D15*
X92362000Y-78120000D03*
X92362000Y-77470000D03*
X92362000Y-78770000D03*
X92362000Y-76820000D03*
X92362000Y-76170000D03*
D16*
X96888300Y-58991500D03*
X96888300Y-59626500D03*
X96888300Y-60261500D03*
X96888300Y-60896500D03*
X96888300Y-64071500D03*
X96888300Y-64706500D03*
X96888300Y-65341500D03*
X96888300Y-65976500D03*
X91579700Y-65976500D03*
X91579700Y-65341500D03*
X91579700Y-64706500D03*
X91579700Y-64071500D03*
X91579700Y-60896500D03*
X91579700Y-60261500D03*
X91579700Y-59626500D03*
X91579700Y-58991500D03*
X91579700Y-61531500D03*
X91579700Y-62166500D03*
X96888300Y-62166500D03*
X96888300Y-61531500D03*
X91579700Y-62801500D03*
X91579700Y-63436500D03*
X96888300Y-62801500D03*
X96888300Y-63436500D03*
M02*
