M48
; DRILL file {KiCad (5.1.6-0-10_14)} date Saturday, August 01, 2020 at 11:48:04 PM
; FORMAT={-:-/ absolute / inch / decimal}
; #@! TF.CreationDate,2020-08-01T23:48:04-04:00
; #@! TF.GenerationSoftware,Kicad,Pcbnew,(5.1.6-0-10_14)
; #@! TF.FileFunction,Plated,1,2,PTH
FMAT,2
INCH
T1C0.0157
T2C0.0300
T3C0.0394
T4C0.0402
T5C0.0591
T6C0.1673
%
G90
G05
T1
X3.598Y-2.756
X3.652Y-1.75
X3.698Y-2.176
X3.7931Y-4.7
X3.8Y-2.94
X3.952Y-3.914
X4.018Y-1.888
X4.02Y-1.31
X4.07Y-3.042
X4.1Y-1.35
X4.12Y-1.03
X4.128Y-1.796
X4.15Y-1.26
X4.16Y-2.268
X4.208Y-1.952
X4.25Y-2.252
X4.31Y-1.39
X4.312Y-1.96
X4.41Y-1.4077
X4.41Y-2.228
X4.51Y-1.3223
X4.522Y-1.824
X4.612Y-2.49
X4.63Y-4.47
X4.6685Y-2.8845
X4.71Y-1.33
X4.71Y-1.852
X4.812Y-4.306
X4.902Y-1.956
X4.924Y-1.998
X4.926Y-1.8737
X4.95Y-1.656
X4.98Y-1.24
X4.988Y-1.874
X4.998Y-2.894
X5.006Y-1.58
X5.01Y-1.68
X5.084Y-1.666
X5.1348Y-1.8898
X5.136Y-2.176
X5.1375Y-1.6405
X5.147Y-1.5078
X5.16Y-1.33
X5.1675Y-1.565
X5.19Y-1.1
X5.1907Y-1.8725
X5.192Y-2.134
X5.194Y-2.046
X5.2Y-1.654
X5.262Y-2.022
X5.268Y-2.756
X5.28Y-1.5683
X5.2954Y-1.6846
X5.3178Y-1.7462
X5.374Y-2.382
X5.38Y-1.2
X5.43Y-1.11
X5.49Y-1.28
X5.49Y-1.53
X5.5Y-1.42
X5.506Y-4.0
X5.5073Y-1.1427
X5.56Y-1.32
X5.59Y-1.784
X5.684Y-2.264
X5.69Y-1.8043
X5.744Y-1.716
X5.744Y-2.114
X5.748Y-3.044
X5.752Y-2.298
X5.784Y-4.418
X5.788Y-1.8957
X5.79Y-1.38
X5.836Y-1.706
X5.836Y-1.964
X5.986Y-2.232
X6.08Y-1.42
X6.082Y-1.834
X6.09Y-1.37
X6.19Y-2.49
X6.242Y-2.892
X6.29Y-1.32
X6.296Y-3.978
X6.368Y-1.724
X6.506Y-2.968
T2
X3.55Y-4.6
X3.55Y-4.7
X3.55Y-4.8
X3.55Y-4.9
X3.55Y-5.0
X4.05Y-4.6
X4.05Y-4.7
X4.05Y-4.8
X4.05Y-4.9
X4.05Y-5.0
T3
X6.5Y-4.75
X6.5Y-4.85
X6.5Y-4.95
X4.01Y-1.13
X4.01Y-1.53
X4.11Y-1.13
X4.11Y-1.53
X4.21Y-1.13
X4.21Y-1.53
X4.31Y-1.13
X4.31Y-1.53
X4.41Y-1.13
X4.41Y-1.53
X4.51Y-1.13
X4.51Y-1.53
X4.61Y-1.13
X4.61Y-1.53
X4.71Y-1.13
X4.71Y-1.53
X5.59Y-1.13
X5.59Y-1.53
X5.69Y-1.13
X5.69Y-1.53
X5.79Y-1.13
X5.79Y-1.53
X5.89Y-1.13
X5.89Y-1.53
X5.99Y-1.13
X5.99Y-1.53
X6.09Y-1.13
X6.09Y-1.53
X6.19Y-1.13
X6.19Y-1.53
X6.29Y-1.13
X6.29Y-1.53
X5.59Y-1.645
X5.59Y-2.045
X5.69Y-1.645
X5.69Y-2.045
X5.79Y-1.645
X5.79Y-2.045
X5.89Y-1.645
X5.89Y-2.045
X5.99Y-1.645
X5.99Y-2.045
X6.09Y-1.645
X6.09Y-2.045
X6.19Y-1.645
X6.19Y-2.045
X6.29Y-1.645
X6.29Y-2.045
X4.01Y-1.645
X4.01Y-2.045
X4.11Y-1.645
X4.11Y-2.045
X4.21Y-1.645
X4.21Y-2.045
X4.31Y-1.645
X4.31Y-2.045
X4.41Y-1.645
X4.41Y-2.045
X4.51Y-1.645
X4.51Y-2.045
X4.61Y-1.645
X4.61Y-2.045
X4.71Y-1.645
X4.71Y-2.045
T4
X3.8Y-2.3402
X3.8Y-4.1
X6.5Y-2.3402
X6.5Y-4.1
T5
X5.0Y-4.0
X5.25Y-3.9
X5.0Y-3.25
X5.25Y-3.15
X5.0Y-2.5
X5.25Y-2.4
X4.625Y-4.75
X4.875Y-4.65
X5.75Y-4.75
X6.0Y-4.65
X5.75Y-2.5
X6.0Y-2.4
X4.25Y-3.25
X4.5Y-3.15
X5.75Y-4.0
X6.0Y-3.9
X4.25Y-4.0
X4.5Y-3.9
X4.25Y-2.5
X4.5Y-2.4
X5.75Y-3.25
X6.0Y-3.15
T6
X6.675Y-5.2
X3.625Y-1.15
X6.675Y-1.15
X3.625Y-5.2
T0
M30
