G04 #@! TF.GenerationSoftware,KiCad,Pcbnew,(5.1.6-0-10_14)*
G04 #@! TF.CreationDate,2020-09-15T11:41:32-04:00*
G04 #@! TF.ProjectId,imperializer,696d7065-7269-4616-9c69-7a65722e6b69,1.2*
G04 #@! TF.SameCoordinates,Original*
G04 #@! TF.FileFunction,Legend,Top*
G04 #@! TF.FilePolarity,Positive*
%FSLAX46Y46*%
G04 Gerber Fmt 4.6, Leading zero omitted, Abs format (unit mm)*
G04 Created by KiCad (PCBNEW (5.1.6-0-10_14)) date 2020-09-15 11:41:32*
%MOMM*%
%LPD*%
G01*
G04 APERTURE LIST*
%ADD10C,0.300000*%
%ADD11C,0.150000*%
%ADD12C,0.120000*%
G04 APERTURE END LIST*
D10*
X99883428Y-82464571D02*
X99776285Y-82571714D01*
X99454857Y-82678857D01*
X99240571Y-82678857D01*
X98919142Y-82571714D01*
X98704857Y-82357428D01*
X98597714Y-82143142D01*
X98490571Y-81714571D01*
X98490571Y-81393142D01*
X98597714Y-80964571D01*
X98704857Y-80750285D01*
X98919142Y-80536000D01*
X99240571Y-80428857D01*
X99454857Y-80428857D01*
X99776285Y-80536000D01*
X99883428Y-80643142D01*
D11*
X97700714Y-81210476D02*
X97581666Y-81150952D01*
X97522142Y-81091428D01*
X97462619Y-80972380D01*
X97462619Y-80615238D01*
X97522142Y-80496190D01*
X97581666Y-80436666D01*
X97700714Y-80377142D01*
X97879285Y-80377142D01*
X97998333Y-80436666D01*
X98057857Y-80496190D01*
X98117380Y-80615238D01*
X98117380Y-80972380D01*
X98057857Y-81091428D01*
X97998333Y-81150952D01*
X97879285Y-81210476D01*
X97700714Y-81210476D01*
X93636714Y-81083476D02*
X93517666Y-81023952D01*
X93458142Y-80964428D01*
X93398619Y-80845380D01*
X93398619Y-80488238D01*
X93458142Y-80369190D01*
X93517666Y-80309666D01*
X93636714Y-80250142D01*
X93815285Y-80250142D01*
X93934333Y-80309666D01*
X93993857Y-80369190D01*
X94053380Y-80488238D01*
X94053380Y-80845380D01*
X93993857Y-80964428D01*
X93934333Y-81023952D01*
X93815285Y-81083476D01*
X93636714Y-81083476D01*
D10*
X93549857Y-75058857D02*
X93549857Y-73558857D01*
X93549857Y-73773142D02*
X93657000Y-73666000D01*
X93871286Y-73558857D01*
X94192714Y-73558857D01*
X94407000Y-73666000D01*
X94514143Y-73880285D01*
X94514143Y-75058857D01*
X94514143Y-73880285D02*
X94621286Y-73666000D01*
X94835571Y-73558857D01*
X95157000Y-73558857D01*
X95371286Y-73666000D01*
X95478428Y-73880285D01*
X95478428Y-75058857D01*
X96549857Y-75058857D02*
X96549857Y-73558857D01*
X96549857Y-72808857D02*
X96442714Y-72916000D01*
X96549857Y-73023142D01*
X96657000Y-72916000D01*
X96549857Y-72808857D01*
X96549857Y-73023142D01*
X97621286Y-74844571D02*
X97728428Y-74951714D01*
X97621286Y-75058857D01*
X97514143Y-74951714D01*
X97621286Y-74844571D01*
X97621286Y-75058857D01*
X97621286Y-73666000D02*
X97728428Y-73773142D01*
X97621286Y-73880285D01*
X97514143Y-73773142D01*
X97621286Y-73666000D01*
X97621286Y-73880285D01*
X98692714Y-75058857D02*
X98692714Y-72808857D01*
X98907000Y-74201714D02*
X99549857Y-75058857D01*
X99549857Y-73558857D02*
X98692714Y-74416000D01*
X100514143Y-75058857D02*
X100514143Y-73558857D01*
X100514143Y-73773142D02*
X100621286Y-73666000D01*
X100835571Y-73558857D01*
X101157000Y-73558857D01*
X101371286Y-73666000D01*
X101478428Y-73880285D01*
X101478428Y-75058857D01*
X101478428Y-73880285D02*
X101585571Y-73666000D01*
X101799857Y-73558857D01*
X102121286Y-73558857D01*
X102335571Y-73666000D01*
X102442714Y-73880285D01*
X102442714Y-75058857D01*
X93770095Y-78868857D02*
X93555809Y-78761714D01*
X93448666Y-78547428D01*
X93448666Y-76618857D01*
X94627238Y-78868857D02*
X94627238Y-76618857D01*
X94627238Y-77476000D02*
X94841523Y-77368857D01*
X95270095Y-77368857D01*
X95484381Y-77476000D01*
X95591523Y-77583142D01*
X95698666Y-77797428D01*
X95698666Y-78440285D01*
X95591523Y-78654571D01*
X95484381Y-78761714D01*
X95270095Y-78868857D01*
X94841523Y-78868857D01*
X94627238Y-78761714D01*
X96662952Y-78654571D02*
X96770095Y-78761714D01*
X96662952Y-78868857D01*
X96555809Y-78761714D01*
X96662952Y-78654571D01*
X96662952Y-78868857D01*
X96662952Y-77476000D02*
X96770095Y-77583142D01*
X96662952Y-77690285D01*
X96555809Y-77583142D01*
X96662952Y-77476000D01*
X96662952Y-77690285D01*
X97734381Y-78868857D02*
X97734381Y-76618857D01*
X97948666Y-78011714D02*
X98591523Y-78868857D01*
X98591523Y-77368857D02*
X97734381Y-78226000D01*
X100520095Y-77368857D02*
X100520095Y-79190285D01*
X100412952Y-79404571D01*
X100305809Y-79511714D01*
X100091523Y-79618857D01*
X99770095Y-79618857D01*
X99555809Y-79511714D01*
X100520095Y-78761714D02*
X100305809Y-78868857D01*
X99877238Y-78868857D01*
X99662952Y-78761714D01*
X99555809Y-78654571D01*
X99448666Y-78440285D01*
X99448666Y-77797428D01*
X99555809Y-77583142D01*
X99662952Y-77476000D01*
X99877238Y-77368857D01*
X100305809Y-77368857D01*
X100520095Y-77476000D01*
X95416714Y-81500285D02*
X94666714Y-81500285D01*
X94666714Y-82678857D02*
X94666714Y-80428857D01*
X95738142Y-80428857D01*
X96595285Y-82464571D02*
X96702428Y-82571714D01*
X96595285Y-82678857D01*
X96488142Y-82571714D01*
X96595285Y-82464571D01*
X96595285Y-82678857D01*
X96595285Y-81286000D02*
X96702428Y-81393142D01*
X96595285Y-81500285D01*
X96488142Y-81393142D01*
X96595285Y-81286000D01*
X96595285Y-81500285D01*
X93561762Y-71248857D02*
X93561762Y-69748857D01*
X93561762Y-68998857D02*
X93454619Y-69106000D01*
X93561762Y-69213142D01*
X93668905Y-69106000D01*
X93561762Y-68998857D01*
X93561762Y-69213142D01*
X94633191Y-69748857D02*
X94633191Y-71248857D01*
X94633191Y-69963142D02*
X94740334Y-69856000D01*
X94954619Y-69748857D01*
X95276048Y-69748857D01*
X95490334Y-69856000D01*
X95597476Y-70070285D01*
X95597476Y-71248857D01*
X96668905Y-71034571D02*
X96776048Y-71141714D01*
X96668905Y-71248857D01*
X96561762Y-71141714D01*
X96668905Y-71034571D01*
X96668905Y-71248857D01*
X96668905Y-69856000D02*
X96776048Y-69963142D01*
X96668905Y-70070285D01*
X96561762Y-69963142D01*
X96668905Y-69856000D01*
X96668905Y-70070285D01*
X97740334Y-71248857D02*
X97740334Y-69748857D01*
X97740334Y-69963142D02*
X97847476Y-69856000D01*
X98061762Y-69748857D01*
X98383191Y-69748857D01*
X98597476Y-69856000D01*
X98704619Y-70070285D01*
X98704619Y-71248857D01*
X98704619Y-70070285D02*
X98811762Y-69856000D01*
X99026048Y-69748857D01*
X99347476Y-69748857D01*
X99561762Y-69856000D01*
X99668905Y-70070285D01*
X99668905Y-71248857D01*
X100740334Y-71248857D02*
X100740334Y-69748857D01*
X100740334Y-69963142D02*
X100847476Y-69856000D01*
X101061762Y-69748857D01*
X101383191Y-69748857D01*
X101597476Y-69856000D01*
X101704619Y-70070285D01*
X101704619Y-71248857D01*
X101704619Y-70070285D02*
X101811762Y-69856000D01*
X102026048Y-69748857D01*
X102347476Y-69748857D01*
X102561762Y-69856000D01*
X102668905Y-70070285D01*
X102668905Y-71248857D01*
X160084285Y-66078571D02*
X160084285Y-64578571D01*
X160798571Y-66078571D02*
X160798571Y-65078571D01*
X160798571Y-65221428D02*
X160870000Y-65150000D01*
X161012857Y-65078571D01*
X161227142Y-65078571D01*
X161370000Y-65150000D01*
X161441428Y-65292857D01*
X161441428Y-66078571D01*
X161441428Y-65292857D02*
X161512857Y-65150000D01*
X161655714Y-65078571D01*
X161870000Y-65078571D01*
X162012857Y-65150000D01*
X162084285Y-65292857D01*
X162084285Y-66078571D01*
X162798571Y-65078571D02*
X162798571Y-66578571D01*
X162798571Y-65150000D02*
X162941428Y-65078571D01*
X163227142Y-65078571D01*
X163370000Y-65150000D01*
X163441428Y-65221428D01*
X163512857Y-65364285D01*
X163512857Y-65792857D01*
X163441428Y-65935714D01*
X163370000Y-66007142D01*
X163227142Y-66078571D01*
X162941428Y-66078571D01*
X162798571Y-66007142D01*
X164727142Y-66007142D02*
X164584285Y-66078571D01*
X164298571Y-66078571D01*
X164155714Y-66007142D01*
X164084285Y-65864285D01*
X164084285Y-65292857D01*
X164155714Y-65150000D01*
X164298571Y-65078571D01*
X164584285Y-65078571D01*
X164727142Y-65150000D01*
X164798571Y-65292857D01*
X164798571Y-65435714D01*
X164084285Y-65578571D01*
X165441428Y-66078571D02*
X165441428Y-65078571D01*
X165441428Y-65364285D02*
X165512857Y-65221428D01*
X165584285Y-65150000D01*
X165727142Y-65078571D01*
X165870000Y-65078571D01*
X166370000Y-66078571D02*
X166370000Y-65078571D01*
X166370000Y-64578571D02*
X166298571Y-64650000D01*
X166370000Y-64721428D01*
X166441428Y-64650000D01*
X166370000Y-64578571D01*
X166370000Y-64721428D01*
X167727142Y-66078571D02*
X167727142Y-65292857D01*
X167655714Y-65150000D01*
X167512857Y-65078571D01*
X167227142Y-65078571D01*
X167084285Y-65150000D01*
X167727142Y-66007142D02*
X167584285Y-66078571D01*
X167227142Y-66078571D01*
X167084285Y-66007142D01*
X167012857Y-65864285D01*
X167012857Y-65721428D01*
X167084285Y-65578571D01*
X167227142Y-65507142D01*
X167584285Y-65507142D01*
X167727142Y-65435714D01*
X168655714Y-66078571D02*
X168512857Y-66007142D01*
X168441428Y-65864285D01*
X168441428Y-64578571D01*
X169227142Y-66078571D02*
X169227142Y-65078571D01*
X169227142Y-64578571D02*
X169155714Y-64650000D01*
X169227142Y-64721428D01*
X169298571Y-64650000D01*
X169227142Y-64578571D01*
X169227142Y-64721428D01*
X169798571Y-65078571D02*
X170584285Y-65078571D01*
X169798571Y-66078571D01*
X170584285Y-66078571D01*
X171727142Y-66007142D02*
X171584285Y-66078571D01*
X171298571Y-66078571D01*
X171155714Y-66007142D01*
X171084285Y-65864285D01*
X171084285Y-65292857D01*
X171155714Y-65150000D01*
X171298571Y-65078571D01*
X171584285Y-65078571D01*
X171727142Y-65150000D01*
X171798571Y-65292857D01*
X171798571Y-65435714D01*
X171084285Y-65578571D01*
X172441428Y-66078571D02*
X172441428Y-65078571D01*
X172441428Y-65364285D02*
X172512857Y-65221428D01*
X172584285Y-65150000D01*
X172727142Y-65078571D01*
X172870000Y-65078571D01*
X164227142Y-67628571D02*
X164584285Y-68628571D01*
X164941428Y-67628571D01*
X166298571Y-68628571D02*
X165441428Y-68628571D01*
X165870000Y-68628571D02*
X165870000Y-67128571D01*
X165727142Y-67342857D01*
X165584285Y-67485714D01*
X165441428Y-67557142D01*
X166941428Y-68485714D02*
X167012857Y-68557142D01*
X166941428Y-68628571D01*
X166870000Y-68557142D01*
X166941428Y-68485714D01*
X166941428Y-68628571D01*
X167584285Y-67271428D02*
X167655714Y-67200000D01*
X167798571Y-67128571D01*
X168155714Y-67128571D01*
X168298571Y-67200000D01*
X168370000Y-67271428D01*
X168441428Y-67414285D01*
X168441428Y-67557142D01*
X168370000Y-67771428D01*
X167512857Y-68628571D01*
X168441428Y-68628571D01*
D12*
X89923500Y-80534000D02*
X89923500Y-83219000D01*
X89923500Y-83219000D02*
X91843500Y-83219000D01*
X91843500Y-83219000D02*
X91843500Y-80534000D01*
X89845000Y-76808666D02*
X89845000Y-79493666D01*
X89845000Y-79493666D02*
X91765000Y-79493666D01*
X91765000Y-79493666D02*
X91765000Y-76808666D01*
X89845000Y-73083333D02*
X89845000Y-75768333D01*
X89845000Y-75768333D02*
X91765000Y-75768333D01*
X91765000Y-75768333D02*
X91765000Y-73083333D01*
X89845000Y-69358000D02*
X89845000Y-72043000D01*
X89845000Y-72043000D02*
X91765000Y-72043000D01*
X91765000Y-72043000D02*
X91765000Y-69358000D01*
X163353000Y-83065500D02*
X166038000Y-83065500D01*
X166038000Y-83065500D02*
X166038000Y-81145500D01*
X166038000Y-81145500D02*
X163353000Y-81145500D01*
X167656000Y-83065500D02*
X170341000Y-83065500D01*
X170341000Y-83065500D02*
X170341000Y-81145500D01*
X170341000Y-81145500D02*
X167656000Y-81145500D01*
X94996000Y-67310000D02*
X89916000Y-67310000D01*
X94996000Y-62865000D02*
X94996000Y-67310000D01*
X94996000Y-54610000D02*
X94996000Y-60325000D01*
X89916000Y-54610000D02*
X94996000Y-54610000D01*
X89916000Y-67310000D02*
X89916000Y-54610000D01*
X166310000Y-62925000D02*
X168970000Y-62925000D01*
X166310000Y-57785000D02*
X166310000Y-62925000D01*
X168970000Y-57785000D02*
X168970000Y-62925000D01*
X166310000Y-57785000D02*
X168970000Y-57785000D01*
X166310000Y-56515000D02*
X166310000Y-55185000D01*
X166310000Y-55185000D02*
X167640000Y-55185000D01*
X163170000Y-78080000D02*
X162920000Y-78080000D01*
X162920000Y-78080000D02*
X162920000Y-71780000D01*
X162920000Y-71780000D02*
X163170000Y-71780000D01*
X167670000Y-78080000D02*
X165070000Y-78080000D01*
X169570000Y-71780000D02*
X169820000Y-71780000D01*
X169820000Y-71780000D02*
X169820000Y-78080000D01*
X169820000Y-78080000D02*
X169570000Y-78080000D01*
X165070000Y-71780000D02*
X167670000Y-71780000D01*
X142875000Y-97155000D02*
X156845000Y-97155000D01*
X156845000Y-97155000D02*
X156845000Y-111125000D01*
X156845000Y-111125000D02*
X142875000Y-111125000D01*
X142875000Y-111125000D02*
X142875000Y-97155000D01*
X104775000Y-97155000D02*
X118745000Y-97155000D01*
X118745000Y-97155000D02*
X118745000Y-111125000D01*
X118745000Y-111125000D02*
X104775000Y-111125000D01*
X104775000Y-111125000D02*
X104775000Y-97155000D01*
X103120000Y-84934000D02*
X89920000Y-84934000D01*
X103120000Y-135134000D02*
X103120000Y-84934000D01*
X89920000Y-135134000D02*
X103120000Y-135134000D01*
X89920000Y-84934000D02*
X89920000Y-135134000D01*
X95520000Y-92334000D02*
X97520000Y-92334000D01*
X94520000Y-91334000D02*
X98520000Y-91334000D01*
X99520000Y-90334000D02*
X93520000Y-90334000D01*
X92520000Y-89334000D02*
X100520000Y-89334000D01*
X94520000Y-134334000D02*
X94520000Y-133334000D01*
X98520000Y-133334000D02*
X98520000Y-134334000D01*
X102520000Y-117334000D02*
X102520000Y-103334000D01*
X90520000Y-103334000D02*
X90520000Y-117334000D01*
X100520000Y-129334000D02*
X100520000Y-119334000D01*
X92520000Y-129334000D02*
X92520000Y-119334000D01*
X92520000Y-91334000D02*
X92520000Y-101334000D01*
X100520000Y-91334000D02*
X100520000Y-101334000D01*
X90520000Y-134334000D02*
X90520000Y-131334000D01*
X90520000Y-134334000D02*
X102520000Y-134334000D01*
X102520000Y-134334000D02*
X102520000Y-131334000D01*
X90520000Y-86334000D02*
X90520000Y-89334000D01*
X90520000Y-86334000D02*
X102520000Y-86334000D01*
X102520000Y-86334000D02*
X102520000Y-89334000D01*
X90520000Y-131334000D02*
G75*
G03*
X92520000Y-129334000I0J2000000D01*
G01*
X92520000Y-91334000D02*
G75*
G03*
X90520000Y-89334000I-2000000J0D01*
G01*
X102520000Y-89334000D02*
G75*
G03*
X100520000Y-91334000I0J-2000000D01*
G01*
X100520000Y-129334000D02*
G75*
G03*
X102520000Y-131334000I2000000J0D01*
G01*
X100520000Y-101334000D02*
G75*
G03*
X102520000Y-103334000I2000000J0D01*
G01*
X102520000Y-117334000D02*
G75*
G03*
X100520000Y-119334000I0J-2000000D01*
G01*
X92520000Y-119334000D02*
G75*
G03*
X90520000Y-117334000I-2000000J0D01*
G01*
X90520000Y-103334000D02*
G75*
G03*
X92520000Y-101334000I0J2000000D01*
G01*
X104775000Y-78105000D02*
X118745000Y-78105000D01*
X118745000Y-78105000D02*
X118745000Y-92075000D01*
X118745000Y-92075000D02*
X104775000Y-92075000D01*
X104775000Y-92075000D02*
X104775000Y-78105000D01*
X100854000Y-42512000D02*
X102854000Y-42512000D01*
X130834000Y-27382000D02*
X90654000Y-27382000D01*
X130834000Y-40182000D02*
X130834000Y-27382000D01*
X90654000Y-40182000D02*
X130834000Y-40182000D01*
X90654000Y-40182000D02*
X90654000Y-27382000D01*
X140986000Y-42512000D02*
X142986000Y-42512000D01*
X170966000Y-27382000D02*
X130786000Y-27382000D01*
X170966000Y-40182000D02*
X170966000Y-27382000D01*
X130786000Y-40182000D02*
X170966000Y-40182000D01*
X130786000Y-40182000D02*
X130786000Y-27382000D01*
X159135000Y-135030000D02*
X172335000Y-135030000D01*
X159135000Y-84830000D02*
X159135000Y-135030000D01*
X172335000Y-84830000D02*
X159135000Y-84830000D01*
X172335000Y-135030000D02*
X172335000Y-84830000D01*
X166735000Y-127630000D02*
X164735000Y-127630000D01*
X167735000Y-128630000D02*
X163735000Y-128630000D01*
X162735000Y-129630000D02*
X168735000Y-129630000D01*
X169735000Y-130630000D02*
X161735000Y-130630000D01*
X167735000Y-85630000D02*
X167735000Y-86630000D01*
X163735000Y-86630000D02*
X163735000Y-85630000D01*
X159735000Y-102630000D02*
X159735000Y-116630000D01*
X171735000Y-116630000D02*
X171735000Y-102630000D01*
X161735000Y-90630000D02*
X161735000Y-100630000D01*
X169735000Y-90630000D02*
X169735000Y-100630000D01*
X169735000Y-128630000D02*
X169735000Y-118630000D01*
X161735000Y-128630000D02*
X161735000Y-118630000D01*
X171735000Y-85630000D02*
X171735000Y-88630000D01*
X171735000Y-85630000D02*
X159735000Y-85630000D01*
X159735000Y-85630000D02*
X159735000Y-88630000D01*
X171735000Y-133630000D02*
X171735000Y-130630000D01*
X171735000Y-133630000D02*
X159735000Y-133630000D01*
X159735000Y-133630000D02*
X159735000Y-130630000D01*
X171735000Y-88630000D02*
G75*
G03*
X169735000Y-90630000I0J-2000000D01*
G01*
X169735000Y-128630000D02*
G75*
G03*
X171735000Y-130630000I2000000J0D01*
G01*
X159735000Y-130630000D02*
G75*
G03*
X161735000Y-128630000I0J2000000D01*
G01*
X161735000Y-90630000D02*
G75*
G03*
X159735000Y-88630000I-2000000J0D01*
G01*
X161735000Y-118630000D02*
G75*
G03*
X159735000Y-116630000I-2000000J0D01*
G01*
X159735000Y-102630000D02*
G75*
G03*
X161735000Y-100630000I0J2000000D01*
G01*
X169735000Y-100630000D02*
G75*
G03*
X171735000Y-102630000I2000000J0D01*
G01*
X171735000Y-116630000D02*
G75*
G03*
X169735000Y-118630000I0J-2000000D01*
G01*
X140986000Y-55593000D02*
X142986000Y-55593000D01*
X170966000Y-40463000D02*
X130786000Y-40463000D01*
X170966000Y-53263000D02*
X170966000Y-40463000D01*
X130786000Y-53263000D02*
X170966000Y-53263000D01*
X130786000Y-53263000D02*
X130786000Y-40463000D01*
X114300000Y-116205000D02*
X128270000Y-116205000D01*
X128270000Y-116205000D02*
X128270000Y-130175000D01*
X128270000Y-130175000D02*
X114300000Y-130175000D01*
X114300000Y-130175000D02*
X114300000Y-116205000D01*
X142875000Y-116205000D02*
X156845000Y-116205000D01*
X156845000Y-116205000D02*
X156845000Y-130175000D01*
X156845000Y-130175000D02*
X142875000Y-130175000D01*
X142875000Y-130175000D02*
X142875000Y-116205000D01*
X142875000Y-59055000D02*
X156845000Y-59055000D01*
X156845000Y-59055000D02*
X156845000Y-73025000D01*
X156845000Y-73025000D02*
X142875000Y-73025000D01*
X142875000Y-73025000D02*
X142875000Y-59055000D01*
X100854000Y-55593000D02*
X102854000Y-55593000D01*
X130834000Y-40463000D02*
X90654000Y-40463000D01*
X130834000Y-53263000D02*
X130834000Y-40463000D01*
X90654000Y-53263000D02*
X130834000Y-53263000D01*
X90654000Y-53263000D02*
X90654000Y-40463000D01*
X123825000Y-59055000D02*
X137795000Y-59055000D01*
X137795000Y-59055000D02*
X137795000Y-73025000D01*
X137795000Y-73025000D02*
X123825000Y-73025000D01*
X123825000Y-73025000D02*
X123825000Y-59055000D01*
X142875000Y-78105000D02*
X156845000Y-78105000D01*
X156845000Y-78105000D02*
X156845000Y-92075000D01*
X156845000Y-92075000D02*
X142875000Y-92075000D01*
X142875000Y-92075000D02*
X142875000Y-78105000D01*
X123825000Y-78105000D02*
X137795000Y-78105000D01*
X137795000Y-78105000D02*
X137795000Y-92075000D01*
X137795000Y-92075000D02*
X123825000Y-92075000D01*
X123825000Y-92075000D02*
X123825000Y-78105000D01*
X104775000Y-59055000D02*
X118745000Y-59055000D01*
X118745000Y-59055000D02*
X118745000Y-73025000D01*
X118745000Y-73025000D02*
X104775000Y-73025000D01*
X104775000Y-73025000D02*
X104775000Y-59055000D01*
X123825000Y-97155000D02*
X137795000Y-97155000D01*
X137795000Y-97155000D02*
X137795000Y-111125000D01*
X137795000Y-111125000D02*
X123825000Y-111125000D01*
X123825000Y-111125000D02*
X123825000Y-97155000D01*
D11*
X89685880Y-82272095D02*
X88685880Y-82272095D01*
X88685880Y-82034000D01*
X88733500Y-81891142D01*
X88828738Y-81795904D01*
X88923976Y-81748285D01*
X89114452Y-81700666D01*
X89257309Y-81700666D01*
X89447785Y-81748285D01*
X89543023Y-81795904D01*
X89638261Y-81891142D01*
X89685880Y-82034000D01*
X89685880Y-82272095D01*
X89114452Y-81129238D02*
X89066833Y-81224476D01*
X89019214Y-81272095D01*
X88923976Y-81319714D01*
X88876357Y-81319714D01*
X88781119Y-81272095D01*
X88733500Y-81224476D01*
X88685880Y-81129238D01*
X88685880Y-80938761D01*
X88733500Y-80843523D01*
X88781119Y-80795904D01*
X88876357Y-80748285D01*
X88923976Y-80748285D01*
X89019214Y-80795904D01*
X89066833Y-80843523D01*
X89114452Y-80938761D01*
X89114452Y-81129238D01*
X89162071Y-81224476D01*
X89209690Y-81272095D01*
X89304928Y-81319714D01*
X89495404Y-81319714D01*
X89590642Y-81272095D01*
X89638261Y-81224476D01*
X89685880Y-81129238D01*
X89685880Y-80938761D01*
X89638261Y-80843523D01*
X89590642Y-80795904D01*
X89495404Y-80748285D01*
X89304928Y-80748285D01*
X89209690Y-80795904D01*
X89162071Y-80843523D01*
X89114452Y-80938761D01*
X89607380Y-78546761D02*
X88607380Y-78546761D01*
X88607380Y-78308666D01*
X88655000Y-78165808D01*
X88750238Y-78070570D01*
X88845476Y-78022951D01*
X89035952Y-77975332D01*
X89178809Y-77975332D01*
X89369285Y-78022951D01*
X89464523Y-78070570D01*
X89559761Y-78165808D01*
X89607380Y-78308666D01*
X89607380Y-78546761D01*
X88607380Y-77641999D02*
X88607380Y-76975332D01*
X89607380Y-77403904D01*
X89607380Y-74821428D02*
X88607380Y-74821428D01*
X88607380Y-74583333D01*
X88655000Y-74440475D01*
X88750238Y-74345237D01*
X88845476Y-74297618D01*
X89035952Y-74249999D01*
X89178809Y-74249999D01*
X89369285Y-74297618D01*
X89464523Y-74345237D01*
X89559761Y-74440475D01*
X89607380Y-74583333D01*
X89607380Y-74821428D01*
X88607380Y-73392856D02*
X88607380Y-73583333D01*
X88655000Y-73678571D01*
X88702619Y-73726190D01*
X88845476Y-73821428D01*
X89035952Y-73869047D01*
X89416904Y-73869047D01*
X89512142Y-73821428D01*
X89559761Y-73773809D01*
X89607380Y-73678571D01*
X89607380Y-73488094D01*
X89559761Y-73392856D01*
X89512142Y-73345237D01*
X89416904Y-73297618D01*
X89178809Y-73297618D01*
X89083571Y-73345237D01*
X89035952Y-73392856D01*
X88988333Y-73488094D01*
X88988333Y-73678571D01*
X89035952Y-73773809D01*
X89083571Y-73821428D01*
X89178809Y-73869047D01*
X89607380Y-71096095D02*
X88607380Y-71096095D01*
X88607380Y-70858000D01*
X88655000Y-70715142D01*
X88750238Y-70619904D01*
X88845476Y-70572285D01*
X89035952Y-70524666D01*
X89178809Y-70524666D01*
X89369285Y-70572285D01*
X89464523Y-70619904D01*
X89559761Y-70715142D01*
X89607380Y-70858000D01*
X89607380Y-71096095D01*
X88607380Y-69619904D02*
X88607380Y-70096095D01*
X89083571Y-70143714D01*
X89035952Y-70096095D01*
X88988333Y-70000857D01*
X88988333Y-69762761D01*
X89035952Y-69667523D01*
X89083571Y-69619904D01*
X89178809Y-69572285D01*
X89416904Y-69572285D01*
X89512142Y-69619904D01*
X89559761Y-69667523D01*
X89607380Y-69762761D01*
X89607380Y-70000857D01*
X89559761Y-70096095D01*
X89512142Y-70143714D01*
X163853904Y-84399380D02*
X163853904Y-83399380D01*
X164092000Y-83399380D01*
X164234857Y-83447000D01*
X164330095Y-83542238D01*
X164377714Y-83637476D01*
X164425333Y-83827952D01*
X164425333Y-83970809D01*
X164377714Y-84161285D01*
X164330095Y-84256523D01*
X164234857Y-84351761D01*
X164092000Y-84399380D01*
X163853904Y-84399380D01*
X165282476Y-83732714D02*
X165282476Y-84399380D01*
X165044380Y-83351761D02*
X164806285Y-84066047D01*
X165425333Y-84066047D01*
X168044904Y-84399380D02*
X168044904Y-83399380D01*
X168283000Y-83399380D01*
X168425857Y-83447000D01*
X168521095Y-83542238D01*
X168568714Y-83637476D01*
X168616333Y-83827952D01*
X168616333Y-83970809D01*
X168568714Y-84161285D01*
X168521095Y-84256523D01*
X168425857Y-84351761D01*
X168283000Y-84399380D01*
X168044904Y-84399380D01*
X168997285Y-83494619D02*
X169044904Y-83447000D01*
X169140142Y-83399380D01*
X169378238Y-83399380D01*
X169473476Y-83447000D01*
X169521095Y-83494619D01*
X169568714Y-83589857D01*
X169568714Y-83685095D01*
X169521095Y-83827952D01*
X168949666Y-84399380D01*
X169568714Y-84399380D01*
X95932666Y-55078380D02*
X95932666Y-55792666D01*
X95885047Y-55935523D01*
X95789809Y-56030761D01*
X95646952Y-56078380D01*
X95551714Y-56078380D01*
X96361238Y-55173619D02*
X96408857Y-55126000D01*
X96504095Y-55078380D01*
X96742190Y-55078380D01*
X96837428Y-55126000D01*
X96885047Y-55173619D01*
X96932666Y-55268857D01*
X96932666Y-55364095D01*
X96885047Y-55506952D01*
X96313619Y-56078380D01*
X96932666Y-56078380D01*
X166306666Y-54589761D02*
X166449523Y-54637380D01*
X166687619Y-54637380D01*
X166782857Y-54589761D01*
X166830476Y-54542142D01*
X166878095Y-54446904D01*
X166878095Y-54351666D01*
X166830476Y-54256428D01*
X166782857Y-54208809D01*
X166687619Y-54161190D01*
X166497142Y-54113571D01*
X166401904Y-54065952D01*
X166354285Y-54018333D01*
X166306666Y-53923095D01*
X166306666Y-53827857D01*
X166354285Y-53732619D01*
X166401904Y-53685000D01*
X166497142Y-53637380D01*
X166735238Y-53637380D01*
X166878095Y-53685000D01*
X167211428Y-53637380D02*
X167449523Y-54637380D01*
X167640000Y-53923095D01*
X167830476Y-54637380D01*
X168068571Y-53637380D01*
X168973333Y-54637380D02*
X168401904Y-54637380D01*
X168687619Y-54637380D02*
X168687619Y-53637380D01*
X168592380Y-53780238D01*
X168497142Y-53875476D01*
X168401904Y-53923095D01*
X162274761Y-76168095D02*
X162322380Y-76025238D01*
X162322380Y-75787142D01*
X162274761Y-75691904D01*
X162227142Y-75644285D01*
X162131904Y-75596666D01*
X162036666Y-75596666D01*
X161941428Y-75644285D01*
X161893809Y-75691904D01*
X161846190Y-75787142D01*
X161798571Y-75977619D01*
X161750952Y-76072857D01*
X161703333Y-76120476D01*
X161608095Y-76168095D01*
X161512857Y-76168095D01*
X161417619Y-76120476D01*
X161370000Y-76072857D01*
X161322380Y-75977619D01*
X161322380Y-75739523D01*
X161370000Y-75596666D01*
X162322380Y-74644285D02*
X162322380Y-75215714D01*
X162322380Y-74930000D02*
X161322380Y-74930000D01*
X161465238Y-75025238D01*
X161560476Y-75120476D01*
X161608095Y-75215714D01*
X161417619Y-74263333D02*
X161370000Y-74215714D01*
X161322380Y-74120476D01*
X161322380Y-73882380D01*
X161370000Y-73787142D01*
X161417619Y-73739523D01*
X161512857Y-73691904D01*
X161608095Y-73691904D01*
X161750952Y-73739523D01*
X162322380Y-74310952D01*
X162322380Y-73691904D01*
X149098095Y-96670761D02*
X149240952Y-96718380D01*
X149479047Y-96718380D01*
X149574285Y-96670761D01*
X149621904Y-96623142D01*
X149669523Y-96527904D01*
X149669523Y-96432666D01*
X149621904Y-96337428D01*
X149574285Y-96289809D01*
X149479047Y-96242190D01*
X149288571Y-96194571D01*
X149193333Y-96146952D01*
X149145714Y-96099333D01*
X149098095Y-96004095D01*
X149098095Y-95908857D01*
X149145714Y-95813619D01*
X149193333Y-95766000D01*
X149288571Y-95718380D01*
X149526666Y-95718380D01*
X149669523Y-95766000D01*
X150526666Y-95718380D02*
X150336190Y-95718380D01*
X150240952Y-95766000D01*
X150193333Y-95813619D01*
X150098095Y-95956476D01*
X150050476Y-96146952D01*
X150050476Y-96527904D01*
X150098095Y-96623142D01*
X150145714Y-96670761D01*
X150240952Y-96718380D01*
X150431428Y-96718380D01*
X150526666Y-96670761D01*
X150574285Y-96623142D01*
X150621904Y-96527904D01*
X150621904Y-96289809D01*
X150574285Y-96194571D01*
X150526666Y-96146952D01*
X150431428Y-96099333D01*
X150240952Y-96099333D01*
X150145714Y-96146952D01*
X150098095Y-96194571D01*
X150050476Y-96289809D01*
X110998095Y-96670761D02*
X111140952Y-96718380D01*
X111379047Y-96718380D01*
X111474285Y-96670761D01*
X111521904Y-96623142D01*
X111569523Y-96527904D01*
X111569523Y-96432666D01*
X111521904Y-96337428D01*
X111474285Y-96289809D01*
X111379047Y-96242190D01*
X111188571Y-96194571D01*
X111093333Y-96146952D01*
X111045714Y-96099333D01*
X110998095Y-96004095D01*
X110998095Y-95908857D01*
X111045714Y-95813619D01*
X111093333Y-95766000D01*
X111188571Y-95718380D01*
X111426666Y-95718380D01*
X111569523Y-95766000D01*
X112426666Y-96051714D02*
X112426666Y-96718380D01*
X112188571Y-95670761D02*
X111950476Y-96385047D01*
X112569523Y-96385047D01*
X101068285Y-84129571D02*
X101211142Y-84177190D01*
X101258761Y-84224809D01*
X101306380Y-84320047D01*
X101306380Y-84462904D01*
X101258761Y-84558142D01*
X101211142Y-84605761D01*
X101115904Y-84653380D01*
X100734952Y-84653380D01*
X100734952Y-83653380D01*
X101068285Y-83653380D01*
X101163523Y-83701000D01*
X101211142Y-83748619D01*
X101258761Y-83843857D01*
X101258761Y-83939095D01*
X101211142Y-84034333D01*
X101163523Y-84081952D01*
X101068285Y-84129571D01*
X100734952Y-84129571D01*
X101592095Y-83653380D02*
X102163523Y-83653380D01*
X101877809Y-84653380D02*
X101877809Y-83653380D01*
X103020666Y-84653380D02*
X102449238Y-84653380D01*
X102734952Y-84653380D02*
X102734952Y-83653380D01*
X102639714Y-83796238D01*
X102544476Y-83891476D01*
X102449238Y-83939095D01*
X110998095Y-77620761D02*
X111140952Y-77668380D01*
X111379047Y-77668380D01*
X111474285Y-77620761D01*
X111521904Y-77573142D01*
X111569523Y-77477904D01*
X111569523Y-77382666D01*
X111521904Y-77287428D01*
X111474285Y-77239809D01*
X111379047Y-77192190D01*
X111188571Y-77144571D01*
X111093333Y-77096952D01*
X111045714Y-77049333D01*
X110998095Y-76954095D01*
X110998095Y-76858857D01*
X111045714Y-76763619D01*
X111093333Y-76716000D01*
X111188571Y-76668380D01*
X111426666Y-76668380D01*
X111569523Y-76716000D01*
X112140952Y-77096952D02*
X112045714Y-77049333D01*
X111998095Y-77001714D01*
X111950476Y-76906476D01*
X111950476Y-76858857D01*
X111998095Y-76763619D01*
X112045714Y-76716000D01*
X112140952Y-76668380D01*
X112331428Y-76668380D01*
X112426666Y-76716000D01*
X112474285Y-76763619D01*
X112521904Y-76858857D01*
X112521904Y-76906476D01*
X112474285Y-77001714D01*
X112426666Y-77049333D01*
X112331428Y-77096952D01*
X112140952Y-77096952D01*
X112045714Y-77144571D01*
X111998095Y-77192190D01*
X111950476Y-77287428D01*
X111950476Y-77477904D01*
X111998095Y-77573142D01*
X112045714Y-77620761D01*
X112140952Y-77668380D01*
X112331428Y-77668380D01*
X112426666Y-77620761D01*
X112474285Y-77573142D01*
X112521904Y-77477904D01*
X112521904Y-77287428D01*
X112474285Y-77192190D01*
X112426666Y-77144571D01*
X112331428Y-77096952D01*
X88595295Y-34047180D02*
X88595295Y-34856704D01*
X88642914Y-34951942D01*
X88690533Y-34999561D01*
X88785771Y-35047180D01*
X88976247Y-35047180D01*
X89071485Y-34999561D01*
X89119104Y-34951942D01*
X89166723Y-34856704D01*
X89166723Y-34047180D01*
X90071485Y-34047180D02*
X89881009Y-34047180D01*
X89785771Y-34094800D01*
X89738152Y-34142419D01*
X89642914Y-34285276D01*
X89595295Y-34475752D01*
X89595295Y-34856704D01*
X89642914Y-34951942D01*
X89690533Y-34999561D01*
X89785771Y-35047180D01*
X89976247Y-35047180D01*
X90071485Y-34999561D01*
X90119104Y-34951942D01*
X90166723Y-34856704D01*
X90166723Y-34618609D01*
X90119104Y-34523371D01*
X90071485Y-34475752D01*
X89976247Y-34428133D01*
X89785771Y-34428133D01*
X89690533Y-34475752D01*
X89642914Y-34523371D01*
X89595295Y-34618609D01*
X171348495Y-34097980D02*
X171348495Y-34907504D01*
X171396114Y-35002742D01*
X171443733Y-35050361D01*
X171538971Y-35097980D01*
X171729447Y-35097980D01*
X171824685Y-35050361D01*
X171872304Y-35002742D01*
X171919923Y-34907504D01*
X171919923Y-34097980D01*
X172300876Y-34097980D02*
X172967542Y-34097980D01*
X172538971Y-35097980D01*
X156186285Y-134104071D02*
X156329142Y-134151690D01*
X156376761Y-134199309D01*
X156424380Y-134294547D01*
X156424380Y-134437404D01*
X156376761Y-134532642D01*
X156329142Y-134580261D01*
X156233904Y-134627880D01*
X155852952Y-134627880D01*
X155852952Y-133627880D01*
X156186285Y-133627880D01*
X156281523Y-133675500D01*
X156329142Y-133723119D01*
X156376761Y-133818357D01*
X156376761Y-133913595D01*
X156329142Y-134008833D01*
X156281523Y-134056452D01*
X156186285Y-134104071D01*
X155852952Y-134104071D01*
X156710095Y-133627880D02*
X157281523Y-133627880D01*
X156995809Y-134627880D02*
X156995809Y-133627880D01*
X157567238Y-133723119D02*
X157614857Y-133675500D01*
X157710095Y-133627880D01*
X157948190Y-133627880D01*
X158043428Y-133675500D01*
X158091047Y-133723119D01*
X158138666Y-133818357D01*
X158138666Y-133913595D01*
X158091047Y-134056452D01*
X157519619Y-134627880D01*
X158138666Y-134627880D01*
X171450095Y-45985180D02*
X171450095Y-46794704D01*
X171497714Y-46889942D01*
X171545333Y-46937561D01*
X171640571Y-46985180D01*
X171831047Y-46985180D01*
X171926285Y-46937561D01*
X171973904Y-46889942D01*
X172021523Y-46794704D01*
X172021523Y-45985180D01*
X172402476Y-45985180D02*
X173021523Y-45985180D01*
X172688190Y-46366133D01*
X172831047Y-46366133D01*
X172926285Y-46413752D01*
X172973904Y-46461371D01*
X173021523Y-46556609D01*
X173021523Y-46794704D01*
X172973904Y-46889942D01*
X172926285Y-46937561D01*
X172831047Y-46985180D01*
X172545333Y-46985180D01*
X172450095Y-46937561D01*
X172402476Y-46889942D01*
X120523095Y-115720761D02*
X120665952Y-115768380D01*
X120904047Y-115768380D01*
X120999285Y-115720761D01*
X121046904Y-115673142D01*
X121094523Y-115577904D01*
X121094523Y-115482666D01*
X121046904Y-115387428D01*
X120999285Y-115339809D01*
X120904047Y-115292190D01*
X120713571Y-115244571D01*
X120618333Y-115196952D01*
X120570714Y-115149333D01*
X120523095Y-115054095D01*
X120523095Y-114958857D01*
X120570714Y-114863619D01*
X120618333Y-114816000D01*
X120713571Y-114768380D01*
X120951666Y-114768380D01*
X121094523Y-114816000D01*
X121427857Y-114768380D02*
X122046904Y-114768380D01*
X121713571Y-115149333D01*
X121856428Y-115149333D01*
X121951666Y-115196952D01*
X121999285Y-115244571D01*
X122046904Y-115339809D01*
X122046904Y-115577904D01*
X121999285Y-115673142D01*
X121951666Y-115720761D01*
X121856428Y-115768380D01*
X121570714Y-115768380D01*
X121475476Y-115720761D01*
X121427857Y-115673142D01*
X149098095Y-115720761D02*
X149240952Y-115768380D01*
X149479047Y-115768380D01*
X149574285Y-115720761D01*
X149621904Y-115673142D01*
X149669523Y-115577904D01*
X149669523Y-115482666D01*
X149621904Y-115387428D01*
X149574285Y-115339809D01*
X149479047Y-115292190D01*
X149288571Y-115244571D01*
X149193333Y-115196952D01*
X149145714Y-115149333D01*
X149098095Y-115054095D01*
X149098095Y-114958857D01*
X149145714Y-114863619D01*
X149193333Y-114816000D01*
X149288571Y-114768380D01*
X149526666Y-114768380D01*
X149669523Y-114816000D01*
X150050476Y-114863619D02*
X150098095Y-114816000D01*
X150193333Y-114768380D01*
X150431428Y-114768380D01*
X150526666Y-114816000D01*
X150574285Y-114863619D01*
X150621904Y-114958857D01*
X150621904Y-115054095D01*
X150574285Y-115196952D01*
X150002857Y-115768380D01*
X150621904Y-115768380D01*
X149098095Y-58570761D02*
X149240952Y-58618380D01*
X149479047Y-58618380D01*
X149574285Y-58570761D01*
X149621904Y-58523142D01*
X149669523Y-58427904D01*
X149669523Y-58332666D01*
X149621904Y-58237428D01*
X149574285Y-58189809D01*
X149479047Y-58142190D01*
X149288571Y-58094571D01*
X149193333Y-58046952D01*
X149145714Y-57999333D01*
X149098095Y-57904095D01*
X149098095Y-57808857D01*
X149145714Y-57713619D01*
X149193333Y-57666000D01*
X149288571Y-57618380D01*
X149526666Y-57618380D01*
X149669523Y-57666000D01*
X150621904Y-58618380D02*
X150050476Y-58618380D01*
X150336190Y-58618380D02*
X150336190Y-57618380D01*
X150240952Y-57761238D01*
X150145714Y-57856476D01*
X150050476Y-57904095D01*
X88493695Y-45985180D02*
X88493695Y-46794704D01*
X88541314Y-46889942D01*
X88588933Y-46937561D01*
X88684171Y-46985180D01*
X88874647Y-46985180D01*
X88969885Y-46937561D01*
X89017504Y-46889942D01*
X89065123Y-46794704D01*
X89065123Y-45985180D01*
X89493695Y-46080419D02*
X89541314Y-46032800D01*
X89636552Y-45985180D01*
X89874647Y-45985180D01*
X89969885Y-46032800D01*
X90017504Y-46080419D01*
X90065123Y-46175657D01*
X90065123Y-46270895D01*
X90017504Y-46413752D01*
X89446076Y-46985180D01*
X90065123Y-46985180D01*
X129571904Y-58570761D02*
X129714761Y-58618380D01*
X129952857Y-58618380D01*
X130048095Y-58570761D01*
X130095714Y-58523142D01*
X130143333Y-58427904D01*
X130143333Y-58332666D01*
X130095714Y-58237428D01*
X130048095Y-58189809D01*
X129952857Y-58142190D01*
X129762380Y-58094571D01*
X129667142Y-58046952D01*
X129619523Y-57999333D01*
X129571904Y-57904095D01*
X129571904Y-57808857D01*
X129619523Y-57713619D01*
X129667142Y-57666000D01*
X129762380Y-57618380D01*
X130000476Y-57618380D01*
X130143333Y-57666000D01*
X131095714Y-58618380D02*
X130524285Y-58618380D01*
X130810000Y-58618380D02*
X130810000Y-57618380D01*
X130714761Y-57761238D01*
X130619523Y-57856476D01*
X130524285Y-57904095D01*
X132048095Y-58618380D02*
X131476666Y-58618380D01*
X131762380Y-58618380D02*
X131762380Y-57618380D01*
X131667142Y-57761238D01*
X131571904Y-57856476D01*
X131476666Y-57904095D01*
X148621904Y-77620761D02*
X148764761Y-77668380D01*
X149002857Y-77668380D01*
X149098095Y-77620761D01*
X149145714Y-77573142D01*
X149193333Y-77477904D01*
X149193333Y-77382666D01*
X149145714Y-77287428D01*
X149098095Y-77239809D01*
X149002857Y-77192190D01*
X148812380Y-77144571D01*
X148717142Y-77096952D01*
X148669523Y-77049333D01*
X148621904Y-76954095D01*
X148621904Y-76858857D01*
X148669523Y-76763619D01*
X148717142Y-76716000D01*
X148812380Y-76668380D01*
X149050476Y-76668380D01*
X149193333Y-76716000D01*
X150145714Y-77668380D02*
X149574285Y-77668380D01*
X149860000Y-77668380D02*
X149860000Y-76668380D01*
X149764761Y-76811238D01*
X149669523Y-76906476D01*
X149574285Y-76954095D01*
X150764761Y-76668380D02*
X150860000Y-76668380D01*
X150955238Y-76716000D01*
X151002857Y-76763619D01*
X151050476Y-76858857D01*
X151098095Y-77049333D01*
X151098095Y-77287428D01*
X151050476Y-77477904D01*
X151002857Y-77573142D01*
X150955238Y-77620761D01*
X150860000Y-77668380D01*
X150764761Y-77668380D01*
X150669523Y-77620761D01*
X150621904Y-77573142D01*
X150574285Y-77477904D01*
X150526666Y-77287428D01*
X150526666Y-77049333D01*
X150574285Y-76858857D01*
X150621904Y-76763619D01*
X150669523Y-76716000D01*
X150764761Y-76668380D01*
X130048095Y-77620761D02*
X130190952Y-77668380D01*
X130429047Y-77668380D01*
X130524285Y-77620761D01*
X130571904Y-77573142D01*
X130619523Y-77477904D01*
X130619523Y-77382666D01*
X130571904Y-77287428D01*
X130524285Y-77239809D01*
X130429047Y-77192190D01*
X130238571Y-77144571D01*
X130143333Y-77096952D01*
X130095714Y-77049333D01*
X130048095Y-76954095D01*
X130048095Y-76858857D01*
X130095714Y-76763619D01*
X130143333Y-76716000D01*
X130238571Y-76668380D01*
X130476666Y-76668380D01*
X130619523Y-76716000D01*
X131095714Y-77668380D02*
X131286190Y-77668380D01*
X131381428Y-77620761D01*
X131429047Y-77573142D01*
X131524285Y-77430285D01*
X131571904Y-77239809D01*
X131571904Y-76858857D01*
X131524285Y-76763619D01*
X131476666Y-76716000D01*
X131381428Y-76668380D01*
X131190952Y-76668380D01*
X131095714Y-76716000D01*
X131048095Y-76763619D01*
X131000476Y-76858857D01*
X131000476Y-77096952D01*
X131048095Y-77192190D01*
X131095714Y-77239809D01*
X131190952Y-77287428D01*
X131381428Y-77287428D01*
X131476666Y-77239809D01*
X131524285Y-77192190D01*
X131571904Y-77096952D01*
X110998095Y-58570761D02*
X111140952Y-58618380D01*
X111379047Y-58618380D01*
X111474285Y-58570761D01*
X111521904Y-58523142D01*
X111569523Y-58427904D01*
X111569523Y-58332666D01*
X111521904Y-58237428D01*
X111474285Y-58189809D01*
X111379047Y-58142190D01*
X111188571Y-58094571D01*
X111093333Y-58046952D01*
X111045714Y-57999333D01*
X110998095Y-57904095D01*
X110998095Y-57808857D01*
X111045714Y-57713619D01*
X111093333Y-57666000D01*
X111188571Y-57618380D01*
X111426666Y-57618380D01*
X111569523Y-57666000D01*
X111902857Y-57618380D02*
X112569523Y-57618380D01*
X112140952Y-58618380D01*
X130048095Y-96670761D02*
X130190952Y-96718380D01*
X130429047Y-96718380D01*
X130524285Y-96670761D01*
X130571904Y-96623142D01*
X130619523Y-96527904D01*
X130619523Y-96432666D01*
X130571904Y-96337428D01*
X130524285Y-96289809D01*
X130429047Y-96242190D01*
X130238571Y-96194571D01*
X130143333Y-96146952D01*
X130095714Y-96099333D01*
X130048095Y-96004095D01*
X130048095Y-95908857D01*
X130095714Y-95813619D01*
X130143333Y-95766000D01*
X130238571Y-95718380D01*
X130476666Y-95718380D01*
X130619523Y-95766000D01*
X131524285Y-95718380D02*
X131048095Y-95718380D01*
X131000476Y-96194571D01*
X131048095Y-96146952D01*
X131143333Y-96099333D01*
X131381428Y-96099333D01*
X131476666Y-96146952D01*
X131524285Y-96194571D01*
X131571904Y-96289809D01*
X131571904Y-96527904D01*
X131524285Y-96623142D01*
X131476666Y-96670761D01*
X131381428Y-96718380D01*
X131143333Y-96718380D01*
X131048095Y-96670761D01*
X131000476Y-96623142D01*
M02*
