G04 #@! TF.GenerationSoftware,KiCad,Pcbnew,(5.99.0-6545-gfc5120553)*
G04 #@! TF.CreationDate,2020-10-25T16:43:41-04:00*
G04 #@! TF.ProjectId,imperializer,696d7065-7269-4616-9c69-7a65722e6b69,1.22*
G04 #@! TF.SameCoordinates,Original*
G04 #@! TF.FileFunction,Soldermask,Top*
G04 #@! TF.FilePolarity,Negative*
%FSLAX46Y46*%
G04 Gerber Fmt 4.6, Leading zero omitted, Abs format (unit mm)*
G04 Created by KiCad (PCBNEW (5.99.0-6545-gfc5120553)) date 2020-10-25 16:43:41*
%MOMM*%
%LPD*%
G01*
G04 APERTURE LIST*
G04 Aperture macros list*
%AMRoundRect*
0 Rectangle with rounded corners*
0 $1 Rounding radius*
0 $2 $3 $4 $5 $6 $7 $8 $9 X,Y pos of 4 corners*
0 Add a 4 corners polygon primitive as box body*
4,1,4,$2,$3,$4,$5,$6,$7,$8,$9,$2,$3,0*
0 Add four circle primitives for the rounded corners*
1,1,$1+$1,$2,$3,0*
1,1,$1+$1,$4,$5,0*
1,1,$1+$1,$6,$7,0*
1,1,$1+$1,$8,$9,0*
0 Add four rect primitives between the rounded corners*
20,1,$1+$1,$2,$3,$4,$5,0*
20,1,$1+$1,$4,$5,$6,$7,0*
20,1,$1+$1,$6,$7,$8,$9,0*
20,1,$1+$1,$8,$9,$2,$3,0*%
G04 Aperture macros list end*
%ADD10RoundRect,0.345350X0.557850X-0.345350X0.557850X0.345350X-0.557850X0.345350X-0.557850X-0.345350X0*%
%ADD11C,4.406400*%
%ADD12C,2.106400*%
%ADD13C,2.606400*%
%ADD14RoundRect,0.203200X0.750000X-0.750000X0.750000X0.750000X-0.750000X0.750000X-0.750000X-0.750000X0*%
%ADD15C,1.906400*%
%ADD16C,1.930400*%
%ADD17C,3.456400*%
%ADD18RoundRect,0.203200X1.397500X-0.370000X1.397500X0.370000X-1.397500X0.370000X-1.397500X-0.370000X0*%
%ADD19RoundRect,0.203200X-0.850000X-0.850000X0.850000X-0.850000X0.850000X0.850000X-0.850000X0.850000X0*%
%ADD20O,2.106400X2.106400*%
%ADD21RoundRect,0.203200X1.000000X-1.000000X1.000000X1.000000X-1.000000X1.000000X-1.000000X-1.000000X0*%
%ADD22C,2.406400*%
%ADD23RoundRect,0.203200X-0.800000X0.700000X-0.800000X-0.700000X0.800000X-0.700000X0.800000X0.700000X0*%
G04 APERTURE END LIST*
D10*
X90800000Y-61862500D03*
X90800000Y-63737500D03*
X90800000Y-65662500D03*
X90800000Y-67537500D03*
D11*
X111760000Y-104140000D03*
D12*
X106680000Y-104140000D03*
X116840000Y-104140000D03*
D13*
X114300000Y-99060000D03*
X107950000Y-101600000D03*
D12*
X135890000Y-104140000D03*
X125730000Y-104140000D03*
D11*
X130810000Y-104140000D03*
D13*
X133350000Y-99060000D03*
X127000000Y-101600000D03*
D12*
X106680000Y-66040000D03*
D11*
X111760000Y-66040000D03*
D12*
X116840000Y-66040000D03*
D13*
X114300000Y-60960000D03*
X107950000Y-63500000D03*
D12*
X106680000Y-85090000D03*
D11*
X111760000Y-85090000D03*
D12*
X116840000Y-85090000D03*
D13*
X114300000Y-80010000D03*
X107950000Y-82550000D03*
D12*
X135890000Y-85090000D03*
X125730000Y-85090000D03*
D11*
X130810000Y-85090000D03*
D13*
X133350000Y-80010000D03*
X127000000Y-82550000D03*
D12*
X135890000Y-66040000D03*
X125730000Y-66040000D03*
D11*
X130810000Y-66040000D03*
D13*
X133350000Y-60960000D03*
X127000000Y-63500000D03*
D12*
X144780000Y-66040000D03*
X154940000Y-66040000D03*
D11*
X149860000Y-66040000D03*
D13*
X152400000Y-60960000D03*
X146050000Y-63500000D03*
D11*
X149860000Y-123190000D03*
D12*
X144780000Y-123190000D03*
X154940000Y-123190000D03*
D13*
X152400000Y-118110000D03*
X146050000Y-120650000D03*
D14*
X141986000Y-51943000D03*
D15*
X144526000Y-51943000D03*
X147066000Y-51943000D03*
X149606000Y-51943000D03*
X152146000Y-51943000D03*
X154686000Y-51943000D03*
X157226000Y-51943000D03*
X159766000Y-51943000D03*
X159766000Y-41783000D03*
X154686000Y-41783000D03*
D16*
X149606000Y-41783000D03*
X147066000Y-41783000D03*
D15*
X144526000Y-41783000D03*
X141986000Y-41783000D03*
D14*
X101854000Y-51943000D03*
D15*
X104394000Y-51943000D03*
X106934000Y-51943000D03*
X109474000Y-51943000D03*
X112014000Y-51943000D03*
X114554000Y-51943000D03*
X117094000Y-51943000D03*
X119634000Y-51943000D03*
X119634000Y-41783000D03*
X114554000Y-41783000D03*
D16*
X109474000Y-41783000D03*
X106934000Y-41783000D03*
D15*
X104394000Y-41783000D03*
X101854000Y-41783000D03*
D17*
X109385000Y-116190000D03*
D11*
X109385000Y-131430000D03*
D17*
X133185000Y-116190000D03*
D12*
X126365000Y-123190000D03*
D11*
X121285000Y-123190000D03*
D12*
X116205000Y-123190000D03*
D11*
X133185000Y-131430000D03*
D13*
X123825000Y-118110000D03*
X117475000Y-120650000D03*
D14*
X141986000Y-38862000D03*
D15*
X144526000Y-38862000D03*
X147066000Y-38862000D03*
X149606000Y-38862000D03*
X152146000Y-38862000D03*
X154686000Y-38862000D03*
X157226000Y-38862000D03*
X159766000Y-38862000D03*
X159766000Y-28702000D03*
X154686000Y-28702000D03*
D16*
X149606000Y-28702000D03*
X147066000Y-28702000D03*
D15*
X144526000Y-28702000D03*
X141986000Y-28702000D03*
D14*
X101854000Y-38862000D03*
D15*
X104394000Y-38862000D03*
X106934000Y-38862000D03*
X109474000Y-38862000D03*
X112014000Y-38862000D03*
X114554000Y-38862000D03*
X117094000Y-38862000D03*
X119634000Y-38862000D03*
X119634000Y-28702000D03*
X114554000Y-28702000D03*
D16*
X109474000Y-28702000D03*
X106934000Y-28702000D03*
D15*
X104394000Y-28702000D03*
X101854000Y-28702000D03*
D12*
X144780000Y-104140000D03*
X154940000Y-104140000D03*
D11*
X149860000Y-104140000D03*
D13*
X152400000Y-99060000D03*
X146050000Y-101600000D03*
D18*
X177032500Y-36322000D03*
X172967500Y-36322000D03*
X177032500Y-35052000D03*
X172967500Y-35052000D03*
X177032500Y-33782000D03*
X172967500Y-33782000D03*
X177032500Y-32512000D03*
X172967500Y-32512000D03*
X177032500Y-31242000D03*
X172967500Y-31242000D03*
D10*
X90900000Y-58537500D03*
X90900000Y-56662500D03*
D19*
X169910000Y-63500000D03*
D20*
X169910000Y-66040000D03*
X169910000Y-68580000D03*
D11*
X149860000Y-85090000D03*
D12*
X154940000Y-85090000D03*
X144780000Y-85090000D03*
D13*
X152400000Y-80010000D03*
X146050000Y-82550000D03*
D10*
X90805000Y-75020833D03*
X90805000Y-73145833D03*
X90805000Y-78746166D03*
X90805000Y-76871166D03*
X90805000Y-71295500D03*
X90805000Y-69420500D03*
X90883500Y-82471500D03*
X90883500Y-80596500D03*
D11*
X168910000Y-104140000D03*
D12*
X173990000Y-104140000D03*
X163830000Y-104140000D03*
D13*
X171450000Y-99060000D03*
X165100000Y-101600000D03*
D12*
X173990000Y-123190000D03*
X163830000Y-123190000D03*
D11*
X168910000Y-123190000D03*
D13*
X171450000Y-118110000D03*
X165100000Y-120650000D03*
D21*
X94906514Y-132183123D03*
D22*
X94906514Y-87483123D03*
D12*
X173990000Y-85090000D03*
D11*
X168910000Y-85090000D03*
D12*
X163830000Y-85090000D03*
D13*
X171450000Y-80010000D03*
X165100000Y-82550000D03*
D23*
X172550000Y-50863000D03*
X172550000Y-42863000D03*
X177050000Y-50863000D03*
X177050000Y-42863000D03*
G36*
X174464006Y-35596739D02*
G01*
X174463215Y-35598466D01*
X174449178Y-35609067D01*
X174413771Y-35659745D01*
X174414907Y-35721198D01*
X174452968Y-35768796D01*
X174453269Y-35770773D01*
X174451707Y-35772022D01*
X174450295Y-35771708D01*
X174441981Y-35766153D01*
X174364801Y-35750800D01*
X171570199Y-35750800D01*
X171493018Y-35766153D01*
X171474101Y-35778793D01*
X171472105Y-35778924D01*
X171470994Y-35777261D01*
X171471785Y-35775534D01*
X171485822Y-35764933D01*
X171521229Y-35714255D01*
X171520093Y-35652802D01*
X171482032Y-35605204D01*
X171481731Y-35603227D01*
X171483293Y-35601978D01*
X171484705Y-35602292D01*
X171493019Y-35607847D01*
X171570199Y-35623200D01*
X174364801Y-35623200D01*
X174441982Y-35607847D01*
X174460899Y-35595207D01*
X174462895Y-35595076D01*
X174464006Y-35596739D01*
G37*
G36*
X178529006Y-35596739D02*
G01*
X178528215Y-35598466D01*
X178514178Y-35609067D01*
X178478771Y-35659745D01*
X178479907Y-35721198D01*
X178517968Y-35768796D01*
X178518269Y-35770773D01*
X178516707Y-35772022D01*
X178515295Y-35771708D01*
X178506981Y-35766153D01*
X178429801Y-35750800D01*
X175635199Y-35750800D01*
X175558018Y-35766153D01*
X175539101Y-35778793D01*
X175537105Y-35778924D01*
X175535994Y-35777261D01*
X175536785Y-35775534D01*
X175550822Y-35764933D01*
X175586229Y-35714255D01*
X175585093Y-35652802D01*
X175547032Y-35605204D01*
X175546731Y-35603227D01*
X175548293Y-35601978D01*
X175549705Y-35602292D01*
X175558019Y-35607847D01*
X175635199Y-35623200D01*
X178429801Y-35623200D01*
X178506982Y-35607847D01*
X178525899Y-35595207D01*
X178527895Y-35595076D01*
X178529006Y-35596739D01*
G37*
G36*
X174464006Y-34326739D02*
G01*
X174463215Y-34328466D01*
X174449178Y-34339067D01*
X174413771Y-34389745D01*
X174414907Y-34451198D01*
X174452968Y-34498796D01*
X174453269Y-34500773D01*
X174451707Y-34502022D01*
X174450295Y-34501708D01*
X174441981Y-34496153D01*
X174364801Y-34480800D01*
X171570199Y-34480800D01*
X171493018Y-34496153D01*
X171474101Y-34508793D01*
X171472105Y-34508924D01*
X171470994Y-34507261D01*
X171471785Y-34505534D01*
X171485822Y-34494933D01*
X171521229Y-34444255D01*
X171520093Y-34382802D01*
X171482032Y-34335204D01*
X171481731Y-34333227D01*
X171483293Y-34331978D01*
X171484705Y-34332292D01*
X171493019Y-34337847D01*
X171570199Y-34353200D01*
X174364801Y-34353200D01*
X174441982Y-34337847D01*
X174460899Y-34325207D01*
X174462895Y-34325076D01*
X174464006Y-34326739D01*
G37*
G36*
X178529006Y-34326739D02*
G01*
X178528215Y-34328466D01*
X178514178Y-34339067D01*
X178478771Y-34389745D01*
X178479907Y-34451198D01*
X178517968Y-34498796D01*
X178518269Y-34500773D01*
X178516707Y-34502022D01*
X178515295Y-34501708D01*
X178506981Y-34496153D01*
X178429801Y-34480800D01*
X175635199Y-34480800D01*
X175558018Y-34496153D01*
X175539101Y-34508793D01*
X175537105Y-34508924D01*
X175535994Y-34507261D01*
X175536785Y-34505534D01*
X175550822Y-34494933D01*
X175586229Y-34444255D01*
X175585093Y-34382802D01*
X175547032Y-34335204D01*
X175546731Y-34333227D01*
X175548293Y-34331978D01*
X175549705Y-34332292D01*
X175558019Y-34337847D01*
X175635199Y-34353200D01*
X178429801Y-34353200D01*
X178506982Y-34337847D01*
X178525899Y-34325207D01*
X178527895Y-34325076D01*
X178529006Y-34326739D01*
G37*
G36*
X178529006Y-33056739D02*
G01*
X178528215Y-33058466D01*
X178514178Y-33069067D01*
X178478771Y-33119745D01*
X178479907Y-33181198D01*
X178517968Y-33228796D01*
X178518269Y-33230773D01*
X178516707Y-33232022D01*
X178515295Y-33231708D01*
X178506981Y-33226153D01*
X178429801Y-33210800D01*
X175635199Y-33210800D01*
X175558018Y-33226153D01*
X175539101Y-33238793D01*
X175537105Y-33238924D01*
X175535994Y-33237261D01*
X175536785Y-33235534D01*
X175550822Y-33224933D01*
X175586229Y-33174255D01*
X175585093Y-33112802D01*
X175547032Y-33065204D01*
X175546731Y-33063227D01*
X175548293Y-33061978D01*
X175549705Y-33062292D01*
X175558019Y-33067847D01*
X175635199Y-33083200D01*
X178429801Y-33083200D01*
X178506982Y-33067847D01*
X178525899Y-33055207D01*
X178527895Y-33055076D01*
X178529006Y-33056739D01*
G37*
G36*
X174464006Y-33056739D02*
G01*
X174463215Y-33058466D01*
X174449178Y-33069067D01*
X174413771Y-33119745D01*
X174414907Y-33181198D01*
X174452968Y-33228796D01*
X174453269Y-33230773D01*
X174451707Y-33232022D01*
X174450295Y-33231708D01*
X174441981Y-33226153D01*
X174364801Y-33210800D01*
X171570199Y-33210800D01*
X171493018Y-33226153D01*
X171474101Y-33238793D01*
X171472105Y-33238924D01*
X171470994Y-33237261D01*
X171471785Y-33235534D01*
X171485822Y-33224933D01*
X171521229Y-33174255D01*
X171520093Y-33112802D01*
X171482032Y-33065204D01*
X171481731Y-33063227D01*
X171483293Y-33061978D01*
X171484705Y-33062292D01*
X171493019Y-33067847D01*
X171570199Y-33083200D01*
X174364801Y-33083200D01*
X174441982Y-33067847D01*
X174460899Y-33055207D01*
X174462895Y-33055076D01*
X174464006Y-33056739D01*
G37*
G36*
X178529006Y-31786739D02*
G01*
X178528215Y-31788466D01*
X178514178Y-31799067D01*
X178478771Y-31849745D01*
X178479907Y-31911198D01*
X178517968Y-31958796D01*
X178518269Y-31960773D01*
X178516707Y-31962022D01*
X178515295Y-31961708D01*
X178506981Y-31956153D01*
X178429801Y-31940800D01*
X175635199Y-31940800D01*
X175558018Y-31956153D01*
X175539101Y-31968793D01*
X175537105Y-31968924D01*
X175535994Y-31967261D01*
X175536785Y-31965534D01*
X175550822Y-31954933D01*
X175586229Y-31904255D01*
X175585093Y-31842802D01*
X175547032Y-31795204D01*
X175546731Y-31793227D01*
X175548293Y-31791978D01*
X175549705Y-31792292D01*
X175558019Y-31797847D01*
X175635199Y-31813200D01*
X178429801Y-31813200D01*
X178506982Y-31797847D01*
X178525899Y-31785207D01*
X178527895Y-31785076D01*
X178529006Y-31786739D01*
G37*
G36*
X174464006Y-31786739D02*
G01*
X174463215Y-31788466D01*
X174449178Y-31799067D01*
X174413771Y-31849745D01*
X174414907Y-31911198D01*
X174452968Y-31958796D01*
X174453269Y-31960773D01*
X174451707Y-31962022D01*
X174450295Y-31961708D01*
X174441981Y-31956153D01*
X174364801Y-31940800D01*
X171570199Y-31940800D01*
X171493018Y-31956153D01*
X171474101Y-31968793D01*
X171472105Y-31968924D01*
X171470994Y-31967261D01*
X171471785Y-31965534D01*
X171485822Y-31954933D01*
X171521229Y-31904255D01*
X171520093Y-31842802D01*
X171482032Y-31795204D01*
X171481731Y-31793227D01*
X171483293Y-31791978D01*
X171484705Y-31792292D01*
X171493019Y-31797847D01*
X171570199Y-31813200D01*
X174364801Y-31813200D01*
X174441982Y-31797847D01*
X174460899Y-31785207D01*
X174462895Y-31785076D01*
X174464006Y-31786739D01*
G37*
M02*
