G04 #@! TF.GenerationSoftware,KiCad,Pcbnew,(5.99.0-8123-gb2cbd99365)*
G04 #@! TF.CreationDate,2021-02-01T23:00:55-05:00*
G04 #@! TF.ProjectId,unitron,756e6974-726f-46e2-9e6b-696361645f70,1.4*
G04 #@! TF.SameCoordinates,Original*
G04 #@! TF.FileFunction,Paste,Top*
G04 #@! TF.FilePolarity,Positive*
%FSLAX46Y46*%
G04 Gerber Fmt 4.6, Leading zero omitted, Abs format (unit mm)*
G04 Created by KiCad (PCBNEW (5.99.0-8123-gb2cbd99365)) date 2021-02-01 23:00:55*
%MOMM*%
%LPD*%
G01*
G04 APERTURE LIST*
G04 Aperture macros list*
%AMRoundRect*
0 Rectangle with rounded corners*
0 $1 Rounding radius*
0 $2 $3 $4 $5 $6 $7 $8 $9 X,Y pos of 4 corners*
0 Add a 4 corners polygon primitive as box body*
4,1,4,$2,$3,$4,$5,$6,$7,$8,$9,$2,$3,0*
0 Add four circle primitives for the rounded corners*
1,1,$1+$1,$2,$3,0*
1,1,$1+$1,$4,$5,0*
1,1,$1+$1,$6,$7,0*
1,1,$1+$1,$8,$9,0*
0 Add four rect primitives between the rounded corners*
20,1,$1+$1,$2,$3,$4,$5,0*
20,1,$1+$1,$4,$5,$6,$7,0*
20,1,$1+$1,$6,$7,$8,$9,0*
20,1,$1+$1,$8,$9,$2,$3,0*%
G04 Aperture macros list end*
%ADD10R,0.500000X1.000000*%
%ADD11R,0.800000X0.500000*%
%ADD12R,0.800000X0.300000*%
%ADD13R,0.500000X1.480000*%
%ADD14RoundRect,0.243750X0.243750X0.456250X-0.243750X0.456250X-0.243750X-0.456250X0.243750X-0.456250X0*%
G04 APERTURE END LIST*
D10*
X201400000Y-25586000D03*
D11*
X200550000Y-25516000D03*
D12*
X200550000Y-26416000D03*
D11*
X200550000Y-27316000D03*
X202250000Y-27316000D03*
D12*
X202250000Y-26416000D03*
D13*
X201400000Y-27006000D03*
D11*
X202250000Y-25516000D03*
D10*
X172700000Y-25586000D03*
D11*
X171850000Y-25516000D03*
D12*
X171850000Y-26416000D03*
D11*
X171850000Y-27316000D03*
X173550000Y-27316000D03*
D12*
X173550000Y-26416000D03*
D13*
X172700000Y-27006000D03*
D11*
X173550000Y-25516000D03*
X200550000Y-21706000D03*
D10*
X201400000Y-21776000D03*
D12*
X200550000Y-22606000D03*
D11*
X200550000Y-23506000D03*
X202250000Y-23506000D03*
D12*
X202250000Y-22606000D03*
D11*
X202250000Y-21706000D03*
D13*
X201400000Y-23196000D03*
D10*
X187050000Y-21776000D03*
D11*
X186200000Y-21706000D03*
D12*
X186200000Y-22606000D03*
D11*
X186200000Y-23506000D03*
X187900000Y-23506000D03*
D12*
X187900000Y-22606000D03*
D13*
X187050000Y-23196000D03*
D11*
X187900000Y-21706000D03*
X157500000Y-21706000D03*
D10*
X158350000Y-21776000D03*
D12*
X157500000Y-22606000D03*
D11*
X157500000Y-23506000D03*
X159200000Y-23506000D03*
D12*
X159200000Y-22606000D03*
D11*
X159200000Y-21706000D03*
D13*
X158350000Y-23196000D03*
D11*
X186200000Y-25516000D03*
D10*
X187050000Y-25586000D03*
D12*
X186200000Y-26416000D03*
D11*
X186200000Y-27316000D03*
X187900000Y-27316000D03*
D12*
X187900000Y-26416000D03*
D11*
X187900000Y-25516000D03*
D13*
X187050000Y-27006000D03*
D10*
X144000000Y-25586000D03*
D11*
X143150000Y-25516000D03*
D12*
X143150000Y-26416000D03*
D11*
X143150000Y-27316000D03*
X144850000Y-27316000D03*
D12*
X144850000Y-26416000D03*
D11*
X144850000Y-25516000D03*
D13*
X144000000Y-27006000D03*
D11*
X214900000Y-25516000D03*
D10*
X215750000Y-25586000D03*
D12*
X214900000Y-26416000D03*
D11*
X214900000Y-27316000D03*
X216600000Y-27316000D03*
D12*
X216600000Y-26416000D03*
D13*
X215750000Y-27006000D03*
D11*
X216600000Y-25516000D03*
D10*
X158350000Y-25586000D03*
D11*
X157500000Y-25516000D03*
D12*
X157500000Y-26416000D03*
D11*
X157500000Y-27316000D03*
X159200000Y-27316000D03*
D12*
X159200000Y-26416000D03*
D13*
X158350000Y-27006000D03*
D11*
X159200000Y-25516000D03*
X171850000Y-21706000D03*
D10*
X172700000Y-21776000D03*
D12*
X171850000Y-22606000D03*
D11*
X171850000Y-23506000D03*
X173550000Y-23506000D03*
D12*
X173550000Y-22606000D03*
D11*
X173550000Y-21706000D03*
D13*
X172700000Y-23196000D03*
D10*
X144000000Y-21776000D03*
D11*
X143150000Y-21706000D03*
D12*
X143150000Y-22606000D03*
D11*
X143150000Y-23506000D03*
X144850000Y-23506000D03*
D12*
X144850000Y-22606000D03*
D11*
X144850000Y-21706000D03*
D13*
X144000000Y-23196000D03*
D10*
X215750000Y-21776000D03*
D11*
X214900000Y-21706000D03*
D12*
X214900000Y-22606000D03*
D11*
X214900000Y-23506000D03*
X216600000Y-23506000D03*
D12*
X216600000Y-22606000D03*
D11*
X216600000Y-21706000D03*
D13*
X215750000Y-23196000D03*
D14*
X206423500Y-92837000D03*
X204548500Y-92837000D03*
M02*
