G04 #@! TF.GenerationSoftware,KiCad,Pcbnew,(5.99.0-9142-g8663153ef8)*
G04 #@! TF.CreationDate,2021-03-08T23:27:10-05:00*
G04 #@! TF.ProjectId,unitron,756e6974-726f-46e2-9e6b-696361645f70,1.6*
G04 #@! TF.SameCoordinates,Original*
G04 #@! TF.FileFunction,Legend,Bot*
G04 #@! TF.FilePolarity,Positive*
%FSLAX46Y46*%
G04 Gerber Fmt 4.6, Leading zero omitted, Abs format (unit mm)*
G04 Created by KiCad (PCBNEW (5.99.0-9142-g8663153ef8)) date 2021-03-08 23:27:10*
%MOMM*%
%LPD*%
G01*
G04 APERTURE LIST*
%ADD10C,0.150000*%
%ADD11C,0.120000*%
G04 APERTURE END LIST*
D10*
X141760533Y-28023186D02*
X141760533Y-28737472D01*
X141808152Y-28880329D01*
X141903390Y-28975567D01*
X142046247Y-29023186D01*
X142141485Y-29023186D01*
X141379580Y-28023186D02*
X140760533Y-28023186D01*
X141093866Y-28404139D01*
X140951009Y-28404139D01*
X140855771Y-28451758D01*
X140808152Y-28499377D01*
X140760533Y-28594615D01*
X140760533Y-28832710D01*
X140808152Y-28927948D01*
X140855771Y-28975567D01*
X140951009Y-29023186D01*
X141236723Y-29023186D01*
X141331961Y-28975567D01*
X141379580Y-28927948D01*
X67084533Y-28023186D02*
X67084533Y-28737472D01*
X67132152Y-28880329D01*
X67227390Y-28975567D01*
X67370247Y-29023186D01*
X67465485Y-29023186D01*
X66084533Y-29023186D02*
X66655961Y-29023186D01*
X66370247Y-29023186D02*
X66370247Y-28023186D01*
X66465485Y-28166044D01*
X66560723Y-28261282D01*
X66655961Y-28308901D01*
X112599766Y-43653397D02*
X112933100Y-43177207D01*
X113171195Y-43653397D02*
X113171195Y-42653397D01*
X112790242Y-42653397D01*
X112695004Y-42701017D01*
X112647385Y-42748636D01*
X112599766Y-42843874D01*
X112599766Y-42986731D01*
X112647385Y-43081969D01*
X112695004Y-43129588D01*
X112790242Y-43177207D01*
X113171195Y-43177207D01*
X111742623Y-42986731D02*
X111742623Y-43653397D01*
X111980719Y-42605778D02*
X112218814Y-43320064D01*
X111599766Y-43320064D01*
X110310966Y-42704397D02*
X110644300Y-42228207D01*
X110882395Y-42704397D02*
X110882395Y-41704397D01*
X110501442Y-41704397D01*
X110406204Y-41752017D01*
X110358585Y-41799636D01*
X110310966Y-41894874D01*
X110310966Y-42037731D01*
X110358585Y-42132969D01*
X110406204Y-42180588D01*
X110501442Y-42228207D01*
X110882395Y-42228207D01*
X109453823Y-41704397D02*
X109644300Y-41704397D01*
X109739538Y-41752017D01*
X109787157Y-41799636D01*
X109882395Y-41942493D01*
X109930014Y-42132969D01*
X109930014Y-42513921D01*
X109882395Y-42609159D01*
X109834776Y-42656778D01*
X109739538Y-42704397D01*
X109549061Y-42704397D01*
X109453823Y-42656778D01*
X109406204Y-42609159D01*
X109358585Y-42513921D01*
X109358585Y-42275826D01*
X109406204Y-42180588D01*
X109453823Y-42132969D01*
X109549061Y-42085350D01*
X109739538Y-42085350D01*
X109834776Y-42132969D01*
X109882395Y-42180588D01*
X109930014Y-42275826D01*
X104217766Y-46472797D02*
X104551100Y-45996607D01*
X104789195Y-46472797D02*
X104789195Y-45472797D01*
X104408242Y-45472797D01*
X104313004Y-45520417D01*
X104265385Y-45568036D01*
X104217766Y-45663274D01*
X104217766Y-45806131D01*
X104265385Y-45901369D01*
X104313004Y-45948988D01*
X104408242Y-45996607D01*
X104789195Y-45996607D01*
X103313004Y-45472797D02*
X103789195Y-45472797D01*
X103836814Y-45948988D01*
X103789195Y-45901369D01*
X103693957Y-45853750D01*
X103455861Y-45853750D01*
X103360623Y-45901369D01*
X103313004Y-45948988D01*
X103265385Y-46044226D01*
X103265385Y-46282321D01*
X103313004Y-46377559D01*
X103360623Y-46425178D01*
X103455861Y-46472797D01*
X103693957Y-46472797D01*
X103789195Y-46425178D01*
X103836814Y-46377559D01*
X98456680Y-27580112D02*
X99266204Y-27580112D01*
X99361442Y-27627731D01*
X99409061Y-27675350D01*
X99456680Y-27770588D01*
X99456680Y-27961064D01*
X99409061Y-28056302D01*
X99361442Y-28103921D01*
X99266204Y-28151540D01*
X98456680Y-28151540D01*
X99456680Y-28675350D02*
X99456680Y-28865826D01*
X99409061Y-28961064D01*
X99361442Y-29008683D01*
X99218585Y-29103921D01*
X99028109Y-29151540D01*
X98647157Y-29151540D01*
X98551919Y-29103921D01*
X98504300Y-29056302D01*
X98456680Y-28961064D01*
X98456680Y-28770588D01*
X98504300Y-28675350D01*
X98551919Y-28627731D01*
X98647157Y-28580112D01*
X98885252Y-28580112D01*
X98980490Y-28627731D01*
X99028109Y-28675350D01*
X99075728Y-28770588D01*
X99075728Y-28961064D01*
X99028109Y-29056302D01*
X98980490Y-29103921D01*
X98885252Y-29151540D01*
X110887157Y-29804397D02*
X111220490Y-29328207D01*
X111458585Y-29804397D02*
X111458585Y-28804397D01*
X111077633Y-28804397D01*
X110982395Y-28852017D01*
X110934776Y-28899636D01*
X110887157Y-28994874D01*
X110887157Y-29137731D01*
X110934776Y-29232969D01*
X110982395Y-29280588D01*
X111077633Y-29328207D01*
X111458585Y-29328207D01*
X109934776Y-29804397D02*
X110506204Y-29804397D01*
X110220490Y-29804397D02*
X110220490Y-28804397D01*
X110315728Y-28947255D01*
X110410966Y-29042493D01*
X110506204Y-29090112D01*
X109077633Y-29137731D02*
X109077633Y-29804397D01*
X109315728Y-28756778D02*
X109553823Y-29471064D01*
X108934776Y-29471064D01*
X104135157Y-33874397D02*
X104468490Y-33398207D01*
X104706585Y-33874397D02*
X104706585Y-32874397D01*
X104325633Y-32874397D01*
X104230395Y-32922017D01*
X104182776Y-32969636D01*
X104135157Y-33064874D01*
X104135157Y-33207731D01*
X104182776Y-33302969D01*
X104230395Y-33350588D01*
X104325633Y-33398207D01*
X104706585Y-33398207D01*
X103182776Y-33874397D02*
X103754204Y-33874397D01*
X103468490Y-33874397D02*
X103468490Y-32874397D01*
X103563728Y-33017255D01*
X103658966Y-33112493D01*
X103754204Y-33160112D01*
X102849442Y-32874397D02*
X102230395Y-32874397D01*
X102563728Y-33255350D01*
X102420871Y-33255350D01*
X102325633Y-33302969D01*
X102278014Y-33350588D01*
X102230395Y-33445826D01*
X102230395Y-33683921D01*
X102278014Y-33779159D01*
X102325633Y-33826778D01*
X102420871Y-33874397D01*
X102706585Y-33874397D01*
X102801823Y-33826778D01*
X102849442Y-33779159D01*
X98456680Y-40280112D02*
X99266204Y-40280112D01*
X99361442Y-40327731D01*
X99409061Y-40375350D01*
X99456680Y-40470588D01*
X99456680Y-40661064D01*
X99409061Y-40756302D01*
X99361442Y-40803921D01*
X99266204Y-40851540D01*
X98456680Y-40851540D01*
X98790014Y-41756302D02*
X99456680Y-41756302D01*
X98409061Y-41518207D02*
X99123347Y-41280112D01*
X99123347Y-41899159D01*
X113406157Y-30953397D02*
X113739490Y-30477207D01*
X113977585Y-30953397D02*
X113977585Y-29953397D01*
X113596633Y-29953397D01*
X113501395Y-30001017D01*
X113453776Y-30048636D01*
X113406157Y-30143874D01*
X113406157Y-30286731D01*
X113453776Y-30381969D01*
X113501395Y-30429588D01*
X113596633Y-30477207D01*
X113977585Y-30477207D01*
X112453776Y-30953397D02*
X113025204Y-30953397D01*
X112739490Y-30953397D02*
X112739490Y-29953397D01*
X112834728Y-30096255D01*
X112929966Y-30191493D01*
X113025204Y-30239112D01*
X112072823Y-30048636D02*
X112025204Y-30001017D01*
X111929966Y-29953397D01*
X111691871Y-29953397D01*
X111596633Y-30001017D01*
X111549014Y-30048636D01*
X111501395Y-30143874D01*
X111501395Y-30239112D01*
X111549014Y-30381969D01*
X112120442Y-30953397D01*
X111501395Y-30953397D01*
X114573580Y-83761342D02*
X114097390Y-83428009D01*
X114573580Y-83189914D02*
X113573580Y-83189914D01*
X113573580Y-83570866D01*
X113621200Y-83666104D01*
X113668819Y-83713723D01*
X113764057Y-83761342D01*
X113906914Y-83761342D01*
X114002152Y-83713723D01*
X114049771Y-83666104D01*
X114097390Y-83570866D01*
X114097390Y-83189914D01*
X114573580Y-84713723D02*
X114573580Y-84142295D01*
X114573580Y-84428009D02*
X113573580Y-84428009D01*
X113716438Y-84332771D01*
X113811676Y-84237533D01*
X113859295Y-84142295D01*
X113573580Y-85618485D02*
X113573580Y-85142295D01*
X114049771Y-85094676D01*
X114002152Y-85142295D01*
X113954533Y-85237533D01*
X113954533Y-85475628D01*
X114002152Y-85570866D01*
X114049771Y-85618485D01*
X114145009Y-85666104D01*
X114383104Y-85666104D01*
X114478342Y-85618485D01*
X114525961Y-85570866D01*
X114573580Y-85475628D01*
X114573580Y-85237533D01*
X114525961Y-85142295D01*
X114478342Y-85094676D01*
X134519966Y-86126580D02*
X134853300Y-85650390D01*
X135091395Y-86126580D02*
X135091395Y-85126580D01*
X134710442Y-85126580D01*
X134615204Y-85174200D01*
X134567585Y-85221819D01*
X134519966Y-85317057D01*
X134519966Y-85459914D01*
X134567585Y-85555152D01*
X134615204Y-85602771D01*
X134710442Y-85650390D01*
X135091395Y-85650390D01*
X133567585Y-86126580D02*
X134139014Y-86126580D01*
X133853300Y-86126580D02*
X133853300Y-85126580D01*
X133948538Y-85269438D01*
X134043776Y-85364676D01*
X134139014Y-85412295D01*
X97054966Y-95361780D02*
X97388300Y-94885590D01*
X97626395Y-95361780D02*
X97626395Y-94361780D01*
X97245442Y-94361780D01*
X97150204Y-94409400D01*
X97102585Y-94457019D01*
X97054966Y-94552257D01*
X97054966Y-94695114D01*
X97102585Y-94790352D01*
X97150204Y-94837971D01*
X97245442Y-94885590D01*
X97626395Y-94885590D01*
X96578776Y-95361780D02*
X96388300Y-95361780D01*
X96293061Y-95314161D01*
X96245442Y-95266542D01*
X96150204Y-95123685D01*
X96102585Y-94933209D01*
X96102585Y-94552257D01*
X96150204Y-94457019D01*
X96197823Y-94409400D01*
X96293061Y-94361780D01*
X96483538Y-94361780D01*
X96578776Y-94409400D01*
X96626395Y-94457019D01*
X96674014Y-94552257D01*
X96674014Y-94790352D01*
X96626395Y-94885590D01*
X96578776Y-94933209D01*
X96483538Y-94980828D01*
X96293061Y-94980828D01*
X96197823Y-94933209D01*
X96150204Y-94885590D01*
X96102585Y-94790352D01*
X128395295Y-117522961D02*
X128252438Y-117570580D01*
X128014342Y-117570580D01*
X127919104Y-117522961D01*
X127871485Y-117475342D01*
X127823866Y-117380104D01*
X127823866Y-117284866D01*
X127871485Y-117189628D01*
X127919104Y-117142009D01*
X128014342Y-117094390D01*
X128204819Y-117046771D01*
X128300057Y-116999152D01*
X128347676Y-116951533D01*
X128395295Y-116856295D01*
X128395295Y-116761057D01*
X128347676Y-116665819D01*
X128300057Y-116618200D01*
X128204819Y-116570580D01*
X127966723Y-116570580D01*
X127823866Y-116618200D01*
X126871485Y-117570580D02*
X127442914Y-117570580D01*
X127157200Y-117570580D02*
X127157200Y-116570580D01*
X127252438Y-116713438D01*
X127347676Y-116808676D01*
X127442914Y-116856295D01*
X126014342Y-116570580D02*
X126204819Y-116570580D01*
X126300057Y-116618200D01*
X126347676Y-116665819D01*
X126442914Y-116808676D01*
X126490533Y-116999152D01*
X126490533Y-117380104D01*
X126442914Y-117475342D01*
X126395295Y-117522961D01*
X126300057Y-117570580D01*
X126109580Y-117570580D01*
X126014342Y-117522961D01*
X125966723Y-117475342D01*
X125919104Y-117380104D01*
X125919104Y-117142009D01*
X125966723Y-117046771D01*
X126014342Y-116999152D01*
X126109580Y-116951533D01*
X126300057Y-116951533D01*
X126395295Y-116999152D01*
X126442914Y-117046771D01*
X126490533Y-117142009D01*
X120803966Y-83002380D02*
X121137300Y-82526190D01*
X121375395Y-83002380D02*
X121375395Y-82002380D01*
X120994442Y-82002380D01*
X120899204Y-82050000D01*
X120851585Y-82097619D01*
X120803966Y-82192857D01*
X120803966Y-82335714D01*
X120851585Y-82430952D01*
X120899204Y-82478571D01*
X120994442Y-82526190D01*
X121375395Y-82526190D01*
X120423014Y-82097619D02*
X120375395Y-82050000D01*
X120280157Y-82002380D01*
X120042061Y-82002380D01*
X119946823Y-82050000D01*
X119899204Y-82097619D01*
X119851585Y-82192857D01*
X119851585Y-82288095D01*
X119899204Y-82430952D01*
X120470633Y-83002380D01*
X119851585Y-83002380D01*
X117374966Y-83002380D02*
X117708300Y-82526190D01*
X117946395Y-83002380D02*
X117946395Y-82002380D01*
X117565442Y-82002380D01*
X117470204Y-82050000D01*
X117422585Y-82097619D01*
X117374966Y-82192857D01*
X117374966Y-82335714D01*
X117422585Y-82430952D01*
X117470204Y-82478571D01*
X117565442Y-82526190D01*
X117946395Y-82526190D01*
X117041633Y-82002380D02*
X116422585Y-82002380D01*
X116755919Y-82383333D01*
X116613061Y-82383333D01*
X116517823Y-82430952D01*
X116470204Y-82478571D01*
X116422585Y-82573809D01*
X116422585Y-82811904D01*
X116470204Y-82907142D01*
X116517823Y-82954761D01*
X116613061Y-83002380D01*
X116898776Y-83002380D01*
X116994014Y-82954761D01*
X117041633Y-82907142D01*
X125813185Y-92654380D02*
X125813185Y-91654380D01*
X125575090Y-91654380D01*
X125432233Y-91702000D01*
X125336995Y-91797238D01*
X125289376Y-91892476D01*
X125241757Y-92082952D01*
X125241757Y-92225809D01*
X125289376Y-92416285D01*
X125336995Y-92511523D01*
X125432233Y-92606761D01*
X125575090Y-92654380D01*
X125813185Y-92654380D01*
X124289376Y-92654380D02*
X124860804Y-92654380D01*
X124575090Y-92654380D02*
X124575090Y-91654380D01*
X124670328Y-91797238D01*
X124765566Y-91892476D01*
X124860804Y-91940095D01*
X123336995Y-92654380D02*
X123908423Y-92654380D01*
X123622709Y-92654380D02*
X123622709Y-91654380D01*
X123717947Y-91797238D01*
X123813185Y-91892476D01*
X123908423Y-91940095D01*
X132551442Y-89317533D02*
X132599061Y-89269914D01*
X132646680Y-89127057D01*
X132646680Y-89031819D01*
X132599061Y-88888961D01*
X132503823Y-88793723D01*
X132408585Y-88746104D01*
X132218109Y-88698485D01*
X132075252Y-88698485D01*
X131884776Y-88746104D01*
X131789538Y-88793723D01*
X131694300Y-88888961D01*
X131646680Y-89031819D01*
X131646680Y-89127057D01*
X131694300Y-89269914D01*
X131741919Y-89317533D01*
X132646680Y-90269914D02*
X132646680Y-89698485D01*
X132646680Y-89984200D02*
X131646680Y-89984200D01*
X131789538Y-89888961D01*
X131884776Y-89793723D01*
X131932395Y-89698485D01*
X115762066Y-88342742D02*
X115809685Y-88390361D01*
X115952542Y-88437980D01*
X116047780Y-88437980D01*
X116190638Y-88390361D01*
X116285876Y-88295123D01*
X116333495Y-88199885D01*
X116381114Y-88009409D01*
X116381114Y-87866552D01*
X116333495Y-87676076D01*
X116285876Y-87580838D01*
X116190638Y-87485600D01*
X116047780Y-87437980D01*
X115952542Y-87437980D01*
X115809685Y-87485600D01*
X115762066Y-87533219D01*
X115428733Y-87437980D02*
X114809685Y-87437980D01*
X115143019Y-87818933D01*
X115000161Y-87818933D01*
X114904923Y-87866552D01*
X114857304Y-87914171D01*
X114809685Y-88009409D01*
X114809685Y-88247504D01*
X114857304Y-88342742D01*
X114904923Y-88390361D01*
X115000161Y-88437980D01*
X115285876Y-88437980D01*
X115381114Y-88390361D01*
X115428733Y-88342742D01*
X113236966Y-93155642D02*
X113284585Y-93203261D01*
X113427442Y-93250880D01*
X113522680Y-93250880D01*
X113665538Y-93203261D01*
X113760776Y-93108023D01*
X113808395Y-93012785D01*
X113856014Y-92822309D01*
X113856014Y-92679452D01*
X113808395Y-92488976D01*
X113760776Y-92393738D01*
X113665538Y-92298500D01*
X113522680Y-92250880D01*
X113427442Y-92250880D01*
X113284585Y-92298500D01*
X113236966Y-92346119D01*
X112856014Y-92346119D02*
X112808395Y-92298500D01*
X112713157Y-92250880D01*
X112475061Y-92250880D01*
X112379823Y-92298500D01*
X112332204Y-92346119D01*
X112284585Y-92441357D01*
X112284585Y-92536595D01*
X112332204Y-92679452D01*
X112903633Y-93250880D01*
X112284585Y-93250880D01*
X132527919Y-92360761D02*
X132480300Y-92265523D01*
X132385061Y-92170285D01*
X132242204Y-92027428D01*
X132194585Y-91932190D01*
X132194585Y-91836952D01*
X132432680Y-91884571D02*
X132385061Y-91789333D01*
X132289823Y-91694095D01*
X132099347Y-91646476D01*
X131766014Y-91646476D01*
X131575538Y-91694095D01*
X131480300Y-91789333D01*
X131432680Y-91884571D01*
X131432680Y-92075047D01*
X131480300Y-92170285D01*
X131575538Y-92265523D01*
X131766014Y-92313142D01*
X132099347Y-92313142D01*
X132289823Y-92265523D01*
X132385061Y-92170285D01*
X132432680Y-92075047D01*
X132432680Y-91884571D01*
X132432680Y-93265523D02*
X132432680Y-92694095D01*
X132432680Y-92979809D02*
X131432680Y-92979809D01*
X131575538Y-92884571D01*
X131670776Y-92789333D01*
X131718395Y-92694095D01*
X124161538Y-82843619D02*
X124256776Y-82796000D01*
X124352014Y-82700761D01*
X124494871Y-82557904D01*
X124590109Y-82510285D01*
X124685347Y-82510285D01*
X124637728Y-82748380D02*
X124732966Y-82700761D01*
X124828204Y-82605523D01*
X124875823Y-82415047D01*
X124875823Y-82081714D01*
X124828204Y-81891238D01*
X124732966Y-81796000D01*
X124637728Y-81748380D01*
X124447252Y-81748380D01*
X124352014Y-81796000D01*
X124256776Y-81891238D01*
X124209157Y-82081714D01*
X124209157Y-82415047D01*
X124256776Y-82605523D01*
X124352014Y-82700761D01*
X124447252Y-82748380D01*
X124637728Y-82748380D01*
X123828204Y-81843619D02*
X123780585Y-81796000D01*
X123685347Y-81748380D01*
X123447252Y-81748380D01*
X123352014Y-81796000D01*
X123304395Y-81843619D01*
X123256776Y-81938857D01*
X123256776Y-82034095D01*
X123304395Y-82176952D01*
X123875823Y-82748380D01*
X123256776Y-82748380D01*
X108770680Y-80129142D02*
X108294490Y-79795809D01*
X108770680Y-79557714D02*
X107770680Y-79557714D01*
X107770680Y-79938666D01*
X107818300Y-80033904D01*
X107865919Y-80081523D01*
X107961157Y-80129142D01*
X108104014Y-80129142D01*
X108199252Y-80081523D01*
X108246871Y-80033904D01*
X108294490Y-79938666D01*
X108294490Y-79557714D01*
X108770680Y-81081523D02*
X108770680Y-80510095D01*
X108770680Y-80795809D02*
X107770680Y-80795809D01*
X107913538Y-80700571D01*
X108008776Y-80605333D01*
X108056395Y-80510095D01*
X108770680Y-82033904D02*
X108770680Y-81462476D01*
X108770680Y-81748190D02*
X107770680Y-81748190D01*
X107913538Y-81652952D01*
X108008776Y-81557714D01*
X108056395Y-81462476D01*
X102674680Y-80042542D02*
X102198490Y-79709209D01*
X102674680Y-79471114D02*
X101674680Y-79471114D01*
X101674680Y-79852066D01*
X101722300Y-79947304D01*
X101769919Y-79994923D01*
X101865157Y-80042542D01*
X102008014Y-80042542D01*
X102103252Y-79994923D01*
X102150871Y-79947304D01*
X102198490Y-79852066D01*
X102198490Y-79471114D01*
X102674680Y-80994923D02*
X102674680Y-80423495D01*
X102674680Y-80709209D02*
X101674680Y-80709209D01*
X101817538Y-80613971D01*
X101912776Y-80518733D01*
X101960395Y-80423495D01*
X101674680Y-81613971D02*
X101674680Y-81709209D01*
X101722300Y-81804447D01*
X101769919Y-81852066D01*
X101865157Y-81899685D01*
X102055633Y-81947304D01*
X102293728Y-81947304D01*
X102484204Y-81899685D01*
X102579442Y-81852066D01*
X102627061Y-81804447D01*
X102674680Y-81709209D01*
X102674680Y-81613971D01*
X102627061Y-81518733D01*
X102579442Y-81471114D01*
X102484204Y-81423495D01*
X102293728Y-81375876D01*
X102055633Y-81375876D01*
X101865157Y-81423495D01*
X101769919Y-81471114D01*
X101722300Y-81518733D01*
X101674680Y-81613971D01*
X109756680Y-88051495D02*
X110566204Y-88051495D01*
X110661442Y-88099114D01*
X110709061Y-88146733D01*
X110756680Y-88241971D01*
X110756680Y-88432447D01*
X110709061Y-88527685D01*
X110661442Y-88575304D01*
X110566204Y-88622923D01*
X109756680Y-88622923D01*
X109756680Y-89575304D02*
X109756680Y-89099114D01*
X110232871Y-89051495D01*
X110185252Y-89099114D01*
X110137633Y-89194352D01*
X110137633Y-89432447D01*
X110185252Y-89527685D01*
X110232871Y-89575304D01*
X110328109Y-89622923D01*
X110566204Y-89622923D01*
X110661442Y-89575304D01*
X110709061Y-89527685D01*
X110756680Y-89432447D01*
X110756680Y-89194352D01*
X110709061Y-89099114D01*
X110661442Y-89051495D01*
X119375080Y-90872033D02*
X118898890Y-90538700D01*
X119375080Y-90300604D02*
X118375080Y-90300604D01*
X118375080Y-90681557D01*
X118422700Y-90776795D01*
X118470319Y-90824414D01*
X118565557Y-90872033D01*
X118708414Y-90872033D01*
X118803652Y-90824414D01*
X118851271Y-90776795D01*
X118898890Y-90681557D01*
X118898890Y-90300604D01*
X118803652Y-91443461D02*
X118756033Y-91348223D01*
X118708414Y-91300604D01*
X118613176Y-91252985D01*
X118565557Y-91252985D01*
X118470319Y-91300604D01*
X118422700Y-91348223D01*
X118375080Y-91443461D01*
X118375080Y-91633938D01*
X118422700Y-91729176D01*
X118470319Y-91776795D01*
X118565557Y-91824414D01*
X118613176Y-91824414D01*
X118708414Y-91776795D01*
X118756033Y-91729176D01*
X118803652Y-91633938D01*
X118803652Y-91443461D01*
X118851271Y-91348223D01*
X118898890Y-91300604D01*
X118994128Y-91252985D01*
X119184604Y-91252985D01*
X119279842Y-91300604D01*
X119327461Y-91348223D01*
X119375080Y-91443461D01*
X119375080Y-91633938D01*
X119327461Y-91729176D01*
X119279842Y-91776795D01*
X119184604Y-91824414D01*
X118994128Y-91824414D01*
X118898890Y-91776795D01*
X118851271Y-91729176D01*
X118803652Y-91633938D01*
X130922780Y-95732695D02*
X131732304Y-95732695D01*
X131827542Y-95780314D01*
X131875161Y-95827933D01*
X131922780Y-95923171D01*
X131922780Y-96113647D01*
X131875161Y-96208885D01*
X131827542Y-96256504D01*
X131732304Y-96304123D01*
X130922780Y-96304123D01*
X131922780Y-97304123D02*
X131922780Y-96732695D01*
X131922780Y-97018409D02*
X130922780Y-97018409D01*
X131065638Y-96923171D01*
X131160876Y-96827933D01*
X131208495Y-96732695D01*
X121915080Y-90872033D02*
X121438890Y-90538700D01*
X121915080Y-90300604D02*
X120915080Y-90300604D01*
X120915080Y-90681557D01*
X120962700Y-90776795D01*
X121010319Y-90824414D01*
X121105557Y-90872033D01*
X121248414Y-90872033D01*
X121343652Y-90824414D01*
X121391271Y-90776795D01*
X121438890Y-90681557D01*
X121438890Y-90300604D01*
X120915080Y-91205366D02*
X120915080Y-91872033D01*
X121915080Y-91443461D01*
X121869104Y-76757580D02*
X121869104Y-77567104D01*
X121821485Y-77662342D01*
X121773866Y-77709961D01*
X121678628Y-77757580D01*
X121488152Y-77757580D01*
X121392914Y-77709961D01*
X121345295Y-77662342D01*
X121297676Y-77567104D01*
X121297676Y-76757580D01*
X120392914Y-76757580D02*
X120583390Y-76757580D01*
X120678628Y-76805200D01*
X120726247Y-76852819D01*
X120821485Y-76995676D01*
X120869104Y-77186152D01*
X120869104Y-77567104D01*
X120821485Y-77662342D01*
X120773866Y-77709961D01*
X120678628Y-77757580D01*
X120488152Y-77757580D01*
X120392914Y-77709961D01*
X120345295Y-77662342D01*
X120297676Y-77567104D01*
X120297676Y-77329009D01*
X120345295Y-77233771D01*
X120392914Y-77186152D01*
X120488152Y-77138533D01*
X120678628Y-77138533D01*
X120773866Y-77186152D01*
X120821485Y-77233771D01*
X120869104Y-77329009D01*
D11*
X140097200Y-30680806D02*
X138887200Y-30680806D01*
X142757200Y-55060806D02*
X142757200Y-55730806D01*
X142757200Y-49980806D02*
X142757200Y-53540806D01*
X142757200Y-44900806D02*
X142757200Y-48460806D01*
X142757200Y-39820806D02*
X142757200Y-43380806D01*
X142757200Y-34740806D02*
X142757200Y-38300806D01*
X142757200Y-30010806D02*
X142757200Y-33220806D01*
X142757200Y-55730806D02*
X140097200Y-55730806D01*
X140097200Y-52520806D02*
X140097200Y-55730806D01*
X140097200Y-47440806D02*
X140097200Y-51000806D01*
X140097200Y-42360806D02*
X140097200Y-45920806D01*
X140097200Y-37280806D02*
X140097200Y-40840806D01*
X140097200Y-32200806D02*
X140097200Y-35760806D01*
X140097200Y-30010806D02*
X140097200Y-30680806D01*
X142757200Y-30010806D02*
X140097200Y-30010806D01*
X65421200Y-30680806D02*
X64211200Y-30680806D01*
X68081200Y-55060806D02*
X68081200Y-55730806D01*
X68081200Y-49980806D02*
X68081200Y-53540806D01*
X68081200Y-44900806D02*
X68081200Y-48460806D01*
X68081200Y-39820806D02*
X68081200Y-43380806D01*
X68081200Y-34740806D02*
X68081200Y-38300806D01*
X68081200Y-30010806D02*
X68081200Y-33220806D01*
X68081200Y-55730806D02*
X65421200Y-55730806D01*
X65421200Y-52520806D02*
X65421200Y-55730806D01*
X65421200Y-47440806D02*
X65421200Y-51000806D01*
X65421200Y-42360806D02*
X65421200Y-45920806D01*
X65421200Y-37280806D02*
X65421200Y-40840806D01*
X65421200Y-32200806D02*
X65421200Y-35760806D01*
X65421200Y-30010806D02*
X65421200Y-30680806D01*
X68081200Y-30010806D02*
X65421200Y-30010806D01*
X111672300Y-45355439D02*
X111672300Y-45872595D01*
X113092300Y-45355439D02*
X113092300Y-45872595D01*
X109386300Y-44260939D02*
X109386300Y-44778095D01*
X110806300Y-44260939D02*
X110806300Y-44778095D01*
X107052878Y-46832017D02*
X106535722Y-46832017D01*
X107052878Y-45412017D02*
X106535722Y-45412017D01*
X108729300Y-26487717D02*
X108729300Y-30196317D01*
X99779300Y-24817017D02*
X99779300Y-30200617D01*
X109386300Y-31463939D02*
X109386300Y-31981095D01*
X110806300Y-31463939D02*
X110806300Y-31981095D01*
X106974378Y-34132017D02*
X106457222Y-34132017D01*
X106974378Y-32712017D02*
X106457222Y-32712017D01*
X108729300Y-39187717D02*
X108729300Y-42896317D01*
X99779300Y-37517017D02*
X99779300Y-42900617D01*
X111672300Y-32576939D02*
X111672300Y-33094095D01*
X113092300Y-32576939D02*
X113092300Y-33094095D01*
X113181200Y-84662778D02*
X113181200Y-84145622D01*
X111761200Y-84662778D02*
X111761200Y-84145622D01*
X134221722Y-88035200D02*
X134738878Y-88035200D01*
X134221722Y-86615200D02*
X134738878Y-86615200D01*
X96178300Y-92364822D02*
X96178300Y-92881978D01*
X97598300Y-92364822D02*
X97598300Y-92881978D01*
X124007200Y-114605200D02*
X124257200Y-114605200D01*
X130907200Y-108305200D02*
X130657200Y-108305200D01*
X124007200Y-108305200D02*
X124007200Y-114605200D01*
X128757200Y-108305200D02*
X126157200Y-108305200D01*
X124257200Y-108305200D02*
X124007200Y-108305200D01*
X130657200Y-114605200D02*
X130907200Y-114605200D01*
X130907200Y-114605200D02*
X130907200Y-108305200D01*
X126157200Y-114605200D02*
X128757200Y-114605200D01*
X121347300Y-85221578D02*
X121347300Y-84704422D01*
X119927300Y-85221578D02*
X119927300Y-84704422D01*
X117902300Y-84770422D02*
X117902300Y-85287578D01*
X116482300Y-84770422D02*
X116482300Y-85287578D01*
X126092900Y-89347000D02*
X126092900Y-89997000D01*
X122972900Y-89347000D02*
X122972900Y-87672000D01*
X122972900Y-89347000D02*
X122972900Y-89997000D01*
X126092900Y-89347000D02*
X126092900Y-88697000D01*
X134738878Y-90321200D02*
X134221722Y-90321200D01*
X134738878Y-88901200D02*
X134221722Y-88901200D01*
X113402878Y-88672500D02*
X112885722Y-88672500D01*
X113402878Y-87252500D02*
X112885722Y-87252500D01*
X112885722Y-91720500D02*
X113402878Y-91720500D01*
X112885722Y-90300500D02*
X113402878Y-90300500D01*
X136060300Y-93216000D02*
X135130300Y-93216000D01*
X136060300Y-93216000D02*
X136060300Y-91756000D01*
X132900300Y-93216000D02*
X132900300Y-91056000D01*
X132900300Y-93216000D02*
X133830300Y-93216000D01*
X125191300Y-86609000D02*
X125191300Y-85679000D01*
X125191300Y-83449000D02*
X125191300Y-84379000D01*
X125191300Y-83449000D02*
X123731300Y-83449000D01*
X125191300Y-86609000D02*
X123031300Y-86609000D01*
X106996300Y-80943978D02*
X106996300Y-80426822D01*
X105576300Y-80943978D02*
X105576300Y-80426822D01*
X104710300Y-80943978D02*
X104710300Y-80426822D01*
X103290300Y-80943978D02*
X103290300Y-80426822D01*
D10*
X100629300Y-85188400D02*
X100629300Y-85513400D01*
X100629300Y-92438400D02*
X100629300Y-92113400D01*
X107654300Y-92438400D02*
X107654300Y-93863400D01*
X107879300Y-92438400D02*
X107654300Y-92438400D01*
X107879300Y-85188400D02*
X107554300Y-85188400D01*
X100629300Y-85188400D02*
X100954300Y-85188400D01*
X100629300Y-92438400D02*
X100954300Y-92438400D01*
X107879300Y-85188400D02*
X107879300Y-85513400D01*
X107879300Y-92438400D02*
X107879300Y-92113400D01*
D11*
X118187700Y-94440764D02*
X118187700Y-93986636D01*
X119657700Y-94440764D02*
X119657700Y-93986636D01*
X134442200Y-95036200D02*
X136242200Y-95036200D01*
X134442200Y-98156200D02*
X133642200Y-98156200D01*
X134442200Y-98156200D02*
X135242200Y-98156200D01*
X134442200Y-95036200D02*
X133642200Y-95036200D01*
X120727700Y-93986636D02*
X120727700Y-94440764D01*
X122197700Y-93986636D02*
X122197700Y-94440764D01*
X121107200Y-78145200D02*
X120307200Y-78145200D01*
X121107200Y-81265200D02*
X120307200Y-81265200D01*
X121107200Y-78145200D02*
X122907200Y-78145200D01*
X121107200Y-81265200D02*
X121907200Y-81265200D01*
M02*
