G04 #@! TF.GenerationSoftware,KiCad,Pcbnew,(6.0.4-0)*
G04 #@! TF.CreationDate,2022-03-22T22:29:09-04:00*
G04 #@! TF.ProjectId,unitron,756e6974-726f-46e2-9e6b-696361645f70,1.12*
G04 #@! TF.SameCoordinates,Original*
G04 #@! TF.FileFunction,Legend,Bot*
G04 #@! TF.FilePolarity,Positive*
%FSLAX46Y46*%
G04 Gerber Fmt 4.6, Leading zero omitted, Abs format (unit mm)*
G04 Created by KiCad (PCBNEW (6.0.4-0)) date 2022-03-22 22:29:09*
%MOMM*%
%LPD*%
G01*
G04 APERTURE LIST*
%ADD10C,0.300000*%
%ADD11C,0.150000*%
%ADD12C,0.120000*%
%ADD13C,0.100000*%
G04 APERTURE END LIST*
D10*
X135892857Y-71214285D02*
X133607142Y-71214285D01*
X134750000Y-72357142D02*
X134750000Y-70071428D01*
X107107142Y-56428571D02*
X106750000Y-57428571D01*
X106392857Y-56428571D01*
X105035714Y-57428571D02*
X105892857Y-57428571D01*
X105464285Y-57428571D02*
X105464285Y-55928571D01*
X105607142Y-56142857D01*
X105750000Y-56285714D01*
X105892857Y-56357142D01*
X104392857Y-57285714D02*
X104321428Y-57357142D01*
X104392857Y-57428571D01*
X104464285Y-57357142D01*
X104392857Y-57285714D01*
X104392857Y-57428571D01*
X102892857Y-57428571D02*
X103750000Y-57428571D01*
X103321428Y-57428571D02*
X103321428Y-55928571D01*
X103464285Y-56142857D01*
X103607142Y-56285714D01*
X103750000Y-56357142D01*
X102321428Y-56071428D02*
X102250000Y-56000000D01*
X102107142Y-55928571D01*
X101750000Y-55928571D01*
X101607142Y-56000000D01*
X101535714Y-56071428D01*
X101464285Y-56214285D01*
X101464285Y-56357142D01*
X101535714Y-56571428D01*
X102392857Y-57428571D01*
X101464285Y-57428571D01*
D11*
X132790476Y-41704761D02*
X132647619Y-41752380D01*
X132409523Y-41752380D01*
X132314285Y-41704761D01*
X132266666Y-41657142D01*
X132219047Y-41561904D01*
X132219047Y-41466666D01*
X132266666Y-41371428D01*
X132314285Y-41323809D01*
X132409523Y-41276190D01*
X132600000Y-41228571D01*
X132695238Y-41180952D01*
X132742857Y-41133333D01*
X132790476Y-41038095D01*
X132790476Y-40942857D01*
X132742857Y-40847619D01*
X132695238Y-40800000D01*
X132600000Y-40752380D01*
X132361904Y-40752380D01*
X132219047Y-40800000D01*
X131219047Y-41657142D02*
X131266666Y-41704761D01*
X131409523Y-41752380D01*
X131504761Y-41752380D01*
X131647619Y-41704761D01*
X131742857Y-41609523D01*
X131790476Y-41514285D01*
X131838095Y-41323809D01*
X131838095Y-41180952D01*
X131790476Y-40990476D01*
X131742857Y-40895238D01*
X131647619Y-40800000D01*
X131504761Y-40752380D01*
X131409523Y-40752380D01*
X131266666Y-40800000D01*
X131219047Y-40847619D01*
X130314285Y-41752380D02*
X130790476Y-41752380D01*
X130790476Y-40752380D01*
X137714285Y-38404761D02*
X137571428Y-38452380D01*
X137333333Y-38452380D01*
X137238095Y-38404761D01*
X137190476Y-38357142D01*
X137142857Y-38261904D01*
X137142857Y-38166666D01*
X137190476Y-38071428D01*
X137238095Y-38023809D01*
X137333333Y-37976190D01*
X137523809Y-37928571D01*
X137619047Y-37880952D01*
X137666666Y-37833333D01*
X137714285Y-37738095D01*
X137714285Y-37642857D01*
X137666666Y-37547619D01*
X137619047Y-37500000D01*
X137523809Y-37452380D01*
X137285714Y-37452380D01*
X137142857Y-37500000D01*
X136714285Y-38452380D02*
X136714285Y-37452380D01*
X136476190Y-37452380D01*
X136333333Y-37500000D01*
X136238095Y-37595238D01*
X136190476Y-37690476D01*
X136142857Y-37880952D01*
X136142857Y-38023809D01*
X136190476Y-38214285D01*
X136238095Y-38309523D01*
X136333333Y-38404761D01*
X136476190Y-38452380D01*
X136714285Y-38452380D01*
X135761904Y-38166666D02*
X135285714Y-38166666D01*
X135857142Y-38452380D02*
X135523809Y-37452380D01*
X135190476Y-38452380D01*
X111452380Y-51333333D02*
X110976190Y-51000000D01*
X111452380Y-50761904D02*
X110452380Y-50761904D01*
X110452380Y-51142857D01*
X110500000Y-51238095D01*
X110547619Y-51285714D01*
X110642857Y-51333333D01*
X110785714Y-51333333D01*
X110880952Y-51285714D01*
X110928571Y-51238095D01*
X110976190Y-51142857D01*
X110976190Y-50761904D01*
X111452380Y-52285714D02*
X111452380Y-51714285D01*
X111452380Y-52000000D02*
X110452380Y-52000000D01*
X110595238Y-51904761D01*
X110690476Y-51809523D01*
X110738095Y-51714285D01*
X111416666Y-45952380D02*
X111750000Y-45476190D01*
X111988095Y-45952380D02*
X111988095Y-44952380D01*
X111607142Y-44952380D01*
X111511904Y-45000000D01*
X111464285Y-45047619D01*
X111416666Y-45142857D01*
X111416666Y-45285714D01*
X111464285Y-45380952D01*
X111511904Y-45428571D01*
X111607142Y-45476190D01*
X111988095Y-45476190D01*
X111083333Y-44952380D02*
X110464285Y-44952380D01*
X110797619Y-45333333D01*
X110654761Y-45333333D01*
X110559523Y-45380952D01*
X110511904Y-45428571D01*
X110464285Y-45523809D01*
X110464285Y-45761904D01*
X110511904Y-45857142D01*
X110559523Y-45904761D01*
X110654761Y-45952380D01*
X110940476Y-45952380D01*
X111035714Y-45904761D01*
X111083333Y-45857142D01*
X109702380Y-51333333D02*
X109226190Y-51000000D01*
X109702380Y-50761904D02*
X108702380Y-50761904D01*
X108702380Y-51142857D01*
X108750000Y-51238095D01*
X108797619Y-51285714D01*
X108892857Y-51333333D01*
X109035714Y-51333333D01*
X109130952Y-51285714D01*
X109178571Y-51238095D01*
X109226190Y-51142857D01*
X109226190Y-50761904D01*
X108797619Y-51714285D02*
X108750000Y-51761904D01*
X108702380Y-51857142D01*
X108702380Y-52095238D01*
X108750000Y-52190476D01*
X108797619Y-52238095D01*
X108892857Y-52285714D01*
X108988095Y-52285714D01*
X109130952Y-52238095D01*
X109702380Y-51666666D01*
X109702380Y-52285714D01*
X111392857Y-27602380D02*
X111726190Y-27126190D01*
X111964285Y-27602380D02*
X111964285Y-26602380D01*
X111583333Y-26602380D01*
X111488095Y-26650000D01*
X111440476Y-26697619D01*
X111392857Y-26792857D01*
X111392857Y-26935714D01*
X111440476Y-27030952D01*
X111488095Y-27078571D01*
X111583333Y-27126190D01*
X111964285Y-27126190D01*
X111011904Y-26697619D02*
X110964285Y-26650000D01*
X110869047Y-26602380D01*
X110630952Y-26602380D01*
X110535714Y-26650000D01*
X110488095Y-26697619D01*
X110440476Y-26792857D01*
X110440476Y-26888095D01*
X110488095Y-27030952D01*
X111059523Y-27602380D01*
X110440476Y-27602380D01*
X110107142Y-26602380D02*
X109488095Y-26602380D01*
X109821428Y-26983333D01*
X109678571Y-26983333D01*
X109583333Y-27030952D01*
X109535714Y-27078571D01*
X109488095Y-27173809D01*
X109488095Y-27411904D01*
X109535714Y-27507142D01*
X109583333Y-27554761D01*
X109678571Y-27602380D01*
X109964285Y-27602380D01*
X110059523Y-27554761D01*
X110107142Y-27507142D01*
X109852380Y-35980642D02*
X109376190Y-35647309D01*
X109852380Y-35409214D02*
X108852380Y-35409214D01*
X108852380Y-35790166D01*
X108900000Y-35885404D01*
X108947619Y-35933023D01*
X109042857Y-35980642D01*
X109185714Y-35980642D01*
X109280952Y-35933023D01*
X109328571Y-35885404D01*
X109376190Y-35790166D01*
X109376190Y-35409214D01*
X108947619Y-36361595D02*
X108900000Y-36409214D01*
X108852380Y-36504452D01*
X108852380Y-36742547D01*
X108900000Y-36837785D01*
X108947619Y-36885404D01*
X109042857Y-36933023D01*
X109138095Y-36933023D01*
X109280952Y-36885404D01*
X109852380Y-36313976D01*
X109852380Y-36933023D01*
X108947619Y-37313976D02*
X108900000Y-37361595D01*
X108852380Y-37456833D01*
X108852380Y-37694928D01*
X108900000Y-37790166D01*
X108947619Y-37837785D01*
X109042857Y-37885404D01*
X109138095Y-37885404D01*
X109280952Y-37837785D01*
X109852380Y-37266357D01*
X109852380Y-37885404D01*
X97977780Y-38462695D02*
X98787304Y-38462695D01*
X98882542Y-38510314D01*
X98930161Y-38557933D01*
X98977780Y-38653171D01*
X98977780Y-38843647D01*
X98930161Y-38938885D01*
X98882542Y-38986504D01*
X98787304Y-39034123D01*
X97977780Y-39034123D01*
X97977780Y-39415076D02*
X97977780Y-40034123D01*
X98358733Y-39700790D01*
X98358733Y-39843647D01*
X98406352Y-39938885D01*
X98453971Y-39986504D01*
X98549209Y-40034123D01*
X98787304Y-40034123D01*
X98882542Y-39986504D01*
X98930161Y-39938885D01*
X98977780Y-39843647D01*
X98977780Y-39557933D01*
X98930161Y-39462695D01*
X98882542Y-39415076D01*
X114942857Y-31702380D02*
X115276190Y-31226190D01*
X115514285Y-31702380D02*
X115514285Y-30702380D01*
X115133333Y-30702380D01*
X115038095Y-30750000D01*
X114990476Y-30797619D01*
X114942857Y-30892857D01*
X114942857Y-31035714D01*
X114990476Y-31130952D01*
X115038095Y-31178571D01*
X115133333Y-31226190D01*
X115514285Y-31226190D01*
X114561904Y-30797619D02*
X114514285Y-30750000D01*
X114419047Y-30702380D01*
X114180952Y-30702380D01*
X114085714Y-30750000D01*
X114038095Y-30797619D01*
X113990476Y-30892857D01*
X113990476Y-30988095D01*
X114038095Y-31130952D01*
X114609523Y-31702380D01*
X113990476Y-31702380D01*
X113038095Y-31702380D02*
X113609523Y-31702380D01*
X113323809Y-31702380D02*
X113323809Y-30702380D01*
X113419047Y-30845238D01*
X113514285Y-30940476D01*
X113609523Y-30988095D01*
X115977780Y-71331742D02*
X115501590Y-70998409D01*
X115977780Y-70760314D02*
X114977780Y-70760314D01*
X114977780Y-71141266D01*
X115025400Y-71236504D01*
X115073019Y-71284123D01*
X115168257Y-71331742D01*
X115311114Y-71331742D01*
X115406352Y-71284123D01*
X115453971Y-71236504D01*
X115501590Y-71141266D01*
X115501590Y-70760314D01*
X115977780Y-72284123D02*
X115977780Y-71712695D01*
X115977780Y-71998409D02*
X114977780Y-71998409D01*
X115120638Y-71903171D01*
X115215876Y-71807933D01*
X115263495Y-71712695D01*
X115311114Y-73141266D02*
X115977780Y-73141266D01*
X114930161Y-72903171D02*
X115644447Y-72665076D01*
X115644447Y-73284123D01*
X121642857Y-80452380D02*
X121976190Y-79976190D01*
X122214285Y-80452380D02*
X122214285Y-79452380D01*
X121833333Y-79452380D01*
X121738095Y-79500000D01*
X121690476Y-79547619D01*
X121642857Y-79642857D01*
X121642857Y-79785714D01*
X121690476Y-79880952D01*
X121738095Y-79928571D01*
X121833333Y-79976190D01*
X122214285Y-79976190D01*
X120690476Y-80452380D02*
X121261904Y-80452380D01*
X120976190Y-80452380D02*
X120976190Y-79452380D01*
X121071428Y-79595238D01*
X121166666Y-79690476D01*
X121261904Y-79738095D01*
X120214285Y-80452380D02*
X120023809Y-80452380D01*
X119928571Y-80404761D01*
X119880952Y-80357142D01*
X119785714Y-80214285D01*
X119738095Y-80023809D01*
X119738095Y-79642857D01*
X119785714Y-79547619D01*
X119833333Y-79500000D01*
X119928571Y-79452380D01*
X120119047Y-79452380D01*
X120214285Y-79500000D01*
X120261904Y-79547619D01*
X120309523Y-79642857D01*
X120309523Y-79880952D01*
X120261904Y-79976190D01*
X120214285Y-80023809D01*
X120119047Y-80071428D01*
X119928571Y-80071428D01*
X119833333Y-80023809D01*
X119785714Y-79976190D01*
X119738095Y-79880952D01*
X126587304Y-63826980D02*
X126587304Y-64636504D01*
X126539685Y-64731742D01*
X126492066Y-64779361D01*
X126396828Y-64826980D01*
X126206352Y-64826980D01*
X126111114Y-64779361D01*
X126063495Y-64731742D01*
X126015876Y-64636504D01*
X126015876Y-63826980D01*
X125063495Y-63826980D02*
X125539685Y-63826980D01*
X125587304Y-64303171D01*
X125539685Y-64255552D01*
X125444447Y-64207933D01*
X125206352Y-64207933D01*
X125111114Y-64255552D01*
X125063495Y-64303171D01*
X125015876Y-64398409D01*
X125015876Y-64636504D01*
X125063495Y-64731742D01*
X125111114Y-64779361D01*
X125206352Y-64826980D01*
X125444447Y-64826980D01*
X125539685Y-64779361D01*
X125587304Y-64731742D01*
X71666666Y-31452380D02*
X72000000Y-30976190D01*
X72238095Y-31452380D02*
X72238095Y-30452380D01*
X71857142Y-30452380D01*
X71761904Y-30500000D01*
X71714285Y-30547619D01*
X71666666Y-30642857D01*
X71666666Y-30785714D01*
X71714285Y-30880952D01*
X71761904Y-30928571D01*
X71857142Y-30976190D01*
X72238095Y-30976190D01*
X70809523Y-30785714D02*
X70809523Y-31452380D01*
X71047619Y-30404761D02*
X71285714Y-31119047D01*
X70666666Y-31119047D01*
X74666666Y-45452380D02*
X75000000Y-44976190D01*
X75238095Y-45452380D02*
X75238095Y-44452380D01*
X74857142Y-44452380D01*
X74761904Y-44500000D01*
X74714285Y-44547619D01*
X74666666Y-44642857D01*
X74666666Y-44785714D01*
X74714285Y-44880952D01*
X74761904Y-44928571D01*
X74857142Y-44976190D01*
X75238095Y-44976190D01*
X74190476Y-45452380D02*
X74000000Y-45452380D01*
X73904761Y-45404761D01*
X73857142Y-45357142D01*
X73761904Y-45214285D01*
X73714285Y-45023809D01*
X73714285Y-44642857D01*
X73761904Y-44547619D01*
X73809523Y-44500000D01*
X73904761Y-44452380D01*
X74095238Y-44452380D01*
X74190476Y-44500000D01*
X74238095Y-44547619D01*
X74285714Y-44642857D01*
X74285714Y-44880952D01*
X74238095Y-44976190D01*
X74190476Y-45023809D01*
X74095238Y-45071428D01*
X73904761Y-45071428D01*
X73809523Y-45023809D01*
X73761904Y-44976190D01*
X73714285Y-44880952D01*
X107107142Y-51833333D02*
X107154761Y-51785714D01*
X107202380Y-51642857D01*
X107202380Y-51547619D01*
X107154761Y-51404761D01*
X107059523Y-51309523D01*
X106964285Y-51261904D01*
X106773809Y-51214285D01*
X106630952Y-51214285D01*
X106440476Y-51261904D01*
X106345238Y-51309523D01*
X106250000Y-51404761D01*
X106202380Y-51547619D01*
X106202380Y-51642857D01*
X106250000Y-51785714D01*
X106297619Y-51833333D01*
X106297619Y-52214285D02*
X106250000Y-52261904D01*
X106202380Y-52357142D01*
X106202380Y-52595238D01*
X106250000Y-52690476D01*
X106297619Y-52738095D01*
X106392857Y-52785714D01*
X106488095Y-52785714D01*
X106630952Y-52738095D01*
X107202380Y-52166666D01*
X107202380Y-52785714D01*
X74666666Y-40702380D02*
X75000000Y-40226190D01*
X75238095Y-40702380D02*
X75238095Y-39702380D01*
X74857142Y-39702380D01*
X74761904Y-39750000D01*
X74714285Y-39797619D01*
X74666666Y-39892857D01*
X74666666Y-40035714D01*
X74714285Y-40130952D01*
X74761904Y-40178571D01*
X74857142Y-40226190D01*
X75238095Y-40226190D01*
X73809523Y-39702380D02*
X74000000Y-39702380D01*
X74095238Y-39750000D01*
X74142857Y-39797619D01*
X74238095Y-39940476D01*
X74285714Y-40130952D01*
X74285714Y-40511904D01*
X74238095Y-40607142D01*
X74190476Y-40654761D01*
X74095238Y-40702380D01*
X73904761Y-40702380D01*
X73809523Y-40654761D01*
X73761904Y-40607142D01*
X73714285Y-40511904D01*
X73714285Y-40273809D01*
X73761904Y-40178571D01*
X73809523Y-40130952D01*
X73904761Y-40083333D01*
X74095238Y-40083333D01*
X74190476Y-40130952D01*
X74238095Y-40178571D01*
X74285714Y-40273809D01*
X105107142Y-51833333D02*
X105154761Y-51785714D01*
X105202380Y-51642857D01*
X105202380Y-51547619D01*
X105154761Y-51404761D01*
X105059523Y-51309523D01*
X104964285Y-51261904D01*
X104773809Y-51214285D01*
X104630952Y-51214285D01*
X104440476Y-51261904D01*
X104345238Y-51309523D01*
X104250000Y-51404761D01*
X104202380Y-51547619D01*
X104202380Y-51642857D01*
X104250000Y-51785714D01*
X104297619Y-51833333D01*
X105202380Y-52785714D02*
X105202380Y-52214285D01*
X105202380Y-52500000D02*
X104202380Y-52500000D01*
X104345238Y-52404761D01*
X104440476Y-52309523D01*
X104488095Y-52214285D01*
X142277780Y-67558806D02*
X141801590Y-67225473D01*
X142277780Y-66987378D02*
X141277780Y-66987378D01*
X141277780Y-67368330D01*
X141325400Y-67463568D01*
X141373019Y-67511187D01*
X141468257Y-67558806D01*
X141611114Y-67558806D01*
X141706352Y-67511187D01*
X141753971Y-67463568D01*
X141801590Y-67368330D01*
X141801590Y-66987378D01*
X142277780Y-68511187D02*
X142277780Y-67939759D01*
X142277780Y-68225473D02*
X141277780Y-68225473D01*
X141420638Y-68130235D01*
X141515876Y-68034997D01*
X141563495Y-67939759D01*
X141277780Y-69368330D02*
X141277780Y-69177854D01*
X141325400Y-69082616D01*
X141373019Y-69034997D01*
X141515876Y-68939759D01*
X141706352Y-68892140D01*
X142087304Y-68892140D01*
X142182542Y-68939759D01*
X142230161Y-68987378D01*
X142277780Y-69082616D01*
X142277780Y-69273092D01*
X142230161Y-69368330D01*
X142182542Y-69415949D01*
X142087304Y-69463568D01*
X141849209Y-69463568D01*
X141753971Y-69415949D01*
X141706352Y-69368330D01*
X141658733Y-69273092D01*
X141658733Y-69082616D01*
X141706352Y-68987378D01*
X141753971Y-68939759D01*
X141849209Y-68892140D01*
X113011904Y-40254380D02*
X112440476Y-40254380D01*
X112726190Y-41254380D02*
X112726190Y-40254380D01*
X112107142Y-41254380D02*
X112107142Y-40254380D01*
X111726190Y-40254380D01*
X111630952Y-40302000D01*
X111583333Y-40349619D01*
X111535714Y-40444857D01*
X111535714Y-40587714D01*
X111583333Y-40682952D01*
X111630952Y-40730571D01*
X111726190Y-40778190D01*
X112107142Y-40778190D01*
X110583333Y-41254380D02*
X111154761Y-41254380D01*
X110869047Y-41254380D02*
X110869047Y-40254380D01*
X110964285Y-40397238D01*
X111059523Y-40492476D01*
X111154761Y-40540095D01*
X130477780Y-69357142D02*
X130001590Y-69023809D01*
X130477780Y-68785714D02*
X129477780Y-68785714D01*
X129477780Y-69166666D01*
X129525400Y-69261904D01*
X129573019Y-69309523D01*
X129668257Y-69357142D01*
X129811114Y-69357142D01*
X129906352Y-69309523D01*
X129953971Y-69261904D01*
X130001590Y-69166666D01*
X130001590Y-68785714D01*
X129573019Y-69738095D02*
X129525400Y-69785714D01*
X129477780Y-69880952D01*
X129477780Y-70119047D01*
X129525400Y-70214285D01*
X129573019Y-70261904D01*
X129668257Y-70309523D01*
X129763495Y-70309523D01*
X129906352Y-70261904D01*
X130477780Y-69690476D01*
X130477780Y-70309523D01*
X129477780Y-70928571D02*
X129477780Y-71023809D01*
X129525400Y-71119047D01*
X129573019Y-71166666D01*
X129668257Y-71214285D01*
X129858733Y-71261904D01*
X130096828Y-71261904D01*
X130287304Y-71214285D01*
X130382542Y-71166666D01*
X130430161Y-71119047D01*
X130477780Y-71023809D01*
X130477780Y-70928571D01*
X130430161Y-70833333D01*
X130382542Y-70785714D01*
X130287304Y-70738095D01*
X130096828Y-70690476D01*
X129858733Y-70690476D01*
X129668257Y-70738095D01*
X129573019Y-70785714D01*
X129525400Y-70833333D01*
X129477780Y-70928571D01*
X105011904Y-85702380D02*
X105011904Y-86511904D01*
X104964285Y-86607142D01*
X104916666Y-86654761D01*
X104821428Y-86702380D01*
X104630952Y-86702380D01*
X104535714Y-86654761D01*
X104488095Y-86607142D01*
X104440476Y-86511904D01*
X104440476Y-85702380D01*
X103535714Y-86035714D02*
X103535714Y-86702380D01*
X103773809Y-85654761D02*
X104011904Y-86369047D01*
X103392857Y-86369047D01*
X120702380Y-73357142D02*
X120226190Y-73023809D01*
X120702380Y-72785714D02*
X119702380Y-72785714D01*
X119702380Y-73166666D01*
X119750000Y-73261904D01*
X119797619Y-73309523D01*
X119892857Y-73357142D01*
X120035714Y-73357142D01*
X120130952Y-73309523D01*
X120178571Y-73261904D01*
X120226190Y-73166666D01*
X120226190Y-72785714D01*
X120702380Y-74309523D02*
X120702380Y-73738095D01*
X120702380Y-74023809D02*
X119702380Y-74023809D01*
X119845238Y-73928571D01*
X119940476Y-73833333D01*
X119988095Y-73738095D01*
X119702380Y-74642857D02*
X119702380Y-75309523D01*
X120702380Y-74880952D01*
X74666666Y-42952380D02*
X75000000Y-42476190D01*
X75238095Y-42952380D02*
X75238095Y-41952380D01*
X74857142Y-41952380D01*
X74761904Y-42000000D01*
X74714285Y-42047619D01*
X74666666Y-42142857D01*
X74666666Y-42285714D01*
X74714285Y-42380952D01*
X74761904Y-42428571D01*
X74857142Y-42476190D01*
X75238095Y-42476190D01*
X74095238Y-42380952D02*
X74190476Y-42333333D01*
X74238095Y-42285714D01*
X74285714Y-42190476D01*
X74285714Y-42142857D01*
X74238095Y-42047619D01*
X74190476Y-42000000D01*
X74095238Y-41952380D01*
X73904761Y-41952380D01*
X73809523Y-42000000D01*
X73761904Y-42047619D01*
X73714285Y-42142857D01*
X73714285Y-42190476D01*
X73761904Y-42285714D01*
X73809523Y-42333333D01*
X73904761Y-42380952D01*
X74095238Y-42380952D01*
X74190476Y-42428571D01*
X74238095Y-42476190D01*
X74285714Y-42571428D01*
X74285714Y-42761904D01*
X74238095Y-42857142D01*
X74190476Y-42904761D01*
X74095238Y-42952380D01*
X73904761Y-42952380D01*
X73809523Y-42904761D01*
X73761904Y-42857142D01*
X73714285Y-42761904D01*
X73714285Y-42571428D01*
X73761904Y-42476190D01*
X73809523Y-42428571D01*
X73904761Y-42380952D01*
X104261904Y-35702380D02*
X103690476Y-35702380D01*
X103976190Y-36702380D02*
X103976190Y-35702380D01*
X103357142Y-36702380D02*
X103357142Y-35702380D01*
X102976190Y-35702380D01*
X102880952Y-35750000D01*
X102833333Y-35797619D01*
X102785714Y-35892857D01*
X102785714Y-36035714D01*
X102833333Y-36130952D01*
X102880952Y-36178571D01*
X102976190Y-36226190D01*
X103357142Y-36226190D01*
X102404761Y-35797619D02*
X102357142Y-35750000D01*
X102261904Y-35702380D01*
X102023809Y-35702380D01*
X101928571Y-35750000D01*
X101880952Y-35797619D01*
X101833333Y-35892857D01*
X101833333Y-35988095D01*
X101880952Y-36130952D01*
X102452380Y-36702380D01*
X101833333Y-36702380D01*
X74202380Y-47107142D02*
X73726190Y-46773809D01*
X74202380Y-46535714D02*
X73202380Y-46535714D01*
X73202380Y-46916666D01*
X73250000Y-47011904D01*
X73297619Y-47059523D01*
X73392857Y-47107142D01*
X73535714Y-47107142D01*
X73630952Y-47059523D01*
X73678571Y-47011904D01*
X73726190Y-46916666D01*
X73726190Y-46535714D01*
X74202380Y-48059523D02*
X74202380Y-47488095D01*
X74202380Y-47773809D02*
X73202380Y-47773809D01*
X73345238Y-47678571D01*
X73440476Y-47583333D01*
X73488095Y-47488095D01*
X73202380Y-48678571D02*
X73202380Y-48773809D01*
X73250000Y-48869047D01*
X73297619Y-48916666D01*
X73392857Y-48964285D01*
X73583333Y-49011904D01*
X73821428Y-49011904D01*
X74011904Y-48964285D01*
X74107142Y-48916666D01*
X74154761Y-48869047D01*
X74202380Y-48773809D01*
X74202380Y-48678571D01*
X74154761Y-48583333D01*
X74107142Y-48535714D01*
X74011904Y-48488095D01*
X73821428Y-48440476D01*
X73583333Y-48440476D01*
X73392857Y-48488095D01*
X73297619Y-48535714D01*
X73250000Y-48583333D01*
X73202380Y-48678571D01*
X99511904Y-46952380D02*
X98940476Y-46952380D01*
X99226190Y-47952380D02*
X99226190Y-46952380D01*
X98607142Y-47952380D02*
X98607142Y-46952380D01*
X98226190Y-46952380D01*
X98130952Y-47000000D01*
X98083333Y-47047619D01*
X98035714Y-47142857D01*
X98035714Y-47285714D01*
X98083333Y-47380952D01*
X98130952Y-47428571D01*
X98226190Y-47476190D01*
X98607142Y-47476190D01*
X97702380Y-46952380D02*
X97083333Y-46952380D01*
X97416666Y-47333333D01*
X97273809Y-47333333D01*
X97178571Y-47380952D01*
X97130952Y-47428571D01*
X97083333Y-47523809D01*
X97083333Y-47761904D01*
X97130952Y-47857142D01*
X97178571Y-47904761D01*
X97273809Y-47952380D01*
X97559523Y-47952380D01*
X97654761Y-47904761D01*
X97702380Y-47857142D01*
X74202380Y-34833333D02*
X73726190Y-34500000D01*
X74202380Y-34261904D02*
X73202380Y-34261904D01*
X73202380Y-34642857D01*
X73250000Y-34738095D01*
X73297619Y-34785714D01*
X73392857Y-34833333D01*
X73535714Y-34833333D01*
X73630952Y-34785714D01*
X73678571Y-34738095D01*
X73726190Y-34642857D01*
X73726190Y-34261904D01*
X73202380Y-35738095D02*
X73202380Y-35261904D01*
X73678571Y-35214285D01*
X73630952Y-35261904D01*
X73583333Y-35357142D01*
X73583333Y-35595238D01*
X73630952Y-35690476D01*
X73678571Y-35738095D01*
X73773809Y-35785714D01*
X74011904Y-35785714D01*
X74107142Y-35738095D01*
X74154761Y-35690476D01*
X74202380Y-35595238D01*
X74202380Y-35357142D01*
X74154761Y-35261904D01*
X74107142Y-35214285D01*
X141760533Y-28988553D02*
X141760533Y-29702839D01*
X141808152Y-29845696D01*
X141903390Y-29940934D01*
X142046247Y-29988553D01*
X142141485Y-29988553D01*
X141379580Y-28988553D02*
X140760533Y-28988553D01*
X141093866Y-29369506D01*
X140951009Y-29369506D01*
X140855771Y-29417125D01*
X140808152Y-29464744D01*
X140760533Y-29559982D01*
X140760533Y-29798077D01*
X140808152Y-29893315D01*
X140855771Y-29940934D01*
X140951009Y-29988553D01*
X141236723Y-29988553D01*
X141331961Y-29940934D01*
X141379580Y-29893315D01*
X134438885Y-65477780D02*
X134438885Y-64477780D01*
X134200790Y-64477780D01*
X134057933Y-64525400D01*
X133962695Y-64620638D01*
X133915076Y-64715876D01*
X133867457Y-64906352D01*
X133867457Y-65049209D01*
X133915076Y-65239685D01*
X133962695Y-65334923D01*
X134057933Y-65430161D01*
X134200790Y-65477780D01*
X134438885Y-65477780D01*
X132915076Y-65477780D02*
X133486504Y-65477780D01*
X133200790Y-65477780D02*
X133200790Y-64477780D01*
X133296028Y-64620638D01*
X133391266Y-64715876D01*
X133486504Y-64763495D01*
X131962695Y-65477780D02*
X132534123Y-65477780D01*
X132248409Y-65477780D02*
X132248409Y-64477780D01*
X132343647Y-64620638D01*
X132438885Y-64715876D01*
X132534123Y-64763495D01*
X75142857Y-50952380D02*
X75476190Y-50476190D01*
X75714285Y-50952380D02*
X75714285Y-49952380D01*
X75333333Y-49952380D01*
X75238095Y-50000000D01*
X75190476Y-50047619D01*
X75142857Y-50142857D01*
X75142857Y-50285714D01*
X75190476Y-50380952D01*
X75238095Y-50428571D01*
X75333333Y-50476190D01*
X75714285Y-50476190D01*
X74190476Y-50952380D02*
X74761904Y-50952380D01*
X74476190Y-50952380D02*
X74476190Y-49952380D01*
X74571428Y-50095238D01*
X74666666Y-50190476D01*
X74761904Y-50238095D01*
X73238095Y-50952380D02*
X73809523Y-50952380D01*
X73523809Y-50952380D02*
X73523809Y-49952380D01*
X73619047Y-50095238D01*
X73714285Y-50190476D01*
X73809523Y-50238095D01*
X98427780Y-25712695D02*
X99237304Y-25712695D01*
X99332542Y-25760314D01*
X99380161Y-25807933D01*
X99427780Y-25903171D01*
X99427780Y-26093647D01*
X99380161Y-26188885D01*
X99332542Y-26236504D01*
X99237304Y-26284123D01*
X98427780Y-26284123D01*
X98856352Y-26903171D02*
X98808733Y-26807933D01*
X98761114Y-26760314D01*
X98665876Y-26712695D01*
X98618257Y-26712695D01*
X98523019Y-26760314D01*
X98475400Y-26807933D01*
X98427780Y-26903171D01*
X98427780Y-27093647D01*
X98475400Y-27188885D01*
X98523019Y-27236504D01*
X98618257Y-27284123D01*
X98665876Y-27284123D01*
X98761114Y-27236504D01*
X98808733Y-27188885D01*
X98856352Y-27093647D01*
X98856352Y-26903171D01*
X98903971Y-26807933D01*
X98951590Y-26760314D01*
X99046828Y-26712695D01*
X99237304Y-26712695D01*
X99332542Y-26760314D01*
X99380161Y-26807933D01*
X99427780Y-26903171D01*
X99427780Y-27093647D01*
X99380161Y-27188885D01*
X99332542Y-27236504D01*
X99237304Y-27284123D01*
X99046828Y-27284123D01*
X98951590Y-27236504D01*
X98903971Y-27188885D01*
X98856352Y-27093647D01*
X116827780Y-67331742D02*
X116351590Y-66998409D01*
X116827780Y-66760314D02*
X115827780Y-66760314D01*
X115827780Y-67141266D01*
X115875400Y-67236504D01*
X115923019Y-67284123D01*
X116018257Y-67331742D01*
X116161114Y-67331742D01*
X116256352Y-67284123D01*
X116303971Y-67236504D01*
X116351590Y-67141266D01*
X116351590Y-66760314D01*
X116827780Y-68284123D02*
X116827780Y-67712695D01*
X116827780Y-67998409D02*
X115827780Y-67998409D01*
X115970638Y-67903171D01*
X116065876Y-67807933D01*
X116113495Y-67712695D01*
X115923019Y-68665076D02*
X115875400Y-68712695D01*
X115827780Y-68807933D01*
X115827780Y-69046028D01*
X115875400Y-69141266D01*
X115923019Y-69188885D01*
X116018257Y-69236504D01*
X116113495Y-69236504D01*
X116256352Y-69188885D01*
X116827780Y-68617457D01*
X116827780Y-69236504D01*
X123202380Y-73357142D02*
X122726190Y-73023809D01*
X123202380Y-72785714D02*
X122202380Y-72785714D01*
X122202380Y-73166666D01*
X122250000Y-73261904D01*
X122297619Y-73309523D01*
X122392857Y-73357142D01*
X122535714Y-73357142D01*
X122630952Y-73309523D01*
X122678571Y-73261904D01*
X122726190Y-73166666D01*
X122726190Y-72785714D01*
X123202380Y-74309523D02*
X123202380Y-73738095D01*
X123202380Y-74023809D02*
X122202380Y-74023809D01*
X122345238Y-73928571D01*
X122440476Y-73833333D01*
X122488095Y-73738095D01*
X122202380Y-75214285D02*
X122202380Y-74738095D01*
X122678571Y-74690476D01*
X122630952Y-74738095D01*
X122583333Y-74833333D01*
X122583333Y-75071428D01*
X122630952Y-75166666D01*
X122678571Y-75214285D01*
X122773809Y-75261904D01*
X123011904Y-75261904D01*
X123107142Y-75214285D01*
X123154761Y-75166666D01*
X123202380Y-75071428D01*
X123202380Y-74833333D01*
X123154761Y-74738095D01*
X123107142Y-74690476D01*
X67084533Y-28988553D02*
X67084533Y-29702839D01*
X67132152Y-29845696D01*
X67227390Y-29940934D01*
X67370247Y-29988553D01*
X67465485Y-29988553D01*
X66084533Y-29988553D02*
X66655961Y-29988553D01*
X66370247Y-29988553D02*
X66370247Y-28988553D01*
X66465485Y-29131411D01*
X66560723Y-29226649D01*
X66655961Y-29274268D01*
X121642857Y-77952380D02*
X121976190Y-77476190D01*
X122214285Y-77952380D02*
X122214285Y-76952380D01*
X121833333Y-76952380D01*
X121738095Y-77000000D01*
X121690476Y-77047619D01*
X121642857Y-77142857D01*
X121642857Y-77285714D01*
X121690476Y-77380952D01*
X121738095Y-77428571D01*
X121833333Y-77476190D01*
X122214285Y-77476190D01*
X120690476Y-77952380D02*
X121261904Y-77952380D01*
X120976190Y-77952380D02*
X120976190Y-76952380D01*
X121071428Y-77095238D01*
X121166666Y-77190476D01*
X121261904Y-77238095D01*
X120119047Y-77380952D02*
X120214285Y-77333333D01*
X120261904Y-77285714D01*
X120309523Y-77190476D01*
X120309523Y-77142857D01*
X120261904Y-77047619D01*
X120214285Y-77000000D01*
X120119047Y-76952380D01*
X119928571Y-76952380D01*
X119833333Y-77000000D01*
X119785714Y-77047619D01*
X119738095Y-77142857D01*
X119738095Y-77190476D01*
X119785714Y-77285714D01*
X119833333Y-77333333D01*
X119928571Y-77380952D01*
X120119047Y-77380952D01*
X120214285Y-77428571D01*
X120261904Y-77476190D01*
X120309523Y-77571428D01*
X120309523Y-77761904D01*
X120261904Y-77857142D01*
X120214285Y-77904761D01*
X120119047Y-77952380D01*
X119928571Y-77952380D01*
X119833333Y-77904761D01*
X119785714Y-77857142D01*
X119738095Y-77761904D01*
X119738095Y-77571428D01*
X119785714Y-77476190D01*
X119833333Y-77428571D01*
X119928571Y-77380952D01*
X123202380Y-65331742D02*
X122726190Y-64998409D01*
X123202380Y-64760314D02*
X122202380Y-64760314D01*
X122202380Y-65141266D01*
X122250000Y-65236504D01*
X122297619Y-65284123D01*
X122392857Y-65331742D01*
X122535714Y-65331742D01*
X122630952Y-65284123D01*
X122678571Y-65236504D01*
X122726190Y-65141266D01*
X122726190Y-64760314D01*
X123202380Y-66284123D02*
X123202380Y-65712695D01*
X123202380Y-65998409D02*
X122202380Y-65998409D01*
X122345238Y-65903171D01*
X122440476Y-65807933D01*
X122488095Y-65712695D01*
X122202380Y-66617457D02*
X122202380Y-67236504D01*
X122583333Y-66903171D01*
X122583333Y-67046028D01*
X122630952Y-67141266D01*
X122678571Y-67188885D01*
X122773809Y-67236504D01*
X123011904Y-67236504D01*
X123107142Y-67188885D01*
X123154761Y-67141266D01*
X123202380Y-67046028D01*
X123202380Y-66760314D01*
X123154761Y-66665076D01*
X123107142Y-66617457D01*
X74202380Y-37583333D02*
X73726190Y-37250000D01*
X74202380Y-37011904D02*
X73202380Y-37011904D01*
X73202380Y-37392857D01*
X73250000Y-37488095D01*
X73297619Y-37535714D01*
X73392857Y-37583333D01*
X73535714Y-37583333D01*
X73630952Y-37535714D01*
X73678571Y-37488095D01*
X73726190Y-37392857D01*
X73726190Y-37011904D01*
X73202380Y-37916666D02*
X73202380Y-38583333D01*
X74202380Y-38154761D01*
D12*
X110265000Y-48772936D02*
X110265000Y-49227064D01*
X111735000Y-48772936D02*
X111735000Y-49227064D01*
X109985000Y-45522936D02*
X109985000Y-45977064D01*
X108515000Y-45522936D02*
X108515000Y-45977064D01*
X108515000Y-48772936D02*
X108515000Y-49227064D01*
X109985000Y-48772936D02*
X109985000Y-49227064D01*
X109265000Y-29172936D02*
X109265000Y-29627064D01*
X110735000Y-29172936D02*
X110735000Y-29627064D01*
X108665000Y-33172936D02*
X108665000Y-33627064D01*
X110135000Y-33172936D02*
X110135000Y-33627064D01*
X99779300Y-38460163D02*
X99779300Y-43843763D01*
X108729300Y-40130863D02*
X108729300Y-43839463D01*
X111065000Y-31022936D02*
X111065000Y-31477064D01*
X112535000Y-31022936D02*
X112535000Y-31477064D01*
X117760400Y-72201664D02*
X117760400Y-71747536D01*
X116290400Y-72201664D02*
X116290400Y-71747536D01*
X117522936Y-80735000D02*
X117977064Y-80735000D01*
X117522936Y-79265000D02*
X117977064Y-79265000D01*
X127585400Y-67174600D02*
X127585400Y-66374600D01*
X124465400Y-67174600D02*
X124465400Y-66374600D01*
X127585400Y-67174600D02*
X127585400Y-68974600D01*
X124465400Y-67174600D02*
X124465400Y-67974600D01*
X71272936Y-33235000D02*
X71727064Y-33235000D01*
X71272936Y-31765000D02*
X71727064Y-31765000D01*
X71272936Y-45735000D02*
X71727064Y-45735000D01*
X71272936Y-44265000D02*
X71727064Y-44265000D01*
X106015000Y-49238748D02*
X106015000Y-49761252D01*
X107485000Y-49238748D02*
X107485000Y-49761252D01*
X71272936Y-40735000D02*
X71727064Y-40735000D01*
X71272936Y-39265000D02*
X71727064Y-39265000D01*
X104015000Y-49761252D02*
X104015000Y-49238748D01*
X105485000Y-49761252D02*
X105485000Y-49238748D01*
X140760400Y-67747536D02*
X140760400Y-68201664D01*
X139290400Y-67747536D02*
X139290400Y-68201664D01*
X111050000Y-41550000D02*
X111050000Y-42950000D01*
X112450000Y-42950000D02*
X112450000Y-41550000D01*
X111050000Y-42950000D02*
X112450000Y-42950000D01*
X112450000Y-41550000D02*
X111050000Y-41550000D01*
X129290400Y-67201664D02*
X129290400Y-66747536D01*
X130760400Y-67201664D02*
X130760400Y-66747536D01*
X95335400Y-64587600D02*
X95335400Y-65984600D01*
X113115400Y-64587600D02*
X109178400Y-64587600D01*
X113115400Y-85161600D02*
X95335400Y-85161600D01*
X95335400Y-64587600D02*
X99272400Y-64587600D01*
X113115400Y-64587600D02*
X113115400Y-65984600D01*
X95335400Y-85161600D02*
X95335400Y-83637600D01*
X113115400Y-85161600D02*
X113115400Y-83637600D01*
X109225400Y-63587600D02*
X99225400Y-63587600D01*
X99225400Y-63587600D02*
X99225400Y-71187600D01*
X99225400Y-71187600D02*
X109225400Y-71187600D01*
X109225400Y-71187600D02*
X109225400Y-63587600D01*
X119515400Y-71201664D02*
X119515400Y-70747536D01*
X120985400Y-71201664D02*
X120985400Y-70747536D01*
X71272936Y-43235000D02*
X71727064Y-43235000D01*
X71272936Y-41765000D02*
X71727064Y-41765000D01*
X101450000Y-36800000D02*
X100050000Y-36800000D01*
X101450000Y-38200000D02*
X101450000Y-36800000D01*
X100050000Y-38200000D02*
X101450000Y-38200000D01*
X100050000Y-36800000D02*
X100050000Y-38200000D01*
X71272936Y-48485000D02*
X71727064Y-48485000D01*
X71272936Y-47015000D02*
X71727064Y-47015000D01*
X100200000Y-45300000D02*
X98800000Y-45300000D01*
X98800000Y-45300000D02*
X98800000Y-46700000D01*
X98800000Y-46700000D02*
X100200000Y-46700000D01*
X100200000Y-46700000D02*
X100200000Y-45300000D01*
X71272936Y-34265000D02*
X71727064Y-34265000D01*
X71272936Y-35735000D02*
X71727064Y-35735000D01*
X140097200Y-31646173D02*
X138887200Y-31646173D01*
X142757200Y-45866173D02*
X142757200Y-49426173D01*
X140097200Y-38246173D02*
X140097200Y-41806173D01*
X142757200Y-30976173D02*
X140097200Y-30976173D01*
X142757200Y-30976173D02*
X142757200Y-34186173D01*
X142757200Y-51616173D02*
X140097200Y-51616173D01*
X142757200Y-40786173D02*
X142757200Y-44346173D01*
X142757200Y-50946173D02*
X142757200Y-51616173D01*
X140097200Y-30976173D02*
X140097200Y-31646173D01*
X140097200Y-33166173D02*
X140097200Y-36726173D01*
X142757200Y-35706173D02*
X142757200Y-39266173D01*
X140097200Y-43326173D02*
X140097200Y-46886173D01*
X140097200Y-48406173D02*
X140097200Y-51616173D01*
D13*
X133400000Y-68250000D02*
X133000000Y-67650000D01*
D12*
X132000000Y-65800000D02*
X132000000Y-69650000D01*
X134000000Y-65800000D02*
X134000000Y-69650000D01*
D13*
X132600000Y-68250000D02*
X133400000Y-68250000D01*
D12*
X132000000Y-65800000D02*
X134000000Y-65800000D01*
D13*
X133000000Y-67650000D02*
X132450000Y-67650000D01*
X133000000Y-67650000D02*
X133550000Y-67650000D01*
X133000000Y-67250000D02*
X133000000Y-67650000D01*
X133000000Y-68250000D02*
X133000000Y-68750000D01*
X133000000Y-67650000D02*
X132600000Y-68250000D01*
D12*
X71272936Y-49515000D02*
X71727064Y-49515000D01*
X71272936Y-50985000D02*
X71727064Y-50985000D01*
X99750400Y-25821173D02*
X99750400Y-31204773D01*
X108700400Y-27491873D02*
X108700400Y-31200473D01*
X118760400Y-67747536D02*
X118760400Y-68201664D01*
X117290400Y-67747536D02*
X117290400Y-68201664D01*
X121890400Y-70772536D02*
X121890400Y-71226664D01*
X123360400Y-70772536D02*
X123360400Y-71226664D01*
X68081200Y-40786173D02*
X68081200Y-44346173D01*
X65421200Y-31646173D02*
X64211200Y-31646173D01*
X65421200Y-43326173D02*
X65421200Y-46886173D01*
X65421200Y-38246173D02*
X65421200Y-41806173D01*
X68081200Y-50946173D02*
X68081200Y-51616173D01*
X65421200Y-33166173D02*
X65421200Y-36726173D01*
X68081200Y-30976173D02*
X68081200Y-34186173D01*
X68081200Y-35706173D02*
X68081200Y-39266173D01*
X68081200Y-51616173D02*
X65421200Y-51616173D01*
X65421200Y-30976173D02*
X65421200Y-31646173D01*
X68081200Y-30976173D02*
X65421200Y-30976173D01*
X65421200Y-48406173D02*
X65421200Y-51616173D01*
X68081200Y-45866173D02*
X68081200Y-49426173D01*
X117522936Y-78235000D02*
X117977064Y-78235000D01*
X117522936Y-76765000D02*
X117977064Y-76765000D01*
X121760400Y-65747536D02*
X121760400Y-66201664D01*
X120290400Y-65747536D02*
X120290400Y-66201664D01*
X71272936Y-38235000D02*
X71727064Y-38235000D01*
X71272936Y-36765000D02*
X71727064Y-36765000D01*
M02*
