G04 #@! TF.GenerationSoftware,KiCad,Pcbnew,(5.99.0-13010-g08938463f1)*
G04 #@! TF.CreationDate,2021-12-12T23:41:21-05:00*
G04 #@! TF.ProjectId,unitron,756e6974-726f-46e2-9e6b-696361645f70,1.9*
G04 #@! TF.SameCoordinates,Original*
G04 #@! TF.FileFunction,Soldermask,Top*
G04 #@! TF.FilePolarity,Negative*
%FSLAX46Y46*%
G04 Gerber Fmt 4.6, Leading zero omitted, Abs format (unit mm)*
G04 Created by KiCad (PCBNEW (5.99.0-13010-g08938463f1)) date 2021-12-12 23:41:21*
%MOMM*%
%LPD*%
G01*
G04 APERTURE LIST*
G04 Aperture macros list*
%AMRoundRect*
0 Rectangle with rounded corners*
0 $1 Rounding radius*
0 $2 $3 $4 $5 $6 $7 $8 $9 X,Y pos of 4 corners*
0 Add a 4 corners polygon primitive as box body*
4,1,4,$2,$3,$4,$5,$6,$7,$8,$9,$2,$3,0*
0 Add four circle primitives for the rounded corners*
1,1,$1+$1,$2,$3*
1,1,$1+$1,$4,$5*
1,1,$1+$1,$6,$7*
1,1,$1+$1,$8,$9*
0 Add four rect primitives between the rounded corners*
20,1,$1+$1,$2,$3,$4,$5,0*
20,1,$1+$1,$4,$5,$6,$7,0*
20,1,$1+$1,$6,$7,$8,$9,0*
20,1,$1+$1,$8,$9,$2,$3,0*%
G04 Aperture macros list end*
%ADD10C,1.700000*%
%ADD11C,4.000000*%
%ADD12C,2.200000*%
%ADD13R,1.500000X1.500000*%
%ADD14C,1.500000*%
%ADD15C,1.524000*%
%ADD16C,2.500000*%
%ADD17C,2.100000*%
%ADD18R,1.700000X1.700000*%
%ADD19O,1.700000X1.700000*%
%ADD20R,1.500000X1.000000*%
%ADD21C,0.500000*%
%ADD22C,6.000000*%
%ADD23RoundRect,0.243750X0.456250X-0.243750X0.456250X0.243750X-0.456250X0.243750X-0.456250X-0.243750X0*%
G04 APERTURE END LIST*
D10*
X70561200Y-149555200D03*
D11*
X75641200Y-149555200D03*
D10*
X80721200Y-149555200D03*
D12*
X78181200Y-144475200D03*
X71831200Y-147015200D03*
D10*
X89611200Y-149555200D03*
X99771200Y-149555200D03*
D11*
X94691200Y-149555200D03*
D12*
X97231200Y-144475200D03*
X90881200Y-147015200D03*
D10*
X80721200Y-111455200D03*
X70561200Y-111455200D03*
D11*
X75641200Y-111455200D03*
D12*
X78181200Y-106375200D03*
X71831200Y-108915200D03*
D10*
X80721200Y-130505200D03*
X70561200Y-130505200D03*
D11*
X75641200Y-130505200D03*
D12*
X78181200Y-125425200D03*
X71831200Y-127965200D03*
D10*
X89611200Y-130505200D03*
X99771200Y-130505200D03*
D11*
X94691200Y-130505200D03*
D12*
X97231200Y-125425200D03*
X90881200Y-127965200D03*
D10*
X89611200Y-111455200D03*
X99771200Y-111455200D03*
D11*
X94691200Y-111455200D03*
D12*
X97231200Y-106375200D03*
X90881200Y-108915200D03*
D10*
X118821200Y-111455200D03*
D11*
X113741200Y-111455200D03*
D10*
X108661200Y-111455200D03*
D12*
X116281200Y-106375200D03*
X109931200Y-108915200D03*
D10*
X118821200Y-168605200D03*
D11*
X113741200Y-168605200D03*
D10*
X108661200Y-168605200D03*
D12*
X116281200Y-163525200D03*
X109931200Y-166065200D03*
D13*
X115303300Y-47446163D03*
D14*
X117843300Y-47446163D03*
X120383300Y-47446163D03*
X122923300Y-47446163D03*
X125463300Y-47446163D03*
X128003300Y-47446163D03*
X130543300Y-47446163D03*
X133083300Y-47446163D03*
X133083300Y-37286163D03*
X128003300Y-37286163D03*
D15*
X122923300Y-37286163D03*
X120383300Y-37286163D03*
D14*
X117843300Y-37286163D03*
X115303300Y-37286163D03*
D13*
X75171300Y-47446163D03*
D14*
X77711300Y-47446163D03*
X80251300Y-47446163D03*
X82791300Y-47446163D03*
X85331300Y-47446163D03*
X87871300Y-47446163D03*
X90411300Y-47446163D03*
X92951300Y-47446163D03*
X92951300Y-37286163D03*
X87871300Y-37286163D03*
D15*
X82791300Y-37286163D03*
X80251300Y-37286163D03*
D14*
X77711300Y-37286163D03*
X75171300Y-37286163D03*
D10*
X80721200Y-168605200D03*
X70561200Y-168605200D03*
D11*
X75641200Y-168605200D03*
D12*
X78181200Y-163525200D03*
X71831200Y-166065200D03*
D13*
X115303300Y-34365163D03*
D14*
X117843300Y-34365163D03*
X120383300Y-34365163D03*
X122923300Y-34365163D03*
X125463300Y-34365163D03*
X128003300Y-34365163D03*
X130543300Y-34365163D03*
X133083300Y-34365163D03*
X133083300Y-24205163D03*
X128003300Y-24205163D03*
D15*
X122923300Y-24205163D03*
X120383300Y-24205163D03*
D14*
X117843300Y-24205163D03*
X115303300Y-24205163D03*
D13*
X75171300Y-34365163D03*
D14*
X77711300Y-34365163D03*
X80251300Y-34365163D03*
X82791300Y-34365163D03*
X85331300Y-34365163D03*
X87871300Y-34365163D03*
X90411300Y-34365163D03*
X92951300Y-34365163D03*
X92951300Y-24205163D03*
X87871300Y-24205163D03*
D15*
X82791300Y-24205163D03*
X80251300Y-24205163D03*
D14*
X77711300Y-24205163D03*
X75171300Y-24205163D03*
D10*
X108661200Y-149555200D03*
X118821200Y-149555200D03*
D11*
X113741200Y-149555200D03*
D12*
X116281200Y-144475200D03*
X109931200Y-147015200D03*
D16*
X132791200Y-106755200D03*
X132791200Y-111455200D03*
X132791200Y-116155200D03*
D17*
X134391200Y-103555200D03*
X134391200Y-119355200D03*
X131191200Y-103555200D03*
X131191200Y-119355200D03*
D11*
X113741200Y-130505200D03*
D10*
X108661200Y-130505200D03*
X118821200Y-130505200D03*
D12*
X116281200Y-125425200D03*
X109931200Y-127965200D03*
D18*
X133025400Y-69174600D03*
D19*
X133025400Y-66634600D03*
D20*
X97975400Y-56546173D03*
X97975400Y-59746173D03*
X102875400Y-59746173D03*
X102875400Y-56546173D03*
X65175400Y-50917746D03*
X65175400Y-54117746D03*
X70075400Y-54117746D03*
X70075400Y-50917746D03*
D21*
X77400000Y-61130000D03*
X76600000Y-61130000D03*
X77400000Y-63330000D03*
X74200000Y-63330000D03*
X78200000Y-61130000D03*
X75000000Y-63330000D03*
X75800000Y-61130000D03*
X74200000Y-61130000D03*
X75000000Y-61130000D03*
X78200000Y-63330000D03*
X76600000Y-63330000D03*
X75800000Y-63330000D03*
D20*
X115575400Y-56546173D03*
X115575400Y-59746173D03*
X120475400Y-59746173D03*
X120475400Y-56546173D03*
D22*
X72627300Y-79974600D03*
D23*
X141025400Y-112392700D03*
X141025400Y-110517700D03*
D18*
X141427200Y-72999600D03*
D19*
X141427200Y-75539600D03*
X141427200Y-78079600D03*
X141427200Y-80619600D03*
X141427200Y-83159600D03*
X141427200Y-85699600D03*
X141427200Y-88239600D03*
X141427200Y-90779600D03*
D10*
X89611200Y-168605200D03*
D11*
X94691200Y-168605200D03*
D10*
X99771200Y-168605200D03*
D12*
X97231200Y-163525200D03*
X90881200Y-166065200D03*
D20*
X131575400Y-50917746D03*
X131575400Y-54117746D03*
X136475400Y-54117746D03*
X136475400Y-50917746D03*
D22*
X135627300Y-157974600D03*
D20*
X83775400Y-56546173D03*
X83775400Y-59746173D03*
X88675400Y-59746173D03*
X88675400Y-56546173D03*
D22*
X135627300Y-79974600D03*
X72627300Y-157974600D03*
D20*
X115575400Y-50917746D03*
X115575400Y-54117746D03*
X120475400Y-54117746D03*
X120475400Y-50917746D03*
X97975400Y-50917746D03*
X97975400Y-54117746D03*
X102875400Y-54117746D03*
X102875400Y-50917746D03*
X83775400Y-50917746D03*
X83775400Y-54117746D03*
X88675400Y-54117746D03*
X88675400Y-50917746D03*
D10*
X127711200Y-149555200D03*
X137871200Y-149555200D03*
D11*
X132791200Y-149555200D03*
D12*
X135331200Y-144475200D03*
X128981200Y-147015200D03*
D21*
X104654300Y-61130000D03*
X103054300Y-63330000D03*
X103054300Y-61130000D03*
X102254300Y-63330000D03*
X103854300Y-63330000D03*
X105454300Y-63330000D03*
X102254300Y-61130000D03*
X103854300Y-61130000D03*
X104654300Y-63330000D03*
X105454300Y-61130000D03*
X106254300Y-63330000D03*
X106254300Y-61130000D03*
D18*
X66751200Y-72999600D03*
D19*
X66751200Y-75539600D03*
X66751200Y-78079600D03*
X66751200Y-80619600D03*
X66751200Y-83159600D03*
X66751200Y-85699600D03*
X66751200Y-88239600D03*
X66751200Y-90779600D03*
D20*
X131575411Y-56546163D03*
X131575411Y-59746163D03*
X136475411Y-59746163D03*
X136475411Y-56546163D03*
D10*
X137871200Y-168605200D03*
D11*
X132791200Y-168605200D03*
D10*
X127711200Y-168605200D03*
D12*
X135331200Y-163525200D03*
X128981200Y-166065200D03*
D20*
X65175400Y-56546173D03*
X65175400Y-59746173D03*
X70075400Y-59746173D03*
X70075400Y-56546173D03*
D21*
X132480000Y-63330000D03*
X130080000Y-61130000D03*
X133280000Y-61130000D03*
X132480000Y-61130000D03*
X134080000Y-61130000D03*
X130880000Y-61130000D03*
X130880000Y-63330000D03*
X131680000Y-63330000D03*
X133280000Y-63330000D03*
X131680000Y-61130000D03*
X134080000Y-63330000D03*
X130080000Y-63330000D03*
D10*
X127711200Y-130505200D03*
X137871200Y-130505200D03*
D11*
X132791200Y-130505200D03*
D12*
X135331200Y-125425200D03*
X128981200Y-127965200D03*
M02*
