G04 #@! TF.GenerationSoftware,KiCad,Pcbnew,(5.99.0-8123-gb2cbd99365)*
G04 #@! TF.CreationDate,2021-02-13T19:05:43-05:00*
G04 #@! TF.ProjectId,unitron,756e6974-726f-46e2-9e6b-696361645f70,1.5*
G04 #@! TF.SameCoordinates,Original*
G04 #@! TF.FileFunction,Legend,Top*
G04 #@! TF.FilePolarity,Positive*
%FSLAX46Y46*%
G04 Gerber Fmt 4.6, Leading zero omitted, Abs format (unit mm)*
G04 Created by KiCad (PCBNEW (5.99.0-8123-gb2cbd99365)) date 2021-02-13 19:05:43*
%MOMM*%
%LPD*%
G01*
G04 APERTURE LIST*
%ADD10C,0.300000*%
%ADD11C,0.150000*%
%ADD12C,0.500000*%
%ADD13C,0.120000*%
%ADD14C,0.127000*%
G04 APERTURE END LIST*
D10*
X97505714Y-59531607D02*
X97505714Y-58031607D01*
X97505714Y-58245892D02*
X97612857Y-58138750D01*
X97827142Y-58031607D01*
X98148571Y-58031607D01*
X98362857Y-58138750D01*
X98470000Y-58353035D01*
X98470000Y-59531607D01*
X98470000Y-58353035D02*
X98577142Y-58138750D01*
X98791428Y-58031607D01*
X99112857Y-58031607D01*
X99327142Y-58138750D01*
X99434285Y-58353035D01*
X99434285Y-59531607D01*
X100505714Y-59531607D02*
X100505714Y-58031607D01*
X100505714Y-57281607D02*
X100398571Y-57388750D01*
X100505714Y-57495892D01*
X100612857Y-57388750D01*
X100505714Y-57281607D01*
X100505714Y-57495892D01*
X97505714Y-63154107D02*
X97505714Y-60904107D01*
X97720000Y-62296964D02*
X98362857Y-63154107D01*
X98362857Y-61654107D02*
X97505714Y-62511250D01*
X99327142Y-63154107D02*
X99327142Y-61654107D01*
X99327142Y-61868392D02*
X99434285Y-61761250D01*
X99648571Y-61654107D01*
X99970000Y-61654107D01*
X100184285Y-61761250D01*
X100291428Y-61975535D01*
X100291428Y-63154107D01*
X100291428Y-61975535D02*
X100398571Y-61761250D01*
X100612857Y-61654107D01*
X100934285Y-61654107D01*
X101148571Y-61761250D01*
X101255714Y-61975535D01*
X101255714Y-63154107D01*
X127805714Y-58386285D02*
X127055714Y-58386285D01*
X127055714Y-59564857D02*
X127055714Y-57314857D01*
X128127142Y-57314857D01*
D11*
X126048690Y-61806476D02*
X125929642Y-61746952D01*
X125870119Y-61687428D01*
X125810595Y-61568380D01*
X125810595Y-61211238D01*
X125870119Y-61092190D01*
X125929642Y-61032666D01*
X126048690Y-60973142D01*
X126227261Y-60973142D01*
X126346309Y-61032666D01*
X126405833Y-61092190D01*
X126465357Y-61211238D01*
X126465357Y-61568380D01*
X126405833Y-61687428D01*
X126346309Y-61746952D01*
X126227261Y-61806476D01*
X126048690Y-61806476D01*
D10*
X128341428Y-63044571D02*
X128234285Y-63151714D01*
X127912857Y-63258857D01*
X127698571Y-63258857D01*
X127377142Y-63151714D01*
X127162857Y-62937428D01*
X127055714Y-62723142D01*
X126948571Y-62294571D01*
X126948571Y-61973142D01*
X127055714Y-61544571D01*
X127162857Y-61330285D01*
X127377142Y-61116000D01*
X127698571Y-61008857D01*
X127912857Y-61008857D01*
X128234285Y-61116000D01*
X128341428Y-61223142D01*
X140877142Y-59531607D02*
X140662857Y-59424464D01*
X140555714Y-59317321D01*
X140448571Y-59103035D01*
X140448571Y-58460178D01*
X140555714Y-58245892D01*
X140662857Y-58138750D01*
X140877142Y-58031607D01*
X141198571Y-58031607D01*
X141412857Y-58138750D01*
X141520000Y-58245892D01*
X141627142Y-58460178D01*
X141627142Y-59103035D01*
X141520000Y-59317321D01*
X141412857Y-59424464D01*
X141198571Y-59531607D01*
X140877142Y-59531607D01*
X142377142Y-58031607D02*
X143555714Y-58031607D01*
X142377142Y-59531607D01*
X143555714Y-59531607D01*
X140555714Y-63154107D02*
X140555714Y-61654107D01*
X140555714Y-61868392D02*
X140662857Y-61761250D01*
X140877142Y-61654107D01*
X141198571Y-61654107D01*
X141412857Y-61761250D01*
X141520000Y-61975535D01*
X141520000Y-63154107D01*
X141520000Y-61975535D02*
X141627142Y-61761250D01*
X141841428Y-61654107D01*
X142162857Y-61654107D01*
X142377142Y-61761250D01*
X142484285Y-61975535D01*
X142484285Y-63154107D01*
X144627142Y-63154107D02*
X143555714Y-63154107D01*
X143555714Y-60904107D01*
D12*
X76444647Y-76791323D02*
X74420838Y-76791323D01*
X74182742Y-76910371D01*
X74063695Y-77029419D01*
X73944647Y-77267514D01*
X73944647Y-77743704D01*
X74063695Y-77981800D01*
X74182742Y-78100847D01*
X74420838Y-78219895D01*
X76444647Y-78219895D01*
X75611314Y-79410371D02*
X73944647Y-79410371D01*
X75373219Y-79410371D02*
X75492266Y-79529419D01*
X75611314Y-79767514D01*
X75611314Y-80124657D01*
X75492266Y-80362752D01*
X75254171Y-80481800D01*
X73944647Y-80481800D01*
X73944647Y-81672276D02*
X75611314Y-81672276D01*
X76444647Y-81672276D02*
X76325600Y-81553228D01*
X76206552Y-81672276D01*
X76325600Y-81791323D01*
X76444647Y-81672276D01*
X76206552Y-81672276D01*
X75611314Y-82505609D02*
X75611314Y-83457990D01*
X76444647Y-82862752D02*
X74301790Y-82862752D01*
X74063695Y-82981800D01*
X73944647Y-83219895D01*
X73944647Y-83457990D01*
X73944647Y-84291323D02*
X75611314Y-84291323D01*
X75135123Y-84291323D02*
X75373219Y-84410371D01*
X75492266Y-84529419D01*
X75611314Y-84767514D01*
X75611314Y-85005609D01*
X73944647Y-86196085D02*
X74063695Y-85957990D01*
X74182742Y-85838942D01*
X74420838Y-85719895D01*
X75135123Y-85719895D01*
X75373219Y-85838942D01*
X75492266Y-85957990D01*
X75611314Y-86196085D01*
X75611314Y-86553228D01*
X75492266Y-86791323D01*
X75373219Y-86910371D01*
X75135123Y-87029419D01*
X74420838Y-87029419D01*
X74182742Y-86910371D01*
X74063695Y-86791323D01*
X73944647Y-86553228D01*
X73944647Y-86196085D01*
X75611314Y-88100847D02*
X73944647Y-88100847D01*
X75373219Y-88100847D02*
X75492266Y-88219895D01*
X75611314Y-88457990D01*
X75611314Y-88815133D01*
X75492266Y-89053228D01*
X75254171Y-89172276D01*
X73944647Y-89172276D01*
X71586314Y-79410371D02*
X69919647Y-80005609D01*
X71586314Y-80600847D01*
X69919647Y-82862752D02*
X69919647Y-81434180D01*
X69919647Y-82148466D02*
X72419647Y-82148466D01*
X72062504Y-81910371D01*
X71824409Y-81672276D01*
X71705361Y-81434180D01*
X70157742Y-83934180D02*
X70038695Y-84053228D01*
X69919647Y-83934180D01*
X70038695Y-83815133D01*
X70157742Y-83934180D01*
X69919647Y-83934180D01*
X72419647Y-86315133D02*
X72419647Y-85124657D01*
X71229171Y-85005609D01*
X71348219Y-85124657D01*
X71467266Y-85362752D01*
X71467266Y-85957990D01*
X71348219Y-86196085D01*
X71229171Y-86315133D01*
X70991076Y-86434180D01*
X70395838Y-86434180D01*
X70157742Y-86315133D01*
X70038695Y-86196085D01*
X69919647Y-85957990D01*
X69919647Y-85362752D01*
X70038695Y-85124657D01*
X70157742Y-85005609D01*
D10*
X68805714Y-59531607D02*
X68805714Y-58031607D01*
X68805714Y-57281607D02*
X68698571Y-57388750D01*
X68805714Y-57495892D01*
X68912857Y-57388750D01*
X68805714Y-57281607D01*
X68805714Y-57495892D01*
X69877142Y-58031607D02*
X69877142Y-59531607D01*
X69877142Y-58245892D02*
X69984285Y-58138750D01*
X70198571Y-58031607D01*
X70520000Y-58031607D01*
X70734285Y-58138750D01*
X70841428Y-58353035D01*
X70841428Y-59531607D01*
X68805714Y-63154107D02*
X68805714Y-61654107D01*
X68805714Y-61868392D02*
X68912857Y-61761250D01*
X69127142Y-61654107D01*
X69448571Y-61654107D01*
X69662857Y-61761250D01*
X69770000Y-61975535D01*
X69770000Y-63154107D01*
X69770000Y-61975535D02*
X69877142Y-61761250D01*
X70091428Y-61654107D01*
X70412857Y-61654107D01*
X70627142Y-61761250D01*
X70734285Y-61975535D01*
X70734285Y-63154107D01*
X71805714Y-63154107D02*
X71805714Y-61654107D01*
X71805714Y-61868392D02*
X71912857Y-61761250D01*
X72127142Y-61654107D01*
X72448571Y-61654107D01*
X72662857Y-61761250D01*
X72770000Y-61975535D01*
X72770000Y-63154107D01*
X72770000Y-61975535D02*
X72877142Y-61761250D01*
X73091428Y-61654107D01*
X73412857Y-61654107D01*
X73627142Y-61761250D01*
X73734285Y-61975535D01*
X73734285Y-63154107D01*
X112177142Y-59531607D02*
X111962857Y-59424464D01*
X111855714Y-59210178D01*
X111855714Y-57281607D01*
X113034285Y-59531607D02*
X113034285Y-57281607D01*
X113034285Y-58138750D02*
X113248571Y-58031607D01*
X113677142Y-58031607D01*
X113891428Y-58138750D01*
X113998571Y-58245892D01*
X114105714Y-58460178D01*
X114105714Y-59103035D01*
X113998571Y-59317321D01*
X113891428Y-59424464D01*
X113677142Y-59531607D01*
X113248571Y-59531607D01*
X113034285Y-59424464D01*
X111855714Y-63154107D02*
X111855714Y-60904107D01*
X112070000Y-62296964D02*
X112712857Y-63154107D01*
X112712857Y-61654107D02*
X111855714Y-62511250D01*
X114641428Y-61654107D02*
X114641428Y-63475535D01*
X114534285Y-63689821D01*
X114427142Y-63796964D01*
X114212857Y-63904107D01*
X113891428Y-63904107D01*
X113677142Y-63796964D01*
X114641428Y-63046964D02*
X114427142Y-63154107D01*
X113998571Y-63154107D01*
X113784285Y-63046964D01*
X113677142Y-62939821D01*
X113570000Y-62725535D01*
X113570000Y-62082678D01*
X113677142Y-61868392D01*
X113784285Y-61761250D01*
X113998571Y-61654107D01*
X114427142Y-61654107D01*
X114641428Y-61761250D01*
X82834285Y-58031607D02*
X83691428Y-58031607D01*
X83155714Y-59531607D02*
X83155714Y-57603035D01*
X83262857Y-57388750D01*
X83477142Y-57281607D01*
X83691428Y-57281607D01*
X84120000Y-58031607D02*
X84977142Y-58031607D01*
X84441428Y-57281607D02*
X84441428Y-59210178D01*
X84548571Y-59424464D01*
X84762857Y-59531607D01*
X84977142Y-59531607D01*
X83155714Y-63154107D02*
X83155714Y-61654107D01*
X83155714Y-61868392D02*
X83262857Y-61761250D01*
X83477142Y-61654107D01*
X83798571Y-61654107D01*
X84012857Y-61761250D01*
X84120000Y-61975535D01*
X84120000Y-63154107D01*
X84120000Y-61975535D02*
X84227142Y-61761250D01*
X84441428Y-61654107D01*
X84762857Y-61654107D01*
X84977142Y-61761250D01*
X85084285Y-61975535D01*
X85084285Y-63154107D01*
D11*
X126048690Y-58096476D02*
X125929642Y-58036952D01*
X125870119Y-57977428D01*
X125810595Y-57858380D01*
X125810595Y-57501238D01*
X125870119Y-57382190D01*
X125929642Y-57322666D01*
X126048690Y-57263142D01*
X126227261Y-57263142D01*
X126346309Y-57322666D01*
X126405833Y-57382190D01*
X126465357Y-57501238D01*
X126465357Y-57858380D01*
X126405833Y-57977428D01*
X126346309Y-58036952D01*
X126227261Y-58096476D01*
X126048690Y-58096476D01*
X75692095Y-133754761D02*
X75834952Y-133802380D01*
X76073047Y-133802380D01*
X76168285Y-133754761D01*
X76215904Y-133707142D01*
X76263523Y-133611904D01*
X76263523Y-133516666D01*
X76215904Y-133421428D01*
X76168285Y-133373809D01*
X76073047Y-133326190D01*
X75882571Y-133278571D01*
X75787333Y-133230952D01*
X75739714Y-133183333D01*
X75692095Y-133088095D01*
X75692095Y-132992857D01*
X75739714Y-132897619D01*
X75787333Y-132850000D01*
X75882571Y-132802380D01*
X76120666Y-132802380D01*
X76263523Y-132850000D01*
X76596857Y-132802380D02*
X77263523Y-132802380D01*
X76834952Y-133802380D01*
X94742095Y-133754761D02*
X94884952Y-133802380D01*
X95123047Y-133802380D01*
X95218285Y-133754761D01*
X95265904Y-133707142D01*
X95313523Y-133611904D01*
X95313523Y-133516666D01*
X95265904Y-133421428D01*
X95218285Y-133373809D01*
X95123047Y-133326190D01*
X94932571Y-133278571D01*
X94837333Y-133230952D01*
X94789714Y-133183333D01*
X94742095Y-133088095D01*
X94742095Y-132992857D01*
X94789714Y-132897619D01*
X94837333Y-132850000D01*
X94932571Y-132802380D01*
X95170666Y-132802380D01*
X95313523Y-132850000D01*
X95884952Y-133230952D02*
X95789714Y-133183333D01*
X95742095Y-133135714D01*
X95694476Y-133040476D01*
X95694476Y-132992857D01*
X95742095Y-132897619D01*
X95789714Y-132850000D01*
X95884952Y-132802380D01*
X96075428Y-132802380D01*
X96170666Y-132850000D01*
X96218285Y-132897619D01*
X96265904Y-132992857D01*
X96265904Y-133040476D01*
X96218285Y-133135714D01*
X96170666Y-133183333D01*
X96075428Y-133230952D01*
X95884952Y-133230952D01*
X95789714Y-133278571D01*
X95742095Y-133326190D01*
X95694476Y-133421428D01*
X95694476Y-133611904D01*
X95742095Y-133707142D01*
X95789714Y-133754761D01*
X95884952Y-133802380D01*
X96075428Y-133802380D01*
X96170666Y-133754761D01*
X96218285Y-133707142D01*
X96265904Y-133611904D01*
X96265904Y-133421428D01*
X96218285Y-133326190D01*
X96170666Y-133278571D01*
X96075428Y-133230952D01*
X75215904Y-95654761D02*
X75358761Y-95702380D01*
X75596857Y-95702380D01*
X75692095Y-95654761D01*
X75739714Y-95607142D01*
X75787333Y-95511904D01*
X75787333Y-95416666D01*
X75739714Y-95321428D01*
X75692095Y-95273809D01*
X75596857Y-95226190D01*
X75406380Y-95178571D01*
X75311142Y-95130952D01*
X75263523Y-95083333D01*
X75215904Y-94988095D01*
X75215904Y-94892857D01*
X75263523Y-94797619D01*
X75311142Y-94750000D01*
X75406380Y-94702380D01*
X75644476Y-94702380D01*
X75787333Y-94750000D01*
X76739714Y-95702380D02*
X76168285Y-95702380D01*
X76454000Y-95702380D02*
X76454000Y-94702380D01*
X76358761Y-94845238D01*
X76263523Y-94940476D01*
X76168285Y-94988095D01*
X77358761Y-94702380D02*
X77454000Y-94702380D01*
X77549238Y-94750000D01*
X77596857Y-94797619D01*
X77644476Y-94892857D01*
X77692095Y-95083333D01*
X77692095Y-95321428D01*
X77644476Y-95511904D01*
X77596857Y-95607142D01*
X77549238Y-95654761D01*
X77454000Y-95702380D01*
X77358761Y-95702380D01*
X77263523Y-95654761D01*
X77215904Y-95607142D01*
X77168285Y-95511904D01*
X77120666Y-95321428D01*
X77120666Y-95083333D01*
X77168285Y-94892857D01*
X77215904Y-94797619D01*
X77263523Y-94750000D01*
X77358761Y-94702380D01*
X75215904Y-114704761D02*
X75358761Y-114752380D01*
X75596857Y-114752380D01*
X75692095Y-114704761D01*
X75739714Y-114657142D01*
X75787333Y-114561904D01*
X75787333Y-114466666D01*
X75739714Y-114371428D01*
X75692095Y-114323809D01*
X75596857Y-114276190D01*
X75406380Y-114228571D01*
X75311142Y-114180952D01*
X75263523Y-114133333D01*
X75215904Y-114038095D01*
X75215904Y-113942857D01*
X75263523Y-113847619D01*
X75311142Y-113800000D01*
X75406380Y-113752380D01*
X75644476Y-113752380D01*
X75787333Y-113800000D01*
X76739714Y-114752380D02*
X76168285Y-114752380D01*
X76454000Y-114752380D02*
X76454000Y-113752380D01*
X76358761Y-113895238D01*
X76263523Y-113990476D01*
X76168285Y-114038095D01*
X77692095Y-114752380D02*
X77120666Y-114752380D01*
X77406380Y-114752380D02*
X77406380Y-113752380D01*
X77311142Y-113895238D01*
X77215904Y-113990476D01*
X77120666Y-114038095D01*
X94265904Y-114704761D02*
X94408761Y-114752380D01*
X94646857Y-114752380D01*
X94742095Y-114704761D01*
X94789714Y-114657142D01*
X94837333Y-114561904D01*
X94837333Y-114466666D01*
X94789714Y-114371428D01*
X94742095Y-114323809D01*
X94646857Y-114276190D01*
X94456380Y-114228571D01*
X94361142Y-114180952D01*
X94313523Y-114133333D01*
X94265904Y-114038095D01*
X94265904Y-113942857D01*
X94313523Y-113847619D01*
X94361142Y-113800000D01*
X94456380Y-113752380D01*
X94694476Y-113752380D01*
X94837333Y-113800000D01*
X95789714Y-114752380D02*
X95218285Y-114752380D01*
X95504000Y-114752380D02*
X95504000Y-113752380D01*
X95408761Y-113895238D01*
X95313523Y-113990476D01*
X95218285Y-114038095D01*
X96170666Y-113847619D02*
X96218285Y-113800000D01*
X96313523Y-113752380D01*
X96551619Y-113752380D01*
X96646857Y-113800000D01*
X96694476Y-113847619D01*
X96742095Y-113942857D01*
X96742095Y-114038095D01*
X96694476Y-114180952D01*
X96123047Y-114752380D01*
X96742095Y-114752380D01*
X94265904Y-95654761D02*
X94408761Y-95702380D01*
X94646857Y-95702380D01*
X94742095Y-95654761D01*
X94789714Y-95607142D01*
X94837333Y-95511904D01*
X94837333Y-95416666D01*
X94789714Y-95321428D01*
X94742095Y-95273809D01*
X94646857Y-95226190D01*
X94456380Y-95178571D01*
X94361142Y-95130952D01*
X94313523Y-95083333D01*
X94265904Y-94988095D01*
X94265904Y-94892857D01*
X94313523Y-94797619D01*
X94361142Y-94750000D01*
X94456380Y-94702380D01*
X94694476Y-94702380D01*
X94837333Y-94750000D01*
X95789714Y-95702380D02*
X95218285Y-95702380D01*
X95504000Y-95702380D02*
X95504000Y-94702380D01*
X95408761Y-94845238D01*
X95313523Y-94940476D01*
X95218285Y-94988095D01*
X96646857Y-95035714D02*
X96646857Y-95702380D01*
X96408761Y-94654761D02*
X96170666Y-95369047D01*
X96789714Y-95369047D01*
X113792095Y-95654761D02*
X113934952Y-95702380D01*
X114173047Y-95702380D01*
X114268285Y-95654761D01*
X114315904Y-95607142D01*
X114363523Y-95511904D01*
X114363523Y-95416666D01*
X114315904Y-95321428D01*
X114268285Y-95273809D01*
X114173047Y-95226190D01*
X113982571Y-95178571D01*
X113887333Y-95130952D01*
X113839714Y-95083333D01*
X113792095Y-94988095D01*
X113792095Y-94892857D01*
X113839714Y-94797619D01*
X113887333Y-94750000D01*
X113982571Y-94702380D01*
X114220666Y-94702380D01*
X114363523Y-94750000D01*
X114744476Y-94797619D02*
X114792095Y-94750000D01*
X114887333Y-94702380D01*
X115125428Y-94702380D01*
X115220666Y-94750000D01*
X115268285Y-94797619D01*
X115315904Y-94892857D01*
X115315904Y-94988095D01*
X115268285Y-95130952D01*
X114696857Y-95702380D01*
X115315904Y-95702380D01*
X113792095Y-152804761D02*
X113934952Y-152852380D01*
X114173047Y-152852380D01*
X114268285Y-152804761D01*
X114315904Y-152757142D01*
X114363523Y-152661904D01*
X114363523Y-152566666D01*
X114315904Y-152471428D01*
X114268285Y-152423809D01*
X114173047Y-152376190D01*
X113982571Y-152328571D01*
X113887333Y-152280952D01*
X113839714Y-152233333D01*
X113792095Y-152138095D01*
X113792095Y-152042857D01*
X113839714Y-151947619D01*
X113887333Y-151900000D01*
X113982571Y-151852380D01*
X114220666Y-151852380D01*
X114363523Y-151900000D01*
X114696857Y-151852380D02*
X115315904Y-151852380D01*
X114982571Y-152233333D01*
X115125428Y-152233333D01*
X115220666Y-152280952D01*
X115268285Y-152328571D01*
X115315904Y-152423809D01*
X115315904Y-152661904D01*
X115268285Y-152757142D01*
X115220666Y-152804761D01*
X115125428Y-152852380D01*
X114839714Y-152852380D01*
X114744476Y-152804761D01*
X114696857Y-152757142D01*
X124498195Y-49998391D02*
X124498195Y-50807915D01*
X124545814Y-50903153D01*
X124593433Y-50950772D01*
X124688671Y-50998391D01*
X124879147Y-50998391D01*
X124974385Y-50950772D01*
X125022004Y-50903153D01*
X125069623Y-50807915D01*
X125069623Y-49998391D01*
X125498195Y-50093630D02*
X125545814Y-50046011D01*
X125641052Y-49998391D01*
X125879147Y-49998391D01*
X125974385Y-50046011D01*
X126022004Y-50093630D01*
X126069623Y-50188868D01*
X126069623Y-50284106D01*
X126022004Y-50426963D01*
X125450576Y-50998391D01*
X126069623Y-50998391D01*
X84493195Y-49998391D02*
X84493195Y-50807915D01*
X84540814Y-50903153D01*
X84588433Y-50950772D01*
X84683671Y-50998391D01*
X84874147Y-50998391D01*
X84969385Y-50950772D01*
X85017004Y-50903153D01*
X85064623Y-50807915D01*
X85064623Y-49998391D01*
X86064623Y-50998391D02*
X85493195Y-50998391D01*
X85778909Y-50998391D02*
X85778909Y-49998391D01*
X85683671Y-50141249D01*
X85588433Y-50236487D01*
X85493195Y-50284106D01*
X75692095Y-152804761D02*
X75834952Y-152852380D01*
X76073047Y-152852380D01*
X76168285Y-152804761D01*
X76215904Y-152757142D01*
X76263523Y-152661904D01*
X76263523Y-152566666D01*
X76215904Y-152471428D01*
X76168285Y-152423809D01*
X76073047Y-152376190D01*
X75882571Y-152328571D01*
X75787333Y-152280952D01*
X75739714Y-152233333D01*
X75692095Y-152138095D01*
X75692095Y-152042857D01*
X75739714Y-151947619D01*
X75787333Y-151900000D01*
X75882571Y-151852380D01*
X76120666Y-151852380D01*
X76263523Y-151900000D01*
X77120666Y-152185714D02*
X77120666Y-152852380D01*
X76882571Y-151804761D02*
X76644476Y-152519047D01*
X77263523Y-152519047D01*
X124498195Y-36663391D02*
X124498195Y-37472915D01*
X124545814Y-37568153D01*
X124593433Y-37615772D01*
X124688671Y-37663391D01*
X124879147Y-37663391D01*
X124974385Y-37615772D01*
X125022004Y-37568153D01*
X125069623Y-37472915D01*
X125069623Y-36663391D01*
X125974385Y-36663391D02*
X125783909Y-36663391D01*
X125688671Y-36711011D01*
X125641052Y-36758630D01*
X125545814Y-36901487D01*
X125498195Y-37091963D01*
X125498195Y-37472915D01*
X125545814Y-37568153D01*
X125593433Y-37615772D01*
X125688671Y-37663391D01*
X125879147Y-37663391D01*
X125974385Y-37615772D01*
X126022004Y-37568153D01*
X126069623Y-37472915D01*
X126069623Y-37234820D01*
X126022004Y-37139582D01*
X125974385Y-37091963D01*
X125879147Y-37044344D01*
X125688671Y-37044344D01*
X125593433Y-37091963D01*
X125545814Y-37139582D01*
X125498195Y-37234820D01*
X83858195Y-36663391D02*
X83858195Y-37472915D01*
X83905814Y-37568153D01*
X83953433Y-37615772D01*
X84048671Y-37663391D01*
X84239147Y-37663391D01*
X84334385Y-37615772D01*
X84382004Y-37568153D01*
X84429623Y-37472915D01*
X84429623Y-36663391D01*
X85382004Y-36663391D02*
X84905814Y-36663391D01*
X84858195Y-37139582D01*
X84905814Y-37091963D01*
X85001052Y-37044344D01*
X85239147Y-37044344D01*
X85334385Y-37091963D01*
X85382004Y-37139582D01*
X85429623Y-37234820D01*
X85429623Y-37472915D01*
X85382004Y-37568153D01*
X85334385Y-37615772D01*
X85239147Y-37663391D01*
X85001052Y-37663391D01*
X84905814Y-37615772D01*
X84858195Y-37568153D01*
X113792095Y-133754761D02*
X113934952Y-133802380D01*
X114173047Y-133802380D01*
X114268285Y-133754761D01*
X114315904Y-133707142D01*
X114363523Y-133611904D01*
X114363523Y-133516666D01*
X114315904Y-133421428D01*
X114268285Y-133373809D01*
X114173047Y-133326190D01*
X113982571Y-133278571D01*
X113887333Y-133230952D01*
X113839714Y-133183333D01*
X113792095Y-133088095D01*
X113792095Y-132992857D01*
X113839714Y-132897619D01*
X113887333Y-132850000D01*
X113982571Y-132802380D01*
X114220666Y-132802380D01*
X114363523Y-132850000D01*
X114839714Y-133802380D02*
X115030190Y-133802380D01*
X115125428Y-133754761D01*
X115173047Y-133707142D01*
X115268285Y-133564285D01*
X115315904Y-133373809D01*
X115315904Y-132992857D01*
X115268285Y-132897619D01*
X115220666Y-132850000D01*
X115125428Y-132802380D01*
X114934952Y-132802380D01*
X114839714Y-132850000D01*
X114792095Y-132897619D01*
X114744476Y-132992857D01*
X114744476Y-133230952D01*
X114792095Y-133326190D01*
X114839714Y-133373809D01*
X114934952Y-133421428D01*
X115125428Y-133421428D01*
X115220666Y-133373809D01*
X115268285Y-133326190D01*
X115315904Y-133230952D01*
X127190666Y-92098761D02*
X127333523Y-92146380D01*
X127571619Y-92146380D01*
X127666857Y-92098761D01*
X127714476Y-92051142D01*
X127762095Y-91955904D01*
X127762095Y-91860666D01*
X127714476Y-91765428D01*
X127666857Y-91717809D01*
X127571619Y-91670190D01*
X127381142Y-91622571D01*
X127285904Y-91574952D01*
X127238285Y-91527333D01*
X127190666Y-91432095D01*
X127190666Y-91336857D01*
X127238285Y-91241619D01*
X127285904Y-91194000D01*
X127381142Y-91146380D01*
X127619238Y-91146380D01*
X127762095Y-91194000D01*
X128095428Y-91146380D02*
X128333523Y-92146380D01*
X128524000Y-91432095D01*
X128714476Y-92146380D01*
X128952571Y-91146380D01*
X129857333Y-92146380D02*
X129285904Y-92146380D01*
X129571619Y-92146380D02*
X129571619Y-91146380D01*
X129476380Y-91289238D01*
X129381142Y-91384476D01*
X129285904Y-91432095D01*
X113315904Y-114704761D02*
X113458761Y-114752380D01*
X113696857Y-114752380D01*
X113792095Y-114704761D01*
X113839714Y-114657142D01*
X113887333Y-114561904D01*
X113887333Y-114466666D01*
X113839714Y-114371428D01*
X113792095Y-114323809D01*
X113696857Y-114276190D01*
X113506380Y-114228571D01*
X113411142Y-114180952D01*
X113363523Y-114133333D01*
X113315904Y-114038095D01*
X113315904Y-113942857D01*
X113363523Y-113847619D01*
X113411142Y-113800000D01*
X113506380Y-113752380D01*
X113744476Y-113752380D01*
X113887333Y-113800000D01*
X114839714Y-114752380D02*
X114268285Y-114752380D01*
X114554000Y-114752380D02*
X114554000Y-113752380D01*
X114458761Y-113895238D01*
X114363523Y-113990476D01*
X114268285Y-114038095D01*
X115173047Y-113752380D02*
X115792095Y-113752380D01*
X115458761Y-114133333D01*
X115601619Y-114133333D01*
X115696857Y-114180952D01*
X115744476Y-114228571D01*
X115792095Y-114323809D01*
X115792095Y-114561904D01*
X115744476Y-114657142D01*
X115696857Y-114704761D01*
X115601619Y-114752380D01*
X115315904Y-114752380D01*
X115220666Y-114704761D01*
X115173047Y-114657142D01*
X139366666Y-68464180D02*
X139366666Y-69178466D01*
X139319047Y-69321323D01*
X139223809Y-69416561D01*
X139080952Y-69464180D01*
X138985714Y-69464180D01*
X140271428Y-68797514D02*
X140271428Y-69464180D01*
X140033333Y-68416561D02*
X139795238Y-69130847D01*
X140414285Y-69130847D01*
X94265904Y-152804761D02*
X94408761Y-152852380D01*
X94646857Y-152852380D01*
X94742095Y-152804761D01*
X94789714Y-152757142D01*
X94837333Y-152661904D01*
X94837333Y-152566666D01*
X94789714Y-152471428D01*
X94742095Y-152423809D01*
X94646857Y-152376190D01*
X94456380Y-152328571D01*
X94361142Y-152280952D01*
X94313523Y-152233333D01*
X94265904Y-152138095D01*
X94265904Y-152042857D01*
X94313523Y-151947619D01*
X94361142Y-151900000D01*
X94456380Y-151852380D01*
X94694476Y-151852380D01*
X94837333Y-151900000D01*
X95789714Y-152852380D02*
X95218285Y-152852380D01*
X95504000Y-152852380D02*
X95504000Y-151852380D01*
X95408761Y-151995238D01*
X95313523Y-152090476D01*
X95218285Y-152138095D01*
X96646857Y-151852380D02*
X96456380Y-151852380D01*
X96361142Y-151900000D01*
X96313523Y-151947619D01*
X96218285Y-152090476D01*
X96170666Y-152280952D01*
X96170666Y-152661904D01*
X96218285Y-152757142D01*
X96265904Y-152804761D01*
X96361142Y-152852380D01*
X96551619Y-152852380D01*
X96646857Y-152804761D01*
X96694476Y-152757142D01*
X96742095Y-152661904D01*
X96742095Y-152423809D01*
X96694476Y-152328571D01*
X96646857Y-152280952D01*
X96551619Y-152233333D01*
X96361142Y-152233333D01*
X96265904Y-152280952D01*
X96218285Y-152328571D01*
X96170666Y-152423809D01*
X140373195Y-161920180D02*
X140373195Y-160920180D01*
X140373195Y-161396371D02*
X140944623Y-161396371D01*
X140944623Y-161920180D02*
X140944623Y-160920180D01*
X141325576Y-160920180D02*
X141944623Y-160920180D01*
X141611290Y-161301133D01*
X141754147Y-161301133D01*
X141849385Y-161348752D01*
X141897004Y-161396371D01*
X141944623Y-161491609D01*
X141944623Y-161729704D01*
X141897004Y-161824942D01*
X141849385Y-161872561D01*
X141754147Y-161920180D01*
X141468433Y-161920180D01*
X141373195Y-161872561D01*
X141325576Y-161824942D01*
X132842095Y-133754761D02*
X132984952Y-133802380D01*
X133223047Y-133802380D01*
X133318285Y-133754761D01*
X133365904Y-133707142D01*
X133413523Y-133611904D01*
X133413523Y-133516666D01*
X133365904Y-133421428D01*
X133318285Y-133373809D01*
X133223047Y-133326190D01*
X133032571Y-133278571D01*
X132937333Y-133230952D01*
X132889714Y-133183333D01*
X132842095Y-133088095D01*
X132842095Y-132992857D01*
X132889714Y-132897619D01*
X132937333Y-132850000D01*
X133032571Y-132802380D01*
X133270666Y-132802380D01*
X133413523Y-132850000D01*
X134318285Y-132802380D02*
X133842095Y-132802380D01*
X133794476Y-133278571D01*
X133842095Y-133230952D01*
X133937333Y-133183333D01*
X134175428Y-133183333D01*
X134270666Y-133230952D01*
X134318285Y-133278571D01*
X134365904Y-133373809D01*
X134365904Y-133611904D01*
X134318285Y-133707142D01*
X134270666Y-133754761D01*
X134175428Y-133802380D01*
X133937333Y-133802380D01*
X133842095Y-133754761D01*
X133794476Y-133707142D01*
X69516666Y-68210180D02*
X69516666Y-68924466D01*
X69469047Y-69067323D01*
X69373809Y-69162561D01*
X69230952Y-69210180D01*
X69135714Y-69210180D01*
X69945238Y-68305419D02*
X69992857Y-68257800D01*
X70088095Y-68210180D01*
X70326190Y-68210180D01*
X70421428Y-68257800D01*
X70469047Y-68305419D01*
X70516666Y-68400657D01*
X70516666Y-68495895D01*
X70469047Y-68638752D01*
X69897619Y-69210180D01*
X70516666Y-69210180D01*
X132842095Y-152804761D02*
X132984952Y-152852380D01*
X133223047Y-152852380D01*
X133318285Y-152804761D01*
X133365904Y-152757142D01*
X133413523Y-152661904D01*
X133413523Y-152566666D01*
X133365904Y-152471428D01*
X133318285Y-152423809D01*
X133223047Y-152376190D01*
X133032571Y-152328571D01*
X132937333Y-152280952D01*
X132889714Y-152233333D01*
X132842095Y-152138095D01*
X132842095Y-152042857D01*
X132889714Y-151947619D01*
X132937333Y-151900000D01*
X133032571Y-151852380D01*
X133270666Y-151852380D01*
X133413523Y-151900000D01*
X134365904Y-152852380D02*
X133794476Y-152852380D01*
X134080190Y-152852380D02*
X134080190Y-151852380D01*
X133984952Y-151995238D01*
X133889714Y-152090476D01*
X133794476Y-152138095D01*
X104154385Y-80243371D02*
X104297242Y-80290990D01*
X104344861Y-80338609D01*
X104392480Y-80433847D01*
X104392480Y-80576704D01*
X104344861Y-80671942D01*
X104297242Y-80719561D01*
X104202004Y-80767180D01*
X103821052Y-80767180D01*
X103821052Y-79767180D01*
X104154385Y-79767180D01*
X104249623Y-79814800D01*
X104297242Y-79862419D01*
X104344861Y-79957657D01*
X104344861Y-80052895D01*
X104297242Y-80148133D01*
X104249623Y-80195752D01*
X104154385Y-80243371D01*
X103821052Y-80243371D01*
X104678195Y-79767180D02*
X105249623Y-79767180D01*
X104963909Y-80767180D02*
X104963909Y-79767180D01*
X106106766Y-80767180D02*
X105535338Y-80767180D01*
X105821052Y-80767180D02*
X105821052Y-79767180D01*
X105725814Y-79910038D01*
X105630576Y-80005276D01*
X105535338Y-80052895D01*
X93295671Y-74214942D02*
X94438528Y-74214942D01*
X93867100Y-74786371D02*
X93867100Y-73643514D01*
X132205671Y-74214942D02*
X133348528Y-74214942D01*
X115695671Y-86914942D02*
X116838528Y-86914942D01*
X116267100Y-87486371D02*
X116267100Y-86343514D01*
X93295671Y-86914942D02*
X94438528Y-86914942D01*
X132205671Y-86914942D02*
X133348528Y-86914942D01*
X132777100Y-87486371D02*
X132777100Y-86343514D01*
X115695671Y-74214942D02*
X116838528Y-74214942D01*
X132842095Y-114704761D02*
X132984952Y-114752380D01*
X133223047Y-114752380D01*
X133318285Y-114704761D01*
X133365904Y-114657142D01*
X133413523Y-114561904D01*
X133413523Y-114466666D01*
X133365904Y-114371428D01*
X133318285Y-114323809D01*
X133223047Y-114276190D01*
X133032571Y-114228571D01*
X132937333Y-114180952D01*
X132889714Y-114133333D01*
X132842095Y-114038095D01*
X132842095Y-113942857D01*
X132889714Y-113847619D01*
X132937333Y-113800000D01*
X133032571Y-113752380D01*
X133270666Y-113752380D01*
X133413523Y-113800000D01*
X134270666Y-113752380D02*
X134080190Y-113752380D01*
X133984952Y-113800000D01*
X133937333Y-113847619D01*
X133842095Y-113990476D01*
X133794476Y-114180952D01*
X133794476Y-114561904D01*
X133842095Y-114657142D01*
X133889714Y-114704761D01*
X133984952Y-114752380D01*
X134175428Y-114752380D01*
X134270666Y-114704761D01*
X134318285Y-114657142D01*
X134365904Y-114561904D01*
X134365904Y-114323809D01*
X134318285Y-114228571D01*
X134270666Y-114180952D01*
X134175428Y-114133333D01*
X133984952Y-114133333D01*
X133889714Y-114180952D01*
X133842095Y-114228571D01*
X133794476Y-114323809D01*
D13*
X69469000Y-134239000D02*
X83439000Y-134239000D01*
X83439000Y-134239000D02*
X83439000Y-148209000D01*
X69469000Y-148209000D02*
X69469000Y-134239000D01*
X83439000Y-148209000D02*
X69469000Y-148209000D01*
X102489000Y-148209000D02*
X88519000Y-148209000D01*
X102489000Y-134239000D02*
X102489000Y-148209000D01*
X88519000Y-148209000D02*
X88519000Y-134239000D01*
X88519000Y-134239000D02*
X102489000Y-134239000D01*
X83439000Y-96139000D02*
X83439000Y-110109000D01*
X83439000Y-110109000D02*
X69469000Y-110109000D01*
X69469000Y-96139000D02*
X83439000Y-96139000D01*
X69469000Y-110109000D02*
X69469000Y-96139000D01*
X83439000Y-115189000D02*
X83439000Y-129159000D01*
X69469000Y-129159000D02*
X69469000Y-115189000D01*
X69469000Y-115189000D02*
X83439000Y-115189000D01*
X83439000Y-129159000D02*
X69469000Y-129159000D01*
X88519000Y-115189000D02*
X102489000Y-115189000D01*
X102489000Y-115189000D02*
X102489000Y-129159000D01*
X102489000Y-129159000D02*
X88519000Y-129159000D01*
X88519000Y-129159000D02*
X88519000Y-115189000D01*
X102489000Y-110109000D02*
X88519000Y-110109000D01*
X102489000Y-96139000D02*
X102489000Y-110109000D01*
X88519000Y-96139000D02*
X102489000Y-96139000D01*
X88519000Y-110109000D02*
X88519000Y-96139000D01*
X107569000Y-110109000D02*
X107569000Y-96139000D01*
X121539000Y-110109000D02*
X107569000Y-110109000D01*
X107569000Y-96139000D02*
X121539000Y-96139000D01*
X121539000Y-96139000D02*
X121539000Y-110109000D01*
X121539000Y-153289000D02*
X121539000Y-167259000D01*
X107569000Y-167259000D02*
X107569000Y-153289000D01*
X107569000Y-153289000D02*
X121539000Y-153289000D01*
X121539000Y-167259000D02*
X107569000Y-167259000D01*
X104916100Y-56692011D02*
X145096100Y-56692011D01*
X145096100Y-43892011D02*
X104916100Y-43892011D01*
X145096100Y-56692011D02*
X145096100Y-43892011D01*
X104916100Y-56692011D02*
X104916100Y-43892011D01*
X104964100Y-56692011D02*
X104964100Y-43892011D01*
X64784100Y-56692011D02*
X104964100Y-56692011D01*
X64784100Y-56692011D02*
X64784100Y-43892011D01*
X104964100Y-43892011D02*
X64784100Y-43892011D01*
X69469000Y-167259000D02*
X69469000Y-153289000D01*
X69469000Y-153289000D02*
X83439000Y-153289000D01*
X83439000Y-153289000D02*
X83439000Y-167259000D01*
X83439000Y-167259000D02*
X69469000Y-167259000D01*
X104916100Y-43611011D02*
X145096100Y-43611011D01*
X145096100Y-30811011D02*
X104916100Y-30811011D01*
X104916100Y-43611011D02*
X104916100Y-30811011D01*
X145096100Y-43611011D02*
X145096100Y-30811011D01*
X64784100Y-43611011D02*
X64784100Y-30811011D01*
X104964100Y-43611011D02*
X104964100Y-30811011D01*
X64784100Y-43611011D02*
X104964100Y-43611011D01*
X104964100Y-30811011D02*
X64784100Y-30811011D01*
X107569000Y-134239000D02*
X121539000Y-134239000D01*
X121539000Y-134239000D02*
X121539000Y-148209000D01*
X107569000Y-148209000D02*
X107569000Y-134239000D01*
X121539000Y-148209000D02*
X107569000Y-148209000D01*
X107569000Y-115189000D02*
X121539000Y-115189000D01*
X121539000Y-115189000D02*
X121539000Y-129159000D01*
X121539000Y-129159000D02*
X107569000Y-129159000D01*
X107569000Y-129159000D02*
X107569000Y-115189000D01*
D14*
X139325000Y-57447000D02*
X137325000Y-57447000D01*
X139325000Y-59647000D02*
X137325000Y-59647000D01*
X67575000Y-59647000D02*
X65575000Y-59647000D01*
X67575000Y-57447000D02*
X65575000Y-57447000D01*
X96275000Y-59647000D02*
X94275000Y-59647000D01*
X96275000Y-57447000D02*
X94275000Y-57447000D01*
D13*
X140910000Y-70027800D02*
X143570000Y-70027800D01*
X140910000Y-68757800D02*
X140910000Y-67427800D01*
X143570000Y-70027800D02*
X143570000Y-90407800D01*
X140910000Y-90407800D02*
X143570000Y-90407800D01*
X140910000Y-70027800D02*
X140910000Y-90407800D01*
X140910000Y-67427800D02*
X142240000Y-67427800D01*
X88519000Y-153289000D02*
X102489000Y-153289000D01*
X88519000Y-167259000D02*
X88519000Y-153289000D01*
X102489000Y-153289000D02*
X102489000Y-167259000D01*
X102489000Y-167259000D02*
X88519000Y-167259000D01*
D14*
X81925000Y-63457000D02*
X79925000Y-63457000D01*
X81925000Y-61257000D02*
X79925000Y-61257000D01*
X139325000Y-61257000D02*
X137325000Y-61257000D01*
X139325000Y-63457000D02*
X137325000Y-63457000D01*
X67575000Y-63457000D02*
X65575000Y-63457000D01*
X67575000Y-61257000D02*
X65575000Y-61257000D01*
X110625000Y-61257000D02*
X108625000Y-61257000D01*
X110625000Y-63457000D02*
X108625000Y-63457000D01*
X81925000Y-57447000D02*
X79925000Y-57447000D01*
X81925000Y-59647000D02*
X79925000Y-59647000D01*
X110625000Y-57447000D02*
X108625000Y-57447000D01*
X110625000Y-59647000D02*
X108625000Y-59647000D01*
D13*
X126619000Y-134239000D02*
X140589000Y-134239000D01*
X126619000Y-148209000D02*
X126619000Y-134239000D01*
X140589000Y-134239000D02*
X140589000Y-148209000D01*
X140589000Y-148209000D02*
X126619000Y-148209000D01*
D14*
X124975000Y-57447000D02*
X122975000Y-57447000D01*
X124975000Y-59647000D02*
X122975000Y-59647000D01*
D13*
X66234000Y-70027800D02*
X66234000Y-90407800D01*
X66234000Y-67427800D02*
X67564000Y-67427800D01*
X66234000Y-68757800D02*
X66234000Y-67427800D01*
X66234000Y-90407800D02*
X68894000Y-90407800D01*
X66234000Y-70027800D02*
X68894000Y-70027800D01*
X68894000Y-70027800D02*
X68894000Y-90407800D01*
X144087911Y-104317800D02*
X144087911Y-104952800D01*
X144087911Y-104952800D02*
X143452911Y-104952800D01*
X126619000Y-167259000D02*
X126619000Y-153289000D01*
X140589000Y-167259000D02*
X126619000Y-167259000D01*
X140589000Y-153289000D02*
X140589000Y-167259000D01*
X126619000Y-153289000D02*
X140589000Y-153289000D01*
D14*
X96275000Y-61257000D02*
X94275000Y-61257000D01*
X96275000Y-63457000D02*
X94275000Y-63457000D01*
D13*
X82437100Y-69027800D02*
X82437100Y-70297800D01*
X82437100Y-91887800D02*
X82437100Y-90617800D01*
X82437100Y-90617800D02*
X95137100Y-90617800D01*
X96407100Y-72837800D02*
X96407100Y-71567800D01*
X95137100Y-91887800D02*
X114997100Y-91887800D01*
X127697100Y-70297800D02*
X114997100Y-70297800D01*
X113727100Y-85537800D02*
X114997100Y-85537800D01*
X127697100Y-90617800D02*
X114997100Y-90617800D01*
X95137100Y-89347800D02*
X95137100Y-84267800D01*
X96407100Y-75377800D02*
X95137100Y-75377800D01*
X79897100Y-91887800D02*
X79897100Y-69027800D01*
X114997100Y-85537800D02*
X114997100Y-88077800D01*
X95137100Y-84267800D02*
X113727100Y-84267800D01*
X107377100Y-80107800D02*
X130237100Y-80107800D01*
X107377100Y-80807800D02*
X107377100Y-80107800D01*
X114997100Y-76647800D02*
X96407100Y-76647800D01*
X130237100Y-80807800D02*
X107377100Y-80807800D01*
X79897100Y-80807800D02*
X100217100Y-80807800D01*
X95137100Y-90617800D02*
X95137100Y-91887800D01*
X96407100Y-76647800D02*
X96407100Y-75377800D01*
X127697100Y-69027800D02*
X127697100Y-70297800D01*
X114997100Y-88077800D02*
X113727100Y-88077800D01*
X113727100Y-88077800D02*
X113727100Y-89347800D01*
X100217100Y-80107800D02*
X79897100Y-80107800D01*
X114997100Y-71567800D02*
X114997100Y-76647800D01*
X79897100Y-91887800D02*
X82437100Y-91887800D01*
X131667100Y-68052800D02*
X78467100Y-68052800D01*
X113727100Y-89347800D02*
X95137100Y-89347800D01*
X95137100Y-69027800D02*
X95137100Y-70297800D01*
X114997100Y-91887800D02*
X114997100Y-90617800D01*
X130237100Y-69027800D02*
X127697100Y-69027800D01*
X95137100Y-72837800D02*
X96407100Y-72837800D01*
X100217100Y-80807800D02*
X100217100Y-80107800D01*
X78467100Y-92862800D02*
X131667100Y-92862800D01*
X127697100Y-91887800D02*
X130237100Y-91887800D01*
X96407100Y-71567800D02*
X114997100Y-71567800D01*
X95137100Y-75377800D02*
X95137100Y-72837800D01*
X131667100Y-92857800D02*
X131667100Y-68057800D01*
X79897100Y-69027800D02*
X82437100Y-69027800D01*
X114997100Y-69027800D02*
X95137100Y-69027800D01*
X130237100Y-91887800D02*
X130237100Y-69027800D01*
X78467100Y-68057800D02*
X78467100Y-92857800D01*
X114997100Y-70297800D02*
X114997100Y-69027800D01*
X113727100Y-84267800D02*
X113727100Y-85537800D01*
X127697100Y-90617800D02*
X127697100Y-91887800D01*
X82437100Y-70297800D02*
X95137100Y-70297800D01*
X126619000Y-115189000D02*
X140589000Y-115189000D01*
X126619000Y-129159000D02*
X126619000Y-115189000D01*
X140589000Y-129159000D02*
X126619000Y-129159000D01*
X140589000Y-115189000D02*
X140589000Y-129159000D01*
D14*
X124975000Y-63457000D02*
X122975000Y-63457000D01*
X124975000Y-61257000D02*
X122975000Y-61257000D01*
M02*
