G04 #@! TF.GenerationSoftware,KiCad,Pcbnew,(5.99.0-13010-g08938463f1)*
G04 #@! TF.CreationDate,2021-12-12T23:41:20-05:00*
G04 #@! TF.ProjectId,unitron,756e6974-726f-46e2-9e6b-696361645f70,1.9*
G04 #@! TF.SameCoordinates,Original*
G04 #@! TF.FileFunction,Paste,Top*
G04 #@! TF.FilePolarity,Positive*
%FSLAX46Y46*%
G04 Gerber Fmt 4.6, Leading zero omitted, Abs format (unit mm)*
G04 Created by KiCad (PCBNEW (5.99.0-13010-g08938463f1)) date 2021-12-12 23:41:20*
%MOMM*%
%LPD*%
G01*
G04 APERTURE LIST*
G04 Aperture macros list*
%AMRoundRect*
0 Rectangle with rounded corners*
0 $1 Rounding radius*
0 $2 $3 $4 $5 $6 $7 $8 $9 X,Y pos of 4 corners*
0 Add a 4 corners polygon primitive as box body*
4,1,4,$2,$3,$4,$5,$6,$7,$8,$9,$2,$3,0*
0 Add four circle primitives for the rounded corners*
1,1,$1+$1,$2,$3*
1,1,$1+$1,$4,$5*
1,1,$1+$1,$6,$7*
1,1,$1+$1,$8,$9*
0 Add four rect primitives between the rounded corners*
20,1,$1+$1,$2,$3,$4,$5,0*
20,1,$1+$1,$4,$5,$6,$7,0*
20,1,$1+$1,$6,$7,$8,$9,0*
20,1,$1+$1,$8,$9,$2,$3,0*%
G04 Aperture macros list end*
%ADD10R,1.500000X1.000000*%
%ADD11RoundRect,0.243750X0.456250X-0.243750X0.456250X0.243750X-0.456250X0.243750X-0.456250X-0.243750X0*%
G04 APERTURE END LIST*
D10*
X97975400Y-56546173D03*
X97975400Y-59746173D03*
X102875400Y-59746173D03*
X102875400Y-56546173D03*
X65175400Y-50917746D03*
X65175400Y-54117746D03*
X70075400Y-54117746D03*
X70075400Y-50917746D03*
X115575400Y-56546173D03*
X115575400Y-59746173D03*
X120475400Y-59746173D03*
X120475400Y-56546173D03*
D11*
X141025400Y-112392700D03*
X141025400Y-110517700D03*
D10*
X131575400Y-50917746D03*
X131575400Y-54117746D03*
X136475400Y-54117746D03*
X136475400Y-50917746D03*
X83775400Y-56546173D03*
X83775400Y-59746173D03*
X88675400Y-59746173D03*
X88675400Y-56546173D03*
X115575400Y-50917746D03*
X115575400Y-54117746D03*
X120475400Y-54117746D03*
X120475400Y-50917746D03*
X97975400Y-50917746D03*
X97975400Y-54117746D03*
X102875400Y-54117746D03*
X102875400Y-50917746D03*
X83775400Y-50917746D03*
X83775400Y-54117746D03*
X88675400Y-54117746D03*
X88675400Y-50917746D03*
X131575411Y-56546163D03*
X131575411Y-59746163D03*
X136475411Y-59746163D03*
X136475411Y-56546163D03*
X65175400Y-56546173D03*
X65175400Y-59746173D03*
X70075400Y-59746173D03*
X70075400Y-56546173D03*
M02*
