M48
; DRILL file {KiCad (5.99.0-9142-g8663153ef8)} date Monday, March 08, 2021 at 11:27:07 PM
; FORMAT={-:-/ absolute / inch / decimal}
; #@! TF.CreationDate,2021-03-08T23:27:07-05:00
; #@! TF.GenerationSoftware,Kicad,Pcbnew,(5.99.0-9142-g8663153ef8)
; #@! TF.FileFunction,Plated,1,2,PTH
FMAT,2
INCH
T1C0.0138
T2C0.0157
T3C0.0394
T4C0.0433
T5C0.0591
T6C0.0709
T7C0.1673
T8C0.1673
%
G90
G05
T1
X2.5679Y-2.1565
X2.666Y-2.039
X2.9045Y-1.0258
X2.9645Y-1.2358
X3.0645Y-1.1158
X3.0645Y-1.6608
X3.1045Y-1.2058
X3.1245Y-1.5608
X3.1545Y-1.0958
X3.1645Y-1.1758
X3.1745Y-1.5608
X3.2545Y-1.5108
X3.3145Y-1.6108
X3.3645Y-1.1558
X3.4245Y-0.9958
X3.4445Y-1.6208
X3.4538Y-1.0558
X3.4547Y-1.658
X3.4595Y-1.5658
X3.5545Y-1.6708
X3.5645Y-1.1558
X3.6645Y-1.1558
X3.7345Y-1.3058
X3.736Y-1.389
X3.7645Y-1.8408
X3.7818Y-1.3374
X3.7845Y-0.9658
X3.8245Y-1.7508
X3.8295Y-3.975
X3.8445Y-1.2608
X3.8884Y-1.5708
X3.913Y-1.1208
X3.916Y-1.4968
X3.9243Y-1.744
X3.9445Y-3.675
X3.9445Y-3.75
X3.9516Y-1.397
X3.9545Y-1.2881
X3.9545Y-1.8208
X3.958Y-1.1108
X3.9743Y-1.6436
X3.9745Y-4.015
X3.9845Y-0.9358
X3.9845Y-1.848
X3.9945Y-1.3158
X4.0145Y-1.6508
X4.018Y-3.103
X4.0357Y-1.3366
X4.0445Y-0.8958
X4.0445Y-1.6308
X4.0445Y-1.8508
X4.0648Y-1.558
X4.073Y-1.1558
X4.0841Y-1.6236
X4.0845Y-1.6608
X4.0876Y-3.7785
X4.1049Y-1.1654
X4.1178Y-0.9241
X4.1195Y-3.395
X4.1245Y-1.2708
X4.1345Y-1.1358
X4.1364Y-1.4436
X4.1422Y-1.564
X4.1629Y-0.9118
X4.1665Y-3.738
X4.1702Y-1.0681
X4.1945Y-1.5708
X4.1948Y-1.4608
X4.2045Y-1.7808
X4.2145Y-0.9158
X4.2145Y-1.2708
X4.2245Y-1.1158
X4.2355Y-1.5654
X4.2447Y-1.6236
X4.2595Y-3.3108
X4.2745Y-1.4436
X4.2746Y-1.5109
X4.2845Y-0.9458
X4.2845Y-1.6776
X4.3145Y-1.4508
X4.3595Y-3.99
X4.4045Y-4.035
X4.4145Y-3.8698
X4.4845Y-1.8108
X4.4945Y-1.1458
X4.4945Y-1.2608
X4.5245Y-1.6508
X4.5345Y-1.5608
X4.5345Y-1.6908
X4.5372Y-0.988
X4.5945Y-1.1581
X4.5945Y-1.5908
X4.5979Y-3.7933
X4.6195Y-3.53
X4.6345Y-1.5708
X4.6501Y-1.063
X4.7345Y-1.1158
X4.7345Y-1.5308
X4.8345Y-1.2236
X4.9945Y-1.1058
X5.0345Y-1.5508
X5.0369Y-1.7206
X5.0545Y-1.0008
X5.068Y-4.003
X5.1345Y-1.1958
X5.1445Y-1.6508
X5.193Y-3.903
X5.2345Y-1.0758
X5.2445Y-1.5308
X5.3002Y-2.0482
X5.428Y-4.078
X5.433Y-1.4658
T2
X2.691Y-1.674
X2.691Y-1.819
X2.736Y-1.624
X2.756Y-1.854
X2.758Y-1.4308
X2.766Y-1.344
X2.781Y-1.514
X2.7963Y-3.3612
X2.998Y-1.7266
X3.0495Y-3.3061
X3.0495Y-3.8237
X3.1585Y-1.9833
X3.2995Y-2.9653
X3.2995Y-4.06
X3.3995Y-3.635
X3.5745Y-3.86
X3.678Y-3.318
X3.7648Y-1.9675
X3.798Y-1.4248
X3.9958Y-3.218
X4.0245Y-5.76
X4.042Y-1.4308
X4.0695Y-3.875
X4.1191Y-3.873
X4.1538Y-3.5438
X4.188Y-3.098
X4.2179Y-3.7933
X4.4656Y-1.9754
X4.538Y-3.348
X4.6179Y-3.7133
X4.7679Y-3.4933
X4.8479Y-3.6933
X4.923Y-4.103
X4.943Y-3.228
X4.988Y-4.273
X4.993Y-4.028
X5.023Y-4.103
X5.028Y-4.463
X5.064Y-1.9754
X5.0797Y-3.0462
X5.1112Y-2.999
X5.2923Y-1.9754
X5.3317Y-1.8494
X5.3845Y-4.515
X5.416Y-1.7908
X5.421Y-1.334
X5.443Y-3.678
X5.443Y-3.753
X5.448Y-3.838
X5.451Y-0.989
X5.481Y-2.159
X5.486Y-1.529
X5.576Y-1.669
X5.591Y-1.399
T3
X2.628Y-2.874
X2.628Y-2.974
X2.628Y-3.074
X2.628Y-3.174
X2.628Y-3.274
X2.628Y-3.374
X2.628Y-3.474
X2.628Y-3.574
X2.628Y-3.674
X2.628Y-3.774
X2.9595Y-0.9158
X2.9595Y-1.3158
X2.9595Y-1.4308
X2.9595Y-1.8308
X3.0595Y-0.9158
X3.0595Y-1.3158
X3.0595Y-1.4308
X3.0595Y-1.8308
X3.1595Y-0.9158
X3.1595Y-1.3158
X3.1595Y-1.4308
X3.1595Y-1.8308
X3.2595Y-0.9158
X3.2595Y-1.3158
X3.2595Y-1.4308
X3.2595Y-1.8308
X3.3595Y-1.3158
X3.3595Y-1.8308
X3.4595Y-0.9158
X3.4595Y-1.3158
X3.4595Y-1.4308
X3.4595Y-1.8308
X3.5595Y-1.3158
X3.5595Y-1.8308
X3.6595Y-0.9158
X3.6595Y-1.3158
X3.6595Y-1.4308
X3.6595Y-1.8308
X4.5395Y-0.9158
X4.5395Y-1.3158
X4.5395Y-1.4308
X4.5395Y-1.8308
X4.6395Y-0.9158
X4.6395Y-1.3158
X4.6395Y-1.4308
X4.6395Y-1.8308
X4.7395Y-0.9158
X4.7395Y-1.3158
X4.7395Y-1.4308
X4.7395Y-1.8308
X4.8395Y-0.9158
X4.8395Y-1.3158
X4.8395Y-1.4308
X4.8395Y-1.8308
X4.9395Y-1.3158
X4.9395Y-1.8308
X5.0395Y-0.9158
X5.0395Y-1.3158
X5.0395Y-1.4308
X5.0395Y-1.8308
X5.1395Y-1.3158
X5.1395Y-1.8308
X5.2395Y-0.9158
X5.2395Y-1.3158
X5.2395Y-1.4308
X5.2395Y-1.8308
X5.568Y-2.874
X5.568Y-2.974
X5.568Y-3.074
X5.568Y-3.174
X5.568Y-3.274
X5.568Y-3.374
X5.568Y-3.474
X5.568Y-3.574
X5.568Y-3.674
X5.568Y-3.774
T4
X5.0467Y-3.21
X5.0467Y-3.71
T5
X2.828Y-4.288
X2.828Y-5.038
X2.828Y-5.788
X2.828Y-6.538
X3.078Y-4.188
X3.078Y-4.938
X3.078Y-5.688
X3.078Y-6.438
X3.578Y-4.288
X3.578Y-5.038
X3.578Y-5.788
X3.578Y-6.538
X3.828Y-4.188
X3.828Y-4.938
X3.828Y-5.688
X3.828Y-6.438
X4.328Y-4.288
X4.328Y-5.038
X4.328Y-5.788
X4.328Y-6.538
X4.578Y-4.188
X4.578Y-4.938
X4.578Y-5.688
X4.578Y-6.438
X5.078Y-5.038
X5.078Y-5.788
X5.078Y-6.538
X5.165Y-4.077
X5.165Y-4.699
X5.291Y-4.077
X5.291Y-4.699
X5.328Y-4.938
X5.328Y-5.688
X5.328Y-6.438
T6
X5.228Y-4.203
X5.228Y-4.388
X5.228Y-4.573
T7
X5.3397Y-3.1486
T8
X2.8593Y-3.1486
X2.8593Y-6.2195
X5.3397Y-6.2195
T0
M30
