G04 #@! TF.GenerationSoftware,KiCad,Pcbnew,(6.0.2-0)*
G04 #@! TF.CreationDate,2022-02-27T22:12:15-05:00*
G04 #@! TF.ProjectId,unitron,756e6974-726f-46e2-9e6b-696361645f70,1.11*
G04 #@! TF.SameCoordinates,Original*
G04 #@! TF.FileFunction,Legend,Bot*
G04 #@! TF.FilePolarity,Positive*
%FSLAX46Y46*%
G04 Gerber Fmt 4.6, Leading zero omitted, Abs format (unit mm)*
G04 Created by KiCad (PCBNEW (6.0.2-0)) date 2022-02-27 22:12:15*
%MOMM*%
%LPD*%
G01*
G04 APERTURE LIST*
%ADD10C,0.300000*%
%ADD11C,0.150000*%
%ADD12C,0.120000*%
%ADD13C,0.100000*%
G04 APERTURE END LIST*
D10*
X135892857Y-71214285D02*
X133607142Y-71214285D01*
X134750000Y-72357142D02*
X134750000Y-70071428D01*
X107107142Y-56428571D02*
X106750000Y-57428571D01*
X106392857Y-56428571D01*
X105035714Y-57428571D02*
X105892857Y-57428571D01*
X105464285Y-57428571D02*
X105464285Y-55928571D01*
X105607142Y-56142857D01*
X105750000Y-56285714D01*
X105892857Y-56357142D01*
X104392857Y-57285714D02*
X104321428Y-57357142D01*
X104392857Y-57428571D01*
X104464285Y-57357142D01*
X104392857Y-57285714D01*
X104392857Y-57428571D01*
X102892857Y-57428571D02*
X103750000Y-57428571D01*
X103321428Y-57428571D02*
X103321428Y-55928571D01*
X103464285Y-56142857D01*
X103607142Y-56285714D01*
X103750000Y-56357142D01*
X101464285Y-57428571D02*
X102321428Y-57428571D01*
X101892857Y-57428571D02*
X101892857Y-55928571D01*
X102035714Y-56142857D01*
X102178571Y-56285714D01*
X102321428Y-56357142D01*
D11*
X132790476Y-41704761D02*
X132647619Y-41752380D01*
X132409523Y-41752380D01*
X132314285Y-41704761D01*
X132266666Y-41657142D01*
X132219047Y-41561904D01*
X132219047Y-41466666D01*
X132266666Y-41371428D01*
X132314285Y-41323809D01*
X132409523Y-41276190D01*
X132600000Y-41228571D01*
X132695238Y-41180952D01*
X132742857Y-41133333D01*
X132790476Y-41038095D01*
X132790476Y-40942857D01*
X132742857Y-40847619D01*
X132695238Y-40800000D01*
X132600000Y-40752380D01*
X132361904Y-40752380D01*
X132219047Y-40800000D01*
X131219047Y-41657142D02*
X131266666Y-41704761D01*
X131409523Y-41752380D01*
X131504761Y-41752380D01*
X131647619Y-41704761D01*
X131742857Y-41609523D01*
X131790476Y-41514285D01*
X131838095Y-41323809D01*
X131838095Y-41180952D01*
X131790476Y-40990476D01*
X131742857Y-40895238D01*
X131647619Y-40800000D01*
X131504761Y-40752380D01*
X131409523Y-40752380D01*
X131266666Y-40800000D01*
X131219047Y-40847619D01*
X130314285Y-41752380D02*
X130790476Y-41752380D01*
X130790476Y-40752380D01*
X137714285Y-38404761D02*
X137571428Y-38452380D01*
X137333333Y-38452380D01*
X137238095Y-38404761D01*
X137190476Y-38357142D01*
X137142857Y-38261904D01*
X137142857Y-38166666D01*
X137190476Y-38071428D01*
X137238095Y-38023809D01*
X137333333Y-37976190D01*
X137523809Y-37928571D01*
X137619047Y-37880952D01*
X137666666Y-37833333D01*
X137714285Y-37738095D01*
X137714285Y-37642857D01*
X137666666Y-37547619D01*
X137619047Y-37500000D01*
X137523809Y-37452380D01*
X137285714Y-37452380D01*
X137142857Y-37500000D01*
X136714285Y-38452380D02*
X136714285Y-37452380D01*
X136476190Y-37452380D01*
X136333333Y-37500000D01*
X136238095Y-37595238D01*
X136190476Y-37690476D01*
X136142857Y-37880952D01*
X136142857Y-38023809D01*
X136190476Y-38214285D01*
X136238095Y-38309523D01*
X136333333Y-38404761D01*
X136476190Y-38452380D01*
X136714285Y-38452380D01*
X135761904Y-38166666D02*
X135285714Y-38166666D01*
X135857142Y-38452380D02*
X135523809Y-37452380D01*
X135190476Y-38452380D01*
X111452380Y-51333333D02*
X110976190Y-51000000D01*
X111452380Y-50761904D02*
X110452380Y-50761904D01*
X110452380Y-51142857D01*
X110500000Y-51238095D01*
X110547619Y-51285714D01*
X110642857Y-51333333D01*
X110785714Y-51333333D01*
X110880952Y-51285714D01*
X110928571Y-51238095D01*
X110976190Y-51142857D01*
X110976190Y-50761904D01*
X110785714Y-52190476D02*
X111452380Y-52190476D01*
X110404761Y-51952380D02*
X111119047Y-51714285D01*
X111119047Y-52333333D01*
X111416666Y-45952380D02*
X111750000Y-45476190D01*
X111988095Y-45952380D02*
X111988095Y-44952380D01*
X111607142Y-44952380D01*
X111511904Y-45000000D01*
X111464285Y-45047619D01*
X111416666Y-45142857D01*
X111416666Y-45285714D01*
X111464285Y-45380952D01*
X111511904Y-45428571D01*
X111607142Y-45476190D01*
X111988095Y-45476190D01*
X110559523Y-44952380D02*
X110750000Y-44952380D01*
X110845238Y-45000000D01*
X110892857Y-45047619D01*
X110988095Y-45190476D01*
X111035714Y-45380952D01*
X111035714Y-45761904D01*
X110988095Y-45857142D01*
X110940476Y-45904761D01*
X110845238Y-45952380D01*
X110654761Y-45952380D01*
X110559523Y-45904761D01*
X110511904Y-45857142D01*
X110464285Y-45761904D01*
X110464285Y-45523809D01*
X110511904Y-45428571D01*
X110559523Y-45380952D01*
X110654761Y-45333333D01*
X110845238Y-45333333D01*
X110940476Y-45380952D01*
X110988095Y-45428571D01*
X111035714Y-45523809D01*
X109702380Y-51333333D02*
X109226190Y-51000000D01*
X109702380Y-50761904D02*
X108702380Y-50761904D01*
X108702380Y-51142857D01*
X108750000Y-51238095D01*
X108797619Y-51285714D01*
X108892857Y-51333333D01*
X109035714Y-51333333D01*
X109130952Y-51285714D01*
X109178571Y-51238095D01*
X109226190Y-51142857D01*
X109226190Y-50761904D01*
X108702380Y-52238095D02*
X108702380Y-51761904D01*
X109178571Y-51714285D01*
X109130952Y-51761904D01*
X109083333Y-51857142D01*
X109083333Y-52095238D01*
X109130952Y-52190476D01*
X109178571Y-52238095D01*
X109273809Y-52285714D01*
X109511904Y-52285714D01*
X109607142Y-52238095D01*
X109654761Y-52190476D01*
X109702380Y-52095238D01*
X109702380Y-51857142D01*
X109654761Y-51761904D01*
X109607142Y-51714285D01*
X111392857Y-27602380D02*
X111726190Y-27126190D01*
X111964285Y-27602380D02*
X111964285Y-26602380D01*
X111583333Y-26602380D01*
X111488095Y-26650000D01*
X111440476Y-26697619D01*
X111392857Y-26792857D01*
X111392857Y-26935714D01*
X111440476Y-27030952D01*
X111488095Y-27078571D01*
X111583333Y-27126190D01*
X111964285Y-27126190D01*
X110440476Y-27602380D02*
X111011904Y-27602380D01*
X110726190Y-27602380D02*
X110726190Y-26602380D01*
X110821428Y-26745238D01*
X110916666Y-26840476D01*
X111011904Y-26888095D01*
X109869047Y-27030952D02*
X109964285Y-26983333D01*
X110011904Y-26935714D01*
X110059523Y-26840476D01*
X110059523Y-26792857D01*
X110011904Y-26697619D01*
X109964285Y-26650000D01*
X109869047Y-26602380D01*
X109678571Y-26602380D01*
X109583333Y-26650000D01*
X109535714Y-26697619D01*
X109488095Y-26792857D01*
X109488095Y-26840476D01*
X109535714Y-26935714D01*
X109583333Y-26983333D01*
X109678571Y-27030952D01*
X109869047Y-27030952D01*
X109964285Y-27078571D01*
X110011904Y-27126190D01*
X110059523Y-27221428D01*
X110059523Y-27411904D01*
X110011904Y-27507142D01*
X109964285Y-27554761D01*
X109869047Y-27602380D01*
X109678571Y-27602380D01*
X109583333Y-27554761D01*
X109535714Y-27507142D01*
X109488095Y-27411904D01*
X109488095Y-27221428D01*
X109535714Y-27126190D01*
X109583333Y-27078571D01*
X109678571Y-27030952D01*
X109852380Y-35980642D02*
X109376190Y-35647309D01*
X109852380Y-35409214D02*
X108852380Y-35409214D01*
X108852380Y-35790166D01*
X108900000Y-35885404D01*
X108947619Y-35933023D01*
X109042857Y-35980642D01*
X109185714Y-35980642D01*
X109280952Y-35933023D01*
X109328571Y-35885404D01*
X109376190Y-35790166D01*
X109376190Y-35409214D01*
X109852380Y-36933023D02*
X109852380Y-36361595D01*
X109852380Y-36647309D02*
X108852380Y-36647309D01*
X108995238Y-36552071D01*
X109090476Y-36456833D01*
X109138095Y-36361595D01*
X108852380Y-37266357D02*
X108852380Y-37933023D01*
X109852380Y-37504452D01*
X97977780Y-38462695D02*
X98787304Y-38462695D01*
X98882542Y-38510314D01*
X98930161Y-38557933D01*
X98977780Y-38653171D01*
X98977780Y-38843647D01*
X98930161Y-38938885D01*
X98882542Y-38986504D01*
X98787304Y-39034123D01*
X97977780Y-39034123D01*
X97977780Y-39415076D02*
X97977780Y-40034123D01*
X98358733Y-39700790D01*
X98358733Y-39843647D01*
X98406352Y-39938885D01*
X98453971Y-39986504D01*
X98549209Y-40034123D01*
X98787304Y-40034123D01*
X98882542Y-39986504D01*
X98930161Y-39938885D01*
X98977780Y-39843647D01*
X98977780Y-39557933D01*
X98930161Y-39462695D01*
X98882542Y-39415076D01*
X114942857Y-31702380D02*
X115276190Y-31226190D01*
X115514285Y-31702380D02*
X115514285Y-30702380D01*
X115133333Y-30702380D01*
X115038095Y-30750000D01*
X114990476Y-30797619D01*
X114942857Y-30892857D01*
X114942857Y-31035714D01*
X114990476Y-31130952D01*
X115038095Y-31178571D01*
X115133333Y-31226190D01*
X115514285Y-31226190D01*
X113990476Y-31702380D02*
X114561904Y-31702380D01*
X114276190Y-31702380D02*
X114276190Y-30702380D01*
X114371428Y-30845238D01*
X114466666Y-30940476D01*
X114561904Y-30988095D01*
X113133333Y-30702380D02*
X113323809Y-30702380D01*
X113419047Y-30750000D01*
X113466666Y-30797619D01*
X113561904Y-30940476D01*
X113609523Y-31130952D01*
X113609523Y-31511904D01*
X113561904Y-31607142D01*
X113514285Y-31654761D01*
X113419047Y-31702380D01*
X113228571Y-31702380D01*
X113133333Y-31654761D01*
X113085714Y-31607142D01*
X113038095Y-31511904D01*
X113038095Y-31273809D01*
X113085714Y-31178571D01*
X113133333Y-31130952D01*
X113228571Y-31083333D01*
X113419047Y-31083333D01*
X113514285Y-31130952D01*
X113561904Y-31178571D01*
X113609523Y-31273809D01*
X115977780Y-71807933D02*
X115501590Y-71474600D01*
X115977780Y-71236504D02*
X114977780Y-71236504D01*
X114977780Y-71617457D01*
X115025400Y-71712695D01*
X115073019Y-71760314D01*
X115168257Y-71807933D01*
X115311114Y-71807933D01*
X115406352Y-71760314D01*
X115453971Y-71712695D01*
X115501590Y-71617457D01*
X115501590Y-71236504D01*
X115977780Y-72284123D02*
X115977780Y-72474600D01*
X115930161Y-72569838D01*
X115882542Y-72617457D01*
X115739685Y-72712695D01*
X115549209Y-72760314D01*
X115168257Y-72760314D01*
X115073019Y-72712695D01*
X115025400Y-72665076D01*
X114977780Y-72569838D01*
X114977780Y-72379361D01*
X115025400Y-72284123D01*
X115073019Y-72236504D01*
X115168257Y-72188885D01*
X115406352Y-72188885D01*
X115501590Y-72236504D01*
X115549209Y-72284123D01*
X115596828Y-72379361D01*
X115596828Y-72569838D01*
X115549209Y-72665076D01*
X115501590Y-72712695D01*
X115406352Y-72760314D01*
X121642857Y-80452380D02*
X121976190Y-79976190D01*
X122214285Y-80452380D02*
X122214285Y-79452380D01*
X121833333Y-79452380D01*
X121738095Y-79500000D01*
X121690476Y-79547619D01*
X121642857Y-79642857D01*
X121642857Y-79785714D01*
X121690476Y-79880952D01*
X121738095Y-79928571D01*
X121833333Y-79976190D01*
X122214285Y-79976190D01*
X120690476Y-80452380D02*
X121261904Y-80452380D01*
X120976190Y-80452380D02*
X120976190Y-79452380D01*
X121071428Y-79595238D01*
X121166666Y-79690476D01*
X121261904Y-79738095D01*
X119833333Y-79785714D02*
X119833333Y-80452380D01*
X120071428Y-79404761D02*
X120309523Y-80119047D01*
X119690476Y-80119047D01*
X126587304Y-63826980D02*
X126587304Y-64636504D01*
X126539685Y-64731742D01*
X126492066Y-64779361D01*
X126396828Y-64826980D01*
X126206352Y-64826980D01*
X126111114Y-64779361D01*
X126063495Y-64731742D01*
X126015876Y-64636504D01*
X126015876Y-63826980D01*
X125063495Y-63826980D02*
X125539685Y-63826980D01*
X125587304Y-64303171D01*
X125539685Y-64255552D01*
X125444447Y-64207933D01*
X125206352Y-64207933D01*
X125111114Y-64255552D01*
X125063495Y-64303171D01*
X125015876Y-64398409D01*
X125015876Y-64636504D01*
X125063495Y-64731742D01*
X125111114Y-64779361D01*
X125206352Y-64826980D01*
X125444447Y-64826980D01*
X125539685Y-64779361D01*
X125587304Y-64731742D01*
X79982780Y-89137314D02*
X78982780Y-89137314D01*
X78982780Y-89375409D01*
X79030400Y-89518266D01*
X79125638Y-89613504D01*
X79220876Y-89661123D01*
X79411352Y-89708742D01*
X79554209Y-89708742D01*
X79744685Y-89661123D01*
X79839923Y-89613504D01*
X79935161Y-89518266D01*
X79982780Y-89375409D01*
X79982780Y-89137314D01*
X79078019Y-90089695D02*
X79030400Y-90137314D01*
X78982780Y-90232552D01*
X78982780Y-90470647D01*
X79030400Y-90565885D01*
X79078019Y-90613504D01*
X79173257Y-90661123D01*
X79268495Y-90661123D01*
X79411352Y-90613504D01*
X79982780Y-90042076D01*
X79982780Y-90661123D01*
X78982780Y-91280171D02*
X78982780Y-91375409D01*
X79030400Y-91470647D01*
X79078019Y-91518266D01*
X79173257Y-91565885D01*
X79363733Y-91613504D01*
X79601828Y-91613504D01*
X79792304Y-91565885D01*
X79887542Y-91518266D01*
X79935161Y-91470647D01*
X79982780Y-91375409D01*
X79982780Y-91280171D01*
X79935161Y-91184933D01*
X79887542Y-91137314D01*
X79792304Y-91089695D01*
X79601828Y-91042076D01*
X79363733Y-91042076D01*
X79173257Y-91089695D01*
X79078019Y-91137314D01*
X79030400Y-91184933D01*
X78982780Y-91280171D01*
X71666666Y-31452380D02*
X72000000Y-30976190D01*
X72238095Y-31452380D02*
X72238095Y-30452380D01*
X71857142Y-30452380D01*
X71761904Y-30500000D01*
X71714285Y-30547619D01*
X71666666Y-30642857D01*
X71666666Y-30785714D01*
X71714285Y-30880952D01*
X71761904Y-30928571D01*
X71857142Y-30976190D01*
X72238095Y-30976190D01*
X71333333Y-30452380D02*
X70714285Y-30452380D01*
X71047619Y-30833333D01*
X70904761Y-30833333D01*
X70809523Y-30880952D01*
X70761904Y-30928571D01*
X70714285Y-31023809D01*
X70714285Y-31261904D01*
X70761904Y-31357142D01*
X70809523Y-31404761D01*
X70904761Y-31452380D01*
X71190476Y-31452380D01*
X71285714Y-31404761D01*
X71333333Y-31357142D01*
X75142857Y-45452380D02*
X75476190Y-44976190D01*
X75714285Y-45452380D02*
X75714285Y-44452380D01*
X75333333Y-44452380D01*
X75238095Y-44500000D01*
X75190476Y-44547619D01*
X75142857Y-44642857D01*
X75142857Y-44785714D01*
X75190476Y-44880952D01*
X75238095Y-44928571D01*
X75333333Y-44976190D01*
X75714285Y-44976190D01*
X74761904Y-44547619D02*
X74714285Y-44500000D01*
X74619047Y-44452380D01*
X74380952Y-44452380D01*
X74285714Y-44500000D01*
X74238095Y-44547619D01*
X74190476Y-44642857D01*
X74190476Y-44738095D01*
X74238095Y-44880952D01*
X74809523Y-45452380D01*
X74190476Y-45452380D01*
X73857142Y-44452380D02*
X73238095Y-44452380D01*
X73571428Y-44833333D01*
X73428571Y-44833333D01*
X73333333Y-44880952D01*
X73285714Y-44928571D01*
X73238095Y-45023809D01*
X73238095Y-45261904D01*
X73285714Y-45357142D01*
X73333333Y-45404761D01*
X73428571Y-45452380D01*
X73714285Y-45452380D01*
X73809523Y-45404761D01*
X73857142Y-45357142D01*
X107107142Y-51833333D02*
X107154761Y-51785714D01*
X107202380Y-51642857D01*
X107202380Y-51547619D01*
X107154761Y-51404761D01*
X107059523Y-51309523D01*
X106964285Y-51261904D01*
X106773809Y-51214285D01*
X106630952Y-51214285D01*
X106440476Y-51261904D01*
X106345238Y-51309523D01*
X106250000Y-51404761D01*
X106202380Y-51547619D01*
X106202380Y-51642857D01*
X106250000Y-51785714D01*
X106297619Y-51833333D01*
X106202380Y-52166666D02*
X106202380Y-52785714D01*
X106583333Y-52452380D01*
X106583333Y-52595238D01*
X106630952Y-52690476D01*
X106678571Y-52738095D01*
X106773809Y-52785714D01*
X107011904Y-52785714D01*
X107107142Y-52738095D01*
X107154761Y-52690476D01*
X107202380Y-52595238D01*
X107202380Y-52309523D01*
X107154761Y-52214285D01*
X107107142Y-52166666D01*
X134866666Y-43452380D02*
X135200000Y-42976190D01*
X135438095Y-43452380D02*
X135438095Y-42452380D01*
X135057142Y-42452380D01*
X134961904Y-42500000D01*
X134914285Y-42547619D01*
X134866666Y-42642857D01*
X134866666Y-42785714D01*
X134914285Y-42880952D01*
X134961904Y-42928571D01*
X135057142Y-42976190D01*
X135438095Y-42976190D01*
X134485714Y-42547619D02*
X134438095Y-42500000D01*
X134342857Y-42452380D01*
X134104761Y-42452380D01*
X134009523Y-42500000D01*
X133961904Y-42547619D01*
X133914285Y-42642857D01*
X133914285Y-42738095D01*
X133961904Y-42880952D01*
X134533333Y-43452380D01*
X133914285Y-43452380D01*
X75142857Y-40702380D02*
X75476190Y-40226190D01*
X75714285Y-40702380D02*
X75714285Y-39702380D01*
X75333333Y-39702380D01*
X75238095Y-39750000D01*
X75190476Y-39797619D01*
X75142857Y-39892857D01*
X75142857Y-40035714D01*
X75190476Y-40130952D01*
X75238095Y-40178571D01*
X75333333Y-40226190D01*
X75714285Y-40226190D01*
X74761904Y-39797619D02*
X74714285Y-39750000D01*
X74619047Y-39702380D01*
X74380952Y-39702380D01*
X74285714Y-39750000D01*
X74238095Y-39797619D01*
X74190476Y-39892857D01*
X74190476Y-39988095D01*
X74238095Y-40130952D01*
X74809523Y-40702380D01*
X74190476Y-40702380D01*
X73571428Y-39702380D02*
X73476190Y-39702380D01*
X73380952Y-39750000D01*
X73333333Y-39797619D01*
X73285714Y-39892857D01*
X73238095Y-40083333D01*
X73238095Y-40321428D01*
X73285714Y-40511904D01*
X73333333Y-40607142D01*
X73380952Y-40654761D01*
X73476190Y-40702380D01*
X73571428Y-40702380D01*
X73666666Y-40654761D01*
X73714285Y-40607142D01*
X73761904Y-40511904D01*
X73809523Y-40321428D01*
X73809523Y-40083333D01*
X73761904Y-39892857D01*
X73714285Y-39797619D01*
X73666666Y-39750000D01*
X73571428Y-39702380D01*
X93182780Y-100287314D02*
X92182780Y-100287314D01*
X92182780Y-100525409D01*
X92230400Y-100668266D01*
X92325638Y-100763504D01*
X92420876Y-100811123D01*
X92611352Y-100858742D01*
X92754209Y-100858742D01*
X92944685Y-100811123D01*
X93039923Y-100763504D01*
X93135161Y-100668266D01*
X93182780Y-100525409D01*
X93182780Y-100287314D01*
X93182780Y-101811123D02*
X93182780Y-101239695D01*
X93182780Y-101525409D02*
X92182780Y-101525409D01*
X92325638Y-101430171D01*
X92420876Y-101334933D01*
X92468495Y-101239695D01*
X92516114Y-102668266D02*
X93182780Y-102668266D01*
X92135161Y-102430171D02*
X92849447Y-102192076D01*
X92849447Y-102811123D01*
X105107142Y-51833333D02*
X105154761Y-51785714D01*
X105202380Y-51642857D01*
X105202380Y-51547619D01*
X105154761Y-51404761D01*
X105059523Y-51309523D01*
X104964285Y-51261904D01*
X104773809Y-51214285D01*
X104630952Y-51214285D01*
X104440476Y-51261904D01*
X104345238Y-51309523D01*
X104250000Y-51404761D01*
X104202380Y-51547619D01*
X104202380Y-51642857D01*
X104250000Y-51785714D01*
X104297619Y-51833333D01*
X104297619Y-52214285D02*
X104250000Y-52261904D01*
X104202380Y-52357142D01*
X104202380Y-52595238D01*
X104250000Y-52690476D01*
X104297619Y-52738095D01*
X104392857Y-52785714D01*
X104488095Y-52785714D01*
X104630952Y-52738095D01*
X105202380Y-52166666D01*
X105202380Y-52785714D01*
X142277780Y-67558806D02*
X141801590Y-67225473D01*
X142277780Y-66987378D02*
X141277780Y-66987378D01*
X141277780Y-67368330D01*
X141325400Y-67463568D01*
X141373019Y-67511187D01*
X141468257Y-67558806D01*
X141611114Y-67558806D01*
X141706352Y-67511187D01*
X141753971Y-67463568D01*
X141801590Y-67368330D01*
X141801590Y-66987378D01*
X142277780Y-68511187D02*
X142277780Y-67939759D01*
X142277780Y-68225473D02*
X141277780Y-68225473D01*
X141420638Y-68130235D01*
X141515876Y-68034997D01*
X141563495Y-67939759D01*
X142277780Y-69463568D02*
X142277780Y-68892140D01*
X142277780Y-69177854D02*
X141277780Y-69177854D01*
X141420638Y-69082616D01*
X141515876Y-68987378D01*
X141563495Y-68892140D01*
X113011904Y-40254380D02*
X112440476Y-40254380D01*
X112726190Y-41254380D02*
X112726190Y-40254380D01*
X112107142Y-41254380D02*
X112107142Y-40254380D01*
X111726190Y-40254380D01*
X111630952Y-40302000D01*
X111583333Y-40349619D01*
X111535714Y-40444857D01*
X111535714Y-40587714D01*
X111583333Y-40682952D01*
X111630952Y-40730571D01*
X111726190Y-40778190D01*
X112107142Y-40778190D01*
X110583333Y-41254380D02*
X111154761Y-41254380D01*
X110869047Y-41254380D02*
X110869047Y-40254380D01*
X110964285Y-40397238D01*
X111059523Y-40492476D01*
X111154761Y-40540095D01*
X130668257Y-65026980D02*
X131001590Y-64550790D01*
X131239685Y-65026980D02*
X131239685Y-64026980D01*
X130858733Y-64026980D01*
X130763495Y-64074600D01*
X130715876Y-64122219D01*
X130668257Y-64217457D01*
X130668257Y-64360314D01*
X130715876Y-64455552D01*
X130763495Y-64503171D01*
X130858733Y-64550790D01*
X131239685Y-64550790D01*
X129715876Y-65026980D02*
X130287304Y-65026980D01*
X130001590Y-65026980D02*
X130001590Y-64026980D01*
X130096828Y-64169838D01*
X130192066Y-64265076D01*
X130287304Y-64312695D01*
X128811114Y-64026980D02*
X129287304Y-64026980D01*
X129334923Y-64503171D01*
X129287304Y-64455552D01*
X129192066Y-64407933D01*
X128953971Y-64407933D01*
X128858733Y-64455552D01*
X128811114Y-64503171D01*
X128763495Y-64598409D01*
X128763495Y-64836504D01*
X128811114Y-64931742D01*
X128858733Y-64979361D01*
X128953971Y-65026980D01*
X129192066Y-65026980D01*
X129287304Y-64979361D01*
X129334923Y-64931742D01*
X104987304Y-84613980D02*
X104987304Y-85423504D01*
X104939685Y-85518742D01*
X104892066Y-85566361D01*
X104796828Y-85613980D01*
X104606352Y-85613980D01*
X104511114Y-85566361D01*
X104463495Y-85518742D01*
X104415876Y-85423504D01*
X104415876Y-84613980D01*
X103511114Y-84947314D02*
X103511114Y-85613980D01*
X103749209Y-84566361D02*
X103987304Y-85280647D01*
X103368257Y-85280647D01*
X136666666Y-35202380D02*
X137000000Y-34726190D01*
X137238095Y-35202380D02*
X137238095Y-34202380D01*
X136857142Y-34202380D01*
X136761904Y-34250000D01*
X136714285Y-34297619D01*
X136666666Y-34392857D01*
X136666666Y-34535714D01*
X136714285Y-34630952D01*
X136761904Y-34678571D01*
X136857142Y-34726190D01*
X137238095Y-34726190D01*
X135714285Y-35202380D02*
X136285714Y-35202380D01*
X136000000Y-35202380D02*
X136000000Y-34202380D01*
X136095238Y-34345238D01*
X136190476Y-34440476D01*
X136285714Y-34488095D01*
X121168257Y-69176980D02*
X121501590Y-68700790D01*
X121739685Y-69176980D02*
X121739685Y-68176980D01*
X121358733Y-68176980D01*
X121263495Y-68224600D01*
X121215876Y-68272219D01*
X121168257Y-68367457D01*
X121168257Y-68510314D01*
X121215876Y-68605552D01*
X121263495Y-68653171D01*
X121358733Y-68700790D01*
X121739685Y-68700790D01*
X120215876Y-69176980D02*
X120787304Y-69176980D01*
X120501590Y-69176980D02*
X120501590Y-68176980D01*
X120596828Y-68319838D01*
X120692066Y-68415076D01*
X120787304Y-68462695D01*
X119834923Y-68272219D02*
X119787304Y-68224600D01*
X119692066Y-68176980D01*
X119453971Y-68176980D01*
X119358733Y-68224600D01*
X119311114Y-68272219D01*
X119263495Y-68367457D01*
X119263495Y-68462695D01*
X119311114Y-68605552D01*
X119882542Y-69176980D01*
X119263495Y-69176980D01*
X75142857Y-42952380D02*
X75476190Y-42476190D01*
X75714285Y-42952380D02*
X75714285Y-41952380D01*
X75333333Y-41952380D01*
X75238095Y-42000000D01*
X75190476Y-42047619D01*
X75142857Y-42142857D01*
X75142857Y-42285714D01*
X75190476Y-42380952D01*
X75238095Y-42428571D01*
X75333333Y-42476190D01*
X75714285Y-42476190D01*
X74761904Y-42047619D02*
X74714285Y-42000000D01*
X74619047Y-41952380D01*
X74380952Y-41952380D01*
X74285714Y-42000000D01*
X74238095Y-42047619D01*
X74190476Y-42142857D01*
X74190476Y-42238095D01*
X74238095Y-42380952D01*
X74809523Y-42952380D01*
X74190476Y-42952380D01*
X73809523Y-42047619D02*
X73761904Y-42000000D01*
X73666666Y-41952380D01*
X73428571Y-41952380D01*
X73333333Y-42000000D01*
X73285714Y-42047619D01*
X73238095Y-42142857D01*
X73238095Y-42238095D01*
X73285714Y-42380952D01*
X73857142Y-42952380D01*
X73238095Y-42952380D01*
X104261904Y-35702380D02*
X103690476Y-35702380D01*
X103976190Y-36702380D02*
X103976190Y-35702380D01*
X103357142Y-36702380D02*
X103357142Y-35702380D01*
X102976190Y-35702380D01*
X102880952Y-35750000D01*
X102833333Y-35797619D01*
X102785714Y-35892857D01*
X102785714Y-36035714D01*
X102833333Y-36130952D01*
X102880952Y-36178571D01*
X102976190Y-36226190D01*
X103357142Y-36226190D01*
X102404761Y-35797619D02*
X102357142Y-35750000D01*
X102261904Y-35702380D01*
X102023809Y-35702380D01*
X101928571Y-35750000D01*
X101880952Y-35797619D01*
X101833333Y-35892857D01*
X101833333Y-35988095D01*
X101880952Y-36130952D01*
X102452380Y-36702380D01*
X101833333Y-36702380D01*
X95632780Y-89387314D02*
X94632780Y-89387314D01*
X94632780Y-89625409D01*
X94680400Y-89768266D01*
X94775638Y-89863504D01*
X94870876Y-89911123D01*
X95061352Y-89958742D01*
X95204209Y-89958742D01*
X95394685Y-89911123D01*
X95489923Y-89863504D01*
X95585161Y-89768266D01*
X95632780Y-89625409D01*
X95632780Y-89387314D01*
X95632780Y-90911123D02*
X95632780Y-90339695D01*
X95632780Y-90625409D02*
X94632780Y-90625409D01*
X94775638Y-90530171D01*
X94870876Y-90434933D01*
X94918495Y-90339695D01*
X95061352Y-91482552D02*
X95013733Y-91387314D01*
X94966114Y-91339695D01*
X94870876Y-91292076D01*
X94823257Y-91292076D01*
X94728019Y-91339695D01*
X94680400Y-91387314D01*
X94632780Y-91482552D01*
X94632780Y-91673028D01*
X94680400Y-91768266D01*
X94728019Y-91815885D01*
X94823257Y-91863504D01*
X94870876Y-91863504D01*
X94966114Y-91815885D01*
X95013733Y-91768266D01*
X95061352Y-91673028D01*
X95061352Y-91482552D01*
X95108971Y-91387314D01*
X95156590Y-91339695D01*
X95251828Y-91292076D01*
X95442304Y-91292076D01*
X95537542Y-91339695D01*
X95585161Y-91387314D01*
X95632780Y-91482552D01*
X95632780Y-91673028D01*
X95585161Y-91768266D01*
X95537542Y-91815885D01*
X95442304Y-91863504D01*
X95251828Y-91863504D01*
X95156590Y-91815885D01*
X95108971Y-91768266D01*
X95061352Y-91673028D01*
X74202380Y-47107142D02*
X73726190Y-46773809D01*
X74202380Y-46535714D02*
X73202380Y-46535714D01*
X73202380Y-46916666D01*
X73250000Y-47011904D01*
X73297619Y-47059523D01*
X73392857Y-47107142D01*
X73535714Y-47107142D01*
X73630952Y-47059523D01*
X73678571Y-47011904D01*
X73726190Y-46916666D01*
X73726190Y-46535714D01*
X73297619Y-47488095D02*
X73250000Y-47535714D01*
X73202380Y-47630952D01*
X73202380Y-47869047D01*
X73250000Y-47964285D01*
X73297619Y-48011904D01*
X73392857Y-48059523D01*
X73488095Y-48059523D01*
X73630952Y-48011904D01*
X74202380Y-47440476D01*
X74202380Y-48059523D01*
X73535714Y-48916666D02*
X74202380Y-48916666D01*
X73154761Y-48678571D02*
X73869047Y-48440476D01*
X73869047Y-49059523D01*
X74382780Y-88287314D02*
X73382780Y-88287314D01*
X73382780Y-88525409D01*
X73430400Y-88668266D01*
X73525638Y-88763504D01*
X73620876Y-88811123D01*
X73811352Y-88858742D01*
X73954209Y-88858742D01*
X74144685Y-88811123D01*
X74239923Y-88763504D01*
X74335161Y-88668266D01*
X74382780Y-88525409D01*
X74382780Y-88287314D01*
X74382780Y-89811123D02*
X74382780Y-89239695D01*
X74382780Y-89525409D02*
X73382780Y-89525409D01*
X73525638Y-89430171D01*
X73620876Y-89334933D01*
X73668495Y-89239695D01*
X73382780Y-90668266D02*
X73382780Y-90477790D01*
X73430400Y-90382552D01*
X73478019Y-90334933D01*
X73620876Y-90239695D01*
X73811352Y-90192076D01*
X74192304Y-90192076D01*
X74287542Y-90239695D01*
X74335161Y-90287314D01*
X74382780Y-90382552D01*
X74382780Y-90573028D01*
X74335161Y-90668266D01*
X74287542Y-90715885D01*
X74192304Y-90763504D01*
X73954209Y-90763504D01*
X73858971Y-90715885D01*
X73811352Y-90668266D01*
X73763733Y-90573028D01*
X73763733Y-90382552D01*
X73811352Y-90287314D01*
X73858971Y-90239695D01*
X73954209Y-90192076D01*
X99511904Y-46952380D02*
X98940476Y-46952380D01*
X99226190Y-47952380D02*
X99226190Y-46952380D01*
X98607142Y-47952380D02*
X98607142Y-46952380D01*
X98226190Y-46952380D01*
X98130952Y-47000000D01*
X98083333Y-47047619D01*
X98035714Y-47142857D01*
X98035714Y-47285714D01*
X98083333Y-47380952D01*
X98130952Y-47428571D01*
X98226190Y-47476190D01*
X98607142Y-47476190D01*
X97702380Y-46952380D02*
X97083333Y-46952380D01*
X97416666Y-47333333D01*
X97273809Y-47333333D01*
X97178571Y-47380952D01*
X97130952Y-47428571D01*
X97083333Y-47523809D01*
X97083333Y-47761904D01*
X97130952Y-47857142D01*
X97178571Y-47904761D01*
X97273809Y-47952380D01*
X97559523Y-47952380D01*
X97654761Y-47904761D01*
X97702380Y-47857142D01*
X74202380Y-34357142D02*
X73726190Y-34023809D01*
X74202380Y-33785714D02*
X73202380Y-33785714D01*
X73202380Y-34166666D01*
X73250000Y-34261904D01*
X73297619Y-34309523D01*
X73392857Y-34357142D01*
X73535714Y-34357142D01*
X73630952Y-34309523D01*
X73678571Y-34261904D01*
X73726190Y-34166666D01*
X73726190Y-33785714D01*
X74202380Y-35309523D02*
X74202380Y-34738095D01*
X74202380Y-35023809D02*
X73202380Y-35023809D01*
X73345238Y-34928571D01*
X73440476Y-34833333D01*
X73488095Y-34738095D01*
X74202380Y-35785714D02*
X74202380Y-35976190D01*
X74154761Y-36071428D01*
X74107142Y-36119047D01*
X73964285Y-36214285D01*
X73773809Y-36261904D01*
X73392857Y-36261904D01*
X73297619Y-36214285D01*
X73250000Y-36166666D01*
X73202380Y-36071428D01*
X73202380Y-35880952D01*
X73250000Y-35785714D01*
X73297619Y-35738095D01*
X73392857Y-35690476D01*
X73630952Y-35690476D01*
X73726190Y-35738095D01*
X73773809Y-35785714D01*
X73821428Y-35880952D01*
X73821428Y-36071428D01*
X73773809Y-36166666D01*
X73726190Y-36214285D01*
X73630952Y-36261904D01*
X108132780Y-98387314D02*
X107132780Y-98387314D01*
X107132780Y-98625409D01*
X107180400Y-98768266D01*
X107275638Y-98863504D01*
X107370876Y-98911123D01*
X107561352Y-98958742D01*
X107704209Y-98958742D01*
X107894685Y-98911123D01*
X107989923Y-98863504D01*
X108085161Y-98768266D01*
X108132780Y-98625409D01*
X108132780Y-98387314D01*
X108132780Y-99911123D02*
X108132780Y-99339695D01*
X108132780Y-99625409D02*
X107132780Y-99625409D01*
X107275638Y-99530171D01*
X107370876Y-99434933D01*
X107418495Y-99339695D01*
X108132780Y-100387314D02*
X108132780Y-100577790D01*
X108085161Y-100673028D01*
X108037542Y-100720647D01*
X107894685Y-100815885D01*
X107704209Y-100863504D01*
X107323257Y-100863504D01*
X107228019Y-100815885D01*
X107180400Y-100768266D01*
X107132780Y-100673028D01*
X107132780Y-100482552D01*
X107180400Y-100387314D01*
X107228019Y-100339695D01*
X107323257Y-100292076D01*
X107561352Y-100292076D01*
X107656590Y-100339695D01*
X107704209Y-100387314D01*
X107751828Y-100482552D01*
X107751828Y-100673028D01*
X107704209Y-100768266D01*
X107656590Y-100815885D01*
X107561352Y-100863504D01*
X141760533Y-28988553D02*
X141760533Y-29702839D01*
X141808152Y-29845696D01*
X141903390Y-29940934D01*
X142046247Y-29988553D01*
X142141485Y-29988553D01*
X141379580Y-28988553D02*
X140760533Y-28988553D01*
X141093866Y-29369506D01*
X140951009Y-29369506D01*
X140855771Y-29417125D01*
X140808152Y-29464744D01*
X140760533Y-29559982D01*
X140760533Y-29798077D01*
X140808152Y-29893315D01*
X140855771Y-29940934D01*
X140951009Y-29988553D01*
X141236723Y-29988553D01*
X141331961Y-29940934D01*
X141379580Y-29893315D01*
X138464285Y-65452380D02*
X138464285Y-64452380D01*
X138226190Y-64452380D01*
X138083333Y-64500000D01*
X137988095Y-64595238D01*
X137940476Y-64690476D01*
X137892857Y-64880952D01*
X137892857Y-65023809D01*
X137940476Y-65214285D01*
X137988095Y-65309523D01*
X138083333Y-65404761D01*
X138226190Y-65452380D01*
X138464285Y-65452380D01*
X136940476Y-65452380D02*
X137511904Y-65452380D01*
X137226190Y-65452380D02*
X137226190Y-64452380D01*
X137321428Y-64595238D01*
X137416666Y-64690476D01*
X137511904Y-64738095D01*
X136559523Y-64547619D02*
X136511904Y-64500000D01*
X136416666Y-64452380D01*
X136178571Y-64452380D01*
X136083333Y-64500000D01*
X136035714Y-64547619D01*
X135988095Y-64642857D01*
X135988095Y-64738095D01*
X136035714Y-64880952D01*
X136607142Y-65452380D01*
X135988095Y-65452380D01*
X70782780Y-100487314D02*
X69782780Y-100487314D01*
X69782780Y-100725409D01*
X69830400Y-100868266D01*
X69925638Y-100963504D01*
X70020876Y-101011123D01*
X70211352Y-101058742D01*
X70354209Y-101058742D01*
X70544685Y-101011123D01*
X70639923Y-100963504D01*
X70735161Y-100868266D01*
X70782780Y-100725409D01*
X70782780Y-100487314D01*
X70782780Y-102011123D02*
X70782780Y-101439695D01*
X70782780Y-101725409D02*
X69782780Y-101725409D01*
X69925638Y-101630171D01*
X70020876Y-101534933D01*
X70068495Y-101439695D01*
X69782780Y-102344457D02*
X69782780Y-103011123D01*
X70782780Y-102582552D01*
X75142857Y-50952380D02*
X75476190Y-50476190D01*
X75714285Y-50952380D02*
X75714285Y-49952380D01*
X75333333Y-49952380D01*
X75238095Y-50000000D01*
X75190476Y-50047619D01*
X75142857Y-50142857D01*
X75142857Y-50285714D01*
X75190476Y-50380952D01*
X75238095Y-50428571D01*
X75333333Y-50476190D01*
X75714285Y-50476190D01*
X74761904Y-50047619D02*
X74714285Y-50000000D01*
X74619047Y-49952380D01*
X74380952Y-49952380D01*
X74285714Y-50000000D01*
X74238095Y-50047619D01*
X74190476Y-50142857D01*
X74190476Y-50238095D01*
X74238095Y-50380952D01*
X74809523Y-50952380D01*
X74190476Y-50952380D01*
X73285714Y-49952380D02*
X73761904Y-49952380D01*
X73809523Y-50428571D01*
X73761904Y-50380952D01*
X73666666Y-50333333D01*
X73428571Y-50333333D01*
X73333333Y-50380952D01*
X73285714Y-50428571D01*
X73238095Y-50523809D01*
X73238095Y-50761904D01*
X73285714Y-50857142D01*
X73333333Y-50904761D01*
X73428571Y-50952380D01*
X73666666Y-50952380D01*
X73761904Y-50904761D01*
X73809523Y-50857142D01*
X98427780Y-25712695D02*
X99237304Y-25712695D01*
X99332542Y-25760314D01*
X99380161Y-25807933D01*
X99427780Y-25903171D01*
X99427780Y-26093647D01*
X99380161Y-26188885D01*
X99332542Y-26236504D01*
X99237304Y-26284123D01*
X98427780Y-26284123D01*
X98856352Y-26903171D02*
X98808733Y-26807933D01*
X98761114Y-26760314D01*
X98665876Y-26712695D01*
X98618257Y-26712695D01*
X98523019Y-26760314D01*
X98475400Y-26807933D01*
X98427780Y-26903171D01*
X98427780Y-27093647D01*
X98475400Y-27188885D01*
X98523019Y-27236504D01*
X98618257Y-27284123D01*
X98665876Y-27284123D01*
X98761114Y-27236504D01*
X98808733Y-27188885D01*
X98856352Y-27093647D01*
X98856352Y-26903171D01*
X98903971Y-26807933D01*
X98951590Y-26760314D01*
X99046828Y-26712695D01*
X99237304Y-26712695D01*
X99332542Y-26760314D01*
X99380161Y-26807933D01*
X99427780Y-26903171D01*
X99427780Y-27093647D01*
X99380161Y-27188885D01*
X99332542Y-27236504D01*
X99237304Y-27284123D01*
X99046828Y-27284123D01*
X98951590Y-27236504D01*
X98903971Y-27188885D01*
X98856352Y-27093647D01*
X116827780Y-67807933D02*
X116351590Y-67474600D01*
X116827780Y-67236504D02*
X115827780Y-67236504D01*
X115827780Y-67617457D01*
X115875400Y-67712695D01*
X115923019Y-67760314D01*
X116018257Y-67807933D01*
X116161114Y-67807933D01*
X116256352Y-67760314D01*
X116303971Y-67712695D01*
X116351590Y-67617457D01*
X116351590Y-67236504D01*
X115827780Y-68141266D02*
X115827780Y-68807933D01*
X116827780Y-68379361D01*
X88782780Y-97887314D02*
X87782780Y-97887314D01*
X87782780Y-98125409D01*
X87830400Y-98268266D01*
X87925638Y-98363504D01*
X88020876Y-98411123D01*
X88211352Y-98458742D01*
X88354209Y-98458742D01*
X88544685Y-98411123D01*
X88639923Y-98363504D01*
X88735161Y-98268266D01*
X88782780Y-98125409D01*
X88782780Y-97887314D01*
X87878019Y-98839695D02*
X87830400Y-98887314D01*
X87782780Y-98982552D01*
X87782780Y-99220647D01*
X87830400Y-99315885D01*
X87878019Y-99363504D01*
X87973257Y-99411123D01*
X88068495Y-99411123D01*
X88211352Y-99363504D01*
X88782780Y-98792076D01*
X88782780Y-99411123D01*
X88782780Y-100363504D02*
X88782780Y-99792076D01*
X88782780Y-100077790D02*
X87782780Y-100077790D01*
X87925638Y-99982552D01*
X88020876Y-99887314D01*
X88068495Y-99792076D01*
X123477780Y-67331742D02*
X123001590Y-66998409D01*
X123477780Y-66760314D02*
X122477780Y-66760314D01*
X122477780Y-67141266D01*
X122525400Y-67236504D01*
X122573019Y-67284123D01*
X122668257Y-67331742D01*
X122811114Y-67331742D01*
X122906352Y-67284123D01*
X122953971Y-67236504D01*
X123001590Y-67141266D01*
X123001590Y-66760314D01*
X123477780Y-68284123D02*
X123477780Y-67712695D01*
X123477780Y-67998409D02*
X122477780Y-67998409D01*
X122620638Y-67903171D01*
X122715876Y-67807933D01*
X122763495Y-67712695D01*
X122477780Y-68903171D02*
X122477780Y-68998409D01*
X122525400Y-69093647D01*
X122573019Y-69141266D01*
X122668257Y-69188885D01*
X122858733Y-69236504D01*
X123096828Y-69236504D01*
X123287304Y-69188885D01*
X123382542Y-69141266D01*
X123430161Y-69093647D01*
X123477780Y-68998409D01*
X123477780Y-68903171D01*
X123430161Y-68807933D01*
X123382542Y-68760314D01*
X123287304Y-68712695D01*
X123096828Y-68665076D01*
X122858733Y-68665076D01*
X122668257Y-68712695D01*
X122573019Y-68760314D01*
X122525400Y-68807933D01*
X122477780Y-68903171D01*
X67084533Y-28988553D02*
X67084533Y-29702839D01*
X67132152Y-29845696D01*
X67227390Y-29940934D01*
X67370247Y-29988553D01*
X67465485Y-29988553D01*
X66084533Y-29988553D02*
X66655961Y-29988553D01*
X66370247Y-29988553D02*
X66370247Y-28988553D01*
X66465485Y-29131411D01*
X66560723Y-29226649D01*
X66655961Y-29274268D01*
X121642857Y-77952380D02*
X121976190Y-77476190D01*
X122214285Y-77952380D02*
X122214285Y-76952380D01*
X121833333Y-76952380D01*
X121738095Y-77000000D01*
X121690476Y-77047619D01*
X121642857Y-77142857D01*
X121642857Y-77285714D01*
X121690476Y-77380952D01*
X121738095Y-77428571D01*
X121833333Y-77476190D01*
X122214285Y-77476190D01*
X120690476Y-77952380D02*
X121261904Y-77952380D01*
X120976190Y-77952380D02*
X120976190Y-76952380D01*
X121071428Y-77095238D01*
X121166666Y-77190476D01*
X121261904Y-77238095D01*
X120357142Y-76952380D02*
X119738095Y-76952380D01*
X120071428Y-77333333D01*
X119928571Y-77333333D01*
X119833333Y-77380952D01*
X119785714Y-77428571D01*
X119738095Y-77523809D01*
X119738095Y-77761904D01*
X119785714Y-77857142D01*
X119833333Y-77904761D01*
X119928571Y-77952380D01*
X120214285Y-77952380D01*
X120309523Y-77904761D01*
X120357142Y-77857142D01*
X119192066Y-65426980D02*
X119525400Y-64950790D01*
X119763495Y-65426980D02*
X119763495Y-64426980D01*
X119382542Y-64426980D01*
X119287304Y-64474600D01*
X119239685Y-64522219D01*
X119192066Y-64617457D01*
X119192066Y-64760314D01*
X119239685Y-64855552D01*
X119287304Y-64903171D01*
X119382542Y-64950790D01*
X119763495Y-64950790D01*
X118620638Y-64855552D02*
X118715876Y-64807933D01*
X118763495Y-64760314D01*
X118811114Y-64665076D01*
X118811114Y-64617457D01*
X118763495Y-64522219D01*
X118715876Y-64474600D01*
X118620638Y-64426980D01*
X118430161Y-64426980D01*
X118334923Y-64474600D01*
X118287304Y-64522219D01*
X118239685Y-64617457D01*
X118239685Y-64665076D01*
X118287304Y-64760314D01*
X118334923Y-64807933D01*
X118430161Y-64855552D01*
X118620638Y-64855552D01*
X118715876Y-64903171D01*
X118763495Y-64950790D01*
X118811114Y-65046028D01*
X118811114Y-65236504D01*
X118763495Y-65331742D01*
X118715876Y-65379361D01*
X118620638Y-65426980D01*
X118430161Y-65426980D01*
X118334923Y-65379361D01*
X118287304Y-65331742D01*
X118239685Y-65236504D01*
X118239685Y-65046028D01*
X118287304Y-64950790D01*
X118334923Y-64903171D01*
X118430161Y-64855552D01*
X74202380Y-37107142D02*
X73726190Y-36773809D01*
X74202380Y-36535714D02*
X73202380Y-36535714D01*
X73202380Y-36916666D01*
X73250000Y-37011904D01*
X73297619Y-37059523D01*
X73392857Y-37107142D01*
X73535714Y-37107142D01*
X73630952Y-37059523D01*
X73678571Y-37011904D01*
X73726190Y-36916666D01*
X73726190Y-36535714D01*
X73297619Y-37488095D02*
X73250000Y-37535714D01*
X73202380Y-37630952D01*
X73202380Y-37869047D01*
X73250000Y-37964285D01*
X73297619Y-38011904D01*
X73392857Y-38059523D01*
X73488095Y-38059523D01*
X73630952Y-38011904D01*
X74202380Y-37440476D01*
X74202380Y-38059523D01*
X74202380Y-39011904D02*
X74202380Y-38440476D01*
X74202380Y-38726190D02*
X73202380Y-38726190D01*
X73345238Y-38630952D01*
X73440476Y-38535714D01*
X73488095Y-38440476D01*
X86182780Y-84887314D02*
X85182780Y-84887314D01*
X85182780Y-85125409D01*
X85230400Y-85268266D01*
X85325638Y-85363504D01*
X85420876Y-85411123D01*
X85611352Y-85458742D01*
X85754209Y-85458742D01*
X85944685Y-85411123D01*
X86039923Y-85363504D01*
X86135161Y-85268266D01*
X86182780Y-85125409D01*
X86182780Y-84887314D01*
X86182780Y-86411123D02*
X86182780Y-85839695D01*
X86182780Y-86125409D02*
X85182780Y-86125409D01*
X85325638Y-86030171D01*
X85420876Y-85934933D01*
X85468495Y-85839695D01*
X85182780Y-87315885D02*
X85182780Y-86839695D01*
X85658971Y-86792076D01*
X85611352Y-86839695D01*
X85563733Y-86934933D01*
X85563733Y-87173028D01*
X85611352Y-87268266D01*
X85658971Y-87315885D01*
X85754209Y-87363504D01*
X85992304Y-87363504D01*
X86087542Y-87315885D01*
X86135161Y-87268266D01*
X86182780Y-87173028D01*
X86182780Y-86934933D01*
X86135161Y-86839695D01*
X86087542Y-86792076D01*
D12*
X111735000Y-48772936D02*
X111735000Y-49227064D01*
X110265000Y-48772936D02*
X110265000Y-49227064D01*
X108515000Y-45522936D02*
X108515000Y-45977064D01*
X109985000Y-45522936D02*
X109985000Y-45977064D01*
X109985000Y-48772936D02*
X109985000Y-49227064D01*
X108515000Y-48772936D02*
X108515000Y-49227064D01*
X110735000Y-29172936D02*
X110735000Y-29627064D01*
X109265000Y-29172936D02*
X109265000Y-29627064D01*
X110135000Y-33172936D02*
X110135000Y-33627064D01*
X108665000Y-33172936D02*
X108665000Y-33627064D01*
X108729300Y-40130863D02*
X108729300Y-43839463D01*
X99779300Y-38460163D02*
X99779300Y-43843763D01*
X112535000Y-31022936D02*
X112535000Y-31477064D01*
X111065000Y-31022936D02*
X111065000Y-31477064D01*
X116290400Y-72201664D02*
X116290400Y-71747536D01*
X117760400Y-72201664D02*
X117760400Y-71747536D01*
X117522936Y-79265000D02*
X117977064Y-79265000D01*
X117522936Y-80735000D02*
X117977064Y-80735000D01*
X124465400Y-67174600D02*
X124465400Y-67974600D01*
X127585400Y-67174600D02*
X127585400Y-68974600D01*
X124465400Y-67174600D02*
X124465400Y-66374600D01*
X127585400Y-67174600D02*
X127585400Y-66374600D01*
D13*
X77625400Y-90574600D02*
X77075400Y-90574600D01*
X77225400Y-89974600D02*
X77625400Y-90574600D01*
X77625400Y-90974600D02*
X77625400Y-90574600D01*
X77625400Y-90574600D02*
X78175400Y-90574600D01*
X77625400Y-89974600D02*
X77625400Y-89474600D01*
X77625400Y-90574600D02*
X78025400Y-89974600D01*
D12*
X78625400Y-92424600D02*
X78625400Y-88574600D01*
X78625400Y-92424600D02*
X76625400Y-92424600D01*
D13*
X78025400Y-89974600D02*
X77225400Y-89974600D01*
D12*
X76625400Y-92424600D02*
X76625400Y-88574600D01*
X71272936Y-31765000D02*
X71727064Y-31765000D01*
X71272936Y-33235000D02*
X71727064Y-33235000D01*
X71272936Y-44265000D02*
X71727064Y-44265000D01*
X71272936Y-45735000D02*
X71727064Y-45735000D01*
X107485000Y-49238748D02*
X107485000Y-49761252D01*
X106015000Y-49238748D02*
X106015000Y-49761252D01*
X134927064Y-40465000D02*
X134472936Y-40465000D01*
X134927064Y-41935000D02*
X134472936Y-41935000D01*
X71272936Y-39265000D02*
X71727064Y-39265000D01*
X71272936Y-40735000D02*
X71727064Y-40735000D01*
D13*
X90825400Y-101724600D02*
X91375400Y-101724600D01*
X91225400Y-101124600D02*
X90425400Y-101124600D01*
X90425400Y-101124600D02*
X90825400Y-101724600D01*
X90825400Y-101724600D02*
X90275400Y-101724600D01*
X90825400Y-101124600D02*
X90825400Y-100624600D01*
X90825400Y-101724600D02*
X91225400Y-101124600D01*
D12*
X91825400Y-103574600D02*
X89825400Y-103574600D01*
X91825400Y-103574600D02*
X91825400Y-99724600D01*
X89825400Y-103574600D02*
X89825400Y-99724600D01*
D13*
X90825400Y-102124600D02*
X90825400Y-101724600D01*
D12*
X105485000Y-49761252D02*
X105485000Y-49238748D01*
X104015000Y-49761252D02*
X104015000Y-49238748D01*
X139290400Y-67747536D02*
X139290400Y-68201664D01*
X140760400Y-67747536D02*
X140760400Y-68201664D01*
X112450000Y-41550000D02*
X111050000Y-41550000D01*
X111050000Y-42950000D02*
X112450000Y-42950000D01*
X112450000Y-42950000D02*
X112450000Y-41550000D01*
X111050000Y-41550000D02*
X111050000Y-42950000D01*
X130760400Y-67201664D02*
X130760400Y-66747536D01*
X129290400Y-67201664D02*
X129290400Y-66747536D01*
X109225400Y-63587600D02*
X99225400Y-63587600D01*
X99225400Y-63587600D02*
X99225400Y-71187600D01*
X99225400Y-71187600D02*
X109225400Y-71187600D01*
X109225400Y-71187600D02*
X109225400Y-63587600D01*
X113115400Y-85161600D02*
X113115400Y-83637600D01*
X95335400Y-85161600D02*
X95335400Y-83637600D01*
X113115400Y-64587600D02*
X113115400Y-65984600D01*
X95335400Y-64587600D02*
X99272400Y-64587600D01*
X113115400Y-85161600D02*
X95335400Y-85161600D01*
X113115400Y-64587600D02*
X109178400Y-64587600D01*
X95335400Y-64587600D02*
X95335400Y-65984600D01*
X136727064Y-35665000D02*
X136272936Y-35665000D01*
X136727064Y-37135000D02*
X136272936Y-37135000D01*
X120985400Y-71201664D02*
X120985400Y-70747536D01*
X119515400Y-71201664D02*
X119515400Y-70747536D01*
X71272936Y-41765000D02*
X71727064Y-41765000D01*
X71272936Y-43235000D02*
X71727064Y-43235000D01*
X100050000Y-36800000D02*
X100050000Y-38200000D01*
X100050000Y-38200000D02*
X101450000Y-38200000D01*
X101450000Y-38200000D02*
X101450000Y-36800000D01*
X101450000Y-36800000D02*
X100050000Y-36800000D01*
D13*
X93275400Y-90824600D02*
X93825400Y-90824600D01*
D12*
X92275400Y-92674600D02*
X92275400Y-88824600D01*
D13*
X93275400Y-91224600D02*
X93275400Y-90824600D01*
D12*
X94275400Y-92674600D02*
X94275400Y-88824600D01*
D13*
X93275400Y-90224600D02*
X93275400Y-89724600D01*
X93275400Y-90824600D02*
X92725400Y-90824600D01*
X93675400Y-90224600D02*
X92875400Y-90224600D01*
X93275400Y-90824600D02*
X93675400Y-90224600D01*
D12*
X94275400Y-92674600D02*
X92275400Y-92674600D01*
D13*
X92875400Y-90224600D02*
X93275400Y-90824600D01*
D12*
X71272936Y-48485000D02*
X71727064Y-48485000D01*
X71272936Y-47015000D02*
X71727064Y-47015000D01*
D13*
X72025400Y-89724600D02*
X71475400Y-89724600D01*
X71625400Y-89124600D02*
X72025400Y-89724600D01*
X72025400Y-89124600D02*
X72025400Y-88624600D01*
D12*
X71025400Y-91574600D02*
X71025400Y-87724600D01*
D13*
X72025400Y-89724600D02*
X72425400Y-89124600D01*
D12*
X73025400Y-91574600D02*
X71025400Y-91574600D01*
D13*
X72025400Y-89724600D02*
X72575400Y-89724600D01*
X72025400Y-90124600D02*
X72025400Y-89724600D01*
D12*
X73025400Y-91574600D02*
X73025400Y-87724600D01*
D13*
X72425400Y-89124600D02*
X71625400Y-89124600D01*
D12*
X100200000Y-46700000D02*
X100200000Y-45300000D01*
X98800000Y-46700000D02*
X100200000Y-46700000D01*
X98800000Y-45300000D02*
X98800000Y-46700000D01*
X100200000Y-45300000D02*
X98800000Y-45300000D01*
X71272936Y-35735000D02*
X71727064Y-35735000D01*
X71272936Y-34265000D02*
X71727064Y-34265000D01*
X106775400Y-101674600D02*
X106775400Y-97824600D01*
D13*
X105775400Y-99824600D02*
X105225400Y-99824600D01*
D12*
X104775400Y-101674600D02*
X104775400Y-97824600D01*
D13*
X105775400Y-99824600D02*
X106325400Y-99824600D01*
X105775400Y-99224600D02*
X105775400Y-98724600D01*
D12*
X106775400Y-101674600D02*
X104775400Y-101674600D01*
D13*
X105375400Y-99224600D02*
X105775400Y-99824600D01*
X106175400Y-99224600D02*
X105375400Y-99224600D01*
X105775400Y-99824600D02*
X106175400Y-99224600D01*
X105775400Y-100224600D02*
X105775400Y-99824600D01*
D12*
X140097200Y-48406173D02*
X140097200Y-51616173D01*
X140097200Y-43326173D02*
X140097200Y-46886173D01*
X142757200Y-35706173D02*
X142757200Y-39266173D01*
X140097200Y-33166173D02*
X140097200Y-36726173D01*
X140097200Y-30976173D02*
X140097200Y-31646173D01*
X142757200Y-50946173D02*
X142757200Y-51616173D01*
X142757200Y-40786173D02*
X142757200Y-44346173D01*
X142757200Y-51616173D02*
X140097200Y-51616173D01*
X142757200Y-30976173D02*
X142757200Y-34186173D01*
X142757200Y-30976173D02*
X140097200Y-30976173D01*
X140097200Y-38246173D02*
X140097200Y-41806173D01*
X142757200Y-45866173D02*
X142757200Y-49426173D01*
X140097200Y-31646173D02*
X138887200Y-31646173D01*
D13*
X137025400Y-67624600D02*
X136625400Y-68224600D01*
X137025400Y-68224600D02*
X137025400Y-68724600D01*
X137025400Y-67224600D02*
X137025400Y-67624600D01*
X137025400Y-67624600D02*
X137575400Y-67624600D01*
X137025400Y-67624600D02*
X136475400Y-67624600D01*
D12*
X136025400Y-65774600D02*
X138025400Y-65774600D01*
D13*
X136625400Y-68224600D02*
X137425400Y-68224600D01*
D12*
X138025400Y-65774600D02*
X138025400Y-69624600D01*
X136025400Y-65774600D02*
X136025400Y-69624600D01*
D13*
X137425400Y-68224600D02*
X137025400Y-67624600D01*
X68425400Y-101924600D02*
X67875400Y-101924600D01*
X68425400Y-102324600D02*
X68425400Y-101924600D01*
X68425400Y-101924600D02*
X68825400Y-101324600D01*
D12*
X69425400Y-103774600D02*
X67425400Y-103774600D01*
D13*
X68825400Y-101324600D02*
X68025400Y-101324600D01*
X68425400Y-101324600D02*
X68425400Y-100824600D01*
D12*
X69425400Y-103774600D02*
X69425400Y-99924600D01*
X67425400Y-103774600D02*
X67425400Y-99924600D01*
D13*
X68025400Y-101324600D02*
X68425400Y-101924600D01*
X68425400Y-101924600D02*
X68975400Y-101924600D01*
D12*
X71272936Y-50985000D02*
X71727064Y-50985000D01*
X71272936Y-49515000D02*
X71727064Y-49515000D01*
X108700400Y-27491873D02*
X108700400Y-31200473D01*
X99750400Y-25821173D02*
X99750400Y-31204773D01*
X117290400Y-67747536D02*
X117290400Y-68201664D01*
X118760400Y-67747536D02*
X118760400Y-68201664D01*
X87425400Y-101174600D02*
X87425400Y-97324600D01*
D13*
X86425400Y-99324600D02*
X86975400Y-99324600D01*
X86425400Y-98724600D02*
X86425400Y-98224600D01*
D12*
X87425400Y-101174600D02*
X85425400Y-101174600D01*
D13*
X86025400Y-98724600D02*
X86425400Y-99324600D01*
D12*
X85425400Y-101174600D02*
X85425400Y-97324600D01*
D13*
X86825400Y-98724600D02*
X86025400Y-98724600D01*
X86425400Y-99324600D02*
X85875400Y-99324600D01*
X86425400Y-99724600D02*
X86425400Y-99324600D01*
X86425400Y-99324600D02*
X86825400Y-98724600D01*
D12*
X123360400Y-70772536D02*
X123360400Y-71226664D01*
X121890400Y-70772536D02*
X121890400Y-71226664D01*
X68081200Y-45866173D02*
X68081200Y-49426173D01*
X65421200Y-48406173D02*
X65421200Y-51616173D01*
X68081200Y-30976173D02*
X65421200Y-30976173D01*
X65421200Y-30976173D02*
X65421200Y-31646173D01*
X68081200Y-51616173D02*
X65421200Y-51616173D01*
X68081200Y-35706173D02*
X68081200Y-39266173D01*
X68081200Y-30976173D02*
X68081200Y-34186173D01*
X65421200Y-33166173D02*
X65421200Y-36726173D01*
X68081200Y-50946173D02*
X68081200Y-51616173D01*
X65421200Y-38246173D02*
X65421200Y-41806173D01*
X65421200Y-43326173D02*
X65421200Y-46886173D01*
X65421200Y-31646173D02*
X64211200Y-31646173D01*
X68081200Y-40786173D02*
X68081200Y-44346173D01*
X117522936Y-76765000D02*
X117977064Y-76765000D01*
X117522936Y-78235000D02*
X117977064Y-78235000D01*
X120290400Y-65747536D02*
X120290400Y-66201664D01*
X121760400Y-65747536D02*
X121760400Y-66201664D01*
X71272936Y-36765000D02*
X71727064Y-36765000D01*
X71272936Y-38235000D02*
X71727064Y-38235000D01*
X84825400Y-88174600D02*
X84825400Y-84324600D01*
X82825400Y-88174600D02*
X82825400Y-84324600D01*
D13*
X83825400Y-86324600D02*
X84225400Y-85724600D01*
X83825400Y-86324600D02*
X84375400Y-86324600D01*
X83825400Y-86724600D02*
X83825400Y-86324600D01*
D12*
X84825400Y-88174600D02*
X82825400Y-88174600D01*
D13*
X84225400Y-85724600D02*
X83425400Y-85724600D01*
X83825400Y-85724600D02*
X83825400Y-85224600D01*
X83825400Y-86324600D02*
X83275400Y-86324600D01*
X83425400Y-85724600D02*
X83825400Y-86324600D01*
M02*
