M48
; DRILL file {KiCad (5.99.0-8123-gb2cbd99365)} date Monday, February 01, 2021 at 11:00:53 PM
; FORMAT={-:-/ absolute / inch / decimal}
; #@! TF.CreationDate,2021-02-01T23:00:53-05:00
; #@! TF.GenerationSoftware,Kicad,Pcbnew,(5.99.0-8123-gb2cbd99365)
; #@! TF.FileFunction,Plated,1,2,PTH
FMAT,2
INCH
T1C0.0138
T2C0.0157
T3C0.0394
T4C0.0402
T5C0.0591
T6C0.1673
%
G90
G05
T1
X5.64Y-0.96
X5.74Y-0.93
X5.7553Y-1.1228
X5.855Y-0.89
X5.865Y-1.18
X5.92Y-0.985
X5.98Y-1.285
X6.04Y-1.495
X6.14Y-1.375
X6.14Y-1.92
X6.18Y-1.465
X6.2Y-1.82
X6.23Y-1.355
X6.24Y-1.435
X6.25Y-1.82
X6.33Y-1.77
X6.39Y-1.87
X6.44Y-1.415
X6.455Y-1.025
X6.5Y-1.255
X6.51Y-0.875
X6.52Y-1.88
X6.5293Y-1.315
X6.5302Y-1.9172
X6.535Y-1.825
X6.63Y-1.93
X6.64Y-1.415
X6.74Y-1.415
X6.81Y-1.565
X6.81Y-1.675
X6.84Y-2.1
X6.8573Y-1.5972
X6.86Y-1.225
X6.9Y-2.01
X6.905Y-3.24
X6.92Y-1.52
X6.9639Y-1.83
X6.9998Y-2.0032
X7.0Y-1.73
X7.015Y-0.88
X7.02Y-2.94
X7.02Y-3.015
X7.03Y-1.385
X7.03Y-1.5473
X7.03Y-2.08
X7.0425Y-1.6725
X7.0498Y-1.9028
X7.05Y-3.28
X7.06Y-1.195
X7.06Y-2.11
X7.065Y-1.02
X7.07Y-1.575
X7.09Y-1.91
X7.0928Y-1.365
X7.1Y-2.325
X7.1112Y-1.5958
X7.12Y-1.155
X7.12Y-1.89
X7.12Y-2.11
X7.13Y-1.405
X7.14Y-3.01
X7.1403Y-1.8172
X7.1596Y-1.8828
X7.16Y-1.92
X7.1804Y-1.4246
X7.1933Y-1.1832
X7.195Y-2.66
X7.2Y-1.53
X7.21Y-1.395
X7.2119Y-1.7028
X7.2177Y-1.8232
X7.235Y-3.01
X7.2384Y-1.171
X7.2457Y-1.3273
X7.27Y-1.83
X7.2703Y-1.72
X7.28Y-2.04
X7.29Y-1.175
X7.29Y-1.53
X7.3Y-1.375
X7.311Y-1.8246
X7.3202Y-1.8828
X7.335Y-2.5758
X7.35Y-1.7028
X7.3501Y-1.7701
X7.36Y-1.205
X7.36Y-1.9368
X7.39Y-1.71
X7.435Y-3.255
X7.48Y-3.35
X7.49Y-3.1348
X7.56Y-2.07
X7.57Y-1.405
X7.57Y-1.52
X7.59Y-2.5758
X7.6Y-1.91
X7.605Y-1.01
X7.61Y-1.82
X7.61Y-1.95
X7.6127Y-1.2472
X7.62Y-0.875
X7.6555Y-3.0702
X7.67Y-1.4173
X7.67Y-1.85
X7.675Y-3.725
X7.695Y-2.795
X7.7Y-2.475
X7.71Y-1.83
X7.7256Y-1.3222
X7.78Y-1.06
X7.81Y-1.375
X7.81Y-1.79
X7.84Y-0.855
X7.91Y-1.4827
X8.02Y-3.215
X8.0303Y-0.9847
X8.07Y-1.365
X8.11Y-1.81
X8.1124Y-1.9732
X8.13Y-1.26
X8.18Y-0.91
X8.195Y-1.02
X8.21Y-1.455
X8.22Y-1.91
X8.31Y-1.335
X8.32Y-1.79
X8.3404Y-0.8546
X8.37Y-3.01
X8.5Y-2.01
X8.55Y-3.265
X8.555Y-2.95
X8.5596Y-1.7223
X8.57Y-0.98
X8.685Y-0.87
T2
X5.9Y-2.725
X6.125Y-2.625
X6.125Y-3.0887
X6.375Y-2.4
X6.375Y-3.325
X6.475Y-2.9
X6.65Y-3.125
X6.75Y-2.5
X7.0713Y-2.4
X7.1Y-5.025
X7.145Y-3.14
X7.205Y-3.105
X7.54Y-2.64
X8.04Y-3.58
X8.14Y-3.26
X8.14Y-3.48
X8.46Y-3.78
X8.62Y-3.46
T3
X5.66Y-1.18
X5.66Y-1.28
X5.66Y-1.38
X5.66Y-1.48
X5.66Y-1.58
X5.66Y-1.68
X5.66Y-1.78
X5.66Y-1.88
X5.66Y-1.98
X5.66Y-2.3
X5.66Y-2.4
X5.66Y-2.5
X5.66Y-2.6
X5.66Y-2.7
X5.66Y-2.8
X5.66Y-2.9
X5.66Y-3.0
X5.66Y-3.1
X6.035Y-1.175
X6.035Y-1.575
X6.035Y-1.69
X6.035Y-2.09
X6.135Y-1.175
X6.135Y-1.575
X6.135Y-1.69
X6.135Y-2.09
X6.235Y-1.175
X6.235Y-1.575
X6.235Y-1.69
X6.235Y-2.09
X6.335Y-1.175
X6.335Y-1.575
X6.335Y-1.69
X6.335Y-2.09
X6.435Y-1.575
X6.435Y-2.09
X6.535Y-1.175
X6.535Y-1.575
X6.535Y-1.69
X6.535Y-2.09
X6.635Y-1.575
X6.635Y-2.09
X6.735Y-1.175
X6.735Y-1.575
X6.735Y-1.69
X6.735Y-2.09
X7.615Y-1.175
X7.615Y-1.575
X7.615Y-1.69
X7.615Y-2.09
X7.715Y-1.175
X7.715Y-1.575
X7.715Y-1.69
X7.715Y-2.09
X7.815Y-1.175
X7.815Y-1.575
X7.815Y-1.69
X7.815Y-2.09
X7.915Y-1.175
X7.915Y-1.575
X7.915Y-1.69
X7.915Y-2.09
X8.015Y-1.575
X8.015Y-2.09
X8.115Y-1.175
X8.115Y-1.575
X8.115Y-1.69
X8.115Y-2.09
X8.215Y-1.575
X8.215Y-2.09
X8.315Y-1.175
X8.315Y-1.575
X8.315Y-1.69
X8.315Y-2.09
X8.3429Y-3.553
X8.3429Y-3.653
X8.3429Y-3.753
X8.68Y-1.18
X8.68Y-1.28
X8.68Y-1.38
X8.68Y-1.48
X8.68Y-1.58
X8.68Y-1.68
X8.68Y-1.78
X8.68Y-1.88
X8.68Y-1.98
X8.68Y-2.3
X8.68Y-2.4
X8.68Y-2.5
X8.68Y-2.6
X8.68Y-2.7
X8.68Y-2.8
X8.68Y-2.9
X8.68Y-3.0
X8.68Y-3.1
T4
X8.1209Y-2.5106
X8.1209Y-3.0106
T5
X5.9035Y-3.553
X5.9035Y-4.303
X5.9035Y-5.053
X6.1535Y-3.453
X6.1535Y-4.203
X6.1535Y-4.953
X6.2785Y-5.803
X6.5285Y-5.703
X6.6535Y-3.553
X6.6535Y-4.303
X6.6535Y-5.053
X6.9035Y-3.453
X6.9035Y-4.203
X6.9035Y-4.953
X7.4035Y-3.553
X7.4035Y-4.303
X7.4035Y-5.053
X7.4035Y-5.803
X7.6535Y-3.453
X7.6535Y-4.203
X7.6535Y-4.953
X7.6535Y-5.703
X8.1535Y-4.303
X8.1535Y-5.053
X8.1535Y-5.803
X8.4035Y-4.203
X8.4035Y-4.953
X8.4035Y-5.703
T6
X5.75Y-6.1
X5.9Y-2.425
X8.45Y-2.425
X8.6Y-6.1
T0
M30
