G04 #@! TF.GenerationSoftware,KiCad,Pcbnew,(5.99.0-8123-gb2cbd99365)*
G04 #@! TF.CreationDate,2021-02-13T19:05:43-05:00*
G04 #@! TF.ProjectId,unitron,756e6974-726f-46e2-9e6b-696361645f70,1.5*
G04 #@! TF.SameCoordinates,Original*
G04 #@! TF.FileFunction,Paste,Bot*
G04 #@! TF.FilePolarity,Positive*
%FSLAX46Y46*%
G04 Gerber Fmt 4.6, Leading zero omitted, Abs format (unit mm)*
G04 Created by KiCad (PCBNEW (5.99.0-8123-gb2cbd99365)) date 2021-02-13 19:05:43*
%MOMM*%
%LPD*%
G01*
G04 APERTURE LIST*
G04 Aperture macros list*
%AMRoundRect*
0 Rectangle with rounded corners*
0 $1 Rounding radius*
0 $2 $3 $4 $5 $6 $7 $8 $9 X,Y pos of 4 corners*
0 Add a 4 corners polygon primitive as box body*
4,1,4,$2,$3,$4,$5,$6,$7,$8,$9,$2,$3,0*
0 Add four circle primitives for the rounded corners*
1,1,$1+$1,$2,$3,0*
1,1,$1+$1,$4,$5,0*
1,1,$1+$1,$6,$7,0*
1,1,$1+$1,$8,$9,0*
0 Add four rect primitives between the rounded corners*
20,1,$1+$1,$2,$3,$4,$5,0*
20,1,$1+$1,$4,$5,$6,$7,0*
20,1,$1+$1,$6,$7,$8,$9,0*
20,1,$1+$1,$8,$9,$2,$3,0*%
G04 Aperture macros list end*
%ADD10RoundRect,0.243750X-0.456250X0.243750X-0.456250X-0.243750X0.456250X-0.243750X0.456250X0.243750X0*%
%ADD11RoundRect,0.243750X0.243750X0.456250X-0.243750X0.456250X-0.243750X-0.456250X0.243750X-0.456250X0*%
%ADD12R,0.410000X1.600000*%
%ADD13RoundRect,0.243750X0.456250X-0.243750X0.456250X0.243750X-0.456250X0.243750X-0.456250X-0.243750X0*%
%ADD14RoundRect,0.243750X-0.243750X-0.456250X0.243750X-0.456250X0.243750X0.456250X-0.243750X0.456250X0*%
%ADD15R,1.600000X1.400000*%
%ADD16RoundRect,0.150000X-0.150000X0.587500X-0.150000X-0.587500X0.150000X-0.587500X0.150000X0.587500X0*%
%ADD17R,0.800000X0.900000*%
%ADD18R,0.900000X0.800000*%
%ADD19R,1.600000X0.550000*%
%ADD20R,0.550000X1.600000*%
%ADD21R,1.900000X1.000000*%
%ADD22RoundRect,0.150000X0.512500X0.150000X-0.512500X0.150000X-0.512500X-0.150000X0.512500X-0.150000X0*%
G04 APERTURE END LIST*
D10*
X113195100Y-53545511D03*
X113195100Y-55420511D03*
X110909100Y-52451011D03*
X110909100Y-54326011D03*
D11*
X108544600Y-54991011D03*
X106669600Y-54991011D03*
D12*
X101574600Y-39865311D03*
X102209600Y-39865311D03*
X102844600Y-39865311D03*
X103479600Y-39865311D03*
X104114600Y-39865311D03*
X104749600Y-39865311D03*
X105384600Y-39865311D03*
X106019600Y-39865311D03*
X106654600Y-39865311D03*
X107289600Y-39865311D03*
X107924600Y-39865311D03*
X108559600Y-39865311D03*
X108559600Y-34556711D03*
X107924600Y-34556711D03*
X107289600Y-34556711D03*
X106654600Y-34556711D03*
X106019600Y-34556711D03*
X105384600Y-34556711D03*
X104749600Y-34556711D03*
X104114600Y-34556711D03*
X103479600Y-34556711D03*
X102844600Y-34556711D03*
X102209600Y-34556711D03*
X101574600Y-34556711D03*
D10*
X110909100Y-39654011D03*
X110909100Y-41529011D03*
D11*
X108466100Y-42291011D03*
X106591100Y-42291011D03*
D12*
X101574600Y-47256711D03*
X102209600Y-47256711D03*
X102844600Y-47256711D03*
X103479600Y-47256711D03*
X104114600Y-47256711D03*
X104749600Y-47256711D03*
X105384600Y-47256711D03*
X106019600Y-47256711D03*
X106654600Y-47256711D03*
X107289600Y-47256711D03*
X107924600Y-47256711D03*
X108559600Y-47256711D03*
X108559600Y-52565311D03*
X107924600Y-52565311D03*
X107289600Y-52565311D03*
X106654600Y-52565311D03*
X106019600Y-52565311D03*
X105384600Y-52565311D03*
X104749600Y-52565311D03*
X104114600Y-52565311D03*
X103479600Y-52565311D03*
X102844600Y-52565311D03*
X102209600Y-52565311D03*
X101574600Y-52565311D03*
D10*
X113195100Y-40767011D03*
X113195100Y-42642011D03*
D13*
X113284000Y-77010500D03*
X113284000Y-75135500D03*
D14*
X134355600Y-78994000D03*
X136230600Y-78994000D03*
D10*
X97701100Y-83354700D03*
X97701100Y-85229700D03*
D15*
X126020000Y-99124000D03*
X126020000Y-107124000D03*
X130520000Y-99124000D03*
X130520000Y-107124000D03*
D13*
X121450100Y-77569300D03*
X121450100Y-75694300D03*
D10*
X118005100Y-75760300D03*
X118005100Y-77635300D03*
D16*
X124395700Y-80078300D03*
X126295700Y-80078300D03*
X125345700Y-81953300D03*
D11*
X136230600Y-81280000D03*
X134355600Y-81280000D03*
X114894600Y-79631300D03*
X113019600Y-79631300D03*
D14*
X113019600Y-82679300D03*
X114894600Y-82679300D03*
D17*
X134343100Y-83124800D03*
X136243100Y-83124800D03*
X135293100Y-85124800D03*
D18*
X124244100Y-77647800D03*
X124244100Y-75747800D03*
X126244100Y-76697800D03*
D13*
X107099100Y-73291700D03*
X107099100Y-71416700D03*
X104813100Y-73291700D03*
X104813100Y-71416700D03*
D19*
X109317100Y-83282200D03*
X109317100Y-82482200D03*
X109317100Y-81682200D03*
X109317100Y-80882200D03*
X109317100Y-80082200D03*
X109317100Y-79282200D03*
X109317100Y-78482200D03*
X109317100Y-77682200D03*
D20*
X107867100Y-76232200D03*
X107067100Y-76232200D03*
X106267100Y-76232200D03*
X105467100Y-76232200D03*
X104667100Y-76232200D03*
X103867100Y-76232200D03*
X103067100Y-76232200D03*
X102267100Y-76232200D03*
D19*
X100817100Y-77682200D03*
X100817100Y-78482200D03*
X100817100Y-79282200D03*
X100817100Y-80082200D03*
X100817100Y-80882200D03*
X100817100Y-81682200D03*
X100817100Y-82482200D03*
X100817100Y-83282200D03*
D20*
X102267100Y-84732200D03*
X103067100Y-84732200D03*
X103867100Y-84732200D03*
X104667100Y-84732200D03*
X105467100Y-84732200D03*
X106267100Y-84732200D03*
X107067100Y-84732200D03*
X107867100Y-84732200D03*
D21*
X143890000Y-40309800D03*
X140590000Y-42849800D03*
X143890000Y-45389800D03*
X140590000Y-47929800D03*
X143890000Y-50469800D03*
X140590000Y-53009800D03*
X143890000Y-55549800D03*
X140590000Y-58089800D03*
X143890000Y-60629800D03*
X69214000Y-60629800D03*
X65914000Y-58089800D03*
X69214000Y-55549800D03*
X65914000Y-53009800D03*
X69214000Y-50469800D03*
X65914000Y-47929800D03*
X69214000Y-45389800D03*
X65914000Y-42849800D03*
X69214000Y-40309800D03*
D22*
X123057500Y-70424000D03*
X123057500Y-71374000D03*
X123057500Y-72324000D03*
X120782500Y-72324000D03*
X120782500Y-70424000D03*
M02*
