G04 #@! TF.GenerationSoftware,KiCad,Pcbnew,(6.0.4-0)*
G04 #@! TF.CreationDate,2022-04-25T16:23:07-04:00*
G04 #@! TF.ProjectId,unitron,756e6974-726f-46e2-9e6b-696361645f70,1.13*
G04 #@! TF.SameCoordinates,Original*
G04 #@! TF.FileFunction,Legend,Top*
G04 #@! TF.FilePolarity,Positive*
%FSLAX46Y46*%
G04 Gerber Fmt 4.6, Leading zero omitted, Abs format (unit mm)*
G04 Created by KiCad (PCBNEW (6.0.4-0)) date 2022-04-25 16:23:07*
%MOMM*%
%LPD*%
G01*
G04 APERTURE LIST*
%ADD10C,0.500000*%
%ADD11C,0.300000*%
%ADD12C,0.150000*%
%ADD13C,0.120000*%
G04 APERTURE END LIST*
D10*
X68545630Y-64593043D02*
X68545630Y-66616852D01*
X68664677Y-66854948D01*
X68783725Y-66973995D01*
X69021820Y-67093043D01*
X69498011Y-67093043D01*
X69736106Y-66973995D01*
X69855153Y-66854948D01*
X69974201Y-66616852D01*
X69974201Y-64593043D01*
X71164677Y-65426376D02*
X71164677Y-67093043D01*
X71164677Y-65664471D02*
X71283725Y-65545424D01*
X71521820Y-65426376D01*
X71878963Y-65426376D01*
X72117058Y-65545424D01*
X72236106Y-65783519D01*
X72236106Y-67093043D01*
X73426582Y-67093043D02*
X73426582Y-65426376D01*
X73426582Y-64593043D02*
X73307534Y-64712091D01*
X73426582Y-64831138D01*
X73545630Y-64712091D01*
X73426582Y-64593043D01*
X73426582Y-64831138D01*
X74259915Y-65426376D02*
X75212296Y-65426376D01*
X74617058Y-64593043D02*
X74617058Y-66735900D01*
X74736106Y-66973995D01*
X74974201Y-67093043D01*
X75212296Y-67093043D01*
X76045630Y-67093043D02*
X76045630Y-65426376D01*
X76045630Y-65902567D02*
X76164677Y-65664471D01*
X76283725Y-65545424D01*
X76521820Y-65426376D01*
X76759915Y-65426376D01*
X77950392Y-67093043D02*
X77712296Y-66973995D01*
X77593249Y-66854948D01*
X77474201Y-66616852D01*
X77474201Y-65902567D01*
X77593249Y-65664471D01*
X77712296Y-65545424D01*
X77950392Y-65426376D01*
X78307534Y-65426376D01*
X78545630Y-65545424D01*
X78664677Y-65664471D01*
X78783725Y-65902567D01*
X78783725Y-66616852D01*
X78664677Y-66854948D01*
X78545630Y-66973995D01*
X78307534Y-67093043D01*
X77950392Y-67093043D01*
X79855153Y-65426376D02*
X79855153Y-67093043D01*
X79855153Y-65664471D02*
X79974201Y-65545424D01*
X80212296Y-65426376D01*
X80569439Y-65426376D01*
X80807534Y-65545424D01*
X80926582Y-65783519D01*
X80926582Y-67093043D01*
X68307534Y-69451376D02*
X68902772Y-71118043D01*
X69498011Y-69451376D01*
X71759915Y-71118043D02*
X70331344Y-71118043D01*
X71045630Y-71118043D02*
X71045630Y-68618043D01*
X70807534Y-68975186D01*
X70569439Y-69213281D01*
X70331344Y-69332329D01*
X72831344Y-70879948D02*
X72950392Y-70998995D01*
X72831344Y-71118043D01*
X72712296Y-70998995D01*
X72831344Y-70879948D01*
X72831344Y-71118043D01*
X75331344Y-71118043D02*
X73902772Y-71118043D01*
X74617058Y-71118043D02*
X74617058Y-68618043D01*
X74378963Y-68975186D01*
X74140868Y-69213281D01*
X73902772Y-69332329D01*
X76164677Y-68618043D02*
X77712296Y-68618043D01*
X76878963Y-69570424D01*
X77236106Y-69570424D01*
X77474201Y-69689471D01*
X77593249Y-69808519D01*
X77712296Y-70046614D01*
X77712296Y-70641852D01*
X77593249Y-70879948D01*
X77474201Y-70998995D01*
X77236106Y-71118043D01*
X76521820Y-71118043D01*
X76283725Y-70998995D01*
X76164677Y-70879948D01*
D11*
X135238095Y-69542857D02*
X136761904Y-69542857D01*
X136000000Y-70304761D02*
X136000000Y-68780952D01*
D12*
X123685395Y-42072543D02*
X123685395Y-42882067D01*
X123733014Y-42977305D01*
X123780633Y-43024924D01*
X123875871Y-43072543D01*
X124066347Y-43072543D01*
X124161585Y-43024924D01*
X124209204Y-42977305D01*
X124256823Y-42882067D01*
X124256823Y-42072543D01*
X124685395Y-42167782D02*
X124733014Y-42120163D01*
X124828252Y-42072543D01*
X125066347Y-42072543D01*
X125161585Y-42120163D01*
X125209204Y-42167782D01*
X125256823Y-42263020D01*
X125256823Y-42358258D01*
X125209204Y-42501115D01*
X124637776Y-43072543D01*
X125256823Y-43072543D01*
X83680395Y-42072543D02*
X83680395Y-42882067D01*
X83728014Y-42977305D01*
X83775633Y-43024924D01*
X83870871Y-43072543D01*
X84061347Y-43072543D01*
X84156585Y-43024924D01*
X84204204Y-42977305D01*
X84251823Y-42882067D01*
X84251823Y-42072543D01*
X85251823Y-43072543D02*
X84680395Y-43072543D01*
X84966109Y-43072543D02*
X84966109Y-42072543D01*
X84870871Y-42215401D01*
X84775633Y-42310639D01*
X84680395Y-42358258D01*
X123685395Y-28737543D02*
X123685395Y-29547067D01*
X123733014Y-29642305D01*
X123780633Y-29689924D01*
X123875871Y-29737543D01*
X124066347Y-29737543D01*
X124161585Y-29689924D01*
X124209204Y-29642305D01*
X124256823Y-29547067D01*
X124256823Y-28737543D01*
X124637776Y-28737543D02*
X125304442Y-28737543D01*
X124875871Y-29737543D01*
X83045395Y-28737543D02*
X83045395Y-29547067D01*
X83093014Y-29642305D01*
X83140633Y-29689924D01*
X83235871Y-29737543D01*
X83426347Y-29737543D01*
X83521585Y-29689924D01*
X83569204Y-29642305D01*
X83616823Y-29547067D01*
X83616823Y-28737543D01*
X84521585Y-28737543D02*
X84331109Y-28737543D01*
X84235871Y-28785163D01*
X84188252Y-28832782D01*
X84093014Y-28975639D01*
X84045395Y-29166115D01*
X84045395Y-29547067D01*
X84093014Y-29642305D01*
X84140633Y-29689924D01*
X84235871Y-29737543D01*
X84426347Y-29737543D01*
X84521585Y-29689924D01*
X84569204Y-29642305D01*
X84616823Y-29547067D01*
X84616823Y-29308972D01*
X84569204Y-29213734D01*
X84521585Y-29166115D01*
X84426347Y-29118496D01*
X84235871Y-29118496D01*
X84140633Y-29166115D01*
X84093014Y-29213734D01*
X84045395Y-29308972D01*
X131457866Y-130409961D02*
X131600723Y-130457580D01*
X131838819Y-130457580D01*
X131934057Y-130409961D01*
X131981676Y-130362342D01*
X132029295Y-130267104D01*
X132029295Y-130171866D01*
X131981676Y-130076628D01*
X131934057Y-130029009D01*
X131838819Y-129981390D01*
X131648342Y-129933771D01*
X131553104Y-129886152D01*
X131505485Y-129838533D01*
X131457866Y-129743295D01*
X131457866Y-129648057D01*
X131505485Y-129552819D01*
X131553104Y-129505200D01*
X131648342Y-129457580D01*
X131886438Y-129457580D01*
X132029295Y-129505200D01*
X132362628Y-129457580D02*
X132600723Y-130457580D01*
X132791200Y-129743295D01*
X132981676Y-130457580D01*
X133219771Y-129457580D01*
X133505485Y-129457580D02*
X134124533Y-129457580D01*
X133791200Y-129838533D01*
X133934057Y-129838533D01*
X134029295Y-129886152D01*
X134076914Y-129933771D01*
X134124533Y-130029009D01*
X134124533Y-130267104D01*
X134076914Y-130362342D01*
X134029295Y-130409961D01*
X133934057Y-130457580D01*
X133648342Y-130457580D01*
X133553104Y-130409961D01*
X133505485Y-130362342D01*
D13*
X68656200Y-156540200D02*
X68656200Y-142570200D01*
X68656200Y-142570200D02*
X82626200Y-142570200D01*
X82626200Y-142570200D02*
X82626200Y-156540200D01*
X82626200Y-156540200D02*
X68656200Y-156540200D01*
X87706200Y-156540200D02*
X87706200Y-142570200D01*
X101676200Y-142570200D02*
X101676200Y-156540200D01*
X101676200Y-156540200D02*
X87706200Y-156540200D01*
X87706200Y-142570200D02*
X101676200Y-142570200D01*
X68656200Y-104470200D02*
X82626200Y-104470200D01*
X68656200Y-118440200D02*
X68656200Y-104470200D01*
X82626200Y-104470200D02*
X82626200Y-118440200D01*
X82626200Y-118440200D02*
X68656200Y-118440200D01*
X68656200Y-123520200D02*
X82626200Y-123520200D01*
X82626200Y-123520200D02*
X82626200Y-137490200D01*
X82626200Y-137490200D02*
X68656200Y-137490200D01*
X68656200Y-137490200D02*
X68656200Y-123520200D01*
X87706200Y-123520200D02*
X101676200Y-123520200D01*
X87706200Y-137490200D02*
X87706200Y-123520200D01*
X101676200Y-137490200D02*
X87706200Y-137490200D01*
X101676200Y-123520200D02*
X101676200Y-137490200D01*
X87706200Y-118440200D02*
X87706200Y-104470200D01*
X87706200Y-104470200D02*
X101676200Y-104470200D01*
X101676200Y-118440200D02*
X87706200Y-118440200D01*
X101676200Y-104470200D02*
X101676200Y-118440200D01*
X120726200Y-104470200D02*
X120726200Y-118440200D01*
X106756200Y-118440200D02*
X106756200Y-104470200D01*
X120726200Y-118440200D02*
X106756200Y-118440200D01*
X106756200Y-104470200D02*
X120726200Y-104470200D01*
X120726200Y-175590200D02*
X106756200Y-175590200D01*
X106756200Y-175590200D02*
X106756200Y-161620200D01*
X106756200Y-161620200D02*
X120726200Y-161620200D01*
X120726200Y-161620200D02*
X120726200Y-175590200D01*
X104103300Y-48766163D02*
X144283300Y-48766163D01*
X144283300Y-35966163D02*
X104103300Y-35966163D01*
X104103300Y-48766163D02*
X104103300Y-35966163D01*
X144283300Y-48766163D02*
X144283300Y-35966163D01*
X63971300Y-48766163D02*
X104151300Y-48766163D01*
X104151300Y-48766163D02*
X104151300Y-35966163D01*
X63971300Y-48766163D02*
X63971300Y-35966163D01*
X104151300Y-35966163D02*
X63971300Y-35966163D01*
X82626200Y-175590200D02*
X68656200Y-175590200D01*
X82626200Y-161620200D02*
X82626200Y-175590200D01*
X68656200Y-161620200D02*
X82626200Y-161620200D01*
X68656200Y-175590200D02*
X68656200Y-161620200D01*
X144283300Y-22885163D02*
X104103300Y-22885163D01*
X144283300Y-35685163D02*
X144283300Y-22885163D01*
X104103300Y-35685163D02*
X144283300Y-35685163D01*
X104103300Y-35685163D02*
X104103300Y-22885163D01*
X104151300Y-35685163D02*
X104151300Y-22885163D01*
X104151300Y-22885163D02*
X63971300Y-22885163D01*
X63971300Y-35685163D02*
X63971300Y-22885163D01*
X63971300Y-35685163D02*
X104151300Y-35685163D01*
X120726200Y-142570200D02*
X120726200Y-156540200D01*
X106756200Y-156540200D02*
X106756200Y-142570200D01*
X120726200Y-156540200D02*
X106756200Y-156540200D01*
X106756200Y-142570200D02*
X120726200Y-142570200D01*
X106756200Y-123520200D02*
X120726200Y-123520200D01*
X120726200Y-137490200D02*
X106756200Y-137490200D01*
X106756200Y-137490200D02*
X106756200Y-123520200D01*
X120726200Y-123520200D02*
X120726200Y-137490200D01*
G36*
X100604926Y-57196824D02*
G01*
X100734406Y-57323328D01*
X100810309Y-57552027D01*
X100835609Y-57900781D01*
X100812045Y-58228947D01*
X100741352Y-58463352D01*
X100623529Y-58603994D01*
X100458578Y-58650875D01*
X100160922Y-58559594D01*
X100160922Y-57198312D01*
X100418891Y-57154656D01*
X100604926Y-57196824D01*
G37*
G36*
X102026634Y-55544641D02*
G01*
X102266137Y-55580168D01*
X102501004Y-55638999D01*
X102728974Y-55720568D01*
X102947851Y-55824089D01*
X103155527Y-55948565D01*
X103350002Y-56092798D01*
X103529404Y-56255398D01*
X103692004Y-56434800D01*
X103836237Y-56629275D01*
X103960713Y-56836951D01*
X104064234Y-57055828D01*
X104145803Y-57283798D01*
X104204634Y-57518665D01*
X104240161Y-57758168D01*
X104252042Y-58000000D01*
X104240161Y-58241832D01*
X104204634Y-58481335D01*
X104145803Y-58716202D01*
X104064234Y-58944172D01*
X103960713Y-59163049D01*
X103836237Y-59370725D01*
X103692004Y-59565200D01*
X103529404Y-59744602D01*
X103350002Y-59907202D01*
X103155527Y-60051435D01*
X102947851Y-60175911D01*
X102728974Y-60279432D01*
X102501004Y-60361001D01*
X102266137Y-60419832D01*
X102026634Y-60455359D01*
X101784802Y-60467240D01*
X95215198Y-60467240D01*
X94973366Y-60455359D01*
X94733863Y-60419832D01*
X94498996Y-60361001D01*
X94271026Y-60279432D01*
X94052149Y-60175911D01*
X93844473Y-60051435D01*
X93649998Y-59907202D01*
X93538097Y-59805781D01*
X99724359Y-59805781D01*
X100160922Y-59805781D01*
X100160922Y-58892969D01*
X100329594Y-58952500D01*
X100510172Y-58972344D01*
X100743005Y-58942578D01*
X100933505Y-58853281D01*
X101081672Y-58704453D01*
X101187505Y-58496094D01*
X101251005Y-58228203D01*
X101272172Y-57900781D01*
X101249021Y-57553516D01*
X101179568Y-57279010D01*
X101063813Y-57077266D01*
X100897345Y-56939462D01*
X100675757Y-56856780D01*
X100399047Y-56829219D01*
X100161804Y-56843330D01*
X99936908Y-56885663D01*
X99724359Y-56956219D01*
X99724359Y-59805781D01*
X93538097Y-59805781D01*
X93470596Y-59744602D01*
X93307996Y-59565200D01*
X93163763Y-59370725D01*
X93039287Y-59163049D01*
X92935766Y-58944172D01*
X92854197Y-58716202D01*
X92795366Y-58481335D01*
X92759839Y-58241832D01*
X92747958Y-58000000D01*
X92759839Y-57758168D01*
X92795366Y-57518665D01*
X92854197Y-57283798D01*
X92859223Y-57269750D01*
X95727828Y-57269750D01*
X96136609Y-57269750D01*
X96136609Y-58337344D01*
X96171832Y-58644922D01*
X96277500Y-58837406D01*
X96473457Y-58938609D01*
X96779547Y-58972344D01*
X96998820Y-58960438D01*
X97196266Y-58924719D01*
X97196266Y-58563563D01*
X97026602Y-58608211D01*
X96858922Y-58623094D01*
X96620797Y-58557609D01*
X96569203Y-58257969D01*
X96569203Y-57404687D01*
X97759828Y-57404687D01*
X97799516Y-57633387D01*
X97918578Y-57811484D01*
X98131898Y-57949895D01*
X98454359Y-58059531D01*
X98716297Y-58178594D01*
X98787734Y-58377031D01*
X98696453Y-58585391D01*
X98394828Y-58650875D01*
X98096180Y-58612180D01*
X97779672Y-58496094D01*
X97779672Y-58845344D01*
X97991339Y-58915899D01*
X98218880Y-58958233D01*
X98462297Y-58972344D01*
X98786246Y-58933648D01*
X99027844Y-58817563D01*
X99178160Y-58630039D01*
X99228266Y-58377031D01*
X99190066Y-58123031D01*
X99075469Y-57940469D01*
X98855699Y-57805531D01*
X98501984Y-57694406D01*
X98265844Y-57583281D01*
X98196391Y-57404687D01*
X98282711Y-57211211D01*
X98541672Y-57146719D01*
X98843297Y-57171523D01*
X99160797Y-57245937D01*
X99160797Y-56916531D01*
X98953540Y-56868024D01*
X98733936Y-56838920D01*
X98501984Y-56829219D01*
X98178531Y-56866426D01*
X97946359Y-56978047D01*
X97806461Y-57159121D01*
X97759828Y-57404687D01*
X96569203Y-57404687D01*
X96569203Y-57269750D01*
X97235953Y-57269750D01*
X97235953Y-56948281D01*
X96569203Y-56948281D01*
X96569203Y-56194219D01*
X96136609Y-56194219D01*
X96136609Y-56948281D01*
X95727828Y-56948281D01*
X95727828Y-57269750D01*
X92859223Y-57269750D01*
X92935766Y-57055828D01*
X93039287Y-56836951D01*
X93163763Y-56629275D01*
X93307996Y-56434800D01*
X93470596Y-56255398D01*
X93649998Y-56092798D01*
X93844473Y-55948565D01*
X94052149Y-55824089D01*
X94271026Y-55720568D01*
X94498996Y-55638999D01*
X94733863Y-55580168D01*
X94973366Y-55544641D01*
X95215198Y-55532760D01*
X101784802Y-55532760D01*
X102026634Y-55544641D01*
G37*
G36*
X114515575Y-55534767D02*
G01*
X114756041Y-55570437D01*
X114991853Y-55629504D01*
X115220739Y-55711401D01*
X115440497Y-55815339D01*
X115649008Y-55940316D01*
X115844265Y-56085128D01*
X116024388Y-56248382D01*
X116187643Y-56428505D01*
X116332455Y-56623763D01*
X116457432Y-56832274D01*
X116561370Y-57052031D01*
X116643267Y-57280918D01*
X116702334Y-57516730D01*
X116738004Y-57757196D01*
X116749932Y-58000000D01*
X116738004Y-58242804D01*
X116702334Y-58483270D01*
X116643267Y-58719082D01*
X116561370Y-58947969D01*
X116457432Y-59167726D01*
X116332455Y-59376237D01*
X116187643Y-59571495D01*
X116024388Y-59751618D01*
X115844265Y-59914872D01*
X115649008Y-60059684D01*
X115440497Y-60184661D01*
X115220739Y-60288599D01*
X114991853Y-60370496D01*
X114756041Y-60429563D01*
X114515575Y-60465233D01*
X114272771Y-60477161D01*
X109727229Y-60477161D01*
X109484425Y-60465233D01*
X109243959Y-60429563D01*
X109008147Y-60370496D01*
X108779261Y-60288599D01*
X108559503Y-60184661D01*
X108350992Y-60059684D01*
X108155735Y-59914872D01*
X107975612Y-59751618D01*
X107812357Y-59571495D01*
X107667545Y-59376237D01*
X107542568Y-59167726D01*
X107438630Y-58947969D01*
X107356733Y-58719082D01*
X107297666Y-58483270D01*
X107261996Y-58242804D01*
X107250068Y-58000000D01*
X110239859Y-58000000D01*
X110262790Y-58341313D01*
X110331582Y-58613833D01*
X110446234Y-58817563D01*
X110607630Y-58958674D01*
X110816651Y-59043340D01*
X111073297Y-59071563D01*
X111329943Y-59043340D01*
X111358247Y-59031875D01*
X112351234Y-59031875D01*
X113760141Y-59031875D01*
X113760141Y-58710406D01*
X112851297Y-58710406D01*
X112851297Y-58702469D01*
X113760141Y-57289594D01*
X113760141Y-56968125D01*
X112351234Y-56968125D01*
X112351234Y-57289594D01*
X113260078Y-57289594D01*
X113260078Y-57297531D01*
X112351234Y-58710406D01*
X112351234Y-59031875D01*
X111358247Y-59031875D01*
X111538964Y-58958674D01*
X111700359Y-58817563D01*
X111815012Y-58613833D01*
X111883804Y-58341313D01*
X111906734Y-58000000D01*
X111883804Y-57658687D01*
X111815012Y-57386167D01*
X111700359Y-57182437D01*
X111538964Y-57041326D01*
X111329943Y-56956660D01*
X111073297Y-56928437D01*
X110816651Y-56956660D01*
X110607630Y-57041326D01*
X110446234Y-57182437D01*
X110331582Y-57386167D01*
X110262790Y-57658687D01*
X110239859Y-58000000D01*
X107250068Y-58000000D01*
X107261996Y-57757196D01*
X107297666Y-57516730D01*
X107356733Y-57280918D01*
X107438630Y-57052031D01*
X107542568Y-56832274D01*
X107667545Y-56623763D01*
X107812357Y-56428505D01*
X107975612Y-56248382D01*
X108155735Y-56085128D01*
X108350992Y-55940316D01*
X108559503Y-55815339D01*
X108779261Y-55711401D01*
X109008147Y-55629504D01*
X109243959Y-55570437D01*
X109484425Y-55534767D01*
X109727229Y-55522839D01*
X114272771Y-55522839D01*
X114515575Y-55534767D01*
G37*
G36*
X111253379Y-57293066D02*
G01*
X111372937Y-57410641D01*
X111439910Y-57636363D01*
X111462234Y-58000000D01*
X111439910Y-58363637D01*
X111372937Y-58589359D01*
X111253379Y-58706934D01*
X111073297Y-58746125D01*
X110893215Y-58706934D01*
X110773656Y-58589359D01*
X110706684Y-58363637D01*
X110684359Y-58000000D01*
X110706684Y-57636363D01*
X110773656Y-57410641D01*
X110893215Y-57293066D01*
X111073297Y-57253875D01*
X111253379Y-57293066D01*
G37*
X138815000Y-101960000D02*
X141500000Y-101960000D01*
X138815000Y-100040000D02*
X138815000Y-101960000D01*
X141500000Y-100040000D02*
X138815000Y-100040000D01*
X140097200Y-92109600D02*
X142757200Y-92109600D01*
X140097200Y-71669600D02*
X141427200Y-71669600D01*
X140097200Y-74269600D02*
X142757200Y-74269600D01*
X140097200Y-74269600D02*
X140097200Y-92109600D01*
X142757200Y-74269600D02*
X142757200Y-92109600D01*
X140097200Y-72999600D02*
X140097200Y-71669600D01*
X101676200Y-161620200D02*
X101676200Y-175590200D01*
X87706200Y-161620200D02*
X101676200Y-161620200D01*
X101676200Y-175590200D02*
X87706200Y-175590200D01*
X87706200Y-175590200D02*
X87706200Y-161620200D01*
G36*
X75023962Y-55531475D02*
G01*
X75264749Y-55567193D01*
X75500875Y-55626339D01*
X75730068Y-55708346D01*
X75950118Y-55812422D01*
X76158908Y-55937566D01*
X76354426Y-56082572D01*
X76534790Y-56246044D01*
X76698262Y-56426407D01*
X76843268Y-56621925D01*
X76968411Y-56830715D01*
X77072488Y-57050766D01*
X77154494Y-57279958D01*
X77213641Y-57516085D01*
X77249358Y-57756872D01*
X77261302Y-58000000D01*
X77249358Y-58243128D01*
X77213641Y-58483915D01*
X77154494Y-58720042D01*
X77072488Y-58949234D01*
X76968411Y-59169285D01*
X76843268Y-59378075D01*
X76698262Y-59573593D01*
X76534790Y-59753956D01*
X76354426Y-59917428D01*
X76158908Y-60062434D01*
X75950118Y-60187578D01*
X75730068Y-60291654D01*
X75500875Y-60373661D01*
X75264749Y-60432807D01*
X75023962Y-60468525D01*
X74780833Y-60480469D01*
X68219167Y-60480469D01*
X67976038Y-60468525D01*
X67735251Y-60432807D01*
X67499125Y-60373661D01*
X67269932Y-60291654D01*
X67049882Y-60187578D01*
X66841092Y-60062434D01*
X66645574Y-59917428D01*
X66536986Y-59819010D01*
X72720391Y-59819010D01*
X73156953Y-59819010D01*
X73156953Y-58906198D01*
X73325625Y-58965729D01*
X73506203Y-58985573D01*
X73739036Y-58955807D01*
X73929536Y-58866510D01*
X74077703Y-58717682D01*
X74183536Y-58509323D01*
X74247036Y-58241432D01*
X74268203Y-57914010D01*
X74245052Y-57566745D01*
X74175599Y-57292240D01*
X74059844Y-57090495D01*
X73893377Y-56952691D01*
X73671788Y-56870009D01*
X73395078Y-56842448D01*
X73157835Y-56856559D01*
X72932939Y-56898892D01*
X72720391Y-56969448D01*
X72720391Y-59819010D01*
X66536986Y-59819010D01*
X66465210Y-59753956D01*
X66301738Y-59573593D01*
X66156732Y-59378075D01*
X66031589Y-59169285D01*
X65927512Y-58949234D01*
X65845506Y-58720042D01*
X65786359Y-58483915D01*
X65750642Y-58243128D01*
X65738698Y-58000000D01*
X65742922Y-57914010D01*
X68731797Y-57914010D01*
X68759137Y-58239448D01*
X68841158Y-58506677D01*
X68977859Y-58715698D01*
X69164391Y-58865628D01*
X69395901Y-58955587D01*
X69672391Y-58985573D01*
X69921430Y-58960768D01*
X70160547Y-58886354D01*
X70160547Y-58560917D01*
X69938297Y-58647237D01*
X69723984Y-58676010D01*
X69496773Y-58628385D01*
X69323141Y-58485510D01*
X69233199Y-58291042D01*
X70747922Y-58291042D01*
X70788602Y-58628385D01*
X70910641Y-58838729D01*
X71050870Y-58920309D01*
X71254599Y-58969257D01*
X71521828Y-58985573D01*
X71777151Y-58967052D01*
X72008661Y-58911490D01*
X72216359Y-58818885D01*
X72216359Y-56882135D01*
X71779797Y-56882135D01*
X71783766Y-58580760D01*
X71513891Y-58660135D01*
X71246000Y-58582745D01*
X71172578Y-58291042D01*
X71172578Y-56882135D01*
X70747922Y-56882135D01*
X70747922Y-58291042D01*
X69233199Y-58291042D01*
X69213008Y-58247385D01*
X69176297Y-57914010D01*
X69208047Y-57590061D01*
X69303297Y-57356401D01*
X69455102Y-57215014D01*
X69656516Y-57167885D01*
X69763672Y-57179792D01*
X69763672Y-57636198D01*
X70180391Y-57636198D01*
X70180391Y-56921823D01*
X69936312Y-56862292D01*
X69664453Y-56842448D01*
X69417014Y-56864317D01*
X69207642Y-56929922D01*
X69036338Y-57039266D01*
X68903101Y-57192346D01*
X68807932Y-57389163D01*
X68750831Y-57629718D01*
X68731797Y-57914010D01*
X65742922Y-57914010D01*
X65750642Y-57756872D01*
X65786359Y-57516085D01*
X65845506Y-57279958D01*
X65927512Y-57050766D01*
X66031589Y-56830715D01*
X66156732Y-56621925D01*
X66301738Y-56426407D01*
X66465210Y-56246044D01*
X66645574Y-56082572D01*
X66841092Y-55937566D01*
X67049882Y-55812422D01*
X67269932Y-55708346D01*
X67499125Y-55626339D01*
X67735251Y-55567193D01*
X67976038Y-55531475D01*
X68219167Y-55519531D01*
X74780833Y-55519531D01*
X75023962Y-55531475D01*
G37*
G36*
X73600957Y-57210053D02*
G01*
X73730437Y-57336557D01*
X73806340Y-57565257D01*
X73831641Y-57914010D01*
X73808076Y-58242176D01*
X73737383Y-58476581D01*
X73619561Y-58617223D01*
X73454609Y-58664104D01*
X73156953Y-58572823D01*
X73156953Y-57211542D01*
X73414922Y-57167885D01*
X73600957Y-57210053D01*
G37*
G36*
X139337344Y-56841125D02*
G01*
X139337344Y-58103188D01*
X139039688Y-58194469D01*
X138874736Y-58151309D01*
X138756914Y-58021828D01*
X138686221Y-57806027D01*
X138662656Y-57503906D01*
X138689941Y-57182437D01*
X138771797Y-56972094D01*
X138913184Y-56856008D01*
X139119063Y-56817312D01*
X139337344Y-56841125D01*
G37*
G36*
X140531610Y-55511727D02*
G01*
X140774323Y-55547730D01*
X141012339Y-55607350D01*
X141243365Y-55690012D01*
X141465176Y-55794921D01*
X141675636Y-55921066D01*
X141872718Y-56067232D01*
X142054524Y-56232012D01*
X142219304Y-56413819D01*
X142365470Y-56610901D01*
X142491615Y-56821361D01*
X142596524Y-57043172D01*
X142679186Y-57274198D01*
X142738806Y-57512213D01*
X142774809Y-57754927D01*
X142786849Y-58000000D01*
X142774809Y-58245073D01*
X142738806Y-58487787D01*
X142679186Y-58725802D01*
X142596524Y-58956828D01*
X142491615Y-59178639D01*
X142365470Y-59389099D01*
X142219304Y-59586181D01*
X142054524Y-59767988D01*
X141872718Y-59932768D01*
X141675636Y-60078934D01*
X141465176Y-60205079D01*
X141243365Y-60309988D01*
X141012339Y-60392650D01*
X140774323Y-60452270D01*
X140531610Y-60488273D01*
X140286536Y-60500313D01*
X137713464Y-60500313D01*
X137468390Y-60488273D01*
X137225677Y-60452270D01*
X136987661Y-60392650D01*
X136756635Y-60309988D01*
X136534824Y-60205079D01*
X136324364Y-60078934D01*
X136127282Y-59932768D01*
X135945476Y-59767988D01*
X135780696Y-59586181D01*
X135634530Y-59389099D01*
X135508385Y-59178639D01*
X135403476Y-58956828D01*
X135320814Y-58725802D01*
X135261194Y-58487787D01*
X135225191Y-58245073D01*
X135213151Y-58000000D01*
X135225191Y-57754927D01*
X135261194Y-57512213D01*
X135263275Y-57503906D01*
X138226094Y-57503906D01*
X138247260Y-57813138D01*
X138310760Y-58066146D01*
X138416594Y-58262930D01*
X138564760Y-58403490D01*
X138755260Y-58487826D01*
X138988094Y-58515938D01*
X139168672Y-58496094D01*
X139337344Y-58436563D01*
X139337344Y-58496094D01*
X139282277Y-58781844D01*
X139117078Y-58996156D01*
X138948847Y-59095375D01*
X138737842Y-59154906D01*
X138484063Y-59174750D01*
X138484063Y-59508125D01*
X138772665Y-59490266D01*
X139027285Y-59436688D01*
X139247923Y-59347391D01*
X139434578Y-59222375D01*
X139623094Y-59008063D01*
X139736203Y-58746125D01*
X139773906Y-58436563D01*
X139773906Y-56579187D01*
X139472281Y-56513703D01*
X139138906Y-56491875D01*
X138846101Y-56517892D01*
X138613267Y-56595944D01*
X138440406Y-56726031D01*
X138321344Y-56916531D01*
X138249906Y-57175823D01*
X138226094Y-57503906D01*
X135263275Y-57503906D01*
X135320814Y-57274198D01*
X135403476Y-57043172D01*
X135508385Y-56821361D01*
X135634530Y-56610901D01*
X135780696Y-56413819D01*
X135945476Y-56232012D01*
X136127282Y-56067232D01*
X136324364Y-55921066D01*
X136534824Y-55794921D01*
X136756635Y-55690012D01*
X136987661Y-55607350D01*
X137225677Y-55547730D01*
X137468390Y-55511727D01*
X137713464Y-55499687D01*
X140286536Y-55499687D01*
X140531610Y-55511727D01*
G37*
G36*
X128081546Y-55529830D02*
G01*
X128322493Y-55565571D01*
X128558777Y-55624757D01*
X128788122Y-55706818D01*
X129008320Y-55810963D01*
X129217249Y-55936191D01*
X129412897Y-56081293D01*
X129593381Y-56244874D01*
X129756962Y-56425358D01*
X129902065Y-56621007D01*
X130027292Y-56829936D01*
X130131437Y-57050133D01*
X130213498Y-57279478D01*
X130272684Y-57515762D01*
X130308425Y-57756709D01*
X130320378Y-58000000D01*
X130308425Y-58243291D01*
X130272684Y-58484238D01*
X130213498Y-58720522D01*
X130131437Y-58949867D01*
X130027292Y-59170064D01*
X129902065Y-59378993D01*
X129756962Y-59574642D01*
X129593381Y-59755126D01*
X129412897Y-59918707D01*
X129217249Y-60063809D01*
X129008320Y-60189037D01*
X128788122Y-60293182D01*
X128558777Y-60375243D01*
X128322493Y-60434429D01*
X128081546Y-60470170D01*
X127838255Y-60482122D01*
X123161745Y-60482122D01*
X122918454Y-60470170D01*
X122677507Y-60434429D01*
X122441223Y-60375243D01*
X122211878Y-60293182D01*
X121991680Y-60189037D01*
X121782751Y-60063809D01*
X121587103Y-59918707D01*
X121406619Y-59755126D01*
X121243038Y-59574642D01*
X121149555Y-59448594D01*
X123674375Y-59448594D01*
X124091094Y-59448594D01*
X124091094Y-57726156D01*
X124249844Y-57670594D01*
X124364937Y-57712266D01*
X124396687Y-57861094D01*
X124396687Y-59448594D01*
X124793562Y-59448594D01*
X124793562Y-57726156D01*
X124956281Y-57670594D01*
X125067406Y-57710281D01*
X125099156Y-57861094D01*
X125099156Y-59448594D01*
X125500000Y-59448594D01*
X125956406Y-59448594D01*
X127325625Y-59448594D01*
X127325625Y-59103313D01*
X126400906Y-59103313D01*
X126400906Y-56551406D01*
X125956406Y-56551406D01*
X125956406Y-59448594D01*
X125500000Y-59448594D01*
X125500000Y-57900781D01*
X125472715Y-57625449D01*
X125390859Y-57458266D01*
X125233598Y-57373434D01*
X124980094Y-57345156D01*
X124772727Y-57369961D01*
X124587187Y-57444375D01*
X124435383Y-57369961D01*
X124233969Y-57345156D01*
X123937305Y-57382859D01*
X123674375Y-57495969D01*
X123674375Y-59448594D01*
X121149555Y-59448594D01*
X121097935Y-59378993D01*
X120972708Y-59170064D01*
X120868563Y-58949867D01*
X120786502Y-58720522D01*
X120727316Y-58484238D01*
X120691575Y-58243291D01*
X120679622Y-58000000D01*
X120691575Y-57756709D01*
X120727316Y-57515762D01*
X120786502Y-57279478D01*
X120868563Y-57050133D01*
X120972708Y-56829936D01*
X121097935Y-56621007D01*
X121243038Y-56425358D01*
X121406619Y-56244874D01*
X121587103Y-56081293D01*
X121782751Y-55936191D01*
X121991680Y-55810963D01*
X122211878Y-55706818D01*
X122441223Y-55624757D01*
X122677507Y-55565571D01*
X122918454Y-55529830D01*
X123161745Y-55517878D01*
X127838255Y-55517878D01*
X128081546Y-55529830D01*
G37*
X125806200Y-142570200D02*
X139776200Y-142570200D01*
X125806200Y-156540200D02*
X125806200Y-142570200D01*
X139776200Y-142570200D02*
X139776200Y-156540200D01*
X139776200Y-156540200D02*
X125806200Y-156540200D01*
X68081200Y-74269600D02*
X68081200Y-92109600D01*
X65421200Y-74269600D02*
X65421200Y-92109600D01*
X65421200Y-71669600D02*
X66751200Y-71669600D01*
X65421200Y-72999600D02*
X65421200Y-71669600D01*
X65421200Y-92109600D02*
X68081200Y-92109600D01*
X65421200Y-74269600D02*
X68081200Y-74269600D01*
X139776200Y-161620200D02*
X139776200Y-175590200D01*
X125806200Y-161620200D02*
X139776200Y-161620200D01*
X125806200Y-175590200D02*
X125806200Y-161620200D01*
X139776200Y-175590200D02*
X125806200Y-175590200D01*
G36*
X86176238Y-57732605D02*
G01*
X86283891Y-57859109D01*
X86347887Y-58087809D01*
X86369219Y-58436563D01*
X86343422Y-58794742D01*
X86266031Y-59027906D01*
X86136055Y-59155898D01*
X85952500Y-59198563D01*
X85694531Y-59146969D01*
X85694531Y-57825375D01*
X85838398Y-57724172D01*
X86023938Y-57690437D01*
X86176238Y-57732605D01*
G37*
G36*
X87559433Y-55552869D02*
G01*
X87798133Y-55588277D01*
X88032213Y-55646911D01*
X88259419Y-55728207D01*
X88477563Y-55831381D01*
X88684543Y-55955440D01*
X88878366Y-56099189D01*
X89057167Y-56261245D01*
X89219222Y-56440045D01*
X89362971Y-56633869D01*
X89487031Y-56840849D01*
X89590205Y-57058992D01*
X89671500Y-57286198D01*
X89730134Y-57520278D01*
X89765542Y-57758979D01*
X89777383Y-58000000D01*
X89765542Y-58241021D01*
X89730134Y-58479722D01*
X89671500Y-58713802D01*
X89590205Y-58941008D01*
X89487031Y-59159151D01*
X89362971Y-59366131D01*
X89219222Y-59559955D01*
X89057167Y-59738755D01*
X88878366Y-59900811D01*
X88684543Y-60044560D01*
X88477563Y-60168619D01*
X88259419Y-60271793D01*
X88032213Y-60353089D01*
X87798133Y-60411723D01*
X87559433Y-60447131D01*
X87318411Y-60458971D01*
X82681589Y-60458971D01*
X82440567Y-60447131D01*
X82201867Y-60411723D01*
X81967787Y-60353089D01*
X81740581Y-60271793D01*
X81522437Y-60168619D01*
X81315457Y-60044560D01*
X81121634Y-59900811D01*
X80942833Y-59738755D01*
X80780778Y-59559955D01*
X80637029Y-59366131D01*
X80512969Y-59159151D01*
X80409795Y-58941008D01*
X80328500Y-58713802D01*
X80269866Y-58479722D01*
X80234458Y-58241021D01*
X80222617Y-58000000D01*
X80234458Y-57758979D01*
X80269866Y-57520278D01*
X80328500Y-57286198D01*
X80409795Y-57058992D01*
X80477174Y-56916531D01*
X83194219Y-56916531D01*
X83785562Y-56916531D01*
X83785562Y-59468438D01*
X84230062Y-59468438D01*
X84230062Y-59381125D01*
X85257969Y-59381125D01*
X85461698Y-59451681D01*
X85686594Y-59494014D01*
X85932656Y-59508125D01*
X86207382Y-59481005D01*
X86428309Y-59399646D01*
X86595438Y-59264047D01*
X86712295Y-59063625D01*
X86782410Y-58787797D01*
X86805781Y-58436563D01*
X86785717Y-58091281D01*
X86725524Y-57817437D01*
X86625203Y-57615031D01*
X86483431Y-57476125D01*
X86298884Y-57392781D01*
X86071563Y-57365000D01*
X85878086Y-57386828D01*
X85694531Y-57452312D01*
X85694531Y-56491875D01*
X85257969Y-56491875D01*
X85257969Y-59381125D01*
X84230062Y-59381125D01*
X84230062Y-56916531D01*
X84821406Y-56916531D01*
X84821406Y-56571250D01*
X83194219Y-56571250D01*
X83194219Y-56916531D01*
X80477174Y-56916531D01*
X80512969Y-56840849D01*
X80637029Y-56633869D01*
X80780778Y-56440045D01*
X80942833Y-56261245D01*
X81121634Y-56099189D01*
X81315457Y-55955440D01*
X81522437Y-55831381D01*
X81740581Y-55728207D01*
X81967787Y-55646911D01*
X82201867Y-55588277D01*
X82440567Y-55552869D01*
X82681589Y-55541029D01*
X87318411Y-55541029D01*
X87559433Y-55552869D01*
G37*
M02*
