G04 #@! TF.GenerationSoftware,KiCad,Pcbnew,(6.0.4-0)*
G04 #@! TF.CreationDate,2022-04-25T16:23:07-04:00*
G04 #@! TF.ProjectId,unitron,756e6974-726f-46e2-9e6b-696361645f70,1.13*
G04 #@! TF.SameCoordinates,Original*
G04 #@! TF.FileFunction,Paste,Bot*
G04 #@! TF.FilePolarity,Positive*
%FSLAX46Y46*%
G04 Gerber Fmt 4.6, Leading zero omitted, Abs format (unit mm)*
G04 Created by KiCad (PCBNEW (6.0.4-0)) date 2022-04-25 16:23:07*
%MOMM*%
%LPD*%
G01*
G04 APERTURE LIST*
G04 Aperture macros list*
%AMRoundRect*
0 Rectangle with rounded corners*
0 $1 Rounding radius*
0 $2 $3 $4 $5 $6 $7 $8 $9 X,Y pos of 4 corners*
0 Add a 4 corners polygon primitive as box body*
4,1,4,$2,$3,$4,$5,$6,$7,$8,$9,$2,$3,0*
0 Add four circle primitives for the rounded corners*
1,1,$1+$1,$2,$3*
1,1,$1+$1,$4,$5*
1,1,$1+$1,$6,$7*
1,1,$1+$1,$8,$9*
0 Add four rect primitives between the rounded corners*
20,1,$1+$1,$2,$3,$4,$5,0*
20,1,$1+$1,$4,$5,$6,$7,0*
20,1,$1+$1,$6,$7,$8,$9,0*
20,1,$1+$1,$8,$9,$2,$3,0*%
G04 Aperture macros list end*
%ADD10RoundRect,0.250000X-0.450000X0.262500X-0.450000X-0.262500X0.450000X-0.262500X0.450000X0.262500X0*%
%ADD11R,0.410000X1.600000*%
%ADD12RoundRect,0.250000X0.450000X-0.262500X0.450000X0.262500X-0.450000X0.262500X-0.450000X-0.262500X0*%
%ADD13RoundRect,0.250000X-0.262500X-0.450000X0.262500X-0.450000X0.262500X0.450000X-0.262500X0.450000X0*%
%ADD14RoundRect,0.250000X-0.475000X0.250000X-0.475000X-0.250000X0.475000X-0.250000X0.475000X0.250000X0*%
%ADD15RoundRect,0.250000X0.475000X-0.250000X0.475000X0.250000X-0.475000X0.250000X-0.475000X-0.250000X0*%
%ADD16RoundRect,0.150000X0.150000X-0.512500X0.150000X0.512500X-0.150000X0.512500X-0.150000X-0.512500X0*%
%ADD17R,1.900000X1.000000*%
%ADD18R,1.100000X1.100000*%
G04 APERTURE END LIST*
D10*
X111000000Y-48087500D03*
X111000000Y-49912500D03*
X109250000Y-44837500D03*
X109250000Y-46662500D03*
X109250000Y-48087500D03*
X109250000Y-49912500D03*
X110000000Y-28487500D03*
X110000000Y-30312500D03*
X109400000Y-32487500D03*
X109400000Y-34312500D03*
D11*
X100761800Y-39330863D03*
X101396800Y-39330863D03*
X102031800Y-39330863D03*
X102666800Y-39330863D03*
X103301800Y-39330863D03*
X103936800Y-39330863D03*
X104571800Y-39330863D03*
X105206800Y-39330863D03*
X105841800Y-39330863D03*
X106476800Y-39330863D03*
X107111800Y-39330863D03*
X107746800Y-39330863D03*
X107746800Y-44639463D03*
X107111800Y-44639463D03*
X106476800Y-44639463D03*
X105841800Y-44639463D03*
X105206800Y-44639463D03*
X104571800Y-44639463D03*
X103936800Y-44639463D03*
X103301800Y-44639463D03*
X102666800Y-44639463D03*
X102031800Y-44639463D03*
X101396800Y-44639463D03*
X100761800Y-44639463D03*
D10*
X111800000Y-30337500D03*
X111800000Y-32162500D03*
D12*
X117025400Y-72887100D03*
X117025400Y-71062100D03*
D13*
X116837500Y-80000000D03*
X118662500Y-80000000D03*
X70587500Y-32500000D03*
X72412500Y-32500000D03*
X70587500Y-45000000D03*
X72412500Y-45000000D03*
D14*
X106750000Y-48550000D03*
X106750000Y-50450000D03*
D13*
X70587500Y-40000000D03*
X72412500Y-40000000D03*
D15*
X104750000Y-50450000D03*
X104750000Y-48550000D03*
D10*
X140025400Y-67062100D03*
X140025400Y-68887100D03*
D12*
X130025400Y-67887100D03*
X130025400Y-66062100D03*
X120250400Y-71887100D03*
X120250400Y-70062100D03*
D13*
X70587500Y-42500000D03*
X72412500Y-42500000D03*
D16*
X126950000Y-68137500D03*
X126000000Y-68137500D03*
X125050000Y-68137500D03*
X125050000Y-65862500D03*
X126950000Y-65862500D03*
D13*
X70587500Y-47750000D03*
X72412500Y-47750000D03*
X70587500Y-35000000D03*
X72412500Y-35000000D03*
D17*
X139777200Y-32406173D03*
X143077200Y-34946173D03*
X139777200Y-37486173D03*
X143077200Y-40026173D03*
X139777200Y-42566173D03*
X143077200Y-45106173D03*
X139777200Y-47646173D03*
X143077200Y-50186173D03*
D18*
X132999988Y-66599991D03*
X132999988Y-69399991D03*
D13*
X70587500Y-50250000D03*
X72412500Y-50250000D03*
D11*
X100732900Y-26691873D03*
X101367900Y-26691873D03*
X102002900Y-26691873D03*
X102637900Y-26691873D03*
X103272900Y-26691873D03*
X103907900Y-26691873D03*
X104542900Y-26691873D03*
X105177900Y-26691873D03*
X105812900Y-26691873D03*
X106447900Y-26691873D03*
X107082900Y-26691873D03*
X107717900Y-26691873D03*
X107717900Y-32000473D03*
X107082900Y-32000473D03*
X106447900Y-32000473D03*
X105812900Y-32000473D03*
X105177900Y-32000473D03*
X104542900Y-32000473D03*
X103907900Y-32000473D03*
X103272900Y-32000473D03*
X102637900Y-32000473D03*
X102002900Y-32000473D03*
X101367900Y-32000473D03*
X100732900Y-32000473D03*
D10*
X118025400Y-67062100D03*
X118025400Y-68887100D03*
X122625400Y-70087100D03*
X122625400Y-71912100D03*
D17*
X65101200Y-32406173D03*
X68401200Y-34946173D03*
X65101200Y-37486173D03*
X68401200Y-40026173D03*
X65101200Y-42566173D03*
X68401200Y-45106173D03*
X65101200Y-47646173D03*
X68401200Y-50186173D03*
D13*
X116837500Y-77500000D03*
X118662500Y-77500000D03*
D10*
X121025400Y-65062100D03*
X121025400Y-66887100D03*
D13*
X70587500Y-37500000D03*
X72412500Y-37500000D03*
D15*
X130000000Y-71750000D03*
X130000000Y-69850000D03*
M02*
