G04 #@! TF.GenerationSoftware,KiCad,Pcbnew,(5.99.0-8123-gb2cbd99365)*
G04 #@! TF.CreationDate,2021-02-13T19:05:43-05:00*
G04 #@! TF.ProjectId,unitron,756e6974-726f-46e2-9e6b-696361645f70,1.5*
G04 #@! TF.SameCoordinates,Original*
G04 #@! TF.FileFunction,Soldermask,Top*
G04 #@! TF.FilePolarity,Negative*
%FSLAX46Y46*%
G04 Gerber Fmt 4.6, Leading zero omitted, Abs format (unit mm)*
G04 Created by KiCad (PCBNEW (5.99.0-8123-gb2cbd99365)) date 2021-02-13 19:05:43*
%MOMM*%
%LPD*%
G01*
G04 APERTURE LIST*
G04 Aperture macros list*
%AMRoundRect*
0 Rectangle with rounded corners*
0 $1 Rounding radius*
0 $2 $3 $4 $5 $6 $7 $8 $9 X,Y pos of 4 corners*
0 Add a 4 corners polygon primitive as box body*
4,1,4,$2,$3,$4,$5,$6,$7,$8,$9,$2,$3,0*
0 Add four circle primitives for the rounded corners*
1,1,$1+$1,$2,$3,0*
1,1,$1+$1,$4,$5,0*
1,1,$1+$1,$6,$7,0*
1,1,$1+$1,$8,$9,0*
0 Add four rect primitives between the rounded corners*
20,1,$1+$1,$2,$3,$4,$5,0*
20,1,$1+$1,$4,$5,$6,$7,0*
20,1,$1+$1,$6,$7,$8,$9,0*
20,1,$1+$1,$8,$9,$2,$3,0*%
G04 Aperture macros list end*
%ADD10C,2.200000*%
%ADD11C,4.000000*%
%ADD12C,1.700000*%
%ADD13C,1.500000*%
%ADD14C,1.524000*%
%ADD15R,1.500000X1.500000*%
%ADD16C,2.100000*%
%ADD17C,2.500000*%
%ADD18RoundRect,0.050800X0.350000X0.175000X-0.350000X0.175000X-0.350000X-0.175000X0.350000X-0.175000X0*%
%ADD19C,0.500000*%
%ADD20C,6.000000*%
%ADD21R,1.700000X1.700000*%
%ADD22O,1.700000X1.700000*%
%ADD23C,6.000001*%
%ADD24C,0.787400*%
%ADD25C,0.990600*%
%ADD26C,2.000000*%
%ADD27R,2.000000X2.000000*%
%ADD28C,3.450000*%
G04 APERTURE END LIST*
D10*
X72644000Y-138684000D03*
X78994000Y-136144000D03*
D11*
X76454000Y-141224000D03*
D12*
X71374000Y-141224000D03*
X81534000Y-141224000D03*
D10*
X91694000Y-138684000D03*
X98044000Y-136144000D03*
D12*
X90424000Y-141224000D03*
X100584000Y-141224000D03*
D11*
X95504000Y-141224000D03*
D10*
X72644000Y-100584000D03*
X78994000Y-98044000D03*
D11*
X76454000Y-103124000D03*
D12*
X71374000Y-103124000D03*
X81534000Y-103124000D03*
D10*
X72644000Y-119634000D03*
X78994000Y-117094000D03*
D12*
X81534000Y-122174000D03*
D11*
X76454000Y-122174000D03*
D12*
X71374000Y-122174000D03*
D10*
X91694000Y-119634000D03*
X98044000Y-117094000D03*
D12*
X90424000Y-122174000D03*
X100584000Y-122174000D03*
D11*
X95504000Y-122174000D03*
D10*
X91694000Y-100584000D03*
X98044000Y-98044000D03*
D12*
X90424000Y-103124000D03*
D11*
X95504000Y-103124000D03*
D12*
X100584000Y-103124000D03*
D10*
X110744000Y-100584000D03*
X117094000Y-98044000D03*
D12*
X109474000Y-103124000D03*
D11*
X114554000Y-103124000D03*
D12*
X119634000Y-103124000D03*
D10*
X110744000Y-157734000D03*
X117094000Y-155194000D03*
D12*
X119634000Y-160274000D03*
D11*
X114554000Y-160274000D03*
D12*
X109474000Y-160274000D03*
D13*
X116116100Y-45212011D03*
X118656100Y-45212011D03*
D14*
X121196100Y-45212011D03*
X123736100Y-45212011D03*
D13*
X128816100Y-45212011D03*
X133896100Y-45212011D03*
X133896100Y-55372011D03*
X131356100Y-55372011D03*
X128816100Y-55372011D03*
X126276100Y-55372011D03*
X123736100Y-55372011D03*
X121196100Y-55372011D03*
X118656100Y-55372011D03*
D15*
X116116100Y-55372011D03*
D13*
X75984100Y-45212011D03*
X78524100Y-45212011D03*
D14*
X81064100Y-45212011D03*
X83604100Y-45212011D03*
D13*
X88684100Y-45212011D03*
X93764100Y-45212011D03*
X93764100Y-55372011D03*
X91224100Y-55372011D03*
X88684100Y-55372011D03*
X86144100Y-55372011D03*
X83604100Y-55372011D03*
X81064100Y-55372011D03*
X78524100Y-55372011D03*
D15*
X75984100Y-55372011D03*
D10*
X72644000Y-157734000D03*
X78994000Y-155194000D03*
D12*
X81534000Y-160274000D03*
X71374000Y-160274000D03*
D11*
X76454000Y-160274000D03*
D13*
X116116100Y-32131011D03*
X118656100Y-32131011D03*
D14*
X121196100Y-32131011D03*
X123736100Y-32131011D03*
D13*
X128816100Y-32131011D03*
X133896100Y-32131011D03*
X133896100Y-42291011D03*
X131356100Y-42291011D03*
X128816100Y-42291011D03*
X126276100Y-42291011D03*
X123736100Y-42291011D03*
X121196100Y-42291011D03*
X118656100Y-42291011D03*
D15*
X116116100Y-42291011D03*
D13*
X75984100Y-32131011D03*
X78524100Y-32131011D03*
D14*
X81064100Y-32131011D03*
X83604100Y-32131011D03*
D13*
X88684100Y-32131011D03*
X93764100Y-32131011D03*
X93764100Y-42291011D03*
X91224100Y-42291011D03*
X88684100Y-42291011D03*
X86144100Y-42291011D03*
X83604100Y-42291011D03*
X81064100Y-42291011D03*
X78524100Y-42291011D03*
D15*
X75984100Y-42291011D03*
D10*
X110744000Y-138684000D03*
X117094000Y-136144000D03*
D12*
X119634000Y-141224000D03*
X109474000Y-141224000D03*
D11*
X114554000Y-141224000D03*
D16*
X132004000Y-111024000D03*
X135204000Y-95224000D03*
X132004000Y-95224000D03*
X135204000Y-111024000D03*
D17*
X133604000Y-107824000D03*
X133604000Y-103124000D03*
X133604000Y-98424000D03*
D10*
X110744000Y-119634000D03*
X117094000Y-117094000D03*
D12*
X109474000Y-122174000D03*
D11*
X114554000Y-122174000D03*
D12*
X119634000Y-122174000D03*
D18*
X137375000Y-57797000D03*
X137375000Y-58547000D03*
X137375000Y-59297000D03*
X139275000Y-59297000D03*
X139275000Y-58547000D03*
X139275000Y-57797000D03*
X65625000Y-57797000D03*
X65625000Y-58547000D03*
X65625000Y-59297000D03*
X67525000Y-59297000D03*
X67525000Y-58547000D03*
X67525000Y-57797000D03*
X94325000Y-57797000D03*
X94325000Y-58547000D03*
X94325000Y-59297000D03*
X96225000Y-59297000D03*
X96225000Y-58547000D03*
X96225000Y-57797000D03*
D19*
X72053500Y-64990800D03*
X70453500Y-67190800D03*
X71253500Y-64990800D03*
X70453500Y-64990800D03*
X72053500Y-67190800D03*
X73653500Y-67190800D03*
X73653500Y-64990800D03*
X71253500Y-67190800D03*
X74453500Y-64990800D03*
X74453500Y-67190800D03*
X72853500Y-67190800D03*
X72853500Y-64990800D03*
D20*
X73317100Y-71932800D03*
D21*
X142240000Y-68757800D03*
D22*
X142240000Y-71297800D03*
X142240000Y-73837800D03*
X142240000Y-76377800D03*
X142240000Y-78917800D03*
X142240000Y-81457800D03*
X142240000Y-83997800D03*
X142240000Y-86537800D03*
X142240000Y-89077800D03*
D10*
X91694000Y-157734000D03*
X98044000Y-155194000D03*
D11*
X95504000Y-160274000D03*
D12*
X100584000Y-160274000D03*
X90424000Y-160274000D03*
D18*
X79975000Y-61607000D03*
X79975000Y-62357000D03*
X79975000Y-63107000D03*
X81875000Y-63107000D03*
X81875000Y-62357000D03*
X81875000Y-61607000D03*
D20*
X141135100Y-165277800D03*
D18*
X137375000Y-61607000D03*
X137375000Y-62357000D03*
X137375000Y-63107000D03*
X139275000Y-63107000D03*
X139275000Y-62357000D03*
X139275000Y-61607000D03*
X67525000Y-61607000D03*
X67525000Y-62357000D03*
X67525000Y-63107000D03*
X65625000Y-63107000D03*
X65625000Y-62357000D03*
X65625000Y-61607000D03*
D23*
X136563100Y-71932800D03*
D20*
X68745100Y-165277800D03*
D18*
X108675000Y-61607000D03*
X108675000Y-62357000D03*
X108675000Y-63107000D03*
X110575000Y-63107000D03*
X110575000Y-62357000D03*
X110575000Y-61607000D03*
X79975000Y-57797000D03*
X79975000Y-58547000D03*
X79975000Y-59297000D03*
X81875000Y-59297000D03*
X81875000Y-58547000D03*
X81875000Y-57797000D03*
X108675000Y-57797000D03*
X108675000Y-58547000D03*
X108675000Y-59297000D03*
X110575000Y-59297000D03*
X110575000Y-58547000D03*
X110575000Y-57797000D03*
D10*
X129794000Y-138684000D03*
X136144000Y-136144000D03*
D11*
X133604000Y-141224000D03*
D12*
X128524000Y-141224000D03*
X138684000Y-141224000D03*
D18*
X123025000Y-57797000D03*
X123025000Y-58547000D03*
X123025000Y-59297000D03*
X124925000Y-59297000D03*
X124925000Y-58547000D03*
X124925000Y-57797000D03*
D19*
X107067100Y-67190800D03*
X103067100Y-67190800D03*
X103867100Y-67190800D03*
X103067100Y-64990800D03*
X103867100Y-64990800D03*
X105467100Y-64990800D03*
X104667100Y-64990800D03*
X106267100Y-67190800D03*
X105467100Y-67190800D03*
X107067100Y-64990800D03*
X106267100Y-64990800D03*
X104667100Y-67190800D03*
D22*
X67564000Y-89077800D03*
X67564000Y-86537800D03*
X67564000Y-83997800D03*
X67564000Y-81457800D03*
X67564000Y-78917800D03*
X67564000Y-76377800D03*
X67564000Y-73837800D03*
X67564000Y-71297800D03*
D21*
X67564000Y-68757800D03*
D24*
X142182911Y-101777800D03*
X143452911Y-101777800D03*
X142182911Y-103047800D03*
X143452911Y-103047800D03*
X142182911Y-104317800D03*
X143452911Y-104317800D03*
D25*
X142817911Y-105587800D03*
X141801911Y-100507800D03*
X143833911Y-100507800D03*
D10*
X129794000Y-157734000D03*
X136144000Y-155194000D03*
D12*
X138684000Y-160274000D03*
D11*
X133604000Y-160274000D03*
D12*
X128524000Y-160274000D03*
D18*
X94325000Y-61607000D03*
X94325000Y-62357000D03*
X94325000Y-63107000D03*
X96225000Y-63107000D03*
X96225000Y-62357000D03*
X96225000Y-61607000D03*
D19*
X139375900Y-67190800D03*
X138575900Y-64990800D03*
X136975900Y-67190800D03*
X139375900Y-64990800D03*
X135375900Y-67190800D03*
X138575900Y-67190800D03*
X136175900Y-67190800D03*
X136175900Y-64990800D03*
X135375900Y-64990800D03*
X137775900Y-67190800D03*
X136975900Y-64990800D03*
X137775900Y-64990800D03*
D26*
X128967100Y-74107800D03*
D27*
X128967100Y-86807800D03*
D28*
X90357100Y-78107800D03*
D10*
X129794000Y-119634000D03*
X136144000Y-117094000D03*
D12*
X128524000Y-122174000D03*
X138684000Y-122174000D03*
D11*
X133604000Y-122174000D03*
D18*
X123025000Y-61607000D03*
X123025000Y-62357000D03*
X123025000Y-63107000D03*
X124925000Y-63107000D03*
X124925000Y-62357000D03*
X124925000Y-61607000D03*
M02*
