G04 #@! TF.GenerationSoftware,KiCad,Pcbnew,(5.99.0-13010-g08938463f1)*
G04 #@! TF.CreationDate,2021-12-12T23:41:20-05:00*
G04 #@! TF.ProjectId,unitron,756e6974-726f-46e2-9e6b-696361645f70,1.9*
G04 #@! TF.SameCoordinates,Original*
G04 #@! TF.FileFunction,Legend,Bot*
G04 #@! TF.FilePolarity,Positive*
%FSLAX46Y46*%
G04 Gerber Fmt 4.6, Leading zero omitted, Abs format (unit mm)*
G04 Created by KiCad (PCBNEW (5.99.0-13010-g08938463f1)) date 2021-12-12 23:41:20*
%MOMM*%
%LPD*%
G01*
G04 APERTURE LIST*
%ADD10C,0.150000*%
%ADD11C,0.120000*%
%ADD12C,0.100000*%
G04 APERTURE END LIST*
D10*
X134906352Y-71046028D02*
X134144447Y-71046028D01*
X134525400Y-71426980D02*
X134525400Y-70665076D01*
X104987304Y-73826980D02*
X104987304Y-74636504D01*
X104939685Y-74731742D01*
X104892066Y-74779361D01*
X104796828Y-74826980D01*
X104606352Y-74826980D01*
X104511114Y-74779361D01*
X104463495Y-74731742D01*
X104415876Y-74636504D01*
X104415876Y-73826980D01*
X103511114Y-74160314D02*
X103511114Y-74826980D01*
X103749209Y-73779361D02*
X103987304Y-74493647D01*
X103368257Y-74493647D01*
X112599766Y-44596543D02*
X112933100Y-44120353D01*
X113171195Y-44596543D02*
X113171195Y-43596543D01*
X112790242Y-43596543D01*
X112695004Y-43644163D01*
X112647385Y-43691782D01*
X112599766Y-43787020D01*
X112599766Y-43929877D01*
X112647385Y-44025115D01*
X112695004Y-44072734D01*
X112790242Y-44120353D01*
X113171195Y-44120353D01*
X111742623Y-43929877D02*
X111742623Y-44596543D01*
X111980719Y-43548924D02*
X112218814Y-44263210D01*
X111599766Y-44263210D01*
X110310966Y-43647543D02*
X110644300Y-43171353D01*
X110882395Y-43647543D02*
X110882395Y-42647543D01*
X110501442Y-42647543D01*
X110406204Y-42695163D01*
X110358585Y-42742782D01*
X110310966Y-42838020D01*
X110310966Y-42980877D01*
X110358585Y-43076115D01*
X110406204Y-43123734D01*
X110501442Y-43171353D01*
X110882395Y-43171353D01*
X109453823Y-42647543D02*
X109644300Y-42647543D01*
X109739538Y-42695163D01*
X109787157Y-42742782D01*
X109882395Y-42885639D01*
X109930014Y-43076115D01*
X109930014Y-43457067D01*
X109882395Y-43552305D01*
X109834776Y-43599924D01*
X109739538Y-43647543D01*
X109549061Y-43647543D01*
X109453823Y-43599924D01*
X109406204Y-43552305D01*
X109358585Y-43457067D01*
X109358585Y-43218972D01*
X109406204Y-43123734D01*
X109453823Y-43076115D01*
X109549061Y-43028496D01*
X109739538Y-43028496D01*
X109834776Y-43076115D01*
X109882395Y-43123734D01*
X109930014Y-43218972D01*
X104217766Y-47415943D02*
X104551100Y-46939753D01*
X104789195Y-47415943D02*
X104789195Y-46415943D01*
X104408242Y-46415943D01*
X104313004Y-46463563D01*
X104265385Y-46511182D01*
X104217766Y-46606420D01*
X104217766Y-46749277D01*
X104265385Y-46844515D01*
X104313004Y-46892134D01*
X104408242Y-46939753D01*
X104789195Y-46939753D01*
X103313004Y-46415943D02*
X103789195Y-46415943D01*
X103836814Y-46892134D01*
X103789195Y-46844515D01*
X103693957Y-46796896D01*
X103455861Y-46796896D01*
X103360623Y-46844515D01*
X103313004Y-46892134D01*
X103265385Y-46987372D01*
X103265385Y-47225467D01*
X103313004Y-47320705D01*
X103360623Y-47368324D01*
X103455861Y-47415943D01*
X103693957Y-47415943D01*
X103789195Y-47368324D01*
X103836814Y-47320705D01*
X110887157Y-30747543D02*
X111220490Y-30271353D01*
X111458585Y-30747543D02*
X111458585Y-29747543D01*
X111077633Y-29747543D01*
X110982395Y-29795163D01*
X110934776Y-29842782D01*
X110887157Y-29938020D01*
X110887157Y-30080877D01*
X110934776Y-30176115D01*
X110982395Y-30223734D01*
X111077633Y-30271353D01*
X111458585Y-30271353D01*
X109934776Y-30747543D02*
X110506204Y-30747543D01*
X110220490Y-30747543D02*
X110220490Y-29747543D01*
X110315728Y-29890401D01*
X110410966Y-29985639D01*
X110506204Y-30033258D01*
X109363347Y-30176115D02*
X109458585Y-30128496D01*
X109506204Y-30080877D01*
X109553823Y-29985639D01*
X109553823Y-29938020D01*
X109506204Y-29842782D01*
X109458585Y-29795163D01*
X109363347Y-29747543D01*
X109172871Y-29747543D01*
X109077633Y-29795163D01*
X109030014Y-29842782D01*
X108982395Y-29938020D01*
X108982395Y-29985639D01*
X109030014Y-30080877D01*
X109077633Y-30128496D01*
X109172871Y-30176115D01*
X109363347Y-30176115D01*
X109458585Y-30223734D01*
X109506204Y-30271353D01*
X109553823Y-30366591D01*
X109553823Y-30557067D01*
X109506204Y-30652305D01*
X109458585Y-30699924D01*
X109363347Y-30747543D01*
X109172871Y-30747543D01*
X109077633Y-30699924D01*
X109030014Y-30652305D01*
X108982395Y-30557067D01*
X108982395Y-30366591D01*
X109030014Y-30271353D01*
X109077633Y-30223734D01*
X109172871Y-30176115D01*
X104135157Y-34817543D02*
X104468490Y-34341353D01*
X104706585Y-34817543D02*
X104706585Y-33817543D01*
X104325633Y-33817543D01*
X104230395Y-33865163D01*
X104182776Y-33912782D01*
X104135157Y-34008020D01*
X104135157Y-34150877D01*
X104182776Y-34246115D01*
X104230395Y-34293734D01*
X104325633Y-34341353D01*
X104706585Y-34341353D01*
X103182776Y-34817543D02*
X103754204Y-34817543D01*
X103468490Y-34817543D02*
X103468490Y-33817543D01*
X103563728Y-33960401D01*
X103658966Y-34055639D01*
X103754204Y-34103258D01*
X102849442Y-33817543D02*
X102182776Y-33817543D01*
X102611347Y-34817543D01*
X98456680Y-41223258D02*
X99266204Y-41223258D01*
X99361442Y-41270877D01*
X99409061Y-41318496D01*
X99456680Y-41413734D01*
X99456680Y-41604210D01*
X99409061Y-41699448D01*
X99361442Y-41747067D01*
X99266204Y-41794686D01*
X98456680Y-41794686D01*
X98456680Y-42175639D02*
X98456680Y-42794686D01*
X98837633Y-42461353D01*
X98837633Y-42604210D01*
X98885252Y-42699448D01*
X98932871Y-42747067D01*
X99028109Y-42794686D01*
X99266204Y-42794686D01*
X99361442Y-42747067D01*
X99409061Y-42699448D01*
X99456680Y-42604210D01*
X99456680Y-42318496D01*
X99409061Y-42223258D01*
X99361442Y-42175639D01*
X113406157Y-31896543D02*
X113739490Y-31420353D01*
X113977585Y-31896543D02*
X113977585Y-30896543D01*
X113596633Y-30896543D01*
X113501395Y-30944163D01*
X113453776Y-30991782D01*
X113406157Y-31087020D01*
X113406157Y-31229877D01*
X113453776Y-31325115D01*
X113501395Y-31372734D01*
X113596633Y-31420353D01*
X113977585Y-31420353D01*
X112453776Y-31896543D02*
X113025204Y-31896543D01*
X112739490Y-31896543D02*
X112739490Y-30896543D01*
X112834728Y-31039401D01*
X112929966Y-31134639D01*
X113025204Y-31182258D01*
X111596633Y-30896543D02*
X111787109Y-30896543D01*
X111882347Y-30944163D01*
X111929966Y-30991782D01*
X112025204Y-31134639D01*
X112072823Y-31325115D01*
X112072823Y-31706067D01*
X112025204Y-31801305D01*
X111977585Y-31848924D01*
X111882347Y-31896543D01*
X111691871Y-31896543D01*
X111596633Y-31848924D01*
X111549014Y-31801305D01*
X111501395Y-31706067D01*
X111501395Y-31467972D01*
X111549014Y-31372734D01*
X111596633Y-31325115D01*
X111691871Y-31277496D01*
X111882347Y-31277496D01*
X111977585Y-31325115D01*
X112025204Y-31372734D01*
X112072823Y-31467972D01*
X126592066Y-73826980D02*
X126925400Y-73350790D01*
X127163495Y-73826980D02*
X127163495Y-72826980D01*
X126782542Y-72826980D01*
X126687304Y-72874600D01*
X126639685Y-72922219D01*
X126592066Y-73017457D01*
X126592066Y-73160314D01*
X126639685Y-73255552D01*
X126687304Y-73303171D01*
X126782542Y-73350790D01*
X127163495Y-73350790D01*
X125639685Y-73826980D02*
X126211114Y-73826980D01*
X125925400Y-73826980D02*
X125925400Y-72826980D01*
X126020638Y-72969838D01*
X126115876Y-73065076D01*
X126211114Y-73112695D01*
X115977780Y-71807933D02*
X115501590Y-71474600D01*
X115977780Y-71236504D02*
X114977780Y-71236504D01*
X114977780Y-71617457D01*
X115025400Y-71712695D01*
X115073019Y-71760314D01*
X115168257Y-71807933D01*
X115311114Y-71807933D01*
X115406352Y-71760314D01*
X115453971Y-71712695D01*
X115501590Y-71617457D01*
X115501590Y-71236504D01*
X115977780Y-72284123D02*
X115977780Y-72474600D01*
X115930161Y-72569838D01*
X115882542Y-72617457D01*
X115739685Y-72712695D01*
X115549209Y-72760314D01*
X115168257Y-72760314D01*
X115073019Y-72712695D01*
X115025400Y-72665076D01*
X114977780Y-72569838D01*
X114977780Y-72379361D01*
X115025400Y-72284123D01*
X115073019Y-72236504D01*
X115168257Y-72188885D01*
X115406352Y-72188885D01*
X115501590Y-72236504D01*
X115549209Y-72284123D01*
X115596828Y-72379361D01*
X115596828Y-72569838D01*
X115549209Y-72665076D01*
X115501590Y-72712695D01*
X115406352Y-72760314D01*
X120865880Y-77819533D02*
X120389690Y-77486200D01*
X120865880Y-77248104D02*
X119865880Y-77248104D01*
X119865880Y-77629057D01*
X119913500Y-77724295D01*
X119961119Y-77771914D01*
X120056357Y-77819533D01*
X120199214Y-77819533D01*
X120294452Y-77771914D01*
X120342071Y-77724295D01*
X120389690Y-77629057D01*
X120389690Y-77248104D01*
X119961119Y-78200485D02*
X119913500Y-78248104D01*
X119865880Y-78343342D01*
X119865880Y-78581438D01*
X119913500Y-78676676D01*
X119961119Y-78724295D01*
X120056357Y-78771914D01*
X120151595Y-78771914D01*
X120294452Y-78724295D01*
X120865880Y-78152866D01*
X120865880Y-78771914D01*
X121077780Y-74207933D02*
X120601590Y-73874600D01*
X121077780Y-73636504D02*
X120077780Y-73636504D01*
X120077780Y-74017457D01*
X120125400Y-74112695D01*
X120173019Y-74160314D01*
X120268257Y-74207933D01*
X120411114Y-74207933D01*
X120506352Y-74160314D01*
X120553971Y-74112695D01*
X120601590Y-74017457D01*
X120601590Y-73636504D01*
X120077780Y-74541266D02*
X120077780Y-75160314D01*
X120458733Y-74826980D01*
X120458733Y-74969838D01*
X120506352Y-75065076D01*
X120553971Y-75112695D01*
X120649209Y-75160314D01*
X120887304Y-75160314D01*
X120982542Y-75112695D01*
X121030161Y-75065076D01*
X121077780Y-74969838D01*
X121077780Y-74684123D01*
X121030161Y-74588885D01*
X120982542Y-74541266D01*
X132277780Y-73560314D02*
X131277780Y-73560314D01*
X131277780Y-73798409D01*
X131325400Y-73941266D01*
X131420638Y-74036504D01*
X131515876Y-74084123D01*
X131706352Y-74131742D01*
X131849209Y-74131742D01*
X132039685Y-74084123D01*
X132134923Y-74036504D01*
X132230161Y-73941266D01*
X132277780Y-73798409D01*
X132277780Y-73560314D01*
X132277780Y-75084123D02*
X132277780Y-74512695D01*
X132277780Y-74798409D02*
X131277780Y-74798409D01*
X131420638Y-74703171D01*
X131515876Y-74607933D01*
X131563495Y-74512695D01*
X132277780Y-76036504D02*
X132277780Y-75465076D01*
X132277780Y-75750790D02*
X131277780Y-75750790D01*
X131420638Y-75655552D01*
X131515876Y-75560314D01*
X131563495Y-75465076D01*
X128792066Y-69331742D02*
X128839685Y-69379361D01*
X128982542Y-69426980D01*
X129077780Y-69426980D01*
X129220638Y-69379361D01*
X129315876Y-69284123D01*
X129363495Y-69188885D01*
X129411114Y-68998409D01*
X129411114Y-68855552D01*
X129363495Y-68665076D01*
X129315876Y-68569838D01*
X129220638Y-68474600D01*
X129077780Y-68426980D01*
X128982542Y-68426980D01*
X128839685Y-68474600D01*
X128792066Y-68522219D01*
X127839685Y-69426980D02*
X128411114Y-69426980D01*
X128125400Y-69426980D02*
X128125400Y-68426980D01*
X128220638Y-68569838D01*
X128315876Y-68665076D01*
X128411114Y-68712695D01*
X132120638Y-72922219D02*
X132215876Y-72874600D01*
X132311114Y-72779361D01*
X132453971Y-72636504D01*
X132549209Y-72588885D01*
X132644447Y-72588885D01*
X132596828Y-72826980D02*
X132692066Y-72779361D01*
X132787304Y-72684123D01*
X132834923Y-72493647D01*
X132834923Y-72160314D01*
X132787304Y-71969838D01*
X132692066Y-71874600D01*
X132596828Y-71826980D01*
X132406352Y-71826980D01*
X132311114Y-71874600D01*
X132215876Y-71969838D01*
X132168257Y-72160314D01*
X132168257Y-72493647D01*
X132215876Y-72684123D01*
X132311114Y-72779361D01*
X132406352Y-72826980D01*
X132596828Y-72826980D01*
X131215876Y-72826980D02*
X131787304Y-72826980D01*
X131501590Y-72826980D02*
X131501590Y-71826980D01*
X131596828Y-71969838D01*
X131692066Y-72065076D01*
X131787304Y-72112695D01*
X124920638Y-77522219D02*
X125015876Y-77474600D01*
X125111114Y-77379361D01*
X125253971Y-77236504D01*
X125349209Y-77188885D01*
X125444447Y-77188885D01*
X125396828Y-77426980D02*
X125492066Y-77379361D01*
X125587304Y-77284123D01*
X125634923Y-77093647D01*
X125634923Y-76760314D01*
X125587304Y-76569838D01*
X125492066Y-76474600D01*
X125396828Y-76426980D01*
X125206352Y-76426980D01*
X125111114Y-76474600D01*
X125015876Y-76569838D01*
X124968257Y-76760314D01*
X124968257Y-77093647D01*
X125015876Y-77284123D01*
X125111114Y-77379361D01*
X125206352Y-77426980D01*
X125396828Y-77426980D01*
X124587304Y-76522219D02*
X124539685Y-76474600D01*
X124444447Y-76426980D01*
X124206352Y-76426980D01*
X124111114Y-76474600D01*
X124063495Y-76522219D01*
X124015876Y-76617457D01*
X124015876Y-76712695D01*
X124063495Y-76855552D01*
X124634923Y-77426980D01*
X124015876Y-77426980D01*
X118468257Y-82426980D02*
X118801590Y-81950790D01*
X119039685Y-82426980D02*
X119039685Y-81426980D01*
X118658733Y-81426980D01*
X118563495Y-81474600D01*
X118515876Y-81522219D01*
X118468257Y-81617457D01*
X118468257Y-81760314D01*
X118515876Y-81855552D01*
X118563495Y-81903171D01*
X118658733Y-81950790D01*
X119039685Y-81950790D01*
X117515876Y-82426980D02*
X118087304Y-82426980D01*
X117801590Y-82426980D02*
X117801590Y-81426980D01*
X117896828Y-81569838D01*
X117992066Y-81665076D01*
X118087304Y-81712695D01*
X116658733Y-81760314D02*
X116658733Y-82426980D01*
X116896828Y-81379361D02*
X117134923Y-82093647D01*
X116515876Y-82093647D01*
X126587304Y-63826980D02*
X126587304Y-64636504D01*
X126539685Y-64731742D01*
X126492066Y-64779361D01*
X126396828Y-64826980D01*
X126206352Y-64826980D01*
X126111114Y-64779361D01*
X126063495Y-64731742D01*
X126015876Y-64636504D01*
X126015876Y-63826980D01*
X125063495Y-63826980D02*
X125539685Y-63826980D01*
X125587304Y-64303171D01*
X125539685Y-64255552D01*
X125444447Y-64207933D01*
X125206352Y-64207933D01*
X125111114Y-64255552D01*
X125063495Y-64303171D01*
X125015876Y-64398409D01*
X125015876Y-64636504D01*
X125063495Y-64731742D01*
X125111114Y-64779361D01*
X125206352Y-64826980D01*
X125444447Y-64826980D01*
X125539685Y-64779361D01*
X125587304Y-64731742D01*
X142277780Y-67558806D02*
X141801590Y-67225473D01*
X142277780Y-66987378D02*
X141277780Y-66987378D01*
X141277780Y-67368330D01*
X141325400Y-67463568D01*
X141373019Y-67511187D01*
X141468257Y-67558806D01*
X141611114Y-67558806D01*
X141706352Y-67511187D01*
X141753971Y-67463568D01*
X141801590Y-67368330D01*
X141801590Y-66987378D01*
X142277780Y-68511187D02*
X142277780Y-67939759D01*
X142277780Y-68225473D02*
X141277780Y-68225473D01*
X141420638Y-68130235D01*
X141515876Y-68034997D01*
X141563495Y-67939759D01*
X142277780Y-69463568D02*
X142277780Y-68892140D01*
X142277780Y-69177854D02*
X141277780Y-69177854D01*
X141420638Y-69082616D01*
X141515876Y-68987378D01*
X141563495Y-68892140D01*
X130668257Y-65026980D02*
X131001590Y-64550790D01*
X131239685Y-65026980D02*
X131239685Y-64026980D01*
X130858733Y-64026980D01*
X130763495Y-64074600D01*
X130715876Y-64122219D01*
X130668257Y-64217457D01*
X130668257Y-64360314D01*
X130715876Y-64455552D01*
X130763495Y-64503171D01*
X130858733Y-64550790D01*
X131239685Y-64550790D01*
X129715876Y-65026980D02*
X130287304Y-65026980D01*
X130001590Y-65026980D02*
X130001590Y-64026980D01*
X130096828Y-64169838D01*
X130192066Y-64265076D01*
X130287304Y-64312695D01*
X128811114Y-64026980D02*
X129287304Y-64026980D01*
X129334923Y-64503171D01*
X129287304Y-64455552D01*
X129192066Y-64407933D01*
X128953971Y-64407933D01*
X128858733Y-64455552D01*
X128811114Y-64503171D01*
X128763495Y-64598409D01*
X128763495Y-64836504D01*
X128811114Y-64931742D01*
X128858733Y-64979361D01*
X128953971Y-65026980D01*
X129192066Y-65026980D01*
X129287304Y-64979361D01*
X129334923Y-64931742D01*
X121168257Y-69176980D02*
X121501590Y-68700790D01*
X121739685Y-69176980D02*
X121739685Y-68176980D01*
X121358733Y-68176980D01*
X121263495Y-68224600D01*
X121215876Y-68272219D01*
X121168257Y-68367457D01*
X121168257Y-68510314D01*
X121215876Y-68605552D01*
X121263495Y-68653171D01*
X121358733Y-68700790D01*
X121739685Y-68700790D01*
X120215876Y-69176980D02*
X120787304Y-69176980D01*
X120501590Y-69176980D02*
X120501590Y-68176980D01*
X120596828Y-68319838D01*
X120692066Y-68415076D01*
X120787304Y-68462695D01*
X119834923Y-68272219D02*
X119787304Y-68224600D01*
X119692066Y-68176980D01*
X119453971Y-68176980D01*
X119358733Y-68224600D01*
X119311114Y-68272219D01*
X119263495Y-68367457D01*
X119263495Y-68462695D01*
X119311114Y-68605552D01*
X119882542Y-69176980D01*
X119263495Y-69176980D01*
X141760533Y-28988553D02*
X141760533Y-29702839D01*
X141808152Y-29845696D01*
X141903390Y-29940934D01*
X142046247Y-29988553D01*
X142141485Y-29988553D01*
X141379580Y-28988553D02*
X140760533Y-28988553D01*
X141093866Y-29369506D01*
X140951009Y-29369506D01*
X140855771Y-29417125D01*
X140808152Y-29464744D01*
X140760533Y-29559982D01*
X140760533Y-29798077D01*
X140808152Y-29893315D01*
X140855771Y-29940934D01*
X140951009Y-29988553D01*
X141236723Y-29988553D01*
X141331961Y-29940934D01*
X141379580Y-29893315D01*
X135572780Y-66633314D02*
X134572780Y-66633314D01*
X134572780Y-66871409D01*
X134620400Y-67014266D01*
X134715638Y-67109504D01*
X134810876Y-67157123D01*
X135001352Y-67204742D01*
X135144209Y-67204742D01*
X135334685Y-67157123D01*
X135429923Y-67109504D01*
X135525161Y-67014266D01*
X135572780Y-66871409D01*
X135572780Y-66633314D01*
X135572780Y-68157123D02*
X135572780Y-67585695D01*
X135572780Y-67871409D02*
X134572780Y-67871409D01*
X134715638Y-67776171D01*
X134810876Y-67680933D01*
X134858495Y-67585695D01*
X134668019Y-68538076D02*
X134620400Y-68585695D01*
X134572780Y-68680933D01*
X134572780Y-68919028D01*
X134620400Y-69014266D01*
X134668019Y-69061885D01*
X134763257Y-69109504D01*
X134858495Y-69109504D01*
X135001352Y-69061885D01*
X135572780Y-68490457D01*
X135572780Y-69109504D01*
X98427780Y-28584268D02*
X99237304Y-28584268D01*
X99332542Y-28631887D01*
X99380161Y-28679506D01*
X99427780Y-28774744D01*
X99427780Y-28965220D01*
X99380161Y-29060458D01*
X99332542Y-29108077D01*
X99237304Y-29155696D01*
X98427780Y-29155696D01*
X98856352Y-29774744D02*
X98808733Y-29679506D01*
X98761114Y-29631887D01*
X98665876Y-29584268D01*
X98618257Y-29584268D01*
X98523019Y-29631887D01*
X98475400Y-29679506D01*
X98427780Y-29774744D01*
X98427780Y-29965220D01*
X98475400Y-30060458D01*
X98523019Y-30108077D01*
X98618257Y-30155696D01*
X98665876Y-30155696D01*
X98761114Y-30108077D01*
X98808733Y-30060458D01*
X98856352Y-29965220D01*
X98856352Y-29774744D01*
X98903971Y-29679506D01*
X98951590Y-29631887D01*
X99046828Y-29584268D01*
X99237304Y-29584268D01*
X99332542Y-29631887D01*
X99380161Y-29679506D01*
X99427780Y-29774744D01*
X99427780Y-29965220D01*
X99380161Y-30060458D01*
X99332542Y-30108077D01*
X99237304Y-30155696D01*
X99046828Y-30155696D01*
X98951590Y-30108077D01*
X98903971Y-30060458D01*
X98856352Y-29965220D01*
X116827780Y-67807933D02*
X116351590Y-67474600D01*
X116827780Y-67236504D02*
X115827780Y-67236504D01*
X115827780Y-67617457D01*
X115875400Y-67712695D01*
X115923019Y-67760314D01*
X116018257Y-67807933D01*
X116161114Y-67807933D01*
X116256352Y-67760314D01*
X116303971Y-67712695D01*
X116351590Y-67617457D01*
X116351590Y-67236504D01*
X115827780Y-68141266D02*
X115827780Y-68807933D01*
X116827780Y-68379361D01*
X123477780Y-67331742D02*
X123001590Y-66998409D01*
X123477780Y-66760314D02*
X122477780Y-66760314D01*
X122477780Y-67141266D01*
X122525400Y-67236504D01*
X122573019Y-67284123D01*
X122668257Y-67331742D01*
X122811114Y-67331742D01*
X122906352Y-67284123D01*
X122953971Y-67236504D01*
X123001590Y-67141266D01*
X123001590Y-66760314D01*
X123477780Y-68284123D02*
X123477780Y-67712695D01*
X123477780Y-67998409D02*
X122477780Y-67998409D01*
X122620638Y-67903171D01*
X122715876Y-67807933D01*
X122763495Y-67712695D01*
X122477780Y-68903171D02*
X122477780Y-68998409D01*
X122525400Y-69093647D01*
X122573019Y-69141266D01*
X122668257Y-69188885D01*
X122858733Y-69236504D01*
X123096828Y-69236504D01*
X123287304Y-69188885D01*
X123382542Y-69141266D01*
X123430161Y-69093647D01*
X123477780Y-68998409D01*
X123477780Y-68903171D01*
X123430161Y-68807933D01*
X123382542Y-68760314D01*
X123287304Y-68712695D01*
X123096828Y-68665076D01*
X122858733Y-68665076D01*
X122668257Y-68712695D01*
X122573019Y-68760314D01*
X122525400Y-68807933D01*
X122477780Y-68903171D01*
X67084533Y-28988553D02*
X67084533Y-29702839D01*
X67132152Y-29845696D01*
X67227390Y-29940934D01*
X67370247Y-29988553D01*
X67465485Y-29988553D01*
X66084533Y-29988553D02*
X66655961Y-29988553D01*
X66370247Y-29988553D02*
X66370247Y-28988553D01*
X66465485Y-29131411D01*
X66560723Y-29226649D01*
X66655961Y-29274268D01*
X119127780Y-76331742D02*
X118651590Y-75998409D01*
X119127780Y-75760314D02*
X118127780Y-75760314D01*
X118127780Y-76141266D01*
X118175400Y-76236504D01*
X118223019Y-76284123D01*
X118318257Y-76331742D01*
X118461114Y-76331742D01*
X118556352Y-76284123D01*
X118603971Y-76236504D01*
X118651590Y-76141266D01*
X118651590Y-75760314D01*
X119127780Y-77284123D02*
X119127780Y-76712695D01*
X119127780Y-76998409D02*
X118127780Y-76998409D01*
X118270638Y-76903171D01*
X118365876Y-76807933D01*
X118413495Y-76712695D01*
X118127780Y-77617457D02*
X118127780Y-78236504D01*
X118508733Y-77903171D01*
X118508733Y-78046028D01*
X118556352Y-78141266D01*
X118603971Y-78188885D01*
X118699209Y-78236504D01*
X118937304Y-78236504D01*
X119032542Y-78188885D01*
X119080161Y-78141266D01*
X119127780Y-78046028D01*
X119127780Y-77760314D01*
X119080161Y-77665076D01*
X119032542Y-77617457D01*
X119192066Y-65426980D02*
X119525400Y-64950790D01*
X119763495Y-65426980D02*
X119763495Y-64426980D01*
X119382542Y-64426980D01*
X119287304Y-64474600D01*
X119239685Y-64522219D01*
X119192066Y-64617457D01*
X119192066Y-64760314D01*
X119239685Y-64855552D01*
X119287304Y-64903171D01*
X119382542Y-64950790D01*
X119763495Y-64950790D01*
X118620638Y-64855552D02*
X118715876Y-64807933D01*
X118763495Y-64760314D01*
X118811114Y-64665076D01*
X118811114Y-64617457D01*
X118763495Y-64522219D01*
X118715876Y-64474600D01*
X118620638Y-64426980D01*
X118430161Y-64426980D01*
X118334923Y-64474600D01*
X118287304Y-64522219D01*
X118239685Y-64617457D01*
X118239685Y-64665076D01*
X118287304Y-64760314D01*
X118334923Y-64807933D01*
X118430161Y-64855552D01*
X118620638Y-64855552D01*
X118715876Y-64903171D01*
X118763495Y-64950790D01*
X118811114Y-65046028D01*
X118811114Y-65236504D01*
X118763495Y-65331742D01*
X118715876Y-65379361D01*
X118620638Y-65426980D01*
X118430161Y-65426980D01*
X118334923Y-65379361D01*
X118287304Y-65331742D01*
X118239685Y-65236504D01*
X118239685Y-65046028D01*
X118287304Y-64950790D01*
X118334923Y-64903171D01*
X118430161Y-64855552D01*
D11*
X95335400Y-64587600D02*
X95335400Y-65984600D01*
X95335400Y-85161600D02*
X95335400Y-83637600D01*
X113115400Y-85161600D02*
X113115400Y-83637600D01*
X113115400Y-85161600D02*
X95335400Y-85161600D01*
X95335400Y-64587600D02*
X99272400Y-64587600D01*
X113115400Y-64587600D02*
X113115400Y-65984600D01*
X113115400Y-64587600D02*
X109178400Y-64587600D01*
X109225400Y-63587600D02*
X99225400Y-63587600D01*
X99225400Y-63587600D02*
X99225400Y-71187600D01*
X99225400Y-71187600D02*
X109225400Y-71187600D01*
X109225400Y-71187600D02*
X109225400Y-63587600D01*
X111647300Y-46330099D02*
X111647300Y-46784227D01*
X113117300Y-46330099D02*
X113117300Y-46784227D01*
X109361300Y-45235599D02*
X109361300Y-45689727D01*
X110831300Y-45235599D02*
X110831300Y-45689727D01*
X107021364Y-46330163D02*
X106567236Y-46330163D01*
X107021364Y-47800163D02*
X106567236Y-47800163D01*
X109361300Y-32438599D02*
X109361300Y-32892727D01*
X110831300Y-32438599D02*
X110831300Y-32892727D01*
X106942864Y-35100163D02*
X106488736Y-35100163D01*
X106942864Y-33630163D02*
X106488736Y-33630163D01*
X99779300Y-38460163D02*
X99779300Y-43843763D01*
X108729300Y-40130863D02*
X108729300Y-43839463D01*
X113117300Y-33551599D02*
X113117300Y-34005727D01*
X111647300Y-33551599D02*
X111647300Y-34005727D01*
X124559600Y-71251664D02*
X124559600Y-70797536D01*
X126029600Y-71251664D02*
X126029600Y-70797536D01*
X117760400Y-72201664D02*
X117760400Y-71747536D01*
X116290400Y-72201664D02*
X116290400Y-71747536D01*
X122760400Y-78201664D02*
X122760400Y-77747536D01*
X121290400Y-78201664D02*
X121290400Y-77747536D01*
X122760400Y-74347536D02*
X122760400Y-74801664D01*
X121290400Y-74347536D02*
X121290400Y-74801664D01*
X129025400Y-76334600D02*
X127350400Y-76334600D01*
X129025400Y-73214600D02*
X129675400Y-73214600D01*
X129025400Y-76334600D02*
X129675400Y-76334600D01*
X129025400Y-73214600D02*
X128375400Y-73214600D01*
X126845600Y-70763348D02*
X126845600Y-71285852D01*
X128315600Y-70763348D02*
X128315600Y-71285852D01*
X130425400Y-69464600D02*
X129775400Y-69464600D01*
X130425400Y-72584600D02*
X128750400Y-72584600D01*
X130425400Y-69464600D02*
X131075400Y-69464600D01*
X130425400Y-72584600D02*
X131075400Y-72584600D01*
X124825400Y-73014600D02*
X125475400Y-73014600D01*
X124825400Y-76134600D02*
X123150400Y-76134600D01*
X124825400Y-73014600D02*
X124175400Y-73014600D01*
X124825400Y-76134600D02*
X125475400Y-76134600D01*
X117598336Y-79239600D02*
X118052464Y-79239600D01*
X117598336Y-80709600D02*
X118052464Y-80709600D01*
X124465400Y-67174600D02*
X124465400Y-67974600D01*
X127585400Y-67174600D02*
X127585400Y-66374600D01*
X124465400Y-67174600D02*
X124465400Y-66374600D01*
X127585400Y-67174600D02*
X127585400Y-68974600D01*
X139290400Y-67747536D02*
X139290400Y-68201664D01*
X140760400Y-67747536D02*
X140760400Y-68201664D01*
X129290400Y-67201664D02*
X129290400Y-66747536D01*
X130760400Y-67201664D02*
X130760400Y-66747536D01*
X120985400Y-71201664D02*
X120985400Y-70747536D01*
X119515400Y-71201664D02*
X119515400Y-70747536D01*
X140097200Y-38246173D02*
X140097200Y-41806173D01*
X140097200Y-30976173D02*
X140097200Y-31646173D01*
X142757200Y-35706173D02*
X142757200Y-39266173D01*
X142757200Y-40786173D02*
X142757200Y-44346173D01*
X140097200Y-33166173D02*
X140097200Y-36726173D01*
X140097200Y-43326173D02*
X140097200Y-46886173D01*
X142757200Y-51616173D02*
X140097200Y-51616173D01*
X142757200Y-45866173D02*
X142757200Y-49426173D01*
X140097200Y-31646173D02*
X138887200Y-31646173D01*
X140097200Y-48406173D02*
X140097200Y-51616173D01*
X142757200Y-50946173D02*
X142757200Y-51616173D01*
X142757200Y-30976173D02*
X142757200Y-34186173D01*
X142757200Y-30976173D02*
X140097200Y-30976173D01*
X136025400Y-65774600D02*
X138025400Y-65774600D01*
X138025400Y-65774600D02*
X138025400Y-69624600D01*
D12*
X137025400Y-67224600D02*
X137025400Y-67624600D01*
D11*
X136025400Y-65774600D02*
X136025400Y-69624600D01*
D12*
X137025400Y-67624600D02*
X136625400Y-68224600D01*
X136625400Y-68224600D02*
X137425400Y-68224600D01*
X137425400Y-68224600D02*
X137025400Y-67624600D01*
X137025400Y-67624600D02*
X136475400Y-67624600D01*
X137025400Y-68224600D02*
X137025400Y-68724600D01*
X137025400Y-67624600D02*
X137575400Y-67624600D01*
D11*
X108700400Y-27491873D02*
X108700400Y-31200473D01*
X99750400Y-25821173D02*
X99750400Y-31204773D01*
X117290400Y-67747536D02*
X117290400Y-68201664D01*
X118760400Y-67747536D02*
X118760400Y-68201664D01*
X121890400Y-70772536D02*
X121890400Y-71226664D01*
X123360400Y-70772536D02*
X123360400Y-71226664D01*
X68081200Y-51616173D02*
X65421200Y-51616173D01*
X68081200Y-45866173D02*
X68081200Y-49426173D01*
X65421200Y-38246173D02*
X65421200Y-41806173D01*
X68081200Y-50946173D02*
X68081200Y-51616173D01*
X65421200Y-30976173D02*
X65421200Y-31646173D01*
X65421200Y-48406173D02*
X65421200Y-51616173D01*
X65421200Y-33166173D02*
X65421200Y-36726173D01*
X68081200Y-30976173D02*
X65421200Y-30976173D01*
X68081200Y-40786173D02*
X68081200Y-44346173D01*
X65421200Y-43326173D02*
X65421200Y-46886173D01*
X68081200Y-30976173D02*
X68081200Y-34186173D01*
X65421200Y-31646173D02*
X64211200Y-31646173D01*
X68081200Y-35706173D02*
X68081200Y-39266173D01*
X117760400Y-77201664D02*
X117760400Y-76747536D01*
X116290400Y-77201664D02*
X116290400Y-76747536D01*
X121760400Y-65747536D02*
X121760400Y-66201664D01*
X120290400Y-65747536D02*
X120290400Y-66201664D01*
M02*
