M48
; DRILL file {KiCad (5.99.0-8123-gb2cbd99365)} date Saturday, February 13, 2021 at 07:05:36 PM
; FORMAT={-:-/ absolute / inch / decimal}
; #@! TF.CreationDate,2021-02-13T19:05:36-05:00
; #@! TF.GenerationSoftware,Kicad,Pcbnew,(5.99.0-8123-gb2cbd99365)
; #@! TF.FileFunction,NonPlated,1,2,NPTH
FMAT,2
INCH
T1C0.0197
T2C0.0390
T3C0.0669
T4C0.1358
T5C0.1575
%
G90
G05
T1
X2.7738Y-2.5587
X2.7738Y-2.6453
X2.8053Y-2.5587
X2.8053Y-2.6453
X2.8368Y-2.5587
X2.8368Y-2.6453
X2.8682Y-2.5587
X2.8682Y-2.6453
X2.8997Y-2.5587
X2.8997Y-2.6453
X2.9312Y-2.5587
X2.9312Y-2.6453
X4.0578Y-2.5587
X4.0578Y-2.6453
X4.0893Y-2.5587
X4.0893Y-2.6453
X4.1208Y-2.5587
X4.1208Y-2.6453
X4.1522Y-2.5587
X4.1522Y-2.6453
X4.1837Y-2.5587
X4.1837Y-2.6453
X4.2152Y-2.5587
X4.2152Y-2.6453
X5.3298Y-2.5587
X5.3298Y-2.6453
X5.3613Y-2.5587
X5.3613Y-2.6453
X5.3928Y-2.5587
X5.3928Y-2.6453
X5.4242Y-2.5587
X5.4242Y-2.6453
X5.4557Y-2.5587
X5.4557Y-2.6453
X5.4872Y-2.5587
X5.4872Y-2.6453
T2
X5.5828Y-3.957
X5.6228Y-4.157
X5.6628Y-3.957
T3
X2.81Y-4.06
X2.81Y-4.81
X2.81Y-5.56
X2.81Y-6.31
X3.21Y-4.06
X3.21Y-4.81
X3.21Y-5.56
X3.21Y-6.31
X3.56Y-4.06
X3.56Y-4.81
X3.56Y-5.56
X3.56Y-6.31
X3.96Y-4.06
X3.96Y-4.81
X3.96Y-5.56
X3.96Y-6.31
X4.31Y-4.06
X4.31Y-4.81
X4.31Y-5.56
X4.31Y-6.31
X4.71Y-4.06
X4.71Y-4.81
X4.71Y-5.56
X4.71Y-6.31
X5.06Y-4.81
X5.06Y-5.56
X5.06Y-6.31
X5.46Y-4.81
X5.46Y-5.56
X5.46Y-6.31
T4
X3.5574Y-3.0751
X4.7373Y-3.2601
T5
X3.01Y-4.06
X3.01Y-4.81
X3.01Y-5.56
X3.01Y-6.31
X3.76Y-4.06
X3.76Y-4.81
X3.76Y-5.56
X3.76Y-6.31
X4.51Y-4.06
X4.51Y-4.81
X4.51Y-5.56
X4.51Y-6.31
X5.26Y-4.81
X5.26Y-5.56
X5.26Y-6.31
T0
M30
