G04 #@! TF.GenerationSoftware,KiCad,Pcbnew,(6.0.4-0)*
G04 #@! TF.CreationDate,2022-05-12T23:56:54-04:00*
G04 #@! TF.ProjectId,unitron,756e6974-726f-46e2-9e6b-696361645f70,1.14*
G04 #@! TF.SameCoordinates,Original*
G04 #@! TF.FileFunction,Soldermask,Top*
G04 #@! TF.FilePolarity,Negative*
%FSLAX46Y46*%
G04 Gerber Fmt 4.6, Leading zero omitted, Abs format (unit mm)*
G04 Created by KiCad (PCBNEW (6.0.4-0)) date 2022-05-12 23:56:54*
%MOMM*%
%LPD*%
G01*
G04 APERTURE LIST*
G04 Aperture macros list*
%AMRoundRect*
0 Rectangle with rounded corners*
0 $1 Rounding radius*
0 $2 $3 $4 $5 $6 $7 $8 $9 X,Y pos of 4 corners*
0 Add a 4 corners polygon primitive as box body*
4,1,4,$2,$3,$4,$5,$6,$7,$8,$9,$2,$3,0*
0 Add four circle primitives for the rounded corners*
1,1,$1+$1,$2,$3*
1,1,$1+$1,$4,$5*
1,1,$1+$1,$6,$7*
1,1,$1+$1,$8,$9*
0 Add four rect primitives between the rounded corners*
20,1,$1+$1,$2,$3,$4,$5,0*
20,1,$1+$1,$4,$5,$6,$7,0*
20,1,$1+$1,$6,$7,$8,$9,0*
20,1,$1+$1,$8,$9,$2,$3,0*%
G04 Aperture macros list end*
%ADD10C,1.700000*%
%ADD11C,4.000000*%
%ADD12C,2.200000*%
%ADD13R,1.500000X1.500000*%
%ADD14C,1.500000*%
%ADD15C,2.500000*%
%ADD16C,2.100000*%
%ADD17RoundRect,0.243750X-0.243750X-0.456250X0.243750X-0.456250X0.243750X0.456250X-0.243750X0.456250X0*%
%ADD18RoundRect,0.250000X-0.250000X-1.500000X0.250000X-1.500000X0.250000X1.500000X-0.250000X1.500000X0*%
%ADD19RoundRect,0.250001X-0.499999X-1.449999X0.499999X-1.449999X0.499999X1.449999X-0.499999X1.449999X0*%
%ADD20R,1.500000X1.000000*%
%ADD21C,0.500000*%
%ADD22C,1.524000*%
%ADD23C,6.000000*%
%ADD24R,1.700000X1.700000*%
%ADD25O,1.700000X1.700000*%
%ADD26R,2.000000X2.000000*%
%ADD27C,2.000000*%
%ADD28O,2.800000X3.600000*%
%ADD29C,1.750000*%
G04 APERTURE END LIST*
D10*
X70561200Y-149555200D03*
X80721200Y-149555200D03*
D11*
X75641200Y-149555200D03*
D12*
X78181200Y-144475200D03*
X71831200Y-147015200D03*
D10*
X99771200Y-149555200D03*
X89611200Y-149555200D03*
D11*
X94691200Y-149555200D03*
D12*
X97231200Y-144475200D03*
X90881200Y-147015200D03*
D11*
X75641200Y-111455200D03*
D10*
X70561200Y-111455200D03*
X80721200Y-111455200D03*
D12*
X78181200Y-106375200D03*
X71831200Y-108915200D03*
D11*
X75641200Y-130505200D03*
D10*
X70561200Y-130505200D03*
X80721200Y-130505200D03*
D12*
X78181200Y-125425200D03*
X71831200Y-127965200D03*
D11*
X94691200Y-130505200D03*
D10*
X99771200Y-130505200D03*
X89611200Y-130505200D03*
D12*
X97231200Y-125425200D03*
X90881200Y-127965200D03*
D10*
X99771200Y-111455200D03*
D11*
X94691200Y-111455200D03*
D10*
X89611200Y-111455200D03*
D12*
X97231200Y-106375200D03*
X90881200Y-108915200D03*
D10*
X118821200Y-111455200D03*
D11*
X113741200Y-111455200D03*
D10*
X108661200Y-111455200D03*
D12*
X116281200Y-106375200D03*
X109931200Y-108915200D03*
D11*
X113741200Y-168605200D03*
D10*
X108661200Y-168605200D03*
X118821200Y-168605200D03*
D12*
X116281200Y-163525200D03*
X109931200Y-166065200D03*
D13*
X115303300Y-47446163D03*
D14*
X117843300Y-47446163D03*
X120383300Y-47446163D03*
X122923300Y-47446163D03*
X125463300Y-47446163D03*
X128003300Y-47446163D03*
X130543300Y-47446163D03*
X133083300Y-47446163D03*
X133083300Y-37286163D03*
X128003300Y-37286163D03*
X122923300Y-37286163D03*
X120383300Y-37286163D03*
X117843300Y-37286163D03*
X115303300Y-37286163D03*
D13*
X75171300Y-47446163D03*
D14*
X77711300Y-47446163D03*
X80251300Y-47446163D03*
X82791300Y-47446163D03*
X85331300Y-47446163D03*
X87871300Y-47446163D03*
X90411300Y-47446163D03*
X92951300Y-47446163D03*
X92951300Y-37286163D03*
X87871300Y-37286163D03*
X82791300Y-37286163D03*
X80251300Y-37286163D03*
X77711300Y-37286163D03*
X75171300Y-37286163D03*
D10*
X80721200Y-168605200D03*
D11*
X75641200Y-168605200D03*
D10*
X70561200Y-168605200D03*
D12*
X78181200Y-163525200D03*
X71831200Y-166065200D03*
D13*
X115303300Y-34365163D03*
D14*
X117843300Y-34365163D03*
X120383300Y-34365163D03*
X122923300Y-34365163D03*
X125463300Y-34365163D03*
X128003300Y-34365163D03*
X130543300Y-34365163D03*
X133083300Y-34365163D03*
X133083300Y-24205163D03*
X128003300Y-24205163D03*
X122923300Y-24205163D03*
X120383300Y-24205163D03*
X117843300Y-24205163D03*
X115303300Y-24205163D03*
D13*
X75171300Y-34365163D03*
D14*
X77711300Y-34365163D03*
X80251300Y-34365163D03*
X82791300Y-34365163D03*
X85331300Y-34365163D03*
X87871300Y-34365163D03*
X90411300Y-34365163D03*
X92951300Y-34365163D03*
X92951300Y-24205163D03*
X87871300Y-24205163D03*
X82791300Y-24205163D03*
X80251300Y-24205163D03*
X77711300Y-24205163D03*
X75171300Y-24205163D03*
D10*
X118821200Y-149555200D03*
D11*
X113741200Y-149555200D03*
D10*
X108661200Y-149555200D03*
D12*
X116281200Y-144475200D03*
X109931200Y-147015200D03*
D15*
X128852397Y-106800006D03*
X128852397Y-111500006D03*
X128852397Y-116200006D03*
D16*
X127252397Y-103600006D03*
X130452397Y-103600006D03*
X130452397Y-119400006D03*
X127252397Y-119400006D03*
D11*
X113741200Y-130505200D03*
D10*
X108661200Y-130505200D03*
X118821200Y-130505200D03*
D12*
X116281200Y-125425200D03*
X109931200Y-127965200D03*
D17*
X136062500Y-105300000D03*
X137937500Y-105300000D03*
D18*
X133800000Y-66350000D03*
X135800000Y-66350000D03*
D19*
X138150000Y-72100000D03*
X131450000Y-72100000D03*
D20*
X69050000Y-50900000D03*
X69050000Y-54100000D03*
X73950000Y-54100000D03*
X73950000Y-50900000D03*
D21*
X75800000Y-61130000D03*
X75800000Y-63330000D03*
X74200000Y-61130000D03*
X75000000Y-61130000D03*
X76600000Y-61130000D03*
X78200000Y-63330000D03*
X75000000Y-63330000D03*
X77400000Y-61130000D03*
X78200000Y-61130000D03*
X77400000Y-63330000D03*
X76600000Y-63330000D03*
X74200000Y-63330000D03*
D20*
X96050000Y-50900000D03*
X96050000Y-54100000D03*
X100950000Y-54100000D03*
X100950000Y-50900000D03*
D22*
X137730000Y-114040000D03*
X137730000Y-111500000D03*
X137730000Y-108960000D03*
D23*
X72627300Y-79974600D03*
D17*
X139562500Y-105300000D03*
X141437500Y-105300000D03*
D24*
X141427200Y-72999600D03*
D25*
X141427200Y-75539600D03*
X141427200Y-78079600D03*
X141427200Y-80619600D03*
X141427200Y-83159600D03*
X141427200Y-85699600D03*
X141427200Y-88239600D03*
X141427200Y-90779600D03*
D26*
X71000000Y-70000000D03*
D27*
X78600000Y-70000000D03*
D10*
X99771200Y-168605200D03*
X89611200Y-168605200D03*
D11*
X94691200Y-168605200D03*
D12*
X97231200Y-163525200D03*
X90881200Y-166065200D03*
D20*
X136550000Y-50900000D03*
X136550000Y-54100000D03*
X141450000Y-54100000D03*
X141450000Y-50900000D03*
D23*
X135627300Y-157974600D03*
D28*
X127091200Y-130505200D03*
X138491200Y-130505200D03*
D29*
X130291200Y-138005200D03*
X135291200Y-138005200D03*
X132791200Y-138005200D03*
X130291200Y-123505200D03*
X135291200Y-123505200D03*
D23*
X135627300Y-79974600D03*
X72627300Y-157974600D03*
D20*
X109550000Y-50900000D03*
X109550000Y-54100000D03*
X114450000Y-54100000D03*
X114450000Y-50900000D03*
D10*
X137871200Y-168605200D03*
D11*
X132791200Y-168605200D03*
D10*
X127711200Y-168605200D03*
D12*
X135331200Y-163525200D03*
X128981200Y-166065200D03*
D20*
X82550000Y-50900000D03*
X82550000Y-54100000D03*
X87450000Y-54100000D03*
X87450000Y-50900000D03*
D10*
X137871200Y-149555200D03*
X127711200Y-149555200D03*
D11*
X132791200Y-149555200D03*
D12*
X135331200Y-144475200D03*
X128981200Y-147015200D03*
D24*
X66751200Y-72999600D03*
D25*
X66751200Y-75539600D03*
X66751200Y-78079600D03*
X66751200Y-80619600D03*
X66751200Y-83159600D03*
X66751200Y-85699600D03*
X66751200Y-88239600D03*
X66751200Y-90779600D03*
D20*
X123050000Y-50900000D03*
X123050000Y-54100000D03*
X127950000Y-54100000D03*
X127950000Y-50900000D03*
D21*
X131680000Y-61130000D03*
X130080000Y-63330000D03*
X134080000Y-63330000D03*
X131680000Y-63330000D03*
X130080000Y-61130000D03*
X130880000Y-61130000D03*
X133280000Y-63330000D03*
X134080000Y-61130000D03*
X133280000Y-61130000D03*
X132480000Y-61130000D03*
X130880000Y-63330000D03*
X132480000Y-63330000D03*
M02*
