M48
; DRILL file {KiCad (5.99.0-13010-g08938463f1)} date Sunday, December 12, 2021 at 11:41:18 PM
; FORMAT={-:-/ absolute / inch / decimal}
; #@! TF.CreationDate,2021-12-12T23:41:18-05:00
; #@! TF.GenerationSoftware,Kicad,Pcbnew,(5.99.0-13010-g08938463f1)
; #@! TF.FileFunction,MixedPlating,1,2
FMAT,2
INCH
; #@! TA.AperFunction,Plated,PTH,ViaDrill
T1C0.0138
; #@! TA.AperFunction,Plated,PTH,ViaDrill
T2C0.0157
; #@! TA.AperFunction,Plated,PTH,ComponentDrill
T3C0.0394
; #@! TA.AperFunction,Plated,PTH,ComponentDrill
T4C0.0591
; #@! TA.AperFunction,Plated,PTH,ComponentDrill
T5C0.0709
; #@! TA.AperFunction,Plated,PTH,ComponentDrill
T6C0.1673
; #@! TA.AperFunction,NonPlated,NPTH,ComponentDrill
T7C0.0197
; #@! TA.AperFunction,NonPlated,NPTH,ComponentDrill
T8C0.0669
; #@! TA.AperFunction,NonPlated,NPTH,ComponentDrill
T9C0.1575
%
G90
G05
T1
X2.9045Y-1.063
X2.9645Y-1.273
X3.0645Y-1.153
X3.0645Y-1.698
X3.1045Y-1.243
X3.1245Y-1.598
X3.1545Y-1.133
X3.1645Y-1.213
X3.1745Y-1.598
X3.2545Y-1.548
X3.3145Y-1.648
X3.3645Y-1.193
X3.4245Y-1.033
X3.4445Y-1.658
X3.4538Y-1.093
X3.4547Y-1.6952
X3.4595Y-1.603
X3.5545Y-1.708
X3.5645Y-1.193
X3.6645Y-1.193
X3.7345Y-1.343
X3.736Y-1.4261
X3.7645Y-1.878
X3.7818Y-1.3746
X3.7845Y-1.003
X3.8245Y-1.788
X3.8295Y-3.975
X3.8445Y-1.298
X3.8884Y-1.608
X3.913Y-1.158
X3.916Y-1.534
X3.9243Y-1.7812
X3.9516Y-1.4342
X3.9545Y-1.3252
X3.9545Y-1.858
X3.958Y-1.148
X3.9743Y-1.6808
X3.9845Y-0.973
X3.9845Y-1.8852
X3.9945Y-1.353
X4.0145Y-1.688
X4.0357Y-1.3738
X4.0445Y-0.933
X4.0445Y-1.668
X4.0445Y-1.888
X4.0648Y-1.5952
X4.073Y-1.193
X4.0841Y-1.6608
X4.0845Y-1.698
X4.1049Y-1.2026
X4.1178Y-0.9612
X4.1245Y-1.308
X4.1345Y-1.173
X4.1364Y-1.4808
X4.1422Y-1.6012
X4.1629Y-0.949
X4.1702Y-1.1052
X4.1945Y-1.608
X4.1948Y-1.498
X4.2045Y-1.818
X4.2145Y-0.953
X4.2145Y-1.308
X4.2245Y-1.153
X4.2355Y-1.6025
X4.2447Y-1.6608
X4.2745Y-1.4808
X4.2746Y-1.5481
X4.2845Y-0.983
X4.2845Y-1.7148
X4.3145Y-1.488
X4.4845Y-1.848
X4.4945Y-1.183
X4.4945Y-1.298
X4.5245Y-1.688
X4.5345Y-1.598
X4.5345Y-1.728
X4.5372Y-1.0252
X4.5945Y-1.1952
X4.5945Y-1.628
X4.6345Y-1.608
X4.6501Y-1.1002
X4.7345Y-1.153
X4.7345Y-1.568
X4.8345Y-1.2607
X4.9945Y-1.143
X5.0345Y-1.588
X5.0369Y-1.7578
X5.0545Y-1.038
X5.1345Y-1.233
X5.1445Y-1.688
X5.2345Y-1.113
X5.2445Y-1.568
X5.433Y-1.503
T2
X2.6309Y-2.0215
X2.6467Y-2.2577
X2.6624Y-1.675
X2.7097Y-1.8561
X2.7254Y-2.2903
X2.749Y-1.2813
X2.7569Y-3.3061
X2.758Y-1.468
X2.781Y-1.5511
X2.7884Y-1.7459
X2.812Y-1.6042
X2.998Y-1.7637
X3.0482Y-3.8021
X3.0495Y-3.3061
X3.2687Y-3.0699
X3.2995Y-4.06
X3.3317Y-2.2903
X3.3995Y-3.635
X3.4892Y-3.3927
X3.5745Y-3.86
X3.798Y-1.462
X3.8671Y-2.8494
X3.8829Y-3.8258
X3.9223Y-2.2903
X3.9301Y-3.1565
X3.9538Y-3.7155
X4.0245Y-5.76
X4.042Y-1.468
X4.6073Y-2.936
X4.623Y-2.2903
X4.6664Y-2.7943
X4.7254Y-2.9911
X4.812Y-3.4242
X5.1112Y-3.0305
X5.1191Y-2.8927
X5.1427Y-2.7234
X5.1821Y-3.3612
X5.2451Y-2.2903
X5.316Y-3.3612
X5.3317Y-1.8865
X5.3849Y-3.6112
X5.416Y-1.828
X5.421Y-1.3711
X5.448Y-3.838
X5.451Y-1.0261
X5.486Y-1.5661
X5.4971Y-2.7707
X5.503Y-1.975
X5.576Y-1.7061
X5.591Y-1.4361
T3
X2.628Y-2.874
X2.628Y-2.974
X2.628Y-3.074
X2.628Y-3.174
X2.628Y-3.274
X2.628Y-3.374
X2.628Y-3.474
X2.628Y-3.574
X2.9595Y-0.953
X2.9595Y-1.353
X2.9595Y-1.468
X2.9595Y-1.868
X3.0595Y-0.953
X3.0595Y-1.353
X3.0595Y-1.468
X3.0595Y-1.868
X3.1595Y-0.953
X3.1595Y-1.353
X3.1595Y-1.468
X3.1595Y-1.868
X3.2595Y-0.953
X3.2595Y-1.353
X3.2595Y-1.468
X3.2595Y-1.868
X3.3595Y-1.353
X3.3595Y-1.868
X3.4595Y-0.953
X3.4595Y-1.353
X3.4595Y-1.468
X3.4595Y-1.868
X3.5595Y-1.353
X3.5595Y-1.868
X3.6595Y-0.953
X3.6595Y-1.353
X3.6595Y-1.468
X3.6595Y-1.868
X4.5395Y-0.953
X4.5395Y-1.353
X4.5395Y-1.468
X4.5395Y-1.868
X4.6395Y-0.953
X4.6395Y-1.353
X4.6395Y-1.468
X4.6395Y-1.868
X4.7395Y-0.953
X4.7395Y-1.353
X4.7395Y-1.468
X4.7395Y-1.868
X4.8395Y-0.953
X4.8395Y-1.353
X4.8395Y-1.468
X4.8395Y-1.868
X4.9395Y-1.353
X4.9395Y-1.868
X5.0395Y-0.953
X5.0395Y-1.353
X5.0395Y-1.468
X5.0395Y-1.868
X5.1395Y-1.353
X5.1395Y-1.868
X5.2372Y-2.6234
X5.2372Y-2.7234
X5.2395Y-0.953
X5.2395Y-1.353
X5.2395Y-1.468
X5.2395Y-1.868
X5.568Y-2.874
X5.568Y-2.974
X5.568Y-3.074
X5.568Y-3.174
X5.568Y-3.274
X5.568Y-3.374
X5.568Y-3.474
X5.568Y-3.574
T4
X2.828Y-4.288
X2.828Y-5.038
X2.828Y-5.788
X2.828Y-6.538
X3.078Y-4.188
X3.078Y-4.938
X3.078Y-5.688
X3.078Y-6.438
X3.578Y-4.288
X3.578Y-5.038
X3.578Y-5.788
X3.578Y-6.538
X3.828Y-4.188
X3.828Y-4.938
X3.828Y-5.688
X3.828Y-6.438
X4.328Y-4.288
X4.328Y-5.038
X4.328Y-5.788
X4.328Y-6.538
X4.578Y-4.188
X4.578Y-4.938
X4.578Y-5.688
X4.578Y-6.438
X5.078Y-5.038
X5.078Y-5.788
X5.078Y-6.538
X5.165Y-4.077
X5.165Y-4.699
X5.291Y-4.077
X5.291Y-4.699
X5.328Y-4.938
X5.328Y-5.688
X5.328Y-6.438
T5
X5.228Y-4.203
X5.228Y-4.388
X5.228Y-4.573
T6
X2.8593Y-3.1486
X2.8593Y-6.2195
X5.3397Y-3.1486
X5.3397Y-6.2195
T7
X2.9213Y-2.4067
X2.9213Y-2.4933
X2.9528Y-2.4067
X2.9528Y-2.4933
X2.9843Y-2.4067
X2.9843Y-2.4933
X3.0157Y-2.4067
X3.0157Y-2.4933
X3.0472Y-2.4067
X3.0472Y-2.4933
X3.0787Y-2.4067
X3.0787Y-2.4933
X4.0258Y-2.4067
X4.0258Y-2.4933
X4.0573Y-2.4067
X4.0573Y-2.4933
X4.0888Y-2.4067
X4.0888Y-2.4933
X4.1202Y-2.4067
X4.1202Y-2.4933
X4.1517Y-2.4067
X4.1517Y-2.4933
X4.1832Y-2.4067
X4.1832Y-2.4933
X5.1213Y-2.4067
X5.1213Y-2.4933
X5.1528Y-2.4067
X5.1528Y-2.4933
X5.1843Y-2.4067
X5.1843Y-2.4933
X5.2157Y-2.4067
X5.2157Y-2.4933
X5.2472Y-2.4067
X5.2472Y-2.4933
X5.2787Y-2.4067
X5.2787Y-2.4933
T8
X2.778Y-4.388
X2.778Y-5.138
X2.778Y-5.888
X2.778Y-6.638
X3.178Y-4.388
X3.178Y-5.138
X3.178Y-5.888
X3.178Y-6.638
X3.528Y-4.388
X3.528Y-5.138
X3.528Y-5.888
X3.528Y-6.638
X3.928Y-4.388
X3.928Y-5.138
X3.928Y-5.888
X3.928Y-6.638
X4.278Y-4.388
X4.278Y-5.138
X4.278Y-5.888
X4.278Y-6.638
X4.678Y-4.388
X4.678Y-5.138
X4.678Y-5.888
X4.678Y-6.638
X5.028Y-5.138
X5.028Y-5.888
X5.028Y-6.638
X5.428Y-5.138
X5.428Y-5.888
X5.428Y-6.638
T9
X2.978Y-4.388
X2.978Y-5.138
X2.978Y-5.888
X2.978Y-6.638
X3.728Y-4.388
X3.728Y-5.138
X3.728Y-5.888
X3.728Y-6.638
X4.478Y-4.388
X4.478Y-5.138
X4.478Y-5.888
X4.478Y-6.638
X5.228Y-5.138
X5.228Y-5.888
X5.228Y-6.638
T0
M30
