G04 #@! TF.GenerationSoftware,KiCad,Pcbnew,(6.0.2-0)*
G04 #@! TF.CreationDate,2022-02-27T22:12:15-05:00*
G04 #@! TF.ProjectId,unitron,756e6974-726f-46e2-9e6b-696361645f70,1.11*
G04 #@! TF.SameCoordinates,Original*
G04 #@! TF.FileFunction,Soldermask,Bot*
G04 #@! TF.FilePolarity,Negative*
%FSLAX46Y46*%
G04 Gerber Fmt 4.6, Leading zero omitted, Abs format (unit mm)*
G04 Created by KiCad (PCBNEW (6.0.2-0)) date 2022-02-27 22:12:15*
%MOMM*%
%LPD*%
G01*
G04 APERTURE LIST*
G04 Aperture macros list*
%AMRoundRect*
0 Rectangle with rounded corners*
0 $1 Rounding radius*
0 $2 $3 $4 $5 $6 $7 $8 $9 X,Y pos of 4 corners*
0 Add a 4 corners polygon primitive as box body*
4,1,4,$2,$3,$4,$5,$6,$7,$8,$9,$2,$3,0*
0 Add four circle primitives for the rounded corners*
1,1,$1+$1,$2,$3*
1,1,$1+$1,$4,$5*
1,1,$1+$1,$6,$7*
1,1,$1+$1,$8,$9*
0 Add four rect primitives between the rounded corners*
20,1,$1+$1,$2,$3,$4,$5,0*
20,1,$1+$1,$4,$5,$6,$7,0*
20,1,$1+$1,$6,$7,$8,$9,0*
20,1,$1+$1,$8,$9,$2,$3,0*%
G04 Aperture macros list end*
%ADD10C,2.200000*%
%ADD11C,4.000000*%
%ADD12C,1.700000*%
%ADD13C,1.500000*%
%ADD14R,1.500000X1.500000*%
%ADD15C,2.100000*%
%ADD16C,2.500000*%
%ADD17O,1.700000X1.700000*%
%ADD18R,1.700000X1.700000*%
%ADD19C,0.500000*%
%ADD20C,6.000000*%
%ADD21RoundRect,0.250000X-0.450000X0.262500X-0.450000X-0.262500X0.450000X-0.262500X0.450000X0.262500X0*%
%ADD22R,0.410000X1.600000*%
%ADD23RoundRect,0.250000X0.450000X-0.262500X0.450000X0.262500X-0.450000X0.262500X-0.450000X-0.262500X0*%
%ADD24RoundRect,0.250000X-0.262500X-0.450000X0.262500X-0.450000X0.262500X0.450000X-0.262500X0.450000X0*%
%ADD25RoundRect,0.150000X0.150000X-0.512500X0.150000X0.512500X-0.150000X0.512500X-0.150000X-0.512500X0*%
%ADD26R,1.100000X1.100000*%
%ADD27RoundRect,0.250000X-0.475000X0.250000X-0.475000X-0.250000X0.475000X-0.250000X0.475000X0.250000X0*%
%ADD28RoundRect,0.250000X0.262500X0.450000X-0.262500X0.450000X-0.262500X-0.450000X0.262500X-0.450000X0*%
%ADD29RoundRect,0.250000X0.475000X-0.250000X0.475000X0.250000X-0.475000X0.250000X-0.475000X-0.250000X0*%
%ADD30R,1.000000X1.000000*%
%ADD31RoundRect,0.500000X1.000000X0.500000X-1.000000X0.500000X-1.000000X-0.500000X1.000000X-0.500000X0*%
%ADD32R,1.900000X1.000000*%
G04 APERTURE END LIST*
D10*
X71831200Y-147015200D03*
X78181200Y-144475200D03*
D11*
X75641200Y-149555200D03*
D12*
X80721200Y-149555200D03*
X70561200Y-149555200D03*
D10*
X90881200Y-147015200D03*
X97231200Y-144475200D03*
D11*
X94691200Y-149555200D03*
D12*
X89611200Y-149555200D03*
X99771200Y-149555200D03*
D10*
X71831200Y-108915200D03*
X78181200Y-106375200D03*
D12*
X80721200Y-111455200D03*
X70561200Y-111455200D03*
D11*
X75641200Y-111455200D03*
D10*
X71831200Y-127965200D03*
X78181200Y-125425200D03*
D12*
X80721200Y-130505200D03*
X70561200Y-130505200D03*
D11*
X75641200Y-130505200D03*
D10*
X90881200Y-127965200D03*
X97231200Y-125425200D03*
D12*
X89611200Y-130505200D03*
X99771200Y-130505200D03*
D11*
X94691200Y-130505200D03*
D10*
X90881200Y-108915200D03*
X97231200Y-106375200D03*
D12*
X89611200Y-111455200D03*
D11*
X94691200Y-111455200D03*
D12*
X99771200Y-111455200D03*
D10*
X109931200Y-108915200D03*
X116281200Y-106375200D03*
D12*
X108661200Y-111455200D03*
D11*
X113741200Y-111455200D03*
D12*
X118821200Y-111455200D03*
D10*
X109931200Y-166065200D03*
X116281200Y-163525200D03*
D12*
X118821200Y-168605200D03*
X108661200Y-168605200D03*
D11*
X113741200Y-168605200D03*
D13*
X115303300Y-37286163D03*
X117843300Y-37286163D03*
X120383300Y-37286163D03*
X122923300Y-37286163D03*
X128003300Y-37286163D03*
X133083300Y-37286163D03*
X133083300Y-47446163D03*
X130543300Y-47446163D03*
X128003300Y-47446163D03*
X125463300Y-47446163D03*
X122923300Y-47446163D03*
X120383300Y-47446163D03*
X117843300Y-47446163D03*
D14*
X115303300Y-47446163D03*
D13*
X75171300Y-37286163D03*
X77711300Y-37286163D03*
X80251300Y-37286163D03*
X82791300Y-37286163D03*
X87871300Y-37286163D03*
X92951300Y-37286163D03*
X92951300Y-47446163D03*
X90411300Y-47446163D03*
X87871300Y-47446163D03*
X85331300Y-47446163D03*
X82791300Y-47446163D03*
X80251300Y-47446163D03*
X77711300Y-47446163D03*
D14*
X75171300Y-47446163D03*
D10*
X71831200Y-166065200D03*
X78181200Y-163525200D03*
D12*
X70561200Y-168605200D03*
D11*
X75641200Y-168605200D03*
D12*
X80721200Y-168605200D03*
D13*
X115303300Y-24205163D03*
X117843300Y-24205163D03*
X120383300Y-24205163D03*
X122923300Y-24205163D03*
X128003300Y-24205163D03*
X133083300Y-24205163D03*
X133083300Y-34365163D03*
X130543300Y-34365163D03*
X128003300Y-34365163D03*
X125463300Y-34365163D03*
X122923300Y-34365163D03*
X120383300Y-34365163D03*
X117843300Y-34365163D03*
D14*
X115303300Y-34365163D03*
X75171300Y-34365163D03*
D13*
X77711300Y-34365163D03*
X80251300Y-34365163D03*
X82791300Y-34365163D03*
X85331300Y-34365163D03*
X87871300Y-34365163D03*
X90411300Y-34365163D03*
X92951300Y-34365163D03*
X92951300Y-24205163D03*
X87871300Y-24205163D03*
X82791300Y-24205163D03*
X80251300Y-24205163D03*
X77711300Y-24205163D03*
X75171300Y-24205163D03*
D10*
X109931200Y-147015200D03*
X116281200Y-144475200D03*
D12*
X108661200Y-149555200D03*
D11*
X113741200Y-149555200D03*
D12*
X118821200Y-149555200D03*
D15*
X131191200Y-103555200D03*
X134391200Y-103555200D03*
X134391200Y-119355200D03*
X131191200Y-119355200D03*
D16*
X132791200Y-116155200D03*
X132791200Y-111455200D03*
X132791200Y-106755200D03*
D10*
X109931200Y-127965200D03*
X116281200Y-125425200D03*
D12*
X118821200Y-130505200D03*
X108661200Y-130505200D03*
D11*
X113741200Y-130505200D03*
D17*
X133025400Y-66634600D03*
D18*
X133025400Y-69174600D03*
D19*
X74200000Y-63330000D03*
X76600000Y-63330000D03*
X77400000Y-63330000D03*
X78200000Y-61130000D03*
X77400000Y-61130000D03*
X75000000Y-63330000D03*
X78200000Y-63330000D03*
X76600000Y-61130000D03*
X75000000Y-61130000D03*
X74200000Y-61130000D03*
X75800000Y-63330000D03*
X75800000Y-61130000D03*
D20*
X72627300Y-79974600D03*
D17*
X141427200Y-90779600D03*
X141427200Y-88239600D03*
X141427200Y-85699600D03*
X141427200Y-83159600D03*
X141427200Y-80619600D03*
X141427200Y-78079600D03*
X141427200Y-75539600D03*
D18*
X141427200Y-72999600D03*
D10*
X90881200Y-166065200D03*
X97231200Y-163525200D03*
D11*
X94691200Y-168605200D03*
D12*
X89611200Y-168605200D03*
X99771200Y-168605200D03*
D20*
X135627300Y-157974600D03*
X135627300Y-79974600D03*
X72627300Y-157974600D03*
D10*
X128981200Y-147015200D03*
X135331200Y-144475200D03*
D11*
X132791200Y-149555200D03*
D12*
X127711200Y-149555200D03*
X137871200Y-149555200D03*
D17*
X66751200Y-90779600D03*
X66751200Y-88239600D03*
X66751200Y-85699600D03*
X66751200Y-83159600D03*
X66751200Y-80619600D03*
X66751200Y-78079600D03*
X66751200Y-75539600D03*
D18*
X66751200Y-72999600D03*
D10*
X128981200Y-166065200D03*
X135331200Y-163525200D03*
D12*
X137871200Y-168605200D03*
D11*
X132791200Y-168605200D03*
D12*
X127711200Y-168605200D03*
D19*
X132480000Y-63330000D03*
X130880000Y-63330000D03*
X132480000Y-61130000D03*
X133280000Y-61130000D03*
X134080000Y-61130000D03*
X133280000Y-63330000D03*
X130880000Y-61130000D03*
X130080000Y-61130000D03*
X131680000Y-63330000D03*
X134080000Y-63330000D03*
X130080000Y-63330000D03*
X131680000Y-61130000D03*
D10*
X128981200Y-127965200D03*
X135331200Y-125425200D03*
D11*
X132791200Y-130505200D03*
D12*
X137871200Y-130505200D03*
X127711200Y-130505200D03*
D21*
X111000000Y-49912500D03*
X111000000Y-48087500D03*
X109250000Y-46662500D03*
X109250000Y-44837500D03*
X109250000Y-49912500D03*
X109250000Y-48087500D03*
X110000000Y-30312500D03*
X110000000Y-28487500D03*
X109400000Y-34312500D03*
X109400000Y-32487500D03*
D22*
X100761800Y-44639463D03*
X101396800Y-44639463D03*
X102031800Y-44639463D03*
X102666800Y-44639463D03*
X103301800Y-44639463D03*
X103936800Y-44639463D03*
X104571800Y-44639463D03*
X105206800Y-44639463D03*
X105841800Y-44639463D03*
X106476800Y-44639463D03*
X107111800Y-44639463D03*
X107746800Y-44639463D03*
X107746800Y-39330863D03*
X107111800Y-39330863D03*
X106476800Y-39330863D03*
X105841800Y-39330863D03*
X105206800Y-39330863D03*
X104571800Y-39330863D03*
X103936800Y-39330863D03*
X103301800Y-39330863D03*
X102666800Y-39330863D03*
X102031800Y-39330863D03*
X101396800Y-39330863D03*
X100761800Y-39330863D03*
D21*
X111800000Y-32162500D03*
X111800000Y-30337500D03*
D23*
X117025400Y-71062100D03*
X117025400Y-72887100D03*
D24*
X118662500Y-80000000D03*
X116837500Y-80000000D03*
D25*
X126975400Y-66037100D03*
X125075400Y-66037100D03*
X125075400Y-68312100D03*
X126025400Y-68312100D03*
X126975400Y-68312100D03*
D26*
X77625400Y-88824600D03*
X77625400Y-91624600D03*
D24*
X72412500Y-32500000D03*
X70587500Y-32500000D03*
X72412500Y-45000000D03*
X70587500Y-45000000D03*
D27*
X106750000Y-50450000D03*
X106750000Y-48550000D03*
D28*
X133787500Y-41200000D03*
X135612500Y-41200000D03*
D24*
X72412500Y-40000000D03*
X70587500Y-40000000D03*
D26*
X90825400Y-99974600D03*
X90825400Y-102774600D03*
D29*
X104750000Y-48550000D03*
X104750000Y-50450000D03*
D21*
X140025400Y-68887100D03*
X140025400Y-67062100D03*
D30*
X111750000Y-42250000D03*
D23*
X130025400Y-66062100D03*
X130025400Y-67887100D03*
D31*
X95335400Y-67254600D03*
X95335400Y-69794600D03*
X95335400Y-72334600D03*
X95335400Y-74874600D03*
X95335400Y-77414600D03*
X95335400Y-79954600D03*
X95335400Y-82494600D03*
X113115400Y-82494600D03*
X113115400Y-79954600D03*
X113115400Y-77414600D03*
X113115400Y-74874600D03*
X113115400Y-72334600D03*
X113115400Y-69794600D03*
X113115400Y-67254600D03*
D28*
X135587500Y-36400000D03*
X137412500Y-36400000D03*
D23*
X120250400Y-70062100D03*
X120250400Y-71887100D03*
D24*
X72412500Y-42500000D03*
X70587500Y-42500000D03*
D30*
X100750000Y-37500000D03*
D26*
X93275400Y-89074600D03*
X93275400Y-91874600D03*
D24*
X70587500Y-47750000D03*
X72412500Y-47750000D03*
D26*
X72025400Y-87974600D03*
X72025400Y-90774600D03*
D30*
X99500000Y-46000000D03*
D24*
X72412500Y-35000000D03*
X70587500Y-35000000D03*
D26*
X105775400Y-98074600D03*
X105775400Y-100874600D03*
D32*
X143077200Y-50186173D03*
X139777200Y-47646173D03*
X143077200Y-45106173D03*
X139777200Y-42566173D03*
X143077200Y-40026173D03*
X139777200Y-37486173D03*
X143077200Y-34946173D03*
X139777200Y-32406173D03*
D26*
X137025400Y-69374600D03*
X137025400Y-66574600D03*
X68425400Y-100174600D03*
X68425400Y-102974600D03*
D24*
X72412500Y-50250000D03*
X70587500Y-50250000D03*
D22*
X100732900Y-32000473D03*
X101367900Y-32000473D03*
X102002900Y-32000473D03*
X102637900Y-32000473D03*
X103272900Y-32000473D03*
X103907900Y-32000473D03*
X104542900Y-32000473D03*
X105177900Y-32000473D03*
X105812900Y-32000473D03*
X106447900Y-32000473D03*
X107082900Y-32000473D03*
X107717900Y-32000473D03*
X107717900Y-26691873D03*
X107082900Y-26691873D03*
X106447900Y-26691873D03*
X105812900Y-26691873D03*
X105177900Y-26691873D03*
X104542900Y-26691873D03*
X103907900Y-26691873D03*
X103272900Y-26691873D03*
X102637900Y-26691873D03*
X102002900Y-26691873D03*
X101367900Y-26691873D03*
X100732900Y-26691873D03*
D21*
X118025400Y-68887100D03*
X118025400Y-67062100D03*
D26*
X86425400Y-97574600D03*
X86425400Y-100374600D03*
D21*
X122625400Y-71912100D03*
X122625400Y-70087100D03*
D32*
X68401200Y-50186173D03*
X65101200Y-47646173D03*
X68401200Y-45106173D03*
X65101200Y-42566173D03*
X68401200Y-40026173D03*
X65101200Y-37486173D03*
X68401200Y-34946173D03*
X65101200Y-32406173D03*
D24*
X118662500Y-77500000D03*
X116837500Y-77500000D03*
D21*
X121025400Y-66887100D03*
X121025400Y-65062100D03*
D24*
X72412500Y-37500000D03*
X70587500Y-37500000D03*
D26*
X83825400Y-84574600D03*
X83825400Y-87374600D03*
M02*
