G04 #@! TF.GenerationSoftware,KiCad,Pcbnew,(5.99.0-13010-g08938463f1)*
G04 #@! TF.CreationDate,2021-11-20T18:45:23-05:00*
G04 #@! TF.ProjectId,unitron,756e6974-726f-46e2-9e6b-696361645f70,1.8*
G04 #@! TF.SameCoordinates,Original*
G04 #@! TF.FileFunction,Paste,Bot*
G04 #@! TF.FilePolarity,Positive*
%FSLAX46Y46*%
G04 Gerber Fmt 4.6, Leading zero omitted, Abs format (unit mm)*
G04 Created by KiCad (PCBNEW (5.99.0-13010-g08938463f1)) date 2021-11-20 18:45:23*
%MOMM*%
%LPD*%
G01*
G04 APERTURE LIST*
G04 Aperture macros list*
%AMRoundRect*
0 Rectangle with rounded corners*
0 $1 Rounding radius*
0 $2 $3 $4 $5 $6 $7 $8 $9 X,Y pos of 4 corners*
0 Add a 4 corners polygon primitive as box body*
4,1,4,$2,$3,$4,$5,$6,$7,$8,$9,$2,$3,0*
0 Add four circle primitives for the rounded corners*
1,1,$1+$1,$2,$3*
1,1,$1+$1,$4,$5*
1,1,$1+$1,$6,$7*
1,1,$1+$1,$8,$9*
0 Add four rect primitives between the rounded corners*
20,1,$1+$1,$2,$3,$4,$5,0*
20,1,$1+$1,$4,$5,$6,$7,0*
20,1,$1+$1,$6,$7,$8,$9,0*
20,1,$1+$1,$8,$9,$2,$3,0*%
G04 Aperture macros list end*
%ADD10RoundRect,0.250000X-0.450000X0.262500X-0.450000X-0.262500X0.450000X-0.262500X0.450000X0.262500X0*%
%ADD11RoundRect,0.150000X-0.512500X-0.150000X0.512500X-0.150000X0.512500X0.150000X-0.512500X0.150000X0*%
%ADD12RoundRect,0.150000X-0.587500X-0.150000X0.587500X-0.150000X0.587500X0.150000X-0.587500X0.150000X0*%
%ADD13RoundRect,0.243750X-0.456250X0.243750X-0.456250X-0.243750X0.456250X-0.243750X0.456250X0.243750X0*%
%ADD14RoundRect,0.243750X0.243750X0.456250X-0.243750X0.456250X-0.243750X-0.456250X0.243750X-0.456250X0*%
%ADD15R,0.410000X1.600000*%
%ADD16RoundRect,0.243750X0.456250X-0.243750X0.456250X0.243750X-0.456250X0.243750X-0.456250X-0.243750X0*%
%ADD17R,0.900000X0.800000*%
%ADD18RoundRect,0.243750X-0.243750X-0.456250X0.243750X-0.456250X0.243750X0.456250X-0.243750X0.456250X0*%
%ADD19RoundRect,0.250000X0.450000X-0.262500X0.450000X0.262500X-0.450000X0.262500X-0.450000X-0.262500X0*%
%ADD20R,1.900000X1.000000*%
%ADD21R,1.100000X1.100000*%
G04 APERTURE END LIST*
D10*
X81225400Y-67662100D03*
X81225400Y-69487100D03*
X83225400Y-67662100D03*
X83225400Y-69487100D03*
X85425400Y-67662100D03*
X85425400Y-69487100D03*
X87425400Y-69487100D03*
X87425400Y-67662100D03*
X91425400Y-69487100D03*
X91425400Y-67662100D03*
X89425400Y-69487100D03*
X89425400Y-67662100D03*
D11*
X79162900Y-69524600D03*
X79162900Y-67624600D03*
X76887900Y-67624600D03*
X76887900Y-68574600D03*
X76887900Y-69524600D03*
D12*
X128087900Y-75724600D03*
X128087900Y-73824600D03*
X129962900Y-74774600D03*
D13*
X112382300Y-45048090D03*
X112382300Y-46923090D03*
X110096300Y-43953590D03*
X110096300Y-45828590D03*
D14*
X107731800Y-46493590D03*
X105856800Y-46493590D03*
D13*
X110096300Y-31156590D03*
X110096300Y-33031590D03*
D14*
X107653300Y-33793590D03*
X105778300Y-33793590D03*
D15*
X100761800Y-38759290D03*
X101396800Y-38759290D03*
X102031800Y-38759290D03*
X102666800Y-38759290D03*
X103301800Y-38759290D03*
X103936800Y-38759290D03*
X104571800Y-38759290D03*
X105206800Y-38759290D03*
X105841800Y-38759290D03*
X106476800Y-38759290D03*
X107111800Y-38759290D03*
X107746800Y-38759290D03*
X107746800Y-44067890D03*
X107111800Y-44067890D03*
X106476800Y-44067890D03*
X105841800Y-44067890D03*
X105206800Y-44067890D03*
X104571800Y-44067890D03*
X103936800Y-44067890D03*
X103301800Y-44067890D03*
X102666800Y-44067890D03*
X102031800Y-44067890D03*
X101396800Y-44067890D03*
X100761800Y-44067890D03*
D13*
X112382300Y-32269590D03*
X112382300Y-34144590D03*
D16*
X125294600Y-70087100D03*
X125294600Y-71962100D03*
X117025400Y-71037100D03*
X117025400Y-72912100D03*
X122025400Y-77037100D03*
X122025400Y-78912100D03*
D13*
X122025400Y-73637100D03*
X122025400Y-75512100D03*
X127580600Y-71962100D03*
X127580600Y-70087100D03*
D17*
X129425400Y-71974600D03*
X129425400Y-70074600D03*
X131425400Y-71024600D03*
X123825400Y-75524600D03*
X123825400Y-73624600D03*
X125825400Y-74574600D03*
D18*
X116887900Y-79974600D03*
X118762900Y-79974600D03*
D19*
X120250400Y-71887100D03*
X120250400Y-70062100D03*
D20*
X139777200Y-31812379D03*
X143077200Y-34352379D03*
X139777200Y-36892379D03*
X143077200Y-39432379D03*
X139777200Y-41972379D03*
X143077200Y-44512379D03*
X139777200Y-47052379D03*
X143077200Y-49592379D03*
X139777200Y-52132379D03*
X143077200Y-54672379D03*
D21*
X138425400Y-65774600D03*
X135625400Y-65774600D03*
D15*
X100732900Y-26120300D03*
X101367900Y-26120300D03*
X102002900Y-26120300D03*
X102637900Y-26120300D03*
X103272900Y-26120300D03*
X103907900Y-26120300D03*
X104542900Y-26120300D03*
X105177900Y-26120300D03*
X105812900Y-26120300D03*
X106447900Y-26120300D03*
X107082900Y-26120300D03*
X107717900Y-26120300D03*
X107717900Y-31428900D03*
X107082900Y-31428900D03*
X106447900Y-31428900D03*
X105812900Y-31428900D03*
X105177900Y-31428900D03*
X104542900Y-31428900D03*
X103907900Y-31428900D03*
X103272900Y-31428900D03*
X102637900Y-31428900D03*
X102002900Y-31428900D03*
X101367900Y-31428900D03*
X100732900Y-31428900D03*
D10*
X122625400Y-71912100D03*
X122625400Y-70087100D03*
D20*
X65101200Y-31812379D03*
X68401200Y-34352379D03*
X65101200Y-36892379D03*
X68401200Y-39432379D03*
X65101200Y-41972379D03*
X68401200Y-44512379D03*
X65101200Y-47052379D03*
X68401200Y-49592379D03*
X65101200Y-52132379D03*
X68401200Y-54672379D03*
D19*
X117025400Y-77887100D03*
X117025400Y-76062100D03*
M02*
