M48
; DRILL file {KiCad (5.99.0-8123-gb2cbd99365)} date Saturday, February 13, 2021 at 07:05:36 PM
; FORMAT={-:-/ absolute / inch / decimal}
; #@! TF.CreationDate,2021-02-13T19:05:36-05:00
; #@! TF.GenerationSoftware,Kicad,Pcbnew,(5.99.0-8123-gb2cbd99365)
; #@! TF.FileFunction,Plated,1,2,PTH
FMAT,2
INCH
T1C0.0138
T2C0.0157
T3C0.0394
T4C0.0402
T5C0.0591
T6C0.0709
T7C0.1673
T8C0.1673
%
G90
G05
T1
X2.9365Y-1.375
X2.9965Y-1.585
X3.0965Y-1.465
X3.0965Y-2.01
X3.1365Y-1.555
X3.1565Y-1.91
X3.1865Y-1.445
X3.1965Y-1.525
X3.2065Y-1.91
X3.2865Y-1.86
X3.3465Y-1.96
X3.3965Y-1.505
X3.4565Y-1.345
X3.4765Y-1.97
X3.4858Y-1.405
X3.4867Y-2.0072
X3.4915Y-1.915
X3.5865Y-2.02
X3.5965Y-1.505
X3.6965Y-1.505
X3.7665Y-1.655
X3.7665Y-1.765
X3.7965Y-2.19
X3.8138Y-1.6866
X3.8165Y-1.315
X3.8565Y-2.1
X3.8615Y-3.647
X3.8765Y-1.61
X3.9204Y-1.92
X3.945Y-1.47
X3.948Y-1.846
X3.9563Y-2.0932
X3.9765Y-3.347
X3.9765Y-3.422
X3.9836Y-1.7462
X3.9865Y-1.6373
X3.9865Y-2.17
X3.99Y-1.46
X4.0063Y-1.9928
X4.0065Y-3.687
X4.0165Y-1.285
X4.0165Y-2.1972
X4.0265Y-1.665
X4.0465Y-2.0
X4.0565Y-2.76
X4.0677Y-1.6858
X4.0765Y-1.245
X4.0765Y-1.98
X4.0765Y-2.2
X4.0965Y-3.417
X4.0968Y-1.9072
X4.105Y-1.505
X4.1161Y-1.9728
X4.1165Y-2.01
X4.1369Y-1.5146
X4.1498Y-1.2732
X4.1515Y-3.067
X4.1565Y-1.62
X4.1665Y-1.485
X4.1684Y-1.7928
X4.1742Y-1.9132
X4.1915Y-3.417
X4.1949Y-1.261
X4.2022Y-1.4173
X4.2265Y-1.92
X4.2268Y-1.81
X4.2365Y-2.13
X4.2465Y-1.265
X4.2465Y-1.62
X4.2565Y-1.465
X4.2675Y-1.9146
X4.2767Y-1.9728
X4.2915Y-2.9828
X4.3065Y-1.7928
X4.3066Y-1.8601
X4.3165Y-1.295
X4.3165Y-2.0268
X4.3465Y-1.8
X4.3915Y-3.662
X4.4365Y-3.707
X4.4465Y-3.5418
X4.5165Y-2.16
X4.5265Y-1.495
X4.5265Y-1.61
X4.5565Y-2.0
X4.5665Y-1.91
X4.5665Y-2.04
X4.5692Y-1.3372
X4.61Y-2.88
X4.612Y-3.4772
X4.6265Y-1.5073
X4.6265Y-1.94
X4.6515Y-3.202
X4.6665Y-1.92
X4.6821Y-1.4122
X4.7665Y-1.465
X4.7665Y-1.88
X4.8665Y-1.5727
X4.9765Y-3.622
X5.0265Y-1.455
X5.0665Y-1.9
X5.0689Y-2.0698
X5.0865Y-1.35
X5.1665Y-1.545
X5.1765Y-2.0
X5.2665Y-1.425
X5.2765Y-1.88
X5.33Y-3.51
X5.46Y-3.63
X5.465Y-1.815
T2
X2.62Y-2.195
X2.66Y-1.69
X2.67Y-2.09
X2.68Y-1.88
X2.73Y-1.93
X2.73Y-2.14
X2.79Y-1.78
X2.8565Y-3.132
X2.985Y-2.305
X3.03Y-2.0757
X3.0815Y-3.032
X3.0815Y-3.4957
X3.3315Y-2.807
X3.3315Y-3.732
X3.4315Y-3.307
X3.56Y-2.3
X3.6065Y-3.532
X3.71Y-2.99
X3.83Y-1.774
X3.91Y-2.965
X4.0278Y-2.89
X4.0565Y-5.432
X4.074Y-1.78
X4.1015Y-3.547
X4.15Y-2.3
X4.1615Y-3.512
X4.57Y-3.02
X4.715Y-2.3
X4.955Y-3.775
X5.01Y-2.98
X5.02Y-3.66
X5.02Y-3.945
X5.055Y-3.7
X5.06Y-4.135
X5.12Y-2.46
X5.1565Y-2.807
X5.21Y-2.76
X5.27Y-2.3
X5.405Y-2.21
X5.4165Y-4.187
X5.44Y-3.46
X5.45Y-2.24
X5.48Y-3.4
X5.48Y-3.51
X5.51Y-2.375
X5.515Y-1.63
X5.55Y-1.77
X5.605Y-1.935
X5.63Y-2.14
X5.67Y-1.935
T3
X2.66Y-2.707
X2.66Y-2.807
X2.66Y-2.907
X2.66Y-3.007
X2.66Y-3.107
X2.66Y-3.207
X2.66Y-3.307
X2.66Y-3.407
X2.66Y-3.507
X2.9915Y-1.265
X2.9915Y-1.665
X2.9915Y-1.78
X2.9915Y-2.18
X3.0915Y-1.265
X3.0915Y-1.665
X3.0915Y-1.78
X3.0915Y-2.18
X3.1915Y-1.265
X3.1915Y-1.665
X3.1915Y-1.78
X3.1915Y-2.18
X3.2915Y-1.265
X3.2915Y-1.665
X3.2915Y-1.78
X3.2915Y-2.18
X3.3915Y-1.665
X3.3915Y-2.18
X3.4915Y-1.265
X3.4915Y-1.665
X3.4915Y-1.78
X3.4915Y-2.18
X3.5915Y-1.665
X3.5915Y-2.18
X3.6915Y-1.265
X3.6915Y-1.665
X3.6915Y-1.78
X3.6915Y-2.18
X4.5715Y-1.265
X4.5715Y-1.665
X4.5715Y-1.78
X4.5715Y-2.18
X4.6715Y-1.265
X4.6715Y-1.665
X4.6715Y-1.78
X4.6715Y-2.18
X4.7715Y-1.265
X4.7715Y-1.665
X4.7715Y-1.78
X4.7715Y-2.18
X4.8715Y-1.265
X4.8715Y-1.665
X4.8715Y-1.78
X4.8715Y-2.18
X4.9715Y-1.665
X4.9715Y-2.18
X5.0715Y-1.265
X5.0715Y-1.665
X5.0715Y-1.78
X5.0715Y-2.18
X5.1715Y-1.665
X5.1715Y-2.18
X5.2715Y-1.265
X5.2715Y-1.665
X5.2715Y-1.78
X5.2715Y-2.18
X5.6Y-2.707
X5.6Y-2.807
X5.6Y-2.907
X5.6Y-3.007
X5.6Y-3.107
X5.6Y-3.207
X5.6Y-3.307
X5.6Y-3.407
X5.6Y-3.507
T4
X5.0774Y-2.9176
X5.0774Y-3.4176
T5
X2.86Y-3.96
X2.86Y-4.71
X2.86Y-5.46
X2.86Y-6.21
X3.11Y-3.86
X3.11Y-4.61
X3.11Y-5.36
X3.11Y-6.11
X3.61Y-3.96
X3.61Y-4.71
X3.61Y-5.46
X3.61Y-6.21
X3.86Y-3.86
X3.86Y-4.61
X3.86Y-5.36
X3.86Y-6.11
X4.36Y-3.96
X4.36Y-4.71
X4.36Y-5.46
X4.36Y-6.21
X4.61Y-3.86
X4.61Y-4.61
X4.61Y-5.36
X4.61Y-6.11
X5.11Y-4.71
X5.11Y-5.46
X5.11Y-6.21
X5.197Y-3.749
X5.197Y-4.371
X5.323Y-3.749
X5.323Y-4.371
X5.36Y-4.61
X5.36Y-5.36
X5.36Y-6.11
T6
X5.26Y-3.875
X5.26Y-4.06
X5.26Y-4.245
T7
X5.3765Y-2.832
T8
X2.7065Y-6.507
X2.8865Y-2.832
X5.5565Y-6.507
T0
M30
