G04 #@! TF.GenerationSoftware,KiCad,Pcbnew,(5.99.0-8123-gb2cbd99365)*
G04 #@! TF.CreationDate,2021-02-01T23:00:55-05:00*
G04 #@! TF.ProjectId,unitron,756e6974-726f-46e2-9e6b-696361645f70,1.4*
G04 #@! TF.SameCoordinates,Original*
G04 #@! TF.FileFunction,Paste,Bot*
G04 #@! TF.FilePolarity,Positive*
%FSLAX46Y46*%
G04 Gerber Fmt 4.6, Leading zero omitted, Abs format (unit mm)*
G04 Created by KiCad (PCBNEW (5.99.0-8123-gb2cbd99365)) date 2021-02-01 23:00:55*
%MOMM*%
%LPD*%
G01*
G04 APERTURE LIST*
G04 Aperture macros list*
%AMRoundRect*
0 Rectangle with rounded corners*
0 $1 Rounding radius*
0 $2 $3 $4 $5 $6 $7 $8 $9 X,Y pos of 4 corners*
0 Add a 4 corners polygon primitive as box body*
4,1,4,$2,$3,$4,$5,$6,$7,$8,$9,$2,$3,0*
0 Add four circle primitives for the rounded corners*
1,1,$1+$1,$2,$3,0*
1,1,$1+$1,$4,$5,0*
1,1,$1+$1,$6,$7,0*
1,1,$1+$1,$8,$9,0*
0 Add four rect primitives between the rounded corners*
20,1,$1+$1,$2,$3,$4,$5,0*
20,1,$1+$1,$4,$5,$6,$7,0*
20,1,$1+$1,$6,$7,$8,$9,0*
20,1,$1+$1,$8,$9,$2,$3,0*%
G04 Aperture macros list end*
%ADD10R,0.550000X1.600000*%
%ADD11R,1.600000X0.550000*%
%ADD12RoundRect,0.243750X0.456250X-0.243750X0.456250X0.243750X-0.456250X0.243750X-0.456250X-0.243750X0*%
%ADD13R,0.900000X0.800000*%
%ADD14R,0.800000X0.900000*%
%ADD15RoundRect,0.243750X-0.243750X-0.456250X0.243750X-0.456250X0.243750X0.456250X-0.243750X0.456250X0*%
%ADD16RoundRect,0.243750X0.243750X0.456250X-0.243750X0.456250X-0.243750X-0.456250X0.243750X-0.456250X0*%
%ADD17RoundRect,0.150000X-0.150000X0.587500X-0.150000X-0.587500X0.150000X-0.587500X0.150000X0.587500X0*%
%ADD18RoundRect,0.243750X-0.456250X0.243750X-0.456250X-0.243750X0.456250X-0.243750X0.456250X0.243750X0*%
%ADD19R,1.600000X1.400000*%
%ADD20R,0.410000X1.600000*%
G04 APERTURE END LIST*
D10*
X185172000Y-74394400D03*
X184372000Y-74394400D03*
X183572000Y-74394400D03*
X182772000Y-74394400D03*
X181972000Y-74394400D03*
X181172000Y-74394400D03*
X180372000Y-74394400D03*
X179572000Y-74394400D03*
D11*
X178122000Y-72944400D03*
X178122000Y-72144400D03*
X178122000Y-71344400D03*
X178122000Y-70544400D03*
X178122000Y-69744400D03*
X178122000Y-68944400D03*
X178122000Y-68144400D03*
X178122000Y-67344400D03*
D10*
X179572000Y-65894400D03*
X180372000Y-65894400D03*
X181172000Y-65894400D03*
X181972000Y-65894400D03*
X182772000Y-65894400D03*
X183572000Y-65894400D03*
X184372000Y-65894400D03*
X185172000Y-65894400D03*
D11*
X186622000Y-67344400D03*
X186622000Y-68144400D03*
X186622000Y-68944400D03*
X186622000Y-69744400D03*
X186622000Y-70544400D03*
X186622000Y-71344400D03*
X186622000Y-72144400D03*
X186622000Y-72944400D03*
D12*
X182118000Y-62953900D03*
X182118000Y-61078900D03*
X184404000Y-62953900D03*
X184404000Y-61078900D03*
D13*
X201549000Y-67310000D03*
X201549000Y-65410000D03*
X203549000Y-66360000D03*
D14*
X211648000Y-72787000D03*
X213548000Y-72787000D03*
X212598000Y-74787000D03*
D15*
X190324500Y-72341500D03*
X192199500Y-72341500D03*
D16*
X192199500Y-69293500D03*
X190324500Y-69293500D03*
D15*
X190324500Y-76494400D03*
X192199500Y-76494400D03*
D16*
X213535500Y-69977000D03*
X211660500Y-69977000D03*
D17*
X201700600Y-69740500D03*
X203600600Y-69740500D03*
X202650600Y-71615500D03*
D18*
X195310000Y-65422500D03*
X195310000Y-67297500D03*
D12*
X198755000Y-67231500D03*
X198755000Y-65356500D03*
D19*
X204506000Y-86678000D03*
X204506000Y-94678000D03*
X209006000Y-86678000D03*
X209006000Y-94678000D03*
D18*
X175006000Y-73016900D03*
X175006000Y-74891900D03*
D15*
X211660500Y-66675000D03*
X213535500Y-66675000D03*
D12*
X189738000Y-65326500D03*
X189738000Y-63451500D03*
D18*
X190500000Y-38481000D03*
X190500000Y-40356000D03*
D20*
X178879500Y-44970700D03*
X179514500Y-44970700D03*
X180149500Y-44970700D03*
X180784500Y-44970700D03*
X181419500Y-44970700D03*
X182054500Y-44970700D03*
X182689500Y-44970700D03*
X183324500Y-44970700D03*
X183959500Y-44970700D03*
X184594500Y-44970700D03*
X185229500Y-44970700D03*
X185864500Y-44970700D03*
X185864500Y-50279300D03*
X185229500Y-50279300D03*
X184594500Y-50279300D03*
X183959500Y-50279300D03*
X183324500Y-50279300D03*
X182689500Y-50279300D03*
X182054500Y-50279300D03*
X181419500Y-50279300D03*
X180784500Y-50279300D03*
X180149500Y-50279300D03*
X179514500Y-50279300D03*
X178879500Y-50279300D03*
D16*
X185771000Y-40005000D03*
X183896000Y-40005000D03*
D18*
X188214000Y-37368000D03*
X188214000Y-39243000D03*
D20*
X178879500Y-32270700D03*
X179514500Y-32270700D03*
X180149500Y-32270700D03*
X180784500Y-32270700D03*
X181419500Y-32270700D03*
X182054500Y-32270700D03*
X182689500Y-32270700D03*
X183324500Y-32270700D03*
X183959500Y-32270700D03*
X184594500Y-32270700D03*
X185229500Y-32270700D03*
X185864500Y-32270700D03*
X185864500Y-37579300D03*
X185229500Y-37579300D03*
X184594500Y-37579300D03*
X183959500Y-37579300D03*
X183324500Y-37579300D03*
X182689500Y-37579300D03*
X182054500Y-37579300D03*
X181419500Y-37579300D03*
X180784500Y-37579300D03*
X180149500Y-37579300D03*
X179514500Y-37579300D03*
X178879500Y-37579300D03*
D16*
X185849500Y-52705000D03*
X183974500Y-52705000D03*
D18*
X188214000Y-50165000D03*
X188214000Y-52040000D03*
X190500000Y-51259500D03*
X190500000Y-53134500D03*
M02*
