G04 #@! TF.GenerationSoftware,KiCad,Pcbnew,(5.99.0-9142-g8663153ef8)*
G04 #@! TF.CreationDate,2021-03-08T23:27:10-05:00*
G04 #@! TF.ProjectId,unitron,756e6974-726f-46e2-9e6b-696361645f70,1.6*
G04 #@! TF.SameCoordinates,Original*
G04 #@! TF.FileFunction,Legend,Top*
G04 #@! TF.FilePolarity,Positive*
%FSLAX46Y46*%
G04 Gerber Fmt 4.6, Leading zero omitted, Abs format (unit mm)*
G04 Created by KiCad (PCBNEW (5.99.0-9142-g8663153ef8)) date 2021-03-08 23:27:10*
%MOMM*%
%LPD*%
G01*
G04 APERTURE LIST*
%ADD10C,0.500000*%
%ADD11C,0.150000*%
%ADD12C,0.120000*%
G04 APERTURE END LIST*
D10*
X75631847Y-85122523D02*
X73608038Y-85122523D01*
X73369942Y-85241571D01*
X73250895Y-85360619D01*
X73131847Y-85598714D01*
X73131847Y-86074904D01*
X73250895Y-86313000D01*
X73369942Y-86432047D01*
X73608038Y-86551095D01*
X75631847Y-86551095D01*
X74798514Y-87741571D02*
X73131847Y-87741571D01*
X74560419Y-87741571D02*
X74679466Y-87860619D01*
X74798514Y-88098714D01*
X74798514Y-88455857D01*
X74679466Y-88693952D01*
X74441371Y-88813000D01*
X73131847Y-88813000D01*
X73131847Y-90003476D02*
X74798514Y-90003476D01*
X75631847Y-90003476D02*
X75512800Y-89884428D01*
X75393752Y-90003476D01*
X75512800Y-90122523D01*
X75631847Y-90003476D01*
X75393752Y-90003476D01*
X74798514Y-90836809D02*
X74798514Y-91789190D01*
X75631847Y-91193952D02*
X73488990Y-91193952D01*
X73250895Y-91313000D01*
X73131847Y-91551095D01*
X73131847Y-91789190D01*
X73131847Y-92622523D02*
X74798514Y-92622523D01*
X74322323Y-92622523D02*
X74560419Y-92741571D01*
X74679466Y-92860619D01*
X74798514Y-93098714D01*
X74798514Y-93336809D01*
X73131847Y-94527285D02*
X73250895Y-94289190D01*
X73369942Y-94170142D01*
X73608038Y-94051095D01*
X74322323Y-94051095D01*
X74560419Y-94170142D01*
X74679466Y-94289190D01*
X74798514Y-94527285D01*
X74798514Y-94884428D01*
X74679466Y-95122523D01*
X74560419Y-95241571D01*
X74322323Y-95360619D01*
X73608038Y-95360619D01*
X73369942Y-95241571D01*
X73250895Y-95122523D01*
X73131847Y-94884428D01*
X73131847Y-94527285D01*
X74798514Y-96432047D02*
X73131847Y-96432047D01*
X74560419Y-96432047D02*
X74679466Y-96551095D01*
X74798514Y-96789190D01*
X74798514Y-97146333D01*
X74679466Y-97384428D01*
X74441371Y-97503476D01*
X73131847Y-97503476D01*
X70773514Y-87741571D02*
X69106847Y-88336809D01*
X70773514Y-88932047D01*
X69106847Y-91193952D02*
X69106847Y-89765380D01*
X69106847Y-90479666D02*
X71606847Y-90479666D01*
X71249704Y-90241571D01*
X71011609Y-90003476D01*
X70892561Y-89765380D01*
X69344942Y-92265380D02*
X69225895Y-92384428D01*
X69106847Y-92265380D01*
X69225895Y-92146333D01*
X69344942Y-92265380D01*
X69106847Y-92265380D01*
X71606847Y-94527285D02*
X71606847Y-94051095D01*
X71487800Y-93813000D01*
X71368752Y-93693952D01*
X71011609Y-93455857D01*
X70535419Y-93336809D01*
X69583038Y-93336809D01*
X69344942Y-93455857D01*
X69225895Y-93574904D01*
X69106847Y-93813000D01*
X69106847Y-94289190D01*
X69225895Y-94527285D01*
X69344942Y-94646333D01*
X69583038Y-94765380D01*
X70178276Y-94765380D01*
X70416371Y-94646333D01*
X70535419Y-94527285D01*
X70654466Y-94289190D01*
X70654466Y-93813000D01*
X70535419Y-93574904D01*
X70416371Y-93455857D01*
X70178276Y-93336809D01*
D11*
X141093866Y-70121980D02*
X141093866Y-70836266D01*
X141046247Y-70979123D01*
X140951009Y-71074361D01*
X140808152Y-71121980D01*
X140712914Y-71121980D01*
X141998628Y-70455314D02*
X141998628Y-71121980D01*
X141760533Y-70074361D02*
X141522438Y-70788647D01*
X142141485Y-70788647D01*
X66417866Y-70121980D02*
X66417866Y-70836266D01*
X66370247Y-70979123D01*
X66275009Y-71074361D01*
X66132152Y-71121980D01*
X66036914Y-71121980D01*
X66846438Y-70217219D02*
X66894057Y-70169600D01*
X66989295Y-70121980D01*
X67227390Y-70121980D01*
X67322628Y-70169600D01*
X67370247Y-70217219D01*
X67417866Y-70312457D01*
X67417866Y-70407695D01*
X67370247Y-70550552D01*
X66798819Y-71121980D01*
X67417866Y-71121980D01*
X74879295Y-142085961D02*
X75022152Y-142133580D01*
X75260247Y-142133580D01*
X75355485Y-142085961D01*
X75403104Y-142038342D01*
X75450723Y-141943104D01*
X75450723Y-141847866D01*
X75403104Y-141752628D01*
X75355485Y-141705009D01*
X75260247Y-141657390D01*
X75069771Y-141609771D01*
X74974533Y-141562152D01*
X74926914Y-141514533D01*
X74879295Y-141419295D01*
X74879295Y-141324057D01*
X74926914Y-141228819D01*
X74974533Y-141181200D01*
X75069771Y-141133580D01*
X75307866Y-141133580D01*
X75450723Y-141181200D01*
X76022152Y-141562152D02*
X75926914Y-141514533D01*
X75879295Y-141466914D01*
X75831676Y-141371676D01*
X75831676Y-141324057D01*
X75879295Y-141228819D01*
X75926914Y-141181200D01*
X76022152Y-141133580D01*
X76212628Y-141133580D01*
X76307866Y-141181200D01*
X76355485Y-141228819D01*
X76403104Y-141324057D01*
X76403104Y-141371676D01*
X76355485Y-141466914D01*
X76307866Y-141514533D01*
X76212628Y-141562152D01*
X76022152Y-141562152D01*
X75926914Y-141609771D01*
X75879295Y-141657390D01*
X75831676Y-141752628D01*
X75831676Y-141943104D01*
X75879295Y-142038342D01*
X75926914Y-142085961D01*
X76022152Y-142133580D01*
X76212628Y-142133580D01*
X76307866Y-142085961D01*
X76355485Y-142038342D01*
X76403104Y-141943104D01*
X76403104Y-141752628D01*
X76355485Y-141657390D01*
X76307866Y-141609771D01*
X76212628Y-141562152D01*
X93929295Y-142085961D02*
X94072152Y-142133580D01*
X94310247Y-142133580D01*
X94405485Y-142085961D01*
X94453104Y-142038342D01*
X94500723Y-141943104D01*
X94500723Y-141847866D01*
X94453104Y-141752628D01*
X94405485Y-141705009D01*
X94310247Y-141657390D01*
X94119771Y-141609771D01*
X94024533Y-141562152D01*
X93976914Y-141514533D01*
X93929295Y-141419295D01*
X93929295Y-141324057D01*
X93976914Y-141228819D01*
X94024533Y-141181200D01*
X94119771Y-141133580D01*
X94357866Y-141133580D01*
X94500723Y-141181200D01*
X94976914Y-142133580D02*
X95167390Y-142133580D01*
X95262628Y-142085961D01*
X95310247Y-142038342D01*
X95405485Y-141895485D01*
X95453104Y-141705009D01*
X95453104Y-141324057D01*
X95405485Y-141228819D01*
X95357866Y-141181200D01*
X95262628Y-141133580D01*
X95072152Y-141133580D01*
X94976914Y-141181200D01*
X94929295Y-141228819D01*
X94881676Y-141324057D01*
X94881676Y-141562152D01*
X94929295Y-141657390D01*
X94976914Y-141705009D01*
X95072152Y-141752628D01*
X95262628Y-141752628D01*
X95357866Y-141705009D01*
X95405485Y-141657390D01*
X95453104Y-141562152D01*
X74403104Y-103985961D02*
X74545961Y-104033580D01*
X74784057Y-104033580D01*
X74879295Y-103985961D01*
X74926914Y-103938342D01*
X74974533Y-103843104D01*
X74974533Y-103747866D01*
X74926914Y-103652628D01*
X74879295Y-103605009D01*
X74784057Y-103557390D01*
X74593580Y-103509771D01*
X74498342Y-103462152D01*
X74450723Y-103414533D01*
X74403104Y-103319295D01*
X74403104Y-103224057D01*
X74450723Y-103128819D01*
X74498342Y-103081200D01*
X74593580Y-103033580D01*
X74831676Y-103033580D01*
X74974533Y-103081200D01*
X75926914Y-104033580D02*
X75355485Y-104033580D01*
X75641200Y-104033580D02*
X75641200Y-103033580D01*
X75545961Y-103176438D01*
X75450723Y-103271676D01*
X75355485Y-103319295D01*
X76879295Y-104033580D02*
X76307866Y-104033580D01*
X76593580Y-104033580D02*
X76593580Y-103033580D01*
X76498342Y-103176438D01*
X76403104Y-103271676D01*
X76307866Y-103319295D01*
X74403104Y-123035961D02*
X74545961Y-123083580D01*
X74784057Y-123083580D01*
X74879295Y-123035961D01*
X74926914Y-122988342D01*
X74974533Y-122893104D01*
X74974533Y-122797866D01*
X74926914Y-122702628D01*
X74879295Y-122655009D01*
X74784057Y-122607390D01*
X74593580Y-122559771D01*
X74498342Y-122512152D01*
X74450723Y-122464533D01*
X74403104Y-122369295D01*
X74403104Y-122274057D01*
X74450723Y-122178819D01*
X74498342Y-122131200D01*
X74593580Y-122083580D01*
X74831676Y-122083580D01*
X74974533Y-122131200D01*
X75926914Y-123083580D02*
X75355485Y-123083580D01*
X75641200Y-123083580D02*
X75641200Y-122083580D01*
X75545961Y-122226438D01*
X75450723Y-122321676D01*
X75355485Y-122369295D01*
X76307866Y-122178819D02*
X76355485Y-122131200D01*
X76450723Y-122083580D01*
X76688819Y-122083580D01*
X76784057Y-122131200D01*
X76831676Y-122178819D01*
X76879295Y-122274057D01*
X76879295Y-122369295D01*
X76831676Y-122512152D01*
X76260247Y-123083580D01*
X76879295Y-123083580D01*
X93453104Y-123035961D02*
X93595961Y-123083580D01*
X93834057Y-123083580D01*
X93929295Y-123035961D01*
X93976914Y-122988342D01*
X94024533Y-122893104D01*
X94024533Y-122797866D01*
X93976914Y-122702628D01*
X93929295Y-122655009D01*
X93834057Y-122607390D01*
X93643580Y-122559771D01*
X93548342Y-122512152D01*
X93500723Y-122464533D01*
X93453104Y-122369295D01*
X93453104Y-122274057D01*
X93500723Y-122178819D01*
X93548342Y-122131200D01*
X93643580Y-122083580D01*
X93881676Y-122083580D01*
X94024533Y-122131200D01*
X94976914Y-123083580D02*
X94405485Y-123083580D01*
X94691200Y-123083580D02*
X94691200Y-122083580D01*
X94595961Y-122226438D01*
X94500723Y-122321676D01*
X94405485Y-122369295D01*
X95310247Y-122083580D02*
X95929295Y-122083580D01*
X95595961Y-122464533D01*
X95738819Y-122464533D01*
X95834057Y-122512152D01*
X95881676Y-122559771D01*
X95929295Y-122655009D01*
X95929295Y-122893104D01*
X95881676Y-122988342D01*
X95834057Y-123035961D01*
X95738819Y-123083580D01*
X95453104Y-123083580D01*
X95357866Y-123035961D01*
X95310247Y-122988342D01*
X93453104Y-103985961D02*
X93595961Y-104033580D01*
X93834057Y-104033580D01*
X93929295Y-103985961D01*
X93976914Y-103938342D01*
X94024533Y-103843104D01*
X94024533Y-103747866D01*
X93976914Y-103652628D01*
X93929295Y-103605009D01*
X93834057Y-103557390D01*
X93643580Y-103509771D01*
X93548342Y-103462152D01*
X93500723Y-103414533D01*
X93453104Y-103319295D01*
X93453104Y-103224057D01*
X93500723Y-103128819D01*
X93548342Y-103081200D01*
X93643580Y-103033580D01*
X93881676Y-103033580D01*
X94024533Y-103081200D01*
X94976914Y-104033580D02*
X94405485Y-104033580D01*
X94691200Y-104033580D02*
X94691200Y-103033580D01*
X94595961Y-103176438D01*
X94500723Y-103271676D01*
X94405485Y-103319295D01*
X95881676Y-103033580D02*
X95405485Y-103033580D01*
X95357866Y-103509771D01*
X95405485Y-103462152D01*
X95500723Y-103414533D01*
X95738819Y-103414533D01*
X95834057Y-103462152D01*
X95881676Y-103509771D01*
X95929295Y-103605009D01*
X95929295Y-103843104D01*
X95881676Y-103938342D01*
X95834057Y-103985961D01*
X95738819Y-104033580D01*
X95500723Y-104033580D01*
X95405485Y-103985961D01*
X95357866Y-103938342D01*
X112979295Y-103985961D02*
X113122152Y-104033580D01*
X113360247Y-104033580D01*
X113455485Y-103985961D01*
X113503104Y-103938342D01*
X113550723Y-103843104D01*
X113550723Y-103747866D01*
X113503104Y-103652628D01*
X113455485Y-103605009D01*
X113360247Y-103557390D01*
X113169771Y-103509771D01*
X113074533Y-103462152D01*
X113026914Y-103414533D01*
X112979295Y-103319295D01*
X112979295Y-103224057D01*
X113026914Y-103128819D01*
X113074533Y-103081200D01*
X113169771Y-103033580D01*
X113407866Y-103033580D01*
X113550723Y-103081200D01*
X113931676Y-103128819D02*
X113979295Y-103081200D01*
X114074533Y-103033580D01*
X114312628Y-103033580D01*
X114407866Y-103081200D01*
X114455485Y-103128819D01*
X114503104Y-103224057D01*
X114503104Y-103319295D01*
X114455485Y-103462152D01*
X113884057Y-104033580D01*
X114503104Y-104033580D01*
X112979295Y-161135961D02*
X113122152Y-161183580D01*
X113360247Y-161183580D01*
X113455485Y-161135961D01*
X113503104Y-161088342D01*
X113550723Y-160993104D01*
X113550723Y-160897866D01*
X113503104Y-160802628D01*
X113455485Y-160755009D01*
X113360247Y-160707390D01*
X113169771Y-160659771D01*
X113074533Y-160612152D01*
X113026914Y-160564533D01*
X112979295Y-160469295D01*
X112979295Y-160374057D01*
X113026914Y-160278819D01*
X113074533Y-160231200D01*
X113169771Y-160183580D01*
X113407866Y-160183580D01*
X113550723Y-160231200D01*
X113884057Y-160183580D02*
X114503104Y-160183580D01*
X114169771Y-160564533D01*
X114312628Y-160564533D01*
X114407866Y-160612152D01*
X114455485Y-160659771D01*
X114503104Y-160755009D01*
X114503104Y-160993104D01*
X114455485Y-161088342D01*
X114407866Y-161135961D01*
X114312628Y-161183580D01*
X114026914Y-161183580D01*
X113931676Y-161135961D01*
X113884057Y-161088342D01*
X123685395Y-41129397D02*
X123685395Y-41938921D01*
X123733014Y-42034159D01*
X123780633Y-42081778D01*
X123875871Y-42129397D01*
X124066347Y-42129397D01*
X124161585Y-42081778D01*
X124209204Y-42034159D01*
X124256823Y-41938921D01*
X124256823Y-41129397D01*
X124637776Y-41129397D02*
X125256823Y-41129397D01*
X124923490Y-41510350D01*
X125066347Y-41510350D01*
X125161585Y-41557969D01*
X125209204Y-41605588D01*
X125256823Y-41700826D01*
X125256823Y-41938921D01*
X125209204Y-42034159D01*
X125161585Y-42081778D01*
X125066347Y-42129397D01*
X124780633Y-42129397D01*
X124685395Y-42081778D01*
X124637776Y-42034159D01*
X83680395Y-41129397D02*
X83680395Y-41938921D01*
X83728014Y-42034159D01*
X83775633Y-42081778D01*
X83870871Y-42129397D01*
X84061347Y-42129397D01*
X84156585Y-42081778D01*
X84204204Y-42034159D01*
X84251823Y-41938921D01*
X84251823Y-41129397D01*
X84680395Y-41224636D02*
X84728014Y-41177017D01*
X84823252Y-41129397D01*
X85061347Y-41129397D01*
X85156585Y-41177017D01*
X85204204Y-41224636D01*
X85251823Y-41319874D01*
X85251823Y-41415112D01*
X85204204Y-41557969D01*
X84632776Y-42129397D01*
X85251823Y-42129397D01*
X74879295Y-161135961D02*
X75022152Y-161183580D01*
X75260247Y-161183580D01*
X75355485Y-161135961D01*
X75403104Y-161088342D01*
X75450723Y-160993104D01*
X75450723Y-160897866D01*
X75403104Y-160802628D01*
X75355485Y-160755009D01*
X75260247Y-160707390D01*
X75069771Y-160659771D01*
X74974533Y-160612152D01*
X74926914Y-160564533D01*
X74879295Y-160469295D01*
X74879295Y-160374057D01*
X74926914Y-160278819D01*
X74974533Y-160231200D01*
X75069771Y-160183580D01*
X75307866Y-160183580D01*
X75450723Y-160231200D01*
X76307866Y-160516914D02*
X76307866Y-161183580D01*
X76069771Y-160135961D02*
X75831676Y-160850247D01*
X76450723Y-160850247D01*
X123685395Y-27794397D02*
X123685395Y-28603921D01*
X123733014Y-28699159D01*
X123780633Y-28746778D01*
X123875871Y-28794397D01*
X124066347Y-28794397D01*
X124161585Y-28746778D01*
X124209204Y-28699159D01*
X124256823Y-28603921D01*
X124256823Y-27794397D01*
X124875871Y-28222969D02*
X124780633Y-28175350D01*
X124733014Y-28127731D01*
X124685395Y-28032493D01*
X124685395Y-27984874D01*
X124733014Y-27889636D01*
X124780633Y-27842017D01*
X124875871Y-27794397D01*
X125066347Y-27794397D01*
X125161585Y-27842017D01*
X125209204Y-27889636D01*
X125256823Y-27984874D01*
X125256823Y-28032493D01*
X125209204Y-28127731D01*
X125161585Y-28175350D01*
X125066347Y-28222969D01*
X124875871Y-28222969D01*
X124780633Y-28270588D01*
X124733014Y-28318207D01*
X124685395Y-28413445D01*
X124685395Y-28603921D01*
X124733014Y-28699159D01*
X124780633Y-28746778D01*
X124875871Y-28794397D01*
X125066347Y-28794397D01*
X125161585Y-28746778D01*
X125209204Y-28699159D01*
X125256823Y-28603921D01*
X125256823Y-28413445D01*
X125209204Y-28318207D01*
X125161585Y-28270588D01*
X125066347Y-28222969D01*
X83045395Y-27794397D02*
X83045395Y-28603921D01*
X83093014Y-28699159D01*
X83140633Y-28746778D01*
X83235871Y-28794397D01*
X83426347Y-28794397D01*
X83521585Y-28746778D01*
X83569204Y-28699159D01*
X83616823Y-28603921D01*
X83616823Y-27794397D01*
X83997776Y-27794397D02*
X84664442Y-27794397D01*
X84235871Y-28794397D01*
X112503104Y-142085961D02*
X112645961Y-142133580D01*
X112884057Y-142133580D01*
X112979295Y-142085961D01*
X113026914Y-142038342D01*
X113074533Y-141943104D01*
X113074533Y-141847866D01*
X113026914Y-141752628D01*
X112979295Y-141705009D01*
X112884057Y-141657390D01*
X112693580Y-141609771D01*
X112598342Y-141562152D01*
X112550723Y-141514533D01*
X112503104Y-141419295D01*
X112503104Y-141324057D01*
X112550723Y-141228819D01*
X112598342Y-141181200D01*
X112693580Y-141133580D01*
X112931676Y-141133580D01*
X113074533Y-141181200D01*
X114026914Y-142133580D02*
X113455485Y-142133580D01*
X113741200Y-142133580D02*
X113741200Y-141133580D01*
X113645961Y-141276438D01*
X113550723Y-141371676D01*
X113455485Y-141419295D01*
X114645961Y-141133580D02*
X114741200Y-141133580D01*
X114836438Y-141181200D01*
X114884057Y-141228819D01*
X114931676Y-141324057D01*
X114979295Y-141514533D01*
X114979295Y-141752628D01*
X114931676Y-141943104D01*
X114884057Y-142038342D01*
X114836438Y-142085961D01*
X114741200Y-142133580D01*
X114645961Y-142133580D01*
X114550723Y-142085961D01*
X114503104Y-142038342D01*
X114455485Y-141943104D01*
X114407866Y-141752628D01*
X114407866Y-141514533D01*
X114455485Y-141324057D01*
X114503104Y-141228819D01*
X114550723Y-141181200D01*
X114645961Y-141133580D01*
X126377866Y-100429961D02*
X126520723Y-100477580D01*
X126758819Y-100477580D01*
X126854057Y-100429961D01*
X126901676Y-100382342D01*
X126949295Y-100287104D01*
X126949295Y-100191866D01*
X126901676Y-100096628D01*
X126854057Y-100049009D01*
X126758819Y-100001390D01*
X126568342Y-99953771D01*
X126473104Y-99906152D01*
X126425485Y-99858533D01*
X126377866Y-99763295D01*
X126377866Y-99668057D01*
X126425485Y-99572819D01*
X126473104Y-99525200D01*
X126568342Y-99477580D01*
X126806438Y-99477580D01*
X126949295Y-99525200D01*
X127282628Y-99477580D02*
X127520723Y-100477580D01*
X127711200Y-99763295D01*
X127901676Y-100477580D01*
X128139771Y-99477580D01*
X129044533Y-100477580D02*
X128473104Y-100477580D01*
X128758819Y-100477580D02*
X128758819Y-99477580D01*
X128663580Y-99620438D01*
X128568342Y-99715676D01*
X128473104Y-99763295D01*
X112503104Y-123035961D02*
X112645961Y-123083580D01*
X112884057Y-123083580D01*
X112979295Y-123035961D01*
X113026914Y-122988342D01*
X113074533Y-122893104D01*
X113074533Y-122797866D01*
X113026914Y-122702628D01*
X112979295Y-122655009D01*
X112884057Y-122607390D01*
X112693580Y-122559771D01*
X112598342Y-122512152D01*
X112550723Y-122464533D01*
X112503104Y-122369295D01*
X112503104Y-122274057D01*
X112550723Y-122178819D01*
X112598342Y-122131200D01*
X112693580Y-122083580D01*
X112931676Y-122083580D01*
X113074533Y-122131200D01*
X114026914Y-123083580D02*
X113455485Y-123083580D01*
X113741200Y-123083580D02*
X113741200Y-122083580D01*
X113645961Y-122226438D01*
X113550723Y-122321676D01*
X113455485Y-122369295D01*
X114884057Y-122416914D02*
X114884057Y-123083580D01*
X114645961Y-122035961D02*
X114407866Y-122750247D01*
X115026914Y-122750247D01*
X93929295Y-161135961D02*
X94072152Y-161183580D01*
X94310247Y-161183580D01*
X94405485Y-161135961D01*
X94453104Y-161088342D01*
X94500723Y-160993104D01*
X94500723Y-160897866D01*
X94453104Y-160802628D01*
X94405485Y-160755009D01*
X94310247Y-160707390D01*
X94119771Y-160659771D01*
X94024533Y-160612152D01*
X93976914Y-160564533D01*
X93929295Y-160469295D01*
X93929295Y-160374057D01*
X93976914Y-160278819D01*
X94024533Y-160231200D01*
X94119771Y-160183580D01*
X94357866Y-160183580D01*
X94500723Y-160231200D01*
X94834057Y-160183580D02*
X95500723Y-160183580D01*
X95072152Y-161183580D01*
X134865395Y-154616980D02*
X134865395Y-153616980D01*
X134865395Y-154093171D02*
X135436823Y-154093171D01*
X135436823Y-154616980D02*
X135436823Y-153616980D01*
X135817776Y-153616980D02*
X136436823Y-153616980D01*
X136103490Y-153997933D01*
X136246347Y-153997933D01*
X136341585Y-154045552D01*
X136389204Y-154093171D01*
X136436823Y-154188409D01*
X136436823Y-154426504D01*
X136389204Y-154521742D01*
X136341585Y-154569361D01*
X136246347Y-154616980D01*
X135960633Y-154616980D01*
X135865395Y-154569361D01*
X135817776Y-154521742D01*
X132029295Y-142085961D02*
X132172152Y-142133580D01*
X132410247Y-142133580D01*
X132505485Y-142085961D01*
X132553104Y-142038342D01*
X132600723Y-141943104D01*
X132600723Y-141847866D01*
X132553104Y-141752628D01*
X132505485Y-141705009D01*
X132410247Y-141657390D01*
X132219771Y-141609771D01*
X132124533Y-141562152D01*
X132076914Y-141514533D01*
X132029295Y-141419295D01*
X132029295Y-141324057D01*
X132076914Y-141228819D01*
X132124533Y-141181200D01*
X132219771Y-141133580D01*
X132457866Y-141133580D01*
X132600723Y-141181200D01*
X133505485Y-141133580D02*
X133029295Y-141133580D01*
X132981676Y-141609771D01*
X133029295Y-141562152D01*
X133124533Y-141514533D01*
X133362628Y-141514533D01*
X133457866Y-141562152D01*
X133505485Y-141609771D01*
X133553104Y-141705009D01*
X133553104Y-141943104D01*
X133505485Y-142038342D01*
X133457866Y-142085961D01*
X133362628Y-142133580D01*
X133124533Y-142133580D01*
X133029295Y-142085961D01*
X132981676Y-142038342D01*
X132029295Y-161135961D02*
X132172152Y-161183580D01*
X132410247Y-161183580D01*
X132505485Y-161135961D01*
X132553104Y-161088342D01*
X132600723Y-160993104D01*
X132600723Y-160897866D01*
X132553104Y-160802628D01*
X132505485Y-160755009D01*
X132410247Y-160707390D01*
X132219771Y-160659771D01*
X132124533Y-160612152D01*
X132076914Y-160564533D01*
X132029295Y-160469295D01*
X132029295Y-160374057D01*
X132076914Y-160278819D01*
X132124533Y-160231200D01*
X132219771Y-160183580D01*
X132457866Y-160183580D01*
X132600723Y-160231200D01*
X133553104Y-161183580D02*
X132981676Y-161183580D01*
X133267390Y-161183580D02*
X133267390Y-160183580D01*
X133172152Y-160326438D01*
X133076914Y-160421676D01*
X132981676Y-160469295D01*
X127491485Y-102357571D02*
X127634342Y-102405190D01*
X127681961Y-102452809D01*
X127729580Y-102548047D01*
X127729580Y-102690904D01*
X127681961Y-102786142D01*
X127634342Y-102833761D01*
X127539104Y-102881380D01*
X127158152Y-102881380D01*
X127158152Y-101881380D01*
X127491485Y-101881380D01*
X127586723Y-101929000D01*
X127634342Y-101976619D01*
X127681961Y-102071857D01*
X127681961Y-102167095D01*
X127634342Y-102262333D01*
X127586723Y-102309952D01*
X127491485Y-102357571D01*
X127158152Y-102357571D01*
X128015295Y-101881380D02*
X128586723Y-101881380D01*
X128301009Y-102881380D02*
X128301009Y-101881380D01*
X129443866Y-102881380D02*
X128872438Y-102881380D01*
X129158152Y-102881380D02*
X129158152Y-101881380D01*
X129062914Y-102024238D01*
X128967676Y-102119476D01*
X128872438Y-102167095D01*
X131544342Y-94398285D02*
X133830057Y-94398285D01*
X132687200Y-95541142D02*
X132687200Y-93255428D01*
X132029295Y-123035961D02*
X132172152Y-123083580D01*
X132410247Y-123083580D01*
X132505485Y-123035961D01*
X132553104Y-122988342D01*
X132600723Y-122893104D01*
X132600723Y-122797866D01*
X132553104Y-122702628D01*
X132505485Y-122655009D01*
X132410247Y-122607390D01*
X132219771Y-122559771D01*
X132124533Y-122512152D01*
X132076914Y-122464533D01*
X132029295Y-122369295D01*
X132029295Y-122274057D01*
X132076914Y-122178819D01*
X132124533Y-122131200D01*
X132219771Y-122083580D01*
X132457866Y-122083580D01*
X132600723Y-122131200D01*
X133457866Y-122083580D02*
X133267390Y-122083580D01*
X133172152Y-122131200D01*
X133124533Y-122178819D01*
X133029295Y-122321676D01*
X132981676Y-122512152D01*
X132981676Y-122893104D01*
X133029295Y-122988342D01*
X133076914Y-123035961D01*
X133172152Y-123083580D01*
X133362628Y-123083580D01*
X133457866Y-123035961D01*
X133505485Y-122988342D01*
X133553104Y-122893104D01*
X133553104Y-122655009D01*
X133505485Y-122559771D01*
X133457866Y-122512152D01*
X133362628Y-122464533D01*
X133172152Y-122464533D01*
X133076914Y-122512152D01*
X133029295Y-122559771D01*
X132981676Y-122655009D01*
D12*
X140097200Y-71669600D02*
X141427200Y-71669600D01*
X140097200Y-72999600D02*
X140097200Y-71669600D01*
X140097200Y-74269600D02*
X142757200Y-74269600D01*
X142757200Y-74269600D02*
X142757200Y-97189600D01*
X140097200Y-74269600D02*
X140097200Y-97189600D01*
X140097200Y-97189600D02*
X142757200Y-97189600D01*
X65421200Y-71669600D02*
X66751200Y-71669600D01*
X65421200Y-72999600D02*
X65421200Y-71669600D01*
X65421200Y-74269600D02*
X68081200Y-74269600D01*
X68081200Y-74269600D02*
X68081200Y-97189600D01*
X65421200Y-74269600D02*
X65421200Y-97189600D01*
X65421200Y-97189600D02*
X68081200Y-97189600D01*
X82626200Y-156540200D02*
X68656200Y-156540200D01*
X68656200Y-156540200D02*
X68656200Y-142570200D01*
X82626200Y-142570200D02*
X82626200Y-156540200D01*
X68656200Y-142570200D02*
X82626200Y-142570200D01*
X87706200Y-142570200D02*
X101676200Y-142570200D01*
X87706200Y-156540200D02*
X87706200Y-142570200D01*
X101676200Y-142570200D02*
X101676200Y-156540200D01*
X101676200Y-156540200D02*
X87706200Y-156540200D01*
X68656200Y-118440200D02*
X68656200Y-104470200D01*
X68656200Y-104470200D02*
X82626200Y-104470200D01*
X82626200Y-118440200D02*
X68656200Y-118440200D01*
X82626200Y-104470200D02*
X82626200Y-118440200D01*
X82626200Y-137490200D02*
X68656200Y-137490200D01*
X68656200Y-123520200D02*
X82626200Y-123520200D01*
X68656200Y-137490200D02*
X68656200Y-123520200D01*
X82626200Y-123520200D02*
X82626200Y-137490200D01*
X87706200Y-137490200D02*
X87706200Y-123520200D01*
X101676200Y-137490200D02*
X87706200Y-137490200D01*
X101676200Y-123520200D02*
X101676200Y-137490200D01*
X87706200Y-123520200D02*
X101676200Y-123520200D01*
X87706200Y-118440200D02*
X87706200Y-104470200D01*
X87706200Y-104470200D02*
X101676200Y-104470200D01*
X101676200Y-104470200D02*
X101676200Y-118440200D01*
X101676200Y-118440200D02*
X87706200Y-118440200D01*
X120726200Y-104470200D02*
X120726200Y-118440200D01*
X106756200Y-104470200D02*
X120726200Y-104470200D01*
X120726200Y-118440200D02*
X106756200Y-118440200D01*
X106756200Y-118440200D02*
X106756200Y-104470200D01*
X120726200Y-175590200D02*
X106756200Y-175590200D01*
X106756200Y-161620200D02*
X120726200Y-161620200D01*
X106756200Y-175590200D02*
X106756200Y-161620200D01*
X120726200Y-161620200D02*
X120726200Y-175590200D01*
X104103300Y-47823017D02*
X104103300Y-35023017D01*
X144283300Y-47823017D02*
X144283300Y-35023017D01*
X144283300Y-35023017D02*
X104103300Y-35023017D01*
X104103300Y-47823017D02*
X144283300Y-47823017D01*
X104151300Y-35023017D02*
X63971300Y-35023017D01*
X63971300Y-47823017D02*
X63971300Y-35023017D01*
X63971300Y-47823017D02*
X104151300Y-47823017D01*
X104151300Y-47823017D02*
X104151300Y-35023017D01*
X82626200Y-175590200D02*
X68656200Y-175590200D01*
X82626200Y-161620200D02*
X82626200Y-175590200D01*
X68656200Y-161620200D02*
X82626200Y-161620200D01*
X68656200Y-175590200D02*
X68656200Y-161620200D01*
X144283300Y-34742017D02*
X144283300Y-21942017D01*
X104103300Y-34742017D02*
X104103300Y-21942017D01*
X144283300Y-21942017D02*
X104103300Y-21942017D01*
X104103300Y-34742017D02*
X144283300Y-34742017D01*
X104151300Y-21942017D02*
X63971300Y-21942017D01*
X63971300Y-34742017D02*
X104151300Y-34742017D01*
X104151300Y-34742017D02*
X104151300Y-21942017D01*
X63971300Y-34742017D02*
X63971300Y-21942017D01*
X120726200Y-156540200D02*
X106756200Y-156540200D01*
X106756200Y-156540200D02*
X106756200Y-142570200D01*
X120726200Y-142570200D02*
X120726200Y-156540200D01*
X106756200Y-142570200D02*
X120726200Y-142570200D01*
X106756200Y-137490200D02*
X106756200Y-123520200D01*
X120726200Y-137490200D02*
X106756200Y-137490200D01*
X120726200Y-123520200D02*
X120726200Y-137490200D01*
X106756200Y-123520200D02*
X120726200Y-123520200D01*
G36*
X91423952Y-49891799D02*
G01*
X91775804Y-49892076D01*
X92092631Y-49892899D01*
X92373815Y-49894262D01*
X92618734Y-49896158D01*
X92826768Y-49898580D01*
X92997295Y-49901520D01*
X93129697Y-49904971D01*
X93223351Y-49908926D01*
X93277638Y-49913377D01*
X93278127Y-49913445D01*
X93551161Y-49971412D01*
X93813295Y-50067271D01*
X94062104Y-50199821D01*
X94295162Y-50367862D01*
X94418638Y-50477737D01*
X94611274Y-50688920D01*
X94770825Y-50920486D01*
X94896351Y-51169011D01*
X94986910Y-51431071D01*
X95041562Y-51703240D01*
X95059364Y-51982095D01*
X95039376Y-52264211D01*
X94983891Y-52534453D01*
X94939853Y-52666074D01*
X94877253Y-52814014D01*
X94802984Y-52964285D01*
X94723938Y-53102900D01*
X94650126Y-53211800D01*
X94456876Y-53434218D01*
X94240726Y-53624683D01*
X94003630Y-53781955D01*
X93747538Y-53904796D01*
X93474401Y-53991967D01*
X93392102Y-54010434D01*
X93355360Y-54017685D01*
X93319054Y-54024036D01*
X93280400Y-54029547D01*
X93236610Y-54034277D01*
X93184902Y-54038285D01*
X93122489Y-54041632D01*
X93046586Y-54044376D01*
X92954409Y-54046578D01*
X92843171Y-54048296D01*
X92710089Y-54049591D01*
X92552375Y-54050521D01*
X92367247Y-54051147D01*
X92151917Y-54051528D01*
X91903602Y-54051724D01*
X91619515Y-54051793D01*
X91457258Y-54051800D01*
X89725400Y-54051800D01*
X89725400Y-51832250D01*
X90085400Y-51832250D01*
X90088341Y-51927623D01*
X90096682Y-51994868D01*
X90109400Y-52027800D01*
X90141517Y-52040964D01*
X90199108Y-52049681D01*
X90248284Y-52051800D01*
X90323998Y-52055729D01*
X90375848Y-52070417D01*
X90418214Y-52099147D01*
X90473259Y-52146495D01*
X90450832Y-52480365D01*
X90440895Y-52617437D01*
X90430393Y-52720841D01*
X90416849Y-52796862D01*
X90397790Y-52851785D01*
X90370740Y-52891896D01*
X90333223Y-52923482D01*
X90282764Y-52952826D01*
X90260208Y-52964430D01*
X90182693Y-53008020D01*
X90135977Y-53048221D01*
X90112842Y-53094085D01*
X90106070Y-53154665D01*
X90106036Y-53157793D01*
X90120282Y-53251054D01*
X90166077Y-53327682D01*
X90245440Y-53389515D01*
X90360392Y-53438392D01*
X90437963Y-53460044D01*
X90506336Y-53470959D01*
X90606205Y-53479537D01*
X90729132Y-53485694D01*
X90866676Y-53489343D01*
X91010397Y-53490402D01*
X91151856Y-53488784D01*
X91282613Y-53484406D01*
X91394228Y-53477182D01*
X91457286Y-53470271D01*
X91604310Y-53442074D01*
X91732218Y-53402179D01*
X91833603Y-53353328D01*
X91890154Y-53310122D01*
X91928409Y-53260939D01*
X91943808Y-53204305D01*
X91945400Y-53166035D01*
X91932090Y-53078104D01*
X91889447Y-53011029D01*
X91813401Y-52959561D01*
X91771380Y-52941660D01*
X91687681Y-52905952D01*
X91624587Y-52866629D01*
X91578982Y-52817500D01*
X91547753Y-52752370D01*
X91527786Y-52665048D01*
X91515967Y-52549339D01*
X91509920Y-52421699D01*
X91506750Y-52313747D01*
X91506392Y-52238025D01*
X91509623Y-52186818D01*
X91517219Y-52152407D01*
X91529955Y-52127075D01*
X91541056Y-52112197D01*
X91567012Y-52086133D01*
X91600053Y-52070117D01*
X91651096Y-52060897D01*
X91731055Y-52055222D01*
X91732567Y-52055145D01*
X91818412Y-52047426D01*
X91879258Y-52034969D01*
X91905761Y-52021364D01*
X91915897Y-51991335D01*
X91926019Y-51931069D01*
X91934733Y-51850305D01*
X91939234Y-51787107D01*
X91951020Y-51578980D01*
X91889835Y-51553637D01*
X91830233Y-51539980D01*
X91739729Y-51533694D01*
X91654109Y-51534326D01*
X91479568Y-51540358D01*
X91432333Y-51471079D01*
X91395394Y-51430292D01*
X91389734Y-51425330D01*
X92025400Y-51425330D01*
X92027494Y-51505249D01*
X92038290Y-51558332D01*
X92064557Y-51590052D01*
X92113063Y-51605879D01*
X92190578Y-51611283D01*
X92256103Y-51611800D01*
X92338073Y-51612291D01*
X92402930Y-51613613D01*
X92441761Y-51615532D01*
X92448827Y-51616800D01*
X92449986Y-51637249D01*
X92451694Y-51692986D01*
X92453847Y-51779303D01*
X92456337Y-51891492D01*
X92459058Y-52024847D01*
X92461905Y-52174659D01*
X92463827Y-52281800D01*
X92467036Y-52461625D01*
X92469942Y-52606155D01*
X92472931Y-52720089D01*
X92476392Y-52808124D01*
X92480713Y-52874959D01*
X92486280Y-52925293D01*
X92493482Y-52963824D01*
X92502706Y-52995252D01*
X92514340Y-53024273D01*
X92527422Y-53052712D01*
X92616078Y-53201171D01*
X92729450Y-53319066D01*
X92870104Y-53408654D01*
X92985400Y-53455476D01*
X93092156Y-53478594D01*
X93224463Y-53488564D01*
X93370283Y-53485916D01*
X93517579Y-53471184D01*
X93654315Y-53444897D01*
X93729765Y-53422593D01*
X93888076Y-53355909D01*
X94023951Y-53275820D01*
X94133155Y-53185903D01*
X94211455Y-53089733D01*
X94254615Y-52990885D01*
X94257652Y-52976826D01*
X94259212Y-52908219D01*
X94234965Y-52833173D01*
X94228622Y-52819695D01*
X94187064Y-52753774D01*
X94138594Y-52721012D01*
X94076506Y-52719820D01*
X93994091Y-52748607D01*
X93972261Y-52758955D01*
X93859798Y-52800564D01*
X93761174Y-52809412D01*
X93680128Y-52785347D01*
X93659545Y-52771487D01*
X93628753Y-52743361D01*
X93604604Y-52709777D01*
X93586317Y-52665810D01*
X93573108Y-52606534D01*
X93564194Y-52527023D01*
X93558794Y-52422351D01*
X93556123Y-52287593D01*
X93555400Y-52117822D01*
X93555400Y-52116088D01*
X93555748Y-51964329D01*
X93556987Y-51847869D01*
X93559408Y-51762009D01*
X93563301Y-51702052D01*
X93568957Y-51663300D01*
X93576666Y-51641056D01*
X93585400Y-51631394D01*
X93615701Y-51624376D01*
X93677630Y-51618483D01*
X93762819Y-51614249D01*
X93862900Y-51612209D01*
X93887300Y-51612106D01*
X94012147Y-51611131D01*
X94102710Y-51605764D01*
X94164707Y-51591855D01*
X94203852Y-51565255D01*
X94225862Y-51521814D01*
X94236452Y-51457383D01*
X94241339Y-51367811D01*
X94241831Y-51354729D01*
X94244626Y-51268462D01*
X94242169Y-51205036D01*
X94229232Y-51160712D01*
X94200585Y-51131747D01*
X94151001Y-51114403D01*
X94075252Y-51104939D01*
X93968110Y-51099614D01*
X93881124Y-51096667D01*
X93569725Y-51086202D01*
X93557782Y-51014001D01*
X93552336Y-50960999D01*
X93548135Y-50882074D01*
X93545848Y-50791295D01*
X93545620Y-50757503D01*
X93544553Y-50668930D01*
X93540549Y-50611957D01*
X93532018Y-50578206D01*
X93517370Y-50559299D01*
X93506714Y-50552503D01*
X93458384Y-50539249D01*
X93386362Y-50532975D01*
X93306353Y-50533745D01*
X93234064Y-50541621D01*
X93196789Y-50551271D01*
X93163301Y-50568347D01*
X93102214Y-50603729D01*
X93018608Y-50654179D01*
X92917565Y-50716455D01*
X92804166Y-50787317D01*
X92683492Y-50863525D01*
X92560624Y-50941837D01*
X92440643Y-51019015D01*
X92328630Y-51091816D01*
X92229667Y-51157001D01*
X92148833Y-51211330D01*
X92091212Y-51251561D01*
X92061882Y-51274454D01*
X92060399Y-51276003D01*
X92035109Y-51327751D01*
X92025563Y-51409788D01*
X92025400Y-51425330D01*
X91389734Y-51425330D01*
X91334337Y-51376769D01*
X91259060Y-51318815D01*
X91210249Y-51284742D01*
X91133315Y-51232483D01*
X91065747Y-51185216D01*
X91016550Y-51149312D01*
X90998352Y-51134790D01*
X90945138Y-51068727D01*
X90912460Y-50989725D01*
X90902541Y-50909432D01*
X90917602Y-50839497D01*
X90936499Y-50810584D01*
X90989062Y-50779463D01*
X91058735Y-50772390D01*
X91130824Y-50789152D01*
X91173642Y-50813990D01*
X91214245Y-50849779D01*
X91269978Y-50903735D01*
X91329058Y-50964433D01*
X91331339Y-50966856D01*
X91441925Y-51064343D01*
X91557390Y-51130403D01*
X91672974Y-51165437D01*
X91783918Y-51169849D01*
X91885463Y-51144040D01*
X91972851Y-51088412D01*
X92041321Y-51003367D01*
X92082454Y-50903407D01*
X92094555Y-50786557D01*
X92068087Y-50669019D01*
X92004291Y-50554000D01*
X91905263Y-50445475D01*
X91794839Y-50362394D01*
X91670299Y-50301284D01*
X91526337Y-50260762D01*
X91357642Y-50239447D01*
X91158906Y-50235956D01*
X91106720Y-50237595D01*
X90903369Y-50253745D01*
X90731504Y-50286133D01*
X90585218Y-50336788D01*
X90458605Y-50407740D01*
X90348749Y-50498118D01*
X90275855Y-50574655D01*
X90226259Y-50645577D01*
X90195780Y-50721825D01*
X90180237Y-50814341D01*
X90175450Y-50934065D01*
X90175400Y-50951800D01*
X90176180Y-51048297D01*
X90180303Y-51117906D01*
X90190440Y-51173734D01*
X90209265Y-51228888D01*
X90239450Y-51296474D01*
X90250400Y-51319616D01*
X90284346Y-51393933D01*
X90310286Y-51456215D01*
X90324146Y-51496457D01*
X90325400Y-51503912D01*
X90307538Y-51535846D01*
X90262506Y-51560726D01*
X90203132Y-51571724D01*
X90197848Y-51571800D01*
X90149194Y-51582747D01*
X90115574Y-51618380D01*
X90095179Y-51682889D01*
X90086201Y-51780460D01*
X90085400Y-51832250D01*
X89725400Y-51832250D01*
X89725400Y-49891800D01*
X91423952Y-49891799D01*
G37*
G36*
X125968662Y-57097156D02*
G01*
X125974211Y-57100903D01*
X126029440Y-57160868D01*
X126072939Y-57249259D01*
X126102653Y-57355751D01*
X126116525Y-57470022D01*
X126112502Y-57581750D01*
X126089254Y-57678726D01*
X126041874Y-57760308D01*
X125977953Y-57810503D01*
X125904198Y-57827151D01*
X125827313Y-57808091D01*
X125781566Y-57777861D01*
X125729787Y-57712636D01*
X125689152Y-57619340D01*
X125662199Y-57508902D01*
X125651466Y-57392247D01*
X125659489Y-57280305D01*
X125662427Y-57264791D01*
X125695725Y-57178201D01*
X125750589Y-57114152D01*
X125819427Y-57076635D01*
X125894648Y-57069639D01*
X125968662Y-57097156D01*
G37*
G36*
X123906650Y-55692063D02*
G01*
X124266394Y-55692128D01*
X124588476Y-55692263D01*
X124875170Y-55692501D01*
X125128748Y-55692875D01*
X125351486Y-55693419D01*
X125545657Y-55694165D01*
X125713537Y-55695147D01*
X125857398Y-55696398D01*
X125979515Y-55697952D01*
X126082163Y-55699841D01*
X126167614Y-55702099D01*
X126238144Y-55704759D01*
X126296027Y-55707854D01*
X126343537Y-55711418D01*
X126382947Y-55715484D01*
X126416532Y-55720085D01*
X126446567Y-55725254D01*
X126468049Y-55729507D01*
X126741641Y-55805732D01*
X126997850Y-55916715D01*
X127234350Y-56060221D01*
X127448812Y-56234017D01*
X127638909Y-56435870D01*
X127802314Y-56663546D01*
X127936698Y-56914810D01*
X128039735Y-57187431D01*
X128059890Y-57257069D01*
X128076649Y-57323852D01*
X128088581Y-57387610D01*
X128096429Y-57457159D01*
X128100935Y-57541315D01*
X128102843Y-57648896D01*
X128102965Y-57768530D01*
X128101753Y-57906359D01*
X128098595Y-58012932D01*
X128092747Y-58096911D01*
X128083464Y-58166959D01*
X128070000Y-58231737D01*
X128059724Y-58271247D01*
X127963852Y-58549047D01*
X127836083Y-58805569D01*
X127678792Y-59038722D01*
X127494356Y-59246416D01*
X127285152Y-59426562D01*
X127053556Y-59577070D01*
X126801945Y-59695850D01*
X126532695Y-59780811D01*
X126293264Y-59824687D01*
X126244959Y-59828123D01*
X126157813Y-59831274D01*
X126032919Y-59834129D01*
X125871371Y-59836680D01*
X125674266Y-59838919D01*
X125442696Y-59840834D01*
X125177756Y-59842419D01*
X124880541Y-59843662D01*
X124552144Y-59844556D01*
X124193661Y-59845092D01*
X123827299Y-59845259D01*
X121525400Y-59845259D01*
X121525400Y-59041062D01*
X124786869Y-59041062D01*
X124791982Y-59135236D01*
X124827247Y-59229450D01*
X124890862Y-59320185D01*
X124981026Y-59403921D01*
X125095936Y-59477138D01*
X125233792Y-59536317D01*
X125369346Y-59573304D01*
X125490638Y-59591110D01*
X125638936Y-59601443D01*
X125802031Y-59604398D01*
X125967717Y-59600074D01*
X126123785Y-59588566D01*
X126258027Y-59569972D01*
X126277915Y-59566089D01*
X126487498Y-59507866D01*
X126671817Y-59425588D01*
X126828481Y-59321201D01*
X126955096Y-59196650D01*
X127049268Y-59053882D01*
X127108606Y-58894840D01*
X127109853Y-58889713D01*
X127126047Y-58747956D01*
X127105949Y-58618754D01*
X127052095Y-58505323D01*
X126967022Y-58410877D01*
X126853267Y-58338632D01*
X126713367Y-58291805D01*
X126627365Y-58278169D01*
X126560496Y-58275903D01*
X126461917Y-58278838D01*
X126339460Y-58286551D01*
X126200953Y-58298615D01*
X126144912Y-58304340D01*
X125971927Y-58320751D01*
X125834328Y-58328858D01*
X125728343Y-58328207D01*
X125650201Y-58318346D01*
X125596130Y-58298824D01*
X125562359Y-58269187D01*
X125545950Y-58232498D01*
X125538750Y-58192126D01*
X125543654Y-58162284D01*
X125565574Y-58141057D01*
X125609424Y-58126531D01*
X125680118Y-58116792D01*
X125782568Y-58109928D01*
X125870661Y-58106013D01*
X126000308Y-58099643D01*
X126100546Y-58091442D01*
X126181903Y-58079934D01*
X126254905Y-58063639D01*
X126327837Y-58041814D01*
X126511892Y-57967060D01*
X126660036Y-57874876D01*
X126772314Y-57765209D01*
X126848772Y-57638005D01*
X126889459Y-57493213D01*
X126896745Y-57392488D01*
X126898250Y-57314279D01*
X126905349Y-57261811D01*
X126922301Y-57220910D01*
X126953364Y-57177399D01*
X126966085Y-57161702D01*
X127049650Y-57040697D01*
X127098822Y-56925063D01*
X127112874Y-56817863D01*
X127091077Y-56722160D01*
X127076876Y-56695220D01*
X127044112Y-56652850D01*
X127007399Y-56634873D01*
X126959565Y-56641728D01*
X126893436Y-56673855D01*
X126834839Y-56710050D01*
X126733799Y-56768616D01*
X126638160Y-56807067D01*
X126538574Y-56826725D01*
X126425695Y-56828910D01*
X126290177Y-56814944D01*
X126198041Y-56800055D01*
X126010917Y-56776586D01*
X125824410Y-56770696D01*
X125650394Y-56782206D01*
X125502162Y-56810544D01*
X125309893Y-56877822D01*
X125148869Y-56963038D01*
X125020126Y-57063814D01*
X124924698Y-57177769D01*
X124863623Y-57302523D01*
X124837934Y-57435694D01*
X124848669Y-57574903D01*
X124896862Y-57717770D01*
X124983549Y-57861914D01*
X125022975Y-57911987D01*
X125062629Y-57964461D01*
X125085762Y-58005453D01*
X125087626Y-58025289D01*
X125063370Y-58044900D01*
X125018408Y-58080830D01*
X124972761Y-58117130D01*
X124886155Y-58195405D01*
X124832164Y-58270216D01*
X124805521Y-58350752D01*
X124800317Y-58418057D01*
X124804675Y-58484718D01*
X124821464Y-58541377D01*
X124856090Y-58598872D01*
X124913958Y-58668043D01*
X124938011Y-58694139D01*
X124978759Y-58739346D01*
X124994734Y-58765335D01*
X124988996Y-58781529D01*
X124970455Y-58793982D01*
X124874304Y-58866916D01*
X124813709Y-58950449D01*
X124786869Y-59041062D01*
X121525400Y-59041062D01*
X121525400Y-56474984D01*
X121709768Y-56474984D01*
X121725827Y-56533031D01*
X121778781Y-56577723D01*
X121849574Y-56603568D01*
X121908851Y-56619775D01*
X121952311Y-56634300D01*
X121962973Y-56639235D01*
X121987934Y-56675575D01*
X122006897Y-56747878D01*
X122019262Y-56852536D01*
X122024430Y-56985940D01*
X122024549Y-57009725D01*
X122023653Y-57118795D01*
X122021004Y-57247502D01*
X122016878Y-57389951D01*
X122011551Y-57540249D01*
X122005298Y-57692501D01*
X121998396Y-57840815D01*
X121991121Y-57979296D01*
X121983749Y-58102051D01*
X121976555Y-58203185D01*
X121969816Y-58276805D01*
X121963808Y-58317017D01*
X121963228Y-58319070D01*
X121930566Y-58374164D01*
X121870957Y-58431283D01*
X121854516Y-58443462D01*
X121799913Y-58486491D01*
X121772818Y-58522948D01*
X121765053Y-58564197D01*
X121765022Y-58567852D01*
X121777436Y-58648709D01*
X121817347Y-58713442D01*
X121888756Y-58766162D01*
X121995664Y-58810979D01*
X122004645Y-58813947D01*
X122041000Y-58818926D01*
X122109284Y-58822358D01*
X122201518Y-58824323D01*
X122309726Y-58824904D01*
X122425933Y-58824182D01*
X122542162Y-58822239D01*
X122650436Y-58819157D01*
X122742780Y-58815016D01*
X122811215Y-58809900D01*
X122842484Y-58805373D01*
X122963817Y-58767529D01*
X123049144Y-58717021D01*
X123101052Y-58651460D01*
X123122126Y-58568455D01*
X123122884Y-58546322D01*
X123105708Y-58479168D01*
X123066299Y-58430512D01*
X123022193Y-58383547D01*
X122989046Y-58338597D01*
X122986425Y-58333954D01*
X122974366Y-58293054D01*
X122966641Y-58231820D01*
X122963528Y-58163047D01*
X122965303Y-58099530D01*
X122972245Y-58054065D01*
X122980048Y-58039994D01*
X122992235Y-58039160D01*
X123011152Y-58050773D01*
X123039526Y-58077961D01*
X123080084Y-58123853D01*
X123135555Y-58191576D01*
X123208666Y-58284260D01*
X123302143Y-58405033D01*
X123330921Y-58442464D01*
X123405999Y-58538773D01*
X123475064Y-58624679D01*
X123533662Y-58694852D01*
X123577339Y-58743963D01*
X123601641Y-58766682D01*
X123602121Y-58766953D01*
X123637628Y-58774943D01*
X123705771Y-58780998D01*
X123799297Y-58785176D01*
X123910955Y-58787534D01*
X124033492Y-58788129D01*
X124159657Y-58787019D01*
X124282198Y-58784259D01*
X124393862Y-58779909D01*
X124487397Y-58774024D01*
X124555553Y-58766662D01*
X124588386Y-58759174D01*
X124673130Y-58708291D01*
X124724776Y-58642008D01*
X124740337Y-58572178D01*
X124734631Y-58510438D01*
X124713047Y-58461678D01*
X124668884Y-58416794D01*
X124595439Y-58366679D01*
X124583890Y-58359608D01*
X124477103Y-58280616D01*
X124357161Y-58165305D01*
X124223831Y-58013409D01*
X124076878Y-57824662D01*
X123923918Y-57610218D01*
X123866366Y-57521557D01*
X123833888Y-57456703D01*
X123824911Y-57409714D01*
X123837866Y-57374644D01*
X123856728Y-57355880D01*
X123913017Y-57318972D01*
X123993418Y-57275500D01*
X124084332Y-57232046D01*
X124172159Y-57195194D01*
X124229942Y-57175217D01*
X124306499Y-57149775D01*
X124351837Y-57123870D01*
X124373909Y-57089271D01*
X124380670Y-57037750D01*
X124380903Y-57019039D01*
X124375129Y-56956461D01*
X124351777Y-56912634D01*
X124319669Y-56881876D01*
X124255145Y-56837684D01*
X124178077Y-56805799D01*
X124082357Y-56785075D01*
X123961878Y-56774366D01*
X123810533Y-56772524D01*
X123744491Y-56773888D01*
X123624873Y-56777916D01*
X123537251Y-56783126D01*
X123473682Y-56790593D01*
X123426226Y-56801394D01*
X123386940Y-56816604D01*
X123371155Y-56824467D01*
X123291085Y-56874598D01*
X123247718Y-56925242D01*
X123238281Y-56982962D01*
X123260000Y-57054322D01*
X123267430Y-57069983D01*
X123290402Y-57124551D01*
X123293868Y-57166244D01*
X123273623Y-57201960D01*
X123225457Y-57238598D01*
X123145163Y-57283056D01*
X123133943Y-57288847D01*
X122998835Y-57358299D01*
X122959528Y-57309757D01*
X122948337Y-57294405D01*
X122939654Y-57276182D01*
X122933302Y-57250506D01*
X122929103Y-57212798D01*
X122926879Y-57158477D01*
X122926453Y-57082963D01*
X122927647Y-56981675D01*
X122930283Y-56850034D01*
X122934183Y-56683459D01*
X122934587Y-56666748D01*
X122938544Y-56488182D01*
X122940806Y-56345734D01*
X122941308Y-56235617D01*
X122939983Y-56154045D01*
X122936765Y-56097232D01*
X122931587Y-56061393D01*
X122924384Y-56042740D01*
X122923646Y-56041790D01*
X122882562Y-56020610D01*
X122810640Y-56013028D01*
X122714056Y-56017648D01*
X122598989Y-56033072D01*
X122471617Y-56057904D01*
X122338115Y-56090749D01*
X122204663Y-56130210D01*
X122077437Y-56174891D01*
X121962615Y-56223396D01*
X121866374Y-56274328D01*
X121850376Y-56284373D01*
X121792001Y-56331351D01*
X121743649Y-56385647D01*
X121731396Y-56404911D01*
X121709768Y-56474984D01*
X121525400Y-56474984D01*
X121525400Y-55691800D01*
X123906650Y-55692063D01*
G37*
G36*
X125495228Y-58936070D02*
G01*
X125526868Y-58939796D01*
X125593841Y-58945575D01*
X125688643Y-58949540D01*
X125799192Y-58951368D01*
X125913409Y-58950733D01*
X125925319Y-58950506D01*
X126047904Y-58948946D01*
X126136173Y-58951233D01*
X126195691Y-58959125D01*
X126232024Y-58974377D01*
X126250738Y-58998746D01*
X126257397Y-59033988D01*
X126257947Y-59055466D01*
X126239031Y-59125588D01*
X126183861Y-59183020D01*
X126100211Y-59223468D01*
X126040174Y-59235185D01*
X125953770Y-59241924D01*
X125854256Y-59243704D01*
X125754886Y-59240545D01*
X125668919Y-59232466D01*
X125619683Y-59222758D01*
X125519843Y-59178760D01*
X125443782Y-59113770D01*
X125407222Y-59054649D01*
X125386924Y-58991407D01*
X125392473Y-58952820D01*
X125427399Y-58935504D01*
X125495228Y-58936070D01*
G37*
X104075400Y-60524600D02*
X96775400Y-60524600D01*
X104075400Y-59374600D02*
X104075400Y-60524600D01*
X104075400Y-55024600D02*
X96775400Y-55024600D01*
G36*
X107510400Y-55666662D02*
G01*
X107955602Y-55666708D01*
X108362617Y-55666790D01*
X108733255Y-55666927D01*
X109069328Y-55667135D01*
X109372649Y-55667434D01*
X109645028Y-55667842D01*
X109888278Y-55668376D01*
X110104210Y-55669054D01*
X110294636Y-55669895D01*
X110461369Y-55670918D01*
X110606218Y-55672139D01*
X110730998Y-55673577D01*
X110837518Y-55675250D01*
X110927591Y-55677177D01*
X111003029Y-55679375D01*
X111065644Y-55681862D01*
X111117247Y-55684657D01*
X111159649Y-55687777D01*
X111194664Y-55691242D01*
X111224102Y-55695068D01*
X111249775Y-55699274D01*
X111273496Y-55703878D01*
X111275400Y-55704271D01*
X111554056Y-55781866D01*
X111814464Y-55894366D01*
X112054322Y-56039995D01*
X112271333Y-56216977D01*
X112463195Y-56423534D01*
X112627610Y-56657889D01*
X112714768Y-56816400D01*
X112824234Y-57078842D01*
X112895751Y-57345885D01*
X112930626Y-57614437D01*
X112930163Y-57881410D01*
X112895670Y-58143713D01*
X112828450Y-58398257D01*
X112729811Y-58641950D01*
X112601057Y-58871704D01*
X112443494Y-59084429D01*
X112258428Y-59277034D01*
X112047164Y-59446430D01*
X111811009Y-59589526D01*
X111551267Y-59703233D01*
X111485400Y-59725860D01*
X111448004Y-59738049D01*
X111412661Y-59749209D01*
X111377544Y-59759384D01*
X111340825Y-59768621D01*
X111300675Y-59776964D01*
X111255269Y-59784460D01*
X111202777Y-59791154D01*
X111141374Y-59797091D01*
X111069231Y-59802317D01*
X110984520Y-59806877D01*
X110885415Y-59810816D01*
X110770087Y-59814181D01*
X110636710Y-59817017D01*
X110483455Y-59819369D01*
X110308496Y-59821282D01*
X110110004Y-59822802D01*
X109886152Y-59823976D01*
X109635113Y-59824847D01*
X109355060Y-59825462D01*
X109044163Y-59825866D01*
X108700598Y-59826104D01*
X108322534Y-59826222D01*
X107908146Y-59826266D01*
X107455606Y-59826281D01*
X107450400Y-59826282D01*
X103925400Y-59826400D01*
X103925400Y-56523519D01*
X104126952Y-56523519D01*
X104144931Y-56586784D01*
X104196174Y-56637754D01*
X104280306Y-56671433D01*
X104303807Y-56676131D01*
X104372094Y-56699717D01*
X104427829Y-56739118D01*
X104428219Y-56739533D01*
X104475400Y-56789887D01*
X104471486Y-57383143D01*
X104468680Y-57645996D01*
X104463960Y-57884203D01*
X104457443Y-58095554D01*
X104449249Y-58277841D01*
X104439494Y-58428853D01*
X104428296Y-58546381D01*
X104415773Y-58628215D01*
X104402867Y-58670678D01*
X104371336Y-58711918D01*
X104320510Y-58761695D01*
X104285400Y-58790640D01*
X104233812Y-58832576D01*
X104207155Y-58866276D01*
X104197502Y-58906316D01*
X104196710Y-58953727D01*
X104210169Y-59036131D01*
X104250941Y-59100877D01*
X104323483Y-59152924D01*
X104408174Y-59189032D01*
X104447233Y-59201514D01*
X104488319Y-59210774D01*
X104537599Y-59217162D01*
X104601243Y-59221028D01*
X104685420Y-59222722D01*
X104796298Y-59222593D01*
X104940046Y-59220992D01*
X104965400Y-59220639D01*
X105114366Y-59218207D01*
X105229505Y-59215316D01*
X105316987Y-59211420D01*
X105382986Y-59205973D01*
X105433673Y-59198430D01*
X105475220Y-59188246D01*
X105513799Y-59174875D01*
X105522644Y-59171395D01*
X105612190Y-59130330D01*
X105670867Y-59088086D01*
X105707243Y-59036806D01*
X105725730Y-58985173D01*
X105733999Y-58899296D01*
X105708146Y-58819043D01*
X105645786Y-58737131D01*
X105643839Y-58735103D01*
X105583734Y-58648671D01*
X105552038Y-58541005D01*
X105545706Y-58446532D01*
X105551643Y-58371671D01*
X105567440Y-58324408D01*
X105590963Y-58309866D01*
X105601041Y-58313706D01*
X105618666Y-58332405D01*
X105657132Y-58378072D01*
X105712708Y-58446114D01*
X105781661Y-58531936D01*
X105860260Y-58630945D01*
X105907750Y-58691268D01*
X105992874Y-58798931D01*
X106073089Y-58898924D01*
X106144029Y-58985917D01*
X106201328Y-59054580D01*
X106240618Y-59099585D01*
X106251988Y-59111400D01*
X106309630Y-59166400D01*
X106810194Y-59166400D01*
X106985877Y-59165807D01*
X107126561Y-59163559D01*
X107237237Y-59158946D01*
X107322894Y-59151261D01*
X107388522Y-59139795D01*
X107439112Y-59123841D01*
X107479654Y-59102690D01*
X107515137Y-59075635D01*
X107527275Y-59064648D01*
X107568328Y-59015474D01*
X107578953Y-58977761D01*
X107705400Y-58977761D01*
X107717856Y-59046137D01*
X107757566Y-59102662D01*
X107828042Y-59150010D01*
X107932795Y-59190857D01*
X108015400Y-59213816D01*
X108047254Y-59216662D01*
X108112182Y-59218658D01*
X108203265Y-59219726D01*
X108313585Y-59219787D01*
X108436221Y-59218764D01*
X108445400Y-59218645D01*
X108583666Y-59216414D01*
X108688939Y-59213407D01*
X108768223Y-59208931D01*
X108828526Y-59202291D01*
X108876853Y-59192794D01*
X108920209Y-59179746D01*
X108949944Y-59168681D01*
X109047478Y-59120277D01*
X109110467Y-59062366D01*
X109140378Y-58990573D01*
X109138681Y-58900525D01*
X109106845Y-58787847D01*
X109091222Y-58747969D01*
X109073527Y-58703782D01*
X109060163Y-58664395D01*
X109050511Y-58623359D01*
X109043950Y-58574226D01*
X109039860Y-58510547D01*
X109037619Y-58425873D01*
X109036608Y-58313756D01*
X109036222Y-58176400D01*
X109036332Y-58028168D01*
X109037531Y-57914399D01*
X109040179Y-57829563D01*
X109044640Y-57768129D01*
X109051276Y-57724567D01*
X109060449Y-57693347D01*
X109069081Y-57674943D01*
X109113930Y-57608536D01*
X109165117Y-57571137D01*
X109229721Y-57553447D01*
X109302164Y-57560578D01*
X109369006Y-57601375D01*
X109422578Y-57669557D01*
X109448853Y-57732860D01*
X109457092Y-57782338D01*
X109463850Y-57863455D01*
X109469033Y-57967872D01*
X109472550Y-58087253D01*
X109474308Y-58213259D01*
X109474214Y-58337554D01*
X109472174Y-58451798D01*
X109468097Y-58547656D01*
X109461890Y-58616789D01*
X109458882Y-58634658D01*
X109425535Y-58713595D01*
X109356568Y-58796288D01*
X109353882Y-58798912D01*
X109303524Y-58851376D01*
X109276850Y-58892654D01*
X109266635Y-58936956D01*
X109265400Y-58972926D01*
X109281717Y-59059742D01*
X109331647Y-59127062D01*
X109416655Y-59176672D01*
X109439493Y-59185142D01*
X109494307Y-59196716D01*
X109580595Y-59206464D01*
X109689861Y-59214183D01*
X109813611Y-59219673D01*
X109943352Y-59222732D01*
X110070590Y-59223158D01*
X110186830Y-59220751D01*
X110283577Y-59215308D01*
X110351617Y-59206772D01*
X110480201Y-59171395D01*
X110583631Y-59122238D01*
X110657806Y-59062257D01*
X110698624Y-58994404D01*
X110705400Y-58951952D01*
X110695818Y-58911012D01*
X110670555Y-58848667D01*
X110634836Y-58777617D01*
X110630400Y-58769649D01*
X110555400Y-58636400D01*
X110548724Y-58214758D01*
X110546928Y-58046525D01*
X110547999Y-57913387D01*
X110552728Y-57810496D01*
X110561906Y-57733000D01*
X110576322Y-57676051D01*
X110596767Y-57634798D01*
X110624031Y-57604391D01*
X110651416Y-57584531D01*
X110732303Y-57553811D01*
X110810727Y-57559909D01*
X110880658Y-57599804D01*
X110936070Y-57670472D01*
X110964357Y-57741432D01*
X110970739Y-57784196D01*
X110976338Y-57859513D01*
X110980833Y-57959940D01*
X110983903Y-58078034D01*
X110985228Y-58206351D01*
X110985257Y-58226400D01*
X110984874Y-58368715D01*
X110983374Y-58476889D01*
X110980326Y-58556775D01*
X110975297Y-58614225D01*
X110967858Y-58655091D01*
X110957576Y-58685227D01*
X110950368Y-58699682D01*
X110918009Y-58758169D01*
X110880019Y-58826734D01*
X110869166Y-58846303D01*
X110836459Y-58931427D01*
X110840004Y-59005641D01*
X110880695Y-59070487D01*
X110959423Y-59127508D01*
X111057045Y-59171024D01*
X111105002Y-59187334D01*
X111152660Y-59199109D01*
X111207755Y-59207086D01*
X111278022Y-59212004D01*
X111371199Y-59214599D01*
X111495021Y-59215610D01*
X111525400Y-59215689D01*
X111688873Y-59214030D01*
X111818607Y-59207474D01*
X111920697Y-59194762D01*
X112001239Y-59174636D01*
X112066326Y-59145838D01*
X112122056Y-59107108D01*
X112143642Y-59088041D01*
X112189747Y-59039251D01*
X112215344Y-58993006D01*
X112219795Y-58942150D01*
X112202459Y-58879529D01*
X112162699Y-58797986D01*
X112109560Y-58706400D01*
X112055400Y-58616400D01*
X112035270Y-57296400D01*
X111981619Y-57194599D01*
X111900300Y-57072871D01*
X111798961Y-56981348D01*
X111674176Y-56918113D01*
X111522524Y-56881251D01*
X111402330Y-56870271D01*
X111249738Y-56871893D01*
X111114989Y-56893314D01*
X110989011Y-56937968D01*
X110862731Y-57009292D01*
X110727076Y-57110721D01*
X110693658Y-57138616D01*
X110632140Y-57188260D01*
X110580101Y-57225639D01*
X110546373Y-57244557D01*
X110541002Y-57245705D01*
X110518228Y-57229691D01*
X110482054Y-57188131D01*
X110439884Y-57129641D01*
X110435400Y-57122852D01*
X110368969Y-57034871D01*
X110297110Y-56971105D01*
X110245400Y-56938547D01*
X110196893Y-56912208D01*
X110155531Y-56894604D01*
X110111395Y-56883977D01*
X110054567Y-56878573D01*
X109975128Y-56876635D01*
X109894362Y-56876400D01*
X109791805Y-56876824D01*
X109718358Y-56879481D01*
X109663134Y-56886443D01*
X109615243Y-56899786D01*
X109563798Y-56921582D01*
X109504362Y-56950688D01*
X109411939Y-57003658D01*
X109313307Y-57070870D01*
X109230521Y-57137178D01*
X109154257Y-57202114D01*
X109100467Y-57236277D01*
X109064744Y-57238510D01*
X109042678Y-57207661D01*
X109029862Y-57142574D01*
X109024535Y-57083228D01*
X109015927Y-57005220D01*
X109003234Y-56940317D01*
X108989005Y-56901096D01*
X108987086Y-56898432D01*
X108949496Y-56876122D01*
X108883268Y-56867557D01*
X108785527Y-56872708D01*
X108653400Y-56891543D01*
X108635400Y-56894668D01*
X108407900Y-56940955D01*
X108211351Y-56993813D01*
X108047253Y-57052507D01*
X107917108Y-57116303D01*
X107822417Y-57184466D01*
X107764681Y-57256262D01*
X107745400Y-57330103D01*
X107754392Y-57376045D01*
X107785636Y-57423833D01*
X107834429Y-57473568D01*
X107874813Y-57514121D01*
X107906258Y-57555308D01*
X107929755Y-57602532D01*
X107946296Y-57661199D01*
X107956870Y-57736711D01*
X107962470Y-57834474D01*
X107964086Y-57959892D01*
X107962708Y-58118370D01*
X107961929Y-58168923D01*
X107958795Y-58325655D01*
X107954041Y-58448570D01*
X107946047Y-58543854D01*
X107933190Y-58617690D01*
X107913847Y-58676262D01*
X107886397Y-58725754D01*
X107849218Y-58772351D01*
X107800687Y-58822236D01*
X107787094Y-58835458D01*
X107734586Y-58893501D01*
X107709801Y-58942590D01*
X107705400Y-58977761D01*
X107578953Y-58977761D01*
X107584101Y-58959488D01*
X107585399Y-58927060D01*
X107580801Y-58864969D01*
X107569397Y-58815259D01*
X107565839Y-58807222D01*
X107541425Y-58780973D01*
X107491526Y-58739882D01*
X107424448Y-58690511D01*
X107377534Y-58658394D01*
X107298861Y-58603108D01*
X107231553Y-58547677D01*
X107166606Y-58483367D01*
X107095019Y-58401444D01*
X107030018Y-58321257D01*
X106887732Y-58140014D01*
X106768910Y-57983795D01*
X106674372Y-57853733D01*
X106604942Y-57750965D01*
X106561442Y-57676624D01*
X106558745Y-57671197D01*
X106534789Y-57617196D01*
X106529451Y-57585219D01*
X106541353Y-57562650D01*
X106546316Y-57557530D01*
X106595959Y-57519850D01*
X106672674Y-57474166D01*
X106765844Y-57425879D01*
X106864854Y-57380389D01*
X106959088Y-57343097D01*
X106985400Y-57334134D01*
X107078465Y-57300229D01*
X107138433Y-57267384D01*
X107171667Y-57230110D01*
X107184530Y-57182915D01*
X107185399Y-57161584D01*
X107169156Y-57073949D01*
X107118897Y-57001492D01*
X107032334Y-56941203D01*
X107008977Y-56929642D01*
X106967927Y-56911088D01*
X106930820Y-56897435D01*
X106890694Y-56887933D01*
X106840587Y-56881831D01*
X106773535Y-56878377D01*
X106682578Y-56876821D01*
X106560752Y-56876411D01*
X106515400Y-56876400D01*
X106381566Y-56876681D01*
X106280808Y-56877981D01*
X106206205Y-56880981D01*
X106150834Y-56886362D01*
X106107772Y-56894808D01*
X106070098Y-56907001D01*
X106030889Y-56923621D01*
X106029422Y-56924283D01*
X105937787Y-56979091D01*
X105884036Y-57042783D01*
X105868732Y-57113892D01*
X105892442Y-57190948D01*
X105914006Y-57224510D01*
X105945609Y-57276120D01*
X105948803Y-57315920D01*
X105920902Y-57353990D01*
X105868906Y-57393780D01*
X105776267Y-57450845D01*
X105690543Y-57490945D01*
X105619351Y-57511219D01*
X105570306Y-57508808D01*
X105566855Y-57507178D01*
X105549850Y-57494320D01*
X105536303Y-57473327D01*
X105526002Y-57440383D01*
X105518735Y-57391673D01*
X105514293Y-57323380D01*
X105512464Y-57231689D01*
X105513037Y-57112783D01*
X105515800Y-56962847D01*
X105520544Y-56778063D01*
X105522577Y-56706400D01*
X105527573Y-56516372D01*
X105530464Y-56363160D01*
X105531223Y-56243633D01*
X105529826Y-56154663D01*
X105526247Y-56093118D01*
X105520460Y-56055868D01*
X105517222Y-56046400D01*
X105504273Y-56022673D01*
X105486213Y-56008127D01*
X105454306Y-56000724D01*
X105399815Y-55998424D01*
X105314838Y-55999177D01*
X105160823Y-56011602D01*
X104987471Y-56042321D01*
X104805807Y-56088036D01*
X104626855Y-56145448D01*
X104461638Y-56211259D01*
X104321180Y-56282169D01*
X104276344Y-56309930D01*
X104192283Y-56380095D01*
X104142611Y-56452957D01*
X104126952Y-56523519D01*
X103925400Y-56523519D01*
X103925400Y-55666400D01*
X107510400Y-55666662D01*
G37*
X71275400Y-54724600D02*
X63975400Y-54724600D01*
X71275400Y-53574600D02*
X71275400Y-54724600D01*
X71275400Y-49224600D02*
X63975400Y-49224600D01*
X121675400Y-59374600D02*
X121675400Y-60524600D01*
X121675400Y-60524600D02*
X114375400Y-60524600D01*
X121675400Y-55024600D02*
X114375400Y-55024600D01*
X101676200Y-175590200D02*
X87706200Y-175590200D01*
X101676200Y-161620200D02*
X101676200Y-175590200D01*
X87706200Y-175590200D02*
X87706200Y-161620200D01*
X87706200Y-161620200D02*
X101676200Y-161620200D01*
G36*
X91633226Y-55673800D02*
G01*
X92012010Y-55674046D01*
X92353329Y-55674783D01*
X92656882Y-55676009D01*
X92922372Y-55677718D01*
X93149497Y-55679909D01*
X93337960Y-55682579D01*
X93487461Y-55685723D01*
X93597699Y-55689340D01*
X93668376Y-55693425D01*
X93687401Y-55695445D01*
X93960435Y-55753412D01*
X94222569Y-55849271D01*
X94471378Y-55981821D01*
X94704436Y-56149862D01*
X94827912Y-56259737D01*
X95020548Y-56470920D01*
X95180099Y-56702486D01*
X95305625Y-56951011D01*
X95396184Y-57213071D01*
X95450836Y-57485240D01*
X95468638Y-57764095D01*
X95448650Y-58046211D01*
X95393165Y-58316453D01*
X95349127Y-58448074D01*
X95286527Y-58596014D01*
X95212258Y-58746285D01*
X95133212Y-58884900D01*
X95059400Y-58993800D01*
X94866150Y-59216218D01*
X94650000Y-59406683D01*
X94412904Y-59563955D01*
X94156812Y-59686796D01*
X93883675Y-59773967D01*
X93801376Y-59792434D01*
X93766566Y-59799318D01*
X93732097Y-59805393D01*
X93695363Y-59810711D01*
X93653758Y-59815320D01*
X93604677Y-59819272D01*
X93545513Y-59822617D01*
X93473661Y-59825405D01*
X93386515Y-59827688D01*
X93281470Y-59829515D01*
X93155918Y-59830937D01*
X93007255Y-59832005D01*
X92832875Y-59832769D01*
X92630171Y-59833280D01*
X92396539Y-59833587D01*
X92129371Y-59833742D01*
X91826063Y-59833795D01*
X91666532Y-59833800D01*
X89734674Y-59833800D01*
X89734674Y-58765161D01*
X90114674Y-58765161D01*
X90127130Y-58833537D01*
X90166840Y-58890062D01*
X90237316Y-58937410D01*
X90342069Y-58978257D01*
X90424674Y-59001216D01*
X90456528Y-59004062D01*
X90521456Y-59006058D01*
X90612539Y-59007126D01*
X90722859Y-59007187D01*
X90845495Y-59006164D01*
X90854674Y-59006045D01*
X90992940Y-59003814D01*
X91098213Y-59000807D01*
X91177497Y-58996331D01*
X91237800Y-58989691D01*
X91286127Y-58980194D01*
X91329483Y-58967146D01*
X91359218Y-58956081D01*
X91456752Y-58907677D01*
X91519741Y-58849766D01*
X91549652Y-58777973D01*
X91547955Y-58687925D01*
X91516119Y-58575247D01*
X91500496Y-58535369D01*
X91482801Y-58491182D01*
X91469437Y-58451795D01*
X91459785Y-58410759D01*
X91453224Y-58361626D01*
X91449134Y-58297947D01*
X91446893Y-58213273D01*
X91445882Y-58101156D01*
X91445496Y-57963800D01*
X91445606Y-57815568D01*
X91446805Y-57701799D01*
X91449453Y-57616963D01*
X91453914Y-57555529D01*
X91460550Y-57511967D01*
X91469723Y-57480747D01*
X91478355Y-57462343D01*
X91523204Y-57395936D01*
X91574391Y-57358537D01*
X91638995Y-57340847D01*
X91711438Y-57347978D01*
X91778280Y-57388775D01*
X91831852Y-57456957D01*
X91858127Y-57520260D01*
X91866366Y-57569738D01*
X91873124Y-57650855D01*
X91878307Y-57755272D01*
X91881824Y-57874653D01*
X91883582Y-58000659D01*
X91883488Y-58124954D01*
X91881448Y-58239198D01*
X91877371Y-58335056D01*
X91871164Y-58404189D01*
X91868156Y-58422058D01*
X91834809Y-58500995D01*
X91765842Y-58583688D01*
X91763156Y-58586312D01*
X91712670Y-58638995D01*
X91685969Y-58680497D01*
X91675823Y-58724894D01*
X91674673Y-58758603D01*
X91680633Y-58826525D01*
X91701036Y-58880900D01*
X91739674Y-58923293D01*
X91800335Y-58955266D01*
X91886809Y-58978383D01*
X92002887Y-58994206D01*
X92152356Y-59004299D01*
X92281383Y-59008858D01*
X92482877Y-59010737D01*
X92649141Y-59004096D01*
X92784201Y-58988085D01*
X92892085Y-58961854D01*
X92976822Y-58924551D01*
X93042437Y-58875325D01*
X93072783Y-58841660D01*
X93103212Y-58790740D01*
X93111344Y-58737181D01*
X93096190Y-58672479D01*
X93056760Y-58588127D01*
X93039674Y-58557049D01*
X92964674Y-58423800D01*
X92957998Y-58002158D01*
X92956202Y-57833925D01*
X92957273Y-57700787D01*
X92962002Y-57597896D01*
X92971180Y-57520400D01*
X92985596Y-57463451D01*
X93006041Y-57422198D01*
X93033305Y-57391791D01*
X93060690Y-57371931D01*
X93141577Y-57341211D01*
X93220001Y-57347309D01*
X93289932Y-57387204D01*
X93345344Y-57457872D01*
X93373631Y-57528832D01*
X93380013Y-57571596D01*
X93385612Y-57646913D01*
X93390107Y-57747340D01*
X93393177Y-57865434D01*
X93394502Y-57993751D01*
X93394531Y-58013800D01*
X93394148Y-58156115D01*
X93392648Y-58264289D01*
X93389600Y-58344175D01*
X93384571Y-58401625D01*
X93377132Y-58442491D01*
X93366850Y-58472627D01*
X93359642Y-58487082D01*
X93327283Y-58545569D01*
X93289293Y-58614134D01*
X93278440Y-58633703D01*
X93245733Y-58718827D01*
X93249278Y-58793041D01*
X93289969Y-58857887D01*
X93368697Y-58914908D01*
X93466319Y-58958424D01*
X93514276Y-58974734D01*
X93561934Y-58986509D01*
X93617029Y-58994486D01*
X93687296Y-58999404D01*
X93780473Y-59001999D01*
X93904295Y-59003010D01*
X93934674Y-59003089D01*
X94098147Y-59001430D01*
X94227881Y-58994874D01*
X94329971Y-58982162D01*
X94410513Y-58962036D01*
X94475600Y-58933238D01*
X94531330Y-58894508D01*
X94552916Y-58875441D01*
X94599021Y-58826651D01*
X94624618Y-58780406D01*
X94629069Y-58729550D01*
X94611733Y-58666929D01*
X94571973Y-58585386D01*
X94518834Y-58493800D01*
X94464674Y-58403800D01*
X94444544Y-57083800D01*
X94390893Y-56981999D01*
X94309574Y-56860271D01*
X94208235Y-56768748D01*
X94083450Y-56705513D01*
X93931798Y-56668651D01*
X93811604Y-56657671D01*
X93659012Y-56659293D01*
X93524263Y-56680714D01*
X93398285Y-56725368D01*
X93272005Y-56796692D01*
X93136350Y-56898121D01*
X93102932Y-56926016D01*
X93041414Y-56975660D01*
X92989375Y-57013039D01*
X92955647Y-57031957D01*
X92950276Y-57033105D01*
X92927502Y-57017091D01*
X92891328Y-56975531D01*
X92849158Y-56917041D01*
X92844674Y-56910252D01*
X92778243Y-56822271D01*
X92706384Y-56758505D01*
X92654674Y-56725947D01*
X92606167Y-56699608D01*
X92564805Y-56682004D01*
X92520669Y-56671377D01*
X92463841Y-56665973D01*
X92384402Y-56664035D01*
X92303636Y-56663800D01*
X92201079Y-56664224D01*
X92127632Y-56666881D01*
X92072408Y-56673843D01*
X92024517Y-56687186D01*
X91973072Y-56708982D01*
X91913636Y-56738088D01*
X91821213Y-56791058D01*
X91722581Y-56858270D01*
X91639795Y-56924578D01*
X91563531Y-56989514D01*
X91509741Y-57023677D01*
X91474018Y-57025910D01*
X91451952Y-56995061D01*
X91439136Y-56929974D01*
X91433809Y-56870628D01*
X91425201Y-56792620D01*
X91412508Y-56727717D01*
X91398279Y-56688496D01*
X91396360Y-56685832D01*
X91358770Y-56663522D01*
X91292542Y-56654957D01*
X91194801Y-56660108D01*
X91062674Y-56678943D01*
X91044674Y-56682068D01*
X90817174Y-56728355D01*
X90620625Y-56781213D01*
X90456527Y-56839907D01*
X90326382Y-56903703D01*
X90231691Y-56971866D01*
X90173955Y-57043662D01*
X90154674Y-57117503D01*
X90163666Y-57163445D01*
X90194910Y-57211233D01*
X90243703Y-57260968D01*
X90284087Y-57301521D01*
X90315532Y-57342708D01*
X90339029Y-57389932D01*
X90355570Y-57448599D01*
X90366144Y-57524111D01*
X90371744Y-57621874D01*
X90373360Y-57747292D01*
X90371982Y-57905770D01*
X90371203Y-57956323D01*
X90368069Y-58113055D01*
X90363315Y-58235970D01*
X90355321Y-58331254D01*
X90342464Y-58405090D01*
X90323121Y-58463662D01*
X90295671Y-58513154D01*
X90258492Y-58559751D01*
X90209961Y-58609636D01*
X90196368Y-58622858D01*
X90143860Y-58680901D01*
X90119075Y-58729990D01*
X90114674Y-58765161D01*
X89734674Y-58765161D01*
X89734674Y-55673800D01*
X91633226Y-55673800D01*
G37*
G36*
X73275645Y-50011634D02*
G01*
X73686237Y-50011852D01*
X74056857Y-50012503D01*
X74387500Y-50013589D01*
X74678159Y-50015109D01*
X74928827Y-50017063D01*
X75139499Y-50019451D01*
X75310167Y-50022273D01*
X75440825Y-50025529D01*
X75531466Y-50029219D01*
X75581636Y-50033280D01*
X75854885Y-50091247D01*
X76117226Y-50187106D01*
X76366231Y-50319656D01*
X76599472Y-50487697D01*
X76723045Y-50597572D01*
X76915833Y-50808755D01*
X77075510Y-51040321D01*
X77201135Y-51288846D01*
X77291766Y-51550906D01*
X77346460Y-51823075D01*
X77364276Y-52101930D01*
X77344272Y-52384046D01*
X77288744Y-52654288D01*
X77244671Y-52785909D01*
X77182022Y-52933849D01*
X77107694Y-53084120D01*
X77028586Y-53222735D01*
X76954716Y-53331635D01*
X76761313Y-53554053D01*
X76544994Y-53744518D01*
X76307711Y-53901790D01*
X76051416Y-54024631D01*
X75778065Y-54111802D01*
X75695701Y-54130269D01*
X75662893Y-54136766D01*
X75630333Y-54142545D01*
X75595597Y-54147648D01*
X75556258Y-54152117D01*
X75509893Y-54155993D01*
X75454075Y-54159320D01*
X75386380Y-54162139D01*
X75304382Y-54164491D01*
X75205656Y-54166420D01*
X75087778Y-54167967D01*
X74948323Y-54169173D01*
X74784864Y-54170082D01*
X74594977Y-54170735D01*
X74376237Y-54171174D01*
X74126218Y-54171442D01*
X73842496Y-54171579D01*
X73522646Y-54171629D01*
X73308977Y-54171635D01*
X71125400Y-54171635D01*
X71125400Y-51723884D01*
X71505699Y-51723884D01*
X71513986Y-51777066D01*
X71542815Y-51824579D01*
X71598142Y-51873684D01*
X71665825Y-51919211D01*
X71717759Y-51960671D01*
X71756358Y-52006835D01*
X71760952Y-52015213D01*
X71777187Y-52072215D01*
X71788926Y-52160783D01*
X71796311Y-52272751D01*
X71799486Y-52399955D01*
X71798594Y-52534229D01*
X71793778Y-52667409D01*
X71785183Y-52791329D01*
X71772951Y-52897825D01*
X71757225Y-52978732D01*
X71743359Y-53017449D01*
X71716847Y-53053421D01*
X71670315Y-53103902D01*
X71618447Y-53153683D01*
X71563218Y-53206293D01*
X71532452Y-53245847D01*
X71519231Y-53284123D01*
X71516617Y-53327086D01*
X71530483Y-53406612D01*
X71573936Y-53471088D01*
X71649760Y-53522751D01*
X71760735Y-53563840D01*
X71833328Y-53581784D01*
X71906783Y-53592524D01*
X72010677Y-53600755D01*
X72135492Y-53606394D01*
X72271708Y-53609357D01*
X72409809Y-53609561D01*
X72540274Y-53606922D01*
X72653585Y-53601357D01*
X72740224Y-53592782D01*
X72758012Y-53589903D01*
X72891587Y-53553761D01*
X72997370Y-53500717D01*
X73072476Y-53433424D01*
X73114019Y-53354531D01*
X73119114Y-53266689D01*
X73117855Y-53259326D01*
X73096844Y-53204042D01*
X73051122Y-53158197D01*
X73024206Y-53139937D01*
X72941707Y-53064562D01*
X72900331Y-52995301D01*
X72889470Y-52970222D01*
X72880552Y-52944034D01*
X72873343Y-52912608D01*
X72867609Y-52871813D01*
X72863118Y-52817517D01*
X72859634Y-52745591D01*
X72856925Y-52651904D01*
X72854757Y-52532326D01*
X72852895Y-52382725D01*
X72851107Y-52198970D01*
X72850330Y-52111635D01*
X72848389Y-51909695D01*
X72846342Y-51744828D01*
X73207039Y-51744828D01*
X73209717Y-51778091D01*
X73221223Y-51808446D01*
X73246767Y-51842388D01*
X73291556Y-51886413D01*
X73360802Y-51947014D01*
X73387180Y-51969447D01*
X73457236Y-52028824D01*
X73451664Y-52495199D01*
X73448838Y-52669173D01*
X73444510Y-52807878D01*
X73437984Y-52916040D01*
X73428559Y-52998382D01*
X73415540Y-53059629D01*
X73398227Y-53104504D01*
X73375922Y-53137731D01*
X73353504Y-53159529D01*
X73289935Y-53214372D01*
X73251975Y-53254270D01*
X73233227Y-53288301D01*
X73227293Y-53325542D01*
X73227054Y-53338937D01*
X73246086Y-53421743D01*
X73300876Y-53493349D01*
X73387970Y-53550600D01*
X73501621Y-53589803D01*
X73558219Y-53597725D01*
X73645732Y-53603558D01*
X73755096Y-53607308D01*
X73877251Y-53608982D01*
X74003134Y-53608587D01*
X74123682Y-53606130D01*
X74229833Y-53601617D01*
X74312525Y-53595055D01*
X74351956Y-53589170D01*
X74488837Y-53548862D01*
X74589905Y-53493719D01*
X74654492Y-53424209D01*
X74679114Y-53360322D01*
X74679306Y-53311432D01*
X74658085Y-53255008D01*
X74628768Y-53205082D01*
X74595364Y-53147395D01*
X74569901Y-53088002D01*
X74551504Y-53020714D01*
X74539299Y-52939338D01*
X74532411Y-52837683D01*
X74529964Y-52709558D01*
X74531083Y-52548772D01*
X74531572Y-52517324D01*
X74535763Y-52350589D01*
X74543454Y-52219605D01*
X74556507Y-52120158D01*
X74576787Y-52048030D01*
X74606155Y-51999008D01*
X74646475Y-51968875D01*
X74699611Y-51953417D01*
X74767426Y-51948417D01*
X74783077Y-51948301D01*
X74876801Y-51962424D01*
X74952236Y-52005642D01*
X75009848Y-52079232D01*
X75050104Y-52184470D01*
X75073471Y-52322632D01*
X75080415Y-52494994D01*
X75071404Y-52702833D01*
X75069234Y-52730694D01*
X75056890Y-52872281D01*
X75044919Y-52980147D01*
X75031800Y-53060525D01*
X75016010Y-53119648D01*
X74996028Y-53163750D01*
X74970333Y-53199064D01*
X74949701Y-53220398D01*
X74893949Y-53295365D01*
X74876581Y-53372896D01*
X74896661Y-53448072D01*
X74953247Y-53515976D01*
X75013873Y-53556438D01*
X75043532Y-53571247D01*
X75073538Y-53582415D01*
X75109835Y-53590454D01*
X75158363Y-53595877D01*
X75225066Y-53599193D01*
X75315885Y-53600916D01*
X75436763Y-53601556D01*
X75538875Y-53601635D01*
X75691160Y-53601144D01*
X75809807Y-53599397D01*
X75901199Y-53595975D01*
X75971720Y-53590462D01*
X76027754Y-53582443D01*
X76075684Y-53571501D01*
X76097271Y-53565216D01*
X76209623Y-53518400D01*
X76285389Y-53459544D01*
X76323851Y-53390349D01*
X76324289Y-53312516D01*
X76285985Y-53227744D01*
X76256540Y-53188527D01*
X76217253Y-53139912D01*
X76186525Y-53094925D01*
X76163084Y-53047675D01*
X76145655Y-52992270D01*
X76132966Y-52922819D01*
X76123744Y-52833430D01*
X76116716Y-52718211D01*
X76110609Y-52571271D01*
X76108115Y-52501635D01*
X76097439Y-52272229D01*
X76082085Y-52078412D01*
X76060949Y-51915932D01*
X76032928Y-51780535D01*
X75996918Y-51667971D01*
X75951814Y-51573987D01*
X75896515Y-51494331D01*
X75829915Y-51424751D01*
X75828181Y-51423181D01*
X75743637Y-51355553D01*
X75658270Y-51308450D01*
X75561586Y-51278226D01*
X75443094Y-51261234D01*
X75345374Y-51255402D01*
X75207235Y-51253705D01*
X75098506Y-51262864D01*
X75009219Y-51286530D01*
X74929408Y-51328352D01*
X74849106Y-51391979D01*
X74774477Y-51464439D01*
X74703742Y-51532732D01*
X74644122Y-51582452D01*
X74601706Y-51608742D01*
X74590036Y-51611635D01*
X74545931Y-51593777D01*
X74519120Y-51542373D01*
X74511207Y-51460677D01*
X74511462Y-51452313D01*
X74499690Y-51363869D01*
X74473689Y-51315837D01*
X74448712Y-51287063D01*
X74420923Y-51271182D01*
X74378586Y-51264856D01*
X74309966Y-51264750D01*
X74295238Y-51265100D01*
X74195105Y-51274506D01*
X74075369Y-51296690D01*
X73942872Y-51329266D01*
X73804455Y-51369846D01*
X73666961Y-51416040D01*
X73537229Y-51465462D01*
X73422103Y-51515723D01*
X73328424Y-51564436D01*
X73263033Y-51609212D01*
X73240091Y-51633382D01*
X73215961Y-51688276D01*
X73207039Y-51744828D01*
X72846342Y-51744828D01*
X72846332Y-51744050D01*
X72843987Y-51610992D01*
X72841182Y-51506815D01*
X72837744Y-51427812D01*
X72833502Y-51370278D01*
X72828282Y-51330507D01*
X72821912Y-51304791D01*
X72814220Y-51289425D01*
X72811952Y-51286635D01*
X72776525Y-51264275D01*
X72718332Y-51253639D01*
X72633469Y-51254766D01*
X72518032Y-51267697D01*
X72374881Y-51291245D01*
X72133084Y-51341180D01*
X71930847Y-51396251D01*
X71768017Y-51456532D01*
X71644445Y-51522100D01*
X71559980Y-51593029D01*
X71514471Y-51669394D01*
X71505699Y-51723884D01*
X71125400Y-51723884D01*
X71125400Y-50795325D01*
X71545730Y-50795325D01*
X71562748Y-50900835D01*
X71612696Y-50985525D01*
X71693919Y-51048713D01*
X71804761Y-51089720D01*
X71943567Y-51107866D01*
X72108681Y-51102472D01*
X72246282Y-51083023D01*
X72428969Y-51039475D01*
X72578799Y-50981486D01*
X72694514Y-50909967D01*
X72774856Y-50825833D01*
X72818567Y-50729998D01*
X72826739Y-50661634D01*
X72811741Y-50566153D01*
X72764755Y-50490863D01*
X72682797Y-50431435D01*
X72660307Y-50420307D01*
X72547962Y-50385682D01*
X72410766Y-50371427D01*
X72257846Y-50376756D01*
X72098326Y-50400888D01*
X71941332Y-50443039D01*
X71815943Y-50492799D01*
X71695299Y-50559011D01*
X71611913Y-50628246D01*
X71563011Y-50703610D01*
X71545819Y-50788207D01*
X71545730Y-50795325D01*
X71125400Y-50795325D01*
X71125400Y-50011635D01*
X73275645Y-50011634D01*
G37*
X137675400Y-53574600D02*
X137675400Y-54724600D01*
X137675400Y-54724600D02*
X130375400Y-54724600D01*
X137675400Y-49224600D02*
X130375400Y-49224600D01*
X89875400Y-59374600D02*
X89875400Y-60524600D01*
X89875400Y-60524600D02*
X82575400Y-60524600D01*
X89875400Y-55024600D02*
X82575400Y-55024600D01*
G36*
X79421001Y-55704928D02*
G01*
X79613378Y-55758110D01*
X79890791Y-55854242D01*
X80146280Y-55981889D01*
X80377923Y-56138560D01*
X80583795Y-56321764D01*
X80761972Y-56529009D01*
X80910529Y-56757803D01*
X81027543Y-57005657D01*
X81111090Y-57270078D01*
X81159246Y-57548574D01*
X81171000Y-57774927D01*
X81151918Y-58060518D01*
X81096169Y-58334678D01*
X81006000Y-58594727D01*
X80883657Y-58837980D01*
X80731387Y-59061757D01*
X80551437Y-59263375D01*
X80346054Y-59440151D01*
X80117484Y-59589404D01*
X79867974Y-59708450D01*
X79599771Y-59794608D01*
X79453381Y-59825572D01*
X79429203Y-59829055D01*
X79397006Y-59832259D01*
X79355177Y-59835195D01*
X79302101Y-59837874D01*
X79236166Y-59840307D01*
X79155756Y-59842506D01*
X79059258Y-59844481D01*
X78945059Y-59846244D01*
X78811544Y-59847806D01*
X78657100Y-59849178D01*
X78480112Y-59850371D01*
X78278966Y-59851397D01*
X78052050Y-59852266D01*
X77797748Y-59852990D01*
X77514448Y-59853580D01*
X77200535Y-59854046D01*
X76854395Y-59854401D01*
X76474415Y-59854656D01*
X76058980Y-59854821D01*
X75606477Y-59854907D01*
X75208381Y-59854928D01*
X71131001Y-59854928D01*
X71131001Y-58806289D01*
X71331000Y-58806289D01*
X71343457Y-58874665D01*
X71383167Y-58931190D01*
X71453643Y-58978538D01*
X71558396Y-59019385D01*
X71641001Y-59042344D01*
X71672856Y-59045212D01*
X71737785Y-59047269D01*
X71828870Y-59048429D01*
X71939191Y-59048607D01*
X72061829Y-59047719D01*
X72071001Y-59047611D01*
X72207529Y-59045647D01*
X72311066Y-59043014D01*
X72388621Y-59038972D01*
X72447203Y-59032780D01*
X72493821Y-59023698D01*
X72535484Y-59010985D01*
X72579171Y-58993913D01*
X72676342Y-58944568D01*
X72738849Y-58888444D01*
X72768502Y-58820264D01*
X72767110Y-58734748D01*
X72736482Y-58626619D01*
X72719756Y-58583827D01*
X72701138Y-58537603D01*
X72687071Y-58497286D01*
X72676906Y-58456379D01*
X72669992Y-58408386D01*
X72665679Y-58346811D01*
X72663316Y-58265156D01*
X72662254Y-58156925D01*
X72661843Y-58015621D01*
X72661823Y-58004928D01*
X72661933Y-57856696D01*
X72663132Y-57742927D01*
X72665780Y-57658091D01*
X72670241Y-57596657D01*
X72676877Y-57553095D01*
X72686050Y-57521875D01*
X72694682Y-57503471D01*
X72739531Y-57437064D01*
X72790718Y-57399665D01*
X72855322Y-57381975D01*
X72927765Y-57389106D01*
X72994607Y-57429903D01*
X73048179Y-57498085D01*
X73074454Y-57561388D01*
X73082693Y-57610866D01*
X73089451Y-57691983D01*
X73094634Y-57796400D01*
X73098151Y-57915781D01*
X73099909Y-58041787D01*
X73099815Y-58166082D01*
X73097775Y-58280326D01*
X73093698Y-58376184D01*
X73087491Y-58445317D01*
X73084483Y-58463186D01*
X73051136Y-58542123D01*
X72982169Y-58624816D01*
X72979483Y-58627440D01*
X72928997Y-58680123D01*
X72902296Y-58721625D01*
X72892150Y-58766022D01*
X72891000Y-58799731D01*
X72896960Y-58867653D01*
X72917363Y-58922028D01*
X72956001Y-58964421D01*
X73016662Y-58996394D01*
X73103136Y-59019511D01*
X73219214Y-59035334D01*
X73368683Y-59045427D01*
X73497710Y-59049986D01*
X73699204Y-59051865D01*
X73865468Y-59045224D01*
X74000528Y-59029213D01*
X74108412Y-59002982D01*
X74193149Y-58965679D01*
X74258764Y-58916453D01*
X74289110Y-58882788D01*
X74319539Y-58831868D01*
X74327671Y-58778309D01*
X74312517Y-58713607D01*
X74273087Y-58629255D01*
X74256001Y-58598177D01*
X74181001Y-58464928D01*
X74174325Y-58043286D01*
X74172529Y-57875053D01*
X74173600Y-57741915D01*
X74178329Y-57639024D01*
X74187507Y-57561528D01*
X74201923Y-57504579D01*
X74222368Y-57463326D01*
X74249632Y-57432919D01*
X74277017Y-57413059D01*
X74357904Y-57382339D01*
X74436328Y-57388437D01*
X74506259Y-57428332D01*
X74561671Y-57499000D01*
X74589958Y-57569960D01*
X74596340Y-57612724D01*
X74601939Y-57688041D01*
X74606434Y-57788468D01*
X74609504Y-57906562D01*
X74610829Y-58034879D01*
X74610858Y-58054928D01*
X74610475Y-58197243D01*
X74608975Y-58305417D01*
X74605927Y-58385303D01*
X74600898Y-58442753D01*
X74593459Y-58483619D01*
X74583177Y-58513755D01*
X74575969Y-58528210D01*
X74543610Y-58586697D01*
X74505620Y-58655262D01*
X74494767Y-58674831D01*
X74462060Y-58759955D01*
X74465605Y-58834169D01*
X74506296Y-58899015D01*
X74585024Y-58956036D01*
X74682646Y-58999552D01*
X74730603Y-59015862D01*
X74778261Y-59027637D01*
X74833356Y-59035614D01*
X74903623Y-59040532D01*
X74996800Y-59043127D01*
X75120622Y-59044138D01*
X75151001Y-59044217D01*
X75314474Y-59042558D01*
X75444208Y-59036002D01*
X75546298Y-59023290D01*
X75626840Y-59003164D01*
X75691927Y-58974366D01*
X75747657Y-58935636D01*
X75769243Y-58916569D01*
X75815348Y-58867779D01*
X75840945Y-58821534D01*
X75842279Y-58806289D01*
X75931001Y-58806289D01*
X75943457Y-58874665D01*
X75983167Y-58931190D01*
X76053643Y-58978538D01*
X76158396Y-59019385D01*
X76241001Y-59042344D01*
X76272856Y-59045212D01*
X76337785Y-59047269D01*
X76428870Y-59048429D01*
X76539191Y-59048607D01*
X76661829Y-59047719D01*
X76671001Y-59047611D01*
X76807529Y-59045647D01*
X76911066Y-59043014D01*
X76988621Y-59038972D01*
X77047203Y-59032780D01*
X77093821Y-59023698D01*
X77135484Y-59010985D01*
X77179171Y-58993913D01*
X77276342Y-58944568D01*
X77338849Y-58888444D01*
X77368502Y-58820264D01*
X77367110Y-58734748D01*
X77336482Y-58626619D01*
X77319756Y-58583827D01*
X77301138Y-58537603D01*
X77287071Y-58497286D01*
X77276906Y-58456379D01*
X77269992Y-58408386D01*
X77265679Y-58346811D01*
X77263316Y-58265156D01*
X77262254Y-58156925D01*
X77261843Y-58015621D01*
X77261823Y-58004928D01*
X77261933Y-57856696D01*
X77263132Y-57742927D01*
X77265780Y-57658091D01*
X77270241Y-57596657D01*
X77276877Y-57553095D01*
X77286050Y-57521875D01*
X77294682Y-57503471D01*
X77339531Y-57437064D01*
X77390718Y-57399665D01*
X77455322Y-57381975D01*
X77527765Y-57389106D01*
X77594607Y-57429903D01*
X77648179Y-57498085D01*
X77674454Y-57561388D01*
X77682693Y-57610866D01*
X77689451Y-57691983D01*
X77694634Y-57796400D01*
X77698151Y-57915781D01*
X77699909Y-58041787D01*
X77699815Y-58166082D01*
X77697775Y-58280326D01*
X77693698Y-58376184D01*
X77687491Y-58445317D01*
X77684483Y-58463186D01*
X77651136Y-58542123D01*
X77582169Y-58624816D01*
X77579483Y-58627440D01*
X77528997Y-58680123D01*
X77502296Y-58721625D01*
X77492150Y-58766022D01*
X77491001Y-58799731D01*
X77496960Y-58867653D01*
X77517363Y-58922028D01*
X77556001Y-58964421D01*
X77616662Y-58996394D01*
X77703136Y-59019511D01*
X77819214Y-59035334D01*
X77968683Y-59045427D01*
X78097710Y-59049986D01*
X78299204Y-59051865D01*
X78465468Y-59045224D01*
X78600528Y-59029213D01*
X78708412Y-59002982D01*
X78793149Y-58965679D01*
X78858764Y-58916453D01*
X78889110Y-58882788D01*
X78919539Y-58831868D01*
X78927671Y-58778309D01*
X78912517Y-58713607D01*
X78873087Y-58629255D01*
X78856001Y-58598177D01*
X78781001Y-58464928D01*
X78774325Y-58043286D01*
X78772529Y-57875053D01*
X78773600Y-57741915D01*
X78778329Y-57639024D01*
X78787507Y-57561528D01*
X78801923Y-57504579D01*
X78822368Y-57463326D01*
X78849632Y-57432919D01*
X78877017Y-57413059D01*
X78957904Y-57382339D01*
X79036328Y-57388437D01*
X79106259Y-57428332D01*
X79161671Y-57499000D01*
X79189958Y-57569960D01*
X79196340Y-57612724D01*
X79201939Y-57688041D01*
X79206434Y-57788468D01*
X79209504Y-57906562D01*
X79210829Y-58034879D01*
X79210858Y-58054928D01*
X79210475Y-58197243D01*
X79208975Y-58305417D01*
X79205927Y-58385303D01*
X79200898Y-58442753D01*
X79193459Y-58483619D01*
X79183177Y-58513755D01*
X79175969Y-58528210D01*
X79143610Y-58586697D01*
X79105620Y-58655262D01*
X79094767Y-58674831D01*
X79062060Y-58759955D01*
X79065605Y-58834169D01*
X79106296Y-58899015D01*
X79185024Y-58956036D01*
X79282646Y-58999552D01*
X79330603Y-59015862D01*
X79378261Y-59027637D01*
X79433356Y-59035614D01*
X79503623Y-59040532D01*
X79596800Y-59043127D01*
X79720622Y-59044138D01*
X79751001Y-59044217D01*
X79914474Y-59042558D01*
X80044208Y-59036002D01*
X80146298Y-59023290D01*
X80226840Y-59003164D01*
X80291927Y-58974366D01*
X80347657Y-58935636D01*
X80369243Y-58916569D01*
X80415348Y-58867779D01*
X80440945Y-58821534D01*
X80445396Y-58770678D01*
X80428060Y-58708057D01*
X80388300Y-58626514D01*
X80335161Y-58534928D01*
X80281001Y-58444928D01*
X80260871Y-57124928D01*
X80207220Y-57023127D01*
X80125901Y-56901399D01*
X80024562Y-56809876D01*
X79899777Y-56746641D01*
X79748125Y-56709779D01*
X79627931Y-56698799D01*
X79475339Y-56700421D01*
X79340590Y-56721842D01*
X79214612Y-56766496D01*
X79088332Y-56837820D01*
X78952677Y-56939249D01*
X78919259Y-56967144D01*
X78857741Y-57016788D01*
X78805702Y-57054167D01*
X78771974Y-57073085D01*
X78766603Y-57074233D01*
X78743829Y-57058219D01*
X78707655Y-57016659D01*
X78665485Y-56958169D01*
X78661001Y-56951380D01*
X78594570Y-56863399D01*
X78522711Y-56799633D01*
X78471001Y-56767075D01*
X78422494Y-56740736D01*
X78381132Y-56723132D01*
X78336996Y-56712505D01*
X78280168Y-56707101D01*
X78200729Y-56705163D01*
X78119963Y-56704928D01*
X78017406Y-56705352D01*
X77943959Y-56708009D01*
X77888735Y-56714971D01*
X77840844Y-56728314D01*
X77789399Y-56750110D01*
X77729963Y-56779216D01*
X77637304Y-56832275D01*
X77538856Y-56899305D01*
X77457794Y-56964216D01*
X77377401Y-57031104D01*
X77319097Y-57066843D01*
X77280959Y-57072277D01*
X77261583Y-57049928D01*
X77256222Y-57018156D01*
X77250162Y-56959447D01*
X77244972Y-56890305D01*
X77237044Y-56816911D01*
X77224605Y-56757033D01*
X77211314Y-56725305D01*
X77172384Y-56703604D01*
X77102049Y-56696082D01*
X76998298Y-56702727D01*
X76861001Y-56723196D01*
X76633501Y-56769483D01*
X76436952Y-56822341D01*
X76272854Y-56881035D01*
X76142709Y-56944831D01*
X76048018Y-57012994D01*
X75990282Y-57084790D01*
X75971001Y-57158631D01*
X75979993Y-57204573D01*
X76011237Y-57252361D01*
X76060030Y-57302096D01*
X76100414Y-57342649D01*
X76131859Y-57383836D01*
X76155356Y-57431060D01*
X76171897Y-57489727D01*
X76182471Y-57565239D01*
X76188071Y-57663002D01*
X76189687Y-57788420D01*
X76188309Y-57946898D01*
X76187530Y-57997451D01*
X76184396Y-58154183D01*
X76179642Y-58277098D01*
X76171648Y-58372382D01*
X76158791Y-58446218D01*
X76139448Y-58504790D01*
X76111998Y-58554282D01*
X76074819Y-58600879D01*
X76026288Y-58650764D01*
X76012695Y-58663986D01*
X75960187Y-58722029D01*
X75935402Y-58771118D01*
X75931001Y-58806289D01*
X75842279Y-58806289D01*
X75845396Y-58770678D01*
X75828060Y-58708057D01*
X75788300Y-58626514D01*
X75735161Y-58534928D01*
X75681001Y-58444928D01*
X75660871Y-57124928D01*
X75607220Y-57023127D01*
X75525901Y-56901399D01*
X75424562Y-56809876D01*
X75299777Y-56746641D01*
X75148125Y-56709779D01*
X75027931Y-56698799D01*
X74875339Y-56700421D01*
X74740590Y-56721842D01*
X74614612Y-56766496D01*
X74488332Y-56837820D01*
X74352677Y-56939249D01*
X74319259Y-56967144D01*
X74257741Y-57016788D01*
X74205702Y-57054167D01*
X74171974Y-57073085D01*
X74166603Y-57074233D01*
X74143829Y-57058219D01*
X74107655Y-57016659D01*
X74065485Y-56958169D01*
X74061001Y-56951380D01*
X73994570Y-56863399D01*
X73922711Y-56799633D01*
X73871001Y-56767075D01*
X73822494Y-56740736D01*
X73781132Y-56723132D01*
X73736996Y-56712505D01*
X73680168Y-56707101D01*
X73600729Y-56705163D01*
X73519963Y-56704928D01*
X73417406Y-56705352D01*
X73343959Y-56708009D01*
X73288735Y-56714971D01*
X73240844Y-56728314D01*
X73189399Y-56750110D01*
X73129963Y-56779216D01*
X73037540Y-56832186D01*
X72938908Y-56899398D01*
X72856122Y-56965706D01*
X72779858Y-57030642D01*
X72726068Y-57064805D01*
X72690345Y-57067038D01*
X72668279Y-57036189D01*
X72655463Y-56971102D01*
X72650136Y-56911756D01*
X72641528Y-56833748D01*
X72628835Y-56768845D01*
X72614606Y-56729624D01*
X72612687Y-56726960D01*
X72575097Y-56704650D01*
X72508869Y-56696085D01*
X72411128Y-56701236D01*
X72279001Y-56720071D01*
X72261001Y-56723196D01*
X72033501Y-56769483D01*
X71836952Y-56822341D01*
X71672854Y-56881035D01*
X71542709Y-56944831D01*
X71448018Y-57012994D01*
X71390282Y-57084790D01*
X71371001Y-57158631D01*
X71379993Y-57204573D01*
X71411237Y-57252361D01*
X71460030Y-57302096D01*
X71500414Y-57342649D01*
X71531859Y-57383836D01*
X71555356Y-57431060D01*
X71571897Y-57489727D01*
X71582471Y-57565239D01*
X71588071Y-57663002D01*
X71589687Y-57788420D01*
X71588309Y-57946898D01*
X71587530Y-57997451D01*
X71584396Y-58154183D01*
X71579642Y-58277098D01*
X71571648Y-58372382D01*
X71558791Y-58446218D01*
X71539448Y-58504790D01*
X71511998Y-58554282D01*
X71474819Y-58600879D01*
X71426288Y-58650764D01*
X71412695Y-58663986D01*
X71360187Y-58722029D01*
X71335402Y-58771118D01*
X71331000Y-58806289D01*
X71131001Y-58806289D01*
X71131001Y-55694280D01*
X79421001Y-55704928D01*
G37*
G36*
X138595199Y-50447035D02*
G01*
X138663212Y-50478467D01*
X138713854Y-50537473D01*
X138745232Y-50614741D01*
X138755452Y-50700963D01*
X138742620Y-50786826D01*
X138704843Y-50863020D01*
X138684584Y-50886478D01*
X138622684Y-50925889D01*
X138545986Y-50945000D01*
X138473346Y-50939772D01*
X138459264Y-50934732D01*
X138393435Y-50889656D01*
X138352838Y-50819776D01*
X138334590Y-50720069D01*
X138334383Y-50716958D01*
X138333851Y-50636865D01*
X138346707Y-50578611D01*
X138367120Y-50538935D01*
X138425056Y-50481489D01*
X138504274Y-50448738D01*
X138590920Y-50446264D01*
X138595199Y-50447035D01*
G37*
G36*
X139744264Y-49897446D02*
G01*
X141959264Y-49903513D01*
X142128738Y-49950665D01*
X142412579Y-50048695D01*
X142672974Y-50177178D01*
X142908228Y-50333934D01*
X143116645Y-50516780D01*
X143296528Y-50723535D01*
X143446182Y-50952020D01*
X143563909Y-51200051D01*
X143648014Y-51465448D01*
X143696801Y-51746030D01*
X143709263Y-51983118D01*
X143690020Y-52266496D01*
X143633691Y-52539145D01*
X143542383Y-52798352D01*
X143418200Y-53041400D01*
X143263246Y-53265575D01*
X143079625Y-53468162D01*
X142869444Y-53646446D01*
X142634806Y-53797712D01*
X142377815Y-53919245D01*
X142149264Y-53995532D01*
X141979264Y-54042252D01*
X139754264Y-54047982D01*
X137529264Y-54053713D01*
X137529264Y-53470452D01*
X139629264Y-53470452D01*
X139635328Y-53544216D01*
X139655622Y-53605310D01*
X139693296Y-53654835D01*
X139751501Y-53693890D01*
X139833387Y-53723574D01*
X139942105Y-53744989D01*
X140080805Y-53759234D01*
X140252639Y-53767410D01*
X140460757Y-53770616D01*
X140489264Y-53770721D01*
X140629429Y-53770171D01*
X140765174Y-53767952D01*
X140888259Y-53764328D01*
X140990444Y-53759560D01*
X141063490Y-53753909D01*
X141079264Y-53751972D01*
X141240658Y-53722687D01*
X141367926Y-53685944D01*
X141458777Y-53642466D01*
X141483560Y-53624085D01*
X141518531Y-53587136D01*
X141534991Y-53544839D01*
X141539257Y-53480465D01*
X141539264Y-53476539D01*
X141529822Y-53391919D01*
X141497496Y-53333387D01*
X141436279Y-53293837D01*
X141366440Y-53272030D01*
X141258380Y-53230789D01*
X141179103Y-53167327D01*
X141132470Y-53084836D01*
X141129960Y-53076422D01*
X141120307Y-53020537D01*
X141113567Y-52938784D01*
X141109655Y-52839699D01*
X141108482Y-52731817D01*
X141109964Y-52623674D01*
X141114013Y-52523807D01*
X141120544Y-52440750D01*
X141129468Y-52383040D01*
X141137202Y-52362144D01*
X141180717Y-52333434D01*
X141247537Y-52322850D01*
X141326398Y-52328393D01*
X141406037Y-52348066D01*
X141475190Y-52379869D01*
X141522594Y-52421805D01*
X141528668Y-52431595D01*
X141542861Y-52469714D01*
X141560795Y-52533737D01*
X141578743Y-52610269D01*
X141579841Y-52615454D01*
X141605206Y-52714857D01*
X141634423Y-52780134D01*
X141671911Y-52817154D01*
X141722087Y-52831788D01*
X141743356Y-52832708D01*
X141832320Y-52818007D01*
X141905388Y-52771456D01*
X141967941Y-52689381D01*
X141977092Y-52673150D01*
X142022150Y-52566370D01*
X142055297Y-52438241D01*
X142076842Y-52295322D01*
X142087097Y-52144171D01*
X142086373Y-51991349D01*
X142074979Y-51843414D01*
X142053227Y-51706925D01*
X142021428Y-51588441D01*
X141979891Y-51494522D01*
X141928928Y-51431725D01*
X141917916Y-51423663D01*
X141866770Y-51403353D01*
X141801360Y-51393033D01*
X141789058Y-51392708D01*
X141712656Y-51406064D01*
X141653409Y-51448653D01*
X141607498Y-51524249D01*
X141581460Y-51598113D01*
X141545903Y-51690551D01*
X141498409Y-51749784D01*
X141430904Y-51781792D01*
X141335317Y-51792555D01*
X141318782Y-51792707D01*
X141234837Y-51788448D01*
X141178314Y-51773917D01*
X141146479Y-51754441D01*
X141124362Y-51733775D01*
X141110862Y-51709388D01*
X141104268Y-51672054D01*
X141102867Y-51612550D01*
X141104719Y-51529441D01*
X141112084Y-51382581D01*
X141125381Y-51269913D01*
X141145945Y-51185896D01*
X141175108Y-51124987D01*
X141212069Y-51083416D01*
X141242411Y-51060360D01*
X141273724Y-51045584D01*
X141315571Y-51037266D01*
X141377515Y-51033582D01*
X141469118Y-51032710D01*
X141478068Y-51032708D01*
X141674526Y-51040547D01*
X141839262Y-51065401D01*
X141977634Y-51109276D01*
X142094995Y-51174175D01*
X142196703Y-51262104D01*
X142247761Y-51320819D01*
X142326100Y-51408753D01*
X142396912Y-51463081D01*
X142466910Y-51487574D01*
X142542074Y-51486126D01*
X142631246Y-51453345D01*
X142697515Y-51389139D01*
X142739182Y-51295999D01*
X142754546Y-51176420D01*
X142754567Y-51174529D01*
X142745327Y-51043856D01*
X142717425Y-50912757D01*
X142674212Y-50788235D01*
X142619038Y-50677290D01*
X142555251Y-50586922D01*
X142486202Y-50524134D01*
X142431321Y-50498927D01*
X142398731Y-50496424D01*
X142331639Y-50495641D01*
X142235500Y-50496488D01*
X142115772Y-50498873D01*
X141977910Y-50502707D01*
X141827372Y-50507899D01*
X141779453Y-50509751D01*
X141510738Y-50518755D01*
X141272594Y-50523030D01*
X141055875Y-50522610D01*
X140851436Y-50517531D01*
X140759264Y-50513652D01*
X140543144Y-50503964D01*
X140363131Y-50497255D01*
X140215437Y-50493601D01*
X140096274Y-50493081D01*
X140001854Y-50495770D01*
X139928388Y-50501746D01*
X139872089Y-50511086D01*
X139829170Y-50523866D01*
X139808759Y-50532965D01*
X139724223Y-50593487D01*
X139674547Y-50669759D01*
X139661264Y-50743433D01*
X139666657Y-50794830D01*
X139687328Y-50836211D01*
X139730012Y-50875544D01*
X139801443Y-50920794D01*
X139820289Y-50931548D01*
X139888231Y-50975581D01*
X139936735Y-51024067D01*
X139970314Y-51085626D01*
X139993482Y-51168878D01*
X140010754Y-51282441D01*
X140012693Y-51298933D01*
X140018138Y-51371078D01*
X140022031Y-51474798D01*
X140024460Y-51604040D01*
X140025513Y-51752751D01*
X140025275Y-51914879D01*
X140023835Y-52084370D01*
X140021279Y-52255172D01*
X140017695Y-52421232D01*
X140013170Y-52576497D01*
X140007790Y-52714914D01*
X140001644Y-52830431D01*
X139994818Y-52916995D01*
X139988741Y-52962304D01*
X139964943Y-53063461D01*
X139935084Y-53135118D01*
X139891969Y-53187758D01*
X139828403Y-53231866D01*
X139789523Y-53252577D01*
X139709648Y-53297862D01*
X139661035Y-53341325D01*
X139636617Y-53392574D01*
X139629324Y-53461218D01*
X139629264Y-53470452D01*
X137529264Y-53470452D01*
X137529264Y-50700864D01*
X137849263Y-50700864D01*
X137862839Y-50829692D01*
X137905608Y-50933861D01*
X137980637Y-51018999D01*
X138048763Y-51067165D01*
X138124234Y-51108301D01*
X138197923Y-51137040D01*
X138279838Y-51155521D01*
X138379986Y-51165886D01*
X138508376Y-51170275D01*
X138532157Y-51170566D01*
X138656639Y-51168895D01*
X138754962Y-51160046D01*
X138840556Y-51142551D01*
X138872347Y-51133390D01*
X139013122Y-51074185D01*
X139121737Y-50994721D01*
X139196751Y-50897322D01*
X139236720Y-50784315D01*
X139240204Y-50658026D01*
X139222055Y-50569349D01*
X139168851Y-50454746D01*
X139083008Y-50361627D01*
X138966068Y-50290696D01*
X138819571Y-50242661D01*
X138645058Y-50218226D01*
X138453970Y-50217556D01*
X138284598Y-50235702D01*
X138147184Y-50271684D01*
X138037127Y-50327100D01*
X137964639Y-50387579D01*
X137905403Y-50457841D01*
X137869844Y-50528038D01*
X137852874Y-50611984D01*
X137849263Y-50700864D01*
X137529264Y-50700864D01*
X137529264Y-49891380D01*
X139744264Y-49897446D01*
G37*
G36*
X106713844Y-49887849D02*
G01*
X107104395Y-49887906D01*
X107457032Y-49888018D01*
X107773840Y-49888210D01*
X108056904Y-49888509D01*
X108308308Y-49888942D01*
X108530139Y-49889534D01*
X108724482Y-49890313D01*
X108893422Y-49891304D01*
X109039044Y-49892535D01*
X109163434Y-49894030D01*
X109268676Y-49895817D01*
X109356857Y-49897923D01*
X109430061Y-49900373D01*
X109490374Y-49903193D01*
X109539881Y-49906411D01*
X109580667Y-49910052D01*
X109614818Y-49914143D01*
X109644419Y-49918711D01*
X109671554Y-49923781D01*
X109679277Y-49925353D01*
X109953299Y-50001698D01*
X110209912Y-50112855D01*
X110446784Y-50256587D01*
X110661584Y-50430657D01*
X110851981Y-50632828D01*
X111015643Y-50860862D01*
X111150239Y-51112523D01*
X111253438Y-51385572D01*
X111273624Y-51455320D01*
X111290410Y-51522209D01*
X111302361Y-51586067D01*
X111310221Y-51655725D01*
X111314735Y-51740014D01*
X111316645Y-51847764D01*
X111316768Y-51967587D01*
X111315553Y-52105633D01*
X111312390Y-52212374D01*
X111306533Y-52296485D01*
X111297235Y-52366643D01*
X111283751Y-52431523D01*
X111273458Y-52471095D01*
X111177436Y-52749333D01*
X111049465Y-53006259D01*
X110891926Y-53239779D01*
X110707200Y-53447800D01*
X110497667Y-53628230D01*
X110265706Y-53778975D01*
X110013699Y-53897941D01*
X109744024Y-53983037D01*
X109504217Y-54026982D01*
X109457435Y-54030229D01*
X109371438Y-54033216D01*
X109247010Y-54035938D01*
X109084933Y-54038389D01*
X108885992Y-54040564D01*
X108650970Y-54042457D01*
X108380651Y-54044062D01*
X108075820Y-54045374D01*
X107737258Y-54046387D01*
X107365751Y-54047096D01*
X106962082Y-54047495D01*
X106634368Y-54047587D01*
X103928844Y-54047587D01*
X103928844Y-53198948D01*
X104128843Y-53198948D01*
X104141300Y-53267324D01*
X104181010Y-53323849D01*
X104251486Y-53371197D01*
X104356239Y-53412044D01*
X104438844Y-53435003D01*
X104470699Y-53437871D01*
X104535628Y-53439928D01*
X104626713Y-53441088D01*
X104737034Y-53441266D01*
X104859672Y-53440378D01*
X104868844Y-53440270D01*
X105005372Y-53438306D01*
X105108909Y-53435673D01*
X105186464Y-53431631D01*
X105245046Y-53425439D01*
X105291664Y-53416357D01*
X105333327Y-53403644D01*
X105377014Y-53386572D01*
X105474185Y-53337227D01*
X105536692Y-53281103D01*
X105566345Y-53212923D01*
X105564953Y-53127407D01*
X105534325Y-53019278D01*
X105517599Y-52976486D01*
X105498981Y-52930262D01*
X105484914Y-52889945D01*
X105474749Y-52849038D01*
X105467835Y-52801045D01*
X105463522Y-52739470D01*
X105461159Y-52657815D01*
X105460097Y-52549584D01*
X105459686Y-52408280D01*
X105459666Y-52397587D01*
X105459776Y-52249355D01*
X105460975Y-52135586D01*
X105463623Y-52050750D01*
X105468084Y-51989316D01*
X105474720Y-51945754D01*
X105483893Y-51914534D01*
X105492525Y-51896130D01*
X105537374Y-51829723D01*
X105588561Y-51792324D01*
X105653165Y-51774634D01*
X105725608Y-51781765D01*
X105792450Y-51822562D01*
X105846022Y-51890744D01*
X105872297Y-51954047D01*
X105880536Y-52003525D01*
X105887294Y-52084642D01*
X105892477Y-52189059D01*
X105895994Y-52308440D01*
X105897752Y-52434446D01*
X105897658Y-52558741D01*
X105895618Y-52672985D01*
X105891541Y-52768843D01*
X105885334Y-52837976D01*
X105882326Y-52855845D01*
X105848979Y-52934782D01*
X105780012Y-53017475D01*
X105777326Y-53020099D01*
X105726840Y-53072782D01*
X105700139Y-53114284D01*
X105689993Y-53158681D01*
X105688843Y-53192390D01*
X105694803Y-53260312D01*
X105715206Y-53314687D01*
X105753844Y-53357080D01*
X105814505Y-53389053D01*
X105900979Y-53412170D01*
X106017057Y-53427993D01*
X106166526Y-53438086D01*
X106295553Y-53442645D01*
X106497047Y-53444524D01*
X106663311Y-53437883D01*
X106798371Y-53421872D01*
X106906255Y-53395641D01*
X106990992Y-53358338D01*
X107056607Y-53309112D01*
X107086953Y-53275447D01*
X107117382Y-53224527D01*
X107125514Y-53170968D01*
X107110360Y-53106266D01*
X107070930Y-53021914D01*
X107053844Y-52990836D01*
X106978844Y-52857587D01*
X106972168Y-52435945D01*
X106970372Y-52267712D01*
X106971443Y-52134574D01*
X106976172Y-52031683D01*
X106985350Y-51954187D01*
X106999766Y-51897238D01*
X107020211Y-51855985D01*
X107047475Y-51825578D01*
X107074860Y-51805718D01*
X107155747Y-51774998D01*
X107234171Y-51781096D01*
X107304102Y-51820991D01*
X107359514Y-51891659D01*
X107387801Y-51962619D01*
X107394093Y-52005044D01*
X107399632Y-52080178D01*
X107404113Y-52180731D01*
X107407227Y-52299415D01*
X107408669Y-52428940D01*
X107408732Y-52459796D01*
X107408640Y-52600133D01*
X107407883Y-52706389D01*
X107405870Y-52784480D01*
X107402007Y-52840325D01*
X107395700Y-52879840D01*
X107386357Y-52908944D01*
X107373386Y-52933554D01*
X107359072Y-52955347D01*
X107293268Y-53065287D01*
X107260872Y-53155488D01*
X107262933Y-53229723D01*
X107300500Y-53291766D01*
X107374622Y-53345391D01*
X107480489Y-53392211D01*
X107528446Y-53408521D01*
X107576104Y-53420296D01*
X107631199Y-53428273D01*
X107701466Y-53433191D01*
X107794643Y-53435786D01*
X107918465Y-53436797D01*
X107948844Y-53436876D01*
X108112317Y-53435217D01*
X108242051Y-53428661D01*
X108344141Y-53415949D01*
X108424683Y-53395823D01*
X108489770Y-53367025D01*
X108545500Y-53328295D01*
X108567086Y-53309228D01*
X108613191Y-53260438D01*
X108638788Y-53214193D01*
X108643239Y-53163337D01*
X108625903Y-53100716D01*
X108586143Y-53019173D01*
X108533004Y-52927587D01*
X108478844Y-52837587D01*
X108459358Y-51559836D01*
X108728844Y-51559836D01*
X108737124Y-51613018D01*
X108765931Y-51660531D01*
X108821213Y-51709636D01*
X108888844Y-51755163D01*
X108940737Y-51796623D01*
X108979305Y-51842787D01*
X108983896Y-51851165D01*
X109000118Y-51908167D01*
X109011847Y-51996735D01*
X109019227Y-52108703D01*
X109022399Y-52235907D01*
X109021508Y-52370181D01*
X109016696Y-52503361D01*
X109008107Y-52627281D01*
X108995885Y-52733777D01*
X108980171Y-52814684D01*
X108966316Y-52853401D01*
X108939825Y-52889373D01*
X108893330Y-52939854D01*
X108841503Y-52989635D01*
X108786317Y-53042245D01*
X108755575Y-53081799D01*
X108742365Y-53120075D01*
X108739753Y-53163038D01*
X108753608Y-53242564D01*
X108797027Y-53307040D01*
X108872791Y-53358703D01*
X108983679Y-53399792D01*
X109056215Y-53417736D01*
X109129612Y-53428476D01*
X109233424Y-53436707D01*
X109358140Y-53442346D01*
X109494250Y-53445309D01*
X109632241Y-53445513D01*
X109762604Y-53442874D01*
X109875826Y-53437309D01*
X109962397Y-53428734D01*
X109980170Y-53425855D01*
X110113640Y-53389713D01*
X110219340Y-53336669D01*
X110294387Y-53269376D01*
X110335897Y-53190483D01*
X110340988Y-53102641D01*
X110339730Y-53095278D01*
X110318736Y-53039994D01*
X110273050Y-52994149D01*
X110246155Y-52975889D01*
X110163721Y-52900514D01*
X110122378Y-52831253D01*
X110111525Y-52806174D01*
X110102614Y-52779986D01*
X110095411Y-52748560D01*
X110089682Y-52707765D01*
X110085194Y-52653469D01*
X110081713Y-52581543D01*
X110079006Y-52487856D01*
X110076839Y-52368278D01*
X110074979Y-52218677D01*
X110073192Y-52034922D01*
X110072416Y-51947587D01*
X110070476Y-51745647D01*
X110068421Y-51580002D01*
X110066078Y-51446944D01*
X110063275Y-51342767D01*
X110059840Y-51263764D01*
X110055601Y-51206230D01*
X110050385Y-51166459D01*
X110044020Y-51140743D01*
X110036334Y-51125377D01*
X110034068Y-51122587D01*
X109998669Y-51100227D01*
X109940522Y-51089591D01*
X109855725Y-51090718D01*
X109740379Y-51103649D01*
X109597341Y-51127197D01*
X109355735Y-51177132D01*
X109153656Y-51232203D01*
X108990955Y-51292484D01*
X108867481Y-51358052D01*
X108783082Y-51428981D01*
X108737609Y-51505346D01*
X108728844Y-51559836D01*
X108459358Y-51559836D01*
X108458714Y-51517587D01*
X108405063Y-51415786D01*
X108323744Y-51294058D01*
X108222405Y-51202535D01*
X108097620Y-51139300D01*
X107945968Y-51102438D01*
X107825774Y-51091458D01*
X107673287Y-51093306D01*
X107537920Y-51115327D01*
X107410776Y-51160908D01*
X107282958Y-51233436D01*
X107145570Y-51336298D01*
X107114446Y-51362259D01*
X107053506Y-51411262D01*
X107002057Y-51447933D01*
X106969073Y-51466012D01*
X106964446Y-51466892D01*
X106941672Y-51450878D01*
X106905498Y-51409318D01*
X106863328Y-51350828D01*
X106858844Y-51344039D01*
X106792413Y-51256058D01*
X106720554Y-51192292D01*
X106668844Y-51159734D01*
X106620337Y-51133395D01*
X106578975Y-51115791D01*
X106534839Y-51105164D01*
X106478011Y-51099760D01*
X106398572Y-51097822D01*
X106317806Y-51097587D01*
X106215249Y-51098011D01*
X106141802Y-51100668D01*
X106086578Y-51107630D01*
X106038687Y-51120973D01*
X105987242Y-51142769D01*
X105927806Y-51171875D01*
X105835383Y-51224845D01*
X105736751Y-51292057D01*
X105653965Y-51358365D01*
X105577701Y-51423301D01*
X105523911Y-51457464D01*
X105488188Y-51459697D01*
X105466122Y-51428848D01*
X105453306Y-51363761D01*
X105447979Y-51304415D01*
X105439371Y-51226407D01*
X105426678Y-51161504D01*
X105412449Y-51122283D01*
X105410530Y-51119619D01*
X105372940Y-51097309D01*
X105306712Y-51088744D01*
X105208971Y-51093895D01*
X105076844Y-51112730D01*
X105058844Y-51115855D01*
X104831344Y-51162142D01*
X104634795Y-51215000D01*
X104470697Y-51273694D01*
X104340552Y-51337490D01*
X104245861Y-51405653D01*
X104188125Y-51477449D01*
X104168844Y-51551290D01*
X104177836Y-51597232D01*
X104209080Y-51645020D01*
X104257873Y-51694755D01*
X104298257Y-51735308D01*
X104329702Y-51776495D01*
X104353199Y-51823719D01*
X104369740Y-51882386D01*
X104380314Y-51957898D01*
X104385914Y-52055661D01*
X104387530Y-52181079D01*
X104386152Y-52339557D01*
X104385373Y-52390110D01*
X104382239Y-52546842D01*
X104377485Y-52669757D01*
X104369491Y-52765041D01*
X104356634Y-52838877D01*
X104337291Y-52897449D01*
X104309841Y-52946941D01*
X104272662Y-52993538D01*
X104224131Y-53043423D01*
X104210538Y-53056645D01*
X104158030Y-53114688D01*
X104133245Y-53163777D01*
X104128843Y-53198948D01*
X103928844Y-53198948D01*
X103928844Y-50631277D01*
X108768844Y-50631277D01*
X108785847Y-50736787D01*
X108835756Y-50821477D01*
X108916915Y-50884665D01*
X109027670Y-50925672D01*
X109166366Y-50943818D01*
X109331350Y-50938424D01*
X109468844Y-50918975D01*
X109651386Y-50875427D01*
X109801099Y-50817438D01*
X109916723Y-50745919D01*
X109997001Y-50661785D01*
X110040677Y-50565950D01*
X110048844Y-50497586D01*
X110033857Y-50402105D01*
X109986908Y-50326815D01*
X109905014Y-50267387D01*
X109882542Y-50256259D01*
X109770286Y-50221634D01*
X109633198Y-50207379D01*
X109480398Y-50212708D01*
X109321004Y-50236840D01*
X109164134Y-50278991D01*
X109038844Y-50328751D01*
X108918295Y-50394963D01*
X108834974Y-50464198D01*
X108786110Y-50539562D01*
X108768932Y-50624159D01*
X108768844Y-50631277D01*
X103928844Y-50631277D01*
X103928844Y-49887587D01*
X106713844Y-49887849D01*
G37*
X121675400Y-53574600D02*
X121675400Y-54724600D01*
X121675400Y-49224600D02*
X114375400Y-49224600D01*
X121675400Y-54724600D02*
X114375400Y-54724600D01*
X104075400Y-49224600D02*
X96775400Y-49224600D01*
X104075400Y-54724600D02*
X96775400Y-54724600D01*
X104075400Y-53574600D02*
X104075400Y-54724600D01*
X89875400Y-54724600D02*
X82575400Y-54724600D01*
X89875400Y-53574600D02*
X89875400Y-54724600D01*
X89875400Y-49224600D02*
X82575400Y-49224600D01*
X139776200Y-156540200D02*
X125806200Y-156540200D01*
X139776200Y-142570200D02*
X139776200Y-156540200D01*
X125806200Y-156540200D02*
X125806200Y-142570200D01*
X125806200Y-142570200D02*
X139776200Y-142570200D01*
X142314200Y-113284000D02*
X141679200Y-113284000D01*
X142314200Y-112649000D02*
X142314200Y-113284000D01*
G36*
X123452811Y-49922962D02*
G01*
X125380223Y-49928724D01*
X125559517Y-49983416D01*
X125840344Y-50088620D01*
X126096954Y-50224787D01*
X126327872Y-50390367D01*
X126531623Y-50583808D01*
X126706731Y-50803560D01*
X126851721Y-51048075D01*
X126965118Y-51315800D01*
X127027244Y-51525589D01*
X127047105Y-51616895D01*
X127060093Y-51706788D01*
X127067375Y-51807609D01*
X127070117Y-51931701D01*
X127070223Y-51980402D01*
X127064476Y-52178219D01*
X127046315Y-52350527D01*
X127013515Y-52510336D01*
X126963852Y-52670656D01*
X126942184Y-52729008D01*
X126826944Y-52974303D01*
X126677698Y-53204670D01*
X126498870Y-53415688D01*
X126294882Y-53602934D01*
X126070157Y-53761986D01*
X125829117Y-53888420D01*
X125750320Y-53920861D01*
X125696270Y-53941803D01*
X125647636Y-53960348D01*
X125601772Y-53976649D01*
X125556029Y-53990862D01*
X125507761Y-54003139D01*
X125454320Y-54013636D01*
X125393058Y-54022506D01*
X125321329Y-54029903D01*
X125236485Y-54035982D01*
X125135878Y-54040896D01*
X125016862Y-54044799D01*
X124876788Y-54047846D01*
X124713011Y-54050191D01*
X124522881Y-54051987D01*
X124303753Y-54053389D01*
X124052978Y-54054551D01*
X123767909Y-54055626D01*
X123445899Y-54056770D01*
X123412968Y-54056889D01*
X121525400Y-54063730D01*
X121525400Y-50885624D01*
X121724615Y-50885624D01*
X121731094Y-50939736D01*
X121756397Y-50983223D01*
X121796615Y-51022001D01*
X121887632Y-51101269D01*
X121952888Y-51161929D01*
X121997399Y-51210678D01*
X122026179Y-51254211D01*
X122044245Y-51299225D01*
X122056610Y-51352417D01*
X122060558Y-51374426D01*
X122067272Y-51435559D01*
X122072792Y-51529936D01*
X122077105Y-51650977D01*
X122080202Y-51792100D01*
X122082071Y-51946725D01*
X122082701Y-52108269D01*
X122082082Y-52270153D01*
X122080202Y-52425795D01*
X122077050Y-52568613D01*
X122072616Y-52692028D01*
X122066889Y-52789457D01*
X122062975Y-52831427D01*
X122047651Y-52943136D01*
X122029220Y-53022804D01*
X122004196Y-53078229D01*
X121969090Y-53117212D01*
X121921984Y-53146756D01*
X121846275Y-53192082D01*
X121803004Y-53237354D01*
X121785589Y-53290569D01*
X121784380Y-53313883D01*
X121803490Y-53392200D01*
X121857783Y-53463515D01*
X121942705Y-53523726D01*
X122053702Y-53568729D01*
X122073243Y-53574157D01*
X122161400Y-53590192D01*
X122279080Y-53601520D01*
X122417167Y-53608224D01*
X122566545Y-53610386D01*
X122718099Y-53608089D01*
X122862712Y-53601416D01*
X122991269Y-53590451D01*
X123094655Y-53575276D01*
X123139922Y-53564451D01*
X123246729Y-53522978D01*
X123318628Y-53470800D01*
X123359951Y-53404095D01*
X123371097Y-53360579D01*
X123370571Y-53283192D01*
X123338086Y-53222351D01*
X123270000Y-53171767D01*
X123258201Y-53165544D01*
X123224109Y-53148361D01*
X123195643Y-53132281D01*
X123172314Y-53113767D01*
X123153630Y-53089287D01*
X123139100Y-53055305D01*
X123128234Y-53008287D01*
X123120542Y-52944700D01*
X123115532Y-52861008D01*
X123112714Y-52753677D01*
X123111597Y-52619174D01*
X123111690Y-52453963D01*
X123112503Y-52254510D01*
X123113115Y-52120578D01*
X123114153Y-51932724D01*
X123115539Y-51755126D01*
X123117207Y-51592179D01*
X123119097Y-51448281D01*
X123121143Y-51327828D01*
X123123284Y-51235216D01*
X123125455Y-51174843D01*
X123127023Y-51153657D01*
X123131473Y-51109160D01*
X123136975Y-51033974D01*
X123142939Y-50937218D01*
X123145711Y-50885379D01*
X123398027Y-50885379D01*
X123406176Y-50955963D01*
X123435054Y-51009448D01*
X123491306Y-51054166D01*
X123560708Y-51089328D01*
X123600678Y-51106697D01*
X123633682Y-51122230D01*
X123660377Y-51139677D01*
X123681419Y-51162788D01*
X123697464Y-51195313D01*
X123709171Y-51241000D01*
X123717194Y-51303599D01*
X123722191Y-51386860D01*
X123724818Y-51494533D01*
X123725732Y-51630367D01*
X123725590Y-51798111D01*
X123725049Y-52001516D01*
X123724990Y-52027414D01*
X123724318Y-52237427D01*
X123723175Y-52412115D01*
X123721392Y-52555996D01*
X123718800Y-52673587D01*
X123715230Y-52769406D01*
X123710512Y-52847969D01*
X123704478Y-52913795D01*
X123696959Y-52971401D01*
X123687786Y-53025304D01*
X123687601Y-53026284D01*
X123671027Y-53114546D01*
X123656360Y-53193125D01*
X123645796Y-53250242D01*
X123642731Y-53267111D01*
X123646860Y-53327016D01*
X123683936Y-53365209D01*
X123753127Y-53381111D01*
X123804526Y-53380148D01*
X123887120Y-53369407D01*
X123971727Y-53352207D01*
X123996098Y-53345688D01*
X124039501Y-53333948D01*
X124073701Y-53330684D01*
X124109006Y-53338589D01*
X124155724Y-53360354D01*
X124224162Y-53398671D01*
X124245118Y-53410717D01*
X124466696Y-53516923D01*
X124694112Y-53583785D01*
X124928025Y-53611402D01*
X125169094Y-53599872D01*
X125322881Y-53573010D01*
X125534190Y-53506689D01*
X125726665Y-53407294D01*
X125897789Y-53278098D01*
X126045048Y-53122377D01*
X126165926Y-52943404D01*
X126257907Y-52744452D01*
X126318476Y-52528796D01*
X126345118Y-52299709D01*
X126346183Y-52241176D01*
X126343119Y-52141094D01*
X126335119Y-52042540D01*
X126323628Y-51961038D01*
X126317478Y-51933207D01*
X126248986Y-51745210D01*
X126150929Y-51582179D01*
X126024890Y-51446121D01*
X125872451Y-51339045D01*
X125832742Y-51318192D01*
X125753955Y-51281173D01*
X125690171Y-51258117D01*
X125625546Y-51245170D01*
X125544236Y-51238475D01*
X125496721Y-51236428D01*
X125340763Y-51240211D01*
X125201870Y-51266585D01*
X125067429Y-51319235D01*
X124924824Y-51401847D01*
X124920236Y-51404861D01*
X124854344Y-51448225D01*
X124800702Y-51483429D01*
X124768471Y-51504465D01*
X124764403Y-51507079D01*
X124759520Y-51491361D01*
X124756338Y-51439196D01*
X124754886Y-51353945D01*
X124755194Y-51238967D01*
X124757289Y-51097625D01*
X124759906Y-50982004D01*
X124763803Y-50815796D01*
X124765973Y-50685024D01*
X124766314Y-50585310D01*
X124764721Y-50512281D01*
X124761090Y-50461561D01*
X124755316Y-50428774D01*
X124747297Y-50409546D01*
X124746258Y-50408050D01*
X124730318Y-50391361D01*
X124706823Y-50381319D01*
X124667707Y-50377032D01*
X124604904Y-50377606D01*
X124511697Y-50382074D01*
X124341456Y-50399216D01*
X124166237Y-50430848D01*
X123993409Y-50474537D01*
X123830338Y-50527849D01*
X123684394Y-50588353D01*
X123562944Y-50653614D01*
X123473358Y-50721201D01*
X123467589Y-50726834D01*
X123423178Y-50777763D01*
X123402808Y-50824893D01*
X123398027Y-50885379D01*
X123145711Y-50885379D01*
X123148778Y-50828014D01*
X123150977Y-50782225D01*
X123164974Y-50480518D01*
X123110280Y-50425824D01*
X123083558Y-50400712D01*
X123058082Y-50385300D01*
X123024315Y-50377898D01*
X122972720Y-50376821D01*
X122893762Y-50380379D01*
X122863238Y-50382103D01*
X122684741Y-50398930D01*
X122502105Y-50428141D01*
X122323890Y-50467535D01*
X122158654Y-50514910D01*
X122014955Y-50568065D01*
X121901354Y-50624801D01*
X121888606Y-50632732D01*
X121797072Y-50706830D01*
X121743087Y-50788759D01*
X121724642Y-50881620D01*
X121724615Y-50885624D01*
X121525400Y-50885624D01*
X121525400Y-49917200D01*
X123452811Y-49922962D01*
G37*
G36*
X125026803Y-51948936D02*
G01*
X125106259Y-51983961D01*
X125158084Y-52030271D01*
X125219452Y-52126230D01*
X125265609Y-52245277D01*
X125296617Y-52380159D01*
X125312539Y-52523622D01*
X125313440Y-52668413D01*
X125299384Y-52807278D01*
X125270433Y-52932963D01*
X125226652Y-53038216D01*
X125168104Y-53115783D01*
X125148420Y-53132027D01*
X125073239Y-53168531D01*
X124989578Y-53181572D01*
X124911903Y-53170327D01*
X124869264Y-53147901D01*
X124837671Y-53115602D01*
X124812788Y-53071233D01*
X124793894Y-53010274D01*
X124780270Y-52928204D01*
X124771196Y-52820504D01*
X124765952Y-52682651D01*
X124763819Y-52510126D01*
X124763733Y-52485069D01*
X124763598Y-52346056D01*
X124764352Y-52241103D01*
X124766492Y-52164430D01*
X124770514Y-52110254D01*
X124776915Y-52072796D01*
X124786190Y-52046273D01*
X124798837Y-52024905D01*
X124803847Y-52017985D01*
X124865386Y-51965593D01*
X124943108Y-51942695D01*
X125026803Y-51948936D01*
G37*
X137675400Y-59374600D02*
X137675400Y-60524600D01*
X137675400Y-55024600D02*
X130375400Y-55024600D01*
X137675400Y-60524600D02*
X130375400Y-60524600D01*
X125806200Y-161620200D02*
X139776200Y-161620200D01*
X139776200Y-161620200D02*
X139776200Y-175590200D01*
X139776200Y-175590200D02*
X125806200Y-175590200D01*
X125806200Y-175590200D02*
X125806200Y-161620200D01*
X71275400Y-59374600D02*
X71275400Y-60524600D01*
X71275400Y-60524600D02*
X63975400Y-60524600D01*
X71275400Y-55024600D02*
X63975400Y-55024600D01*
X130897200Y-101354000D02*
X78027200Y-101354000D01*
X78027200Y-101354000D02*
X78027200Y-63614000D01*
X131277200Y-98734000D02*
X131277200Y-101734000D01*
X130897200Y-63614000D02*
X78027200Y-63614000D01*
X130897200Y-101354000D02*
X130897200Y-63614000D01*
X131277200Y-101734000D02*
X128277200Y-101734000D01*
X139776200Y-123520200D02*
X139776200Y-137490200D01*
X139776200Y-137490200D02*
X125806200Y-137490200D01*
X125806200Y-137490200D02*
X125806200Y-123520200D01*
X125806200Y-123520200D02*
X139776200Y-123520200D01*
G36*
X138595475Y-56238237D02*
G01*
X138663488Y-56269669D01*
X138714130Y-56328675D01*
X138745508Y-56405943D01*
X138755728Y-56492165D01*
X138742896Y-56578028D01*
X138705119Y-56654222D01*
X138684860Y-56677680D01*
X138622960Y-56717091D01*
X138546262Y-56736202D01*
X138473622Y-56730974D01*
X138459540Y-56725934D01*
X138393711Y-56680858D01*
X138353114Y-56610978D01*
X138334866Y-56511271D01*
X138334659Y-56508160D01*
X138334127Y-56428067D01*
X138346983Y-56369813D01*
X138367396Y-56330137D01*
X138425332Y-56272691D01*
X138504550Y-56239940D01*
X138591196Y-56237466D01*
X138595475Y-56238237D01*
G37*
G36*
X137517581Y-56492066D02*
G01*
X137849539Y-56492066D01*
X137863115Y-56620894D01*
X137905884Y-56725063D01*
X137980913Y-56810201D01*
X138049039Y-56858367D01*
X138124510Y-56899503D01*
X138198199Y-56928242D01*
X138280114Y-56946723D01*
X138380262Y-56957088D01*
X138508652Y-56961477D01*
X138532433Y-56961768D01*
X138656915Y-56960097D01*
X138755238Y-56951248D01*
X138840832Y-56933753D01*
X138872623Y-56924592D01*
X139013398Y-56865387D01*
X139122013Y-56785923D01*
X139197027Y-56688524D01*
X139236996Y-56575517D01*
X139240480Y-56449228D01*
X139222331Y-56360551D01*
X139169127Y-56245948D01*
X139083284Y-56152829D01*
X138966344Y-56081898D01*
X138819847Y-56033863D01*
X138645334Y-56009428D01*
X138454246Y-56008758D01*
X138284874Y-56026904D01*
X138147460Y-56062886D01*
X138037403Y-56118302D01*
X137964915Y-56178781D01*
X137905679Y-56249043D01*
X137870120Y-56319240D01*
X137853150Y-56403186D01*
X137849539Y-56492066D01*
X137517581Y-56492066D01*
X137519540Y-55693910D01*
X141939540Y-55694490D01*
X142133656Y-55747823D01*
X142413090Y-55844286D01*
X142671380Y-55973279D01*
X142906379Y-56132662D01*
X143115943Y-56320293D01*
X143297925Y-56534032D01*
X143450182Y-56771737D01*
X143570568Y-57031268D01*
X143642684Y-57253910D01*
X143663597Y-57336958D01*
X143678251Y-57409604D01*
X143687725Y-57482385D01*
X143693097Y-57565837D01*
X143695443Y-57670499D01*
X143695867Y-57773910D01*
X143695133Y-57902534D01*
X143692216Y-58001681D01*
X143686043Y-58081856D01*
X143675544Y-58153567D01*
X143659644Y-58227319D01*
X143642949Y-58292482D01*
X143551908Y-58559483D01*
X143427041Y-58809744D01*
X143271390Y-59040203D01*
X143088000Y-59247800D01*
X142879915Y-59429474D01*
X142650180Y-59582164D01*
X142401837Y-59702810D01*
X142161060Y-59782477D01*
X142085357Y-59799194D01*
X141989501Y-59816043D01*
X141883306Y-59831793D01*
X141776585Y-59845219D01*
X141679151Y-59855092D01*
X141600819Y-59860184D01*
X141551400Y-59859268D01*
X141549540Y-59858990D01*
X141525732Y-59858257D01*
X141464653Y-59857455D01*
X141369029Y-59856598D01*
X141241589Y-59855700D01*
X141085060Y-59854773D01*
X140902170Y-59853832D01*
X140695648Y-59852889D01*
X140468220Y-59851959D01*
X140222614Y-59851055D01*
X139961559Y-59850190D01*
X139687783Y-59849377D01*
X139514447Y-59848911D01*
X137509355Y-59843717D01*
X137513888Y-57996747D01*
X139661258Y-57996747D01*
X139694784Y-58239057D01*
X139766555Y-58478761D01*
X139777694Y-58507065D01*
X139887386Y-58726398D01*
X140030251Y-58928004D01*
X140202082Y-59108393D01*
X140398673Y-59264079D01*
X140615817Y-59391573D01*
X140849308Y-59487387D01*
X141014368Y-59532468D01*
X141126136Y-59549503D01*
X141262934Y-59559141D01*
X141410967Y-59561401D01*
X141556439Y-59556299D01*
X141685556Y-59543854D01*
X141755591Y-59531519D01*
X141832088Y-59510814D01*
X141932034Y-59478831D01*
X142042107Y-59440047D01*
X142142574Y-59401519D01*
X142238363Y-59364619D01*
X142325008Y-59334110D01*
X142393620Y-59312930D01*
X142435308Y-59304016D01*
X142438021Y-59303910D01*
X142494001Y-59286705D01*
X142559685Y-59239443D01*
X142628607Y-59168652D01*
X142694301Y-59080861D01*
X142744377Y-58994588D01*
X142795740Y-58869531D01*
X142823884Y-58748364D01*
X142829104Y-58637130D01*
X142811694Y-58541871D01*
X142771947Y-58468633D01*
X142716716Y-58426262D01*
X142676717Y-58410780D01*
X142641933Y-58407965D01*
X142603236Y-58420866D01*
X142551501Y-58452530D01*
X142477600Y-58506008D01*
X142477273Y-58506251D01*
X142360145Y-58586877D01*
X142254788Y-58642927D01*
X142147114Y-58680338D01*
X142023031Y-58705050D01*
X141996823Y-58708747D01*
X141796825Y-58718214D01*
X141612370Y-58690831D01*
X141443372Y-58626569D01*
X141289743Y-58525398D01*
X141193502Y-58434962D01*
X141066848Y-58270714D01*
X140969658Y-58081835D01*
X140903399Y-57872259D01*
X140869535Y-57645920D01*
X140865424Y-57553910D01*
X140870754Y-57402696D01*
X140894046Y-57280099D01*
X140938077Y-57177729D01*
X141005623Y-57087197D01*
X141027420Y-57064523D01*
X141124087Y-56986688D01*
X141229112Y-56940665D01*
X141349001Y-56924934D01*
X141490259Y-56937978D01*
X141533555Y-56946374D01*
X141652559Y-56980362D01*
X141757142Y-57031238D01*
X141853466Y-57103932D01*
X141947692Y-57203373D01*
X142045980Y-57334488D01*
X142077973Y-57381937D01*
X142161810Y-57503606D01*
X142233347Y-57593698D01*
X142298010Y-57656491D01*
X142361224Y-57696266D01*
X142428415Y-57717302D01*
X142505007Y-57723880D01*
X142511484Y-57723910D01*
X142635115Y-57706557D01*
X142739010Y-57656293D01*
X142821665Y-57575811D01*
X142881577Y-57467804D01*
X142917241Y-57334964D01*
X142927153Y-57179983D01*
X142910486Y-57009522D01*
X142871802Y-56852086D01*
X142813584Y-56712740D01*
X142739318Y-56597302D01*
X142652495Y-56511587D01*
X142589142Y-56473730D01*
X142533160Y-56452297D01*
X142483775Y-56446335D01*
X142421392Y-56454324D01*
X142398573Y-56458928D01*
X142343885Y-56468888D01*
X142296883Y-56471705D01*
X142248258Y-56465561D01*
X142188700Y-56448642D01*
X142108899Y-56419132D01*
X142027497Y-56386564D01*
X141883267Y-56332086D01*
X141758613Y-56295450D01*
X141638956Y-56273678D01*
X141509721Y-56263789D01*
X141419540Y-56262319D01*
X141165653Y-56281141D01*
X140917963Y-56335969D01*
X140680699Y-56424132D01*
X140458089Y-56542962D01*
X140254363Y-56689790D01*
X140073748Y-56861944D01*
X139920474Y-57056757D01*
X139798770Y-57271557D01*
X139789785Y-57291165D01*
X139708796Y-57519103D01*
X139665941Y-57755529D01*
X139661258Y-57996747D01*
X137513888Y-57996747D01*
X137514447Y-57768813D01*
X137517581Y-56492066D01*
G37*
M02*
