M48
; DRILL file {KiCad (5.99.0-8123-gb2cbd99365)} date Monday, February 01, 2021 at 11:00:53 PM
; FORMAT={-:-/ absolute / inch / decimal}
; #@! TF.CreationDate,2021-02-01T23:00:53-05:00
; #@! TF.GenerationSoftware,Kicad,Pcbnew,(5.99.0-8123-gb2cbd99365)
; #@! TF.FileFunction,NonPlated,1,2,NPTH
FMAT,2
INCH
T1C0.0197
T2C0.0390
T3C0.0669
T4C0.1201
T5C0.1358
T6C0.1575
%
G90
G05
T1
X5.8185Y-2.1517
X5.8185Y-2.2383
X5.85Y-2.1517
X5.85Y-2.2383
X5.8815Y-2.1517
X5.8815Y-2.2383
X5.913Y-2.1517
X5.913Y-2.2383
X5.9445Y-2.1517
X5.9445Y-2.2383
X5.976Y-2.1517
X5.976Y-2.2383
X7.1043Y-2.1534
X7.1043Y-2.24
X7.1328Y-2.1517
X7.1328Y-2.2383
X7.1643Y-2.1517
X7.1643Y-2.2383
X7.1957Y-2.1517
X7.1957Y-2.2383
X7.2272Y-2.1517
X7.2272Y-2.2383
X7.2587Y-2.1517
X7.2587Y-2.2383
X8.377Y-2.1534
X8.377Y-2.24
X8.4055Y-2.1517
X8.4055Y-2.2383
X8.437Y-2.1517
X8.437Y-2.2383
X8.4685Y-2.1517
X8.4685Y-2.2383
X8.5Y-2.1517
X8.5Y-2.2383
X8.5315Y-2.1517
X8.5315Y-2.2383
T2
X8.56Y-3.55
X8.6Y-3.75
X8.64Y-3.55
T3
X5.8535Y-3.653
X5.8535Y-4.403
X5.8535Y-5.153
X6.2285Y-5.903
X6.2535Y-3.653
X6.2535Y-4.403
X6.2535Y-5.153
X6.6035Y-3.653
X6.6035Y-4.403
X6.6035Y-5.153
X6.6285Y-5.903
X7.0035Y-3.653
X7.0035Y-4.403
X7.0035Y-5.153
X7.3535Y-3.653
X7.3535Y-4.403
X7.3535Y-5.153
X7.3535Y-5.903
X7.7535Y-3.653
X7.7535Y-4.403
X7.7535Y-5.153
X7.7535Y-5.903
X8.1035Y-4.403
X8.1035Y-5.153
X8.1035Y-5.903
X8.5035Y-4.403
X8.5035Y-5.153
X8.5035Y-5.903
T4
X5.96Y-5.6274
X6.897Y-5.6274
T5
X6.6009Y-2.6681
X7.7808Y-2.8531
T6
X5.96Y-6.2274
X6.0535Y-3.653
X6.0535Y-4.403
X6.0535Y-5.153
X6.4285Y-5.903
X6.8035Y-3.653
X6.8035Y-4.403
X6.8035Y-5.153
X6.897Y-6.2274
X7.5535Y-3.653
X7.5535Y-4.403
X7.5535Y-5.153
X7.5535Y-5.903
X8.3035Y-4.403
X8.3035Y-5.153
X8.3035Y-5.903
T0
M30
