G04 #@! TF.GenerationSoftware,KiCad,Pcbnew,(5.99.0-8123-gb2cbd99365)*
G04 #@! TF.CreationDate,2021-02-01T23:00:56-05:00*
G04 #@! TF.ProjectId,unitron,756e6974-726f-46e2-9e6b-696361645f70,1.4*
G04 #@! TF.SameCoordinates,Original*
G04 #@! TF.FileFunction,Soldermask,Top*
G04 #@! TF.FilePolarity,Negative*
%FSLAX46Y46*%
G04 Gerber Fmt 4.6, Leading zero omitted, Abs format (unit mm)*
G04 Created by KiCad (PCBNEW (5.99.0-8123-gb2cbd99365)) date 2021-02-01 23:00:56*
%MOMM*%
%LPD*%
G01*
G04 APERTURE LIST*
G04 Aperture macros list*
%AMRoundRect*
0 Rectangle with rounded corners*
0 $1 Rounding radius*
0 $2 $3 $4 $5 $6 $7 $8 $9 X,Y pos of 4 corners*
0 Add a 4 corners polygon primitive as box body*
4,1,4,$2,$3,$4,$5,$6,$7,$8,$9,$2,$3,0*
0 Add four circle primitives for the rounded corners*
1,1,$1+$1,$2,$3,0*
1,1,$1+$1,$4,$5,0*
1,1,$1+$1,$6,$7,0*
1,1,$1+$1,$8,$9,0*
0 Add four rect primitives between the rounded corners*
20,1,$1+$1,$2,$3,$4,$5,0*
20,1,$1+$1,$4,$5,$6,$7,0*
20,1,$1+$1,$6,$7,$8,$9,0*
20,1,$1+$1,$8,$9,$2,$3,0*%
G04 Aperture macros list end*
%ADD10C,0.500000*%
%ADD11R,1.700000X1.700000*%
%ADD12O,1.700000X1.700000*%
%ADD13R,0.500000X1.000000*%
%ADD14R,0.800000X0.500000*%
%ADD15R,0.800000X0.300000*%
%ADD16R,0.500000X1.480000*%
%ADD17C,4.000000*%
%ADD18C,1.700000*%
%ADD19C,2.200000*%
%ADD20C,3.450000*%
%ADD21R,2.000000X2.000000*%
%ADD22C,2.000000*%
%ADD23C,0.990600*%
%ADD24C,0.787400*%
%ADD25C,6.000000*%
%ADD26RoundRect,0.243750X0.243750X0.456250X-0.243750X0.456250X-0.243750X-0.456250X0.243750X-0.456250X0*%
%ADD27R,1.500000X1.500000*%
%ADD28C,1.500000*%
%ADD29C,1.524000*%
%ADD30C,3.050000*%
G04 APERTURE END LIST*
D10*
X180448000Y-56896000D03*
X182772000Y-56853000D03*
X183572000Y-56853000D03*
X184372000Y-56853000D03*
X181972000Y-56853000D03*
X181172000Y-54653000D03*
X180448000Y-54696000D03*
X183572000Y-54653000D03*
X182772000Y-54653000D03*
X181172000Y-56853000D03*
X181972000Y-54653000D03*
X184372000Y-54653000D03*
X150990000Y-54653000D03*
X150990000Y-56853000D03*
X149390000Y-56853000D03*
X151790000Y-54653000D03*
X149390000Y-54653000D03*
X150190000Y-56853000D03*
X148590000Y-56853000D03*
X148590000Y-54653000D03*
X151790000Y-56853000D03*
X147790000Y-54653000D03*
X147790000Y-56853000D03*
X150190000Y-54653000D03*
X212776000Y-56896000D03*
X215100000Y-56853000D03*
X215900000Y-56853000D03*
X216700000Y-56853000D03*
X214300000Y-56853000D03*
X213500000Y-54653000D03*
X212776000Y-54696000D03*
X215900000Y-54653000D03*
X215100000Y-54653000D03*
X213500000Y-56853000D03*
X214300000Y-54653000D03*
X216700000Y-54653000D03*
D11*
X143764000Y-29972000D03*
D12*
X143764000Y-32512000D03*
X143764000Y-35052000D03*
X143764000Y-37592000D03*
X143764000Y-40132000D03*
X143764000Y-42672000D03*
X143764000Y-45212000D03*
X143764000Y-47752000D03*
X143764000Y-50292000D03*
D11*
X220472000Y-29972000D03*
D12*
X220472000Y-32512000D03*
X220472000Y-35052000D03*
X220472000Y-37592000D03*
X220472000Y-40132000D03*
X220472000Y-42672000D03*
X220472000Y-45212000D03*
X220472000Y-47752000D03*
X220472000Y-50292000D03*
D13*
X201400000Y-25586000D03*
D14*
X200550000Y-25516000D03*
D15*
X200550000Y-26416000D03*
D14*
X200550000Y-27316000D03*
X202250000Y-27316000D03*
D15*
X202250000Y-26416000D03*
D16*
X201400000Y-27006000D03*
D14*
X202250000Y-25516000D03*
D17*
X210908900Y-111836200D03*
D18*
X215988900Y-111836200D03*
X205828900Y-111836200D03*
D19*
X213448900Y-106756200D03*
X207098900Y-109296200D03*
D20*
X167662000Y-67770000D03*
D21*
X206272000Y-76470000D03*
D22*
X206272000Y-63770000D03*
D13*
X172700000Y-25586000D03*
D14*
X171850000Y-25516000D03*
D15*
X171850000Y-26416000D03*
D14*
X171850000Y-27316000D03*
X173550000Y-27316000D03*
D15*
X173550000Y-26416000D03*
D16*
X172700000Y-27006000D03*
D14*
X173550000Y-25516000D03*
D18*
X205828900Y-149936200D03*
D17*
X210908900Y-149936200D03*
D18*
X215988900Y-149936200D03*
D19*
X213448900Y-144856200D03*
X207098900Y-147396200D03*
D23*
X219456000Y-90170000D03*
X217424000Y-90170000D03*
X218440000Y-95250000D03*
D24*
X219075000Y-93980000D03*
X219075000Y-92710000D03*
X219075000Y-91440000D03*
X217805000Y-91440000D03*
X217805000Y-92710000D03*
X217805000Y-93980000D03*
D11*
X143764000Y-58420000D03*
D12*
X143764000Y-60960000D03*
X143764000Y-63500000D03*
X143764000Y-66040000D03*
X143764000Y-68580000D03*
X143764000Y-71120000D03*
X143764000Y-73660000D03*
X143764000Y-76200000D03*
X143764000Y-78740000D03*
D14*
X200550000Y-21706000D03*
D13*
X201400000Y-21776000D03*
D15*
X200550000Y-22606000D03*
D14*
X200550000Y-23506000D03*
X202250000Y-23506000D03*
D15*
X202250000Y-22606000D03*
D14*
X202250000Y-21706000D03*
D16*
X201400000Y-23196000D03*
D18*
X215988900Y-130886200D03*
X205828900Y-130886200D03*
D17*
X210908900Y-130886200D03*
D19*
X213448900Y-125806200D03*
X207098900Y-128346200D03*
D13*
X187050000Y-21776000D03*
D14*
X186200000Y-21706000D03*
D15*
X186200000Y-22606000D03*
D14*
X186200000Y-23506000D03*
X187900000Y-23506000D03*
D15*
X187900000Y-22606000D03*
D16*
X187050000Y-23196000D03*
D14*
X187900000Y-21706000D03*
X157500000Y-21706000D03*
D13*
X158350000Y-21776000D03*
D15*
X157500000Y-22606000D03*
D14*
X157500000Y-23506000D03*
X159200000Y-23506000D03*
D15*
X159200000Y-22606000D03*
D14*
X159200000Y-21706000D03*
D16*
X158350000Y-23196000D03*
D14*
X186200000Y-25516000D03*
D13*
X187050000Y-25586000D03*
D15*
X186200000Y-26416000D03*
D14*
X186200000Y-27316000D03*
X187900000Y-27316000D03*
D15*
X187900000Y-26416000D03*
D14*
X187900000Y-25516000D03*
D16*
X187050000Y-27006000D03*
D25*
X146050000Y-154940000D03*
X214630000Y-61595000D03*
D13*
X144000000Y-25586000D03*
D14*
X143150000Y-25516000D03*
D15*
X143150000Y-26416000D03*
D14*
X143150000Y-27316000D03*
X144850000Y-27316000D03*
D15*
X144850000Y-26416000D03*
D14*
X144850000Y-25516000D03*
D16*
X144000000Y-27006000D03*
D14*
X214900000Y-25516000D03*
D13*
X215750000Y-25586000D03*
D15*
X214900000Y-26416000D03*
D14*
X214900000Y-27316000D03*
X216600000Y-27316000D03*
D15*
X216600000Y-26416000D03*
D16*
X215750000Y-27006000D03*
D14*
X216600000Y-25516000D03*
D25*
X218440000Y-154940000D03*
D13*
X158350000Y-25586000D03*
D14*
X157500000Y-25516000D03*
D15*
X157500000Y-26416000D03*
D14*
X157500000Y-27316000D03*
X159200000Y-27316000D03*
D15*
X159200000Y-26416000D03*
D16*
X158350000Y-27006000D03*
D14*
X159200000Y-25516000D03*
D11*
X220472000Y-58420000D03*
D12*
X220472000Y-60960000D03*
X220472000Y-63500000D03*
X220472000Y-66040000D03*
X220472000Y-68580000D03*
X220472000Y-71120000D03*
X220472000Y-73660000D03*
X220472000Y-76200000D03*
X220472000Y-78740000D03*
D25*
X149860000Y-61595000D03*
D14*
X171850000Y-21706000D03*
D13*
X172700000Y-21776000D03*
D15*
X171850000Y-22606000D03*
D14*
X171850000Y-23506000D03*
X173550000Y-23506000D03*
D15*
X173550000Y-22606000D03*
D14*
X173550000Y-21706000D03*
D16*
X172700000Y-23196000D03*
D13*
X144000000Y-21776000D03*
D14*
X143150000Y-21706000D03*
D15*
X143150000Y-22606000D03*
D14*
X143150000Y-23506000D03*
X144850000Y-23506000D03*
D15*
X144850000Y-22606000D03*
D14*
X144850000Y-21706000D03*
D16*
X144000000Y-23196000D03*
D13*
X215750000Y-21776000D03*
D14*
X214900000Y-21706000D03*
D15*
X214900000Y-22606000D03*
D14*
X214900000Y-23506000D03*
X216600000Y-23506000D03*
D15*
X216600000Y-22606000D03*
D14*
X216600000Y-21706000D03*
D16*
X215750000Y-23196000D03*
D18*
X196938900Y-111836200D03*
D17*
X191858900Y-111836200D03*
D18*
X186778900Y-111836200D03*
D19*
X194398900Y-106756200D03*
X188048900Y-109296200D03*
D11*
X211908900Y-90246200D03*
D12*
X211908900Y-92786200D03*
X211908900Y-95326200D03*
D26*
X206423500Y-92837000D03*
X204548500Y-92837000D03*
D17*
X191858900Y-130886200D03*
D18*
X186778900Y-130886200D03*
X196938900Y-130886200D03*
D19*
X194398900Y-125806200D03*
X188048900Y-128346200D03*
D27*
X153289000Y-40005000D03*
D28*
X155829000Y-40005000D03*
X158369000Y-40005000D03*
X160909000Y-40005000D03*
X163449000Y-40005000D03*
X165989000Y-40005000D03*
X168529000Y-40005000D03*
X171069000Y-40005000D03*
X171069000Y-29845000D03*
X165989000Y-29845000D03*
D29*
X160909000Y-29845000D03*
X158369000Y-29845000D03*
D28*
X155829000Y-29845000D03*
X153289000Y-29845000D03*
D27*
X193421000Y-40005000D03*
D28*
X195961000Y-40005000D03*
X198501000Y-40005000D03*
X201041000Y-40005000D03*
X203581000Y-40005000D03*
X206121000Y-40005000D03*
X208661000Y-40005000D03*
X211201000Y-40005000D03*
X211201000Y-29845000D03*
X206121000Y-29845000D03*
D29*
X201041000Y-29845000D03*
X198501000Y-29845000D03*
D28*
X195961000Y-29845000D03*
X193421000Y-29845000D03*
D18*
X168363900Y-149936200D03*
D30*
X175183900Y-142936200D03*
D18*
X158203900Y-149936200D03*
D17*
X175183900Y-158176200D03*
D30*
X151383900Y-142936200D03*
D17*
X151383900Y-158176200D03*
X163283900Y-149936200D03*
D19*
X165823900Y-144856200D03*
X159473900Y-147396200D03*
D27*
X153289000Y-53086000D03*
D28*
X155829000Y-53086000D03*
X158369000Y-53086000D03*
X160909000Y-53086000D03*
X163449000Y-53086000D03*
X165989000Y-53086000D03*
X168529000Y-53086000D03*
X171069000Y-53086000D03*
X171069000Y-42926000D03*
X165989000Y-42926000D03*
D29*
X160909000Y-42926000D03*
X158369000Y-42926000D03*
D28*
X155829000Y-42926000D03*
X153289000Y-42926000D03*
D27*
X193421000Y-53086000D03*
D28*
X195961000Y-53086000D03*
X198501000Y-53086000D03*
X201041000Y-53086000D03*
X203581000Y-53086000D03*
X206121000Y-53086000D03*
X208661000Y-53086000D03*
X211201000Y-53086000D03*
X211201000Y-42926000D03*
X206121000Y-42926000D03*
D29*
X201041000Y-42926000D03*
X198501000Y-42926000D03*
D28*
X195961000Y-42926000D03*
X193421000Y-42926000D03*
D18*
X186778900Y-149936200D03*
D17*
X191858900Y-149936200D03*
D18*
X196938900Y-149936200D03*
D19*
X194398900Y-144856200D03*
X188048900Y-147396200D03*
D18*
X196938900Y-92786200D03*
D17*
X191858900Y-92786200D03*
D18*
X186778900Y-92786200D03*
D19*
X194398900Y-87706200D03*
X188048900Y-90246200D03*
D18*
X177888900Y-92786200D03*
D17*
X172808900Y-92786200D03*
D18*
X167728900Y-92786200D03*
D19*
X175348900Y-87706200D03*
X168998900Y-90246200D03*
D17*
X172808900Y-111836200D03*
D18*
X177888900Y-111836200D03*
X167728900Y-111836200D03*
D19*
X175348900Y-106756200D03*
X168998900Y-109296200D03*
D18*
X148678900Y-111836200D03*
D17*
X153758900Y-111836200D03*
D18*
X158838900Y-111836200D03*
D19*
X156298900Y-106756200D03*
X149948900Y-109296200D03*
D18*
X158838900Y-92786200D03*
X148678900Y-92786200D03*
D17*
X153758900Y-92786200D03*
D19*
X156298900Y-87706200D03*
X149948900Y-90246200D03*
D17*
X172808900Y-130886200D03*
D18*
X177888900Y-130886200D03*
X167728900Y-130886200D03*
D19*
X175348900Y-125806200D03*
X168998900Y-128346200D03*
D18*
X158838900Y-130886200D03*
X148678900Y-130886200D03*
D17*
X153758900Y-130886200D03*
D19*
X156298900Y-125806200D03*
X149948900Y-128346200D03*
M02*
