M48
; DRILL file {KiCad (6.0.4-0)} date Monday, April 25, 2022 at 04:23:05 PM
; FORMAT={-:-/ absolute / inch / decimal}
; #@! TF.CreationDate,2022-04-25T16:23:05-04:00
; #@! TF.GenerationSoftware,Kicad,Pcbnew,(6.0.4-0)
; #@! TF.FileFunction,MixedPlating,1,2
FMAT,2
INCH
; #@! TA.AperFunction,Plated,PTH,ViaDrill
T1C0.0138
; #@! TA.AperFunction,Plated,PTH,ViaDrill
T2C0.0157
; #@! TA.AperFunction,Plated,PTH,ComponentDrill
T3C0.0276
; #@! TA.AperFunction,Plated,PTH,ComponentDrill
T4C0.0300
; #@! TA.AperFunction,Plated,PTH,ComponentDrill
T5C0.0394
; #@! TA.AperFunction,Plated,PTH,ComponentDrill
T6C0.0591
; #@! TA.AperFunction,Plated,PTH,ComponentDrill
T7C0.0709
; #@! TA.AperFunction,Plated,PTH,ComponentDrill
T8C0.1673
; #@! TA.AperFunction,NonPlated,NPTH,ComponentDrill
T9C0.0197
; #@! TA.AperFunction,NonPlated,NPTH,ComponentDrill
T10C0.0669
; #@! TA.AperFunction,NonPlated,NPTH,ComponentDrill
T11C0.1575
%
G90
G05
T1
X3.0512Y-1.063
X3.0645Y-1.153
X3.0645Y-1.698
X3.1045Y-1.243
X3.1585Y-1.2236
X3.1594Y-1.0925
X3.1745Y-1.598
X3.2545Y-1.548
X3.3307Y-1.0394
X3.3465Y-1.1614
X3.4445Y-1.658
X3.4547Y-1.6952
X3.4595Y-1.603
X3.4882Y-1.0945
X3.5545Y-1.708
X3.563Y-1.1614
X3.6645Y-1.1614
X3.7165Y-1.3465
X3.7402Y-1.4409
X3.748Y-1.3701
X3.7845Y-1.003
X3.7874Y-3.9764
X3.8884Y-1.608
X3.8976Y-1.1417
X3.916Y-1.5385
X3.937Y-1.3091
X3.9449Y-1.1417
X3.9516Y-1.4342
X3.9545Y-1.858
X3.9743Y-1.6808
X3.9764Y-1.3386
X3.9845Y-0.973
X3.9961Y-1.8701
X4.0145Y-1.688
X4.0157Y-1.193
X4.0445Y-0.933
X4.0445Y-1.668
X4.0453Y-1.3386
X4.0648Y-1.6043
X4.0846Y-1.6831
X4.1049Y-1.2026
X4.1178Y-0.9612
X4.1237Y-1.1585
X4.1339Y-1.6339
X4.1364Y-1.4808
X4.1373Y-1.5977
X4.1629Y-0.949
X4.1702Y-1.1052
X4.1732Y-1.6732
X4.1939Y-1.6121
X4.2038Y-1.4852
X4.2441Y-1.1339
X4.2717Y-0.953
X4.2745Y-1.4808
X4.2746Y-1.5481
X4.3012Y-0.9941
X4.3144Y-1.4893
X4.4094Y-0.9941
X4.4488Y-1.2795
X4.4488Y-1.8346
X4.4882Y-1.7224
X4.5345Y-1.6074
X4.5472Y-1.752
X4.5669Y-1.1811
X4.5945Y-1.628
X4.6104Y-1.2
X4.6501Y-1.0925
X4.7345Y-1.153
X4.7638Y-1.5846
X4.7736Y-1.6535
X4.8346Y-1.2205
X4.9291Y-1.1024
X5.0367Y-1.5796
X5.0709Y-1.063
X5.1102Y-1.1969
X5.2345Y-1.113
X5.4724Y-1.624
T2
X2.9035Y-1.2894
X2.9035Y-1.7717
X2.9232Y-1.7028
X2.9528Y-1.5453
X2.9528Y-1.6339
X2.9823Y-1.7717
X3.0482Y-3.8021
X3.1811Y-2.7087
X3.2205Y-1.0236
X3.2835Y-5.7874
X3.2995Y-4.06
X3.311Y-1.6457
X3.3563Y-3.3957
X3.3661Y-3.6516
X3.5591Y-0.9528
X3.5745Y-3.86
X3.5837Y-2.8494
X3.6122Y-3.4252
X3.6427Y-2.6565
X3.7795Y-1.4803
X3.8189Y-1.2756
X3.8268Y-1.7874
X3.8425Y-0.9528
X3.874Y-2.126
X3.8829Y-3.8258
X3.9538Y-3.7155
X4.0245Y-5.76
X4.0394Y-1.8898
X4.042Y-1.468
X4.0748Y-5.4331
X4.2047Y-1.8189
X4.2126Y-5.315
X4.2165Y-1.2047
X4.4387Y-1.9663
X4.4587Y-0.9547
X4.4646Y-3.4803
X4.5472Y-2.9429
X4.5472Y-3.1102
X4.5482Y-2.5581
X4.5574Y-2.7478
X4.5984Y-4.7874
X4.6063Y-2.9232
X4.6063Y-3.5118
X4.622Y-3.0
X4.6693Y-3.2244
X4.872Y-4.252
X4.9016Y-1.5846
X4.9016Y-1.6556
X4.9173Y-2.8189
X5.0394Y-2.815
X5.2165Y-3.622
X5.2717Y-1.4134
X5.2913Y-2.8091
X5.3858Y-1.7402
X5.4232Y-1.6732
X5.4331Y-1.3386
X5.4449Y-2.8661
X5.451Y-1.0261
X5.4668Y-3.8492
X5.4971Y-2.7707
X5.6299Y-1.4469
X5.6299Y-1.8819
T3
X2.9595Y-0.953
X2.9595Y-1.353
X2.9595Y-1.468
X2.9595Y-1.868
X3.0595Y-0.953
X3.0595Y-1.353
X3.0595Y-1.468
X3.0595Y-1.868
X3.1595Y-0.953
X3.1595Y-1.353
X3.1595Y-1.468
X3.1595Y-1.868
X3.2595Y-0.953
X3.2595Y-1.353
X3.2595Y-1.468
X3.2595Y-1.868
X3.3595Y-1.353
X3.3595Y-1.868
X3.4595Y-0.953
X3.4595Y-1.353
X3.4595Y-1.468
X3.4595Y-1.868
X3.5595Y-1.353
X3.5595Y-1.868
X3.6595Y-0.953
X3.6595Y-1.353
X3.6595Y-1.468
X3.6595Y-1.868
X4.5395Y-0.953
X4.5395Y-1.353
X4.5395Y-1.468
X4.5395Y-1.868
X4.6395Y-0.953
X4.6395Y-1.353
X4.6395Y-1.468
X4.6395Y-1.868
X4.7395Y-0.953
X4.7395Y-1.353
X4.7395Y-1.468
X4.7395Y-1.868
X4.8395Y-0.953
X4.8395Y-1.353
X4.8395Y-1.468
X4.8395Y-1.868
X4.9395Y-1.353
X4.9395Y-1.868
X5.0395Y-0.953
X5.0395Y-1.353
X5.0395Y-1.468
X5.0395Y-1.868
X5.1395Y-1.353
X5.1395Y-1.868
X5.2395Y-0.953
X5.2395Y-1.353
X5.2395Y-1.468
X5.2395Y-1.868
T4
X5.3264Y-5.4333
X5.4224Y-4.2898
X5.4224Y-4.3898
X5.4224Y-4.4898
T5
X2.628Y-2.874
X2.628Y-2.974
X2.628Y-3.074
X2.628Y-3.174
X2.628Y-3.274
X2.628Y-3.374
X2.628Y-3.474
X2.628Y-3.574
X5.1296Y-4.8624
X5.1296Y-5.4333
X5.228Y-5.4333
X5.3264Y-4.8624
X5.3543Y-2.6378
X5.3543Y-3.4628
X5.568Y-2.874
X5.568Y-2.974
X5.568Y-3.074
X5.568Y-3.174
X5.568Y-3.274
X5.568Y-3.374
X5.568Y-3.474
X5.568Y-3.574
T6
X2.828Y-4.288
X2.828Y-5.038
X2.828Y-5.788
X2.828Y-6.538
X3.078Y-4.188
X3.078Y-4.938
X3.078Y-5.688
X3.078Y-6.438
X3.578Y-4.288
X3.578Y-5.038
X3.578Y-5.788
X3.578Y-6.538
X3.828Y-4.188
X3.828Y-4.938
X3.828Y-5.688
X3.828Y-6.438
X4.328Y-4.288
X4.328Y-5.038
X4.328Y-5.788
X4.328Y-6.538
X4.578Y-4.188
X4.578Y-4.938
X4.578Y-5.688
X4.578Y-6.438
X5.0099Y-4.0787
X5.0099Y-4.7008
X5.078Y-5.788
X5.078Y-6.538
X5.1359Y-4.0787
X5.1359Y-4.7008
X5.328Y-5.688
X5.328Y-6.438
T7
X5.0729Y-4.2047
X5.0729Y-4.3898
X5.0729Y-4.5748
T8
X2.8593Y-3.1486
X2.8593Y-6.2195
X5.3397Y-3.1486
X5.3397Y-6.2195
T9
X2.9213Y-2.4067
X2.9213Y-2.4933
X2.9528Y-2.4067
X2.9528Y-2.4933
X2.9843Y-2.4067
X2.9843Y-2.4933
X3.0157Y-2.4067
X3.0157Y-2.4933
X3.0472Y-2.4067
X3.0472Y-2.4933
X3.0787Y-2.4067
X3.0787Y-2.4933
X5.1213Y-2.4067
X5.1213Y-2.4933
X5.1528Y-2.4067
X5.1528Y-2.4933
X5.1843Y-2.4067
X5.1843Y-2.4933
X5.2157Y-2.4067
X5.2157Y-2.4933
X5.2472Y-2.4067
X5.2472Y-2.4933
X5.2787Y-2.4067
X5.2787Y-2.4933
T10
X2.778Y-4.388
X2.778Y-5.138
X2.778Y-5.888
X2.778Y-6.638
X3.178Y-4.388
X3.178Y-5.138
X3.178Y-5.888
X3.178Y-6.638
X3.528Y-4.388
X3.528Y-5.138
X3.528Y-5.888
X3.528Y-6.638
X3.928Y-4.388
X3.928Y-5.138
X3.928Y-5.888
X3.928Y-6.638
X4.278Y-4.388
X4.278Y-5.138
X4.278Y-5.888
X4.278Y-6.638
X4.678Y-4.388
X4.678Y-5.138
X4.678Y-5.888
X4.678Y-6.638
X5.028Y-5.888
X5.028Y-6.638
X5.428Y-5.888
X5.428Y-6.638
T11
X2.978Y-4.388
X2.978Y-5.138
X2.978Y-5.888
X2.978Y-6.638
X3.728Y-4.388
X3.728Y-5.138
X3.728Y-5.888
X3.728Y-6.638
X4.478Y-4.388
X4.478Y-5.138
X4.478Y-5.888
X4.478Y-6.638
X5.228Y-5.888
X5.228Y-6.638
T7
G00X5.0036Y-5.1223
M15
G01X5.0036Y-5.1537
M16
G05
G00X5.4524Y-5.1223
M15
G01X5.4524Y-5.1537
M16
G05
T0
M30
