M48
; DRILL file {KiCad (5.99.0-9142-g8663153ef8)} date Monday, March 08, 2021 at 11:27:07 PM
; FORMAT={-:-/ absolute / inch / decimal}
; #@! TF.CreationDate,2021-03-08T23:27:07-05:00
; #@! TF.GenerationSoftware,Kicad,Pcbnew,(5.99.0-9142-g8663153ef8)
; #@! TF.FileFunction,NonPlated,1,2,NPTH
FMAT,2
INCH
T1C0.0197
T2C0.0390
T3C0.0669
T4C0.1575
%
G90
G05
T1
X2.9213Y-2.4067
X2.9213Y-2.4933
X2.9528Y-2.4067
X2.9528Y-2.4933
X2.9843Y-2.4067
X2.9843Y-2.4933
X3.0157Y-2.4067
X3.0157Y-2.4933
X3.0472Y-2.4067
X3.0472Y-2.4933
X3.0787Y-2.4067
X3.0787Y-2.4933
X4.0258Y-2.4067
X4.0258Y-2.4933
X4.0573Y-2.4067
X4.0573Y-2.4933
X4.0888Y-2.4067
X4.0888Y-2.4933
X4.1202Y-2.4067
X4.1202Y-2.4933
X4.1517Y-2.4067
X4.1517Y-2.4933
X4.1832Y-2.4067
X4.1832Y-2.4933
X5.1213Y-2.4067
X5.1213Y-2.4933
X5.1528Y-2.4067
X5.1528Y-2.4933
X5.1843Y-2.4067
X5.1843Y-2.4933
X5.2157Y-2.4067
X5.2157Y-2.4933
X5.2472Y-2.4067
X5.2472Y-2.4933
X5.2787Y-2.4067
X5.2787Y-2.4933
T2
X5.5129Y-4.285
X5.5529Y-4.485
X5.5929Y-4.285
T3
X2.778Y-4.388
X2.778Y-5.138
X2.778Y-5.888
X2.778Y-6.638
X3.178Y-4.388
X3.178Y-5.138
X3.178Y-5.888
X3.178Y-6.638
X3.528Y-4.388
X3.528Y-5.138
X3.528Y-5.888
X3.528Y-6.638
X3.928Y-4.388
X3.928Y-5.138
X3.928Y-5.888
X3.928Y-6.638
X4.278Y-4.388
X4.278Y-5.138
X4.278Y-5.888
X4.278Y-6.638
X4.678Y-4.388
X4.678Y-5.138
X4.678Y-5.888
X4.678Y-6.638
X5.028Y-5.138
X5.028Y-5.888
X5.028Y-6.638
X5.428Y-5.138
X5.428Y-5.888
X5.428Y-6.638
T4
X2.978Y-4.388
X2.978Y-5.138
X2.978Y-5.888
X2.978Y-6.638
X3.728Y-4.388
X3.728Y-5.138
X3.728Y-5.888
X3.728Y-6.638
X4.478Y-4.388
X4.478Y-5.138
X4.478Y-5.888
X4.478Y-6.638
X5.228Y-5.138
X5.228Y-5.888
X5.228Y-6.638
T0
M30
