G04 #@! TF.GenerationSoftware,KiCad,Pcbnew,(5.99.0-8123-gb2cbd99365)*
G04 #@! TF.CreationDate,2021-02-13T19:05:42-05:00*
G04 #@! TF.ProjectId,unitron,756e6974-726f-46e2-9e6b-696361645f70,1.5*
G04 #@! TF.SameCoordinates,Original*
G04 #@! TF.FileFunction,Paste,Top*
G04 #@! TF.FilePolarity,Positive*
%FSLAX46Y46*%
G04 Gerber Fmt 4.6, Leading zero omitted, Abs format (unit mm)*
G04 Created by KiCad (PCBNEW (5.99.0-8123-gb2cbd99365)) date 2021-02-13 19:05:42*
%MOMM*%
%LPD*%
G01*
G04 APERTURE LIST*
%ADD10R,0.700000X0.350000*%
G04 APERTURE END LIST*
D10*
X137375000Y-57797000D03*
X137375000Y-58547000D03*
X137375000Y-59297000D03*
X139275000Y-59297000D03*
X139275000Y-58547000D03*
X139275000Y-57797000D03*
X65625000Y-57797000D03*
X65625000Y-58547000D03*
X65625000Y-59297000D03*
X67525000Y-59297000D03*
X67525000Y-58547000D03*
X67525000Y-57797000D03*
X94325000Y-57797000D03*
X94325000Y-58547000D03*
X94325000Y-59297000D03*
X96225000Y-59297000D03*
X96225000Y-58547000D03*
X96225000Y-57797000D03*
X79975000Y-61607000D03*
X79975000Y-62357000D03*
X79975000Y-63107000D03*
X81875000Y-63107000D03*
X81875000Y-62357000D03*
X81875000Y-61607000D03*
X137375000Y-61607000D03*
X137375000Y-62357000D03*
X137375000Y-63107000D03*
X139275000Y-63107000D03*
X139275000Y-62357000D03*
X139275000Y-61607000D03*
X67525000Y-61607000D03*
X67525000Y-62357000D03*
X67525000Y-63107000D03*
X65625000Y-63107000D03*
X65625000Y-62357000D03*
X65625000Y-61607000D03*
X108675000Y-61607000D03*
X108675000Y-62357000D03*
X108675000Y-63107000D03*
X110575000Y-63107000D03*
X110575000Y-62357000D03*
X110575000Y-61607000D03*
X79975000Y-57797000D03*
X79975000Y-58547000D03*
X79975000Y-59297000D03*
X81875000Y-59297000D03*
X81875000Y-58547000D03*
X81875000Y-57797000D03*
X108675000Y-57797000D03*
X108675000Y-58547000D03*
X108675000Y-59297000D03*
X110575000Y-59297000D03*
X110575000Y-58547000D03*
X110575000Y-57797000D03*
X123025000Y-57797000D03*
X123025000Y-58547000D03*
X123025000Y-59297000D03*
X124925000Y-59297000D03*
X124925000Y-58547000D03*
X124925000Y-57797000D03*
X94325000Y-61607000D03*
X94325000Y-62357000D03*
X94325000Y-63107000D03*
X96225000Y-63107000D03*
X96225000Y-62357000D03*
X96225000Y-61607000D03*
X123025000Y-61607000D03*
X123025000Y-62357000D03*
X123025000Y-63107000D03*
X124925000Y-63107000D03*
X124925000Y-62357000D03*
X124925000Y-61607000D03*
M02*
