G04 #@! TF.GenerationSoftware,KiCad,Pcbnew,(5.99.0-8123-gb2cbd99365)*
G04 #@! TF.CreationDate,2021-02-13T19:05:43-05:00*
G04 #@! TF.ProjectId,unitron,756e6974-726f-46e2-9e6b-696361645f70,1.5*
G04 #@! TF.SameCoordinates,Original*
G04 #@! TF.FileFunction,Profile,NP*
%FSLAX46Y46*%
G04 Gerber Fmt 4.6, Leading zero omitted, Abs format (unit mm)*
G04 Created by KiCad (PCBNEW (5.99.0-8123-gb2cbd99365)) date 2021-02-13 19:05:43*
%MOMM*%
%LPD*%
G01*
G04 APERTURE LIST*
G04 #@! TA.AperFunction,Profile*
%ADD10C,0.050000*%
G04 #@! TD*
G04 #@! TA.AperFunction,Profile*
%ADD11C,0.100000*%
G04 #@! TD*
G04 APERTURE END LIST*
D10*
X75983500Y-67360800D02*
X101537100Y-67360800D01*
X64681100Y-169672000D02*
X64681100Y-67360800D01*
X145199100Y-67360800D02*
X145199100Y-169672000D01*
X145199100Y-64820800D02*
X140905900Y-64820800D01*
X68923500Y-67360800D02*
X64681100Y-67360800D01*
X145199100Y-169672000D02*
X64681100Y-169672000D01*
X133845900Y-64820800D02*
X108597100Y-64820800D01*
X68923500Y-64820800D02*
X64695100Y-64820800D01*
X64695100Y-30657800D02*
X64695100Y-64820800D01*
X75983500Y-64820800D02*
X101537100Y-64820800D01*
X108597100Y-67360800D02*
X133845900Y-67360800D01*
X145199100Y-67360800D02*
X140905900Y-67360800D01*
D11*
X145199100Y-64820800D02*
X145199100Y-30657800D01*
X145199100Y-30657800D02*
X64695100Y-30657800D01*
D10*
X75983500Y-64820800D02*
G75*
G03*
X75983500Y-67360800I0J-1270000D01*
G01*
X68923500Y-64820800D02*
G75*
G02*
X68923500Y-67360800I0J-1270000D01*
G01*
X101537100Y-64820800D02*
G75*
G02*
X101537100Y-67360800I0J-1270000D01*
G01*
X108597100Y-64820800D02*
G75*
G03*
X108597100Y-67360800I0J-1270000D01*
G01*
X133845900Y-64820800D02*
G75*
G02*
X133845900Y-67360800I0J-1270000D01*
G01*
X140905900Y-64820800D02*
G75*
G03*
X140905900Y-67360800I0J-1270000D01*
G01*
M02*
