G04 #@! TF.GenerationSoftware,KiCad,Pcbnew,(5.99.0-9142-g8663153ef8)*
G04 #@! TF.CreationDate,2021-03-08T23:27:10-05:00*
G04 #@! TF.ProjectId,unitron,756e6974-726f-46e2-9e6b-696361645f70,1.6*
G04 #@! TF.SameCoordinates,Original*
G04 #@! TF.FileFunction,Profile,NP*
%FSLAX46Y46*%
G04 Gerber Fmt 4.6, Leading zero omitted, Abs format (unit mm)*
G04 Created by KiCad (PCBNEW (5.99.0-9142-g8663153ef8)) date 2021-03-08 23:27:10*
%MOMM*%
%LPD*%
G01*
G04 APERTURE LIST*
G04 #@! TA.AperFunction,Profile*
%ADD10C,0.050000*%
G04 #@! TD*
G04 APERTURE END LIST*
D10*
X79730000Y-63500000D02*
X100724300Y-63500000D01*
X63955200Y-171533200D02*
X63955200Y-69850000D01*
X144219200Y-69850000D02*
X144219200Y-171533200D01*
X144221200Y-60960000D02*
X135610000Y-60960000D01*
X72670000Y-63500000D02*
X70307200Y-63500000D01*
X137869200Y-177883200D02*
X70305200Y-177883200D01*
X128550000Y-60960000D02*
X107784300Y-60960000D01*
X72670000Y-60960000D02*
X63957200Y-60960000D01*
X63955200Y-69850000D02*
G75*
G02*
X70307200Y-63500000I6350000J0D01*
G01*
X63955200Y-171533200D02*
G75*
G03*
X70305200Y-177883200I6350000J0D01*
G01*
X63957200Y-21941211D02*
X63957200Y-60960000D01*
X79730000Y-60960000D02*
X100724300Y-60960000D01*
X144219200Y-171533200D02*
G75*
G02*
X137869200Y-177883200I-6350000J0D01*
G01*
X107784300Y-63500000D02*
X128550000Y-63500000D01*
X137871200Y-63500000D02*
X135610000Y-63500000D01*
X144221200Y-60960000D02*
X144221606Y-21941211D01*
X144219200Y-69850000D02*
G75*
G03*
X137871200Y-63500000I-6350000J0D01*
G01*
X144221606Y-21941211D02*
X63957200Y-21941211D01*
X79730000Y-60960000D02*
G75*
G03*
X79730000Y-63500000I0J-1270000D01*
G01*
X72670000Y-60960000D02*
G75*
G02*
X72670000Y-63500000I0J-1270000D01*
G01*
X100724300Y-60960000D02*
G75*
G02*
X100724300Y-63500000I0J-1270000D01*
G01*
X107784300Y-60960000D02*
G75*
G03*
X107784300Y-63500000I0J-1270000D01*
G01*
X128550000Y-60960000D02*
G75*
G02*
X128550000Y-63500000I0J-1270000D01*
G01*
X135610000Y-60960000D02*
G75*
G03*
X135610000Y-63500000I0J-1270000D01*
G01*
M02*
