G04 #@! TF.GenerationSoftware,KiCad,Pcbnew,(5.99.0-8123-gb2cbd99365)*
G04 #@! TF.CreationDate,2021-02-01T23:00:55-05:00*
G04 #@! TF.ProjectId,unitron,756e6974-726f-46e2-9e6b-696361645f70,1.4*
G04 #@! TF.SameCoordinates,Original*
G04 #@! TF.FileFunction,Legend,Top*
G04 #@! TF.FilePolarity,Positive*
%FSLAX46Y46*%
G04 Gerber Fmt 4.6, Leading zero omitted, Abs format (unit mm)*
G04 Created by KiCad (PCBNEW (5.99.0-8123-gb2cbd99365)) date 2021-02-01 23:00:55*
%MOMM*%
%LPD*%
G01*
G04 APERTURE LIST*
%ADD10C,0.300000*%
%ADD11C,0.150000*%
%ADD12C,0.330200*%
%ADD13C,0.120000*%
G04 APERTURE END LIST*
D10*
X174930714Y-23590607D02*
X174930714Y-22090607D01*
X174930714Y-22304892D02*
X175037857Y-22197750D01*
X175252142Y-22090607D01*
X175573571Y-22090607D01*
X175787857Y-22197750D01*
X175895000Y-22412035D01*
X175895000Y-23590607D01*
X175895000Y-22412035D02*
X176002142Y-22197750D01*
X176216428Y-22090607D01*
X176537857Y-22090607D01*
X176752142Y-22197750D01*
X176859285Y-22412035D01*
X176859285Y-23590607D01*
X177930714Y-23590607D02*
X177930714Y-22090607D01*
X177930714Y-21340607D02*
X177823571Y-21447750D01*
X177930714Y-21554892D01*
X178037857Y-21447750D01*
X177930714Y-21340607D01*
X177930714Y-21554892D01*
X174930714Y-27213107D02*
X174930714Y-24963107D01*
X175145000Y-26355964D02*
X175787857Y-27213107D01*
X175787857Y-25713107D02*
X174930714Y-26570250D01*
X176752142Y-27213107D02*
X176752142Y-25713107D01*
X176752142Y-25927392D02*
X176859285Y-25820250D01*
X177073571Y-25713107D01*
X177395000Y-25713107D01*
X177609285Y-25820250D01*
X177716428Y-26034535D01*
X177716428Y-27213107D01*
X177716428Y-26034535D02*
X177823571Y-25820250D01*
X178037857Y-25713107D01*
X178359285Y-25713107D01*
X178573571Y-25820250D01*
X178680714Y-26034535D01*
X178680714Y-27213107D01*
X205230714Y-22445285D02*
X204480714Y-22445285D01*
X204480714Y-23623857D02*
X204480714Y-21373857D01*
X205552142Y-21373857D01*
D11*
X203473690Y-25865476D02*
X203354642Y-25805952D01*
X203295119Y-25746428D01*
X203235595Y-25627380D01*
X203235595Y-25270238D01*
X203295119Y-25151190D01*
X203354642Y-25091666D01*
X203473690Y-25032142D01*
X203652261Y-25032142D01*
X203771309Y-25091666D01*
X203830833Y-25151190D01*
X203890357Y-25270238D01*
X203890357Y-25627380D01*
X203830833Y-25746428D01*
X203771309Y-25805952D01*
X203652261Y-25865476D01*
X203473690Y-25865476D01*
D10*
X205766428Y-27103571D02*
X205659285Y-27210714D01*
X205337857Y-27317857D01*
X205123571Y-27317857D01*
X204802142Y-27210714D01*
X204587857Y-26996428D01*
X204480714Y-26782142D01*
X204373571Y-26353571D01*
X204373571Y-26032142D01*
X204480714Y-25603571D01*
X204587857Y-25389285D01*
X204802142Y-25175000D01*
X205123571Y-25067857D01*
X205337857Y-25067857D01*
X205659285Y-25175000D01*
X205766428Y-25282142D01*
X218302142Y-23590607D02*
X218087857Y-23483464D01*
X217980714Y-23376321D01*
X217873571Y-23162035D01*
X217873571Y-22519178D01*
X217980714Y-22304892D01*
X218087857Y-22197750D01*
X218302142Y-22090607D01*
X218623571Y-22090607D01*
X218837857Y-22197750D01*
X218945000Y-22304892D01*
X219052142Y-22519178D01*
X219052142Y-23162035D01*
X218945000Y-23376321D01*
X218837857Y-23483464D01*
X218623571Y-23590607D01*
X218302142Y-23590607D01*
X219802142Y-22090607D02*
X220980714Y-22090607D01*
X219802142Y-23590607D01*
X220980714Y-23590607D01*
X217980714Y-27213107D02*
X217980714Y-25713107D01*
X217980714Y-25927392D02*
X218087857Y-25820250D01*
X218302142Y-25713107D01*
X218623571Y-25713107D01*
X218837857Y-25820250D01*
X218945000Y-26034535D01*
X218945000Y-27213107D01*
X218945000Y-26034535D02*
X219052142Y-25820250D01*
X219266428Y-25713107D01*
X219587857Y-25713107D01*
X219802142Y-25820250D01*
X219909285Y-26034535D01*
X219909285Y-27213107D01*
X222052142Y-27213107D02*
X220980714Y-27213107D01*
X220980714Y-24963107D01*
D12*
X202964142Y-83469238D02*
X202964142Y-85114190D01*
X203060904Y-85307714D01*
X203157666Y-85404476D01*
X203351190Y-85501238D01*
X203738238Y-85501238D01*
X203931761Y-85404476D01*
X204028523Y-85307714D01*
X204125285Y-85114190D01*
X204125285Y-83469238D01*
X205092904Y-84146571D02*
X205092904Y-85501238D01*
X205092904Y-84340095D02*
X205189666Y-84243333D01*
X205383190Y-84146571D01*
X205673476Y-84146571D01*
X205867000Y-84243333D01*
X205963761Y-84436857D01*
X205963761Y-85501238D01*
X206931380Y-85501238D02*
X206931380Y-84146571D01*
X206931380Y-83469238D02*
X206834619Y-83566000D01*
X206931380Y-83662761D01*
X207028142Y-83566000D01*
X206931380Y-83469238D01*
X206931380Y-83662761D01*
X207608714Y-84146571D02*
X208382809Y-84146571D01*
X207899000Y-83469238D02*
X207899000Y-85210952D01*
X207995761Y-85404476D01*
X208189285Y-85501238D01*
X208382809Y-85501238D01*
X209060142Y-85501238D02*
X209060142Y-84146571D01*
X209060142Y-84533619D02*
X209156904Y-84340095D01*
X209253666Y-84243333D01*
X209447190Y-84146571D01*
X209640714Y-84146571D01*
X210608333Y-85501238D02*
X210414809Y-85404476D01*
X210318047Y-85307714D01*
X210221285Y-85114190D01*
X210221285Y-84533619D01*
X210318047Y-84340095D01*
X210414809Y-84243333D01*
X210608333Y-84146571D01*
X210898619Y-84146571D01*
X211092142Y-84243333D01*
X211188904Y-84340095D01*
X211285666Y-84533619D01*
X211285666Y-85114190D01*
X211188904Y-85307714D01*
X211092142Y-85404476D01*
X210898619Y-85501238D01*
X210608333Y-85501238D01*
X212156523Y-84146571D02*
X212156523Y-85501238D01*
X212156523Y-84340095D02*
X212253285Y-84243333D01*
X212446809Y-84146571D01*
X212737095Y-84146571D01*
X212930619Y-84243333D01*
X213027380Y-84436857D01*
X213027380Y-85501238D01*
X215349666Y-84146571D02*
X215833476Y-85501238D01*
X216317285Y-84146571D01*
X218155761Y-85501238D02*
X216994619Y-85501238D01*
X217575190Y-85501238D02*
X217575190Y-83469238D01*
X217381666Y-83759523D01*
X217188142Y-83953047D01*
X216994619Y-84049809D01*
X219026619Y-85307714D02*
X219123380Y-85404476D01*
X219026619Y-85501238D01*
X218929857Y-85404476D01*
X219026619Y-85307714D01*
X219026619Y-85501238D01*
X220865095Y-84146571D02*
X220865095Y-85501238D01*
X220381285Y-83372476D02*
X219897476Y-84823904D01*
X221155380Y-84823904D01*
D10*
X146230714Y-23590607D02*
X146230714Y-22090607D01*
X146230714Y-21340607D02*
X146123571Y-21447750D01*
X146230714Y-21554892D01*
X146337857Y-21447750D01*
X146230714Y-21340607D01*
X146230714Y-21554892D01*
X147302142Y-22090607D02*
X147302142Y-23590607D01*
X147302142Y-22304892D02*
X147409285Y-22197750D01*
X147623571Y-22090607D01*
X147945000Y-22090607D01*
X148159285Y-22197750D01*
X148266428Y-22412035D01*
X148266428Y-23590607D01*
X146230714Y-27213107D02*
X146230714Y-25713107D01*
X146230714Y-25927392D02*
X146337857Y-25820250D01*
X146552142Y-25713107D01*
X146873571Y-25713107D01*
X147087857Y-25820250D01*
X147195000Y-26034535D01*
X147195000Y-27213107D01*
X147195000Y-26034535D02*
X147302142Y-25820250D01*
X147516428Y-25713107D01*
X147837857Y-25713107D01*
X148052142Y-25820250D01*
X148159285Y-26034535D01*
X148159285Y-27213107D01*
X149230714Y-27213107D02*
X149230714Y-25713107D01*
X149230714Y-25927392D02*
X149337857Y-25820250D01*
X149552142Y-25713107D01*
X149873571Y-25713107D01*
X150087857Y-25820250D01*
X150195000Y-26034535D01*
X150195000Y-27213107D01*
X150195000Y-26034535D02*
X150302142Y-25820250D01*
X150516428Y-25713107D01*
X150837857Y-25713107D01*
X151052142Y-25820250D01*
X151159285Y-26034535D01*
X151159285Y-27213107D01*
X189602142Y-23590607D02*
X189387857Y-23483464D01*
X189280714Y-23269178D01*
X189280714Y-21340607D01*
X190459285Y-23590607D02*
X190459285Y-21340607D01*
X190459285Y-22197750D02*
X190673571Y-22090607D01*
X191102142Y-22090607D01*
X191316428Y-22197750D01*
X191423571Y-22304892D01*
X191530714Y-22519178D01*
X191530714Y-23162035D01*
X191423571Y-23376321D01*
X191316428Y-23483464D01*
X191102142Y-23590607D01*
X190673571Y-23590607D01*
X190459285Y-23483464D01*
X189280714Y-27213107D02*
X189280714Y-24963107D01*
X189495000Y-26355964D02*
X190137857Y-27213107D01*
X190137857Y-25713107D02*
X189280714Y-26570250D01*
X192066428Y-25713107D02*
X192066428Y-27534535D01*
X191959285Y-27748821D01*
X191852142Y-27855964D01*
X191637857Y-27963107D01*
X191316428Y-27963107D01*
X191102142Y-27855964D01*
X192066428Y-27105964D02*
X191852142Y-27213107D01*
X191423571Y-27213107D01*
X191209285Y-27105964D01*
X191102142Y-26998821D01*
X190995000Y-26784535D01*
X190995000Y-26141678D01*
X191102142Y-25927392D01*
X191209285Y-25820250D01*
X191423571Y-25713107D01*
X191852142Y-25713107D01*
X192066428Y-25820250D01*
X160259285Y-22090607D02*
X161116428Y-22090607D01*
X160580714Y-23590607D02*
X160580714Y-21662035D01*
X160687857Y-21447750D01*
X160902142Y-21340607D01*
X161116428Y-21340607D01*
X161545000Y-22090607D02*
X162402142Y-22090607D01*
X161866428Y-21340607D02*
X161866428Y-23269178D01*
X161973571Y-23483464D01*
X162187857Y-23590607D01*
X162402142Y-23590607D01*
X160580714Y-27213107D02*
X160580714Y-25713107D01*
X160580714Y-25927392D02*
X160687857Y-25820250D01*
X160902142Y-25713107D01*
X161223571Y-25713107D01*
X161437857Y-25820250D01*
X161545000Y-26034535D01*
X161545000Y-27213107D01*
X161545000Y-26034535D02*
X161652142Y-25820250D01*
X161866428Y-25713107D01*
X162187857Y-25713107D01*
X162402142Y-25820250D01*
X162509285Y-26034535D01*
X162509285Y-27213107D01*
D11*
X203473690Y-22155476D02*
X203354642Y-22095952D01*
X203295119Y-22036428D01*
X203235595Y-21917380D01*
X203235595Y-21560238D01*
X203295119Y-21441190D01*
X203354642Y-21381666D01*
X203473690Y-21322142D01*
X203652261Y-21322142D01*
X203771309Y-21381666D01*
X203830833Y-21441190D01*
X203890357Y-21560238D01*
X203890357Y-21917380D01*
X203830833Y-22036428D01*
X203771309Y-22095952D01*
X203652261Y-22155476D01*
X203473690Y-22155476D01*
X210146995Y-104366961D02*
X210289852Y-104414580D01*
X210527947Y-104414580D01*
X210623185Y-104366961D01*
X210670804Y-104319342D01*
X210718423Y-104224104D01*
X210718423Y-104128866D01*
X210670804Y-104033628D01*
X210623185Y-103986009D01*
X210527947Y-103938390D01*
X210337471Y-103890771D01*
X210242233Y-103843152D01*
X210194614Y-103795533D01*
X210146995Y-103700295D01*
X210146995Y-103605057D01*
X210194614Y-103509819D01*
X210242233Y-103462200D01*
X210337471Y-103414580D01*
X210575566Y-103414580D01*
X210718423Y-103462200D01*
X211575566Y-103414580D02*
X211385090Y-103414580D01*
X211289852Y-103462200D01*
X211242233Y-103509819D01*
X211146995Y-103652676D01*
X211099376Y-103843152D01*
X211099376Y-104224104D01*
X211146995Y-104319342D01*
X211194614Y-104366961D01*
X211289852Y-104414580D01*
X211480328Y-104414580D01*
X211575566Y-104366961D01*
X211623185Y-104319342D01*
X211670804Y-104224104D01*
X211670804Y-103986009D01*
X211623185Y-103890771D01*
X211575566Y-103843152D01*
X211480328Y-103795533D01*
X211289852Y-103795533D01*
X211194614Y-103843152D01*
X211146995Y-103890771D01*
X211099376Y-103986009D01*
X181459285Y-69905571D02*
X181602142Y-69953190D01*
X181649761Y-70000809D01*
X181697380Y-70096047D01*
X181697380Y-70238904D01*
X181649761Y-70334142D01*
X181602142Y-70381761D01*
X181506904Y-70429380D01*
X181125952Y-70429380D01*
X181125952Y-69429380D01*
X181459285Y-69429380D01*
X181554523Y-69477000D01*
X181602142Y-69524619D01*
X181649761Y-69619857D01*
X181649761Y-69715095D01*
X181602142Y-69810333D01*
X181554523Y-69857952D01*
X181459285Y-69905571D01*
X181125952Y-69905571D01*
X181983095Y-69429380D02*
X182554523Y-69429380D01*
X182268809Y-70429380D02*
X182268809Y-69429380D01*
X183411666Y-70429380D02*
X182840238Y-70429380D01*
X183125952Y-70429380D02*
X183125952Y-69429380D01*
X183030714Y-69572238D01*
X182935476Y-69667476D01*
X182840238Y-69715095D01*
X193000571Y-63877142D02*
X194143428Y-63877142D01*
X209510571Y-76577142D02*
X210653428Y-76577142D01*
X210082000Y-77148571D02*
X210082000Y-76005714D01*
X170600571Y-76577142D02*
X171743428Y-76577142D01*
X193000571Y-76577142D02*
X194143428Y-76577142D01*
X193572000Y-77148571D02*
X193572000Y-76005714D01*
X209510571Y-63877142D02*
X210653428Y-63877142D01*
X170600571Y-63877142D02*
X171743428Y-63877142D01*
X171172000Y-64448571D02*
X171172000Y-63305714D01*
X210146995Y-142466961D02*
X210289852Y-142514580D01*
X210527947Y-142514580D01*
X210623185Y-142466961D01*
X210670804Y-142419342D01*
X210718423Y-142324104D01*
X210718423Y-142228866D01*
X210670804Y-142133628D01*
X210623185Y-142086009D01*
X210527947Y-142038390D01*
X210337471Y-141990771D01*
X210242233Y-141943152D01*
X210194614Y-141895533D01*
X210146995Y-141800295D01*
X210146995Y-141705057D01*
X210194614Y-141609819D01*
X210242233Y-141562200D01*
X210337471Y-141514580D01*
X210575566Y-141514580D01*
X210718423Y-141562200D01*
X211670804Y-142514580D02*
X211099376Y-142514580D01*
X211385090Y-142514580D02*
X211385090Y-141514580D01*
X211289852Y-141657438D01*
X211194614Y-141752676D01*
X211099376Y-141800295D01*
X220592380Y-93043333D02*
X221306666Y-93043333D01*
X221449523Y-93090952D01*
X221544761Y-93186190D01*
X221592380Y-93329047D01*
X221592380Y-93424285D01*
X220592380Y-92090952D02*
X220592380Y-92567142D01*
X221068571Y-92614761D01*
X221020952Y-92567142D01*
X220973333Y-92471904D01*
X220973333Y-92233809D01*
X221020952Y-92138571D01*
X221068571Y-92090952D01*
X221163809Y-92043333D01*
X221401904Y-92043333D01*
X221497142Y-92090952D01*
X221544761Y-92138571D01*
X221592380Y-92233809D01*
X221592380Y-92471904D01*
X221544761Y-92567142D01*
X221497142Y-92614761D01*
X146351666Y-57872380D02*
X146351666Y-58586666D01*
X146304047Y-58729523D01*
X146208809Y-58824761D01*
X146065952Y-58872380D01*
X145970714Y-58872380D01*
X146780238Y-57967619D02*
X146827857Y-57920000D01*
X146923095Y-57872380D01*
X147161190Y-57872380D01*
X147256428Y-57920000D01*
X147304047Y-57967619D01*
X147351666Y-58062857D01*
X147351666Y-58158095D01*
X147304047Y-58300952D01*
X146732619Y-58872380D01*
X147351666Y-58872380D01*
X210146995Y-123416961D02*
X210289852Y-123464580D01*
X210527947Y-123464580D01*
X210623185Y-123416961D01*
X210670804Y-123369342D01*
X210718423Y-123274104D01*
X210718423Y-123178866D01*
X210670804Y-123083628D01*
X210623185Y-123036009D01*
X210527947Y-122988390D01*
X210337471Y-122940771D01*
X210242233Y-122893152D01*
X210194614Y-122845533D01*
X210146995Y-122750295D01*
X210146995Y-122655057D01*
X210194614Y-122559819D01*
X210242233Y-122512200D01*
X210337471Y-122464580D01*
X210575566Y-122464580D01*
X210718423Y-122512200D01*
X211623185Y-122464580D02*
X211146995Y-122464580D01*
X211099376Y-122940771D01*
X211146995Y-122893152D01*
X211242233Y-122845533D01*
X211480328Y-122845533D01*
X211575566Y-122893152D01*
X211623185Y-122940771D01*
X211670804Y-123036009D01*
X211670804Y-123274104D01*
X211623185Y-123369342D01*
X211575566Y-123416961D01*
X211480328Y-123464580D01*
X211242233Y-123464580D01*
X211146995Y-123416961D01*
X211099376Y-123369342D01*
X145288095Y-151582380D02*
X145288095Y-150582380D01*
X145288095Y-151058571D02*
X145859523Y-151058571D01*
X145859523Y-151582380D02*
X145859523Y-150582380D01*
X146288095Y-150677619D02*
X146335714Y-150630000D01*
X146430952Y-150582380D01*
X146669047Y-150582380D01*
X146764285Y-150630000D01*
X146811904Y-150677619D01*
X146859523Y-150772857D01*
X146859523Y-150868095D01*
X146811904Y-151010952D01*
X146240476Y-151582380D01*
X146859523Y-151582380D01*
X213868095Y-58237380D02*
X213868095Y-57237380D01*
X213868095Y-57713571D02*
X214439523Y-57713571D01*
X214439523Y-58237380D02*
X214439523Y-57237380D01*
X215344285Y-57570714D02*
X215344285Y-58237380D01*
X215106190Y-57189761D02*
X214868095Y-57904047D01*
X215487142Y-57904047D01*
X217678095Y-151582380D02*
X217678095Y-150582380D01*
X217678095Y-151058571D02*
X218249523Y-151058571D01*
X218249523Y-151582380D02*
X218249523Y-150582380D01*
X218630476Y-150582380D02*
X219249523Y-150582380D01*
X218916190Y-150963333D01*
X219059047Y-150963333D01*
X219154285Y-151010952D01*
X219201904Y-151058571D01*
X219249523Y-151153809D01*
X219249523Y-151391904D01*
X219201904Y-151487142D01*
X219154285Y-151534761D01*
X219059047Y-151582380D01*
X218773333Y-151582380D01*
X218678095Y-151534761D01*
X218630476Y-151487142D01*
X216836666Y-57872380D02*
X216836666Y-58586666D01*
X216789047Y-58729523D01*
X216693809Y-58824761D01*
X216550952Y-58872380D01*
X216455714Y-58872380D01*
X217741428Y-58205714D02*
X217741428Y-58872380D01*
X217503333Y-57824761D02*
X217265238Y-58539047D01*
X217884285Y-58539047D01*
X149098095Y-58237380D02*
X149098095Y-57237380D01*
X149098095Y-57713571D02*
X149669523Y-57713571D01*
X149669523Y-58237380D02*
X149669523Y-57237380D01*
X150669523Y-58237380D02*
X150098095Y-58237380D01*
X150383809Y-58237380D02*
X150383809Y-57237380D01*
X150288571Y-57380238D01*
X150193333Y-57475476D01*
X150098095Y-57523095D01*
X190620804Y-104366961D02*
X190763661Y-104414580D01*
X191001757Y-104414580D01*
X191096995Y-104366961D01*
X191144614Y-104319342D01*
X191192233Y-104224104D01*
X191192233Y-104128866D01*
X191144614Y-104033628D01*
X191096995Y-103986009D01*
X191001757Y-103938390D01*
X190811280Y-103890771D01*
X190716042Y-103843152D01*
X190668423Y-103795533D01*
X190620804Y-103700295D01*
X190620804Y-103605057D01*
X190668423Y-103509819D01*
X190716042Y-103462200D01*
X190811280Y-103414580D01*
X191049376Y-103414580D01*
X191192233Y-103462200D01*
X192144614Y-104414580D02*
X191573185Y-104414580D01*
X191858900Y-104414580D02*
X191858900Y-103414580D01*
X191763661Y-103557438D01*
X191668423Y-103652676D01*
X191573185Y-103700295D01*
X192477947Y-103414580D02*
X193096995Y-103414580D01*
X192763661Y-103795533D01*
X192906519Y-103795533D01*
X193001757Y-103843152D01*
X193049376Y-103890771D01*
X193096995Y-103986009D01*
X193096995Y-104224104D01*
X193049376Y-104319342D01*
X193001757Y-104366961D01*
X192906519Y-104414580D01*
X192620804Y-104414580D01*
X192525566Y-104366961D01*
X192477947Y-104319342D01*
X210575566Y-98321761D02*
X210718423Y-98369380D01*
X210956519Y-98369380D01*
X211051757Y-98321761D01*
X211099376Y-98274142D01*
X211146995Y-98178904D01*
X211146995Y-98083666D01*
X211099376Y-97988428D01*
X211051757Y-97940809D01*
X210956519Y-97893190D01*
X210766042Y-97845571D01*
X210670804Y-97797952D01*
X210623185Y-97750333D01*
X210575566Y-97655095D01*
X210575566Y-97559857D01*
X210623185Y-97464619D01*
X210670804Y-97417000D01*
X210766042Y-97369380D01*
X211004138Y-97369380D01*
X211146995Y-97417000D01*
X211480328Y-97369380D02*
X211718423Y-98369380D01*
X211908900Y-97655095D01*
X212099376Y-98369380D01*
X212337471Y-97369380D01*
X213242233Y-98369380D02*
X212670804Y-98369380D01*
X212956519Y-98369380D02*
X212956519Y-97369380D01*
X212861280Y-97512238D01*
X212766042Y-97607476D01*
X212670804Y-97655095D01*
X204510714Y-95130880D02*
X204510714Y-94130880D01*
X204748809Y-94130880D01*
X204891666Y-94178500D01*
X204986904Y-94273738D01*
X205034523Y-94368976D01*
X205082142Y-94559452D01*
X205082142Y-94702309D01*
X205034523Y-94892785D01*
X204986904Y-94988023D01*
X204891666Y-95083261D01*
X204748809Y-95130880D01*
X204510714Y-95130880D01*
X206034523Y-95130880D02*
X205463095Y-95130880D01*
X205748809Y-95130880D02*
X205748809Y-94130880D01*
X205653571Y-94273738D01*
X205558333Y-94368976D01*
X205463095Y-94416595D01*
X206891666Y-94464214D02*
X206891666Y-95130880D01*
X206653571Y-94083261D02*
X206415476Y-94797547D01*
X207034523Y-94797547D01*
X191096995Y-123416961D02*
X191239852Y-123464580D01*
X191477947Y-123464580D01*
X191573185Y-123416961D01*
X191620804Y-123369342D01*
X191668423Y-123274104D01*
X191668423Y-123178866D01*
X191620804Y-123083628D01*
X191573185Y-123036009D01*
X191477947Y-122988390D01*
X191287471Y-122940771D01*
X191192233Y-122893152D01*
X191144614Y-122845533D01*
X191096995Y-122750295D01*
X191096995Y-122655057D01*
X191144614Y-122559819D01*
X191192233Y-122512200D01*
X191287471Y-122464580D01*
X191525566Y-122464580D01*
X191668423Y-122512200D01*
X192144614Y-123464580D02*
X192335090Y-123464580D01*
X192430328Y-123416961D01*
X192477947Y-123369342D01*
X192573185Y-123226485D01*
X192620804Y-123036009D01*
X192620804Y-122655057D01*
X192573185Y-122559819D01*
X192525566Y-122512200D01*
X192430328Y-122464580D01*
X192239852Y-122464580D01*
X192144614Y-122512200D01*
X192096995Y-122559819D01*
X192049376Y-122655057D01*
X192049376Y-122893152D01*
X192096995Y-122988390D01*
X192144614Y-123036009D01*
X192239852Y-123083628D01*
X192430328Y-123083628D01*
X192525566Y-123036009D01*
X192573185Y-122988390D01*
X192620804Y-122893152D01*
X161163095Y-34377380D02*
X161163095Y-35186904D01*
X161210714Y-35282142D01*
X161258333Y-35329761D01*
X161353571Y-35377380D01*
X161544047Y-35377380D01*
X161639285Y-35329761D01*
X161686904Y-35282142D01*
X161734523Y-35186904D01*
X161734523Y-34377380D01*
X162686904Y-34377380D02*
X162210714Y-34377380D01*
X162163095Y-34853571D01*
X162210714Y-34805952D01*
X162305952Y-34758333D01*
X162544047Y-34758333D01*
X162639285Y-34805952D01*
X162686904Y-34853571D01*
X162734523Y-34948809D01*
X162734523Y-35186904D01*
X162686904Y-35282142D01*
X162639285Y-35329761D01*
X162544047Y-35377380D01*
X162305952Y-35377380D01*
X162210714Y-35329761D01*
X162163095Y-35282142D01*
X201803095Y-34377380D02*
X201803095Y-35186904D01*
X201850714Y-35282142D01*
X201898333Y-35329761D01*
X201993571Y-35377380D01*
X202184047Y-35377380D01*
X202279285Y-35329761D01*
X202326904Y-35282142D01*
X202374523Y-35186904D01*
X202374523Y-34377380D01*
X203279285Y-34377380D02*
X203088809Y-34377380D01*
X202993571Y-34425000D01*
X202945952Y-34472619D01*
X202850714Y-34615476D01*
X202803095Y-34805952D01*
X202803095Y-35186904D01*
X202850714Y-35282142D01*
X202898333Y-35329761D01*
X202993571Y-35377380D01*
X203184047Y-35377380D01*
X203279285Y-35329761D01*
X203326904Y-35282142D01*
X203374523Y-35186904D01*
X203374523Y-34948809D01*
X203326904Y-34853571D01*
X203279285Y-34805952D01*
X203184047Y-34758333D01*
X202993571Y-34758333D01*
X202898333Y-34805952D01*
X202850714Y-34853571D01*
X202803095Y-34948809D01*
X162521995Y-142466961D02*
X162664852Y-142514580D01*
X162902947Y-142514580D01*
X162998185Y-142466961D01*
X163045804Y-142419342D01*
X163093423Y-142324104D01*
X163093423Y-142228866D01*
X163045804Y-142133628D01*
X162998185Y-142086009D01*
X162902947Y-142038390D01*
X162712471Y-141990771D01*
X162617233Y-141943152D01*
X162569614Y-141895533D01*
X162521995Y-141800295D01*
X162521995Y-141705057D01*
X162569614Y-141609819D01*
X162617233Y-141562200D01*
X162712471Y-141514580D01*
X162950566Y-141514580D01*
X163093423Y-141562200D01*
X163950566Y-141847914D02*
X163950566Y-142514580D01*
X163712471Y-141466961D02*
X163474376Y-142181247D01*
X164093423Y-142181247D01*
X161798095Y-47712380D02*
X161798095Y-48521904D01*
X161845714Y-48617142D01*
X161893333Y-48664761D01*
X161988571Y-48712380D01*
X162179047Y-48712380D01*
X162274285Y-48664761D01*
X162321904Y-48617142D01*
X162369523Y-48521904D01*
X162369523Y-47712380D01*
X163369523Y-48712380D02*
X162798095Y-48712380D01*
X163083809Y-48712380D02*
X163083809Y-47712380D01*
X162988571Y-47855238D01*
X162893333Y-47950476D01*
X162798095Y-47998095D01*
X201803095Y-47712380D02*
X201803095Y-48521904D01*
X201850714Y-48617142D01*
X201898333Y-48664761D01*
X201993571Y-48712380D01*
X202184047Y-48712380D01*
X202279285Y-48664761D01*
X202326904Y-48617142D01*
X202374523Y-48521904D01*
X202374523Y-47712380D01*
X202803095Y-47807619D02*
X202850714Y-47760000D01*
X202945952Y-47712380D01*
X203184047Y-47712380D01*
X203279285Y-47760000D01*
X203326904Y-47807619D01*
X203374523Y-47902857D01*
X203374523Y-47998095D01*
X203326904Y-48140952D01*
X202755476Y-48712380D01*
X203374523Y-48712380D01*
X191096995Y-142466961D02*
X191239852Y-142514580D01*
X191477947Y-142514580D01*
X191573185Y-142466961D01*
X191620804Y-142419342D01*
X191668423Y-142324104D01*
X191668423Y-142228866D01*
X191620804Y-142133628D01*
X191573185Y-142086009D01*
X191477947Y-142038390D01*
X191287471Y-141990771D01*
X191192233Y-141943152D01*
X191144614Y-141895533D01*
X191096995Y-141800295D01*
X191096995Y-141705057D01*
X191144614Y-141609819D01*
X191192233Y-141562200D01*
X191287471Y-141514580D01*
X191525566Y-141514580D01*
X191668423Y-141562200D01*
X192001757Y-141514580D02*
X192620804Y-141514580D01*
X192287471Y-141895533D01*
X192430328Y-141895533D01*
X192525566Y-141943152D01*
X192573185Y-141990771D01*
X192620804Y-142086009D01*
X192620804Y-142324104D01*
X192573185Y-142419342D01*
X192525566Y-142466961D01*
X192430328Y-142514580D01*
X192144614Y-142514580D01*
X192049376Y-142466961D01*
X192001757Y-142419342D01*
X191096995Y-85316961D02*
X191239852Y-85364580D01*
X191477947Y-85364580D01*
X191573185Y-85316961D01*
X191620804Y-85269342D01*
X191668423Y-85174104D01*
X191668423Y-85078866D01*
X191620804Y-84983628D01*
X191573185Y-84936009D01*
X191477947Y-84888390D01*
X191287471Y-84840771D01*
X191192233Y-84793152D01*
X191144614Y-84745533D01*
X191096995Y-84650295D01*
X191096995Y-84555057D01*
X191144614Y-84459819D01*
X191192233Y-84412200D01*
X191287471Y-84364580D01*
X191525566Y-84364580D01*
X191668423Y-84412200D01*
X192049376Y-84459819D02*
X192096995Y-84412200D01*
X192192233Y-84364580D01*
X192430328Y-84364580D01*
X192525566Y-84412200D01*
X192573185Y-84459819D01*
X192620804Y-84555057D01*
X192620804Y-84650295D01*
X192573185Y-84793152D01*
X192001757Y-85364580D01*
X192620804Y-85364580D01*
X171570804Y-85316961D02*
X171713661Y-85364580D01*
X171951757Y-85364580D01*
X172046995Y-85316961D01*
X172094614Y-85269342D01*
X172142233Y-85174104D01*
X172142233Y-85078866D01*
X172094614Y-84983628D01*
X172046995Y-84936009D01*
X171951757Y-84888390D01*
X171761280Y-84840771D01*
X171666042Y-84793152D01*
X171618423Y-84745533D01*
X171570804Y-84650295D01*
X171570804Y-84555057D01*
X171618423Y-84459819D01*
X171666042Y-84412200D01*
X171761280Y-84364580D01*
X171999376Y-84364580D01*
X172142233Y-84412200D01*
X173094614Y-85364580D02*
X172523185Y-85364580D01*
X172808900Y-85364580D02*
X172808900Y-84364580D01*
X172713661Y-84507438D01*
X172618423Y-84602676D01*
X172523185Y-84650295D01*
X173951757Y-84697914D02*
X173951757Y-85364580D01*
X173713661Y-84316961D02*
X173475566Y-85031247D01*
X174094614Y-85031247D01*
X171570804Y-104366961D02*
X171713661Y-104414580D01*
X171951757Y-104414580D01*
X172046995Y-104366961D01*
X172094614Y-104319342D01*
X172142233Y-104224104D01*
X172142233Y-104128866D01*
X172094614Y-104033628D01*
X172046995Y-103986009D01*
X171951757Y-103938390D01*
X171761280Y-103890771D01*
X171666042Y-103843152D01*
X171618423Y-103795533D01*
X171570804Y-103700295D01*
X171570804Y-103605057D01*
X171618423Y-103509819D01*
X171666042Y-103462200D01*
X171761280Y-103414580D01*
X171999376Y-103414580D01*
X172142233Y-103462200D01*
X173094614Y-104414580D02*
X172523185Y-104414580D01*
X172808900Y-104414580D02*
X172808900Y-103414580D01*
X172713661Y-103557438D01*
X172618423Y-103652676D01*
X172523185Y-103700295D01*
X173475566Y-103509819D02*
X173523185Y-103462200D01*
X173618423Y-103414580D01*
X173856519Y-103414580D01*
X173951757Y-103462200D01*
X173999376Y-103509819D01*
X174046995Y-103605057D01*
X174046995Y-103700295D01*
X173999376Y-103843152D01*
X173427947Y-104414580D01*
X174046995Y-104414580D01*
X152520804Y-104366961D02*
X152663661Y-104414580D01*
X152901757Y-104414580D01*
X152996995Y-104366961D01*
X153044614Y-104319342D01*
X153092233Y-104224104D01*
X153092233Y-104128866D01*
X153044614Y-104033628D01*
X152996995Y-103986009D01*
X152901757Y-103938390D01*
X152711280Y-103890771D01*
X152616042Y-103843152D01*
X152568423Y-103795533D01*
X152520804Y-103700295D01*
X152520804Y-103605057D01*
X152568423Y-103509819D01*
X152616042Y-103462200D01*
X152711280Y-103414580D01*
X152949376Y-103414580D01*
X153092233Y-103462200D01*
X154044614Y-104414580D02*
X153473185Y-104414580D01*
X153758900Y-104414580D02*
X153758900Y-103414580D01*
X153663661Y-103557438D01*
X153568423Y-103652676D01*
X153473185Y-103700295D01*
X154996995Y-104414580D02*
X154425566Y-104414580D01*
X154711280Y-104414580D02*
X154711280Y-103414580D01*
X154616042Y-103557438D01*
X154520804Y-103652676D01*
X154425566Y-103700295D01*
X152520804Y-85316961D02*
X152663661Y-85364580D01*
X152901757Y-85364580D01*
X152996995Y-85316961D01*
X153044614Y-85269342D01*
X153092233Y-85174104D01*
X153092233Y-85078866D01*
X153044614Y-84983628D01*
X152996995Y-84936009D01*
X152901757Y-84888390D01*
X152711280Y-84840771D01*
X152616042Y-84793152D01*
X152568423Y-84745533D01*
X152520804Y-84650295D01*
X152520804Y-84555057D01*
X152568423Y-84459819D01*
X152616042Y-84412200D01*
X152711280Y-84364580D01*
X152949376Y-84364580D01*
X153092233Y-84412200D01*
X154044614Y-85364580D02*
X153473185Y-85364580D01*
X153758900Y-85364580D02*
X153758900Y-84364580D01*
X153663661Y-84507438D01*
X153568423Y-84602676D01*
X153473185Y-84650295D01*
X154663661Y-84364580D02*
X154758900Y-84364580D01*
X154854138Y-84412200D01*
X154901757Y-84459819D01*
X154949376Y-84555057D01*
X154996995Y-84745533D01*
X154996995Y-84983628D01*
X154949376Y-85174104D01*
X154901757Y-85269342D01*
X154854138Y-85316961D01*
X154758900Y-85364580D01*
X154663661Y-85364580D01*
X154568423Y-85316961D01*
X154520804Y-85269342D01*
X154473185Y-85174104D01*
X154425566Y-84983628D01*
X154425566Y-84745533D01*
X154473185Y-84555057D01*
X154520804Y-84459819D01*
X154568423Y-84412200D01*
X154663661Y-84364580D01*
X172046995Y-123416961D02*
X172189852Y-123464580D01*
X172427947Y-123464580D01*
X172523185Y-123416961D01*
X172570804Y-123369342D01*
X172618423Y-123274104D01*
X172618423Y-123178866D01*
X172570804Y-123083628D01*
X172523185Y-123036009D01*
X172427947Y-122988390D01*
X172237471Y-122940771D01*
X172142233Y-122893152D01*
X172094614Y-122845533D01*
X172046995Y-122750295D01*
X172046995Y-122655057D01*
X172094614Y-122559819D01*
X172142233Y-122512200D01*
X172237471Y-122464580D01*
X172475566Y-122464580D01*
X172618423Y-122512200D01*
X173189852Y-122893152D02*
X173094614Y-122845533D01*
X173046995Y-122797914D01*
X172999376Y-122702676D01*
X172999376Y-122655057D01*
X173046995Y-122559819D01*
X173094614Y-122512200D01*
X173189852Y-122464580D01*
X173380328Y-122464580D01*
X173475566Y-122512200D01*
X173523185Y-122559819D01*
X173570804Y-122655057D01*
X173570804Y-122702676D01*
X173523185Y-122797914D01*
X173475566Y-122845533D01*
X173380328Y-122893152D01*
X173189852Y-122893152D01*
X173094614Y-122940771D01*
X173046995Y-122988390D01*
X172999376Y-123083628D01*
X172999376Y-123274104D01*
X173046995Y-123369342D01*
X173094614Y-123416961D01*
X173189852Y-123464580D01*
X173380328Y-123464580D01*
X173475566Y-123416961D01*
X173523185Y-123369342D01*
X173570804Y-123274104D01*
X173570804Y-123083628D01*
X173523185Y-122988390D01*
X173475566Y-122940771D01*
X173380328Y-122893152D01*
X152996995Y-123416961D02*
X153139852Y-123464580D01*
X153377947Y-123464580D01*
X153473185Y-123416961D01*
X153520804Y-123369342D01*
X153568423Y-123274104D01*
X153568423Y-123178866D01*
X153520804Y-123083628D01*
X153473185Y-123036009D01*
X153377947Y-122988390D01*
X153187471Y-122940771D01*
X153092233Y-122893152D01*
X153044614Y-122845533D01*
X152996995Y-122750295D01*
X152996995Y-122655057D01*
X153044614Y-122559819D01*
X153092233Y-122512200D01*
X153187471Y-122464580D01*
X153425566Y-122464580D01*
X153568423Y-122512200D01*
X153901757Y-122464580D02*
X154568423Y-122464580D01*
X154139852Y-123464580D01*
D13*
X200200000Y-27816000D02*
X200900000Y-27816000D01*
X217893900Y-104851200D02*
X217893900Y-118821200D01*
X217893900Y-118821200D02*
X203923900Y-118821200D01*
X203923900Y-118821200D02*
X203923900Y-104851200D01*
X203923900Y-104851200D02*
X217893900Y-104851200D01*
X159742000Y-59960000D02*
X172442000Y-59960000D01*
X205002000Y-80280000D02*
X205002000Y-81550000D01*
X191032000Y-73930000D02*
X191032000Y-75200000D01*
X192302000Y-59960000D02*
X192302000Y-58690000D01*
X155772000Y-57720000D02*
X155772000Y-82520000D01*
X207542000Y-81550000D02*
X207542000Y-58690000D01*
X192302000Y-58690000D02*
X172442000Y-58690000D01*
X157202000Y-58690000D02*
X159742000Y-58690000D01*
X208972000Y-82520000D02*
X208972000Y-57720000D01*
X172442000Y-65040000D02*
X172442000Y-62500000D01*
X173712000Y-61230000D02*
X192302000Y-61230000D01*
X205002000Y-81550000D02*
X207542000Y-81550000D01*
X155772000Y-82525000D02*
X208972000Y-82525000D01*
X177522000Y-70470000D02*
X177522000Y-69770000D01*
X172442000Y-62500000D02*
X173712000Y-62500000D01*
X207542000Y-58690000D02*
X205002000Y-58690000D01*
X192302000Y-81550000D02*
X192302000Y-80280000D01*
X172442000Y-58690000D02*
X172442000Y-59960000D01*
X191032000Y-79010000D02*
X172442000Y-79010000D01*
X208972000Y-57715000D02*
X155772000Y-57715000D01*
X157202000Y-81550000D02*
X159742000Y-81550000D01*
X192302000Y-61230000D02*
X192302000Y-66310000D01*
X177522000Y-69770000D02*
X157202000Y-69770000D01*
X191032000Y-77740000D02*
X191032000Y-79010000D01*
X192302000Y-77740000D02*
X191032000Y-77740000D01*
X205002000Y-58690000D02*
X205002000Y-59960000D01*
X173712000Y-66310000D02*
X173712000Y-65040000D01*
X172442000Y-80280000D02*
X172442000Y-81550000D01*
X157202000Y-70470000D02*
X177522000Y-70470000D01*
X207542000Y-70470000D02*
X184682000Y-70470000D01*
X192302000Y-66310000D02*
X173712000Y-66310000D01*
X184682000Y-70470000D02*
X184682000Y-69770000D01*
X184682000Y-69770000D02*
X207542000Y-69770000D01*
X172442000Y-73930000D02*
X191032000Y-73930000D01*
X192302000Y-75200000D02*
X192302000Y-77740000D01*
X157202000Y-81550000D02*
X157202000Y-58690000D01*
X173712000Y-65040000D02*
X172442000Y-65040000D01*
X172442000Y-79010000D02*
X172442000Y-73930000D01*
X205002000Y-80280000D02*
X192302000Y-80280000D01*
X191032000Y-75200000D02*
X192302000Y-75200000D01*
X205002000Y-59960000D02*
X192302000Y-59960000D01*
X172442000Y-81550000D02*
X192302000Y-81550000D01*
X173712000Y-62500000D02*
X173712000Y-61230000D01*
X159742000Y-80280000D02*
X172442000Y-80280000D01*
X159742000Y-81550000D02*
X159742000Y-80280000D01*
X159742000Y-58690000D02*
X159742000Y-59960000D01*
X171500000Y-27816000D02*
X172200000Y-27816000D01*
X203923900Y-142951200D02*
X217893900Y-142951200D01*
X217893900Y-142951200D02*
X217893900Y-156921200D01*
X217893900Y-156921200D02*
X203923900Y-156921200D01*
X203923900Y-156921200D02*
X203923900Y-142951200D01*
X219710000Y-94615000D02*
X219075000Y-94615000D01*
X219710000Y-93980000D02*
X219710000Y-94615000D01*
X145094000Y-59690000D02*
X145094000Y-80070000D01*
X142434000Y-59690000D02*
X145094000Y-59690000D01*
X142434000Y-80070000D02*
X145094000Y-80070000D01*
X142434000Y-58420000D02*
X142434000Y-57090000D01*
X142434000Y-57090000D02*
X143764000Y-57090000D01*
X142434000Y-59690000D02*
X142434000Y-80070000D01*
X200200000Y-24006000D02*
X200900000Y-24006000D01*
X217893900Y-137871200D02*
X203923900Y-137871200D01*
X217893900Y-123901200D02*
X217893900Y-137871200D01*
X203923900Y-137871200D02*
X203923900Y-123901200D01*
X203923900Y-123901200D02*
X217893900Y-123901200D01*
X185850000Y-24006000D02*
X186550000Y-24006000D01*
X157150000Y-24006000D02*
X157850000Y-24006000D01*
X185850000Y-27816000D02*
X186550000Y-27816000D01*
X142800000Y-27816000D02*
X143500000Y-27816000D01*
X214550000Y-27816000D02*
X215250000Y-27816000D01*
X157150000Y-27816000D02*
X157850000Y-27816000D01*
X219142000Y-59690000D02*
X221802000Y-59690000D01*
X219142000Y-58420000D02*
X219142000Y-57090000D01*
X221802000Y-59690000D02*
X221802000Y-80070000D01*
X219142000Y-80070000D02*
X221802000Y-80070000D01*
X219142000Y-59690000D02*
X219142000Y-80070000D01*
X219142000Y-57090000D02*
X220472000Y-57090000D01*
X171500000Y-24006000D02*
X172200000Y-24006000D01*
X142800000Y-24006000D02*
X143500000Y-24006000D01*
X214550000Y-24006000D02*
X215250000Y-24006000D01*
X184873900Y-118821200D02*
X184873900Y-104851200D01*
X198843900Y-118821200D02*
X184873900Y-118821200D01*
X198843900Y-104851200D02*
X198843900Y-118821200D01*
X184873900Y-104851200D02*
X198843900Y-104851200D01*
X210578900Y-91516200D02*
X210578900Y-96656200D01*
X210578900Y-96656200D02*
X213238900Y-96656200D01*
X210578900Y-88916200D02*
X211908900Y-88916200D01*
X210578900Y-91516200D02*
X213238900Y-91516200D01*
X213238900Y-91516200D02*
X213238900Y-96656200D01*
X210578900Y-90246200D02*
X210578900Y-88916200D01*
X207171000Y-93797000D02*
X207171000Y-91877000D01*
X207171000Y-91877000D02*
X204486000Y-91877000D01*
X204486000Y-93797000D02*
X207171000Y-93797000D01*
X198843900Y-137871200D02*
X184873900Y-137871200D01*
X184873900Y-137871200D02*
X184873900Y-123901200D01*
X198843900Y-123901200D02*
X198843900Y-137871200D01*
X184873900Y-123901200D02*
X198843900Y-123901200D01*
X182269000Y-41325000D02*
X182269000Y-28525000D01*
X142089000Y-41325000D02*
X182269000Y-41325000D01*
X142089000Y-41325000D02*
X142089000Y-28525000D01*
X152289000Y-43655000D02*
X154289000Y-43655000D01*
X182269000Y-28525000D02*
X142089000Y-28525000D01*
X182221000Y-41325000D02*
X222401000Y-41325000D01*
X192421000Y-43655000D02*
X194421000Y-43655000D01*
X222401000Y-41325000D02*
X222401000Y-28525000D01*
X182221000Y-41325000D02*
X182221000Y-28525000D01*
X222401000Y-28525000D02*
X182221000Y-28525000D01*
X156298900Y-142951200D02*
X170268900Y-142951200D01*
X170268900Y-156921200D02*
X156298900Y-156921200D01*
X170268900Y-142951200D02*
X170268900Y-156921200D01*
X156298900Y-156921200D02*
X156298900Y-142951200D01*
X142089000Y-54406000D02*
X142089000Y-41606000D01*
X142089000Y-54406000D02*
X182269000Y-54406000D01*
X182269000Y-41606000D02*
X142089000Y-41606000D01*
X182269000Y-54406000D02*
X182269000Y-41606000D01*
X152289000Y-56736000D02*
X154289000Y-56736000D01*
X182221000Y-54406000D02*
X182221000Y-41606000D01*
X222401000Y-41606000D02*
X182221000Y-41606000D01*
X192421000Y-56736000D02*
X194421000Y-56736000D01*
X182221000Y-54406000D02*
X222401000Y-54406000D01*
X222401000Y-54406000D02*
X222401000Y-41606000D01*
X198843900Y-156921200D02*
X184873900Y-156921200D01*
X184873900Y-142951200D02*
X198843900Y-142951200D01*
X184873900Y-156921200D02*
X184873900Y-142951200D01*
X198843900Y-142951200D02*
X198843900Y-156921200D01*
X198843900Y-85801200D02*
X198843900Y-99771200D01*
X184873900Y-85801200D02*
X198843900Y-85801200D01*
X198843900Y-99771200D02*
X184873900Y-99771200D01*
X184873900Y-99771200D02*
X184873900Y-85801200D01*
X165823900Y-99771200D02*
X165823900Y-85801200D01*
X165823900Y-85801200D02*
X179793900Y-85801200D01*
X179793900Y-85801200D02*
X179793900Y-99771200D01*
X179793900Y-99771200D02*
X165823900Y-99771200D01*
X165823900Y-118821200D02*
X165823900Y-104851200D01*
X179793900Y-118821200D02*
X165823900Y-118821200D01*
X179793900Y-104851200D02*
X179793900Y-118821200D01*
X165823900Y-104851200D02*
X179793900Y-104851200D01*
X160743900Y-118821200D02*
X146773900Y-118821200D01*
X146773900Y-104851200D02*
X160743900Y-104851200D01*
X146773900Y-118821200D02*
X146773900Y-104851200D01*
X160743900Y-104851200D02*
X160743900Y-118821200D01*
X146773900Y-99771200D02*
X146773900Y-85801200D01*
X146773900Y-85801200D02*
X160743900Y-85801200D01*
X160743900Y-99771200D02*
X146773900Y-99771200D01*
X160743900Y-85801200D02*
X160743900Y-99771200D01*
X165823900Y-123901200D02*
X179793900Y-123901200D01*
X165823900Y-137871200D02*
X165823900Y-123901200D01*
X179793900Y-123901200D02*
X179793900Y-137871200D01*
X179793900Y-137871200D02*
X165823900Y-137871200D01*
X160743900Y-137871200D02*
X146773900Y-137871200D01*
X146773900Y-137871200D02*
X146773900Y-123901200D01*
X160743900Y-123901200D02*
X160743900Y-137871200D01*
X146773900Y-123901200D02*
X160743900Y-123901200D01*
M02*
