M48
; DRILL file {KiCad (5.99.0-13010-g08938463f1)} date Saturday, November 20, 2021 at 06:45:21 PM
; FORMAT={-:-/ absolute / inch / decimal}
; #@! TF.CreationDate,2021-11-20T18:45:21-05:00
; #@! TF.GenerationSoftware,Kicad,Pcbnew,(5.99.0-13010-g08938463f1)
; #@! TF.FileFunction,MixedPlating,1,2
FMAT,2
INCH
; #@! TA.AperFunction,Plated,PTH,ViaDrill
T1C0.0138
; #@! TA.AperFunction,Plated,PTH,ViaDrill
T2C0.0157
; #@! TA.AperFunction,Plated,PTH,ComponentDrill
T3C0.0394
; #@! TA.AperFunction,Plated,PTH,ComponentDrill
T4C0.0591
; #@! TA.AperFunction,Plated,PTH,ComponentDrill
T5C0.0709
; #@! TA.AperFunction,Plated,PTH,ComponentDrill
T6C0.1673
; #@! TA.AperFunction,Plated,PTH,ComponentDrill
T7C0.1673
; #@! TA.AperFunction,NonPlated,NPTH,ComponentDrill
T8C0.0197
; #@! TA.AperFunction,NonPlated,NPTH,ComponentDrill
T9C0.0669
; #@! TA.AperFunction,NonPlated,NPTH,ComponentDrill
T10C0.1575
%
G90
G05
T1
X2.5679Y-2.1711
X2.666Y-2.0536
X2.9045Y-1.0405
X2.9645Y-1.2505
X3.0645Y-1.1305
X3.0645Y-1.6755
X3.1045Y-1.2205
X3.1245Y-1.5755
X3.1545Y-1.1105
X3.1645Y-1.1905
X3.1745Y-1.5755
X3.2545Y-1.5255
X3.3145Y-1.6255
X3.3645Y-1.1705
X3.4245Y-1.0105
X3.4445Y-1.6355
X3.4538Y-1.0705
X3.4547Y-1.6727
X3.4595Y-1.5805
X3.5545Y-1.6855
X3.5645Y-1.1705
X3.6645Y-1.1705
X3.7345Y-1.3205
X3.736Y-1.4036
X3.7645Y-1.8555
X3.7818Y-1.3521
X3.7845Y-0.9805
X3.8245Y-1.7655
X3.8295Y-3.975
X3.8445Y-1.2755
X3.8884Y-1.5855
X3.913Y-1.1355
X3.916Y-1.5115
X3.9243Y-1.7587
X3.9516Y-1.4117
X3.9545Y-1.3027
X3.9545Y-1.8355
X3.958Y-1.1255
X3.9743Y-1.6583
X3.9845Y-0.9505
X3.9845Y-1.8627
X3.9945Y-1.3305
X4.0145Y-1.6655
X4.0357Y-1.3513
X4.0445Y-0.9105
X4.0445Y-1.6455
X4.0445Y-1.8655
X4.0648Y-1.5727
X4.073Y-1.1705
X4.0841Y-1.6383
X4.0845Y-1.6755
X4.1049Y-1.1801
X4.1178Y-0.9387
X4.1245Y-1.2855
X4.1345Y-1.1505
X4.1364Y-1.4583
X4.1422Y-1.5787
X4.1629Y-0.9265
X4.1702Y-1.0827
X4.1945Y-1.5855
X4.1948Y-1.4755
X4.2045Y-1.7955
X4.2145Y-0.9305
X4.2145Y-1.2855
X4.2245Y-1.1305
X4.2355Y-1.58
X4.2447Y-1.6383
X4.2745Y-1.4583
X4.2746Y-1.5256
X4.2845Y-0.9605
X4.2845Y-1.6923
X4.3145Y-1.4655
X4.4845Y-1.8255
X4.4945Y-1.1605
X4.4945Y-1.2755
X4.5245Y-1.6655
X4.5345Y-1.5755
X4.5345Y-1.7055
X4.5372Y-1.0027
X4.5945Y-1.1727
X4.5945Y-1.6055
X4.6345Y-1.5855
X4.6501Y-1.0777
X4.7345Y-1.1305
X4.7345Y-1.5455
X4.8345Y-1.2382
X4.9945Y-1.1205
X5.0345Y-1.5655
X5.0369Y-1.7353
X5.0545Y-1.0155
X5.1345Y-1.2105
X5.1445Y-1.6655
X5.2345Y-1.0905
X5.2445Y-1.5455
X5.3002Y-2.0628
X5.433Y-1.4805
T2
X2.691Y-1.6886
X2.691Y-1.8336
X2.736Y-1.6386
X2.756Y-1.8686
X2.758Y-1.4455
X2.766Y-1.3586
X2.781Y-1.5286
X2.7963Y-3.3612
X2.998Y-1.7412
X3.0167Y-2.7864
X3.0495Y-3.3061
X3.0495Y-3.8237
X3.1585Y-1.9979
X3.2995Y-2.9653
X3.2995Y-4.06
X3.3995Y-3.635
X3.4183Y-2.5659
X3.4892Y-3.3927
X3.5745Y-3.86
X3.7648Y-1.9821
X3.798Y-1.4395
X3.8671Y-2.8494
X3.875Y-2.9518
X3.9301Y-3.1565
X4.0245Y-5.76
X4.042Y-1.4455
X4.0695Y-3.875
X4.1191Y-3.873
X4.4656Y-1.99
X4.6073Y-2.936
X4.6152Y-2.6998
X4.704Y-2.9281
X4.812Y-3.4242
X5.064Y-1.99
X5.1112Y-3.0305
X5.1821Y-3.3612
X5.2923Y-1.99
X5.3317Y-1.864
X5.416Y-1.8055
X5.421Y-1.3486
X5.448Y-3.838
X5.451Y-1.0036
X5.481Y-2.1736
X5.486Y-1.5436
X5.576Y-1.6836
X5.591Y-1.4136
T3
X2.628Y-2.874
X2.628Y-2.974
X2.628Y-3.074
X2.628Y-3.174
X2.628Y-3.274
X2.628Y-3.374
X2.628Y-3.474
X2.628Y-3.574
X2.628Y-3.674
X2.628Y-3.774
X2.9595Y-0.9305
X2.9595Y-1.3305
X2.9595Y-1.4455
X2.9595Y-1.8455
X3.0595Y-0.9305
X3.0595Y-1.3305
X3.0595Y-1.4455
X3.0595Y-1.8455
X3.1595Y-0.9305
X3.1595Y-1.3305
X3.1595Y-1.4455
X3.1595Y-1.8455
X3.2595Y-0.9305
X3.2595Y-1.3305
X3.2595Y-1.4455
X3.2595Y-1.8455
X3.3595Y-1.3305
X3.3595Y-1.8455
X3.4595Y-0.9305
X3.4595Y-1.3305
X3.4595Y-1.4455
X3.4595Y-1.8455
X3.5595Y-1.3305
X3.5595Y-1.8455
X3.6595Y-0.9305
X3.6595Y-1.3305
X3.6595Y-1.4455
X3.6595Y-1.8455
X4.5395Y-0.9305
X4.5395Y-1.3305
X4.5395Y-1.4455
X4.5395Y-1.8455
X4.6395Y-0.9305
X4.6395Y-1.3305
X4.6395Y-1.4455
X4.6395Y-1.8455
X4.7395Y-0.9305
X4.7395Y-1.3305
X4.7395Y-1.4455
X4.7395Y-1.8455
X4.8395Y-0.9305
X4.8395Y-1.3305
X4.8395Y-1.4455
X4.8395Y-1.8455
X4.9395Y-1.3305
X4.9395Y-1.8455
X5.0395Y-0.9305
X5.0395Y-1.3305
X5.0395Y-1.4455
X5.0395Y-1.8455
X5.1395Y-1.3305
X5.1395Y-1.8455
X5.2372Y-2.6234
X5.2372Y-2.7234
X5.2395Y-0.9305
X5.2395Y-1.3305
X5.2395Y-1.4455
X5.2395Y-1.8455
X5.568Y-2.874
X5.568Y-2.974
X5.568Y-3.074
X5.568Y-3.174
X5.568Y-3.274
X5.568Y-3.374
X5.568Y-3.474
X5.568Y-3.574
X5.568Y-3.674
X5.568Y-3.774
T4
X2.828Y-4.288
X2.828Y-5.038
X2.828Y-5.788
X2.828Y-6.538
X3.078Y-4.188
X3.078Y-4.938
X3.078Y-5.688
X3.078Y-6.438
X3.578Y-4.288
X3.578Y-5.038
X3.578Y-5.788
X3.578Y-6.538
X3.828Y-4.188
X3.828Y-4.938
X3.828Y-5.688
X3.828Y-6.438
X4.328Y-4.288
X4.328Y-5.038
X4.328Y-5.788
X4.328Y-6.538
X4.578Y-4.188
X4.578Y-4.938
X4.578Y-5.688
X4.578Y-6.438
X5.078Y-5.038
X5.078Y-5.788
X5.078Y-6.538
X5.165Y-4.077
X5.165Y-4.699
X5.291Y-4.077
X5.291Y-4.699
X5.328Y-4.938
X5.328Y-5.688
X5.328Y-6.438
T5
X5.228Y-4.203
X5.228Y-4.388
X5.228Y-4.573
T6
X5.3397Y-3.1486
T7
X2.8593Y-3.1486
X2.8593Y-6.2195
X5.3397Y-6.2195
T8
X2.9213Y-2.4067
X2.9213Y-2.4933
X2.9528Y-2.4067
X2.9528Y-2.4933
X2.9843Y-2.4067
X2.9843Y-2.4933
X3.0157Y-2.4067
X3.0157Y-2.4933
X3.0472Y-2.4067
X3.0472Y-2.4933
X3.0787Y-2.4067
X3.0787Y-2.4933
X4.0258Y-2.4067
X4.0258Y-2.4933
X4.0573Y-2.4067
X4.0573Y-2.4933
X4.0888Y-2.4067
X4.0888Y-2.4933
X4.1202Y-2.4067
X4.1202Y-2.4933
X4.1517Y-2.4067
X4.1517Y-2.4933
X4.1832Y-2.4067
X4.1832Y-2.4933
X5.1213Y-2.4067
X5.1213Y-2.4933
X5.1528Y-2.4067
X5.1528Y-2.4933
X5.1843Y-2.4067
X5.1843Y-2.4933
X5.2157Y-2.4067
X5.2157Y-2.4933
X5.2472Y-2.4067
X5.2472Y-2.4933
X5.2787Y-2.4067
X5.2787Y-2.4933
T9
X2.778Y-4.388
X2.778Y-5.138
X2.778Y-5.888
X2.778Y-6.638
X3.178Y-4.388
X3.178Y-5.138
X3.178Y-5.888
X3.178Y-6.638
X3.528Y-4.388
X3.528Y-5.138
X3.528Y-5.888
X3.528Y-6.638
X3.928Y-4.388
X3.928Y-5.138
X3.928Y-5.888
X3.928Y-6.638
X4.278Y-4.388
X4.278Y-5.138
X4.278Y-5.888
X4.278Y-6.638
X4.678Y-4.388
X4.678Y-5.138
X4.678Y-5.888
X4.678Y-6.638
X5.028Y-5.138
X5.028Y-5.888
X5.028Y-6.638
X5.428Y-5.138
X5.428Y-5.888
X5.428Y-6.638
T10
X2.978Y-4.388
X2.978Y-5.138
X2.978Y-5.888
X2.978Y-6.638
X3.728Y-4.388
X3.728Y-5.138
X3.728Y-5.888
X3.728Y-6.638
X4.478Y-4.388
X4.478Y-5.138
X4.478Y-5.888
X4.478Y-6.638
X5.228Y-5.138
X5.228Y-5.888
X5.228Y-6.638
T0
M30
