G04 #@! TF.GenerationSoftware,KiCad,Pcbnew,(5.99.0-8123-gb2cbd99365)*
G04 #@! TF.CreationDate,2021-02-01T23:00:56-05:00*
G04 #@! TF.ProjectId,unitron,756e6974-726f-46e2-9e6b-696361645f70,1.4*
G04 #@! TF.SameCoordinates,Original*
G04 #@! TF.FileFunction,Profile,NP*
%FSLAX46Y46*%
G04 Gerber Fmt 4.6, Leading zero omitted, Abs format (unit mm)*
G04 Created by KiCad (PCBNEW (5.99.0-8123-gb2cbd99365)) date 2021-02-01 23:00:56*
%MOMM*%
%LPD*%
G01*
G04 APERTURE LIST*
G04 #@! TA.AperFunction,Profile*
%ADD10C,0.050000*%
G04 #@! TD*
G04 #@! TA.AperFunction,Profile*
%ADD11C,0.100000*%
G04 #@! TD*
G04 APERTURE END LIST*
D10*
X211170000Y-54483000D02*
X185902000Y-54483000D01*
X185902000Y-57023000D02*
X211170000Y-57023000D01*
X222504000Y-54483000D02*
X218230000Y-54483000D01*
X146260000Y-57023000D02*
X141986000Y-57023000D01*
X146260000Y-54483000D02*
X142000000Y-54483000D01*
X142000000Y-20320000D02*
X142000000Y-54483000D01*
D11*
X222504000Y-20320000D02*
X142000000Y-20320000D01*
X222504000Y-54483000D02*
X222504000Y-20320000D01*
D10*
X153320000Y-54483000D02*
X178842000Y-54483000D01*
X222504000Y-57023000D02*
X218230000Y-57023000D01*
X153320000Y-57023000D02*
X178842000Y-57023000D01*
X141986000Y-161290000D02*
X141986000Y-57023000D01*
X222504000Y-57023000D02*
X222504000Y-161290000D01*
X222504000Y-161290000D02*
X141986000Y-161290000D01*
X185902000Y-54483000D02*
G75*
G03*
X185902000Y-57023000I0J-1270000D01*
G01*
X178842000Y-54483000D02*
G75*
G02*
X178842000Y-57023000I0J-1270000D01*
G01*
X153320000Y-54483000D02*
G75*
G03*
X153320000Y-57023000I0J-1270000D01*
G01*
X146260000Y-54483000D02*
G75*
G02*
X146260000Y-57023000I0J-1270000D01*
G01*
X218230000Y-54483000D02*
G75*
G03*
X218230000Y-57023000I0J-1270000D01*
G01*
X211170000Y-54483000D02*
G75*
G02*
X211170000Y-57023000I0J-1270000D01*
G01*
M02*
