0
SECTION
2
HEADER
9
$INSUNITS
70
4
9
$ACADVER
1
AC1014
9
$HANDSEED
5
FFFF
0
ENDSEC
0
SECTION
2
TABLES
0
TABLE
2
VPORT
5
8
100
AcDbSymbolTable
0
ENDTAB
0
TABLE
2
LTYPE
5
5
100
AcDbSymbolTable
0
LTYPE
5
14
100
AcDbSymbolTableRecord
100
AcDbLinetypeTableRecord
2
BYBLOCK
70
0
0
LTYPE
5
15
100
AcDbSymbolTableRecord
100
AcDbLinetypeTableRecord
2
BYLAYER
70
0
0
ENDTAB
0
TABLE
2
LAYER
5
2
100
AcDbSymbolTable
70
2
0
LAYER
5
50
100
AcDbSymbolTableRecord
100
AcDbLayerTableRecord
2
0
70
0
6
CONTINUOUS
0
ENDTAB
0
TABLE
2
STYLE
5
3
100
AcDbSymbolTable
70
1
0
STYLE
5
11
100
AcDbSymbolTableRecord
100
AcDbTextStyleTableRecord
2
STANDARD
70
0
0
ENDTAB
0
TABLE
2
VIEW
5
6
100
AcDbSymbolTable
70
0
0
ENDTAB
0
TABLE
2
UCS
5
7
100
AcDbSymbolTable
70
0
0
ENDTAB
0
TABLE
2
APPID
5
9
100
AcDbSymbolTable
70
2
0
APPID
5
12
100
AcDbSymbolTableRecord
100
AcDbRegAppTableRecord
2
ACAD
70
0
0
ENDTAB
0
TABLE
2
DIMSTYLE
5
A
100
AcDbSymbolTable
70
1
0
ENDTAB
0
TABLE
2
BLOCK_RECORD
5
1
100
AcDbSymbolTable
70
1
0
BLOCK_RECORD
5
1F
100
AcDbSymbolTableRecord
100
AcDbBlockTableRecord
2
*MODEL_SPACE
0
BLOCK_RECORD
5
1B
100
AcDbSymbolTableRecord
100
AcDbBlockTableRecord
2
*PAPER_SPACE
0
ENDTAB
0
ENDSEC
0
SECTION
2
BLOCKS
0
BLOCK
5
20
100
AcDbEntity
100
AcDbBlockBegin
2
*MODEL_SPACE
0
ENDBLK
5
21
100
AcDbEntity
100
AcDbBlockEnd
0
BLOCK
5
1C
100
AcDbEntity
100
AcDbBlockBegin
2
*PAPER_SPACE
0
ENDBLK
5
1D
100
AcDbEntity
100
AcDbBlockEnd
0
ENDSEC
0
SECTION
2
ENTITIES
0
LWPOLYLINE
5
100
100
AcDbEntity
8
OUTER_PROFILES
100
AcDbPolyline
90
8
70
1
43
0.0
10
74.640842455170727
20
10
10
74.640842455170713
20
127.85089777536879
42
0.41421356237309509
10
64.640842455170713
20
137.85089777536879
10
6.1232339957367663e-16
20
137.85089777536879
42
0.41421356237309509
10
-10
20
127.85089777536879
10
-10
20
9.9999999999999964
42
0.41421356237309492
10
0
20
0
10
64.640842455170727
20
0
42
0.41421356237309509
0
SPLINE
5
101
100
AcDbEntity
8
INTERIOR_PROFILES
100
AcDbSpline
70
4
71
3
72
8
73
4
74
0
42
0.000000001
43
0.0000000001
44
0.0000000001
40
0
40
0
40
0
40
0
40
1
40
1
40
1
40
1
41
1
41
1
41
1
41
1
10
40.851337488230683
20
120.26776468137848
30
0
10
40.375090718007712
20
120.26776468137848
30
0
10
39.978215718007718
20
120.69109962960033
30
0
10
39.978215718007718
20
121.16734639982332
30
0
0
LINE
5
102
100
AcDbEntity
8
INTERIOR_PROFILES
100
AcDbLine
10
40.851337488230683
20
120.26776468137848
30
0
11
45.084670821564039
21
120.26776468137848
31
0
0
SPLINE
5
103
100
AcDbEntity
8
INTERIOR_PROFILES
100
AcDbSpline
70
4
71
3
72
8
73
4
74
0
42
0.000000001
43
0.0000000001
44
0.0000000001
40
0
40
0
40
0
40
0
40
1
40
1
40
1
40
1
41
1
41
1
41
1
41
1
10
45.878420821564028
20
121.43192973315664
30
0
10
46.037172436452529
20
120.77047139982329
30
0
10
45.534465718007709
20
120.26776468137848
30
0
10
45.084670821564039
20
120.26776468137848
30
0
0
SPLINE
5
104
100
AcDbEntity
8
INTERIOR_PROFILES
100
AcDbSpline
70
4
71
3
72
8
73
4
74
0
42
0.000000001
43
0.0000000001
44
0.0000000001
40
0
40
0
40
0
40
0
40
1
40
1
40
1
40
1
41
1
41
1
41
1
41
1
10
44.820087488230698
20
122.09338806648998
30
0
10
45.375714103119194
20
122.09338806648998
30
0
10
45.772589103119202
20
121.85526468137849
30
0
10
45.878420821564028
20
121.43192973315664
30
0
0
LINE
5
105
100
AcDbEntity
8
INTERIOR_PROFILES
100
AcDbLine
10
44.820087488230698
20
122.09338806648998
30
0
11
39.978215718007718
21
122.09338806648998
31
0
0
LINE
5
106
100
AcDbEntity
8
INTERIOR_PROFILES
100
AcDbLine
10
39.978215718007718
20
122.09338806648998
30
0
11
39.978215718007718
21
121.16734639982329
31
0
0
SPLINE
5
107
100
AcDbEntity
8
INTERIOR_PROFILES
100
AcDbSpline
70
4
71
3
72
8
73
4
74
0
42
0.000000001
43
0.0000000001
44
0.0000000001
40
0
40
0
40
0
40
0
40
1
40
1
40
1
40
1
41
1
41
1
41
1
41
1
10
45.878412747121473
20
131.85651145160148
30
0
10
45.878412747121473
20
131.38026468137849
30
0
10
45.481537747121479
20
130.9833896813785
30
0
10
45.005290976898493
20
130.9833896813785
30
0
0
SPLINE
5
108
100
AcDbEntity
8
INTERIOR_PROFILES
100
AcDbSpline
70
4
71
3
72
8
73
4
74
0
42
0.000000001
43
0.0000000001
44
0.0000000001
40
0
40
0
40
0
40
0
40
1
40
1
40
1
40
1
41
1
41
1
41
1
41
1
10
45.005290976898493
20
132.72963322182446
30
0
10
45.481537747121479
20
132.72963322182446
30
0
10
45.878412747121473
20
132.33275822182446
30
0
10
45.878412747121473
20
131.85651145160148
30
0
0
LINE
5
109
100
AcDbEntity
8
INTERIOR_PROFILES
100
AcDbLine
10
45.005290976898493
20
132.72963322182446
30
0
11
36.69737592512034
21
132.72963322182446
31
0
0
SPLINE
5
110
100
AcDbEntity
8
INTERIOR_PROFILES
100
AcDbSpline
70
4
71
3
72
8
73
4
74
0
42
0.000000001
43
0.0000000001
44
0.0000000001
40
0
40
0
40
0
40
0
40
1
40
1
40
1
40
1
41
1
41
1
41
1
41
1
10
35.824254154897361
20
131.85651145160148
30
0
10
35.824254154897361
20
132.33275822182446
30
0
10
36.221129154897369
20
132.72963322182446
30
0
10
36.69737592512034
20
132.72963322182446
30
0
0
SPLINE
5
111
100
AcDbEntity
8
INTERIOR_PROFILES
100
AcDbSpline
70
4
71
3
72
8
73
4
74
0
42
0.000000001
43
0.0000000001
44
0.0000000001
40
0
40
0
40
0
40
0
40
1
40
1
40
1
40
1
41
1
41
1
41
1
41
1
10
36.69737592512034
20
130.9833896813785
30
0
10
36.221129154897369
20
130.98338160693595
30
0
10
35.824254154897361
20
131.38025660693592
30
0
10
35.824254154897361
20
131.85651145160148
30
0
0
LINE
5
112
100
AcDbEntity
8
INTERIOR_PROFILES
100
AcDbLine
10
36.69737592512034
20
130.9833896813785
30
0
11
39.97820764356517
21
130.9833896813785
31
0
0
LINE
5
113
100
AcDbEntity
8
INTERIOR_PROFILES
100
AcDbLine
10
39.97820764356517
20
130.9833896813785
30
0
11
39.97820764356517
21
123.68088806648998
31
0
0
LINE
5
114
100
AcDbEntity
8
INTERIOR_PROFILES
100
AcDbLine
10
39.97820764356517
20
123.68088806648998
30
0
11
41.724459258453678
21
123.68088806648998
31
0
0
LINE
5
115
100
AcDbEntity
8
INTERIOR_PROFILES
100
AcDbLine
10
41.724459258453678
20
123.68088806648998
30
0
11
41.724459258453663
21
130.9833896813785
31
0
0
LINE
5
116
100
AcDbEntity
8
INTERIOR_PROFILES
100
AcDbLine
10
41.724459258453663
20
130.9833896813785
30
0
11
45.005290976898493
21
130.98338968137847
31
0
0
LINE
5
117
100
AcDbEntity
8
INTERIOR_PROFILES
100
AcDbLine
10
69.373417591787003
20
127.49088645160145
30
0
11
69.373417591787003
21
116.11380311826814
31
0
0
SPLINE
5
118
100
AcDbEntity
8
INTERIOR_PROFILES
100
AcDbSpline
70
4
71
3
72
8
73
4
74
0
42
0.000000001
43
0.0000000001
44
0.0000000001
40
0
40
0
40
0
40
0
40
1
40
1
40
1
40
1
41
1
41
1
41
1
41
1
10
70.22008345100943
20
115.21422139982332
30
0
10
69.743832643565185
20
115.21422139982332
30
0
10
69.373417591787003
20
115.63755634804515
30
0
10
69.373417591787003
20
116.11380311826814
30
0
0
SPLINE
5
119
100
AcDbEntity
8
INTERIOR_PROFILES
100
AcDbSpline
70
4
71
3
72
8
73
4
74
0
42
0.000000001
43
0.0000000001
44
0.0000000001
40
0
40
0
40
0
40
0
40
1
40
1
40
1
40
1
41
1
41
1
41
1
41
1
10
71.093209258453669
20
116.11380311826814
30
0
10
71.093209258453669
20
115.63755634804515
30
0
10
70.696334258453675
20
115.21422139982332
30
0
10
70.22008345100943
20
115.21422139982332
30
0
0
LINE
5
120
100
AcDbEntity
8
INTERIOR_PROFILES
100
AcDbLine
10
71.093209258453669
20
116.11380311826814
30
0
11
71.093209258453669
21
127.49088645160145
31
0
0
SPLINE
5
121
100
AcDbEntity
8
INTERIOR_PROFILES
100
AcDbSpline
70
4
71
3
72
8
73
4
74
0
42
0.000000001
43
0.0000000001
44
0.0000000001
40
0
40
0
40
0
40
0
40
1
40
1
40
1
40
1
41
1
41
1
41
1
41
1
10
65.854458451009421
20
132.72963322182446
30
0
10
68.738419206675516
20
132.72963322182446
30
0
10
71.093209258453669
20
130.37484317004629
30
0
10
71.093209258453669
20
127.49088645160145
30
0
0
SPLINE
5
122
100
AcDbEntity
8
INTERIOR_PROFILES
100
AcDbSpline
70
4
71
3
72
8
73
4
74
0
42
0.000000001
43
0.0000000001
44
0.0000000001
40
0
40
0
40
0
40
0
40
1
40
1
40
1
40
1
41
1
41
1
41
1
41
1
10
60.589251732564605
20
127.49088645160145
30
0
10
60.589251732564605
20
130.37484317004629
30
0
10
62.944041784342772
20
132.72963322182446
30
0
10
65.854458451009421
20
132.72963322182446
30
0
0
LINE
5
123
100
AcDbEntity
8
INTERIOR_PROFILES
100
AcDbLine
10
60.589251732564605
20
127.49088645160145
30
0
11
60.589251732564605
21
116.11380311826814
31
0
0
SPLINE
5
124
100
AcDbEntity
8
INTERIOR_PROFILES
100
AcDbSpline
70
4
71
3
72
8
73
4
74
0
42
0.000000001
43
0.0000000001
44
0.0000000001
40
0
40
0
40
0
40
0
40
1
40
1
40
1
40
1
41
1
41
1
41
1
41
1
10
61.488833451009413
20
115.21422139982332
30
0
10
61.012582643565167
20
115.21422139982332
30
0
10
60.589251732564605
20
115.63755634804515
30
0
10
60.589251732564605
20
116.11380311826814
30
0
0
SPLINE
5
125
100
AcDbEntity
8
INTERIOR_PROFILES
100
AcDbSpline
70
4
71
3
72
8
73
4
74
0
42
0.000000001
43
0.0000000001
44
0.0000000001
40
0
40
0
40
0
40
0
40
1
40
1
40
1
40
1
41
1
41
1
41
1
41
1
10
62.361959258453687
20
116.11380311826814
30
0
10
62.361959258453687
20
115.63755634804515
30
0
10
61.965084258453693
20
115.21422139982332
30
0
10
61.488833451009413
20
115.21422139982332
30
0
0
LINE
5
126
100
AcDbEntity
8
INTERIOR_PROFILES
100
AcDbLine
10
62.361959258453687
20
116.11380311826814
30
0
11
62.361959258453687
21
127.49088645160145
31
0
0
SPLINE
5
127
100
AcDbEntity
8
INTERIOR_PROFILES
100
AcDbSpline
70
4
71
3
72
8
73
4
74
0
42
0.000000001
43
0.0000000001
44
0.0000000001
40
0
40
0
40
0
40
0
40
1
40
1
40
1
40
1
41
1
41
1
41
1
41
1
10
65.854458451009421
20
130.9833896813785
30
0
10
63.92299931023183
20
130.9833896813785
30
0
10
62.361959258453687
20
129.39588968137849
30
0
10
62.361959258453687
20
127.49088645160145
30
0
0
SPLINE
5
128
100
AcDbEntity
8
INTERIOR_PROFILES
100
AcDbSpline
70
4
71
3
72
8
73
4
74
0
42
0.000000001
43
0.0000000001
44
0.0000000001
40
0
40
0
40
0
40
0
40
1
40
1
40
1
40
1
41
1
41
1
41
1
41
1
10
69.373417591787003
20
127.49088645160145
30
0
10
69.373417591787003
20
129.39588968137849
30
0
10
67.785917591787026
20
130.9833896813785
30
0
10
65.854458451009421
20
130.9833896813785
30
0
0
CIRCLE
5
129
100
AcDbEntity
8
INTERIOR_PROFILES
100
AcDbCircle
10
63.563099061226808
20
100.06720256300001
30
0
40
1.2644999999999662
210
0
220
0
230
1
0
LINE
5
130
100
AcDbEntity
8
INTERIOR_PROFILES
100
AcDbLine
10
14.207792591787012
20
125.53297139982331
30
0
11
12.461540976898497
21
125.53297139982331
31
0
0
LINE
5
131
100
AcDbEntity
8
INTERIOR_PROFILES
100
AcDbLine
10
12.461540976898497
20
125.53297139982331
30
0
11
12.461540976898515
21
124.68630150337961
31
0
0
SPLINE
5
132
100
AcDbEntity
8
INTERIOR_PROFILES
100
AcDbSpline
70
4
71
3
72
8
73
4
74
0
42
0.000000001
43
0.0000000001
44
0.0000000001
40
0
40
0
40
0
40
0
40
1
40
1
40
1
40
1
41
1
41
1
41
1
41
1
10
9.8157076435651724
20
122.01400822182444
30
0
10
11.270915976898497
20
122.01400822182444
30
0
10
12.461540976898497
20
123.23109317004629
30
0
10
12.461540976898497
20
124.68630150337961
30
0
0
SPLINE
5
133
100
AcDbEntity
8
INTERIOR_PROFILES
100
AcDbSpline
70
4
71
3
72
8
73
4
74
0
42
0.000000001
43
0.0000000001
44
0.0000000001
40
0
40
0
40
0
40
0
40
1
40
1
40
1
40
1
41
1
41
1
41
1
41
1
10
7.1963342584536782
20
124.68630150337961
30
0
10
7.1963342584536782
20
123.23109317004629
30
0
10
8.386959258453679
20
122.01400822182444
30
0
10
9.8157076435651724
20
122.01400822182444
30
0
0
LINE
5
134
100
AcDbEntity
8
INTERIOR_PROFILES
100
AcDbLine
10
7.1963342584536782
20
124.68630150337961
30
0
11
7.1963342584536605
21
125.53297139982331
31
0
0
LINE
5
135
100
AcDbEntity
8
INTERIOR_PROFILES
100
AcDbLine
10
7.1963342584536605
20
125.53297139982331
30
0
11
5.4500826435651639
21
125.53297139982331
31
0
0
LINE
5
136
100
AcDbEntity
8
INTERIOR_PROFILES
100
AcDbLine
10
5.4500826435651639
20
125.53297139982331
30
0
11
5.450082643565155
21
124.68630150337961
31
0
0
SPLINE
5
137
100
AcDbEntity
8
INTERIOR_PROFILES
100
AcDbSpline
70
4
71
3
72
8
73
4
74
0
42
0.000000001
43
0.0000000001
44
0.0000000001
40
0
40
0
40
0
40
0
40
1
40
1
40
1
40
1
41
1
41
1
41
1
41
1
10
9.8157076435651724
20
120.2148447849348
30
0
10
7.4079976953433224
20
120.2148447849348
30
0
10
5.4500826435651639
20
122.22567973315664
30
0
10
5.4500826435651639
20
124.68630150337961
30
0
0
SPLINE
5
138
100
AcDbEntity
8
INTERIOR_PROFILES
100
AcDbSpline
70
4
71
3
72
8
73
4
74
0
42
0.000000001
43
0.0000000001
44
0.0000000001
40
0
40
0
40
0
40
0
40
1
40
1
40
1
40
1
41
1
41
1
41
1
41
1
10
14.207792591787012
20
124.68630150337961
30
0
10
14.10196087334219
20
122.25213160693593
30
0
10
12.223417591787005
20
120.24130473315662
30
0
10
9.8157076435651724
20
120.2148447849348
30
0
0
LINE
5
139
100
AcDbEntity
8
INTERIOR_PROFILES
100
AcDbLine
10
14.207792591787012
20
124.68630150337961
30
0
11
14.207792591787012
21
125.53297139982331
31
0
0
LINE
5
140
100
AcDbEntity
8
INTERIOR_PROFILES
100
AcDbLine
10
2.1957108733421826
20
121.16735447426585
30
0
11
2.1957108733421826
21
131.856519526044
31
0
0
SPLINE
5
141
100
AcDbEntity
8
INTERIOR_PROFILES
100
AcDbSpline
70
4
71
3
72
8
73
4
74
0
42
0.000000001
43
0.0000000001
44
0.0000000001
40
0
40
0
40
0
40
0
40
1
40
1
40
1
40
1
41
1
41
1
41
1
41
1
10
1.3225891031192027
20
132.72964129626698
30
0
10
1.7988358733421883
20
132.72964129626698
30
0
10
2.1957108733421826
20
132.33276629626698
30
0
10
2.1957108733421826
20
131.856519526044
30
0
0
SPLINE
5
142
100
AcDbEntity
8
INTERIOR_PROFILES
100
AcDbSpline
70
4
71
3
72
8
73
4
74
0
42
0.000000001
43
0.0000000001
44
0.0000000001
40
0
40
0
40
0
40
0
40
1
40
1
40
1
40
1
41
1
41
1
41
1
41
1
10
0.44946733289622287
20
131.856519526044
30
0
10
0.44946733289622287
20
132.33276629626698
30
0
10
0.84634233289621719
20
132.72964129626698
30
0
10
1.3225891031192027
20
132.72964129626698
30
0
0
LINE
5
143
100
AcDbEntity
8
INTERIOR_PROFILES
100
AcDbLine
10
0.44946733289622287
20
131.856519526044
30
0
11
0.44946733289621399
21
122.04047624448883
31
0
0
LINE
5
144
100
AcDbEntity
8
INTERIOR_PROFILES
100
AcDbLine
10
0.44946733289621399
20
122.04047624448883
30
0
11
-3.0430358968808058
21
122.04047624448883
31
0
0
SPLINE
5
145
100
AcDbEntity
8
INTERIOR_PROFILES
100
AcDbSpline
70
4
71
3
72
8
73
4
74
0
42
0.000000001
43
0.0000000001
44
0.0000000001
40
0
40
0
40
0
40
0
40
1
40
1
40
1
40
1
41
1
41
1
41
1
41
1
10
-4.2865807933244859
20
122.56964291115551
30
0
10
-3.9161657415463225
20
122.19922785937734
30
0
10
-3.5722025635474708
20
122.04047624448883
30
0
10
-3.0430358968808058
20
122.04047624448883
30
0
0
SPLINE
5
146
100
AcDbEntity
8
INTERIOR_PROFILES
100
AcDbSpline
70
4
71
3
72
8
73
4
74
0
42
0.000000001
43
0.0000000001
44
0.0000000001
40
0
40
0
40
0
40
0
40
1
40
1
40
1
40
1
41
1
41
1
41
1
41
1
10
-4.7892875117693023
20
123.83963968137849
30
0
10
-4.7892875117693023
20
123.31047301471182
30
0
10
-4.6569958451026494
20
122.94005796293365
30
0
10
-4.2865807933244859
20
122.56964291115551
30
0
0
LINE
5
147
100
AcDbEntity
8
INTERIOR_PROFILES
100
AcDbLine
10
-4.7892875117693023
20
123.83963968137849
30
0
11
-4.7892875117693023
21
131.85651145160148
31
0
0
SPLINE
5
148
100
AcDbEntity
8
INTERIOR_PROFILES
100
AcDbSpline
70
4
71
3
72
8
73
4
74
0
42
0.000000001
43
0.0000000001
44
0.0000000001
40
0
40
0
40
0
40
0
40
1
40
1
40
1
40
1
41
1
41
1
41
1
41
1
10
-5.6888692302141308
20
132.72964129626698
30
0
10
-5.2126224599911453
20
132.72963322182446
30
0
10
-4.7892875117693023
20
132.33275822182446
30
0
10
-4.7892875117693023
20
131.85651145160148
30
0
0
SPLINE
5
149
100
AcDbEntity
8
INTERIOR_PROFILES
100
AcDbSpline
70
4
71
3
72
8
73
4
74
0
42
0.000000001
43
0.0000000001
44
0.0000000001
40
0
40
0
40
0
40
0
40
1
40
1
40
1
40
1
41
1
41
1
41
1
41
1
10
-6.5355391266578167
20
131.856519526044
30
0
10
-6.5355391266578167
20
132.33276629626698
30
0
10
-6.165124074879671
20
132.72964129626698
30
0
10
-5.6888692302141308
20
132.72964129626698
30
0
0
LINE
5
150
100
AcDbEntity
8
INTERIOR_PROFILES
100
AcDbLine
10
-6.5355391266578167
20
131.856519526044
30
0
11
-6.5355391266578167
21
123.83964775582102
31
0
0
SPLINE
5
151
100
AcDbEntity
8
INTERIOR_PROFILES
100
AcDbSpline
70
4
71
3
72
8
73
4
74
0
42
0.000000001
43
0.0000000001
44
0.0000000001
40
0
40
0
40
0
40
0
40
1
40
1
40
1
40
1
41
1
41
1
41
1
41
1
10
-5.5565775635474601
20
121.27318619271067
30
0
10
-6.3238676153256179
20
122.04047624448883
30
0
10
-6.5355391266578167
20
122.75485447426587
30
0
10
-6.5355391266578167
20
123.83964775582102
30
0
0
SPLINE
5
152
100
AcDbEntity
8
INTERIOR_PROFILES
100
AcDbSpline
70
4
71
3
72
8
73
4
74
0
42
0.000000001
43
0.0000000001
44
0.0000000001
40
0
40
0
40
0
40
0
40
1
40
1
40
1
40
1
41
1
41
1
41
1
41
1
10
-3.0430358968808058
20
120.26777275582104
30
0
10
-4.1013692302141358
20
120.26777275582104
30
0
10
-4.7892875117693023
20
120.53235608915436
30
0
10
-5.5565775635474601
20
121.27318619271067
30
0
0
LINE
5
153
100
AcDbEntity
8
INTERIOR_PROFILES
100
AcDbLine
10
-3.0430358968808058
20
120.26777275582104
30
0
11
1.3225891031192116
21
120.26777275582104
31
0
0
SPLINE
5
154
100
AcDbEntity
8
INTERIOR_PROFILES
100
AcDbSpline
70
4
71
3
72
8
73
4
74
0
42
0.000000001
43
0.0000000001
44
0.0000000001
40
0
40
0
40
0
40
0
40
1
40
1
40
1
40
1
41
1
41
1
41
1
41
1
10
1.9575874882306898
20
120.5588160373762
30
0
10
1.7723759251203397
20
120.37360447426586
30
0
10
1.5871724364525264
20
120.26777275582104
30
0
10
1.3225891031192027
20
120.26777275582104
30
0
0
SPLINE
5
155
100
AcDbEntity
8
INTERIOR_PROFILES
100
AcDbSpline
70
4
71
3
72
8
73
4
74
0
42
0.000000001
43
0.0000000001
44
0.0000000001
40
0
40
0
40
0
40
0
40
1
40
1
40
1
40
1
41
1
41
1
41
1
41
1
10
2.1957108733421826
20
121.16735447426585
30
0
10
2.1957108733421826
20
120.90277114093253
30
0
10
2.1163391031191914
20
120.74401952604401
30
0
10
1.9575874882306898
20
120.5588160373762
30
0
0
CIRCLE
5
156
100
AcDbEntity
8
INTERIOR_PROFILES
100
AcDbCircle
10
68.135099061226811
20
6.7222025629999749
30
0
40
1.2644999999999662
210
0
220
0
230
1
0
CIRCLE
5
157
100
AcDbEntity
8
INTERIOR_PROFILES
100
AcDbCircle
10
0.31709906122681097
20
100.06720256300001
30
0
40
1.2644999999999573
210
0
220
0
230
1
0
CIRCLE
5
158
100
AcDbEntity
8
INTERIOR_PROFILES
100
AcDbCircle
10
-4.2549009387731918
20
6.7222025629999749
30
0
40
1.2644999999999573
210
0
220
0
230
1
0
LINE
5
159
100
AcDbEntity
8
INTERIOR_PROFILES
100
AcDbLine
10
48.286130769785878
20
131.856519526044
30
0
11
48.286130769785878
21
123.83964775582102
31
0
0
SPLINE
5
160
100
AcDbEntity
8
INTERIOR_PROFILES
100
AcDbSpline
70
4
71
3
72
8
73
4
74
0
42
0.000000001
43
0.0000000001
44
0.0000000001
40
0
40
0
40
0
40
0
40
1
40
1
40
1
40
1
41
1
41
1
41
1
41
1
10
49.265092332896216
20
121.27318619271067
30
0
10
48.497802281118076
20
122.04047624448883
30
0
10
48.286130769785878
20
122.75485447426587
30
0
10
48.286130769785878
20
123.83964775582102
30
0
0
SPLINE
5
161
100
AcDbEntity
8
INTERIOR_PROFILES
100
AcDbSpline
70
4
71
3
72
8
73
4
74
0
42
0.000000001
43
0.0000000001
44
0.0000000001
40
0
40
0
40
0
40
0
40
1
40
1
40
1
40
1
41
1
41
1
41
1
41
1
10
51.778633999562885
20
120.26777275582104
30
0
10
50.720300666229562
20
120.26777275582104
30
0
10
50.032382384674392
20
120.53235608915436
30
0
10
49.265092332896216
20
121.27318619271067
30
0
0
LINE
5
162
100
AcDbEntity
8
INTERIOR_PROFILES
100
AcDbLine
10
51.778633999562885
20
120.26777275582104
30
0
11
56.14425496234162
21
120.26777275582104
31
0
0
SPLINE
5
163
100
AcDbEntity
8
INTERIOR_PROFILES
100
AcDbSpline
70
4
71
3
72
8
73
4
74
0
42
0.000000001
43
0.0000000001
44
0.0000000001
40
0
40
0
40
0
40
0
40
1
40
1
40
1
40
1
41
1
41
1
41
1
41
1
10
56.779253347453107
20
120.5588160373762
30
0
10
56.594045821564038
20
120.37360447426586
30
0
10
56.408838295674961
20
120.26777275582104
30
0
10
56.14425496234162
20
120.26777275582104
30
0
0
SPLINE
5
164
100
AcDbEntity
8
INTERIOR_PROFILES
100
AcDbSpline
70
4
71
3
72
8
73
4
74
0
42
0.000000001
43
0.0000000001
44
0.0000000001
40
0
40
0
40
0
40
0
40
1
40
1
40
1
40
1
41
1
41
1
41
1
41
1
10
57.0173767325646
20
121.16735447426585
30
0
10
57.0173767325646
20
120.90277114093253
30
0
10
56.938000925120349
20
120.74401952604401
30
0
10
56.779253347453107
20
120.5588160373762
30
0
0
LINE
5
165
100
AcDbEntity
8
INTERIOR_PROFILES
100
AcDbLine
10
57.0173767325646
20
121.16735447426585
30
0
11
57.017376732564614
21
131.856519526044
31
0
0
SPLINE
5
166
100
AcDbEntity
8
INTERIOR_PROFILES
100
AcDbSpline
70
4
71
3
72
8
73
4
74
0
42
0.000000001
43
0.0000000001
44
0.0000000001
40
0
40
0
40
0
40
0
40
1
40
1
40
1
40
1
41
1
41
1
41
1
41
1
10
56.144250925120346
20
132.72964129626698
30
0
10
56.620501732564605
20
132.72964129626698
30
0
10
57.0173767325646
20
132.33276629626698
30
0
10
57.0173767325646
20
131.856519526044
30
0
0
SPLINE
5
167
100
AcDbEntity
8
INTERIOR_PROFILES
100
AcDbSpline
70
4
71
3
72
8
73
4
74
0
42
0.000000001
43
0.0000000001
44
0.0000000001
40
0
40
0
40
0
40
0
40
1
40
1
40
1
40
1
41
1
41
1
41
1
41
1
10
55.271125117676085
20
131.856519526044
30
0
10
55.271125117676085
20
132.33276629626698
30
0
10
55.66800011767608
20
132.72964129626698
30
0
10
56.144250925120346
20
132.72964129626698
30
0
0
LINE
5
168
100
AcDbEntity
8
INTERIOR_PROFILES
100
AcDbLine
10
55.271125117676085
20
131.856519526044
30
0
11
55.271125117676107
21
122.04047624448883
31
0
0
LINE
5
169
100
AcDbEntity
8
INTERIOR_PROFILES
100
AcDbLine
10
55.271125117676107
20
122.04047624448883
30
0
11
51.778625925120352
21
122.04047624448883
31
0
0
SPLINE
5
170
100
AcDbEntity
8
INTERIOR_PROFILES
100
AcDbSpline
70
4
71
3
72
8
73
4
74
0
42
0.000000001
43
0.0000000001
44
0.0000000001
40
0
40
0
40
0
40
0
40
1
40
1
40
1
40
1
41
1
41
1
41
1
41
1
10
50.535081028676672
20
122.56964291115551
30
0
10
50.905496080454817
20
122.19922785937734
30
0
10
51.249459258453669
20
122.04047624448883
30
0
10
51.778625925120352
20
122.04047624448883
30
0
0
SPLINE
5
171
100
AcDbEntity
8
INTERIOR_PROFILES
100
AcDbSpline
70
4
71
3
72
8
73
4
74
0
42
0.000000001
43
0.0000000001
44
0.0000000001
40
0
40
0
40
0
40
0
40
1
40
1
40
1
40
1
41
1
41
1
41
1
41
1
10
50.032374310231837
20
123.83963968137849
30
0
10
50.032374310231837
20
123.31047301471182
30
0
10
50.16466597689849
20
122.94005796293365
30
0
10
50.535081028676672
20
122.56964291115551
30
0
0
LINE
5
172
100
AcDbEntity
8
INTERIOR_PROFILES
100
AcDbLine
10
50.032374310231837
20
123.83963968137849
30
0
11
50.032374310231837
21
131.85651145160148
31
0
0
SPLINE
5
173
100
AcDbEntity
8
INTERIOR_PROFILES
100
AcDbSpline
70
4
71
3
72
8
73
4
74
0
42
0.000000001
43
0.0000000001
44
0.0000000001
40
0
40
0
40
0
40
0
40
1
40
1
40
1
40
1
41
1
41
1
41
1
41
1
10
49.132800666229564
20
132.72964129626698
30
0
10
49.609047436452549
20
132.72963322182446
30
0
10
50.032374310231837
20
132.33275822182446
30
0
10
50.032374310231837
20
131.85651145160148
30
0
0
SPLINE
5
174
100
AcDbEntity
8
INTERIOR_PROFILES
100
AcDbSpline
70
4
71
3
72
8
73
4
74
0
42
0.000000001
43
0.0000000001
44
0.0000000001
40
0
40
0
40
0
40
0
40
1
40
1
40
1
40
1
41
1
41
1
41
1
41
1
10
48.286130769785878
20
131.856519526044
30
0
10
48.286130769785878
20
132.33276629626698
30
0
10
48.656545821564023
20
132.72964129626698
30
0
10
49.132800666229564
20
132.72964129626698
30
0
0
LINE
5
175
100
AcDbEntity
8
INTERIOR_PROFILES
100
AcDbLine
10
7.1963342584536782
20
127.12047139982332
30
0
11
7.196334258453696
21
128.25817650337962
31
0
0
SPLINE
5
176
100
AcDbEntity
8
INTERIOR_PROFILES
100
AcDbSpline
70
4
71
3
72
8
73
4
74
0
42
0.000000001
43
0.0000000001
44
0.0000000001
40
0
40
0
40
0
40
0
40
1
40
1
40
1
40
1
41
1
41
1
41
1
41
1
10
9.8157076435651724
20
130.93046978493479
30
0
10
8.386959258453679
20
130.93046978493479
30
0
10
7.1963342584536782
20
129.7398447849348
30
0
10
7.1963342584536782
20
128.25817650337962
30
0
0
SPLINE
5
177
100
AcDbEntity
8
INTERIOR_PROFILES
100
AcDbSpline
70
4
71
3
72
8
73
4
74
0
42
0.000000001
43
0.0000000001
44
0.0000000001
40
0
40
0
40
0
40
0
40
1
40
1
40
1
40
1
41
1
41
1
41
1
41
1
10
12.461540976898497
20
128.25817650337962
30
0
10
12.461540976898497
20
129.7398447849348
30
0
10
11.270915976898497
20
130.93046978493479
30
0
10
9.8157076435651724
20
130.93046978493479
30
0
0
LINE
5
178
100
AcDbEntity
8
INTERIOR_PROFILES
100
AcDbLine
10
12.461540976898497
20
128.25817650337962
30
0
11
12.461540976898497
21
127.12047139982332
31
0
0
LINE
5
179
100
AcDbEntity
8
INTERIOR_PROFILES
100
AcDbLine
10
12.461540976898497
20
127.12047139982332
30
0
11
14.207792591787012
21
127.12047139982332
31
0
0
LINE
5
180
100
AcDbEntity
8
INTERIOR_PROFILES
100
AcDbLine
10
14.207792591787012
20
127.12047139982332
30
0
11
14.207792591786994
21
128.25817650337962
31
0
0
SPLINE
5
181
100
AcDbEntity
8
INTERIOR_PROFILES
100
AcDbSpline
70
4
71
3
72
8
73
4
74
0
42
0.000000001
43
0.0000000001
44
0.0000000001
40
0
40
0
40
0
40
0
40
1
40
1
40
1
40
1
41
1
41
1
41
1
41
1
10
9.8157076435651724
20
132.72963322182446
30
0
10
12.249877540008853
20
132.72963322182446
30
0
10
14.207792591787012
20
130.7187982736026
30
0
10
14.207792591787012
20
128.25817650337962
30
0
0
SPLINE
5
182
100
AcDbEntity
8
INTERIOR_PROFILES
100
AcDbSpline
70
4
71
3
72
8
73
4
74
0
42
0.000000001
43
0.0000000001
44
0.0000000001
40
0
40
0
40
0
40
0
40
1
40
1
40
1
40
1
41
1
41
1
41
1
41
1
10
5.4500826435651639
20
128.25817650337962
30
0
10
5.5294544137881374
20
130.69234639982332
30
0
10
7.434457643565171
20
132.7031732736026
30
0
10
9.8157076435651724
20
132.72963322182446
30
0
0
LINE
5
183
100
AcDbEntity
8
INTERIOR_PROFILES
100
AcDbLine
10
5.4500826435651639
20
128.25817650337962
30
0
11
5.4500826435651728
21
127.12047139982332
31
0
0
LINE
5
184
100
AcDbEntity
8
INTERIOR_PROFILES
100
AcDbLine
10
5.4500826435651728
20
127.12047139982332
30
0
11
7.1963342584536782
21
127.12047139982332
31
0
0
LINE
5
185
100
AcDbEntity
8
INTERIOR_PROFILES
100
AcDbLine
10
16.139239620900785
20
126.30026952604402
30
0
11
16.139239620900785
21
121.11443457782217
31
0
0
SPLINE
5
186
100
AcDbEntity
8
INTERIOR_PROFILES
100
AcDbSpline
70
4
71
3
72
8
73
4
74
0
42
0.000000001
43
0.0000000001
44
0.0000000001
40
0
40
0
40
0
40
0
40
1
40
1
40
1
40
1
41
1
41
1
41
1
41
1
10
16.324451184011135
20
120.55880796293366
30
0
10
16.192159517344464
20
120.74401952604401
30
0
10
16.139239620900785
20
120.90276306648997
30
0
10
16.139239620900785
20
121.11443457782217
30
0
0
SPLINE
5
187
100
AcDbEntity
8
INTERIOR_PROFILES
100
AcDbSpline
70
4
71
3
72
8
73
4
74
0
42
0.000000001
43
0.0000000001
44
0.0000000001
40
0
40
0
40
0
40
0
40
1
40
1
40
1
40
1
41
1
41
1
41
1
41
1
10
17.012369465566302
20
120.26776468137848
30
0
10
16.721326184011129
20
120.26776468137848
30
0
10
16.509662747121485
20
120.34713645160147
30
0
10
16.324451184011135
20
120.55880796293366
30
0
0
LINE
5
188
100
AcDbEntity
8
INTERIOR_PROFILES
100
AcDbLine
10
17.012369465566302
20
120.26776468137848
30
0
11
19.711122695343324
21
120.26776468137848
31
0
0
SPLINE
5
189
100
AcDbEntity
8
INTERIOR_PROFILES
100
AcDbSpline
70
4
71
3
72
8
73
4
74
0
42
0.000000001
43
0.0000000001
44
0.0000000001
40
0
40
0
40
0
40
0
40
1
40
1
40
1
40
1
41
1
41
1
41
1
41
1
10
23.044874310231833
20
121.67005311826813
30
0
10
22.409875925120346
20
120.92922301471182
30
0
10
21.113419206675523
20
120.26776468137848
30
0
10
19.711122695343324
20
120.26776468137848
30
0
0
SPLINE
5
190
100
AcDbEntity
8
INTERIOR_PROFILES
100
AcDbSpline
70
4
71
3
72
8
73
4
74
0
42
0.000000001
43
0.0000000001
44
0.0000000001
40
0
40
0
40
0
40
0
40
1
40
1
40
1
40
1
41
1
41
1
41
1
41
1
10
24.076731546458241
20
124.63338968137849
30
0
10
24.076755769785869
20
123.41630473315664
30
0
10
23.574040976898498
20
122.27859155515779
30
0
10
23.044874310231833
20
121.67005311826813
30
0
0
LINE
5
191
100
AcDbEntity
8
INTERIOR_PROFILES
100
AcDbLine
10
24.076731546458241
20
124.63338968137849
30
0
11
24.076731546458241
21
131.80359962960034
31
0
0
SPLINE
5
192
100
AcDbEntity
8
INTERIOR_PROFILES
100
AcDbSpline
70
4
71
3
72
8
73
4
74
0
42
0.000000001
43
0.0000000001
44
0.0000000001
40
0
40
0
40
0
40
0
40
1
40
1
40
1
40
1
41
1
41
1
41
1
41
1
10
23.230061650014555
20
132.72964129626698
30
0
10
23.732768368459372
20
132.72964129626698
30
0
10
24.103183420237535
20
132.30630634804513
30
0
10
24.076731546458241
20
131.80359962960034
30
0
0
SPLINE
5
193
100
AcDbEntity
8
INTERIOR_PROFILES
100
AcDbSpline
70
4
71
3
72
8
73
4
74
0
42
0.000000001
43
0.0000000001
44
0.0000000001
40
0
40
0
40
0
40
0
40
1
40
1
40
1
40
1
41
1
41
1
41
1
41
1
10
22.356939879791558
20
131.80359962960034
30
0
10
22.330479931569727
20
132.30630634804513
30
0
10
22.727354931569721
20
132.72964129626698
30
0
10
23.230061650014555
20
132.72964129626698
30
0
0
LINE
5
194
100
AcDbEntity
8
INTERIOR_PROFILES
100
AcDbLine
10
22.356939879791558
20
131.80359962960034
30
0
11
22.356939879791558
21
124.63338968137849
31
0
0
SPLINE
5
195
100
AcDbEntity
8
INTERIOR_PROFILES
100
AcDbSpline
70
4
71
3
72
8
73
4
74
0
42
0.000000001
43
0.0000000001
44
0.0000000001
40
0
40
0
40
0
40
0
40
1
40
1
40
1
40
1
41
1
41
1
41
1
41
1
10
21.642561650014542
20
122.80776629626699
30
0
10
22.145268368459377
20
123.38985285937736
30
0
10
22.356939879791558
20
123.86609962960034
30
0
10
22.356939879791558
20
124.63338968137849
30
0
0
SPLINE
5
196
100
AcDbEntity
8
INTERIOR_PROFILES
100
AcDbSpline
70
4
71
3
72
8
73
4
74
0
42
0.000000001
43
0.0000000001
44
0.0000000001
40
0
40
0
40
0
40
0
40
1
40
1
40
1
40
1
41
1
41
1
41
1
41
1
10
19.711106546458232
20
122.014016296267
30
0
10
20.53131649468007
20
122.014016296267
30
0
10
21.298606546458227
20
122.38443134804514
30
0
10
21.642561650014542
20
122.80776629626699
30
0
0
LINE
5
197
100
AcDbEntity
8
INTERIOR_PROFILES
100
AcDbLine
10
19.711106546458232
20
122.014016296267
30
0
11
17.885483161346745
21
122.014016296267
31
0
0
LINE
5
198
100
AcDbEntity
8
INTERIOR_PROFILES
100
AcDbLine
10
17.885483161346745
20
122.014016296267
30
0
11
17.885483161346762
21
126.30026952604402
31
0
0
SPLINE
5
199
100
AcDbEntity
8
INTERIOR_PROFILES
100
AcDbSpline
70
4
71
3
72
8
73
4
74
0
42
0.000000001
43
0.0000000001
44
0.0000000001
40
0
40
0
40
0
40
0
40
1
40
1
40
1
40
1
41
1
41
1
41
1
41
1
10
17.012361391123765
20
127.173391296267
30
0
10
17.488608161346733
20
127.173391296267
30
0
10
17.885483161346745
20
126.776516296267
30
0
10
17.885483161346745
20
126.30026952604402
30
0
0
SPLINE
5
200
100
AcDbEntity
8
INTERIOR_PROFILES
100
AcDbSpline
70
4
71
3
72
8
73
4
74
0
42
0.000000001
43
0.0000000001
44
0.0000000001
40
0
40
0
40
0
40
0
40
1
40
1
40
1
40
1
41
1
41
1
41
1
41
1
10
16.139239620900785
20
126.30026952604402
30
0
10
16.139239620900785
20
126.776516296267
30
0
10
16.536114620900779
20
127.173391296267
30
0
10
17.012361391123765
20
127.173391296267
30
0
0
SPLINE
5
201
100
AcDbEntity
8
INTERIOR_PROFILES
100
AcDbSpline
70
4
71
3
72
8
73
4
74
0
42
0.000000001
43
0.0000000001
44
0.0000000001
40
0
40
0
40
0
40
0
40
1
40
1
40
1
40
1
41
1
41
1
41
1
41
1
10
29.368430510895074
20
132.72963322182446
30
0
10
30.770718947784736
20
132.72963322182446
30
0
10
32.067183740672093
20
132.04171494026926
30
0
10
32.70218212578358
20
131.30088483671295
30
0
0
LINE
5
202
100
AcDbEntity
8
INTERIOR_PROFILES
100
AcDbLine
10
29.368430510895074
20
132.72963322182446
30
0
11
27.04010040733877
21
132.72963322182446
31
0
0
SPLINE
5
203
100
AcDbEntity
8
INTERIOR_PROFILES
100
AcDbSpline
70
4
71
3
72
8
73
4
74
0
42
0.000000001
43
0.0000000001
44
0.0000000001
40
0
40
0
40
0
40
0
40
1
40
1
40
1
40
1
41
1
41
1
41
1
41
1
10
26.352182125783585
20
132.41212999204743
30
0
10
26.537393688893935
20
132.62379342893706
30
0
10
26.749057125783597
20
132.72963322182446
30
0
10
27.04010040733877
20
132.72963322182446
30
0
0
SPLINE
5
204
100
AcDbEntity
8
INTERIOR_PROFILES
100
AcDbSpline
70
4
71
3
72
8
73
4
74
0
42
0.000000001
43
0.0000000001
44
0.0000000001
40
0
40
0
40
0
40
0
40
1
40
1
40
1
40
1
41
1
41
1
41
1
41
1
10
26.166970562673235
20
131.8565033771589
30
0
10
26.166970562673235
20
132.06816681404857
30
0
10
26.219890459116932
20
132.22691842893707
30
0
10
26.352182125783585
20
132.41212999204743
30
0
0
LINE
5
205
100
AcDbEntity
8
INTERIOR_PROFILES
100
AcDbLine
10
26.166970562673235
20
131.8565033771589
30
0
11
26.166970562673235
21
128.54921171049224
31
0
0
SPLINE
5
206
100
AcDbEntity
8
INTERIOR_PROFILES
100
AcDbSpline
70
4
71
3
72
8
73
4
74
0
42
0.000000001
43
0.0000000001
44
0.0000000001
40
0
40
0
40
0
40
0
40
1
40
1
40
1
40
1
41
1
41
1
41
1
41
1
10
27.040092332896215
20
127.70254181404857
30
0
10
26.563845562673247
20
127.70254181404857
30
0
10
26.166970562673235
20
128.07295686582674
30
0
10
26.166970562673235
20
128.54921171049224
30
0
0
SPLINE
5
207
100
AcDbEntity
8
INTERIOR_PROFILES
100
AcDbSpline
70
4
71
3
72
8
73
4
74
0
42
0.000000001
43
0.0000000001
44
0.0000000001
40
0
40
0
40
0
40
0
40
1
40
1
40
1
40
1
41
1
41
1
41
1
41
1
10
27.913214103119195
20
128.54921171049224
30
0
10
27.913214103119195
20
128.07296494026926
30
0
10
27.516339103119201
20
127.70254181404857
30
0
10
27.040092332896215
20
127.70254181404857
30
0
0
LINE
5
208
100
AcDbEntity
8
INTERIOR_PROFILES
100
AcDbLine
10
27.913214103119195
20
128.54921171049224
30
0
11
27.913214103119195
21
130.98338160693595
31
0
0
LINE
5
209
100
AcDbEntity
8
INTERIOR_PROFILES
100
AcDbLine
10
27.913214103119195
20
130.98338160693595
30
0
11
29.368422436452537
21
130.98338160693595
31
0
0
SPLINE
5
210
100
AcDbEntity
8
INTERIOR_PROFILES
100
AcDbSpline
70
4
71
3
72
8
73
4
74
0
42
0.000000001
43
0.0000000001
44
0.0000000001
40
0
40
0
40
0
40
0
40
1
40
1
40
1
40
1
41
1
41
1
41
1
41
1
10
31.299877540008847
20
130.18963160693596
30
0
10
30.955922436452532
20
130.61296655515778
30
0
10
30.188624310231837
20
130.98338160693595
30
0
10
29.368422436452537
20
130.98338160693595
30
0
0
SPLINE
5
211
100
AcDbEntity
8
INTERIOR_PROFILES
100
AcDbSpline
70
4
71
3
72
8
73
4
74
0
42
0.000000001
43
0.0000000001
44
0.0000000001
40
0
40
0
40
0
40
0
40
1
40
1
40
1
40
1
41
1
41
1
41
1
41
1
10
32.014255769785862
20
128.33754827360261
30
0
10
32.014255769785862
20
129.10483832538077
30
0
10
31.802592332896218
20
129.60754504382558
30
0
10
31.299877540008847
20
130.18963160693596
30
0
0
LINE
5
212
100
AcDbEntity
8
INTERIOR_PROFILES
100
AcDbLine
10
32.014255769785862
20
128.33754827360261
30
0
11
32.014255769785862
21
123.62796817004629
31
0
0
LINE
5
213
100
AcDbEntity
8
INTERIOR_PROFILES
100
AcDbLine
10
32.014255769785862
20
123.62796817004629
30
0
11
33.734055510895082
21
123.62796817004629
31
0
0
LINE
5
214
100
AcDbEntity
8
INTERIOR_PROFILES
100
AcDbLine
10
33.734055510895082
20
123.62796817004629
30
0
11
33.734055510895082
21
128.33754827360261
31
0
0
SPLINE
5
215
100
AcDbEntity
8
INTERIOR_PROFILES
100
AcDbSpline
70
4
71
3
72
8
73
4
74
0
42
0.000000001
43
0.0000000001
44
0.0000000001
40
0
40
0
40
0
40
0
40
1
40
1
40
1
40
1
41
1
41
1
41
1
41
1
10
32.70218212578358
20
131.30088483671295
30
0
10
33.231348792450262
20
130.7187982736026
30
0
10
33.734055510895082
20
129.5810931700463
30
0
10
33.734055510895082
20
128.33754827360261
30
0
0
SPLINE
5
216
100
AcDbEntity
8
INTERIOR_PROFILES
100
AcDbSpline
70
4
71
3
72
8
73
4
74
0
42
0.000000001
43
0.0000000001
44
0.0000000001
40
0
40
0
40
0
40
0
40
1
40
1
40
1
40
1
41
1
41
1
41
1
41
1
10
39.740084258453678
20
116.11380311826814
30
0
10
39.740084258453678
20
117.6219232736026
30
0
10
41.962582643565156
20
117.6219232736026
30
0
10
41.962582643565156
20
116.11380311826814
30
0
0
SPLINE
5
217
100
AcDbEntity
8
INTERIOR_PROFILES
100
AcDbSpline
70
4
71
3
72
8
73
4
74
0
42
0.000000001
43
0.0000000001
44
0.0000000001
40
0
40
0
40
0
40
0
40
1
40
1
40
1
40
1
41
1
41
1
41
1
41
1
10
41.962582643565156
20
116.11380311826814
30
0
10
41.962582643565156
20
114.60567488849111
30
0
10
39.740084258453678
20
114.60567488849111
30
0
10
39.740084258453678
20
116.11380311826814
30
0
0
LINE
5
218
100
AcDbEntity
8
INTERIOR_PROFILES
100
AcDbLine
10
28.177797436452536
20
120.26776468137848
30
0
11
32.014255769785862
21
120.26776468137847
31
0
0
LINE
5
219
100
AcDbEntity
8
INTERIOR_PROFILES
100
AcDbLine
10
32.014255769785862
20
120.26776468137847
30
0
11
32.014255769785862
21
116.14026306648995
31
0
0
SPLINE
5
220
100
AcDbEntity
8
INTERIOR_PROFILES
100
AcDbSpline
70
4
71
3
72
8
73
4
74
0
42
0.000000001
43
0.0000000001
44
0.0000000001
40
0
40
0
40
0
40
0
40
1
40
1
40
1
40
1
41
1
41
1
41
1
41
1
10
32.887377540008856
20
115.21422139982332
30
0
10
32.384662747121489
20
115.21422139982332
30
0
10
31.987795821564031
20
115.63755634804515
30
0
10
32.014255769785862
20
116.14026306648996
30
0
0
SPLINE
5
221
100
AcDbEntity
8
INTERIOR_PROFILES
100
AcDbSpline
70
4
71
3
72
8
73
4
74
0
42
0.000000001
43
0.0000000001
44
0.0000000001
40
0
40
0
40
0
40
0
40
1
40
1
40
1
40
1
41
1
41
1
41
1
41
1
10
33.734047436452542
20
116.14026306648996
30
0
10
33.760507384674376
20
115.63755634804515
30
0
10
33.390092332896231
20
115.21422139982332
30
0
10
32.887377540008856
20
115.21422139982332
30
0
0
LINE
5
222
100
AcDbEntity
8
INTERIOR_PROFILES
100
AcDbLine
10
33.734047436452542
20
116.14026306648996
30
0
11
33.734047436452542
21
122.0404681700463
31
0
0
LINE
5
223
100
AcDbEntity
8
INTERIOR_PROFILES
100
AcDbLine
10
33.734047436452542
20
122.0404681700463
30
0
11
28.177797436452536
21
122.0404681700463
31
0
0
SPLINE
5
224
100
AcDbEntity
8
INTERIOR_PROFILES
100
AcDbSpline
70
4
71
3
72
8
73
4
74
0
42
0.000000001
43
0.0000000001
44
0.0000000001
40
0
40
0
40
0
40
0
40
1
40
1
40
1
40
1
41
1
41
1
41
1
41
1
10
27.304675666229556
20
121.14088645160146
30
0
10
27.304675666229556
20
121.61713322182445
30
0
10
27.701550666229551
20
122.0404681700463
30
0
10
28.177797436452536
20
122.0404681700463
30
0
0
SPLINE
5
225
100
AcDbEntity
8
INTERIOR_PROFILES
100
AcDbSpline
70
4
71
3
72
8
73
4
74
0
42
0.000000001
43
0.0000000001
44
0.0000000001
40
0
40
0
40
0
40
0
40
1
40
1
40
1
40
1
41
1
41
1
41
1
41
1
10
28.177797436452536
20
120.26776468137848
30
0
10
27.701550666229551
20
120.26776468137848
30
0
10
27.304675666229556
20
120.66463968137847
30
0
10
27.304675666229556
20
121.14088645160146
30
0
0
LINE
5
226
100
AcDbEntity
8
BEND
100
AcDbLine
10
74.640842455170713
20
109.38501175969068
30
2.2204460492503131e-15
11
-10
21
109.38501175969068
31
-5.4300085780560388e-15
0
LINE
5
227
100
AcDbEntity
8
BEND_EXTENT
100
AcDbLine
10
74.640842455170727
20
105.04607960600147
30
0
11
-10
21
105.04607960600147
31
0
0
LINE
5
228
100
AcDbEntity
8
BEND_EXTENT
100
AcDbLine
10
-10
20
113.72394391337988
30
0
11
74.640842455170713
21
113.72394391337988
31
8.8817841970012523e-15
0
ENDSEC
0
SECTION
2
OBJECTS
0
DICTIONARY
5
C
100
AcDbDictionary
3
ACAD_GROUP
350
D
3
ACAD_MLINESTYLE
350
17
0
DICTIONARY
5
D
100
AcDbDictionary
0
DICTIONARY
5
1A
330
C
100
AcDbDictionary
0
DICTIONARY
5
17
100
AcDbDictionary
0
ENDSEC
0
EOF
