<?xml version="1.0" encoding="utf-8"?>
<!-- Generator: Adobe Illustrator 24.2.0, SVG Export Plug-In . SVG Version: 6.00 Build 0)  -->
<svg version="1.1" id="Layer_1" xmlns="http://www.w3.org/2000/svg" xmlns:xlink="http://www.w3.org/1999/xlink" x="0px" y="0px"
	 viewBox="0 0 612 792" style="enable-background:new 0 0 612 792;" xml:space="preserve">
<style type="text/css">
	.st0{fill:none;}
</style>
<g>
	<rect x="55.7" y="303.2" class="st0" width="556.3" height="162.2"/>
	<path d="M187.1,349.6v-43c0-1.8,1.5-3.4,3.3-3.4c1.8,0,3.2,1.6,3.2,3.4v43c0,7.2,6,13.2,13.3,13.2c7.3,0,13.2-6,13.2-13.2v-43
		c0-1.8,1.5-3.4,3.3-3.4c1.8,0,3.4,1.6,3.4,3.4v43c0,10.9-8.9,19.8-19.9,19.8C196,369.4,187.1,360.5,187.1,349.6z"/>
	<path d="M266.7,366.1v-30.3c0-2-0.5-3.4-1.9-4.8c-1.4-1.4-2.7-2-4.7-2h-13.2v37.1c0,1.8-1.5,3.3-3.3,3.3c-1.8,0-3.3-1.5-3.3-3.3
		v-40.4c0-1,0.3-1.6,0.9-2.3c0.7-0.7,1.4-1.1,2.4-1.1h16.5c4,0,6.6,1,9.5,3.8c2.9,2.9,3.7,5.6,3.7,9.7v30.3c0,1.8-1.4,3.3-3.2,3.3
		C268.3,369.4,266.7,367.9,266.7,366.1z"/>
	<path d="M286.4,329.2c-2.1,0-3.6-0.9-4-2.5c-0.6-2.5,1.3-4.4,3-4.4c0,0,15.1,0,16,0c1.8,0,3.3,1.6,3.3,3.4v3.5H286.4z M320.4,366.1
		c0,1.8-1.5,3.3-3.3,3.3h-31.4c-1.8,0-3.3-1.5-3.3-3.3c0-1.8,1.5-3.3,3.3-3.3h12.4v-27.6h6.6v27.6h12.4
		C318.9,362.8,320.4,364.3,320.4,366.1z M297.2,306.6c0-5.7,8.4-5.7,8.4,0C305.6,312.3,297.2,312.3,297.2,306.6z"/>
	<path d="M328.3,329v-22.3c-0.1-1.9,1.3-3.5,3.2-3.5s3.4,1.6,3.3,3.5v15.6h14.5c1.8,0,3.3,1.5,3.3,3.3s-1.5,3.4-3.3,3.4H328.3z
		 M334.8,335v17.8c0,2.9,0.8,4.8,2.7,7c1.3,1.6,4.2,3,7.3,3h5.5v-9.2c0-1.8,1.5-3.2,3.3-3.2c1.8,0,3.3,1.4,3.3,3.2v12.5
		c0,0.8-0.2,1.4-0.7,2.1c-0.7,0.8-1.5,1.2-2.6,1.2h-8.8c-5.3,0-10.2-2.6-12.6-5.4c-2-2.2-3.9-6.5-3.9-11.2V335H334.8z"/>
	<path d="M368.7,327.6c2.4-2.8,7.3-5.3,12.6-5.3h10.2c1.1,0,1.9,0.3,2.6,1.1c0.5,0.7,0.7,1.3,0.7,2.1v19.6c0,1.8-1.5,3.3-3.3,3.3
		c-1.8,0-3.3-1.5-3.3-3.3v-16.2h-6.9c-3.1,0-6,1.4-7.3,3c-1.9,2.2-2.7,4-2.7,6.9v27.1c0.1,1.9-1.4,3.5-3.3,3.5s-3.3-1.6-3.2-3.5
		v-27.1C364.8,334.2,366.7,329.9,368.7,327.6z"/>
	<path d="M408.7,342.2h-6.6V339c0.4-9.2,7.5-16.8,16.6-16.9c9.1,0,16.5,7.6,16.5,16.9v3.2h-6.6V339c0-5.5-4.5-10.1-9.9-10.1
		c-5.5,0-10,4.6-10,10.1V342.2z M428.6,348.2h6.6v4.3c-0.3,9.2-7.5,16.8-16.5,16.9c-9.2,0-16.6-7.6-16.6-16.9v-4.3h6.6v4.3
		c0,5.6,4.5,10.1,10,10.1c5.4,0,9.9-4.5,9.9-10.1V348.2z"/>
	<path d="M473.9,366.1v-30.3c0-2-0.5-3.4-1.9-4.8c-1.4-1.4-2.7-2-4.7-2h-13.2v37.1c0,1.8-1.5,3.3-3.3,3.3c-1.8,0-3.3-1.5-3.3-3.3
		v-40.4c0-1,0.3-1.6,0.9-2.3c0.7-0.7,1.4-1.1,2.4-1.1h16.5c4,0,6.6,1,9.5,3.8c2.9,2.9,3.7,5.6,3.7,9.7v30.3c0,1.8-1.4,3.3-3.2,3.3
		C475.5,369.4,473.9,367.9,473.9,366.1z"/>
</g>
<g>
</g>
<g>
</g>
<g>
</g>
<g>
</g>
<g>
</g>
<g>
</g>
</svg>
